<svg version="1.1" id="Layer_1" xmlns="http://www.w3.org/2000/svg" x="0" y="0" viewBox="0 0 120 120" xml:space="preserve" enable-background="new 0 0 120 120" width="120" height="120"><title>connection</title><g class="nc-icon-wrapper"><g id="_x35_54_x2C__Link_x2C__Link_Building_x2C__Linking_x2C__Logical_Linking"><path class="st0" d="M107.1 77.1c3.9 0 7.1 3.2 7.1 7.1 0 3.9-3.2 7.1-7.1 7.1-3.9 0-7.1-3.2-7.1-7.1 0-3.9 3.2-7.1 7.1-7.1z" style="" fill="#A2E8E6"/><circle class="st0" cx="18.6" cy="18.6" r="11.4" style="" fill="#A2E8E6"/><path class="st0" d="M75.6 42.5c2.8 2.8 2.8 7.3 0 10.1L48.3 79.9c-2.8 2.8-7.3 2.8-10.1 0s-2.8-7.3 0-10.1l27.3-27.3c2.8-2.7 7.3-2.7 10.1 0z" style="" fill="#A2E8E6"/><path class="st1" d="M100.9 17.3c7.8 7.8 7.8 20.5 0 28.3L76.6 69.8l-9.1-9.1 24.2-24.2c2.8-2.8 2.8-7.3 0-10.1s-7.3-2.8-10.1 0L57.4 50.6l-9.1-9.1 24.2-24.2c3.9-3.9 9-5.9 14.1-5.9 5.3 0 10.4 2 14.3 5.9z" style="" fill="#FFFFFF"/><path class="st1" d="M65.5 80.9l-24.2 24.2c-7.8 7.8-20.5 7.8-28.3 0-7.8-7.8-7.8-20.5 0-28.3l24.2-24.2 9.1 9.1C44.9 63.1 23.5 84.6 22.1 86c-2.8 2.8-2.8 7.3 0 10.1s7.3 2.8 10.1 0l24.2-24.2 9.1 9z" style="" fill="#FFFFFF"/><circle class="st2" cx="117.9" cy="52.1" r="2.1" style="" fill="#5BD4D0"/><circle class="st2" cx="112.1" cy="3.6" r="2.1" style="" fill="#5BD4D0"/><circle class="st2" cx="80.7" cy="89.3" r="2.1" style="" fill="#5BD4D0"/><circle class="st2" cx="70.7" cy="117.9" r="2.1" style="" fill="#5BD4D0"/><circle class="st2" cx="63.6" cy="2.1" r="2.1" style="" fill="#5BD4D0"/><circle class="st2" cx="44.3" cy="26.4" r="2.1" style="" fill="#5BD4D0"/><path class="st2" d="M8.6 113.3c.1 1.2-.7 2.2-1.9 2.4-1.2.1-2.2-.7-2.4-1.9-.1-1.2.7-2.2 1.9-2.4 1.2-.1 2.2.8 2.4 1.9z" style="" fill="#5BD4D0"/><circle class="st2" cx="2.1" cy="48.6" r="2.1" style="" fill="#5BD4D0"/><path class="st2" d="M27.1 99.6c-2.3 0-4.4-.9-6.1-2.5-1.6-1.6-2.5-3.8-2.5-6.1s.9-4.4 2.5-6.1l16.2-16.2c.6-.6 1.5-.6 2 0 .6.6.6 1.5 0 2L23.1 87c-1.1 1.1-1.7 2.5-1.7 4s.6 3 1.7 4c1.1 1.1 2.5 1.7 4 1.7s3-.6 4-1.7l16.2-16.2c.6-.6 1.5-.6 2 0 .6.6.6 1.5 0 2L33.2 97.1c-1.6 1.6-3.8 2.5-6.1 2.5z" style="" fill="#5BD4D0"/><path class="st2" d="M27.1 112.4c-5.5 0-11-2.1-15.2-6.3-4-4-6.3-9.4-6.3-15.2 0-5.7 2.2-11.1 6.3-15.2l24.2-24.2c.6-.6 1.5-.6 2 0l9.1 9.1c.6.6.6 1.5 0 2-.6.6-1.5.6-2 0l-8.1-8.1L14 77.9c-3.5 3.5-5.4 8.2-5.4 13.1 0 5 1.9 9.6 5.4 13.1 7.2 7.2 19 7.2 26.3 0l23.2-23.2-8.1-8.1c-.6-.6-.6-1.5 0-2 .6-.6 1.5-.6 2 0l9.1 9.1c.6.6.6 1.5 0 2l-24.2 24.2c-4.2 4.3-9.7 6.3-15.2 6.3z" style="" fill="#5BD4D0"/><path class="st2" d="M75.6 54.1c-.4 0-.7-.1-1-.4-.6-.6-.6-1.5 0-2l16.2-16.2c1.1-1.1 1.7-2.5 1.7-4s-.6-3-1.7-4c-2.2-2.2-5.9-2.2-8.1 0l-16.2 16c-.6.6-1.5.6-2 0-.6-.6-.6-1.5 0-2l16.2-16.2c3.3-3.3 8.8-3.3 12.1 0 1.6 1.6 2.5 3.8 2.5 6.1s-.9 4.4-2.5 6.1L76.6 53.7c-.2.2-.6.4-1 .4z" style="" fill="#5BD4D0"/><path class="st2" d="M76.6 71.2c-.4 0-.7-.1-1-.4l-9.1-9.1c-.6-.6-.6-1.5 0-2 .6-.6 1.5-.6 2 0l8.1 8.1 23.2-23.2c7.2-7.2 7.2-19 0-26.3-3.5-3.5-8.2-5.4-13.1-5.4-5 0-9.6 1.9-13.1 5.4L50.4 41.5l8.1 8.1c.6.6.6 1.5 0 2-.6.6-1.5.6-2 0l-9.1-9.1c-.6-.6-.6-1.5 0-2l24.2-24.2c4-4 9.4-6.3 15.1-6.3 5.7 0 11.1 2.2 15.2 6.3 8.4 8.4 8.4 22 0 30.3L77.7 70.8c-.3.3-.7.4-1.1.4z" style="" fill="#5BD4D0"/><path class="st2" d="M43.3 83.4c-2.3 0-4.4-.9-6.1-2.5-1.6-1.6-2.5-3.8-2.5-6.1s.9-4.4 2.5-6.1l27.3-27.3c1.6-1.6 3.8-2.5 6.1-2.5s4.4.9 6.1 2.5c1.6 1.6 2.5 3.8 2.5 6.1s-.9 4.4-2.5 6.1L49.4 80.9c-1.7 1.6-3.8 2.5-6.1 2.5zm27.3-41.5c-1.5 0-3 .6-4 1.7L39.3 70.8c-1.1 1.1-1.7 2.5-1.7 4s.6 3 1.7 4c1.1 1.1 2.5 1.7 4 1.7s3-.6 4-1.7l27.3-27.3c1.1-1.1 1.7-2.5 1.7-4s-.6-3-1.7-4-2.5-1.6-4-1.6z" style="" fill="#5BD4D0"/><path class="st2" d="M18.6 31.4c-7.1 0-12.9-5.8-12.9-12.9S11.5 5.7 18.6 5.7s12.9 5.8 12.9 12.9-5.8 12.8-12.9 12.8zm0-22.8c-5.5 0-10 4.5-10 10s4.5 10 10 10 10-4.5 10-10-4.5-10-10-10z" style="" fill="#5BD4D0"/><path class="st2" d="M107.1 92.9c-4.7 0-8.6-3.8-8.6-8.6 0-4.7 3.8-8.6 8.6-8.6 4.7 0 8.6 3.8 8.6 8.6 0 4.7-3.8 8.6-8.6 8.6zm0-14.3c-3.2 0-5.7 2.6-5.7 5.7s2.6 5.7 5.7 5.7 5.7-2.6 5.7-5.7-2.5-5.7-5.7-5.7z" style="" fill="#5BD4D0"/></g></g></svg>