<svg version="1.1" id="Layer_1" xmlns="http://www.w3.org/2000/svg" x="0" y="0" viewBox="0 0 135.3 140" xml:space="preserve" enable-background="new 0 0 135.3 140" width="135.3" height="140"><title>coverage</title><g class="nc-icon-wrapper"><g id="_x38_87_x2C__Internet_x2C__Signal_x2C__Wifi"><path class="st0" d="M127.4 4.7c3.5 0 6.3 2.8 6.3 6.3s-2.8 6.3-6.3 6.3-6.3-2.8-6.3-6.3 2.8-6.3 6.3-6.3z" style="" fill="#A2E8E6"/><circle class="st0" cx="11" cy="129" r="9.4" style="" fill="#A2E8E6"/><path class="st1" d="M18.9 33.2c0-8.8 7.1-15.9 15.9-15.9h68.9c8.8 0 15.9 7.1 15.9 15.9v68.9c0 8.8-7.1 15.9-15.9 15.9H34.8c-8.8 0-15.9-7.1-15.9-15.9V33.2z" style="" fill="#FFFFFF"/><path class="st0" d="M45.4 70.2c14-10.8 33.6-10.8 47.6 0 2.1 1.6 2.3 4.8.4 6.6l-.1.1c-1.6 1.6-4.1 1.7-5.8.4-10.8-8.3-25.9-8.3-36.6 0-1.8 1.4-4.3 1.2-5.8-.4l-.1-.1c-1.9-1.9-1.7-5 .4-6.6z" style="" fill="#A2E8E6"/><path class="st0" d="M58.9 82.8c6.4-3.6 14.3-3.6 20.7 0 2.5 1.4 3 4.9.9 7l-.1.1c-1.4 1.4-3.6 1.7-5.3.8-3.7-2.1-8.2-2.1-11.8 0-1.7 1-3.9.6-5.3-.8l-.1-.1c-2-2.1-1.6-5.6 1-7z" style="" fill="#A2E8E6"/><path class="st0" d="M32.5 57.5c21.2-17.9 52.3-17.9 73.5 0 2 1.7 2.1 4.7.3 6.5l-.1.1c-1.6 1.6-4.3 1.7-6 .2-17.8-15-44-15-61.8 0-1.8 1.5-4.4 1.4-6-.2l-.2-.1c-1.8-1.8-1.7-4.8.3-6.5z" style="" fill="#A2E8E6"/><circle class="st2" cx="132.9" cy="114" r="2.4" style="" fill="#5BD4D0"/><circle class="st2" cx="129.8" cy="29.1" r="2.4" style="" fill="#5BD4D0"/><circle class="st2" cx="92" cy="2.4" r="2.4" style="" fill="#5BD4D0"/><circle class="st2" cx="88.9" cy="134.5" r="2.4" style="" fill="#5BD4D0"/><circle class="st2" cx="38.5" cy="126.6" r="2.4" style="" fill="#5BD4D0"/><circle class="st2" cx="10.2" cy="7.1" r="2.4" style="" fill="#5BD4D0"/><circle class="st2" cx="10.2" cy="90.4" r="2.4" style="" fill="#5BD4D0"/><circle class="st2" cx="2.4" cy="41.7" r="2.4" style="" fill="#5BD4D0"/><path class="st2" d="M77.3 92.8c-1 0-2-.3-2.9-.8-1.6-.9-3.3-1.4-5.1-1.4-1.8 0-3.6.5-5.1 1.4-.9.5-1.9.8-2.9.8-1.6 0-3.1-.6-4.3-1.8l-.1-.1c-1.3-1.3-2-3.2-1.7-5.1.3-1.9 1.3-3.5 3-4.4 3.4-1.9 7.2-2.9 11.1-2.9s7.8 1 11.1 2.9c1.6.9 2.7 2.5 3 4.4.3 1.9-.4 3.7-1.7 5.1l-.2.1c-1.1 1.1-2.7 1.8-4.2 1.8zm-8.1-5.3c2.4 0 4.7.6 6.7 1.8.4.2.9.4 1.3.4.8 0 1.5-.3 2-.9l.1-.1c.6-.6.9-1.5.8-2.4-.1-.9-.6-1.6-1.4-2.1-2.9-1.7-6.2-2.5-9.6-2.5s-6.7.9-9.6 2.5c-.8.4-1.3 1.2-1.4 2.1-.1.9.2 1.8.8 2.4l.1.1c.5.5 1.3.9 2 .9.5 0 .9-.1 1.3-.4 2.2-1.2 4.6-1.8 6.9-1.8z" style="" fill="#5BD4D0"/><path class="st2" d="M90.2 79.8c-1.3 0-2.6-.4-3.7-1.2-4.9-3.8-11.1-5.9-17.3-5.9-6.3 0-12.4 2.1-17.3 5.9-1.1.8-2.3 1.2-3.7 1.2-1.6 0-3.1-.6-4.3-1.8-1.2-1.2-1.9-2.9-1.8-4.7.1-1.7 1-3.3 2.3-4.4 7-5.4 15.8-8.4 24.8-8.4s17.7 3 24.8 8.4c1.4 1.1 2.2 2.6 2.3 4.4.1 1.7-.5 3.4-1.7 4.6l-.1.1c-1.2 1.2-2.7 1.8-4.3 1.8zm-21-10.3c6.9 0 13.8 2.3 19.3 6.6.5.4 1.1.6 1.7.6.8 0 1.5-.3 2-.8l.1-.1c.6-.6.9-1.4.8-2.2-.1-.8-.4-1.6-1.1-2.1-6.5-5-14.6-7.8-22.8-7.8s-16.4 2.8-22.8 7.8c-.7.5-1 1.2-1.1 2.1-.1.8.3 1.6.8 2.2l.1.1c.6.6 1.3.9 2 .9.6 0 1.2-.2 1.7-.6 5.5-4.4 12.4-6.7 19.3-6.7z" style="" fill="#5BD4D0"/><path class="st2" d="M103 67c-1.4 0-2.8-.5-3.9-1.4-8.3-7-18.9-10.9-29.9-10.9s-21.6 3.9-29.9 10.9c-1.1.9-2.5 1.4-3.9 1.4-1.6 0-3.1-.6-4.2-1.8l-.1-.1c-1.2-1.2-1.8-2.8-1.8-4.5.1-1.7.8-3.2 2.1-4.3 10.6-8.9 24-13.8 37.8-13.8s27.3 4.9 37.8 13.8c1.3 1.1 2 2.7 2.1 4.3.1 1.7-.6 3.3-1.8 4.5l-.1.1c-1.1 1.2-2.6 1.8-4.2 1.8zM69.2 51.5c11.7 0 23 4.1 31.9 11.6.5.4 1.2.7 1.9.7.8 0 1.5-.3 2-.8l.1-.1c.6-.6.9-1.3.8-2.1 0-.8-.4-1.5-1-2.1-10-8.4-22.6-13.1-35.7-13.1-13.1 0-25.8 4.6-35.7 13.1-.6.5-1 1.2-1 2s.3 1.6.8 2.1l.1.1c.5.5 1.3.8 2 .8s1.4-.2 1.9-.7c8.9-7.3 20.2-11.5 31.9-11.5z" style="" fill="#5BD4D0"/><path class="st2" d="M103.7 119.6H34.8c-9.6 0-17.5-7.8-17.5-17.5V33.2c0-9.6 7.8-17.5 17.5-17.5h68.9c9.6 0 17.5 7.8 17.5 17.5v68.9c-.1 9.6-7.9 17.5-17.5 17.5zM34.8 18.9c-7.9 0-14.3 6.4-14.3 14.3v68.9c0 7.9 6.4 14.3 14.3 14.3h68.9c7.9 0 14.3-6.4 14.3-14.3V33.2c0-7.9-6.4-14.3-14.3-14.3H34.8z" style="" fill="#5BD4D0"/><path class="st2" d="M127.4 18.9c-4.3 0-7.9-3.5-7.9-7.9s3.5-7.9 7.9-7.9c4.3 0 7.9 3.5 7.9 7.9s-3.5 7.9-7.9 7.9zm0-12.6c-2.6 0-4.7 2.1-4.7 4.7s2.1 4.7 4.7 4.7 4.7-2.1 4.7-4.7-2.1-4.7-4.7-4.7z" style="" fill="#5BD4D0"/><path class="st2" d="M11 140c-6.1 0-11-4.9-11-11s4.9-11 11-11 11 4.9 11 11-4.9 11-11 11zm0-18.9c-4.3 0-7.9 3.5-7.9 7.9 0 4.3 3.5 7.9 7.9 7.9s7.9-3.5 7.9-7.9c0-4.3-3.6-7.9-7.9-7.9z" style="" fill="#5BD4D0"/><path class="st2" d="M119.6 94.4H94.4c-.9 0-1.6-.7-1.6-1.6s.7-1.6 1.6-1.6h25.2c.9 0 1.6.7 1.6 1.6s-.8 1.6-1.6 1.6z" style="" fill="#5BD4D0"/><path class="st2" d="M103.8 102.4c-.9 0-1.6-.7-1.6-1.6 0-.9.7-1.6 1.6-1.6l15.7-.2c.9 0 1.6.7 1.6 1.6 0 .9-.7 1.6-1.6 1.6l-15.7.2z" style="" fill="#5BD4D0"/><path class="st2" d="M44 36H18.9c-.9 0-1.6-.7-1.6-1.6 0-.9.7-1.6 1.6-1.6H44c.9 0 1.6.7 1.6 1.6 0 .9-.7 1.6-1.6 1.6z" style="" fill="#5BD4D0"/><path class="st2" d="M34.6 44l-15.7-.2c-.9 0-1.6-.7-1.6-1.6 0-.9.7-1.6 1.6-1.6l15.7.2c.9 0 1.6.7 1.6 1.6 0 1-.7 1.6-1.6 1.6z" style="" fill="#5BD4D0"/></g></g></svg>