<svg version="1.1" id="Layer_1" xmlns="http://www.w3.org/2000/svg" x="0" y="0" viewBox="0 0 134.9 140" xml:space="preserve" enable-background="new 0 0 134.9 140" width="134.9" height="140"><title>speed</title><g class="nc-icon-wrapper"><g id="_x37_70_x2C__Meter_x2C__Software_x2C__Speed_x2C__Growth"><path class="st0" d="M118.7 74.7c-3.3-11.2-9.9-20.9-18.5-28.1C78 28.1 46.8 29 25.6 46.6 17 53.7 10.4 63.5 7.1 74.7c-5.9 19.7-.9 42 14.4 57.5h82.8c15.3-15.5 20.4-37.8 14.4-57.5z" style="" fill="#FFFFFF"/><path class="st1" d="M127.4 119.6c2.6 0 4.7 2.1 4.7 4.7s-2.1 4.7-4.7 4.7-4.7-2.1-4.7-4.7 2.1-4.7 4.7-4.7z" style="" fill="#A2E8E6"/><path class="st1" d="M9.4 12.6c4.3 0 7.9 3.5 7.9 7.9s-3.5 7.9-7.9 7.9c-4.3 0-7.9-3.5-7.9-7.9s3.6-7.9 7.9-7.9z" style="" fill="#A2E8E6"/><path class="st1" d="M62.9 88.1c2.6 0 4.7 2.1 4.7 4.7s-2.1 4.7-4.7 4.7-4.7-2.1-4.7-4.7 2.1-4.7 4.7-4.7z" style="" fill="#A2E8E6"/><path class="st0" d="M125.8 52.1v22.6h-11.3V52.1h11.3z" style="" fill="#FFFFFF"/><path class="st1" d="M133.3 52.1H107l9.5-8.4 3.7-3.3 13.1 11.7z" style="" fill="#A2E8E6"/><path class="st0" d="M100.1 67.7v13.8H88.8V58.8h11.3v8.9z" style="" fill="#FFFFFF"/><path class="st1" d="M107.7 58.8H81.3l5.3-4.7 7.9-7 5.7 5.1 7.5 6.6z" style="" fill="#A2E8E6"/><path class="st0" d="M116.4 43.6l-9.5 8.4h7.5v11.8h-14.3v-5.1h7.5l-7.5-6.7V31.5h16.2v12.1z" style="" fill="#FFFFFF"/><path class="st1" d="M127.2 31.5H89.4l18.9-16.8 18.9 16.8z" style="" fill="#A2E8E6"/><path class="st2" d="M132.1 22.7c.1 1.3-.9 2.4-2.2 2.5-1.3.1-2.4-.9-2.5-2.2-.1-1.3.9-2.4 2.2-2.5 1.3-.1 2.5.9 2.5 2.2z" style="" fill="#5BD4D0"/><path class="st2" d="M130.6 102.9c.1 1.3-.9 2.4-2.2 2.5-1.3.1-2.4-.9-2.5-2.2-.1-1.3.9-2.4 2.2-2.5 1.3-.1 2.4.9 2.5 2.2z" style="" fill="#5BD4D0"/><path class="st2" d="M116.4 137.5c.1 1.3-.9 2.4-2.2 2.5-1.3.1-2.4-.9-2.5-2.2-.1-1.3.9-2.4 2.2-2.5 1.3-.1 2.4.9 2.5 2.2z" style="" fill="#5BD4D0"/><path class="st2" d="M103.8 2.2c.1 1.3-.9 2.4-2.2 2.5-1.3.1-2.4-.9-2.5-2.2-.1-1.3.9-2.4 2.2-2.5 1.3-.1 2.4.9 2.5 2.2z" style="" fill="#5BD4D0"/><path class="st2" d="M75.5 14.8c.1 1.3-.9 2.4-2.2 2.5-1.3.1-2.4-.9-2.5-2.2-.1-1.3.9-2.4 2.2-2.5 1.3-.1 2.4.9 2.5 2.2z" style="" fill="#5BD4D0"/><path class="st2" d="M33.7 14.8c.1 1.3-.9 2.4-2.2 2.5-1.3.1-2.4-.9-2.5-2.2-.1-1.3.9-2.4 2.2-2.5 1.3-.1 2.4.9 2.5 2.2z" style="" fill="#5BD4D0"/><path class="st2" d="M7.9 47.8c.1 1.3-.9 2.4-2.2 2.5-1.3.1-2.4-.9-2.5-2.2-.1-1.3.9-2.4 2.2-2.5 1.3-.1 2.4.9 2.5 2.2z" style="" fill="#5BD4D0"/><path class="st2" d="M4.7 125.8c.1 1.3-.9 2.4-2.2 2.5-1.3.1-2.4-.9-2.5-2.2-.1-1.3.9-2.4 2.2-2.5 1.3-.1 2.4.9 2.5 2.2z" style="" fill="#5BD4D0"/><path class="st2" d="M62.9 99.1c-3.5 0-6.3-2.8-6.3-6.3s2.8-6.3 6.3-6.3 6.3 2.8 6.3 6.3-2.8 6.3-6.3 6.3zm0-9.4c-1.7 0-3.1 1.4-3.1 3.1s1.4 3.1 3.1 3.1c1.7 0 3.1-1.4 3.1-3.1s-1.3-3.1-3.1-3.1z" style="" fill="#5BD4D0"/><path class="st2" d="M29.2 121.1c-.4 0-.9-.2-1.2-.6-6.9-8.2-10.7-18.6-10.7-29.3 0-25.2 20.5-45.6 45.6-45.6 8.7 0 17.2 2.5 24.5 7.1.7.5.9 1.4.5 2.2-.5.7-1.4.9-2.2.5-6.8-4.4-14.7-6.7-22.8-6.7-23.4 0-42.5 19.1-42.5 42.5 0 10 3.5 19.7 9.9 27.3.6.7.5 1.7-.2 2.2-.2.3-.6.4-.9.4z" style="" fill="#5BD4D0"/><path class="st2" d="M97.5 120.1c-.3 0-.7-.1-1-.3-.7-.5-.8-1.5-.3-2.2 6-7.6 9.1-16.6 9.1-26.3 0-8.1-2.3-15.9-6.6-22.7-.5-.7-.2-1.7.5-2.2.7-.5 1.7-.2 2.2.5 4.6 7.3 7.1 15.7 7.1 24.4 0 10.3-3.4 20.1-9.8 28.2-.2.3-.7.6-1.2.6z" style="" fill="#5BD4D0"/><path class="st2" d="M104.3 133.7H21.5c-.4 0-.8-.2-1.1-.5C9.3 122 3.1 107.1 3.1 91.2c0-33 26.8-59.8 59.8-59.8 14 0 27.6 4.9 38.3 13.9.7.6.8 1.5.2 2.2-.6.7-1.5.8-2.2.2-10.1-8.5-23-13.1-36.3-13.1C31.7 34.6 6.3 60 6.3 91.2c0 14.8 5.6 28.7 15.9 39.3h81.5c10.2-10.6 15.9-24.5 15.9-39.3 0-5.5-.8-10.9-2.3-16.1-.2-.8.2-1.7 1.1-2 .8-.2 1.7.2 2 1.1 1.6 5.5 2.5 11.2 2.5 17 0 15.8-6.1 30.7-17.3 42-.5.3-.9.5-1.3.5z" style="" fill="#5BD4D0"/><path class="st2" d="M62.9 89.7c-.9 0-1.6-.7-1.6-1.6V67.6c0-.9.7-1.6 1.6-1.6.9 0 1.6.7 1.6 1.6V88c0 1-.7 1.7-1.6 1.7z" style="" fill="#5BD4D0"/><path class="st2" d="M127.2 33h-10.8c-.9 0-1.6-.7-1.6-1.6 0-.9.7-1.6 1.6-1.6h6.7l-14.8-13.2-14.8 13.3h6.7c.9 0 1.6.7 1.6 1.6 0 .9-.7 1.6-1.6 1.6H89.4c-.7 0-1.2-.4-1.5-1-.2-.6-.1-1.3.4-1.7l18.9-16.8c.6-.5 1.5-.5 2.1 0l18.9 16.8c.5.4.7 1.1.4 1.7-.2.5-.7.9-1.4.9z" style="" fill="#5BD4D0"/><path class="st2" d="M114.5 65.4h-14.3c-.9 0-1.6-.7-1.6-1.6v-5.1c0-.9.7-1.6 1.6-1.6s1.6.7 1.6 1.6v3.5h12.7c.9 0 1.6.7 1.6 1.6s-.7 1.6-1.6 1.6z" style="" fill="#5BD4D0"/><path class="st2" d="M100.2 53.7c-.9 0-1.6-.7-1.6-1.6V31.5c0-.9.7-1.6 1.6-1.6h16.2c.9 0 1.6.7 1.6 1.6v12.2c0 .9-.7 1.6-1.6 1.6s-1.6-.7-1.6-1.6V33h-13.1v19.1c.1.9-.6 1.6-1.5 1.6z" style="" fill="#5BD4D0"/><path class="st2" d="M100.1 83H88.8c-.9 0-1.6-.7-1.6-1.6V58.8c0-.9.7-1.6 1.6-1.6s1.6.7 1.6 1.6v21h8.2v-21c0-.9.7-1.6 1.6-1.6s1.6.7 1.6 1.6v22.6c-.1.9-.8 1.6-1.7 1.6z" style="" fill="#5BD4D0"/><path class="st2" d="M133.3 53.6h-7.5c-.9 0-1.6-.7-1.6-1.6 0-.9.7-1.6 1.6-1.6h3.4l-9.1-8.1-2.6 2.3-.1.1-6.4 5.7h3.4c.9 0 1.6.7 1.6 1.6s-.7 1.6-1.6 1.6h-7.5c-.7 0-1.2-.4-1.5-1-.2-.6-.1-1.3.4-1.7l9.4-8.4.1-.1 3.7-3.3c.6-.5 1.5-.5 2.1 0l13.2 11.8c.5.4.7 1.1.4 1.7-.1.6-.7 1-1.4 1z" style="" fill="#5BD4D0"/><path class="st2" d="M125.8 76.2h-11.3c-.9 0-1.6-.7-1.6-1.6V52.1c0-.9.7-1.6 1.6-1.6h11.3c.9 0 1.6.7 1.6 1.6v22.6c0 .8-.7 1.5-1.6 1.5zm-9.7-3.1h8.2V53.6h-8.2v19.5z" style="" fill="#5BD4D0"/><path class="st2" d="M107.7 60.4H81.3c-.7 0-1.2-.4-1.5-1-.2-.6-.1-1.3.4-1.7l13.2-11.8c.6-.5 1.5-.5 2.1 0l13.1 11.7c.4.3.6.7.6 1.2.1.9-.7 1.6-1.5 1.6zm-22.3-3.2h18.1l-9.1-8.1-9 8.1z" style="" fill="#5BD4D0"/><path class="st2" d="M88.1 110.1H37.8c-.9 0-1.6-.7-1.6-1.6s.7-1.6 1.6-1.6h50.3c.9 0 1.6.7 1.6 1.6s-.7 1.6-1.6 1.6z" style="" fill="#5BD4D0"/><path class="st2" d="M83.4 116.4H42.5c-.9 0-1.6-.7-1.6-1.6s.7-1.6 1.6-1.6h40.9c.9 0 1.6.7 1.6 1.6s-.8 1.6-1.6 1.6z" style="" fill="#5BD4D0"/><path class="st2" d="M78.7 122.7H47.2c-.9 0-1.6-.7-1.6-1.6 0-.9.7-1.6 1.6-1.6h31.5c.9 0 1.6.7 1.6 1.6-.1.9-.8 1.6-1.6 1.6z" style="" fill="#5BD4D0"/><path class="st2" d="M9.4 29.9c-5.2 0-9.4-4.2-9.4-9.4S4.2 11 9.4 11s9.4 4.2 9.4 9.4-4.2 9.5-9.4 9.5zm0-15.7c-3.5 0-6.3 2.8-6.3 6.3s2.8 6.3 6.3 6.3 6.3-2.8 6.3-6.3-2.8-6.3-6.3-6.3z" style="" fill="#5BD4D0"/><path class="st2" d="M127.4 130.6c-3.5 0-6.3-2.8-6.3-6.3s2.8-6.3 6.3-6.3 6.3 2.8 6.3 6.3c0 3.4-2.8 6.3-6.3 6.3zm0-9.5c-1.7 0-3.1 1.4-3.1 3.1 0 1.7 1.4 3.1 3.1 3.1 1.7 0 3.1-1.4 3.1-3.1.1-1.7-1.4-3.1-3.1-3.1z" style="" fill="#5BD4D0"/></g></g></svg>