<!-- Generated by IcoMoon.io -->
<svg version="1.1" xmlns="http://www.w3.org/2000/svg" width="32" height="32" viewBox="0 0 32 32">
<title>accurate-2</title>
<path d="M30.55 26.55c-0.25 0-0.45 0.2-0.45 0.45v3.050h-3.1c-0.25 0-0.45 0.2-0.45 0.45s0.2 0.5 0.45 0.5h3.5c0.25 0 0.45-0.2 0.45-0.45v-3.5c0.050-0.3-0.15-0.5-0.4-0.5zM5 30.050h-3.050v-3.050c0-0.25-0.2-0.45-0.45-0.45-0.3 0-0.5 0.2-0.5 0.45v3.5c0 0.3 0.2 0.5 0.45 0.5h3.5c0.25 0 0.45-0.2 0.45-0.45 0.050-0.3-0.15-0.5-0.4-0.5zM27 1.95h3.050v3.050c0 0.25 0.2 0.45 0.45 0.45s0.45-0.2 0.45-0.45v-3.5c0.050-0.3-0.15-0.5-0.4-0.5h-3.5c-0.25 0-0.45 0.2-0.45 0.45-0.050 0.3 0.15 0.5 0.4 0.5zM1.45 5.45c0.25 0 0.45-0.2 0.45-0.45v-3.050h3.1c0.25 0 0.45-0.2 0.45-0.45s-0.2-0.5-0.45-0.5h-3.5c-0.3 0-0.5 0.2-0.5 0.45v3.5c0 0.3 0.2 0.5 0.45 0.5zM16 4c-6.6 0-12 5.4-12 12s5.4 12 12 12 12-5.4 12-12-5.4-12-12-12zM25.5 16.45h1.5c-0.25 5.7-4.85 10.35-10.55 10.55v-1.5c0-0.25-0.2-0.45-0.45-0.45s-0.45 0.2-0.45 0.45v1.5c-5.7-0.25-10.35-4.85-10.55-10.55h1.5c0.25 0 0.45-0.2 0.45-0.45s-0.2-0.45-0.45-0.45h-1.5c0.25-5.7 4.85-10.35 10.55-10.55v1.5c0 0.25 0.2 0.45 0.45 0.45s0.45-0.2 0.45-0.45v-1.5c5.7 0.25 10.35 4.85 10.55 10.55h-1.5c-0.25 0-0.45 0.2-0.45 0.45s0.2 0.45 0.45 0.45zM10.5 15.55h-2c-0.25 0-0.45 0.2-0.45 0.45s0.2 0.45 0.45 0.45h2c0.25 0 0.45-0.2 0.45-0.45s-0.2-0.45-0.45-0.45zM19.5 15.55h-1.6c-0.15-0.7-0.75-1.25-1.45-1.45v-1.6c0-0.25-0.2-0.45-0.45-0.45s-0.45 0.2-0.45 0.45v1.6c-0.7 0.15-1.25 0.75-1.45 1.45h-1.6c-0.25 0-0.45 0.2-0.45 0.45s0.2 0.45 0.45 0.45h1.6c0.15 0.7 0.75 1.25 1.45 1.45v1.6c0 0.25 0.2 0.45 0.45 0.45s0.45-0.2 0.45-0.45v-1.6c0.7-0.15 1.25-0.75 1.45-1.45h1.6c0.25 0 0.45-0.2 0.45-0.45 0.050-0.25-0.2-0.45-0.45-0.45zM16 17.050c-0.55 0-1.050-0.45-1.050-1.050 0-0.55 0.45-1.050 1.050-1.050 0.55 0 1.050 0.45 1.050 1.050 0 0.55-0.5 1.050-1.050 1.050zM23.5 15.55h-2c-0.25 0-0.45 0.2-0.45 0.45s0.2 0.45 0.45 0.45h2c0.25 0 0.45-0.2 0.45-0.45 0.050-0.25-0.2-0.45-0.45-0.45zM31.55 15.55h-0.55c-0.1-3.85-1.65-7.4-4.4-10.15-2.7-2.75-6.3-4.25-10.15-4.4v-0.55c0-0.25-0.2-0.45-0.45-0.45s-0.45 0.2-0.45 0.45v0.55c-3.85 0.1-7.4 1.65-10.15 4.4-2.75 2.7-4.25 6.3-4.4 10.15h-0.55c-0.25 0-0.45 0.2-0.45 0.45s0.2 0.45 0.45 0.45h0.55c0.1 3.85 1.65 7.4 4.4 10.15 2.7 2.7 6.3 4.25 10.15 4.4v0.55c0 0.25 0.2 0.45 0.45 0.45s0.45-0.2 0.45-0.45v-0.55c3.85-0.1 7.4-1.65 10.15-4.4 2.7-2.7 4.25-6.3 4.4-10.15h0.55c0.25 0 0.45-0.2 0.45-0.45s-0.2-0.45-0.45-0.45zM29.55 16.45h0.5c-0.1 3.6-1.55 6.95-4.1 9.45-2.55 2.55-5.9 4-9.45 4.1v-0.5c0-0.25-0.2-0.45-0.45-0.45s-0.45 0.2-0.45 0.45v0.5c-3.6-0.1-6.95-1.55-9.45-4.1-2.55-2.55-4-5.9-4.1-9.45h0.5c0.25 0 0.45-0.2 0.45-0.45s-0.2-0.45-0.45-0.45h-0.5c0.1-3.6 1.55-6.95 4.1-9.45 2.55-2.55 5.9-4 9.45-4.1v0.5c0 0.25 0.2 0.45 0.45 0.45s0.45-0.2 0.45-0.45v-0.5c3.6 0.1 6.95 1.55 9.45 4.1 2.55 2.55 4 5.9 4.1 9.45h-0.5c-0.25 0-0.45 0.2-0.45 0.45-0.050 0.25 0.15 0.45 0.45 0.45zM16 21.050c-0.25 0-0.45 0.2-0.45 0.45v2c0 0.25 0.2 0.45 0.45 0.45s0.45-0.2 0.45-0.45v-2c0-0.25-0.2-0.45-0.45-0.45zM16 10.95c0.25 0 0.45-0.2 0.45-0.45v-2c0-0.25-0.2-0.45-0.45-0.45s-0.45 0.2-0.45 0.45v2c0 0.25 0.2 0.45 0.45 0.45z"></path>
</svg>
