<!-- Generated by IcoMoon.io -->
<svg version="1.1" xmlns="http://www.w3.org/2000/svg" width="32" height="32" viewBox="0 0 32 32">
<title>activity</title>
<path d="M19.733 17.333c0.4 0.533 1.067 0.8 1.733 0.933h0.4c0.267 0 0.533 0 0.667-0.133l4.8-2.4c1.2-0.533 1.733-2 1.2-3.2l-0.4-0.533c-0.4-0.8-1.2-1.333-2.133-1.333-0.4 0-0.8 0.133-1.067 0.267l-1.733 0.933-0.8-2c-0.133-0.4-0.4-0.667-0.667-0.933 2.133-0.4 3.6-2.267 3.6-4.4-0.133-2.533-2.133-4.533-4.667-4.533s-4.533 2-4.533 4.533c0 0.667 0.133 1.2 0.4 1.733-0.267 0-0.533 0-0.8 0-0.133 0-0.133 0-0.267 0h-7.467c-0.4 0-0.667 0-1.067 0.133-0.667 0.267-1.333 0.667-1.6 1.2 0 0.133-0.133 0.133-0.133 0.267-0.133 0.267-0.133 0.533-0.133 0.933v5.2c0 1.333 1.067 2.4 2.4 2.4h0.533c1.333 0 2.4-1.067 2.4-2.4v-2.267h1.6l-2.933 5.733c-0.4 0.533-0.533 1.2-0.267 1.867v2.8h-2.667c-1.467 0-2.8 1.2-2.8 2.8v0.667c0 1.467 1.2 2.8 2.8 2.8h6.133c1.467 0 2.8-1.2 2.8-2.8v-1.6l7.067 7.2c0.533 0.533 1.2 0.8 2 0.8s1.467-0.267 2-0.8l0.533-0.533c1.067-1.067 1.067-2.8 0-3.867l-8.4-8.4 0.933-1.867c0.133 0.267 0.267 0.533 0.533 0.8zM20.667 1.867c1.467 0 2.667 1.2 2.667 2.667s-1.2 2.667-2.667 2.667-2.667-1.2-2.667-2.667 1.2-2.667 2.667-2.667zM25.2 28.133c0.4 0.4 0.4 0.933 0 1.333l-0.533 0.4c-0.267 0.267-0.933 0.267-1.2 0l-8.933-8.933-1.467-0.4v4.933c0 0.533-0.4 0.933-0.8 0.933h-6.133c-0.533 0-0.8-0.4-0.8-0.933v-0.667c0-0.533 0.4-0.933 0.8-0.933h4.533v-4.933l-0.133-0.267c-0.133-0.133-0.133-0.4 0-0.533l4.4-8.4h-6.533v4c0 0.267-0.267 0.533-0.533 0.533h-0.4c-0.267 0-0.533-0.267-0.533-0.533v-4.933s0 0 0-0.133l0.133-0.133c0-0.133 0.133-0.267 0.267-0.267h0.133c0.133 0 0.4-0.133 0.533-0.133h8l0.267-0.133h0.4l3.333 1.867h0.267c0.133 0.133 0.4 0.267 0.533 0.533l1.6 3.733 3.6-1.733c0.267-0.133 0.533 0 0.667 0.267l0.267 0.533c0.133 0.267 0 0.667-0.267 0.8l-4.667 2.267s0 0-0.133 0v1.067l-0.133-0.933c-0.133 0-0.267-0.133-0.4-0.133l-0.133-0.133c-0.133-0.133-0.267-0.267-0.267-0.4l-1.6-3.6-3.467 6.667z"></path>
</svg>
