<!-- Generated by IcoMoon.io -->
<svg version="1.1" xmlns="http://www.w3.org/2000/svg" width="32" height="32" viewBox="0 0 32 32">
<title>app-2</title>
<path d="M23.093 0h-14.187c-1.387 0-2.507 1.12-2.507 2.507v4.8c0 0.267 0.213 0.48 0.48 0.48s0.48-0.213 0.48-0.48v-1.547h17.28v20.213h-17.28v-15.52c0-0.267-0.213-0.48-0.48-0.48s-0.48 0.213-0.48 0.48v19.040c0 1.387 1.12 2.507 2.507 2.507h14.133c1.387 0 2.507-1.12 2.507-2.507v-26.987c0.053-1.387-1.067-2.507-2.453-2.507zM24.64 29.493c0 0.853-0.693 1.547-1.547 1.547h-14.187c-0.853 0-1.547-0.693-1.547-1.547v-2.56h17.28zM24.64 4.853h-17.28v-2.347c0-0.853 0.693-1.547 1.547-1.547h14.133c0.853 0 1.547 0.693 1.547 1.547v2.347zM20.96 20.107c0.267 0 0.48-0.213 0.48-0.48v-9.707c0-0.267-0.213-0.48-0.48-0.48h-9.547c-0.267 0-0.48 0.213-0.48 0.48v9.707c0 0.267 0.213 0.48 0.48 0.48zM11.893 10.4h8.587v8.747h-8.587zM15.093 30.4h1.813c0.267 0 0.48-0.213 0.48-0.48v-1.76c0-0.267-0.213-0.48-0.48-0.48h-1.813c-0.267 0-0.48 0.213-0.48 0.48v1.76c0 0.267 0.213 0.48 0.48 0.48zM15.573 28.64h0.853v0.8h-0.853zM18.56 2.347h-4.693c-0.267 0-0.48 0.213-0.48 0.48s0.213 0.48 0.48 0.48h4.693c0.267 0 0.48-0.213 0.48-0.48s-0.213-0.48-0.48-0.48zM16.853 11.947c-0.053-0.267-0.373-0.373-0.693-0.373s-0.587 0.107-0.693 0.373l-1.6 5.067v0.107c0 0.267 0.373 0.427 0.693 0.427 0.16 0 0.32-0.053 0.373-0.213l0.32-1.067h1.867l0.32 1.067c0.053 0.16 0.16 0.213 0.373 0.213 0.267 0 0.693-0.16 0.693-0.427 0 0 0-0.053 0-0.107zM15.467 15.413l0.693-2.453 0.693 2.453z"></path>
</svg>
