<!-- Generated by IcoMoon.io -->
<svg version="1.1" xmlns="http://www.w3.org/2000/svg" width="32" height="32" viewBox="0 0 32 32">
<title>audio</title>
<path d="M17.477 2.092c-0.615-0.308-1.292-0.308-1.908 0 0 0-0.062 0.062-0.062 0.062l-8.369 7.077h-6.523c-0.369 0-0.615 0.246-0.615 0.615v11.631c0 0.185 0.062 0.308 0.185 0.431s0.246 0.185 0.431 0.185h6.523l8.308 7.631s0.062 0.062 0.123 0.062c0.308 0.185 0.615 0.246 0.985 0.246 0.308 0 0.615-0.062 0.923-0.246 0.615-0.369 0.985-0.985 0.985-1.662v-24.369c0-0.677-0.369-1.292-0.985-1.662zM17.231 28.123c0 0.246-0.123 0.492-0.369 0.615-0.123 0.062-0.308 0.185-0.615 0l-8.246-7.508v-2.769c0-0.369-0.246-0.615-0.615-0.615s-0.615 0.246-0.615 0.615v2.462h-5.538v-10.462h5.538v2.462c0 0.369 0.246 0.615 0.615 0.615s0.615-0.246 0.615-0.615v-2.769l8.246-7.015c0.308-0.123 0.554-0.062 0.615 0 0.246 0.123 0.369 0.369 0.369 0.615zM23.877 4.308c-0.308-0.123-0.677 0.062-0.8 0.369s0.062 0.677 0.369 0.8c4.369 1.477 7.323 5.6 7.323 10.154 0 4.615-2.954 8.677-7.262 10.154-0.308 0.123-0.492 0.431-0.369 0.8 0.062 0.246 0.308 0.431 0.554 0.431 0.062 0 0.123 0 0.185-0.062 4.862-1.662 8.123-6.215 8.123-11.323s-3.262-9.662-8.123-11.323zM26.462 15.631c0-3.692-2.462-6.954-5.969-7.938-0.308-0.123-0.677 0.123-0.738 0.431-0.123 0.308 0.123 0.677 0.431 0.738 3.015 0.862 5.108 3.631 5.108 6.769s-2.092 5.908-5.108 6.769c-0.308 0.123-0.492 0.431-0.431 0.738 0.062 0.246 0.308 0.431 0.615 0.431h0.185c3.446-0.985 5.908-4.246 5.908-7.938z"></path>
</svg>
