<!-- Generated by IcoMoon.io -->
<svg version="1.1" xmlns="http://www.w3.org/2000/svg" width="32" height="32" viewBox="0 0 32 32">
<title>battery</title>
<path d="M22.667 2.133h-3.467v-2.133h-6.4v2.133h-3.467c-1.013 0-1.867 0.853-1.867 1.867v26.187c0 0.96 0.853 1.813 1.867 1.813h13.387c1.013 0 1.867-0.853 1.867-1.867v-26.133c-0.053-1.013-0.907-1.867-1.92-1.867zM13.867 1.067h4.267v1.067h-4.267zM23.467 30.133c0 0.427-0.373 0.8-0.8 0.8h-13.333c-0.427 0-0.8-0.373-0.8-0.8v-26.133c0-0.427 0.373-0.8 0.8-0.8h13.333c0.427 0 0.8 0.373 0.8 0.8zM18.133 9.12c0-0.213-0.107-0.427-0.32-0.533l-0.427-0.16-0.267 0.32-5.813 9.387h3.093v6.88c0 0.213 0.107 0.427 0.32 0.533l0.427 0.213 0.267-0.32 5.227-9.973h-2.507zM18.827 16.533l-3.36 6.453v-5.92h-2.24l3.84-6.187v5.653z"></path>
</svg>
