<!-- Generated by IcoMoon.io -->
<svg version="1.1" xmlns="http://www.w3.org/2000/svg" width="32" height="32" viewBox="0 0 32 32">
<title>battery-2</title>
<path d="M29.867 22.667v-3.467h2.133v-6.4h-2.133v-3.467c0-1.013-0.853-1.867-1.867-1.867h-26.133c-1.013 0-1.867 0.853-1.867 1.867v13.387c0 0.96 0.853 1.813 1.867 1.813h26.187c0.96 0 1.813-0.853 1.813-1.867zM21.867 8.533v14.933h-6.4v-14.933zM14.4 8.533v14.933h-6.4v-14.933zM30.933 13.867v4.267h-1.067v-4.267zM28.8 9.333v13.333c0 0.427-0.373 0.8-0.8 0.8h-5.067v-14.933h5.067c0.427 0 0.8 0.373 0.8 0.8zM1.067 22.667v-13.333c0-0.427 0.373-0.8 0.8-0.8h5.067v14.933h-5.067c-0.427 0-0.8-0.373-0.8-0.8z"></path>
</svg>
