<!-- Generated by IcoMoon.io -->
<svg version="1.1" xmlns="http://www.w3.org/2000/svg" width="32" height="32" viewBox="0 0 32 32">
<title>battery-3</title>
<path d="M30.646 12.185h-1.6v-2.585c0-1.231-0.985-2.215-2.092-2.215h-24.862c-1.108 0-2.092 0.985-2.092 2.215v12.923c0 1.231 0.985 2.215 2.092 2.215h24.738c1.108 0 2.092-0.985 2.092-2.215v-2.585h1.6c0.738 0 1.354-0.615 1.354-1.477v-4.923c0.123-0.738-0.492-1.354-1.231-1.354zM7.138 23.138h-5.046c-0.369 0-0.738-0.369-0.738-0.738v-12.8c0-0.369 0.369-0.738 0.738-0.738h5.046zM27.569 22.4c0 0.369-0.369 0.738-0.738 0.738h-18.338v-14.277h18.338c0.369 0 0.738 0.369 0.738 0.738zM30.646 18.462h-1.6v-4.923h1.6zM21.785 14.769l-3.077 1.969v-2.831c0-0.246-0.123-0.492-0.369-0.615s-0.492-0.123-0.738 0l-4.062 2.708c-0.369 0.246-0.369 0.615-0.246 0.985 0.246 0.369 0.615 0.369 0.985 0.246l3.077-1.969v2.954c0 0.246 0.123 0.492 0.369 0.615 0.123 0 0.246 0.123 0.369 0.123s0.246 0 0.369-0.123l4.062-2.831c0.369-0.246 0.369-0.615 0.246-0.985-0.246-0.369-0.615-0.369-0.985-0.246z"></path>
</svg>
