<!-- Generated by IcoMoon.io -->
<svg version="1.1" xmlns="http://www.w3.org/2000/svg" width="32" height="32" viewBox="0 0 32 32">
<title>bedding</title>
<path d="M3.2 23.2c0.295 0 0.533-0.239 0.533-0.533s-0.239-0.533-0.533-0.533-0.533 0.239-0.533 0.533c0 0.295 0.239 0.533 0.533 0.533z"></path>
<path d="M7.466 23.2c0.295 0 0.533-0.239 0.533-0.533s-0.239-0.533-0.533-0.533c-0.295 0-0.533 0.239-0.533 0.533s0.239 0.533 0.533 0.533z"></path>
<path d="M11.734 23.2c0.295 0 0.533-0.239 0.533-0.533s-0.239-0.533-0.533-0.533c-0.295 0-0.533 0.239-0.533 0.533s0.239 0.533 0.533 0.533z"></path>
<path d="M5.333 25.333c0.295 0 0.533-0.239 0.533-0.533s-0.239-0.533-0.533-0.533-0.533 0.239-0.533 0.533c0 0.295 0.239 0.533 0.533 0.533z"></path>
<path d="M9.599 25.333c0.295 0 0.533-0.239 0.533-0.533s-0.239-0.533-0.533-0.533-0.533 0.239-0.533 0.533c0 0.295 0.239 0.533 0.533 0.533z"></path>
<path d="M3.2 27.467c0.295 0 0.533-0.239 0.533-0.533s-0.239-0.533-0.533-0.533-0.533 0.239-0.533 0.533c0 0.295 0.239 0.533 0.533 0.533z"></path>
<path d="M7.466 27.467c0.295 0 0.533-0.239 0.533-0.533s-0.239-0.533-0.533-0.533c-0.295 0-0.533 0.239-0.533 0.533s0.239 0.533 0.533 0.533z"></path>
<path d="M11.734 27.467c0.295 0 0.533-0.239 0.533-0.533s-0.239-0.533-0.533-0.533c-0.295 0-0.533 0.239-0.533 0.533s0.239 0.533 0.533 0.533z"></path>
<path d="M16 23.2c0.295 0 0.533-0.239 0.533-0.533s-0.239-0.533-0.533-0.533c-0.295 0-0.533 0.239-0.533 0.533s0.239 0.533 0.533 0.533z"></path>
<path d="M20.266 23.2c0.295 0 0.533-0.239 0.533-0.533s-0.239-0.533-0.533-0.533-0.533 0.239-0.533 0.533c0 0.295 0.239 0.533 0.533 0.533z"></path>
<path d="M13.867 25.333c0.295 0 0.533-0.239 0.533-0.533s-0.239-0.533-0.533-0.533c-0.295 0-0.533 0.239-0.533 0.533s0.239 0.533 0.533 0.533z"></path>
<path d="M18.133 25.333c0.295 0 0.533-0.239 0.533-0.533s-0.239-0.533-0.533-0.533c-0.295 0-0.533 0.239-0.533 0.533s0.239 0.533 0.533 0.533z"></path>
<path d="M16 27.467c0.295 0 0.533-0.239 0.533-0.533s-0.239-0.533-0.533-0.533c-0.295 0-0.533 0.239-0.533 0.533s0.239 0.533 0.533 0.533z"></path>
<path d="M20.266 27.467c0.295 0 0.533-0.239 0.533-0.533s-0.239-0.533-0.533-0.533-0.533 0.239-0.533 0.533c0 0.295 0.239 0.533 0.533 0.533z"></path>
<path d="M24.533 23.2c0.295 0 0.533-0.239 0.533-0.533s-0.239-0.533-0.533-0.533c-0.295 0-0.533 0.239-0.533 0.533s0.239 0.533 0.533 0.533z"></path>
<path d="M28.8 23.2c0.295 0 0.533-0.239 0.533-0.533s-0.239-0.533-0.533-0.533c-0.295 0-0.533 0.239-0.533 0.533s0.239 0.533 0.533 0.533z"></path>
<path d="M22.399 25.333c0.295 0 0.533-0.239 0.533-0.533s-0.239-0.533-0.533-0.533-0.533 0.239-0.533 0.533c0 0.295 0.239 0.533 0.533 0.533z"></path>
<path d="M26.666 25.333c0.295 0 0.533-0.239 0.533-0.533s-0.239-0.533-0.533-0.533c-0.295 0-0.533 0.239-0.533 0.533s0.239 0.533 0.533 0.533z"></path>
<path d="M24.533 27.467c0.295 0 0.533-0.239 0.533-0.533s-0.239-0.533-0.533-0.533c-0.295 0-0.533 0.239-0.533 0.533s0.239 0.533 0.533 0.533z"></path>
<path d="M28.8 27.467c0.295 0 0.533-0.239 0.533-0.533s-0.239-0.533-0.533-0.533c-0.295 0-0.533 0.239-0.533 0.533s0.239 0.533 0.533 0.533z"></path>
<path d="M29.937 9.524c0.097-0.121 0.244-0.191 0.399-0.19 0.524 0.018 1.024-0.221 1.34-0.639s0.408-0.965 0.246-1.464c-0.239-0.668-0.877-1.11-1.586-1.097-0.156 0.001-0.303-0.070-0.4-0.191-1.098-1.323-3.606-3.542-8.069-3.542h-11.733c-4.463 0-6.971 2.219-8.070 3.543-0.097 0.121-0.244 0.191-0.399 0.19-0.436-0.020-0.861 0.14-1.175 0.443s-0.491 0.721-0.489 1.157c0 0.171 0.026 0.34 0.078 0.503 0.239 0.668 0.877 1.11 1.586 1.097 0.155-0.001 0.303 0.070 0.4 0.191 0.873 1.041 1.958 1.885 3.183 2.476h-2.047c-1.295 0.001-2.461 0.782-2.957 1.978s-0.221 2.573 0.694 3.489c0.027 0.027 0.058 0.051 0.086 0.077-0.176 0.086-0.337 0.199-0.477 0.335-0.706 0.704-0.729 1.84-0.053 2.572-0.314 0.3-0.492 0.715-0.492 1.149v6.4c0 0.884 0.716 1.6 1.6 1.6h28.799c0.884 0 1.6-0.716 1.6-1.6v-6.4c-0.001-0.63-0.372-1.201-0.947-1.458l0.014-0.013c0.613-0.616 0.949-1.454 0.931-2.323s-0.388-1.692-1.025-2.283c0.772-0.387 1.176-1.255 0.976-2.095s-0.952-1.432-1.816-1.429h-3.38c1.225-0.591 2.31-1.435 3.184-2.477zM30.4 21.067c0.295 0 0.533 0.239 0.533 0.533v6.4c0 0.295-0.239 0.533-0.533 0.533h-28.799c-0.295 0-0.533-0.239-0.533-0.533v-6.4c0-0.295 0.239-0.533 0.533-0.533h28.799zM30.133 13.067c0.442 0 0.8 0.358 0.8 0.8s-0.358 0.8-0.8 0.8h-26.933c-0.295 0-0.533 0.239-0.533 0.533s0.239 0.533 0.533 0.533h25.599c1.178 0 2.133 0.955 2.133 2.133s-0.955 2.133-2.133 2.133h-26.933c-0.442 0-0.8-0.358-0.8-0.8s0.358-0.8 0.8-0.8h26.933c0.295 0 0.533-0.239 0.533-0.533s-0.239-0.533-0.533-0.533h-25.599c-1.178 0-2.133-0.955-2.133-2.133s0.955-2.133 2.133-2.133h26.933zM21.866 12h-11.733c-3.826 0-6.054-1.717-7.247-3.156-0.3-0.366-0.749-0.578-1.222-0.578-0.244 0.012-0.47-0.128-0.569-0.352-0.038-0.117-0.038-0.244 0-0.361 0.098-0.224 0.324-0.365 0.569-0.354 0.473 0 0.921-0.212 1.221-0.577 1.195-1.44 3.422-3.156 7.248-3.156h11.733c3.826 0 6.054 1.716 7.247 3.155 0.3 0.366 0.748 0.578 1.222 0.578 0.244-0.012 0.47 0.128 0.569 0.352 0.038 0.117 0.038 0.244 0 0.361-0.098 0.224-0.324 0.365-0.569 0.354-0.473-0-0.921 0.211-1.221 0.577-1.195 1.44-3.422 3.157-7.248 3.157z"></path>
<path d="M10.134 9.867c-2.79 0-4.447-1.137-5.346-2.091-0.203-0.211-0.537-0.219-0.75-0.019s-0.225 0.535-0.026 0.75c1.043 1.107 2.951 2.426 6.122 2.426 0.295 0 0.533-0.239 0.533-0.533s-0.239-0.533-0.533-0.533z"></path>
<path d="M25.067 6.667h-18.133c-0.295 0-0.533 0.239-0.533 0.533s0.239 0.533 0.533 0.533h18.133c0.295 0 0.533-0.239 0.533-0.533s-0.239-0.533-0.533-0.533z"></path>
</svg>
