<svg xmlns="http://www.w3.org/2000/svg" width="28" height="28"><path d="M12.693 1.142c-2.381.347-4.008 1.361-4.867 3.035-.3.584-.419 1.078-.428 1.784l-.009.617-.628.434C5.316 8.01 5.087 8.23 5.087 8.61c0 .224.092.391.476.863.355.436.531.56.792.56.279 0 .414-.077.808-.465.366-.36 1.091-.981 1.144-.981.015 0 .071.09.125.199.053.11.226.371.383.581.517.685 1.305 1.203 2.179 1.431.292.077.432.028.498-.171.072-.215-.05-.341-.444-.458-.927-.276-1.696-.915-2.095-1.739l-.11-.227.149-.124a7.09 7.09 0 0 1 .63-.41c1.982-1.174 3.619-1.552 5.415-1.249.474.08.585.062.765-.126a.498.498 0 0 0 .039-.634c-.134-.188-.98-.596-1.539-.742-.635-.166-1.754-.205-2.542-.089-.984.146-1.959.473-3.063 1.026l-.663.332-.024-.119c-.036-.182.057-.822.165-1.139.57-1.666 2.175-2.8 4.474-3.163.617-.098 2.523-.083 3.054.023 1.402.28 2.54.911 3.668 2.036.932.929 1.567 1.823 2.219 3.128.348.696.628 1.36.862 2.049.172.505.141.557-.23.392-1.253-.56-2.442-.658-3.809-.314a31.21 31.21 0 0 0-1.517.462c-1.726.565-2.364.719-3.386.818-.348.033-.585.078-.626.118-.099.096-.082.339.031.452.096.095.113.096.673.04 1.083-.107 1.816-.287 3.725-.915 1.517-.498 2.21-.622 3.014-.539.58.06 1.003.171 1.621.425.393.161.516.193.653.167.321-.06.592-.383.592-.703 0-.174-.298-1.044-.616-1.798-.525-1.243-1.358-2.632-2.133-3.557-1.264-1.507-2.787-2.466-4.507-2.839-.393-.085-.652-.104-1.634-.117-.823-.011-1.297.003-1.61.048m.934 4.293c.244.037.569.108.723.158l.28.091-.653.005c-1.331.01-2.475.295-3.765.939-1.191.595-2.136 1.262-3.273 2.314-.287.265-.545.483-.573.484-.057.001-.673-.758-.673-.83 0-.025.268-.244.595-.486C7.885 6.929 9.1 6.253 10.422 5.812c1.192-.398 2.25-.522 3.205-.377m-9.552 5.116c-.181.053-.326.194-.877.859C1.597 13.339.561 15.407.206 17.383c-.116.645-.118 1.976-.004 2.59.188 1.014.678 2.163 1.372 3.22a8.396 8.396 0 0 0 1.375 1.66c1.589 1.53 3.545 2.064 5.31 1.45.322-.112.925-.443 1.024-.562.037-.045.19.011.667.244.89.435 1.797.802 1.981.802.195 0 .431-.096.542-.221.133-.15.509-1.133.512-1.341a.705.705 0 0 0-.28-.577c-.072-.051-.361-.159-.643-.24-.659-.19-1.422-.467-1.422-.517 0-.021.02-.051.046-.067.082-.051.374-.613.489-.945.473-1.353.154-2.889-.937-4.504-.653-.967-1.18-1.535-2.618-2.824-1.354-1.214-1.8-1.729-2.158-2.492-.214-.458-.348-.95-.441-1.621-.072-.52-.142-.668-.383-.805a.726.726 0 0 0-.563-.082m19.446.633c-.451.075-.633.165-.783.387-.139.207-.135.449.016 1.044.122.48.252 1.153.253 1.303 0 .072-.05.082-.393.082-1.87 0-3.411 1.261-4.41 3.608-.376.883-.582 1.598-.892 3.102-.263 1.273-.425 1.876-.639 2.371-.347.806-.816 1.394-1.578 1.983-.527.406-.607.529-.569.865.047.423.254.569 1.015.716 2.469.476 4.799.396 6.719-.231 1.212-.396 2.757-1.361 2.676-1.672-.029-.111-.225-.289-.319-.289-.031 0-.191.102-.355.226-1.637 1.234-3.652 1.751-6.356 1.632-.902-.04-2.559-.276-2.745-.391-.082-.051-.036-.106.298-.357a6.184 6.184 0 0 0 1.21-1.219c.539-.726.808-1.458 1.185-3.227.445-2.083.627-2.687 1.11-3.678.78-1.603 1.786-2.526 3.013-2.767.378-.074 1.04-.071 1.116.005.057.057.064 1.791.009 2.274-.119 1.049-.39 1.996-.794 2.782-.203.393-.443.742-.949 1.376-.297.372-.066.871.403.871.359 0 1.385-.829 1.934-1.563.332-.444.805-1.389 1.006-2.011.288-.893.498-2.182.498-3.064 0-.225.012-.409.026-.409.064 0 .346.171.581.351.658.507 1.199 1.436 1.376 2.367.132.695.079 1.817-.123 2.579-.19.719-.68 1.811-1.144 2.549a7.26 7.26 0 0 0-.311.526c-.072.188.202.435.4.359.24-.091 1.109-1.662 1.435-2.594.369-1.058.526-2.174.426-3.035-.194-1.676-1.092-3.066-2.351-3.642l-.298-.136-.055-.724c-.078-1.018-.192-1.863-.277-2.044a.805.805 0 0 0-.239-.269c-.197-.133-.486-.143-1.125-.036m-19.144.133c.037.383.165 1.019.271 1.353.34 1.068.912 1.861 2.124 2.944 1.765 1.579 2.252 2.086 2.88 2.999.902 1.312 1.258 2.515 1.061 3.577-.084.447-.348 1.066-.567 1.326l-.123.146-.543-.284c-1.08-.565-2.207-1.407-2.786-2.08-.581-.675-.889-1.175-1.206-1.962-.261-.647-.374-.781-.658-.781-.21 0-.402.145-.487.368-.056.147-.058.262-.014.695.124 1.205.541 2.161 1.418 3.252.621.772 1.582 1.599 2.583 2.223.205.128.373.252.373.275 0 .023-.157.12-.35.216-1.812.903-4.212.035-5.832-2.107-1.346-1.78-1.907-3.464-1.77-5.312.157-2.111 1.251-4.42 3.145-6.637.341-.4.458-.451.481-.211m20.014.793c.199 1.361.245 3.197.109 4.27-.249 1.949-.933 3.458-2.001 4.413l-.205.182.216-.333a8.324 8.324 0 0 0 .752-1.509c.657-1.845.695-4.195.109-6.613-.083-.339-.138-.629-.122-.644.043-.044.743-.154.924-.146l.163.007.055.373M5.61 20.929c.841 1.24 2.085 2.259 3.793 3.107.776.384 1.677.734 2.466.956.253.072.471.158.484.192.031.082-.306.95-.38.978-.071.027-1.127-.415-1.819-.761-2.688-1.346-4.415-3.023-4.991-4.849-.21-.666-.2-.741.041-.3.119.218.302.523.406.677" fill-rule="evenodd"/></svg>