<!-- Generated by IcoMoon.io -->
<svg version="1.1" xmlns="http://www.w3.org/2000/svg" width="32" height="32" viewBox="0 0 32 32">
<title>blades</title>
<path d="M31.771 13.206c-0.164-0.134-0.394-0.15-0.575-0.040-0.165 0.1-4.111 2.501-9.602 0-0.399-0.734-0.944-1.379-1.6-1.896 1.285-6.631-5.826-10.822-6.481-11.188-0.192-0.127-0.446-0.106-0.615 0.050-0.143 0.15-0.179 0.373-0.090 0.56 0.33 0.7 3.096 6.941-0.725 10.667-0.246 0.203-0.474 0.427-0.68 0.67-1.41-0.035-8.302 0.045-11.333 6.287-0.024 0.035-0.041 0.074-0.050 0.115-0.025 0.076-0.025 0.159 0 0.235 0.015 0.086 0.057 0.164 0.12 0.225 0.026 0.033 0.061 0.059 0.1 0.075 0.036 0.026 0.077 0.045 0.12 0.055 0.041 0.007 0.084 0.007 0.125 0h0.12l0.085-0.025 0.050-0.030c0.72-0.335 5.586-2.461 10.002 0.385v-0c0.298 0.502 0.667 0.959 1.095 1.355-0.61 8.472 6.331 11.228 6.401 11.257 0.056 0.021 0.115 0.033 0.175 0.035 0.151-0.003 0.293-0.075 0.385-0.195 0.121-0.172 0.121-0.403 0-0.575-2.616-3.591-0.38-8.347 0.265-9.557h0c0.6-0.326 1.143-0.748 1.605-1.25h0.3c2.269 0.048 4.503-0.553 6.441-1.734s3.498-2.89 4.496-4.928c0.075-0.195 0.022-0.416-0.135-0.555l0-0zM16.097 19.497c-0.883 0-1.73-0.351-2.355-0.975s-0.975-1.472-0.975-2.355c0-0.883 0.351-1.731 0.975-2.355s1.472-0.976 2.355-0.976c0.883 0 1.731 0.351 2.355 0.976s0.976 1.472 0.976 2.355c0 0.883-0.351 1.731-0.976 2.355s-1.472 0.975-2.355 0.975z"></path>
</svg>
