<!-- Generated by IcoMoon.io -->
<svg version="1.1" xmlns="http://www.w3.org/2000/svg" width="32" height="32" viewBox="0 0 32 32">
<title>blade</title>
<path d="M26.933 13.867c-0.356 0-0.711 0.356-0.711 0.711v0.711h-1.511c-0.267-0.889-1.156-1.511-2.044-1.511-0.978 0-1.778 0.622-2.044 1.511h-1.6c-0.356-1.333-1.6-2.4-3.022-2.4s-2.667 0.978-2.933 2.4h-1.6c-0.267-0.889-1.156-1.511-2.044-1.511-0.978 0-1.778 0.622-2.044 1.511h-1.6v-0.711c0-0.356-0.356-0.711-0.711-0.711s-0.711 0.356-0.711 0.711v2.756c0 0.356 0.356 0.711 0.711 0.711s0.711-0.356 0.711-0.711v-0.711h1.511c0.267 0.889 1.156 1.511 2.044 1.511 0.978 0 1.778-0.622 2.044-1.511h1.6c0.356 1.422 1.6 2.489 3.022 2.489s2.667-0.978 2.933-2.4h1.6c0.267 0.889 1.156 1.511 2.044 1.511 0.978 0 1.778-0.622 2.044-1.511h1.511v0.711c0 0.356 0.356 0.711 0.711 0.711s0.711-0.356 0.711-0.711v-2.756c0.089-0.444-0.267-0.8-0.622-0.8zM10.133 16c0 0.444-0.356 0.8-0.8 0.8s-0.8-0.356-0.8-0.8c0-0.444 0.356-0.8 0.8-0.8s0.8 0.356 0.8 0.8zM16 17.689c-0.889 0-1.6-0.711-1.6-1.689 0-0.889 0.711-1.689 1.6-1.689s1.6 0.711 1.6 1.689c0 0.889-0.711 1.689-1.6 1.689zM22.578 16.8c-0.444 0-0.8-0.356-0.8-0.8s0.356-0.8 0.8-0.8 0.8 0.356 0.8 0.8-0.356 0.8-0.8 0.8zM31.289 10.933h-2.667c-0.178 0-0.356-0.178-0.356-0.356s0.178-0.356 0.356-0.356h1.244c0.356 0 0.711-0.356 0.711-0.711v-2.667c0-1.067-0.889-1.956-1.956-1.956h-25.244c-1.067 0-1.956 0.889-1.956 1.956v2.667c0 0.356 0.356 0.711 0.711 0.711h1.244c0.178 0 0.356 0.178 0.356 0.356s-0.178 0.356-0.356 0.356h-2.667c-0.356 0-0.711 0.356-0.711 0.711v8.533c0 0.444 0.356 0.711 0.711 0.711h2.667c0.178 0 0.356 0.178 0.356 0.356s-0.178 0.356-0.356 0.356h-1.244c-0.356 0-0.711 0.356-0.711 0.711v2.756c0 1.067 0.889 1.956 1.956 1.956h25.333c1.067 0 1.956-0.889 1.956-1.956v-2.756c0-0.356-0.356-0.711-0.711-0.711h-1.244c-0.178 0-0.356-0.178-0.356-0.356s0.178-0.356 0.356-0.356h2.667c0.356 0 0.711-0.356 0.711-0.711v-8.533c-0.089-0.356-0.444-0.711-0.8-0.711zM30.578 19.467h-1.956c-0.978 0-1.778 0.8-1.778 1.778s0.8 1.778 1.778 1.778h0.622v0.533h-6.578c-0.356 0-0.711 0.356-0.711 0.711s0.356 0.711 0.711 0.711h6.578v0.178c0 0.356-0.267 0.533-0.533 0.533h-25.333c-0.267 0-0.533-0.267-0.533-0.533v-0.178h12.178c0.356 0 0.711-0.356 0.711-0.711s-0.356-0.711-0.711-0.711h-12.267v-0.533h0.622c0.978 0 1.778-0.8 1.778-1.778s-0.8-1.778-1.778-1.778h-1.956v-7.111h1.956c0.978 0 1.778-0.8 1.778-1.778s-0.8-1.778-1.778-1.778h-0.622v-0.533h5.244c0.356 0 0.711-0.356 0.711-0.711s-0.356-0.711-0.711-0.711h-5.244c0-0.267 0.267-0.533 0.533-0.533h25.333c0.267 0 0.533 0.178 0.533 0.533h-18.756c-0.356 0-0.711 0.356-0.711 0.711s0.356 0.711 0.711 0.711h18.756v0.622h-0.622c-0.978 0-1.778 0.8-1.778 1.778s0.8 1.778 1.778 1.778h1.956v7.022zM20.178 23.556h-2.756c-0.356 0-0.711 0.356-0.711 0.711s0.356 0.711 0.711 0.711h2.756c0.356 0 0.711-0.356 0.711-0.711s-0.356-0.711-0.711-0.711z"></path>
</svg>
