<!-- Generated by IcoMoon.io -->
<svg version="1.1" xmlns="http://www.w3.org/2000/svg" width="32" height="32" viewBox="0 0 32 32">
<title>bluetooth-2</title>
<path d="M15.439 4.828v9.656l-4.66-4.211-0.73 0.842 5.165 4.66-5.165 4.604 0.73 0.842 4.716-4.211v10.274l5.782-6.512-4.604-4.884 4.66-5.221zM19.705 20.772l-3.144 3.593v-6.905zM16.561 14.26v-6.737l3.144 3.144zM16 0c-5.558 0-10.105 4.547-10.105 10.105v11.789c0 5.558 4.547 10.105 10.105 10.105s10.105-4.547 10.105-10.105v-11.789c0-5.558-4.547-10.105-10.105-10.105zM24.982 21.895c0 4.94-4.042 8.982-8.982 8.982s-8.982-4.042-8.982-8.982v-11.789c0-4.94 4.042-8.982 8.982-8.982s8.982 4.042 8.982 8.982z"></path>
</svg>
