<!-- Generated by IcoMoon.io -->
<svg version="1.1" xmlns="http://www.w3.org/2000/svg" width="32" height="32" viewBox="0 0 32 32">
<title>body</title>
<path d="M24.333 0.667c0.067-0.133 0-0.333-0.133-0.467-0.067-0.133-0.267-0.2-0.4-0.2h-15.6c-0.133 0-0.333 0.067-0.4 0.2-0.133 0.133-0.133 0.267-0.133 0.467 0 0.067 0.933 4.667-2.6 10.8-3.8 6.533 1.867 19.667 2.133 20.2 0.067 0.2 0.267 0.333 0.467 0.333h16.667c0.2 0 0.4-0.133 0.467-0.333 0.267-0.533 5.933-13.667 2.133-20.2-3.6-6.133-2.6-10.8-2.6-10.8zM8.8 1.067h14.4c-0.133 1.4-0.2 5.067 2.133 9.667-0.667 0.133-1.333 0.4-2 0.667-0.2 0.067-0.4 0.133-0.6 0.267-0.4 0.133-0.733 0.267-1.133 0.467-0.733 0.333-1.533 0.6-2.333 0.867-1.067 0.267-2.2 0.4-3.333 0.4s-2.2-0.067-3.333-0.4c-0.8-0.2-1.533-0.533-2.333-0.867-0.4-0.133-0.733-0.333-1.133-0.467-0.2-0.067-0.4-0.133-0.6-0.267-0.667-0.267-1.267-0.467-2-0.667 2.467-4.6 2.4-8.267 2.267-9.667zM15.467 23.467v7.467h-7.467c-0.6-1.533-3.267-8.267-3.2-13.933 2.2-0.133 5.867-0.067 7.733 1 0.533 0.333 0.933 0.533 1.4 0.8 0 0 0 0 0 0.067 0.667 1.467 1.133 3 1.533 4.6 0 0 0 0 0 0zM15.333 19.467c0.467 0.133 0.933 0.133 1.333 0-0.2 0.467-0.4 1.133-0.667 1.933-0.267-0.8-0.467-1.467-0.667-1.933zM24 30.933h-7.467v-7.467c0 0 0 0 0-0.067 0.4-1.533 0.933-3.067 1.533-4.533 0 0 0 0 0-0.067 0.4-0.2 0.867-0.467 1.4-0.8 2-1.2 6.133-1.133 7.733-1 0.067 5.667-2.6 12.4-3.2 13.933zM18.933 17.133c-0.667 0.4-1.2 0.667-1.667 0.933h-0.067l-0.133 0.067c-0.067 0-0.067 0.067-0.133 0.067-0.6 0.333-1.333 0.333-1.933 0l-0.067-0.067c-0.067-0.067-0.2-0.067-0.267-0.133-0.467-0.267-1-0.533-1.6-0.933-2.267-1.333-6.533-1.267-8.2-1.2 0.067-1.267 0.467-2.667 1.133-3.867 0.067-0.067 0.067-0.133 0.133-0.267 0.733 0.133 1.467 0.333 2.133 0.667 0.2 0.067 0.4 0.2 0.6 0.267 0.4 0.133 0.733 0.267 1.133 0.467 0.8 0.333 1.6 0.667 2.4 0.867 1.2 0.333 2.4 0.467 3.6 0.4v0c1.2 0 2.4-0.133 3.6-0.4 0.8-0.267 1.667-0.6 2.4-0.867 0.4-0.133 0.733-0.267 1.133-0.467 0.2-0.067 0.4-0.133 0.6-0.267 0.667-0.333 1.4-0.533 2.133-0.667 0.067 0.067 0.067 0.133 0.133 0.267 0.667 1.2 1.067 2.6 1.133 3.933-1.933-0.067-6-0.133-8.2 1.2zM16 10.133c0.867 0 1.6-0.733 1.6-1.6 0-0.267-0.267-0.533-0.533-0.533s-0.533 0.267-0.533 0.533c0 0.267-0.267 0.533-0.533 0.533s-0.533-0.267-0.533-0.533c0-0.267-0.267-0.533-0.533-0.533s-0.533 0.267-0.533 0.533c0 0.867 0.733 1.6 1.6 1.6zM6.933 4.267c0-0.133-0.067-0.333-0.2-0.4l-3.2-2.667c-0.133-0.133-0.4-0.2-0.533-0.067-0.2 0.067-0.333 0.267-0.333 0.467v1.067h-2.133c-0.267 0-0.533 0.267-0.533 0.533v2.133c0 0.267 0.267 0.533 0.533 0.533h2.133v1.067c0 0.2 0.133 0.4 0.333 0.467s0.4 0.067 0.6-0.067l3.2-2.667c0.067-0.067 0.133-0.267 0.133-0.4zM3.733 5.8v-0.467c0-0.267-0.267-0.533-0.533-0.533h-2.133v-1.067h2.133c0.267 0 0.533-0.267 0.533-0.533v-0.467l1.867 1.533-1.867 1.533zM31.467 2.667h-2.133v-1.067c0-0.2-0.133-0.4-0.333-0.467s-0.4-0.067-0.6 0.067l-3.2 2.667c-0.133 0.133-0.2 0.267-0.2 0.4s0.067 0.333 0.2 0.4l3.2 2.667c0.133 0.133 0.4 0.133 0.6 0.067s0.333-0.267 0.333-0.467v-1.067h2.133c0.267 0 0.533-0.267 0.533-0.533v-2.133c0-0.267-0.267-0.533-0.533-0.533zM30.933 4.8h-2.133c-0.267 0-0.533 0.267-0.533 0.533v0.467l-1.8-1.533 1.8-1.533v0.467c0 0.267 0.267 0.533 0.533 0.533h2.133v1.067z"></path>
</svg>
