<!-- Generated by IcoMoon.io -->
<svg version="1.1" xmlns="http://www.w3.org/2000/svg" width="32" height="32" viewBox="0 0 32 32">
<title>bow</title>
<path d="M27.2 32h-26.8v-0.8h26.8c2.067 0 4-0.267 4-3.6 0-0.933-0.267-1.667-0.8-2.133-1.067-0.933-2.867-0.733-2.933-0.733h-0.067l-22.667-0.067c-0.267 0.067-2.067 0.267-3.333-0.867-0.867-0.733-1.333-1.933-1.333-3.467s0.467-2.8 1.333-3.6c1.4-1.267 3.267-1.133 3.4-1.133h22.733c0.133 0 3.8-0.067 3.8-3.667 0-1.067-0.333-1.933-0.933-2.533-1-0.933-2.533-0.867-2.533-0.867h-23.467c-0.067 0-1.867 0.133-3.133-1-0.867-0.667-1.267-1.667-1.267-3 0-4.4 4.267-4.533 4.267-4.533h27.333v0.8h-27.333c-0.133 0-3.533 0.133-3.533 3.733 0 1.067 0.333 1.933 0.933 2.467 1 0.933 2.533 0.8 2.533 0.8h23.467c0.067 0 1.867-0.133 3.133 1.067 0.8 0.733 1.2 1.733 1.2 3.067 0 4.4-4.533 4.467-4.533 4.467h-22.8c-0.067 0-1.667-0.133-2.8 0.933-0.733 0.667-1.067 1.667-1.067 3s0.333 2.267 1.067 2.867c1.133 0.933 2.733 0.667 2.8 0.667h0.067l22.733 0.067c0.267 0 2.2-0.2 3.467 0.933 0.733 0.667 1.067 1.533 1.067 2.733 0 4.4-3.267 4.4-4.8 4.4z"></path>
</svg>
