<!-- Generated by IcoMoon.io -->
<svg version="1.1" xmlns="http://www.w3.org/2000/svg" width="32" height="32" viewBox="0 0 32 32">
<title>braking</title>
<path d="M16 0c-8.83 0-16 7.23-16 16 0 8.83 7.17 16 16 16s16-7.17 16-16c0-8.77-7.17-16-16-16zM16 30.933c-8.237 0-14.933-6.696-14.933-14.933s6.696-14.933 14.933-14.933 14.933 6.696 14.933 14.933-6.696 14.933-14.933 14.933zM16 8c-4.444 0-8 3.556-8 8s3.556 8 8 8 8-3.556 8-8-3.556-8-8-8zM16 22.933c-3.852 0-6.933-3.081-6.933-6.933s3.081-6.933 6.933-6.933 6.933 3.081 6.933 6.933-3.081 6.933-6.933 6.933zM16 14.4c1.185 0 2.133-0.948 2.133-2.133s-0.948-2.133-2.133-2.133-2.133 0.948-2.133 2.133 0.948 2.133 2.133 2.133zM16 11.2c0.593 0 1.067 0.474 1.067 1.067s-0.474 1.067-1.067 1.067-1.067-0.474-1.067-1.067 0.474-1.067 1.067-1.067zM16 17.6c-1.185 0-2.133 0.948-2.133 2.133s0.948 2.133 2.133 2.133 2.133-0.948 2.133-2.133-0.948-2.133-2.133-2.133zM16 20.8c-0.593 0-1.067-0.474-1.067-1.067s0.474-1.067 1.067-1.067 1.067 0.474 1.067 1.067-0.474 1.067-1.067 1.067zM12.267 13.867c-1.185 0-2.133 0.948-2.133 2.133s0.948 2.133 2.133 2.133 2.133-0.948 2.133-2.133-0.948-2.133-2.133-2.133zM12.267 17.067c-0.593 0-1.067-0.474-1.067-1.067s0.474-1.067 1.067-1.067 1.067 0.474 1.067 1.067-0.474 1.067-1.067 1.067zM19.733 13.867c-1.185 0-2.133 0.948-2.133 2.133s0.948 2.133 2.133 2.133 2.133-0.948 2.133-2.133-0.948-2.133-2.133-2.133zM19.733 17.067c-0.593 0-1.067-0.474-1.067-1.067s0.474-1.067 1.067-1.067 1.067 0.474 1.067 1.067-0.474 1.067-1.067 1.067zM12.859 3.733c1.422 0 2.607 1.185 2.607 2.607 0 0.296 0.237 0.533 0.533 0.533s0.533-0.237 0.533-0.533c0-2.015-1.659-3.674-3.674-3.674-0.296 0-0.533 0.237-0.533 0.533s0.178 0.533 0.533 0.533zM19.2 28.267c-1.422 0-2.667-1.244-2.667-2.667 0-0.296-0.237-0.533-0.533-0.533s-0.533 0.237-0.533 0.533c0 2.074 1.659 3.733 3.733 3.733 0.296 0 0.533-0.237 0.533-0.533s-0.237-0.533-0.533-0.533zM6.4 15.467c-2.074 0-3.733 1.659-3.733 3.733 0 0.296 0.237 0.533 0.533 0.533s0.533-0.237 0.533-0.533c0-1.422 1.244-2.667 2.667-2.667 0.296 0 0.533-0.237 0.533-0.533s-0.237-0.533-0.533-0.533zM28.8 12.267c-0.296 0-0.533 0.237-0.533 0.533 0 1.422-1.244 2.667-2.667 2.667-0.296 0-0.533 0.237-0.533 0.533s0.237 0.533 0.533 0.533c2.074 0 3.733-1.659 3.733-3.733 0-0.296-0.237-0.533-0.533-0.533zM9.185 9.719c0.178 0 0.296-0.059 0.356-0.178 0.237-0.237 0.237-0.533 0-0.77-1.422-1.422-3.793-1.422-5.215 0-0.237 0.237-0.237 0.533 0 0.77s0.533 0.237 0.77 0c1.007-1.007 2.726-1.007 3.733 0 0.059 0.119 0.178 0.178 0.356 0.178zM26.904 22.459c-1.007 1.007-2.785 1.007-3.793 0-0.237-0.237-0.533-0.237-0.77 0s-0.237 0.533 0 0.77c0.77 0.711 1.719 1.067 2.667 1.067s1.896-0.356 2.607-1.067c0.237-0.237 0.237-0.533 0-0.77-0.178-0.237-0.474-0.237-0.711 0zM9.6 22.4c-0.237-0.237-0.533-0.237-0.77 0-1.422 1.422-1.422 3.852 0 5.274 0.119 0.119 0.237 0.178 0.356 0.178s0.296-0.059 0.356-0.178c0.237-0.237 0.237-0.533 0-0.77-1.007-1.007-1.007-2.785 0-3.793 0.296-0.178 0.296-0.474 0.059-0.711zM22.4 8.83c-0.237 0.237-0.237 0.533 0 0.77 0.119 0.119 0.237 0.178 0.356 0.178 0.178 0 0.296-0.059 0.356-0.178 1.422-1.422 1.422-3.852 0-5.274-0.237-0.237-0.533-0.237-0.77 0s-0.237 0.533 0 0.77c1.067 1.007 1.067 2.726 0.059 3.733zM15.467 16c0 0.296 0.237 0.533 0.533 0.533s0.533-0.237 0.533-0.533-0.237-0.533-0.533-0.533-0.533 0.237-0.533 0.533z"></path>
</svg>
