<!-- Generated by IcoMoon.io -->
<svg version="1.1" xmlns="http://www.w3.org/2000/svg" width="32" height="32" viewBox="0 0 32 32">
<title>broken-link</title>
<path d="M19.625 2.12c2.827-2.827 7.423-2.827 10.25 0l-0.001 0c1.365 1.365 2.114 3.184 2.126 5.123 0 1.945-0.749 3.764-2.114 5.129l-7.26 7.261c-1.413 1.414-3.268 2.121-5.128 2.121s-3.715-0.707-5.128-2.121c-0.236-0.236-0.236-0.616 0-0.852s0.616-0.236 0.852 0c2.356 2.356 6.185 2.356 8.541 0l7.255-7.267c1.135-1.136 1.764-2.652 1.764-4.271s-0.628-3.136-1.764-4.271c-1.136-1.136-2.652-1.764-4.27-1.764s-3.135 0.628-4.27 1.764l-5.551 5.552c-0.235 0.236-0.616 0.236-0.852 0s-0.236-0.616 0-0.852l5.551-5.552z"></path>
<path d="M11.512 29.034l4.699-4.7c0.236-0.236 0.616-0.236 0.852 0s0.236 0.616 0 0.852l-4.699 4.7c-1.365 1.365-3.189 2.115-5.128 2.115s-3.757-0.755-5.122-2.115c-1.365-1.359-2.114-3.184-2.114-5.123 0-1.945 0.749-3.764 2.114-5.129l6.831-6.833c2.827-2.827 7.423-2.827 10.25 0 0.236 0.235 0.236 0.616 0 0.852s-0.616 0.236-0.852 0c-2.356-2.356-6.185-2.356-8.541 0l-6.831 6.839c-2.356 2.356-2.356 6.186 0 8.542 1.136 1.136 2.652 1.764 4.27 1.764s3.135-0.628 4.27-1.764z"></path>
<path d="M20.512 26.587c-0.332 0-0.604 0.272-0.604 0.604v3.625c0 0.332 0.272 0.604 0.604 0.604s0.604-0.272 0.604-0.604v-3.625c0-0.332-0.266-0.604-0.604-0.604z"></path>
<path d="M22.361 25.554c0.235-0.236 0.616-0.236 0.852 0l2.567 2.561c0.236 0.235 0.236 0.616 0 0.852-0.121 0.115-0.272 0.175-0.429 0.175s-0.308-0.054-0.429-0.175l-2.561-2.561c-0.236-0.236-0.236-0.616 0-0.852z"></path>
<path d="M27.156 22.962h-3.624c-0.332 0-0.604 0.272-0.604 0.604s0.272 0.604 0.604 0.604h3.624c0.332 0 0.604-0.272 0.604-0.604s-0.266-0.604-0.604-0.604z"></path>
<path d="M10.244 6.047c0 0.332-0.272 0.604-0.604 0.604s-0.604-0.272-0.604-0.604v-3.625c0-0.332 0.272-0.604 0.604-0.604s0.604 0.272 0.604 0.604v3.625z"></path>
<path d="M6.946 7.685c0.121 0.121 0.272 0.175 0.429 0.175s0.308-0.061 0.429-0.175c0.236-0.236 0.236-0.616 0-0.852l-2.567-2.568c-0.236-0.236-0.616-0.236-0.852 0s-0.236 0.616 0 0.852l2.561 2.568z"></path>
<path d="M6.62 10.276h-3.624c-0.332 0-0.604-0.272-0.604-0.604s0.272-0.604 0.604-0.604h3.624c0.332 0 0.604 0.272 0.604 0.604s-0.272 0.604-0.604 0.604z"></path>
</svg>
