<!-- Generated by IcoMoon.io -->
<svg version="1.1" xmlns="http://www.w3.org/2000/svg" width="32" height="32" viewBox="0 0 32 32">
<title>camera-2</title>
<path d="M27.090 11.034h-6.621v-0.497c0-0.276-0.221-0.552-0.552-0.552h-2.483v-5.076c0.883-0.221 1.49-0.993 1.49-1.931v-0.055h3.090c0.828 0 1.49-0.662 1.49-1.49v-0.938c0-0.276-0.221-0.497-0.497-0.497h-14.069c-0.276 0-0.497 0.221-0.497 0.497v0.993c0 0.828 0.662 1.49 1.49 1.49h3.090v0.055c0 0.938 0.662 1.71 1.49 1.931v5.131h-2.483c-0.276 0-0.552 0.221-0.552 0.552v0.386h-6.621c-1.876 0-3.476 1.545-3.476 3.476v13.021c0 1.931 1.6 3.476 3.531 3.476h6.621v0.441c0 0.276 0.221 0.552 0.552 0.552h7.945c0.276 0 0.552-0.221 0.552-0.552v-0.497h6.621c1.931 0 3.531-1.545 3.531-3.476v-12.966c-0.11-1.931-1.655-3.476-3.641-3.476zM9.931 1.986c-0.276 0-0.552-0.221-0.552-0.552v-0.552h13.186v0.552c0 0.276-0.221 0.552-0.552 0.552zM13.959 2.979l4.083-0.055v0.055c0 0.552-0.441 1.048-1.048 1.048h-2.041c-0.552 0-0.993-0.497-0.993-1.048zM16.552 4.966v5.076h-1.048v-5.076zM12.414 11.476v-0.552h7.172v1.6h-7.172zM19.586 30.51v0.552h-7.172v-1.6h7.172zM29.683 27.531c0 1.379-1.159 2.538-2.538 2.538h-6.621v-0.883c0-0.331-0.276-0.607-0.607-0.607h-7.834c-0.331 0-0.607 0.276-0.607 0.607v0.883h-6.621c-1.434 0-2.538-1.159-2.538-2.538v-13.021c0-1.379 1.159-2.538 2.538-2.538h6.621v0.883c0 0.331 0.276 0.607 0.607 0.607h7.834c0.331 0 0.607-0.276 0.607-0.607v-0.883h6.621c1.434 0 2.538 1.159 2.538 2.538zM11.476 14.51c-3.586 0-6.51 2.924-6.51 6.455 0 3.586 2.924 6.455 6.51 6.455s6.51-2.924 6.51-6.455-2.924-6.455-6.51-6.455zM11.476 26.538c-3.090 0-5.572-2.483-5.572-5.517s2.483-5.517 5.572-5.517 5.572 2.483 5.572 5.517-2.538 5.517-5.572 5.517zM13.738 17.159c-0.331-0.221-0.717-0.331-1.103-0.441-0.276-0.055-0.497 0.11-0.552 0.331-0.055 0.276 0.11 0.497 0.331 0.552 0.331 0.055 0.607 0.221 0.883 0.386 0.055 0.055 0.166 0.055 0.221 0.055 0.166 0 0.331-0.11 0.386-0.221 0.11-0.276 0.055-0.552-0.166-0.662zM14.786 18.648c-0.221 0.11-0.331 0.386-0.166 0.662 0.276 0.497 0.441 1.103 0.441 1.71 0 0.276-0.055 0.607-0.11 0.883s0.11 0.497 0.331 0.552h0.11c0.221 0 0.386-0.166 0.441-0.331 0.11-0.386 0.166-0.717 0.166-1.103 0-0.772-0.221-1.49-0.552-2.152-0.166-0.276-0.441-0.331-0.662-0.221zM12.966 20.524c-0.276 0-0.497 0.221-0.497 0.497 0 0.552-0.441 1.048-1.048 1.048-0.552 0-1.048-0.441-1.048-1.048 0-0.552 0.441-1.048 1.048-1.048 0.276 0 0.497-0.221 0.497-0.497s-0.221-0.497-0.497-0.497c-1.103 0-1.986 0.883-1.986 1.986s0.883 1.986 1.986 1.986 1.986-0.883 1.986-1.986c0.055-0.221-0.166-0.441-0.441-0.441zM27.641 14.51c-0.276 0-0.497 0.221-0.497 0.497s-0.221 0.552-0.552 0.552c-0.276 0-0.552-0.221-0.552-0.552 0-0.276 0.221-0.552 0.552-0.552 0.276 0 0.497-0.221 0.497-0.497s-0.221-0.497-0.497-0.497c-0.828 0-1.49 0.662-1.49 1.49s0.662 1.49 1.49 1.49 1.49-0.662 1.49-1.49c0-0.221-0.221-0.441-0.441-0.441zM23.559 14.51h-0.993c-0.276 0-0.497 0.221-0.497 0.497s0.221 0.497 0.497 0.497h0.993c0.276 0 0.497-0.221 0.497-0.497s-0.221-0.497-0.497-0.497zM5.352 15.007c0-0.276-0.221-0.497-0.497-0.497h-0.497c-0.276 0-0.497 0.221-0.497 0.497 0.055 0.276 0.276 0.441 0.497 0.441h0.497c0.276 0 0.497-0.166 0.497-0.441z"></path>
</svg>
