<!-- Generated by IcoMoon.io -->
<svg version="1.1" xmlns="http://www.w3.org/2000/svg" width="32" height="32" viewBox="0 0 32 32">
<title>capacity</title>
<path d="M8.69 22.745l-1.724 8.243c-0.113 0.525 0.3 1.012 0.824 1.012h15.026c0.525 0 0.937-0.487 0.824-1.012l-1.761-8.243c-0.038-0.412-0.412-0.712-0.824-0.712h-11.504c-0.45 0-0.787 0.3-0.862 0.712zM14.46 27.017c0 0.45 0.375 0.824 0.824 0.824s0.824-0.375 0.824-0.824c0-0.45-0.375-0.824-0.824-0.824s-0.824 0.375-0.824 0.824zM24.090 0.974l-0.412 3.71h2.136c0.862 0.037 1.574 0.3 2.211 0.899 0.6 0.6 0.899 1.349 0.862 2.211l-0.375 4.234c-0.037 0.824-0.375 1.574-0.937 2.136-0.525 0.525-1.274 0.862-2.098 0.862h-2.923l-0.487 5.321h-13.452l-1.311-14.051-3.785-4.946c-0.3-0.375-0.225-0.899 0.15-1.162 0.15-0.113 0.337-0.187 0.487-0.187h19.11c0.525 0 0.899 0.45 0.824 0.974l0-0zM23.49 6.37l-0.749 6.97h2.735c0.375 0 0.675-0.15 0.899-0.375 0.3-0.262 0.45-0.637 0.487-1.049l0.337-4.234c0-0.375-0.113-0.637-0.375-0.899-0.225-0.262-0.562-0.412-0.899-0.412l-2.435-0zM15.284 29.527c-1.386 0-2.511-1.124-2.511-2.511s1.124-2.511 2.511-2.511c1.386 0 2.511 1.124 2.511 2.511s-1.124 2.511-2.511 2.511z"></path>
</svg>
