<!-- Generated by IcoMoon.io -->
<svg version="1.1" xmlns="http://www.w3.org/2000/svg" width="32" height="32" viewBox="0 0 32 32">
<title>capacity</title>
<path fill="#fff" d="M24.089 2.98h-2.082v-1.758c0-0.795-0.647-1.438-1.442-1.438h-9.135c-0.795 0-1.438 0.647-1.438 1.438v1.755h-2.082c-0.933 0-1.694 0.758-1.694 1.694v25.418c0 0.933 0.758 1.694 1.694 1.694h16.178c0.933 0 1.694-0.761 1.694-1.694v-25.418c-0.003-0.933-0.761-1.691-1.694-1.691l0-0zM11.492 1.282h9.014v1.694h-9.014v-1.694zM24.281 30.089c0 0.104-0.087 0.192-0.192 0.192l-16.181 0c-0.104 0-0.192-0.087-0.192-0.192l-0-25.418c0-0.104 0.088-0.192 0.192-0.192h16.178c0.104 0 0.192 0.088 0.192 0.192l0 25.418 0.003-0zM22.119 26.849c0 0.414-0.337 0.751-0.751 0.751l-10.738 0c-0.414 0-0.751-0.337-0.751-0.751s0.337-0.751 0.751-0.751h10.742c0.411 0.003 0.748 0.337 0.748 0.751h0zM22.119 7.912c0 0.414-0.337 0.751-0.751 0.751l-10.738 0c-0.414 0-0.751-0.337-0.751-0.751s0.337-0.751 0.751-0.751h10.742c0.411 0.003 0.748 0.337 0.748 0.751h0zM22.119 14.224c0 0.414-0.337 0.751-0.751 0.751h-10.738c-0.414 0-0.751-0.337-0.751-0.751s0.337-0.751 0.751-0.751h10.742c0.411 0.003 0.748 0.337 0.748 0.751h0zM22.119 20.537c0 0.414-0.337 0.751-0.751 0.751h-10.738c-0.414 0-0.751-0.337-0.751-0.751s0.337-0.751 0.751-0.751h10.742c0.411 0.003 0.748 0.337 0.748 0.751h0z"></path>
</svg>
