<!-- Generated by IcoMoon.io -->
<svg version="1.1" xmlns="http://www.w3.org/2000/svg" width="32" height="32" viewBox="0 0 32 32">
<title>cardio</title>
<path d="M31.314 21.257h-1.943v-0.686c0-1.029-0.914-1.943-2.057-1.943-0.229 0-0.457 0-0.686 0.114v-0.114c0-1.029-0.914-1.943-2.057-1.943s-2.057 0.914-2.057 1.943v2.629h-3.543c0.571-1.257 0.8-2.514 0.8-3.886 0-2.629-1.029-5.029-2.971-6.971-0.343-0.343-0.686-0.686-1.029-0.914v-5.257c0.229-1.029-0.686-1.943-1.714-1.943h-8c-1.143 0-1.943 0.914-1.943 1.943v5.257c-0.457 0.229-0.8 0.571-1.143 0.914-1.943 1.829-2.971 4.343-2.971 6.857 0 2.971 1.371 5.829 3.771 7.657 0.114 0.229 0.343 0.229 0.457 0.229h5.143v0.686c0 1.029 0.914 1.943 2.057 1.943 0.229 0 0.457 0 0.686-0.114v0.114c0 1.029 0.914 1.943 2.057 1.943s1.943-0.914 1.943-1.943v-2.629h6.629v2.629c0 1.029 0.914 1.943 2.057 1.943s2.057-0.914 2.057-1.943v-0.114c0.229 0.114 0.457 0.114 0.686 0.114 1.143 0 2.057-0.914 2.057-1.943v-0.686h1.943c0.343 0 0.686-0.343 0.686-0.686v-2.629c-0.229-0.343-0.571-0.571-0.914-0.571zM5.371 4.229c0-0.343 0.343-0.686 0.686-0.686h8c0.343 0 0.686 0.343 0.686 0.686v4.343c-0.229-0.114-0.457-0.229-0.686-0.343v-2.629c0-0.686-0.571-1.257-1.371-1.257h-5.371c-0.686 0-1.371 0.571-1.371 1.257v2.743c-0.114 0.114-0.343 0.229-0.571 0.343zM12.686 5.6v2.286c-0.914-0.229-1.714-0.343-2.629-0.343s-1.829 0.114-2.743 0.343v-2.286zM9.371 23.886h-1.371c0.114 0 0.343-0.114 0.457-0.229 0.229-0.229 0.229-0.686 0-0.914-0.114-0.114-0.343-0.229-0.457-0.229h1.371zM12 25.829c0 0.343-0.343 0.686-0.686 0.686s-0.686-0.343-0.686-0.686v-5.257c0-0.343 0.343-0.686 0.686-0.686s0.686 0.343 0.686 0.686zM14.629 27.771c0 0.343-0.343 0.686-0.686 0.686s-0.686-0.343-0.686-0.686v-9.143c0-0.343 0.343-0.686 0.686-0.686s0.686 0.343 0.686 0.686zM14.057 16.686c-1.143 0-2.057 0.914-2.057 1.943v0.114c-0.229-0.114-0.457-0.114-0.686-0.114-1.143 0-2.057 0.914-2.057 1.943v0.686h-1.943c-0.343 0-0.686 0.343-0.686 0.686v1.943h-2.171c-1.943-1.6-3.086-4-3.086-6.514 0-4.686 3.886-8.457 8.686-8.457s8.686 3.771 8.686 8.457c0 1.371-0.343 2.743-1.029 3.886h-1.714v-2.629c0-1.143-0.914-1.943-1.943-1.943zM22.629 23.886h-6.629v-1.257h6.629zM25.371 20.571v7.2c0 0.343-0.343 0.686-0.686 0.686s-0.686-0.343-0.686-0.686v-9.143c0-0.343 0.343-0.686 0.686-0.686s0.686 0.343 0.686 0.686zM28 25.829c0 0.343-0.343 0.686-0.686 0.686s-0.686-0.343-0.686-0.686v-5.257c0-0.343 0.343-0.686 0.686-0.686s0.686 0.343 0.686 0.686zM29.371 23.886v-1.257h1.371c-0.114 0-0.343 0.114-0.457 0.229-0.229 0.229-0.229 0.686 0 0.914 0.114 0.114 0.343 0.229 0.457 0.229h-1.371z"></path>
</svg>
