<!-- Generated by IcoMoon.io -->
<svg version="1.1" xmlns="http://www.w3.org/2000/svg" width="32" height="32" viewBox="0 0 32 32">
<title>care</title>
<path d="M30 2v7h-6v7h6v3.9c-4 0-8.1 10.1-8.1 10.1h-11.8s-4.1-10.1-8.1-10.1v-3.9h6v-7h-6v-7h3v4h1v-4h2v4h1v-4h2v4h1v-4h2v4h1v-4h2v4h1v-4h2v4h1v-4h2v4h1v-4h2v4h1v-4zM30 10v5h-5v-5zM7 10v5h-5v-5zM30 0h-28c-1.1 0-2 0.9-2 2v17.9c0 1.1 0.9 2 2 2 1.4 0 4.4 4.2 6.2 8.9 0.3 0.8 1 1.3 1.9 1.3h11.8c0.8 0 1.6-0.5 1.9-1.3 1.9-4.6 4.8-8.9 6.2-8.9 1.1 0 2-0.9 2-2v-17.9c0-1.1-0.9-2-2-2z"></path>
</svg>
