<!-- Generated by IcoMoon.io -->
<svg version="1.1" xmlns="http://www.w3.org/2000/svg" width="32" height="32" viewBox="0 0 32 32">
<title>charge</title>
<path d="M15.945 9.545h-3.641l0.662-5.076c0.055-0.497-0.055-0.828-0.331-0.938-0.331-0.11-0.607 0-0.883 0.441l-4.966 6.952c-0.276 0.331-0.276 0.717-0.166 1.048 0.166 0.331 0.497 0.497 0.938 0.497h3.090l-0.662 6.014c-0.055 0.497 0.055 0.828 0.331 0.938 0.055 0.055 0.166 0.055 0.221 0.055 0.221 0 0.497-0.166 0.717-0.497l5.517-7.945c0.276-0.331 0.276-0.717 0.166-1.048-0.221-0.276-0.552-0.441-0.993-0.441zM15.945 10.538l-4.966 7.172 0.662-5.628c0-0.11 0-0.276-0.11-0.386s-0.221-0.166-0.331-0.166h-3.697s0-0.055 0.055-0.055l4.414-6.179-0.662 4.634c0 0.11 0 0.276 0.11 0.386s0.221 0.166 0.331 0.166h4.193c0.055 0 0.055 0 0 0.055zM29.021 6.014h-1.048v-2.538c0-0.276-0.221-0.497-0.497-0.497s-0.497 0.221-0.497 0.497v2.538h-1.048v-2.538c0-0.276-0.221-0.497-0.497-0.497s-0.497 0.221-0.497 0.497v2.538h-1.048c-0.276 0-0.497 0.221-0.497 0.497s0.221 0.497 0.497 0.497h0.055v2.041c0 1.214 0.883 2.207 1.986 2.428v12.8c0 3.752-3.034 6.786-6.786 6.786-1.766 0-3.476-0.662-4.745-1.931-1.159-1.159-1.876-2.648-2.041-4.248 0.552-0.221 0.993-0.772 0.993-1.379v-0.552h5.683c1.379 0 2.483-1.103 2.483-2.483v-17.986c-0.055-1.379-1.159-2.483-2.483-2.483h-14.069c-1.379 0-2.483 1.103-2.483 2.483v18.041c0 1.379 1.103 2.483 2.483 2.483h5.572v0.552c0 0.662 0.441 1.214 1.048 1.379 0.166 1.876 0.993 3.586 2.317 4.91 1.434 1.379 3.366 2.152 5.407 2.152 4.248 0 7.724-3.476 7.724-7.724v-12.855c1.159-0.221 1.986-1.214 1.986-2.428v-2.041h0.055c0.276 0 0.497-0.221 0.497-0.497-0.055-0.221-0.276-0.441-0.552-0.441zM4.966 22.069c-0.828 0-1.545-0.662-1.545-1.545v-18.041c0-0.828 0.717-1.545 1.545-1.545h14.069c0.828 0 1.545 0.662 1.545 1.545v18.041c0 0.828-0.662 1.545-1.545 1.545zM11.972 24.055c-0.276 0-0.552-0.221-0.552-0.552v-0.552h1.048v0.552c0.055 0.331-0.166 0.552-0.497 0.552zM28.083 8.993c0 0.828-0.662 1.545-1.545 1.545-0.828 0-1.545-0.662-1.545-1.545v-2.041h3.090z"></path>
</svg>
