<!-- Generated by IcoMoon.io -->
<svg version="1.1" xmlns="http://www.w3.org/2000/svg" width="32" height="32" viewBox="0 0 32 32">
<title>chip</title>
<path d="M32 8.218v-1.018h-3.127v-1.745l-2.4-2.4h-1.745v-3.055h-1.018v3.127h-3.127v-3.127h-0.945v3.127h-3.127v-3.127h-1.018v3.127h-3.127v-3.127h-1.018v3.127h-3.127v-3.127h-1.018v3.127h-1.745l-2.327 2.327v1.745h-3.127v1.018h3.127v3.127h-3.127v1.018h3.127v3.127h-3.127v1.018h3.127v3.127h-3.127v1.018h3.127v3.127h-3.127v1.018h3.127v1.745l2.4 2.4h1.745v3.055h1.018v-3.127h3.127v3.127h0.945v-3.127h3.127v3.127h1.018v-3.127h3.127v3.127h1.018v-3.127h3.127v3.127h1.018v-3.127h1.745l2.4-2.4v-1.745h3.055v-1.018h-3.127v-3.127h3.127v-0.945h-3.127v-3.127h3.127v-1.018h-3.127v-3.127h3.127v-1.018h-3.127v-3.127zM27.855 26.109l-1.745 1.745h-20.218l-1.745-1.745v-20.218l1.745-1.745h20.218l1.745 1.745zM6.182 25.818h19.636v-19.636h-19.636zM7.2 7.2h17.527v17.527h-17.527z"></path>
</svg>
