<!-- Generated by IcoMoon.io -->
<svg version="1.1" xmlns="http://www.w3.org/2000/svg" width="28" height="28" viewBox="0 0 28 28">
<title>cookie</title>
<path d="M16.513 22.978c-2.677 2.677-6.759 3.096-9.876 1.254-0.229-0.135-0.524-0.059-0.659 0.169s-0.059 0.524 0.169 0.659c3.485 2.060 8.050 1.594 11.046-1.402 1.411-1.411 2.261-3.172 2.55-5.004 0.041-0.263-0.138-0.509-0.4-0.55s-0.509 0.138-0.55 0.4c-0.258 1.637-1.018 3.211-2.28 4.473z"></path>
<path d="M3.599 22.022c0.229-0.135 0.305-0.43 0.169-0.659-1.842-3.116-1.424-7.199 1.254-9.876 1.094-1.094 2.422-1.811 3.822-2.15 0.258-0.063 0.417-0.323 0.354-0.581s-0.323-0.417-0.581-0.354c-1.567 0.38-3.053 1.182-4.276 2.405-2.996 2.996-3.462 7.562-1.402 11.047 0.135 0.229 0.43 0.305 0.659 0.169z"></path>
<path d="M9.653 18.298c0.662 0.662 1.736 0.662 2.398 0 0.331-0.331 0.497-0.766 0.497-1.199 0-0.266-0.215-0.481-0.481-0.481s-0.481 0.215-0.481 0.481c0 0.188-0.072 0.375-0.215 0.519-0.286 0.286-0.751 0.286-1.037 0 0 0 0 0 0 0zM10.334 17.617c-0.286-0.286-0.286-0.751 0-1.037 0.129-0.129 0.292-0.199 0.461-0.212 0.265-0.021 0.463-0.252 0.442-0.517s-0.252-0.463-0.517-0.442c-0.388 0.030-0.769 0.194-1.066 0.491-0.662 0.662-0.662 1.736 0 2.398z"></path>
<path d="M4.808 17.699c0.639 0.639 1.675 0.639 2.314 0-0 0 0 0 0 0 0.639-0.639 0.639-1.675 0-2.314s-1.675-0.639-2.314 0zM4.808 17.699c0 0 0 0 0 0-0.639-0.639-0.639-1.675-0-2.314l0 2.314zM6.441 17.019c-0.263 0.263-0.69 0.263-0.953 0s-0.263-0.69-0-0.953c0.263-0.263 0.69-0.263 0.953 0s0.263 0.69 0 0.953z"></path>
<path d="M9.506 23.836c0.639 0.639 1.675 0.639 2.314 0 0 0 0-0 0 0 0.639-0.639 0.639-1.675 0-2.314s-1.675-0.639-2.314 0zM9.506 23.836c0-0 0 0 0 0-0.639-0.639-0.639-1.675 0-2.314v2.314zM11.14 23.156c-0.263 0.263-0.69 0.263-0.953 0s-0.263-0.69 0-0.953c0.263-0.263 0.69-0.263 0.953 0s0.263 0.69 0 0.953z"></path>
<path d="M13.949 8.625c0 0.904 0.733 1.636 1.636 1.636s1.636-0.733 1.636-1.636c0-0.904-0.733-1.636-1.636-1.636s-1.636 0.733-1.636 1.636zM15.585 9.299c-0.372 0-0.674-0.302-0.674-0.674s0.302-0.674 0.674-0.674c0.372 0 0.674 0.302 0.674 0.674s-0.302 0.674-0.674 0.674z"></path>
<path d="M12.794 13.524c0 0.904 0.733 1.636 1.636 1.636s1.636-0.733 1.636-1.636c0-0.904-0.733-1.636-1.636-1.636s-1.636 0.733-1.636 1.636zM14.43 14.197c-0.372 0-0.674-0.302-0.674-0.674s0.302-0.674 0.674-0.674c0.372 0 0.674 0.302 0.674 0.674s-0.302 0.674-0.674 0.674z"></path>
<path d="M20.462 12.369c0 0.797 0.646 1.444 1.444 1.444s1.444-0.646 1.444-1.444c0-0.797-0.646-1.444-1.444-1.444s-1.444 0.646-1.444 1.444zM21.905 12.85c-0.266 0-0.481-0.215-0.481-0.481s0.215-0.481 0.481-0.481 0.481 0.215 0.481 0.481c0 0.266-0.215 0.481-0.481 0.481z"></path>
<path d="M17.233 18.341c-4.487 0-8.125-3.638-8.125-8.125 0-3.308 1.977-6.155 4.815-7.422 0.549 1.19 1.668 2.063 3.009 2.268 0.418 0.599 1.012 1.066 1.708 1.326 0.643 1.752 2.325 3.002 4.301 3.002 0.834 0 1.616-0.223 2.29-0.613 0.084 0.467 0.127 0.948 0.127 1.439 0 4.488-3.638 8.125-8.125 8.125zM8.145 10.216c0 5.019 4.069 9.088 9.087 9.088s9.087-4.069 9.087-9.088c0-0.818-0.109-1.611-0.312-2.365-0.042-0.158-0.162-0.284-0.318-0.333s-0.326-0.017-0.453 0.087c-0.625 0.515-1.425 0.823-2.298 0.823-1.629 0-3.008-1.078-3.461-2.56-0.047-0.155-0.169-0.275-0.324-0.321-0.645-0.19-1.19-0.618-1.531-1.183-0.079-0.131-0.216-0.217-0.368-0.231-1.231-0.113-2.248-0.967-2.602-2.113-0.039-0.127-0.129-0.232-0.248-0.29s-0.257-0.065-0.382-0.018c-3.435 1.296-5.88 4.614-5.88 8.505z"></path>
<path d="M21.796 4.759c0 0.797 0.646 1.444 1.444 1.444s1.444-0.646 1.444-1.444c0-0.797-0.646-1.444-1.444-1.444s-1.444 0.646-1.444 1.444zM23.24 5.24c-0.266 0-0.481-0.215-0.481-0.481s0.215-0.481 0.481-0.481 0.481 0.215 0.481 0.481c0 0.266-0.215 0.481-0.481 0.481z"></path>
</svg>
