<!-- Generated by IcoMoon.io -->
<svg version="1.1" xmlns="http://www.w3.org/2000/svg" width="32" height="32" viewBox="0 0 32 32">
<title>cruelty-free</title>
<path d="M14.398 21.333c0.295 0 0.533 0.239 0.533 0.533v0c0 0.897-0.937 1.6-2.133 1.6s-2.133-0.703-2.133-1.6c0-0.295 0.239-0.533 0.533-0.533s0.533 0.239 0.533 0.533c0 0.218 0.415 0.533 1.066 0.533s1.066-0.316 1.066-0.533c0-0.295 0.239-0.533 0.533-0.533z"></path>
<path d="M20.798 21.334c-0.294 0-0.533 0.239-0.533 0.533 0 0.218-0.415 0.533-1.067 0.533s-1.066-0.316-1.066-0.533c0-0.294-0.239-0.533-0.533-0.533s-0.533 0.239-0.533 0.533c0 0.897 0.937 1.6 2.133 1.6s2.133-0.703 2.133-1.6c0-0.295-0.239-0.533-0.533-0.533h-0z"></path>
<path d="M17.065 24.534c0.005-0 0.009-0.001 0.014-0.001 0.816-0.060 1.526 0.553 1.586 1.369 0 0.83-0.769 1.298-1.834 1.946l-0.002 0.001c-0.174 0.105-0.355 0.216-0.548 0.337-0.173 0.108-0.392 0.108-0.565 0-0.109-0.068-0.214-0.132-0.317-0.195-0.079-0.048-0.156-0.095-0.231-0.142l-0.002-0.001c-1.065-0.648-1.835-1.117-1.835-1.947 0-0.002 0-0.005 0.001-0.007s0-0.005 0.001-0.007c0.067-0.816 0.783-1.422 1.599-1.354 0.377-0.006 0.748 0.099 1.066 0.302 0.318-0.203 0.689-0.308 1.066-0.302zM16.274 26.938h0l0.013-0.008c0.647-0.394 1.311-0.798 1.311-1.029 0-0.145-0.204-0.301-0.533-0.301-0.24-0.014-0.473 0.081-0.633 0.26-0.108 0.135-0.271 0.213-0.443 0.213-0.167-0.002-0.324-0.082-0.423-0.216-0.161-0.177-0.394-0.272-0.633-0.257-0.329 0-0.533 0.156-0.533 0.301 0 0.23 0.665 0.635 1.311 1.029l0.289 0.176 0.276-0.168z"></path>
<path d="M27.784 0.879c0.515 1.325 0.831 2.719 0.937 4.136l-0-0c2.139 1.907 3.335 4.655 3.276 7.52 0 4.339-2.626 7.746-6.568 11.524-1.507 1.447-3.273 3.010-5.142 4.663-1.022 0.903-2.096 1.854-3.216 2.862-0.607 0.555-1.537 0.555-2.144 0-1.121-1.004-2.193-1.957-3.215-2.861-1.87-1.654-3.635-3.216-5.143-4.664-3.942-3.78-6.568-7.186-6.568-11.525 0-3.34 1.44-6.293 3.856-7.964 0.13-1.264 0.43-2.506 0.891-3.69 0.047-0.127 0.113-0.247 0.195-0.354 0.452-0.588 1.296-0.699 1.884-0.247 1.173 0.87 2.21 1.909 3.079 3.083 2.294 0.509 4.318 1.85 5.681 3.763 0.026 0.034 0.056 0.064 0.090 0.090 0.228 0.179 0.558 0.138 0.737-0.090 1.478-2.090 3.749-3.483 6.281-3.853 0.852-1.139 1.866-2.148 3.009-2.993 0.107-0.082 0.226-0.148 0.353-0.195 0.696-0.258 1.47 0.099 1.727 0.795zM26.325 1.145c-1.119 0.826-2.104 1.82-2.922 2.945v0c-2.012 2.694-3.368 6.17-4.045 10.325 0.344 0.113 0.682 0.242 1.013 0.389 0.856-5.478 2.796-8.793 4.307-10.626 0.241-0.302 0.629-0.446 1.008-0.373 0.466 0.078 0.823 0.457 0.872 0.927 0.323 2.604 0.107 6.901-2.675 12.617 0.264 0.288 0.511 0.591 0.741 0.907 2.88-5.735 3.266-10.178 3.053-12.934-0.082-1.385-0.38-2.748-0.883-4.041-0.012-0.048-0.036-0.091-0.070-0.127-0.108-0.113-0.287-0.117-0.4-0.010zM21.376 15.313c0.609 0.358 1.18 0.775 1.706 1.246v0c2.519-5.317 2.718-9.282 2.418-11.704-1.455 1.769-3.335 5.013-4.124 10.458zM14.726 7.76v-0.001c-0.979-1.358-2.325-2.409-3.879-3.030 1.71 2.852 2.844 6.011 3.337 9.3 1.375-0.241 2.784-0.205 4.144 0.107 0.496-3.409 1.682-6.681 3.487-9.615-1.84 0.531-3.444 1.674-4.546 3.241-0.095 0.13-0.209 0.244-0.339 0.339-0.702 0.515-1.689 0.363-2.204-0.339zM5.736 1.282c-0.454 1.167-0.74 2.394-0.849 3.641-0.276 2.742 0.012 7.168 2.811 12.91 0.239-0.3 0.495-0.588 0.765-0.861-2.615-5.537-2.806-9.707-2.492-12.247 0.047-0.399 0.316-0.737 0.693-0.873 0.069-0.026 0.14-0.043 0.213-0.051 0.371-0.057 0.743 0.089 0.976 0.383 1.483 1.804 3.398 5.064 4.268 10.411 0.333-0.131 0.673-0.245 1.018-0.342-0.68-4.042-2.008-7.441-3.968-10.095-0.829-1.151-1.83-2.167-2.968-3.013-0.076-0.063-0.176-0.087-0.272-0.067-0.093 0.034-0.165 0.109-0.196 0.203zM9.295 16.234c0.566-0.455 1.177-0.851 1.824-1.182v-0c-0.81-5.27-2.653-8.441-4.080-10.181-0.3 2.363-0.117 6.214 2.256 11.364zM1.066 12.534c0 3.393 1.744 6.14 4.649 9.168v0c0.28-1.021 0.711-1.993 1.28-2.886-2.754-5.44-3.345-9.808-3.248-12.799-1.759 1.706-2.73 4.066-2.681 6.517zM19.579 27.924c1.861-1.646 3.618-3.201 5.11-4.632l0-0c0.24-0.23 0.474-0.458 0.703-0.684-0.768-3.768-3.712-6.712-7.481-7.48-5.188-1.057-10.251 2.292-11.309 7.48 0.229 0.226 0.463 0.454 0.703 0.683 1.471 1.415 3.201 2.945 5.033 4.566l0.077 0.068c0.085 0.075 0.17 0.15 0.256 0.226l0.001 0.001c0.947 0.837 1.938 1.713 2.967 2.642 0.202 0.185 0.512 0.185 0.714 0 1.011-0.911 1.984-1.772 2.915-2.596l0-0c0.104-0.092 0.207-0.183 0.309-0.274zM26.28 21.703c2.906-3.029 4.65-5.776 4.65-9.168l-0-0.001c0.031-2.177-0.729-4.291-2.138-5.951 0.007 3.007-0.696 7.347-3.5 12.713 0.427 0.759 0.759 1.567 0.989 2.407z"></path>
</svg>
