<!-- Generated by IcoMoon.io -->
<svg version="1.1" xmlns="http://www.w3.org/2000/svg" width="32" height="32" viewBox="0 0 32 32">
<title>data</title>
<path d="M27.2 11.022c-0.296-4.8-4.267-8.652-9.007-8.652-2.904 0-5.689 1.422-7.467 3.733-0.059 0-0.059-0.059-0.119-0.059-0.119-0.059-0.237-0.119-0.296-0.119s-0.119-0.059-0.178-0.059-0.237-0.059-0.356-0.119c-0.059 0-0.119-0.059-0.178-0.059-0.119 0-0.237-0.059-0.356-0.059-0.059 0-0.119 0-0.178 0-0.178 0-0.356-0.059-0.533-0.059-2.667 0-4.8 2.133-4.8 4.8v0.178c-2.193 1.244-3.733 3.793-3.733 6.341 0 3.793 3.081 6.874 6.874 6.874h2.726c0.296 0 0.533-0.237 0.533-0.533s-0.237-0.533-0.533-0.533h-2.726c-3.2 0-5.807-2.607-5.807-5.807 0-2.193 1.422-4.504 3.437-5.452l0.296-0.178v-0.356c0-0.059 0-0.119 0-0.178v-0.237c0-0.059 0-0.119 0-0.119 0-2.074 1.659-3.733 3.733-3.733 0.178 0 0.356 0 0.474 0.059h0.119c0.119 0 0.296 0.059 0.415 0.119h0.059c0.178 0.059 0.296 0.119 0.474 0.178 0.059 0 0.059 0.059 0.119 0.059 0.119 0.059 0.237 0.119 0.356 0.237 1.007 0.652 1.719 1.837 1.719 3.141 0 0.296 0.237 0.533 0.533 0.533s0.533-0.237 0.533-0.533c0-1.481-0.652-2.785-1.719-3.674 1.541-2.015 4.030-3.259 6.578-3.259 4.148 0 7.585 3.259 7.941 7.407-0.533-0.059-1.363-0.059-2.193 0.059-0.296 0.059-0.474 0.296-0.474 0.593 0.059 0.237 0.296 0.474 0.533 0.474h0.059c1.185-0.178 2.43 0 2.489 0 2.489 0.474 4.326 2.785 4.326 5.333 0 2.963-2.37 5.333-5.333 5.333h-2.133c-0.296 0-0.533 0.237-0.533 0.533s0.237 0.533 0.533 0.533h2.133c3.556 0 6.4-2.904 6.4-6.4 0.059-2.963-1.956-5.63-4.741-6.341zM16.889 16.415c-0.059-0.059-0.119-0.059-0.178-0.119-0.119-0.059-0.296-0.059-0.415 0-0.059 0-0.119 0.059-0.178 0.119l-4.267 4.267c-0.237 0.237-0.237 0.533 0 0.77 0.119 0.119 0.237 0.178 0.356 0.178s0.296-0.059 0.356-0.178l3.378-3.378v11.022c0 0.296 0.237 0.533 0.533 0.533s0.533-0.237 0.533-0.533v-11.022l3.378 3.378c0.119 0.119 0.237 0.178 0.356 0.178s0.296-0.059 0.356-0.178c0.237-0.237 0.237-0.533 0-0.77z"></path>
</svg>