<!-- Generated by IcoMoon.io -->
<svg version="1.1" xmlns="http://www.w3.org/2000/svg" width="29" height="32" viewBox="0 0 29 32">
<title>decay-tooth</title>
<path d="M14.449 4.78c-1.003-0.002-1.985-0.284-2.836-0.814-0.109-0.068-0.187-0.177-0.216-0.302s-0.007-0.258 0.061-0.367c0.068-0.109 0.177-0.187 0.302-0.216s0.258-0.007 0.367 0.061c0.696 0.437 1.501 0.669 2.322 0.669s1.627-0.232 2.322-0.669c0.227-0.127 0.513-0.053 0.649 0.168s0.075 0.51-0.14 0.656c-0.849 0.532-1.83 0.814-2.831 0.814l0-0z"></path>
<path d="M26.449 10.021c-0.133 0-0.26-0.054-0.352-0.15s-0.14-0.226-0.133-0.359v-0.873c0.024-4.228-3.006-7.67-6.725-7.67-1.146 0.004-2.268 0.328-3.239 0.936-0.464 0.293-1.002 0.448-1.551 0.448s-1.087-0.155-1.551-0.448c-0.971-0.608-2.093-0.932-3.239-0.936-3.724 0-6.749 3.442-6.749 7.67 0 0.286 0 0.582 0.024 0.873 0.014 0.268-0.193 0.496-0.46 0.509s-0.496-0.193-0.509-0.46c0-0.31-0.024-0.616-0.024-0.921 0-4.761 3.462-8.64 7.719-8.64 1.326 0.003 2.624 0.377 3.748 1.081 0.312 0.198 0.673 0.304 1.042 0.304s0.731-0.105 1.042-0.304c1.123-0.704 2.422-1.079 3.748-1.081 4.257 0 7.719 3.879 7.719 8.64v0.921c-0.006 0.129-0.063 0.249-0.159 0.336s-0.221 0.131-0.35 0.125z"></path>
<path d="M20.636 32c-0.29-0.001-0.572-0.094-0.805-0.267-1.905-1.401-3.622-5.333-4.848-11.093-0.055-0.26-0.284-0.446-0.55-0.446s-0.495 0.186-0.55 0.446c-1.212 5.75-2.909 9.697-4.848 11.098v-0c-0.379 0.277-0.873 0.339-1.309 0.165-0.472-0.186-0.817-0.599-0.916-1.096-0.679-3.656-1.634-7.050-2.478-10.036-0.204-0.732-0.407-1.455-0.601-2.148-0.072-0.258 0.079-0.527 0.337-0.599s0.526 0.079 0.599 0.337c0.194 0.703 0.393 1.416 0.601 2.148 0.844 3.011 1.804 6.42 2.526 10.114 0.035 0.171 0.153 0.313 0.315 0.378 0.127 0.052 0.271 0.035 0.383-0.044 1.692-1.246 3.316-5.081 4.461-10.521 0.092-0.466 0.396-0.863 0.822-1.073s0.926-0.21 1.352 0 0.73 0.607 0.822 1.073c1.144 5.44 2.768 9.275 4.461 10.516 0.111 0.081 0.255 0.1 0.383 0.049 0.162-0.067 0.281-0.208 0.32-0.378 0.718-3.695 1.677-7.098 2.521-10.104 0.204-0.732 0.407-1.455 0.601-2.143 0.031-0.268 0.273-0.46 0.541-0.429s0.46 0.273 0.429 0.54c0.007 0.043 0.007 0.088 0 0.131-0.194 0.703-0.398 1.421-0.601 2.158-0.878 2.982-1.828 6.375-2.541 10.031-0.1 0.499-0.447 0.912-0.921 1.096-0.161 0.063-0.332 0.096-0.504 0.097v-0z"></path>
<path d="M4.869 19.127c-0.128-0-0.255-0.018-0.378-0.053l-2.211-0.611c-0.312-0.087-0.584-0.28-0.771-0.545s-0.276-0.586-0.252-0.91c0.148-1.745-0.229-3.494-1.081-5.023-0.174-0.316-0.221-0.686-0.131-1.035s0.31-0.65 0.616-0.842l3.035-1.939c0.336-0.214 0.746-0.276 1.13-0.17l1.454 0.407c0.285 0.080 0.537 0.247 0.721 0.479s0.29 0.515 0.302 0.811c0.010 0.239 0.212 0.425 0.451 0.417h0.238c0.264-0.007 0.525 0.060 0.753 0.193s0.414 0.329 0.536 0.563l0.184 0.344c0.155 0.3 0.197 0.646 0.12 0.975s-0.269 0.619-0.541 0.819l-0.897 0.64c-0.132 0.097-0.199 0.26-0.175 0.422l0.102 0.664v0c0.032 0.16 0.032 0.325 0 0.485l-0.378 1.939h-0c-0.070 0.406-0.314 0.76-0.669 0.97l-1.455 0.839c-0.217 0.112-0.459 0.166-0.703 0.16zM4.437 8.945c-0.084-0.002-0.167 0.022-0.238 0.068l-3.035 1.939c-0.195 0.125-0.258 0.382-0.141 0.582 0.933 1.692 1.35 3.621 1.198 5.547-0.012 0.206 0.121 0.392 0.32 0.446l2.211 0.616c0.115 0.027 0.236 0.012 0.339-0.043l1.455-0.844c0.109-0.064 0.184-0.172 0.208-0.296l0.378-1.939h0c0.007-0.050 0.007-0.1 0-0.15l-0.107-0.664c-0.040-0.257-0.008-0.519 0.092-0.759s0.265-0.447 0.476-0.599l0.897-0.65c0.179-0.127 0.238-0.366 0.141-0.562l-0.184-0.349c-0.073-0.153-0.233-0.245-0.402-0.233h-0.238c-0.367 0.008-0.724-0.126-0.995-0.374s-0.436-0.592-0.46-0.959c-0.010-0.187-0.139-0.348-0.32-0.397l-1.455-0.407c-0.047-0.002-0.095 0.003-0.141 0.014v0.015z"></path>
<path d="M24.030 19.127c-0.25-0.002-0.496-0.069-0.713-0.194l-1.455-0.839c-0.355-0.209-0.599-0.564-0.669-0.97l-0.378-1.939h-0c-0.031-0.16-0.031-0.325 0-0.485l0.112-0.64c0.025-0.162-0.043-0.324-0.175-0.422l-0.897-0.65c-0.272-0.2-0.464-0.491-0.541-0.819s-0.035-0.674 0.12-0.975l0.184-0.344v0c0.119-0.228 0.298-0.419 0.517-0.552s0.472-0.204 0.729-0.204h0.281c0.238 0.006 0.438-0.179 0.451-0.417 0.015-0.295 0.123-0.578 0.309-0.807s0.439-0.395 0.724-0.473l1.455-0.407c0.384-0.106 0.794-0.044 1.13 0.17l3.035 1.939c0.305 0.192 0.526 0.493 0.616 0.842s0.043 0.719-0.131 1.035c-0.86 1.534-1.24 3.29-1.091 5.042 0.022 0.323-0.067 0.644-0.253 0.909s-0.458 0.457-0.769 0.546l-2.211 0.611c-0.124 0.032-0.251 0.046-0.378 0.044h-0zM21.785 15.030l0.378 1.939c0.025 0.122 0.101 0.228 0.209 0.291l1.454 0.844c0.104 0.055 0.225 0.071 0.339 0.043l2.211-0.616c0.198-0.055 0.332-0.241 0.32-0.446-0.157-1.934 0.26-3.872 1.198-5.571 0.117-0.2 0.055-0.457-0.141-0.582l-3.035-1.939c-0.105-0.068-0.234-0.087-0.354-0.053l-1.454 0.407c-0.181 0.050-0.31 0.21-0.32 0.398-0.020 0.368-0.184 0.714-0.455 0.963s-0.631 0.382-0.999 0.37h-0.238c-0.167-0.003-0.322 0.087-0.402 0.233l-0.184 0.349c-0.097 0.193-0.042 0.428 0.131 0.558l0.897 0.65c0.211 0.152 0.375 0.359 0.475 0.599s0.132 0.502 0.092 0.759l-0.107 0.664c-0.011 0.046-0.016 0.093-0.014 0.141z"></path>
</svg>
