<!-- Generated by IcoMoon.io -->
<svg version="1.1" xmlns="http://www.w3.org/2000/svg" width="32" height="32" viewBox="0 0 32 32">
<title>deck</title>
<path d="M30.343 20.971l-0.229-0.229 0.343-0.343c0.286-0.286 0.457-0.629 0.457-1.029s-0.171-0.8-0.457-1.029l-3.429-3.429c-0.571-0.571-1.543-0.571-2.114 0l-0.343 0.286-7.771-7.714 0.343-0.343c0.571-0.571 0.571-1.543 0-2.114l-3.429-3.429c-0.571-0.571-1.543-0.571-2.114 0l-0.343 0.343-0.229-0.229c-2.229-2.286-5.829-2.286-8.057-0.057l-1.314 1.314c-2.229 2.229-2.229 5.829 0 8.057l0.229 0.229-0.343 0.343c-0.571 0.571-0.571 1.543 0 2.114l3.429 3.429c0.286 0.286 0.686 0.457 1.029 0.457 0.4 0 0.743-0.171 1.029-0.457l0.343-0.343 7.829 7.771-0.343 0.343c-0.286 0.286-0.457 0.686-0.457 1.029 0 0.4 0.171 0.8 0.457 1.029l3.429 3.429c0.286 0.286 0.686 0.457 1.029 0.457 0.4 0 0.8-0.171 1.029-0.457l0.343-0.343 0.229 0.229c1.086 1.086 2.571 1.657 4.057 1.657s2.914-0.571 4.057-1.657l1.314-1.314c2.229-2.114 2.229-5.771 0-8zM25.714 15.657c0.114-0.114 0.343-0.114 0.514 0l3.429 3.429c0.057 0.057 0.114 0.171 0.114 0.229 0 0.114-0.057 0.171-0.114 0.229l-0.343 0.343-3.086-3.086-0.857-0.8zM12.457 2.343c0.114-0.114 0.343-0.114 0.514 0l3.429 3.429c0.114 0.114 0.114 0.343 0 0.514l-0.4 0.343-3.943-3.943zM6.286 16.4c-0.114 0.114-0.343 0.114-0.514 0l-3.429-3.429c-0.114-0.114-0.114-0.343 0-0.514l0.343-0.343 3.943 3.943zM19.6 29.657c-0.114 0.114-0.343 0.114-0.514 0l-3.429-3.429c-0.057-0.057-0.114-0.171-0.114-0.229 0-0.114 0.057-0.171 0.114-0.229l0.343-0.343 3.943 3.943zM29.543 28.229l-1.314 1.314c-1.771 1.771-4.686 1.771-6.457 0l-19.314-19.314c-1.771-1.771-1.771-4.686 0-6.457l1.314-1.314c0.857-0.857 2.057-1.314 3.2-1.314s2.343 0.457 3.2 1.314l4.514 4.514 10.4 10.343 4.514 4.514c1.714 1.771 1.714 4.629-0.057 6.4zM6.057 7.257c-0.343 0-0.686 0.286-0.686 0.686 0 0.343 0.286 0.686 0.686 0.686 0.343 0 0.686-0.286 0.686-0.686-0.057-0.4-0.343-0.686-0.686-0.686zM7.943 5.371c-0.343 0-0.686 0.286-0.686 0.686 0 0.343 0.286 0.686 0.686 0.686 0.343 0 0.686-0.286 0.686-0.686s-0.343-0.686-0.686-0.686zM7.943 9.143c-0.343 0-0.686 0.286-0.686 0.686 0 0.343 0.286 0.686 0.686 0.686 0.343 0 0.686-0.286 0.686-0.686 0-0.343-0.343-0.686-0.686-0.686zM9.829 7.257c-0.343 0-0.686 0.286-0.686 0.686 0 0.343 0.286 0.686 0.686 0.686 0.343 0 0.686-0.286 0.686-0.686s-0.286-0.686-0.686-0.686zM22.686 23.886c-0.343 0-0.686 0.286-0.686 0.686 0 0.343 0.286 0.686 0.686 0.686 0.343 0 0.686-0.286 0.686-0.686-0.057-0.4-0.343-0.686-0.686-0.686zM24.571 22c-0.343 0-0.686 0.286-0.686 0.686 0 0.343 0.286 0.686 0.686 0.686s0.686-0.286 0.686-0.686-0.343-0.686-0.686-0.686zM24.571 25.771c-0.343 0-0.686 0.286-0.686 0.686 0 0.343 0.286 0.686 0.686 0.686s0.686-0.286 0.686-0.686-0.343-0.686-0.686-0.686zM26.457 23.886c-0.343 0-0.686 0.286-0.686 0.686 0 0.343 0.286 0.686 0.686 0.686 0.343 0 0.686-0.286 0.686-0.686s-0.286-0.686-0.686-0.686z"></path>
</svg>
