<!-- Generated by IcoMoon.io -->
<svg version="1.1" xmlns="http://www.w3.org/2000/svg" width="32" height="32" viewBox="0 0 32 32">
<title>dental-floss1</title>
<path d="M31.871 5.79c-0.259-0.967-0.882-1.775-1.753-2.275l-5.638-3.235c-0.967-0.555-2.181-0.265-2.764 0.66-0.296 0.47-0.385 1.025-0.251 1.562 0.082 0.329 0.241 0.625 0.462 0.868l-2.611 4.493c-0.82-0.172-1.681 0.162-2.144 0.897-0.296 0.47-0.385 1.025-0.251 1.562 0.134 0.539 0.474 0.989 0.958 1.266l4.739 2.718c0.071 0.040 0.121 0.104 0.142 0.18 0.013 0.049 0.019 0.125-0.027 0.205l-2.269 3.905c-0.103 0.177-0.288 0.293-0.494 0.309-0.204 0.016-0.388 0.132-0.491 0.309l-5.227 8.996c-0.339 0.583-0.43 1.263-0.255 1.914 0.175 0.653 0.596 1.199 1.184 1.537 0.398 0.228 0.833 0.337 1.262 0.337 0.877 0 1.731-0.452 2.201-1.26l12.852-22.117c0.502-0.863 0.636-1.869 0.378-2.832zM22.961 4.079l4.452 2.554-2.509 4.318-4.453-2.554 2.509-4.318zM30.413 7.994l-12.852 22.117c-0.355 0.611-1.145 0.82-1.76 0.467-0.298-0.171-0.511-0.447-0.599-0.776-0.088-0.327-0.042-0.669 0.129-0.963l5.083-8.748c0.472-0.129 0.88-0.437 1.129-0.867l2.269-3.905c0.205-0.353 0.26-0.764 0.154-1.158-0.108-0.4-0.366-0.734-0.729-0.941l-4.736-2.717c-0.185-0.106-0.316-0.278-0.367-0.484-0.051-0.204-0.017-0.415 0.096-0.594 0.22-0.35 0.707-0.459 1.084-0.242l5.003 2.87c0.575 0.33 1.314 0.133 1.647-0.44l2.555-4.397c0.162-0.278 0.205-0.603 0.122-0.914s-0.284-0.572-0.564-0.733l-5.032-2.887c-0.185-0.106-0.316-0.278-0.367-0.484-0.051-0.204-0.017-0.415 0.096-0.594 0.22-0.35 0.707-0.459 1.085-0.242l5.638 3.234c0.581 0.333 0.995 0.871 1.168 1.514 0.171 0.639 0.082 1.307-0.251 1.881z"></path>
<path d="M9.499 4.628c0.473 0 0.858 0.385 0.858 0.858 0 0.345 0.28 0.625 0.625 0.625s0.625-0.28 0.625-0.625c0-0.473 0.385-0.858 0.858-0.858 0.345 0 0.625-0.28 0.625-0.625s-0.28-0.625-0.625-0.625c-0.473 0-0.858-0.385-0.858-0.858 0-0.345-0.28-0.625-0.625-0.625s-0.625 0.28-0.625 0.625c0 0.473-0.385 0.858-0.858 0.858-0.345 0-0.625 0.28-0.625 0.625s0.28 0.625 0.625 0.625z"></path>
<path d="M2.658 7.454c0.396 0 0.718 0.322 0.718 0.718 0 0.345 0.28 0.625 0.625 0.625s0.625-0.28 0.625-0.625c0-0.396 0.322-0.718 0.718-0.718 0.345 0 0.625-0.28 0.625-0.625s-0.28-0.625-0.625-0.625c-0.396 0-0.718-0.322-0.718-0.718 0-0.345-0.28-0.625-0.625-0.625s-0.625 0.28-0.625 0.625c0 0.396-0.322 0.718-0.718 0.718-0.345 0-0.625 0.28-0.625 0.625s0.28 0.625 0.625 0.625z"></path>
<path d="M15.514 18.781c0.176-0.256 0.334-0.526 0.47-0.803 0.426-0.868 0.642-1.801 0.642-2.771 0-2.678-2.224-4.856-4.959-4.856-1.255 0-2.444 0.459-3.353 1.278-0.909-0.819-2.099-1.278-3.353-1.278-2.734 0-4.959 2.179-4.959 4.856 0 0.97 0.216 1.902 0.642 2.771 0.136 0.277 0.294 0.547 0.47 0.803 0.337 0.49 0.579 1.009 0.721 1.542l1.032 3.876c0.287 1.076 1.278 1.828 2.41 1.828 1.086 0 2.040-0.683 2.372-1.699l0.664-2.030 0.664 2.030c0.332 1.016 1.286 1.699 2.372 1.699 1.133 0 2.124-0.752 2.41-1.828l1.032-3.876c0.142-0.533 0.385-1.052 0.721-1.542zM13.584 20.002l-1.032 3.876c-0.141 0.53-0.636 0.9-1.203 0.9-0.544 0-1.020-0.337-1.184-0.837l-0.868-2.654c-0.139-0.424-0.534-0.709-0.984-0.709s-0.845 0.285-0.984 0.709l-0.869 2.654c-0.164 0.501-0.64 0.837-1.184 0.837-0.567 0-1.062-0.37-1.203-0.9l-1.032-3.876c-0.179-0.671-0.481-1.32-0.899-1.928-0.141-0.206-0.268-0.423-0.377-0.645-0.341-0.696-0.514-1.443-0.514-2.221 0-1.989 1.664-3.606 3.709-3.606 0.917 0 1.787 0.326 2.461 0.908-0.322 0.223-0.704 0.345-1.103 0.345-0.345 0-0.625 0.28-0.625 0.625s0.28 0.625 0.625 0.625c0.957 0 1.859-0.429 2.472-1.173 0.708-0.844 1.758-1.33 2.876-1.33 2.045 0 3.709 1.618 3.709 3.606 0 0.778-0.173 1.525-0.514 2.221-0.109 0.222-0.236 0.439-0.377 0.645-0.418 0.608-0.72 1.257-0.899 1.928z"></path>
</svg>
