<!-- Generated by IcoMoon.io -->
<svg version="1.1" xmlns="http://www.w3.org/2000/svg" width="32" height="32" viewBox="0 0 32 32">
<title>dental-floss</title>
<path d="M22.16 19.534l-0.159-0.080c-0.468-0.234-0.992-0.358-1.516-0.358-0.671 0-1.322 0.197-1.88 0.569-0.327 0.218-0.749 0.218-1.076 0-0.559-0.372-1.209-0.569-1.88-0.569-0.524 0-1.048 0.124-1.516 0.358l-0.159 0.080c-0.977 0.488-1.584 1.47-1.584 2.563 0 0.875 0.392 1.691 1.075 2.237l0.339 0.271c0.742 0.593 1.167 1.478 1.167 2.428 0 0.747 0.608 1.354 1.354 1.354 0.665 0 1.227-0.476 1.336-1.132l0.314-1.887c0.008-0.045 0.046-0.078 0.092-0.078s0.084 0.033 0.092 0.078l0.315 1.887c0.109 0.656 0.671 1.132 1.336 1.132 0.747 0 1.354-0.608 1.354-1.354 0-0.95 0.425-1.835 1.167-2.428l0.338-0.271c0.683-0.547 1.075-1.362 1.075-2.237 0-1.092-0.607-2.074-1.584-2.563zM22.023 23.528l-0.339 0.271c-0.988 0.79-1.554 1.969-1.554 3.234 0 0.178-0.145 0.322-0.322 0.322-0.158 0-0.292-0.113-0.318-0.269l-0.314-1.887c-0.091-0.545-0.558-0.94-1.11-0.94s-1.019 0.396-1.11 0.94l-0.314 1.887c-0.026 0.156-0.16 0.269-0.318 0.269-0.178 0-0.322-0.145-0.322-0.322 0-1.265-0.567-2.444-1.554-3.234l-0.339-0.271c-0.437-0.35-0.688-0.871-0.688-1.431 0-0.699 0.388-1.327 1.013-1.639l0.159-0.080c0.326-0.163 0.69-0.249 1.054-0.249 0.467 0 0.919 0.137 1.308 0.396 0.675 0.45 1.547 0.45 2.222 0 0.389-0.259 0.841-0.396 1.308-0.396 0.364 0 0.729 0.086 1.054 0.249l0.159 0.080c0.625 0.313 1.013 0.941 1.013 1.639-0 0.56-0.251 1.082-0.688 1.431z"></path>
<path d="M30.453 2.064v-1.032c0-0.569-0.463-1.032-1.032-1.032h-2.323c-2.704 0-4.903 2.2-4.903 4.903v8.516h-1.032v-8.516c0-2.704-2.2-4.903-4.903-4.903h-2.323c-0.569 0-1.032 0.463-1.032 1.032v1.032c0 0.569 0.463 1.032 1.032 1.032v4.129c-0.569 0-1.032 0.463-1.032 1.032v1.032c0 0.569 0.463 1.032 1.032 1.032h2.581c0.854 0 1.548 0.695 1.548 1.548v1.548h-4.857l-2.623-9.326c-0.355-1.261-1.179-2.308-2.321-2.949s-2.466-0.798-3.726-0.444l-2.236 0.629c-0.265 0.075-0.486 0.248-0.621 0.489s-0.168 0.519-0.093 0.784l0.28 0.994c0.154 0.548 0.725 0.868 1.273 0.714l1.118 3.975c-0.265 0.075-0.486 0.248-0.621 0.489s-0.168 0.519-0.093 0.784l0.28 0.994c0.075 0.265 0.248 0.486 0.489 0.621s0.519 0.168 0.784 0.093l2.484-0.699c0.822-0.231 1.679 0.249 1.91 1.071l0.51 1.814c-0.7 0.149-1.226 0.771-1.226 1.514v15.484c0 0.854 0.695 1.548 1.548 1.548h15.484c0.854 0 1.548-0.695 1.548-1.548v-15.484c0-0.854-0.695-1.548-1.548-1.548h-0.516v-1.548c0-0.854 0.695-1.548 1.548-1.548h2.581c0.569 0 1.032-0.463 1.032-1.032v-1.032c0-0.569-0.463-1.032-1.032-1.032v-4.129c0.569 0 1.032-0.463 1.032-1.032zM22.195 14.452v1.032h-1.032v-1.032h1.032zM14.969 3.097h1.032c1.138 0 2.065 0.926 2.065 2.064s-0.926 2.064-2.065 2.064h-1.032v-4.129zM16.517 9.29h-2.581v-1.032h2.064c1.708 0 3.097-1.389 3.097-3.097s-1.389-3.097-3.097-3.097h-2.064v-1.032h2.323c2.134 0 3.871 1.736 3.871 3.871v10.581h-1.032v-3.613c0-1.423-1.158-2.581-2.581-2.581zM18.066 14.452v1.032h-4.276l-0.29-1.032h4.566zM5.253 8.006l-1.118-3.975 0.994-0.28c1.096-0.308 2.238 0.333 2.546 1.428 0.149 0.531 0.083 1.088-0.187 1.569s-0.711 0.828-1.242 0.977l-0.994 0.279zM7.302 9.574l-2.484 0.699-0.279-0.994 1.987-0.559c0.796-0.224 1.458-0.745 1.862-1.466s0.504-1.557 0.28-2.354c-0.462-1.644-2.176-2.605-3.82-2.143l-1.987 0.559-0.28-0.994 2.236-0.629c2.055-0.578 4.196 0.624 4.774 2.678l3.125 11.111h-1.072l-1.16-4.124c-0.385-1.37-1.813-2.171-3.183-1.786zM10.283 14.454l0.29 1.030h-0.765v-0.516c0-0.271 0.21-0.493 0.475-0.514zM10.324 30.968c-0.285 0-0.516-0.232-0.516-0.516v-3.882c0.951 1.899 2.5 3.448 4.398 4.398h-3.882zM26.324 30.452c0 0.285-0.232 0.516-0.516 0.516h-7.226c-4.838 0-8.774-3.936-8.774-8.774v-5.677h7.742c4.838 0 8.774 3.936 8.774 8.774v5.161zM21.926 16.516h4.398v4.398c-0.951-1.899-2.5-3.448-4.398-4.398zM25.808 14.452c0.285 0 0.516 0.232 0.516 0.516v0.516h-1.032v-1.032h0.516zM29.421 9.29h-2.581c-1.423 0-2.581 1.158-2.581 2.581v3.613h-1.032v-10.581c0-2.134 1.737-3.871 3.871-3.871h2.323v1.032h-2.065c-1.708 0-3.097 1.389-3.097 3.097s1.389 3.097 3.097 3.097h2.065v1.032zM28.388 7.226h-1.032c-1.138 0-2.064-0.926-2.064-2.064s0.926-2.064 2.064-2.064h1.032v4.129z"></path>
</svg>
