<!-- Generated by IcoMoon.io -->
<svg version="1.1" xmlns="http://www.w3.org/2000/svg" width="32" height="32" viewBox="0 0 32 32">
<title>dental-care</title>
<path d="M15.375 6.918h-0.944c-0.345 0-0.625-0.28-0.625-0.625s0.28-0.625 0.625-0.625h0.944v-0.944c0-0.345 0.28-0.625 0.625-0.625s0.625 0.28 0.625 0.625v0.944h0.944c0.345 0 0.625 0.28 0.625 0.625s-0.28 0.625-0.625 0.625h-0.944v0.944c0 0.345-0.28 0.625-0.625 0.625s-0.625-0.28-0.625-0.625v-0.944z"></path>
<path d="M22.946 5.748c1.83 0.572 3.237 1.763 4.007 3.413 1.186 2.54 0.806 5.963-1.042 9.392-0.294 0.552-0.472 1.007-0.614 1.569-0.228 0.904-0.257 1.951-0.287 3.030-0.026 0.928-0.052 1.879-0.206 2.785-0.507 3.006-1.523 4.85-3.106 5.636-1.979 0.983-3.778 0.243-4.111-1.973-0.102-0.671-0.122-1.441-0.143-2.256-0.023-0.896-0.047-1.848-0.184-2.786-0.107-0.72-0.414-1.812-0.794-2.505-0.081-0.147-0.244-0.389-0.467-0.442-0.223 0.053-0.386 0.295-0.466 0.441-0.38 0.693-0.687 1.786-0.794 2.507-0.137 0.938-0.161 1.887-0.184 2.782-0.021 0.816-0.041 1.586-0.144 2.26-0.333 2.218-2.134 2.954-4.111 1.971-1.582-0.786-2.598-2.63-3.107-5.637-0.154-0.905-0.18-1.858-0.205-2.779-0.052-1.901-0.089-3.078-0.902-4.607-1.846-3.426-2.226-6.85-1.040-9.389 0.771-1.651 2.178-2.842 4.009-3.414-0.557-1.488-0.261-3.263 0.976-4.5 1.643-1.643 4.307-1.658 5.969-0.045 1.666-1.617 4.322-1.602 5.969 0.045 1.249 1.249 1.527 3.037 0.978 4.501zM15.162 2.131c-1.174-1.174-3.073-1.174-4.247 0-1.17 1.17-1.174 3.065-0.008 4.239l5.092 4.736 5.092-4.736c1.184-1.192 1.145-3.087-0.008-4.239-1.174-1.174-3.073-1.174-4.247 0l-0.396 0.396c-0.244 0.244-0.64 0.244-0.884 0l-0.396-0.396zM24.087 19.816c0.168-0.667 0.378-1.204 0.724-1.853 1.66-3.080 2.028-6.095 1.011-8.273-0.662-1.418-1.869-2.388-3.504-2.823-0.107 0.137-0.224 0.269-0.349 0.395l-0.001 0.001c-0.002 0.002-0.004 0.004-5.542 5.155-0.24 0.223-0.611 0.223-0.851 0l-5.527-5.14c-0.071-0.066-0.226-0.234-0.364-0.411-1.635 0.435-2.842 1.405-3.505 2.824-1.017 2.178-0.649 5.193 1.009 8.271 0.347 0.653 0.557 1.189 0.725 1.856 0.262 1.038 0.294 2.181 0.325 3.31 0.025 0.895 0.049 1.782 0.188 2.602 0.431 2.549 1.249 4.139 2.43 4.726 0.643 0.319 1.24 0.383 1.64 0.174 0.445-0.232 0.614-0.788 0.678-1.213 0.091-0.595 0.109-1.313 0.13-2.098 0.024-0.92 0.050-1.93 0.197-2.939 0.12-0.807 0.463-2.066 0.935-2.925 0.356-0.651 0.891-1.040 1.507-1.095 0.037-0.003 0.074-0.003 0.111 0 0.615 0.055 1.15 0.444 1.507 1.095 0.471 0.86 0.815 2.119 0.934 2.924 0.148 1.013 0.174 2.023 0.197 2.942 0.020 0.783 0.038 1.499 0.129 2.096 0.064 0.427 0.234 0.983 0.679 1.215 0.4 0.208 0.998 0.145 1.64-0.174 1.182-0.587 2-2.177 2.43-4.726 0.14-0.82 0.164-1.708 0.189-2.604 0.031-1.128 0.063-2.27 0.325-3.308z"></path>
</svg>
