<!-- Generated by IcoMoon.io -->
<svg version="1.1" xmlns="http://www.w3.org/2000/svg" width="32" height="32" viewBox="0 0 32 32">
<title>distortion</title>
<path d="M0 0v32h32v-32zM16.24 20.64c-1.2-0.64-2.72-1.040-4.24-1.36-0.24-1.28-0.72-2.48-1.2-3.6-0.48-0.96-0.88-2.16-1.12-3.36 2.4-0.16 4.72-0.72 6.56-1.6 1.68-0.88 3.76-1.36 6-1.52-0.080 2.4-0.64 4.64-1.52 6.48-0.88 1.68-1.36 3.76-1.6 5.92-1.040-0.16-2-0.48-2.88-0.96zM19.040 22.8c-0.16 2.88 0.32 5.76 1.28 8.16h-9.2c1.28-2.96 1.6-6.96 1.040-10.48 1.28 0.24 2.48 0.64 3.52 1.2 1.040 0.48 2.16 0.8 3.36 1.12zM1.12 11.12c2.080 0.88 4.64 1.28 7.2 1.28h0.32c0.24 1.36 0.72 2.64 1.28 3.76 0.48 0.88 0.8 1.84 1.040 2.88-3.36-0.4-6.96 0-9.76 1.12v-9.040zM10.64 1.12h10.16c0.96 2 1.44 4.56 1.44 7.12-2.4 0.16-4.64 0.72-6.48 1.6-1.76 0.88-4 1.44-6.32 1.52-0.56-3.52-0.16-7.44 1.2-10.24zM21.6 16.24c0.96-1.92 1.52-4.48 1.68-7.040 2.72-0.080 5.52 0.4 7.6 1.44v10.16c-2.96 1.44-7.12 1.76-10.8 1.12 0.24-2.080 0.72-4.080 1.52-5.68zM30.88 9.44c-2.16-0.96-4.88-1.36-7.6-1.28 0-2.48-0.48-5.040-1.28-7.040h8.88zM9.44 1.12c-1.2 2.96-1.6 6.8-1.12 10.32-2.64 0-5.2-0.48-7.28-1.44v-8.88zM1.12 21.52c2.8-1.28 6.56-1.68 10-1.2 0.64 3.6 0.24 7.68-1.12 10.64h-8.88zM21.52 30.88c-1.040-2.24-1.52-5.12-1.44-7.92 1.2 0.24 2.4 0.32 3.68 0.32 2.56 0 5.12-0.4 7.2-1.28v8.88z"></path>
</svg>
