<!-- Generated by IcoMoon.io -->
<svg version="1.1" xmlns="http://www.w3.org/2000/svg" width="32" height="32" viewBox="0 0 32 32">
<title>drone</title>
<path d="M24.5 17.050c-1.2 0-2.35 0.3-3.35 0.8 0.2-0.55 0.3-1.2 0.3-1.85s-0.1-1.25-0.3-1.85c1 0.5 2.15 0.8 3.35 0.8 4.15 0 7.5-3.35 7.5-7.5s-3.35-7.5-7.5-7.5c-4.15 0-7.5 3.35-7.5 7.5 0 1.2 0.3 2.35 0.8 3.35-0.55-0.15-1.15-0.3-1.8-0.3s-1.25 0.1-1.85 0.3c0.5-1 0.8-2.15 0.8-3.35 0-4.15-3.35-7.5-7.5-7.5-4.1 0.050-7.45 3.4-7.45 7.55s3.35 7.5 7.5 7.5c1.2 0 2.35-0.3 3.35-0.8-0.2 0.55-0.35 1.15-0.35 1.8s0.1 1.25 0.3 1.85c-1-0.5-2.15-0.8-3.35-0.8-4.15 0-7.5 3.35-7.5 7.5s3.35 7.5 7.5 7.5c4.15 0 7.5-3.35 7.5-7.5 0-1.2-0.3-2.35-0.8-3.35 0.55 0.2 1.2 0.3 1.85 0.3s1.25-0.1 1.85-0.3c-0.5 1-0.8 2.15-0.8 3.35 0 4.15 3.35 7.5 7.5 7.5s7.5-3.35 7.5-7.5c-0.050-4.15-3.4-7.5-7.55-7.5zM24.5 0.95c3.6 0 6.55 2.95 6.55 6.55s-2.95 6.55-6.55 6.55c-1.65 0-3.15-0.6-4.3-1.6l3.65-3.65c0.2 0.1 0.4 0.15 0.65 0.15s0.45-0.050 0.65-0.15l2.55 2.55c0.1 0.1 0.2 0.15 0.35 0.15 0.1 0 0.25-0.050 0.35-0.15 0.2-0.2 0.2-0.5 0-0.65l-2.55-2.55c0.1-0.2 0.15-0.4 0.15-0.65 0-0.4-0.15-0.75-0.45-1.050-0.25-0.3-0.65-0.45-1.050-0.45-0.25 0-0.45 0.050-0.65 0.15l-2.55-2.55c-0.2-0.2-0.5-0.2-0.65 0-0.2 0.2-0.2 0.5 0 0.65l2.55 2.55c-0.1 0.2-0.15 0.4-0.15 0.65s0.050 0.45 0.15 0.65l-3.65 3.65c-1-1.15-1.6-2.65-1.6-4.3 0-3.55 2.95-6.5 6.55-6.5zM24 7.5c0-0.15 0.050-0.3 0.15-0.4s0.25-0.15 0.4-0.15c0.15 0 0.3 0.050 0.4 0.15s0.15 0.25 0.15 0.4c0 0.15-0.050 0.3-0.15 0.4-0.15 0.050-0.3 0.1-0.45 0.1s-0.3-0.050-0.4-0.15c-0.050-0.1-0.1-0.2-0.1-0.35zM7.5 14.050c-3.6 0-6.55-2.95-6.55-6.55s2.95-6.55 6.55-6.55c3.6 0 6.55 2.95 6.55 6.55 0 1.65-0.6 3.15-1.6 4.3l-3.65-3.65c0.1-0.2 0.15-0.4 0.15-0.65s-0.050-0.45-0.15-0.65l2.55-2.55c0.2-0.2 0.2-0.5 0-0.65-0.2-0.2-0.5-0.2-0.65 0l-2.55 2.55c-0.2-0.15-0.45-0.2-0.65-0.2-0.4 0-0.75 0.15-1.050 0.45-0.3 0.25-0.45 0.65-0.45 1.050 0 0.25 0.050 0.45 0.15 0.65l-2.55 2.55c-0.2 0.2-0.2 0.5 0 0.65 0.1 0.1 0.2 0.15 0.35 0.15s0.25-0.050 0.35-0.15l2.55-2.55c0.2 0.1 0.4 0.15 0.65 0.15s0.45-0.050 0.65-0.15l3.65 3.65c-1.2 0.95-2.7 1.6-4.3 1.6zM8 7.5c0 0.15-0.050 0.3-0.15 0.4-0.1 0.050-0.2 0.1-0.35 0.1s-0.3-0.050-0.4-0.15c-0.1-0.1-0.15-0.25-0.15-0.4s0.050-0.3 0.15-0.4c0.1-0.1 0.25-0.15 0.4-0.15s0.3 0.050 0.4 0.15c0.050 0.15 0.1 0.3 0.1 0.45zM7.5 31.050c-3.6 0-6.55-2.9-6.55-6.55 0-3.6 2.95-6.55 6.55-6.55 1.65 0 3.15 0.6 4.3 1.6l-3.65 3.65c-0.2-0.1-0.4-0.15-0.65-0.15s-0.45 0.050-0.65 0.15l-2.55-2.55c-0.2-0.2-0.5-0.2-0.65 0-0.2 0.2-0.2 0.5 0 0.65l2.55 2.55c-0.15 0.2-0.2 0.45-0.2 0.65 0 0.4 0.15 0.75 0.45 1.050s0.65 0.45 1.050 0.45c0.25 0 0.45-0.050 0.65-0.15l2.55 2.55c0.1 0.1 0.2 0.15 0.35 0.15 0.1 0 0.25-0.050 0.35-0.15 0.2-0.2 0.2-0.5 0-0.65l-2.55-2.55c0.1-0.2 0.15-0.4 0.15-0.65s-0.050-0.45-0.15-0.65l3.65-3.65c1 1.15 1.6 2.65 1.6 4.3-0.050 3.6-3 6.5-6.6 6.5zM8 24.5c0 0.15-0.050 0.3-0.15 0.4s-0.25 0.15-0.4 0.15c-0.15 0-0.3-0.050-0.4-0.15s-0.15-0.25-0.15-0.4c0-0.15 0.050-0.3 0.15-0.4s0.25-0.15 0.4-0.15c0.15 0 0.3 0.050 0.4 0.15 0.1 0.15 0.15 0.25 0.15 0.4zM16 20.55c-2.5 0-4.55-2.050-4.55-4.55s2.050-4.55 4.55-4.55c2.5 0 4.55 2.050 4.55 4.55s-2.050 4.55-4.55 4.55zM24.5 31.050c-3.6 0-6.55-2.95-6.55-6.55 0-1.65 0.6-3.15 1.6-4.3l3.65 3.65c-0.1 0.2-0.15 0.4-0.15 0.65s0.050 0.45 0.15 0.65l-2.55 2.55c-0.2 0.2-0.2 0.5 0 0.65 0.1 0.1 0.2 0.15 0.35 0.15s0.25-0.050 0.35-0.15l2.55-2.55c0.2 0.1 0.4 0.15 0.65 0.15 0.4 0 0.75-0.15 1.050-0.45s0.45-0.65 0.45-1.050c0-0.25-0.050-0.45-0.15-0.65l2.55-2.55c0.2-0.2 0.2-0.5 0-0.65-0.2-0.2-0.5-0.2-0.65 0l-2.55 2.55c-0.2-0.1-0.4-0.15-0.65-0.15s-0.45 0.050-0.65 0.15l-3.65-3.65c1.15-1 2.65-1.6 4.3-1.6 3.6 0 6.55 2.95 6.55 6.55-0.1 3.7-3 6.6-6.65 6.6zM24 24.5c0-0.15 0.050-0.3 0.15-0.4s0.25-0.15 0.4-0.15c0.15 0 0.3 0.050 0.4 0.15s0.15 0.25 0.15 0.4c0 0.15-0.050 0.3-0.15 0.4s-0.25 0.15-0.4 0.15c-0.15 0-0.3-0.050-0.4-0.15s-0.15-0.25-0.15-0.4zM18.9 14.1c-0.15-0.2-0.45-0.25-0.65-0.15-0.2 0.15-0.25 0.45-0.15 0.65 0.3 0.4 0.4 0.9 0.4 1.4 0 1.4-1.15 2.55-2.55 2.55s-2.55-1.15-2.55-2.55c0-1.4 1.15-2.55 2.55-2.55 0.3 0 0.55 0.050 0.85 0.15 0.25 0.1 0.5-0.050 0.6-0.3s-0.050-0.5-0.3-0.6c-0.3-0.1-0.7-0.2-1.1-0.2-1.9 0-3.5 1.55-3.5 3.5 0 1.9 1.55 3.5 3.5 3.5 1.9 0 3.5-1.55 3.5-3.5 0-0.7-0.2-1.35-0.6-1.9z"></path>
</svg>
