<!-- Generated by IcoMoon.io -->
<svg version="1.1" xmlns="http://www.w3.org/2000/svg" width="28" height="28" viewBox="0 0 28 28">
<title>eco-friendly</title>
<path d="M13.747 17.717c0.156 0.090 0.349 0.090 0.506 0 2.859-1.653 4.785-4.745 4.785-8.286s-1.926-6.633-4.785-8.286c-0.156-0.090-0.349-0.090-0.506 0-2.859 1.653-4.785 4.745-4.785 8.286s1.926 6.633 4.785 8.286zM14 16.692c-2.42-1.513-4.028-4.199-4.028-7.261s1.608-5.748 4.028-7.261c2.42 1.513 4.028 4.199 4.028 7.261s-1.608 5.748-4.028 7.261z"></path>
<path d="M14 17.369c0.279 0 0.505-0.226 0.505-0.505v-7.433c0-0.279-0.226-0.505-0.505-0.505s-0.505 0.226-0.505 0.505v7.433c0 0.279 0.226 0.505 0.505 0.505z"></path>
<path d="M14.198 24.591c2.634 0.703 5.498 0.325 7.888-1.137 0.238-0.145 0.313-0.456 0.167-0.694s-0.456-0.312-0.694-0.167c-2.063 1.262-4.521 1.627-6.814 1.094-0.689-2.96 0.121-6.195 2.427-8.501s5.543-3.115 8.504-2.426c0.533 2.292 0.168 4.75-1.094 6.812-0.146 0.238-0.071 0.548 0.167 0.694s0.549 0.071 0.694-0.167c1.462-2.389 1.841-5.251 1.137-7.885-0.047-0.174-0.183-0.311-0.357-0.357-3.371-0.9-7.119-0.029-9.765 2.616s-3.518 6.391-2.617 9.76c0.047 0.174 0.183 0.311 0.357 0.357z"></path>
<path d="M14.283 24.149c0.197 0.197 0.517 0.197 0.714 0l5.57-5.568c0.197-0.197 0.197-0.516 0-0.714s-0.517-0.197-0.714 0l-5.57 5.568c-0.197 0.197-0.197 0.516 0 0.714z"></path>
<path d="M13.256 23.688c-2.961 0.688-6.198-0.121-8.504-2.426s-3.116-5.541-2.427-8.501c2.961-0.688 6.198 0.121 8.504 2.426s3.116 5.541 2.427 8.501zM4.037 21.975c2.646 2.645 6.394 3.516 9.765 2.616 0.175-0.047 0.311-0.183 0.358-0.357 0.9-3.369 0.029-7.116-2.618-9.76s-6.394-3.516-9.765-2.616c-0.175 0.047-0.311 0.183-0.357 0.357-0.9 3.369-0.029 7.116 2.617 9.76z"></path>
<path d="M13.717 24.149c0.197-0.197 0.197-0.517 0-0.714l-5.57-5.568c-0.197-0.197-0.517-0.197-0.714 0s-0.197 0.516 0 0.714l5.57 5.568c0.197 0.197 0.517 0.197 0.714 0z"></path>
<path d="M14 26.923c0.279 0 0.505-0.226 0.505-0.505v-9.138c0-0.279-0.226-0.505-0.505-0.505s-0.505 0.226-0.505 0.505v9.138c0 0.279 0.226 0.505 0.505 0.505z"></path>
</svg>
