<!-- Generated by IcoMoon.io -->
<svg version="1.1" xmlns="http://www.w3.org/2000/svg" width="32" height="32" viewBox="0 0 32 32">
<title>enjoy</title>
<path d="M13.95 9.050c0 0.3 0.25 0.5 0.5 0.5 0.3 0 0.5-0.25 0.5-0.5 0-0.5 0.1-0.75 0.3-1.050 0.2-0.35 0.4-0.75 0.4-1.55 0-0.75-0.2-1.15-0.4-1.55-0.15-0.3-0.25-0.55-0.25-1.050s0.1-0.75 0.3-1.050c0.2-0.35 0.4-0.75 0.4-1.55 0-0.3-0.25-0.5-0.5-0.5-0.3 0-0.5 0.25-0.5 0.5 0 0.5-0.1 0.75-0.3 1.050-0.2 0.35-0.4 0.75-0.4 1.55 0 0.75 0.2 1.15 0.4 1.55 0.15 0.3 0.3 0.55 0.3 1.050s-0.1 0.75-0.3 1.050c-0.25 0.35-0.45 0.75-0.45 1.55zM18.050 9.050c0 0.3 0.25 0.5 0.5 0.5 0.3 0 0.5-0.25 0.5-0.5 0-0.5 0.1-0.75 0.3-1.050 0.2-0.35 0.4-0.75 0.4-1.55 0-0.75-0.2-1.15-0.4-1.55-0.15-0.3-0.3-0.55-0.3-1.050s0.1-0.75 0.3-1.050c0.2-0.35 0.4-0.75 0.4-1.55 0-0.3-0.25-0.5-0.5-0.5-0.3 0-0.5 0.25-0.5 0.5 0 0.5-0.1 0.75-0.3 1.050-0.2 0.35-0.4 0.75-0.4 1.55 0 0.75 0.2 1.15 0.4 1.55 0.15 0.3 0.3 0.55 0.3 1.050s-0.1 0.75-0.3 1.050c-0.2 0.35-0.4 0.75-0.4 1.55zM31.5 27.85h-29.3c-0.3 0-0.5 0.25-0.5 0.5s0.25 0.5 0.5 0.5h0.3l0.3 1c0.2 0.8 1 1.4 1.8 1.4h24.5c0.8 0 1.6-0.6 1.8-1.35l0.3-1h0.3c0.3 0 0.5-0.25 0.5-0.5s-0.25-0.55-0.5-0.55zM29.9 29.65c-0.1 0.3-0.5 0.6-0.8 0.6h-24.5c-0.35 0-0.7-0.3-0.8-0.6l-0.2-0.75h26.55zM6.35 18.7h0.65c0.15 0 0.3-0.050 0.4-0.2 0.1-0.1 0.15-0.25 0.1-0.4-0.1-0.55-0.15-1.15-0.15-1.75v-3.3c0-0.3-0.25-0.5-0.5-0.5h-4c-0.2 0-0.4 0.15-0.45 0.3-0.2 0.5-0.3 1-0.3 1.55-0.050 2.4 1.85 4.3 4.25 4.3zM3.2 13.6h3.1v2.8c0 0.45 0.050 0.9 0.1 1.35h-0.050c-1.8 0-3.25-1.45-3.25-3.25-0.050-0.35 0-0.65 0.1-0.9zM6.35 20.75h0.9c1.7 3.7 5.45 6.1 9.6 6.1 5.8 0 10.55-4.7 10.55-10.5v-5.3c0-0.3-0.25-0.5-0.5-0.5h-25.25c-0.15 0-0.3 0.1-0.4 0.2-0.85 1.1-1.25 2.35-1.25 3.7 0 3.5 2.85 6.3 6.35 6.3zM1.9 11.55h21.75v2.2c0 0.3 0.25 0.5 0.5 0.5 0.3 0 0.5-0.25 0.5-0.5v-2.2h1.7v4.8c0 5.2-4.3 9.45-9.55 9.45-3.85 0-7.3-2.3-8.8-5.8 0-0.15-0.2-0.25-0.4-0.25h-1.25c-2.95 0-5.35-2.4-5.35-5.3 0-1.050 0.3-2.050 0.9-2.9zM16.85 24.15c4.3 0 7.85-3.5 7.85-7.75v-0.6c0-0.3-0.25-0.5-0.5-0.5-0.3 0-0.5 0.25-0.5 0.5v0.6c0 3.75-3.050 6.75-6.8 6.75-0.3 0-0.5 0.25-0.5 0.5-0.050 0.3 0.15 0.5 0.45 0.5z"></path>
</svg>
