<svg xmlns="http://www.w3.org/2000/svg" width="32" height="32"><path d="M10.4 2.062c-1.415.139-2.258.294-3.117.576-2.83.927-4.467 2.954-5.04 6.242C2.012 10.209 2 10.56 2 16s.012 5.791.243 7.12c.395 2.264 1.281 3.915 2.69 5.013 1.054.821 2.315 1.339 3.947 1.624 1.329.231 1.68.243 7.12.243s5.791-.012 7.12-.243c4.032-.703 6.128-2.943 6.724-7.187.161-1.149.252-4.9.131-5.423-.074-.32-.261-.454-.633-.454-.324 0-.491.078-.608.283-.05.087-.076.734-.1 2.491-.028 2.021-.049 2.476-.143 3.068-.42 2.667-1.395 4.239-3.184 5.134-1.133.567-2.438.861-4.299.969-1.205.07-8.811.07-10.016 0-4.833-.28-6.866-1.976-7.509-6.265-.088-.585-.096-1.125-.096-6.373 0-6.216-.002-6.176.303-7.493.216-.938.64-1.941 1.085-2.567.741-1.043 1.964-1.803 3.557-2.21 1.088-.278 1.681-.329 4.211-.364 2.309-.032 2.387-.036 2.533-.144.313-.233.347-.767.067-1.048l-.148-.147-2.204.008a95.616 95.616 0 0 0-2.391.027m12.057.112c-.28.281-.246.815.067 1.048.147.109.208.112 2.664.127l2.514.015-5.531 5.532-5.531 5.532v.233c0 .204.029.262.233.466.204.204.262.233.466.233h.233l5.532-5.531 5.532-5.531.015 2.514c.015 2.453.018 2.517.127 2.664a.76.76 0 0 0 .333.222c.285.092.615-.002.778-.222.109-.148.111-.201.128-3.36.009-1.765 0-3.339-.019-3.498-.026-.218-.072-.327-.186-.44l-.15-.151h-7.057l-.148.147" fill-rule="evenodd"/></svg>