<!-- Generated by IcoMoon.io -->
<svg version="1.1" xmlns="http://www.w3.org/2000/svg" width="32" height="32" viewBox="0 0 32 32">
<title>faster</title>
<path fill="#fff" d="M17.818 2c-0.193 0-0.378 0.077-0.514 0.213s-0.213 0.321-0.213 0.514v1.455c0 0.26 0.139 0.499 0.364 0.629s0.502 0.13 0.727 0c0.225-0.13 0.364-0.369 0.364-0.629v-0.705c3.117 0.182 6.059 1.503 8.267 3.711s3.528 5.149 3.711 8.267h-0.705c-0.26 0-0.499 0.139-0.629 0.364s-0.13 0.502 0 0.727c0.13 0.225 0.37 0.363 0.629 0.364h0.705c-0.182 3.117-1.503 6.059-3.711 8.267s-5.15 3.529-8.267 3.711v-0.705c0-0.26-0.139-0.5-0.364-0.63s-0.502-0.13-0.727 0c-0.225 0.13-0.364 0.37-0.364 0.63v1.455c0 0.193 0.077 0.378 0.213 0.514s0.321 0.213 0.514 0.213c7.82 0 14.182-6.362 14.182-14.182s-6.362-14.182-14.182-14.182v-0z"></path>
<path fill="#fff" d="M19.515 16.303c-0-0.141-0.020-0.281-0.057-0.416l5.704-5.093c0.175-0.157 0.195-0.424 0.045-0.605s-0.417-0.21-0.603-0.066l-6.081 4.717c-0.42-0.167-0.892-0.145-1.295 0.060s-0.699 0.574-0.811 1.012c-0.113 0.438-0.032 0.903 0.222 1.278s0.657 0.621 1.106 0.678c0.449 0.057 0.9-0.082 1.239-0.381s0.534-0.73 0.533-1.182l-0-0zM17.212 16.303c0.001-0.319 0.21-0.6 0.515-0.692 0.031-0.010 0.063-0.017 0.096-0.024 0.232-0.042 0.47 0.034 0.636 0.202s0.239 0.407 0.195 0.638c-0.007 0.038-0.017 0.075-0.030 0.111-0.115 0.336-0.456 0.54-0.806 0.482s-0.607-0.362-0.606-0.717z"></path>
<path fill="#fff" d="M13.475 15.576h-12.889c-0.323 0-0.586 0.326-0.586 0.727s0.262 0.727 0.586 0.727h12.889c0.323 0 0.586-0.326 0.586-0.727s-0.262-0.727-0.586-0.727z"></path>
<path fill="#fff" d="M13.52 22.848h-9.735c-0.299 0-0.541 0.326-0.541 0.727s0.242 0.727 0.541 0.727h9.735c0.299 0 0.541-0.326 0.541-0.727s-0.242-0.727-0.541-0.727z"></path>
<path fill="#fff" d="M13.52 8.303h-9.735c-0.299 0-0.541 0.326-0.541 0.727s0.242 0.727 0.541 0.727h9.735c0.299 0 0.541-0.326 0.541-0.727s-0.242-0.727-0.541-0.727z"></path>
</svg>
