<!-- Generated by IcoMoon.io -->
<svg version="1.1" xmlns="http://www.w3.org/2000/svg" width="32" height="32" viewBox="0 0 32 32">
<title>fast</title>
<path d="M16 0c-8.85 0-16 7.15-16 16s7.15 16 16 16 16-7.15 16-16-7.15-16-16-16zM16 30.95c-8.25 0-14.95-6.7-14.95-14.95s6.7-14.95 14.95-14.95 14.95 6.7 14.95 14.95c-0.050 8.25-6.7 14.9-14.95 14.95zM16 2.15c-7.65 0-13.85 6.2-13.85 13.85s6.2 13.85 13.85 13.85 13.85-6.2 13.85-13.85-6.2-13.85-13.85-13.85zM16 28.8c-7.050 0-12.8-5.75-12.8-12.8s5.75-12.8 12.8-12.8 12.8 5.75 12.8 12.8-5.75 12.8-12.8 12.8zM5.85 15.45h-2.1v1.050h2.15v-1.050zM26.15 15.45v1.050h2.15v-1.050zM5.1 21.65l0.55 0.9 1.85-1.050-0.55-0.9zM25.050 11.4l1.85-1.050-0.55-0.9-1.85 1zM7.5 10.45l-1.85-1.050-0.55 0.9 1.85 1.050zM24.5 21.55l1.85 1.050 0.55-0.9-1.85-1.050zM11.4 6.95l-1.050-1.85-0.9 0.55 1.050 1.85zM16.55 3.75h-1.050v2.15h1.050zM22.6 5.65l-0.9-0.55-1.050 1.85 0.9 0.55zM5.85 12.7l-1.55-0.4-0.3 1.050 1.55 0.4zM26.15 19.25l1.55 0.4 0.3-1.050-1.55-0.4zM8.85 8.1l-1.15-1.15-0.75 0.75 1.15 1.15zM13.75 5.55l-0.4-1.55-1.050 0.3 0.4 1.55zM19.7 4.3l-1.050-0.3-0.4 1.55 1.050 0.3zM25.050 7.7l-0.75-0.75-1.15 1.15 0.75 0.75zM26.45 13.75l1.55-0.4-0.3-1.050-1.55 0.4zM5.55 18.25l-1.55 0.4 0.3 1.050 1.55-0.4zM24.8 18.25c1.25-4.85-1.65-9.8-6.5-11.050s-9.8 1.65-11.050 6.5c-0.6 2.3-0.25 4.75 0.95 6.8 0.15 0.25 0.5 0.35 0.75 0.15 0.25-0.15 0.3-0.45 0.2-0.7-2.2-3.85-0.9-8.7 2.95-10.95 3.85-2.2 8.7-0.9 10.95 2.95 1.050 1.8 1.35 3.95 0.8 6-0.050 0.3 0.1 0.6 0.4 0.65 0.15 0.1 0.45-0.050 0.55-0.35zM17.95 15.050c-0.050 0-0.050 0 0 0-0.6-1.050-1.85-1.5-2.9-0.95s-1.45 1.8-0.9 2.85c0.35 0.65 1 1.1 1.75 1.15l7.4 2.65c0.050 0 0.1 0.050 0.2 0.050 0.3 0 0.55-0.25 0.55-0.55 0-0.15-0.050-0.3-0.2-0.4zM16 17.050c-0.6 0-1.050-0.5-1.050-1.050 0-0.6 0.5-1.050 1.050-1.050 0.6 0 1.050 0.5 1.050 1.050 0 0.6-0.45 1.050-1.050 1.050zM17.45 17.55c0.3-0.3 0.5-0.65 0.6-1l2.7 2.2zM18.15 21.35h-4.25c-1.45 0-2.65 1.2-2.65 2.65s1.2 2.65 2.65 2.65h4.25c1.45 0 2.65-1.2 2.65-2.65s-1.2-2.65-2.65-2.65zM18.15 25.6h-4.25c-0.9 0-1.6-0.7-1.6-1.6s0.7-1.6 1.6-1.6h4.25c0.9 0 1.6 0.7 1.6 1.6s-0.75 1.6-1.6 1.6zM14.95 23.45h-1.050c-0.3 0-0.55 0.25-0.55 0.55s0.25 0.55 0.55 0.55h1.050c0.3 0 0.55-0.25 0.55-0.55-0.050-0.3-0.25-0.55-0.55-0.55zM18.15 23.45h-1.050c-0.3 0-0.55 0.25-0.55 0.55s0.25 0.55 0.55 0.55h1.050c0.3 0 0.55-0.25 0.55-0.55-0.050-0.3-0.25-0.55-0.55-0.55z"></path>
</svg>
