<!-- Generated by IcoMoon.io -->
<svg version="1.1" xmlns="http://www.w3.org/2000/svg" width="28" height="28" viewBox="0 0 28 28">
<title>feedback</title>
<path d="M24.721 8.966c0.033-0.295-0.001-0.594-0.1-0.874s-0.258-0.535-0.468-0.745c-0.21-0.21-0.464-0.37-0.745-0.469s-0.579-0.133-0.874-0.1c0.008-0.072 0.012-0.144 0.012-0.216 0-0.526-0.209-1.031-0.581-1.403s-0.877-0.581-1.403-0.581c-0.072 0-0.144 0.004-0.216 0.012 0.045-0.408-0.038-0.821-0.238-1.18s-0.506-0.647-0.876-0.825-0.787-0.236-1.192-0.167c-0.405 0.069-0.778 0.263-1.069 0.553l-1.496 1.496c-0.223-0.297-0.466-0.578-0.729-0.84l-1.75-1.75c-0.662-0.662-1.56-1.034-2.497-1.034s-1.835 0.372-2.497 1.034c-0.041 0.041-0.073 0.089-0.095 0.142s-0.033 0.11-0.033 0.167c0 0.057 0.011 0.114 0.033 0.167s0.054 0.101 0.095 0.142l0.634 0.634c0.815 0.817 1.4 1.834 1.696 2.949s0.293 2.289-0.009 3.402c-0.174 0.636-0.261 1.293-0.261 1.953v2.821l-0.875 0.875-0.128-0.128c-0.082-0.082-0.193-0.128-0.309-0.128s-0.227 0.046-0.309 0.128l-1.441 1.441-0.128-0.128c-0.082-0.082-0.193-0.128-0.309-0.128s-0.227 0.046-0.309 0.128l-5.25 5.25 0.619 0.619 4.941-4.941 7.256 7.256-1.878 1.878 0.619 0.619 2.187-2.188c0.041-0.041 0.073-0.089 0.095-0.142s0.033-0.11 0.033-0.167c0-0.058-0.011-0.114-0.033-0.167s-0.054-0.101-0.095-0.142l-0.566-0.566 1.441-1.441c0.041-0.041 0.073-0.089 0.095-0.142s0.033-0.11 0.033-0.167c0-0.058-0.011-0.114-0.033-0.167s-0.054-0.101-0.095-0.142l-1.003-1.003 0.875-0.875h3.319c0.057 0 0.114-0.011 0.167-0.033s0.101-0.054 0.142-0.095l4.375-4.375-0.017-0.017c0.084-0.061 0.163-0.128 0.236-0.202l2.625-2.625c0.291-0.29 0.484-0.664 0.553-1.069s0.011-0.822-0.167-1.192c-0.178-0.37-0.466-0.677-0.826-0.876s-0.772-0.282-1.18-0.237zM22.75 7.641c0.219-0 0.434 0.065 0.616 0.187s0.325 0.295 0.409 0.498c0.084 0.203 0.106 0.426 0.063 0.641s-0.149 0.413-0.304 0.568l-2.625 2.625c-0.208 0.208-0.49 0.325-0.784 0.325s-0.576-0.117-0.784-0.325c-0.208-0.208-0.325-0.49-0.325-0.784s0.117-0.576 0.325-0.784l2.625-2.625c0.103-0.103 0.225-0.185 0.36-0.24s0.279-0.084 0.425-0.084zM21.347 5.778c0.208 0.208 0.324 0.49 0.324 0.784s-0.117 0.576-0.324 0.784l-2.625 2.625c-0.208 0.208-0.49 0.325-0.784 0.325s-0.576-0.117-0.784-0.325-0.325-0.49-0.325-0.784c0-0.294 0.117-0.576 0.325-0.784l2.625-2.625c0.208-0.208 0.49-0.324 0.784-0.324s0.576 0.117 0.784 0.324zM17.591 3.59c0.208-0.208 0.49-0.325 0.784-0.325s0.576 0.117 0.784 0.325c0.208 0.208 0.325 0.49 0.325 0.784s-0.117 0.576-0.325 0.784l-2.625 2.625c-0.103 0.103-0.225 0.185-0.36 0.24s-0.279 0.084-0.425 0.084c-0.146 0-0.29-0.029-0.425-0.084s-0.257-0.137-0.36-0.24c-0.103-0.103-0.185-0.225-0.24-0.36s-0.084-0.279-0.084-0.425 0.029-0.29 0.084-0.425c0.056-0.135 0.138-0.257 0.24-0.36l2.625-2.625zM13.563 23.006l-5.944-5.944 1.131-1.131 5.944 5.944-1.131 1.131zM18.631 18.812h-3.319c-0.058 0-0.114 0.011-0.167 0.033s-0.101 0.054-0.142 0.095l-1.003 1.003-4.194-4.194 1.003-1.003c0.041-0.041 0.073-0.089 0.095-0.142s0.033-0.11 0.033-0.167v-3.002c0-0.582 0.078-1.161 0.231-1.723 0.343-1.262 0.346-2.593 0.010-3.857s-0.999-2.418-1.923-3.344l-0.299-0.299c0.512-0.364 1.136-0.536 1.763-0.484s1.214 0.324 1.659 0.768l1.75 1.75c0.263 0.263 0.504 0.546 0.722 0.847l-0.503 0.503c-0.291 0.29-0.485 0.664-0.554 1.069s-0.011 0.822 0.166 1.192 0.466 0.677 0.826 0.876c0.359 0.199 0.772 0.282 1.18 0.237-0.008 0.072-0.012 0.144-0.012 0.216-0.001 0.327 0.080 0.649 0.234 0.937v0.344c0.003 0.924-0.178 1.839-0.532 2.692s-0.873 1.628-1.528 2.28l0.619 0.619c1.367-1.359 2.186-3.174 2.3-5.098 0.276 0.139 0.581 0.211 0.891 0.211 0.072-0 0.144-0.004 0.216-0.012-0.033 0.295 0.001 0.594 0.1 0.874s0.259 0.535 0.469 0.745c0.21 0.21 0.465 0.37 0.745 0.468s0.579 0.132 0.874 0.099c-0.055 0.495 0.078 0.992 0.373 1.393s0.73 0.676 1.219 0.77l-3.303 3.303zM25.722 11.721l-2.625 2.625c-0.208 0.208-0.49 0.325-0.784 0.325s-0.576-0.117-0.784-0.325-0.325-0.49-0.325-0.784c0-0.294 0.117-0.576 0.325-0.784l2.625-2.625c0.208-0.208 0.49-0.325 0.784-0.325s0.576 0.117 0.784 0.325 0.325 0.49 0.325 0.784c0 0.294-0.117 0.576-0.325 0.784z"></path>
<path d="M25.813 21.875c-0.58-0.001-1.136-0.231-1.546-0.641s-0.641-0.966-0.641-1.546c0-0.116-0.046-0.227-0.128-0.309s-0.193-0.128-0.309-0.128c-0.116 0-0.227 0.046-0.309 0.128s-0.128 0.193-0.128 0.309c-0.001 0.58-0.231 1.136-0.641 1.546s-0.966 0.641-1.546 0.641c-0.116 0-0.227 0.046-0.309 0.128s-0.128 0.193-0.128 0.309c0 0.116 0.046 0.227 0.128 0.309s0.193 0.128 0.309 0.128c0.58 0.001 1.136 0.231 1.546 0.641s0.641 0.966 0.641 1.546c0 0.116 0.046 0.227 0.128 0.309s0.193 0.128 0.309 0.128c0.116 0 0.227-0.046 0.309-0.128s0.128-0.193 0.128-0.309c0.001-0.58 0.231-1.136 0.641-1.546s0.966-0.641 1.546-0.641c0.116 0 0.227-0.046 0.309-0.128s0.128-0.193 0.128-0.309c0-0.116-0.046-0.227-0.128-0.309s-0.193-0.128-0.309-0.128zM23.187 23.361c-0.259-0.43-0.619-0.79-1.049-1.049 0.43-0.259 0.79-0.619 1.049-1.049 0.259 0.43 0.619 0.79 1.049 1.049-0.43 0.259-0.79 0.619-1.049 1.049z"></path>
<path d="M26.687 3.062c-0.464-0.001-0.909-0.185-1.237-0.513s-0.513-0.773-0.513-1.237c0-0.116-0.046-0.227-0.128-0.309s-0.193-0.128-0.309-0.128-0.227 0.046-0.309 0.128c-0.082 0.082-0.128 0.193-0.128 0.309-0.001 0.464-0.185 0.909-0.513 1.237s-0.773 0.513-1.237 0.513c-0.116 0-0.227 0.046-0.309 0.128s-0.128 0.193-0.128 0.309c0 0.116 0.046 0.227 0.128 0.309s0.193 0.128 0.309 0.128c0.464 0.001 0.909 0.185 1.237 0.513s0.513 0.773 0.513 1.237c0 0.116 0.046 0.227 0.128 0.309s0.193 0.128 0.309 0.128 0.227-0.046 0.309-0.128c0.082-0.082 0.128-0.193 0.128-0.309 0.001-0.464 0.185-0.909 0.513-1.237s0.773-0.513 1.237-0.513c0.116 0 0.227-0.046 0.309-0.128s0.128-0.193 0.128-0.309c0-0.116-0.046-0.227-0.128-0.309s-0.193-0.128-0.309-0.128zM24.5 4.237c-0.195-0.292-0.445-0.543-0.738-0.738 0.292-0.195 0.543-0.445 0.738-0.738 0.195 0.292 0.445 0.543 0.738 0.738-0.292 0.195-0.543 0.445-0.738 0.738z"></path>
<path d="M3.5 11.812c0 0.116 0.046 0.227 0.128 0.309s0.193 0.128 0.309 0.128c0.116 0 0.227-0.046 0.309-0.128s0.128-0.193 0.128-0.309c0.001-0.58 0.231-1.136 0.641-1.546s0.966-0.641 1.546-0.641c0.116 0 0.227-0.046 0.309-0.128s0.128-0.193 0.128-0.309c0-0.116-0.046-0.227-0.128-0.309s-0.193-0.128-0.309-0.128c-0.58-0.001-1.136-0.231-1.546-0.641s-0.641-0.966-0.641-1.546c0-0.116-0.046-0.227-0.128-0.309s-0.193-0.128-0.309-0.128c-0.116 0-0.227 0.046-0.309 0.128s-0.128 0.193-0.128 0.309c-0.001 0.58-0.231 1.136-0.641 1.546s-0.966 0.641-1.546 0.641c-0.116 0-0.227 0.046-0.309 0.128s-0.128 0.193-0.128 0.309c0 0.116 0.046 0.227 0.128 0.309s0.193 0.128 0.309 0.128c0.58 0.001 1.136 0.231 1.546 0.641s0.641 0.966 0.641 1.546zM3.938 8.138c0.259 0.43 0.619 0.79 1.049 1.049-0.43 0.259-0.79 0.619-1.049 1.049-0.259-0.43-0.619-0.79-1.049-1.049 0.43-0.259 0.79-0.619 1.049-1.049z"></path>
</svg>
