<svg xmlns="http://www.w3.org/2000/svg" width="32" height="32"><path d="M15.586.11c-.246.125-.388.294-.485.578-.08.236-.081 2.091-.002 2.377.033.117.148.301.255.409.383.383.909.382 1.292-.001.287-.287.323-.488.304-1.703-.014-.904-.031-1.078-.118-1.255-.219-.439-.804-.63-1.246-.405M8.933 2.268c-.247.133-.335.232-.431.485-.14.365-.082.642.222 1.071C9.85 5.411 9.986 5.547 10.45 5.547c.658 0 1.126-.641.896-1.227-.11-.279-1.284-1.884-1.467-2.005-.202-.134-.735-.161-.946-.047m13.215.027c-.201.133-1.376 1.725-1.494 2.025-.23.586.238 1.227.896 1.227.464 0 .6-.136 1.726-1.723.306-.432.362-.706.22-1.079-.138-.361-.385-.525-.823-.546-.289-.014-.384.004-.525.096m-7.135 3.436c-2.346.369-4.297 1.928-5.141 4.108a6.602 6.602 0 0 0 .674 6.092c.033.048.191.017.629-.123 1.256-.4 2.659-.649 3.985-.705 2.044-.088 3.907.144 5.665.705.438.14.596.171.629.123.832-1.231 1.251-2.863 1.104-4.299-.246-2.399-1.645-4.358-3.848-5.39-1.081-.506-2.489-.701-3.697-.511m-9.98 2.106a.972.972 0 0 0-.711.91c0 .256.167.601.357.736.134.096 1.841.683 2.258.777.217.049.526-.066.749-.278.387-.369.398-.935.024-1.308-.151-.151-.337-.23-1.184-.502-1.133-.364-1.258-.392-1.493-.335m21.554-.013a42.2 42.2 0 0 0-1.113.347c-.846.273-1.034.352-1.184.503-.374.373-.363.939.024 1.308.223.212.532.327.749.278.417-.094 2.124-.681 2.258-.777.19-.135.357-.48.357-.736 0-.554-.577-1.041-1.091-.923M6.733 14.268c-.697.19-1.818.58-1.999.697-.751.485-.381 1.693.519 1.693.12 0 .657-.148 1.224-.337 1.152-.384 1.363-.522 1.475-.961.183-.72-.461-1.297-1.219-1.092m17.951-.018c-.459.122-.756.642-.635 1.11.117.449.321.583 1.471.963.564.186 1.108.335 1.227.335.677 0 1.137-.742.831-1.342-.162-.317-.393-.443-1.418-.771-1.045-.334-1.208-.366-1.476-.295m-10.097 2.768c-5.469.561-10.132 4.244-11.922 9.417-.467 1.351-.747 2.875-.763 4.155-.009.74-.007.753.142.977.28.425.311.43 2.574.432L6.597 32l.034-.84c.246-6.072 4.164-11.607 9.887-13.965.258-.107.479-.203.491-.214.041-.039-1.991-.007-2.422.037m5.946 1.014c-2.146.341-4.045 1.077-5.775 2.237-3.742 2.511-6.062 6.595-6.263 11.024L8.464 32h4.962l.066-.333c.718-3.662 2.866-7.139 5.841-9.454 1.323-1.029 3.117-2.012 4.52-2.476.198-.065.36-.13.36-.143 0-.075-1.266-.833-1.998-1.197-.922-.459-.992-.474-1.682-.365m4.76 3.217a14.807 14.807 0 0 0-5.026 2.626c-1.989 1.6-3.621 3.942-4.444 6.373-.18.534-.463 1.569-.463 1.695 0 .04.824.057 2.714.057h2.714l.121-.307c.251-.637.858-1.824 1.265-2.473a15.974 15.974 0 0 1 5.293-5.244c.278-.171.515-.317.525-.326.032-.028-.442-.725-.848-1.249-.388-.499-1.154-1.337-1.218-1.332-.018.002-.303.083-.633.18m3.427 4.158-.48.302c-1.159.721-2.564 1.968-3.426 3.038a15.044 15.044 0 0 0-1.633 2.506l-.369.72 3.265.014c3.121.013 3.276.009 3.497-.089a.89.89 0 0 0 .382-.33c.147-.223.15-.244.143-.925-.015-1.293-.255-2.65-.711-4.03-.285-.86-.456-1.281-.519-1.277a.54.54 0 0 0-.149.071" fill-rule="evenodd"/></svg>