<!-- Generated by IcoMoon.io -->
<svg version="1.1" xmlns="http://www.w3.org/2000/svg" width="37" height="32" viewBox="0 0 37 32">
<title>filter</title>
<path d="M35.429 24.99h-1.752c-1.6 0-2.895 1.295-2.895 2.895v2.133l-1.067 1.067c-0.229 0.229-0.229 0.533 0 0.762 0.076 0.076 0.229 0.152 0.381 0.152s0.305-0.076 0.381-0.152l0.99-1.067h2.133c1.6 0 2.895-1.295 2.895-2.895v-1.752c0.076-0.686-0.457-1.143-1.067-1.143zM35.505 27.886c0 0.99-0.838 1.829-1.829 1.829h-1.067l1.448-1.448c0.229-0.229 0.229-0.533 0-0.762s-0.533-0.229-0.762 0l-1.448 1.448v-1.067c0-0.99 0.838-1.829 1.829-1.829h1.752c0 0 0.076 0 0.076 0.076v1.752zM1.752 7.010c0.152 0 0.305-0.076 0.381-0.152l0.99-1.067h2.133c1.6 0 2.895-1.295 2.895-2.895v-1.752c0-0.61-0.533-1.143-1.143-1.143h-1.752c-1.6 0-2.895 1.295-2.895 2.895v2.133l-0.99 1.067c-0.229 0.229-0.229 0.533 0 0.762 0.076 0.076 0.229 0.152 0.381 0.152zM3.429 2.895c0-0.99 0.838-1.829 1.829-1.829h1.752c0 0 0.076 0 0.076 0.076v1.752c0 0.99-0.838 1.829-1.829 1.829h-1.067l1.448-1.448c0.229-0.229 0.229-0.533 0-0.762s-0.533-0.229-0.762 0l-1.448 1.448v-1.067zM12.343 8.229c0.305 0 0.533-0.229 0.533-0.533 0-1.676 1.371-3.048 3.048-3.048s3.048 1.371 3.048 3.048c0 1.676-1.371 3.048-3.048 3.048h-14.171c-0.305 0-0.533 0.229-0.533 0.533s0.229 0.533 0.533 0.533h14.171c2.286 0 4.114-1.829 4.114-4.114s-1.829-4.114-4.114-4.114c-2.286 0-4.114 1.829-4.114 4.114 0 0.305 0.229 0.533 0.533 0.533zM0.533 16.533h29.562c3.581 0 6.476-2.895 6.476-6.476s-2.895-6.476-6.476-6.476c-3.581 0-6.476 2.895-6.476 6.476 0 0.305 0.229 0.533 0.533 0.533s0.533-0.229 0.533-0.533c0-2.971 2.438-5.41 5.41-5.41s5.41 2.438 5.41 5.41c0 2.971-2.438 5.41-5.41 5.41h-29.562c-0.305 0-0.533 0.229-0.533 0.533s0.229 0.533 0.533 0.533zM24.229 20.19h-16.686c-0.305 0-0.533 0.229-0.533 0.533s0.229 0.533 0.533 0.533h16.61c1.676 0 3.048 1.371 3.048 3.048s-1.371 3.048-3.048 3.048c-1.676 0-3.048-1.371-3.048-3.048 0-0.305-0.229-0.533-0.533-0.533s-0.533 0.229-0.533 0.533c0 2.286 1.829 4.114 4.114 4.114s4.114-1.829 4.114-4.114c0-2.286-1.829-4.114-4.038-4.114zM5.867 20.724c0-0.305-0.229-0.533-0.533-0.533h-4.8c-0.305 0-0.533 0.229-0.533 0.533s0.229 0.533 0.533 0.533h4.8c0.305 0 0.533-0.229 0.533-0.533zM7.695 24.99h-3.581c-0.305 0-0.533 0.229-0.533 0.533s0.229 0.533 0.533 0.533h3.657c0.305 0 0.533-0.229 0.533-0.533-0.076-0.305-0.305-0.533-0.61-0.533zM17.067 24.99h-7.162c-0.305 0-0.533 0.229-0.533 0.533s0.229 0.533 0.533 0.533h7.162c0.305 0 0.533-0.229 0.533-0.533s-0.229-0.533-0.533-0.533z"></path>
</svg>
