<!-- Generated by IcoMoon.io -->
<svg version="1.1" xmlns="http://www.w3.org/2000/svg" width="32" height="32" viewBox="0 0 32 32">
<title>flexible</title>
<path d="M16.001 16.469c4.54 0 8.234-3.694 8.234-8.234s-3.694-8.234-8.234-8.234c-1.822 0-3.548 0.583-4.992 1.685-0.206 0.157-0.245 0.451-0.088 0.657s0.451 0.245 0.657 0.088c1.28-0.977 2.809-1.493 4.423-1.493 4.023 0 7.297 3.273 7.297 7.297s-3.273 7.297-7.297 7.297c-4.024 0-7.297-3.273-7.297-7.297 0-1.576 0.494-3.077 1.43-4.339 0.154-0.208 0.11-0.502-0.098-0.656s-0.502-0.111-0.656 0.098c-1.056 1.425-1.614 3.119-1.614 4.898 0 4.54 3.694 8.234 8.234 8.234z"></path>
<path d="M30.496 13.461h-1.631c-0.999 0-1.992 0.344-2.798 0.968-5.927 4.588-14.206 4.588-20.134 0-0.806-0.624-1.8-0.968-2.798-0.968h-1.631c-0.829 0-1.504 0.675-1.504 1.504v15.531c0 0.829 0.675 1.504 1.504 1.504h2.013c0.259 0 0.469-0.21 0.469-0.469s-0.21-0.469-0.469-0.469h-2.013c-0.312 0-0.567-0.254-0.567-0.567v-0.567h30.125v0.567c0 0.313-0.254 0.567-0.567 0.567h-24.792c-0.259 0-0.469 0.21-0.469 0.469s0.21 0.469 0.469 0.469h24.792c0.829 0 1.504-0.675 1.504-1.504v-15.531c0-0.829-0.675-1.504-1.504-1.504zM0.938 23.815v-4.225c0.863 0.053 1.704 0.252 2.505 0.595 2.295 0.982 7.106 1.592 12.557 1.592s10.263-0.61 12.557-1.592c0.802-0.343 1.642-0.542 2.505-0.595v4.225h-30.125zM24.85 24.752v4.24h-2.169v-4.24h2.169zM19.673 24.752v4.24h-2.169v-4.24h2.169zM14.496 24.752v4.24h-2.169v-4.24h2.169zM9.319 24.752v4.24h-2.169v-4.24h2.169zM1.504 14.398h1.631c0.792 0 1.582 0.274 2.225 0.771 6.265 4.85 15.016 4.85 21.281 0 0.643-0.498 1.433-0.771 2.225-0.771h1.631c0.312 0 0.567 0.254 0.567 0.567v3.686c-0.99 0.054-1.955 0.279-2.874 0.672-2.186 0.935-6.856 1.516-12.189 1.516s-10.003-0.581-12.189-1.516c-0.919-0.393-1.884-0.618-2.874-0.672v-3.686c0-0.312 0.254-0.567 0.567-0.567zM0.938 24.752h3.204v4.24h-3.204v-4.24zM5.079 28.992v-4.24h1.133v4.24h-1.133zM10.256 28.992v-4.24h1.133v4.24h-1.133zM15.433 28.992v-4.24h1.133v4.24h-1.133zM20.61 28.992v-4.24h1.133v4.24h-1.133zM25.788 28.992v-4.24h1.133v4.24h-1.133zM27.858 28.992v-4.24h3.204v4.24h-3.204z"></path>
</svg>
