<!-- Generated by IcoMoon.io -->
<svg version="1.1" xmlns="http://www.w3.org/2000/svg" width="32" height="32" viewBox="0 0 32 32">
<title>floss</title>
<path d="M4.69 26.78c-0.755-0.529-1.796-0.347-2.326 0.407s-0.348 1.796 0.406 2.326c0.754 0.53 1.796 0.349 2.326-0.405 0.255-0.362 0.355-0.811 0.279-1.248s-0.323-0.825-0.686-1.080zM4.224 28.494c-0.193 0.271-0.569 0.336-0.841 0.145-0.2-0.14-0.296-0.387-0.242-0.626s0.245-0.421 0.486-0.463c0.035-0.007 0.071-0.010 0.107-0.010 0.225 0.001 0.431 0.127 0.535 0.327s0.087 0.441-0.042 0.625l-0.003 0.002z"></path>
<path d="M11.93 14.494c-0.241-0.164-0.569-0.104-0.736 0.134s-0.113 0.567 0.123 0.738l1.861 1.308c0.156 0.113 0.36 0.134 0.536 0.053s0.294-0.248 0.31-0.44c0.016-0.192-0.073-0.378-0.232-0.486l-1.861-1.308z"></path>
<path d="M10.949 15.888c-0.156-0.118-0.363-0.142-0.541-0.062s-0.298 0.251-0.313 0.446c-0.015 0.195 0.078 0.382 0.242 0.488l1.861 1.308c0.156 0.115 0.362 0.137 0.538 0.056s0.295-0.25 0.31-0.443c0.016-0.193-0.075-0.379-0.236-0.487l-1.861-1.307z"></path>
<path d="M9.968 17.286c-0.241-0.16-0.566-0.099-0.733 0.138s-0.113 0.564 0.12 0.736l1.861 1.307c0.241 0.168 0.573 0.11 0.742-0.131s0.111-0.573-0.129-0.742l-1.862-1.307z"></path>
<path d="M8.989 18.681c-0.241-0.169-0.574-0.111-0.743 0.13s-0.111 0.574 0.13 0.743l1.861 1.307c0.241 0.17 0.574 0.112 0.744-0.13s0.111-0.574-0.13-0.744l-1.861-1.307z"></path>
<path d="M8.009 20.078c-0.241-0.169-0.574-0.112-0.744 0.13s-0.112 0.574 0.129 0.744l1.861 1.307c0.156 0.11 0.359 0.128 0.532 0.047s0.29-0.247 0.307-0.437c0.017-0.19-0.069-0.375-0.225-0.485l-1.861-1.306z"></path>
<path d="M30.692 2.958l-4.658-2.115c-2.112-0.971-4.525-1.051-6.697-0.224-0.149 0.058-0.3 0.117-0.443 0.181-0.077 0.033-0.152 0.069-0.227 0.107-2.034 0.991-3.295 2.788-4.412 4.543-2.657 4.167-5.815 9.104-9.088 14.138-0.118 0.182-0.25 0.365-0.384 0.552-0.305 0.397-0.573 0.821-0.8 1.268l-3.408 5.24c-1.034 1.556-0.639 3.652 0.89 4.725s3.634 0.733 4.746-0.768l8.8-12.008c0.727-0.979 2.041-1.314 3.148-0.8l4.798 2.181c0.934 0.443 2.051 0.168 2.672-0.659 0.671-0.919 0.501-2.204-0.387-2.916l4.255-9.372c1.121 0.202 2.203-0.514 2.454-1.626 0.215-1.012-0.312-2.035-1.26-2.448zM21.288 14.523c-1.298-0.593-2.286-1.705-2.724-3.063s-0.285-2.837 0.421-4.077c1.369-2.277 4.236-3.153 6.644-2.032l2.87 1.307-4.198 9.234-3.012-1.369zM30.913 5.165c-0.070 0.314-0.276 0.58-0.564 0.725s-0.624 0.153-0.918 0.022l-0.005-0.004c-0.003 0-0.007 0-0.010-0.003l-3.346-1.525c-2.911-1.346-6.368-0.278-8.013 2.475-0.854 1.501-1.039 3.291-0.508 4.934s1.727 2.988 3.297 3.706l3.501 1.591c0.292 0.135 0.508 0.394 0.588 0.705s0.016 0.643-0.174 0.902c-0.326 0.41-0.893 0.539-1.364 0.311l-4.822-2.192c-1.563-0.707-3.407-0.225-4.424 1.157l-8.799 12.004c-0.77 1.032-2.222 1.263-3.275 0.521s-1.324-2.186-0.612-3.259l3.434-5.282c0.014-0.022 0.027-0.046 0.038-0.070 0.202-0.396 0.44-0.772 0.712-1.124 0.144-0.2 0.285-0.397 0.412-0.592 3.276-5.039 6.435-9.977 9.092-14.147 1.035-1.627 2.195-3.288 3.98-4.158 0.061-0.030 0.123-0.060 0.19-0.089 0.133-0.059 0.267-0.111 0.402-0.164 0.849-0.329 1.752-0.497 2.662-0.495 1.106 0.002 2.198 0.239 3.204 0.697l4.659 2.118c0.483 0.206 0.758 0.719 0.663 1.235z"></path>
</svg>
