<!-- Generated by IcoMoon.io -->
<svg version="1.1" xmlns="http://www.w3.org/2000/svg" width="32" height="32" viewBox="0 0 32 32">
<title>flower-1</title>
<path d="M16.684 5.406c0.002 0 0.003 0 0.005-0.001 0.16-0.002 0.289-0.134 0.287-0.295-0.005-0.286 0.175-0.546 0.438-0.632 0.242-0.081 0.512-0.005 0.687 0.193 0.246 0.288 0.691-0.106 0.436-0.385-0.713-0.865-2.193-0.283-2.144 0.833 0.002 0.159 0.132 0.287 0.291 0.287z"></path>
<path d="M19.606 3.118c0.36-0.471 1.147-0.213 1.145 0.384 0.005 0.16 0.141 0.288 0.3 0.282 0.706-0.15-0.033-1.326-0.491-1.412-0.49-0.193-1.070-0.038-1.408 0.381-0.239 0.291 0.219 0.662 0.454 0.365z"></path>
<path d="M21.976 5.738c0.473-0.359 1.162 0.1 1.003 0.674-0.038 0.156 0.058 0.313 0.214 0.351 0.719 0.044 0.321-1.286-0.098-1.491-0.423-0.317-1.022-0.32-1.459-0.006-0.131 0.094-0.161 0.276-0.067 0.406s0.279 0.159 0.407 0.066z"></path>
<path d="M26.896 20.122c-1.072-0.176-0.541-1.071-0.080-1.846 0.873-1.278 0.427-1.999-1.031-1.358-0.959 0.383-2.051 0.654-2.267-0.559-0.383-1.485-1.466-0.664-2.186 0.426-0.409 0.489-1.034 1.536-1.276 0.778-0.095-0.205-0.225-0.487-0.547-0.559-2.242-0.031-4.253 7.202-2.045 9.098-0.926 2.066-1.043 3.486-1.403 5.091-0.317-1.472-0.42-2.839-0.894-4.602 0.26-4.387 1.002-8.736 2.234-12.95 0.001 0.001 0.004 0.002 0.005 0.002 1.974 0.996 5.249 1.127 6.157-1.169 2.152-0.831 3.423-2.559 2.556-4.495 0.928-0.563 0.901-1.975 0.116-2.512 0.463-0.965-0.321-2.211-1.219-2.336 0.146-1.143-1.034-2.046-2.104-1.643-0.162-0.918-1.395-1.444-2.225-0.881-0.677-0.869-2.084-0.787-2.687 0.138-0.947-0.672-2.237-0.007-2.352 1.134-1.058-0.324-2.178 0.672-1.99 1.848-1.995 0.811-2.126 3.121-0.922 5.067-0.724 2.273 1.788 4.243 4.111 4.671-1.108 3.78-1.816 7.656-2.144 11.587-0.333-0.954-0.786-1.958-1.321-2.847 2.079-2.321 0.318-7.589-1.42-8.891-0.509-0.382-1.059-0.102-1.212 0.393-0.072 0.158-0.122 0.256-0.189 0.272-0.788-0.109-1.742-2.592-2.683-2.262-0.724 0.2-0.454 1.181-1.018 1.541-0.466 0.307-1.227 0.027-1.839-0.197-0.585-0.214-1.090-0.4-1.373-0.057-0.286 0.35 0.005 0.844 0.342 1.416 0.464 0.775 0.991 1.67-0.079 1.846-0.292 0.083-0.656 0.186-0.741 0.553-0.113 0.488 0.384 0.858 0.909 1.25 0.491 0.405 1.282 0.848 0.486 1.163-1.984 1.081 0.944 2.906 2.623 3.487 2.019 0.691 4.124 1.024 5.744-0.129 0.753 1.253 1.312 2.762 1.651 4.068 0 0.051 0.015 0.097 0.038 0.139 0.31 1.202 0.489 2.307 0.626 3.174 0.221 1.396 0.319 2.033 0.821 2.031 0.455-0.004 0.554-0.533 0.749-1.585 0.183-0.982 0.456-2.432 1.117-3.932 1.625 1.106 3.688 0.772 5.686 0.091 1.467-0.517 3.52-1.775 3.268-2.832-0.083-0.534-0.815-0.603-0.988-0.93-0.036-0.243 0.465-0.617 0.83-0.889 0.951-0.595 1.403-1.512 0.166-1.802zM17.464 12.817c-0.004 0.006-0.008 0.012-0.012 0.018l-0.009 0.005c-0.010-0.008-0.025-0.012-0.037-0.020l-0.037-0.080c0.001 0.001-0.008-0.017-0.012-0.026 0.088-1.165 0.155-2.475 0.069-3.601 0.082-0.612 0.1-1.472 0.728-1.801 1.003-0.673 2.388 0.403 1.973 1.541-0.043 0.173-0.376 0.706-0.456 0.873-0.83 0.941-1.521 1.996-2.207 3.091zM21.397 9.167c0.464 0.035 0.573 1.053 0.474 1.699-1.167 0.316-2.271 0.861-3.373 1.415 0.594-0.889 2.030-3.039 2.899-3.114zM23.079 12.144v0.001h-0.001c-0.62 1.87-3.37 1.899-5.146 1.094 1.817-0.985 3.355-1.659 4.309-1.859l-0.004-0.019c0.013-0.006 0.025-0.011 0.037-0.019 0.008 0.001 0.015 0.002 0.023 0.003l0.010 0.022 0.068-0.013c0.776-0.12 0.966 0.063 0.704 0.79zM25.79 9.47c-0.112 0.904-0.871 1.753-2.024 2.293 0.039-0.583-0.303-0.965-0.882-1.018 2.212-3.252 2.97-3.339 2.906-1.275zM14.731 2.538c0.484-0.287 1.047-0.007 1.071 0.005 0.196 0.107 0.453-0.070 0.421-0.292-0.060-0.545 0.256-1.060 0.719-1.173 0.316-0.077 0.675 0.045 0.937 0.319 0.137 0.154 0.413 0.099 0.482-0.095 0.17-0.438 0.576-0.703 1.040-0.729 0.396 0.002 0.765 0.227 0.963 0.588 0.044 0.079 0.12 0.133 0.209 0.147s0.178-0.012 0.244-0.073c0.33-0.303 0.821-0.362 1.163-0.143 0.617 0.457 0.223 0.869 0.562 1.089 0.095 0.052 0.212 0.046 0.301-0.014 0.796-0.561 1.86 0.19 1.553 1.12-0.056 0.176 0.087 0.373 0.271 0.374 0.621-0.019 1.5 0.822 0.947 1.747-0.041 0.068-0.053 0.15-0.032 0.226 0.119 0.323 0.548 0.224 0.669 0.96 0.033 0.391-0.206 0.774-0.579 0.967-0.762-0.304-1.731 0.585-3.188 2.74 0.018-1.064-0.65-2.207-1.751-1.51 0.412-2.176-2.673-3.18-3.601-1.152-0.403-1.116-1.475-0.87-2.134-0.086 0.082-2.179-0.149-3.359-0.723-3.729-0.133-0.511 0.043-1.042 0.456-1.286zM13.022 8.123c-0.558-1.091-0.637-2.161-0.201-2.933 0.307-0.51 0.767-0.953 1.091-0.902 0.163 0.050 0.654 0.469 0.483 3.693-0.445-0.344-1.035-0.345-1.373 0.142zM15.574 12.441c-1.374-0.606-2.367-1.737-2.371-2.793-0.002-0.599 0.234-1.841 0.973-1.097l0.069 0.065c0.003 0.003 0.050 0.047 0.053 0.050l0.1 0.106c0.001 0.001 0.002 0.002 0.003 0.003 0.002 0.002 0.001 0.004 0.003 0.006 0.022 0.025 0.045 0.049 0.069 0.073 0.614 0.706 1.384 2.040 2.307 4.003-0.426-0.106-0.83-0.245-1.206-0.416zM16.845 11.65c-0.546-1.076-1.104-2.157-1.859-3.092 2.092-3.239 1.947 1.582 1.859 3.092zM10.452 18.619l0.027-2.796c0.001-0.38-0.577-0.387-0.583-0.005l-0.022 2.3c-0.754-0.642-1.572-1.249-2.471-1.81-0.135-0.084-0.316-0.044-0.401 0.093s-0.043 0.317 0.093 0.401c1.447 0.902 2.701 1.914 3.756 3.027l-3.396-0.499c-0.375-0.048-0.462 0.517-0.084 0.576l4.076 0.6c0.434 0.513 0.825 1.047 1.179 1.599-2.070 1.693-7.711-0.305-8.141-2.086 0.023-0.095 0.154-0.17 0.35-0.274 1.223-0.569 0.527-1.536-0.409-2.145-0.215-0.16-0.717-0.535-0.692-0.648 0.389-0.211 0.978-0.19 1.266-0.718 0.496-0.884-0.581-2.015-0.881-2.841 1.4 0.4 3.194 1.356 3.728-0.729 0.045-0.156 0.107-0.368 0.167-0.382 0.214-0.053 0.7 0.604 0.994 0.995 0.676 1.022 1.732 1.935 2.271 0.672 0.041-0.090 0.103-0.225 0.144-0.235 1.628 0.693 3.268 5.996 1.623 7.969-0.715-1.096-1.576-2.122-2.594-3.064zM26.38 21.457c-0.536 0.4-1.144 0.853-1.058 1.44 0.057 0.585 0.795 0.643 0.998 0.98 0.11 0.459-1.231 1.561-2.895 2.148-2.296 0.811-4.138 0.777-5.24-0.073 0.255-0.506 0.544-0.996 0.874-1.468l4.305-0.661c0.159-0.025 0.268-0.173 0.244-0.332s-0.175-0.266-0.332-0.244l-3.72 0.572c0.981-1.219 2.23-2.307 3.736-3.252 0.136-0.085 0.178-0.265 0.092-0.401s-0.266-0.177-0.401-0.092c-1.017 0.638-1.915 1.342-2.705 2.105l0.211-2.384c0.014-0.16-0.105-0.301-0.264-0.315-0.157-0.013-0.302 0.104-0.316 0.264l-0.273 3.094c-0.758 0.832-1.385 1.732-1.884 2.69-1.621-2.15-0.032-6.757 1.414-7.873 0.232-0.159 0.262-0.072 0.362 0.151 0.541 1.266 1.598 0.35 2.27-0.671 0.295-0.391 0.805-1.048 0.995-0.996 0.060 0.014 0.122 0.227 0.167 0.383 0.52 2.076 2.338 1.131 3.727 0.729-0.3 0.826-1.376 1.957-0.88 2.84 0.287 0.524 0.874 0.513 1.265 0.714 0.025 0.117-0.477 0.492-0.692 0.652z"></path>
<path d="M4.647 6.529c0.342 0.111 0.846 0.336 1.311 0.783 0.503 0.483 0.753 1.030 0.875 1.402 0.051 0.158 0.196 0.262 0.361 0.262 0.167 0 0.313-0.108 0.361-0.268 0.11-0.363 0.343-0.898 0.827-1.378 0.472-0.468 0.995-0.695 1.351-0.804 0.348-0.094 0.352-0.626 0.003-0.723-0.362-0.114-0.895-0.352-1.373-0.837-0.464-0.471-0.693-0.99-0.805-1.344-0.050-0.158-0.195-0.264-0.361-0.264s-0.312 0.107-0.361 0.267c-0.113 0.365-0.35 0.902-0.838 1.381-0.473 0.465-0.994 0.692-1.347 0.801-0.347 0.093-0.35 0.623-0.004 0.722zM6.407 5.421c0.378-0.371 0.628-0.771 0.792-1.123 0.276 0.696 1.172 1.59 1.862 1.863-0.704 0.273-1.605 1.18-1.873 1.878-0.312-0.713-1.082-1.521-1.868-1.867 0.34-0.158 0.725-0.395 1.087-0.751z"></path>
<path d="M9.632 25.379c-0.16 0-0.291 0.13-0.291 0.291v0.886c0 0.161 0.131 0.292 0.291 0.292s0.292-0.131 0.292-0.292v-0.886c-0.001-0.161-0.131-0.291-0.292-0.291z"></path>
<path d="M9.632 27.798c-0.16 0-0.291 0.131-0.291 0.292v0.876c0 0.161 0.131 0.291 0.291 0.291s0.292-0.13 0.292-0.291v-0.876c-0.001-0.161-0.131-0.292-0.292-0.292z"></path>
<path d="M11.346 27.026h-0.943c-0.378-0.005-0.378 0.588 0 0.583h0.943c0.378 0.005 0.378-0.588 0-0.583z"></path>
<path d="M8.87 27.026h-0.86c-0.378-0.005-0.378 0.588 0 0.583h0.86c0.377 0.005 0.378-0.588 0-0.583z"></path>
<path d="M27.173 13.347c0.442-0.008 0.254-0.665 0.292-1.010 0-0.161-0.131-0.292-0.292-0.292-0.441 0.008-0.254 0.665-0.291 1.011 0 0.161 0.131 0.291 0.291 0.291z"></path>
<path d="M27.173 15.302c0.441-0.008 0.254-0.664 0.292-1.002 0-0.161-0.131-0.292-0.292-0.292-0.441 0.008-0.254 0.664-0.291 1.002 0 0.161 0.131 0.292 0.291 0.292z"></path>
<path d="M28.565 13.382h-0.766c-0.377-0.005-0.378 0.588 0 0.583h0.766c0.378 0.006 0.378-0.588 0-0.583z"></path>
<path d="M26.555 13.382h-0.698c-0.378-0.005-0.378 0.588 0 0.583h0.698c0.377 0.006 0.378-0.588 0-0.583z"></path>
</svg>
