<!-- Generated by IcoMoon.io -->
<svg version="1.1" xmlns="http://www.w3.org/2000/svg" width="32" height="32" viewBox="0 0 32 32">
<title>flying-skill</title>
<path d="M31.9 24.6l-2.5-11.15c-0.25-1.15-0.95-2.15-1.95-2.8s-2.2-0.85-3.35-0.6-2.1 0.95-2.75 1.9h-3.35v-1.050h3c0.8 0 1.45-0.65 1.45-1.45v-6c0.050-0.8-0.6-1.45-1.45-1.45h-10c-0.8 0-1.45 0.65-1.45 1.45v5.95c0 0.8 0.65 1.45 1.45 1.45h3.050v1.050h-3.3c-0.65-0.95-1.65-1.65-2.75-1.9-1.15-0.25-2.35-0.050-3.35 0.6s-1.7 1.65-1.95 2.8l-2.5 11.15c-0.55 2.4 1 4.75 3.4 5.3 0.25 0.1 0.55 0.15 0.9 0.15 1 0 2-0.35 2.8-0.95 0.8-0.65 1.35-1.55 1.6-2.5l0.35-1.55c0.6 0.55 1.4 0.85 2.3 0.85 1.4 0 2.6-0.8 3.15-2h2.7c0.55 1.15 1.75 2 3.15 2 0.85 0 1.65-0.3 2.3-0.85l0.35 1.55c0.2 1 0.8 1.9 1.6 2.5 0.75 0.6 1.7 0.95 2.7 0.95 0.35 0 0.65-0.050 0.95-0.1 2.45-0.55 4-2.9 3.45-5.3zM13.65 9.95l4.7-4.7c0.2-0.2 0.2-0.5 0-0.65-0.2-0.2-0.5-0.2-0.65 0l-5.4 5.35h-1.3c-0.3 0-0.55-0.25-0.55-0.55v-5.95c0-0.3 0.25-0.55 0.55-0.55h8.4l-0.2 0.2c-0.2 0.2-0.2 0.5 0 0.65 0.1 0.1 0.2 0.15 0.35 0.15 0.1 0 0.25-0.050 0.35-0.15l0.85-0.85h0.25c0.3 0 0.55 0.25 0.55 0.55v5.95c0 0.3-0.25 0.55-0.55 0.55zM17.050 10.9v1.050h-2.050v-1.050zM11.5 24.9c-1.4 0-2.55-1.15-2.55-2.5 0-1.4 1.15-2.5 2.55-2.5s2.55 1.15 2.55 2.5-1.15 2.5-2.55 2.5zM20.5 24.9c-1.4 0-2.55-1.15-2.55-2.5 0-1.4 1.15-2.5 2.55-2.5s2.55 1.15 2.55 2.5-1.15 2.5-2.55 2.5zM28.3 29c-0.25 0.050-0.5 0.1-0.75 0.1-1.65 0-3.1-1.15-3.45-2.75l-0.5-2.3c0.3-0.5 0.45-1.050 0.45-1.65s-0.15-1.15-0.4-1.65c0.3 0.050 0.6 0.1 0.95 0.1 2.2 0 4-1.75 4-3.95 0-0.6-0.15-1.15-0.4-1.7-0.050-0.1-0.1-0.25-0.2-0.35-0.15-0.2-0.4-0.3-0.65-0.15-0.2 0.15-0.3 0.4-0.15 0.65 0.050 0.1 0.1 0.15 0.15 0.25 0.2 0.4 0.3 0.85 0.3 1.3 0 1.65-1.35 3-3.050 3-1.65 0-3.050-1.35-3.050-3s1.35-3 3.050-3c0.45 0 0.9 0.1 1.3 0.3 0.25 0.1 0.5 0 0.65-0.2 0.1-0.25 0-0.5-0.2-0.6-0.55-0.25-1.1-0.4-1.7-0.4-2.2 0-4 1.75-4 3.95 0 0.75 0.2 1.45 0.6 2.1-0.2-0.050-0.4-0.050-0.65-0.050-1.9 0-3.45 1.55-3.45 3.45 0 0.2 0 0.35 0.050 0.55h-2.15c0.050-0.15 0.050-0.35 0.050-0.55 0-1.9-1.55-3.45-3.45-3.45-0.2 0-0.4 0-0.65 0.050 0.4-0.6 0.6-1.3 0.6-2.1 0-0.6-0.15-1.15-0.4-1.7-0.050-0.1-0.1-0.25-0.2-0.35-0.15-0.2-0.4-0.3-0.65-0.15-0.2 0.15-0.3 0.4-0.15 0.65 0.050 0.1 0.1 0.15 0.15 0.25 0.2 0.4 0.3 0.85 0.3 1.3 0 1.65-1.35 3-3.050 3-1.65 0-3.050-1.35-3.050-3s1.35-3 3.050-3c0.45 0 0.9 0.1 1.3 0.3 0.25 0.1 0.5 0 0.65-0.2 0.1-0.25 0-0.5-0.2-0.6-0.55-0.25-1.1-0.4-1.7-0.4-2.2 0-4 1.75-4 3.95s1.8 3.95 4 3.95c0.35 0 0.65-0.050 0.95-0.1-0.25 0.5-0.4 1.050-0.4 1.65s0.15 1.15 0.45 1.65l-0.55 2.3c-0.35 1.6-1.8 2.75-3.45 2.75-0.25 0-0.5-0.050-0.75-0.1-1.9-0.4-3.1-2.3-2.7-4.2l2.5-11.15c0.2-0.9 0.75-1.7 1.55-2.2s1.75-0.65 2.65-0.45c0.95 0.2 1.8 0.8 2.3 1.65 0.1 0.15 0.25 0.25 0.4 0.25h11.1c0.15 0 0.3-0.1 0.4-0.25 0.5-0.85 1.35-1.45 2.3-1.65 0.9-0.2 1.85-0.050 2.65 0.45s1.35 1.3 1.55 2.2l2.5 11.15c0.3 1.8-0.9 3.65-2.8 4.1zM26.55 16.45h-0.5c-0.25 0-0.45 0.2-0.45 0.45s0.2 0.45 0.45 0.45h0.5c0.25 0 0.45-0.2 0.45-0.45s-0.2-0.45-0.45-0.45zM23 16.45h-0.5c-0.25 0-0.45 0.2-0.45 0.45s0.2 0.45 0.45 0.45h0.5c0.25 0 0.45-0.2 0.45-0.45 0.050-0.25-0.15-0.45-0.45-0.45zM24.55 14.45c-0.25 0-0.45 0.2-0.45 0.45v0.5c0 0.25 0.2 0.45 0.45 0.45s0.45-0.2 0.45-0.45v-0.5c0-0.25-0.2-0.45-0.45-0.45zM24.55 17.9c-0.25 0-0.45 0.2-0.45 0.45v0.5c0 0.25 0.2 0.45 0.45 0.45s0.45-0.2 0.45-0.45v-0.5c0-0.2-0.2-0.45-0.45-0.45zM9.5 16.45h-0.5c-0.25 0-0.45 0.2-0.45 0.45s0.2 0.45 0.45 0.45h0.5c0.25 0 0.45-0.2 0.45-0.45 0.050-0.25-0.2-0.45-0.45-0.45zM6 16.45h-0.5c-0.25 0-0.45 0.2-0.45 0.45s0.2 0.45 0.45 0.45h0.5c0.25 0 0.45-0.2 0.45-0.45s-0.2-0.45-0.45-0.45zM7.5 14.45c-0.25 0-0.45 0.2-0.45 0.45v0.5c0 0.25 0.2 0.45 0.45 0.45s0.45-0.2 0.45-0.45v-0.5c0-0.25-0.2-0.45-0.45-0.45zM7.5 17.9c-0.25 0-0.45 0.2-0.45 0.45v0.5c0 0.25 0.2 0.45 0.45 0.45s0.45-0.2 0.45-0.45v-0.5c0-0.2-0.2-0.45-0.45-0.45zM19 16.45h-6c-0.25 0-0.45 0.2-0.45 0.45s0.2 0.45 0.45 0.45h6c0.25 0 0.45-0.2 0.45-0.45 0.050-0.25-0.15-0.45-0.45-0.45zM12.5 21.9c-0.25 0-0.45 0.2-0.45 0.45 0 0.3-0.25 0.55-0.55 0.55s-0.55-0.25-0.55-0.55 0.25-0.55 0.55-0.55c0.25 0 0.45-0.2 0.45-0.45s-0.2-0.45-0.45-0.45c-0.8 0-1.45 0.65-1.45 1.45s0.65 1.45 1.45 1.45 1.45-0.65 1.45-1.45c0.050-0.25-0.2-0.45-0.45-0.45zM21.5 21.9c-0.25 0-0.45 0.2-0.45 0.45 0 0.3-0.25 0.55-0.55 0.55s-0.55-0.25-0.55-0.55 0.25-0.55 0.55-0.55c0.25 0 0.45-0.2 0.45-0.45s-0.2-0.45-0.45-0.45c-0.8 0-1.45 0.65-1.45 1.45s0.65 1.45 1.45 1.45 1.45-0.65 1.45-1.45c0.050-0.25-0.15-0.45-0.45-0.45z"></path>
</svg>
