<!-- Generated by IcoMoon.io -->
<svg version="1.1" xmlns="http://www.w3.org/2000/svg" width="69" height="32" viewBox="0 0 69 32">
<title>frame</title>
<path d="M0 21.799c0.033 0.016 0.081 0.033 0.114 0.049-0.033-0.033-0.065-0.049-0.114-0.049 0-0.016 0-0.033 0 0z"></path>
<path d="M68.046 15.162c-1.303 0.927-2.883 1.318-4.43 1.594-1.596 0.293-3.192 0.521-4.805 0.7-3.209 0.342-6.45 0.439-9.691 0.309-0.912-0.032-1.824-0.081-2.736-0.13-0.456-0.016-0.912-0.065-1.368-0.081-0.065 0-0.147 0-0.212-0.016 0.472-0.195 0.961-0.39 1.433-0.586 2.036-0.83 4.055-1.676 6.091-2.505 0.114-0.049 0.228-0.098 0.342-0.146 0.831-0.016 1.661-0.049 2.492-0.098 1.238-0.065 2.492-0.179 3.713-0.39 2.296-0.39 4.56-1.155 6.498-2.473 0.537-0.358 1.042-0.765 1.498-1.22 0.456-0.439 0.945-0.927 1.27-1.48 0.082-0.146-0.097-0.358-0.228-0.211-0.798 0.797-1.857 1.301-2.899 1.676-1.156 0.423-2.329 0.797-3.485 1.171-2.003 0.634-4.007 1.285-6.026 1.871 0.961-0.39 1.922-0.781 2.883-1.188 0.489-0.211 0.994-0.423 1.482-0.651 0.212-0.098 0.114-0.472-0.13-0.407-1.938 0.602-3.811 1.383-5.684 2.164 1.042-1.757 2.15-3.481 3.388-5.108 1.417-1.855 2.964-3.595 4.626-5.222 0.814-0.781 1.661-1.529 2.54-2.245-1.791 3.286-3.99 6.312-6.417 9.143-0.358 0.423-0.733 0.846-1.107 1.253s-0.765 0.813-1.075 1.269c0 0.016 0 0.016 0.016 0.016 0.423-0.277 0.782-0.651 1.124-1.009 0.326-0.342 0.651-0.683 0.961-1.025 0.668-0.732 1.303-1.497 1.922-2.278 1.205-1.529 2.345-3.14 3.355-4.815 0.57-0.96 1.124-1.936 1.662-2.912 0.049-0.098-0.049-0.211-0.146-0.146-3.665 2.912-6.906 6.345-9.512 10.217-0.668 0.992-1.303 2.001-1.873 3.058-0.537 0.228-1.075 0.456-1.596 0.667-0.163 0-0.326 0.016-0.489 0.033-0.114 0-0.147 0.13-0.098 0.228-0.081 0.033-0.163 0.065-0.244 0.098-0.244 0.065-0.489 0.114-0.733 0.179-0.049 0.016-0.033 0.081 0.016 0.081s0.114-0.016 0.163-0.016c-0.961 0.407-1.922 0.813-2.866 1.204-0.016 0-0.016 0.016-0.033 0.016 1.433-1.383 2.769-2.912 4.023-4.458 1.515-1.903 2.883-3.937 4.104-6.036 0.684-1.171 1.352-2.391 1.922-3.628 0.049-0.114-0.114-0.228-0.212-0.146-2.085 1.838-4.12 3.725-5.993 5.775-1.857 2.099-3.599 4.295-5.147 6.605-0.423 0.634-0.847 1.285-1.254 1.952-0.277 0.456-0.586 0.911-0.847 1.399-0.195 0.081-0.375 0.163-0.57 0.228-0.016 0-0.049-0.016-0.065-0.016s-0.016 0.016 0 0.016c0.016 0 0.049 0 0.065 0-1.987 0.797-3.974 1.578-5.994 2.31 0.961-0.602 1.726-1.48 2.427-2.375 0.798-1.025 1.531-2.115 2.264-3.189 1.547-2.261 3.029-4.555 4.446-6.898 0.798-1.318 1.563-2.635 2.329-3.969 0.081-0.13-0.098-0.342-0.228-0.212-1.954 2.050-3.811 4.181-5.603 6.361-0.896 1.090-1.775 2.213-2.622 3.335-0.814 1.074-1.612 2.18-2.329 3.319-0.749 1.204-1.482 2.538-1.775 3.937-0.049 0.016-0.114 0.032-0.163 0.049-0.326 0-0.668 0.016-0.994 0.065-0.195 0.033-0.147 0.342 0.049 0.309 0.049 0 0.081-0.016 0.13-0.016-0.016 0-0.049 0.016-0.065 0.016-3.16 1.074-6.368 1.985-9.642 2.668-0.293 0.016-0.57 0.033-0.847 0.065-0.065 0-0.049 0.098 0.016 0.098-0.179 0.033-0.358 0.065-0.537 0.098-0.163-0.016-0.309-0.033-0.472-0.049-0.13-0.016-0.212 0.081-0.212 0.179-2.052 0.358-4.137 0.602-6.222 0.716 0.081-0.098 0.147-0.212 0.228-0.309 0.603-0.146 1.189-0.309 1.791-0.488-0.147 0.13-0.277 0.244-0.423 0.374-0.033 0.016 0.016 0.065 0.033 0.049 0.163-0.146 0.326-0.293 0.489-0.456 0.765-0.244 1.531-0.504 2.296-0.781 2.345-0.895 4.625-1.968 6.857-3.14 0.814-0.423 1.629-0.862 2.443-1.301-0.016 0.065-0.033 0.146-0.049 0.212s0.081 0.13 0.114 0.065c0.098-0.146 0.179-0.293 0.261-0.456 1.287-0.7 2.573-1.399 3.86-2.115 0.277-0.146 0.554-0.309 0.831-0.472 0.212-0.114 0.065-0.439-0.163-0.342-0.765 0.342-1.515 0.7-2.264 1.090 0.586-0.667 1.14-1.399 1.678-2.115 0.733-0.96 1.433-1.952 2.101-2.961 1.336-2.034 2.573-4.132 3.681-6.296 0.635-1.236 1.221-2.489 1.759-3.774 0.065-0.146-0.147-0.228-0.228-0.114-1.743 2.131-3.502 4.262-5.147 6.459s-3.208 4.458-4.528 6.865c-0.375 0.667-0.717 1.35-1.059 2.034-0.179 0.358-0.358 0.732-0.537 1.106-0.7 0.374-1.384 0.732-2.085 1.090-0.831 0.423-1.661 0.862-2.508 1.269 0.326-0.309 0.635-0.651 0.912-1.009 0.831-1.074 1.596-2.212 2.345-3.335 1.58-2.359 3.078-4.783 4.479-7.256 0.798-1.399 1.498-2.814 2.231-4.246 0.065-0.13-0.147-0.277-0.244-0.179-1.824 1.855-3.55 3.823-5.13 5.905-0.798 1.041-1.564 2.115-2.296 3.221-0.684 1.041-1.368 2.099-1.954 3.189-0.619 1.155-1.14 2.391-1.287 3.709-0.016 0.211 0.293 0.228 0.309 0.032 0.342-2.359 1.743-4.441 3.029-6.393 1.401-2.147 2.932-4.214 4.593-6.182 0.717-0.846 1.433-1.659 2.199-2.457-0.489 0.927-1.010 1.838-1.515 2.749-0.668 1.22-1.368 2.424-2.085 3.612-1.417 2.359-2.915 4.685-4.528 6.93-0.57 0.797-1.222 1.611-2.020 2.196-1.075 0.521-2.15 1.009-3.257 1.464s-2.248 0.862-3.388 1.22c0.472-0.358 0.912-0.732 1.319-1.155 0.472-0.456 0.912-0.927 1.368-1.415 0.879-0.96 1.726-1.968 2.524-2.993 1.612-2.099 3.029-4.344 4.235-6.686 0.684-1.334 1.287-2.701 1.824-4.083 0.081-0.228-0.228-0.374-0.375-0.195-1.694 2.294-3.388 4.62-5.065 6.914-1.694 2.31-3.355 4.637-5.016 6.947-0.456 0.651-0.88 1.318-1.352 1.952-0.261 0.358-0.521 0.7-0.765 1.057-0.603 0.163-1.205 0.293-1.808 0.423-2.036 0.39-4.137 0.569-6.205 0.456-0.195-0.016-0.375-0.032-0.57-0.065 0 0 0.016 0 0.016-0.016 0.733-0.83 1.726-1.269 2.752-1.643 1.042-0.39 2.068-0.781 3.029-1.35 1.922-1.155 3.534-2.814 4.87-4.604 0.375-0.521 0.733-1.041 1.059-1.594 0.163-0.26 0.326-0.537 0.472-0.813 0.163-0.277 0.342-0.569 0.472-0.879 0.081-0.211-0.261-0.407-0.375-0.195-0.049 0.065-0.081 0.146-0.13 0.211-0.309 0.488-0.717 0.927-1.124 1.35-0.472 0.472-0.977 0.927-1.466 1.383-1.026 0.944-2.036 1.903-3.062 2.831-1.287 1.171-2.573 2.359-4.023 3.319-0.863 0.277-1.791 0.602-2.443 1.236-0.668 0.244-1.368 0.39-2.085 0.439v0.016c0.668-0.033 1.335-0.146 1.954-0.342-0.098 0.114-0.195 0.228-0.277 0.342-0.049 0.081-0.049 0.163-0.016 0.228-0.717-0.081-1.417-0.179-2.134-0.309-0.098-0.016-0.179-0.032-0.277-0.065-1.042-0.244-2.052-0.586-3.046-0.96-0.244-0.098-0.489-0.179-0.733-0.277-0.098-0.049-0.179 0.114-0.098 0.179 0.163 0.114 0.326 0.212 0.505 0.309-0.684-0.195-1.352-0.407-2.020-0.634-0.195-0.065-0.391-0.13-0.586-0.195 0.195 0.081 0.375 0.163 0.57 0.244 0.44 0.179 0.896 0.342 1.352 0.504 0.44 0.146 0.879 0.293 1.319 0.423 1.547 0.748 3.274 1.155 4.951 1.367 0.44 0.049 0.88 0.081 1.335 0.114-0.049 0.081-0.016 0.211 0.114 0.211 2.182 0.13 4.267 0.716 6.303 1.497 2.052 0.781 4.039 1.724 6.091 2.473 2.248 0.813 4.577 1.399 6.922 1.887 2.068 0.439 4.153 0.911 6.254 1.123 2.068 0.211 4.235 0.049 6.042-1.074 0.13-0.081 0.081-0.293-0.081-0.277-3.534 0.456-7.068-0.228-10.489-1.090-3.811-0.96-7.59-2.034-11.368-3.172-1.091-0.325-2.182-0.651-3.257-0.976-0.668-0.212-1.352-0.39-2.020-0.586 2.541 0.016 5.098-0.179 7.622-0.537 0.717-0.098 1.433-0.228 2.15-0.358 3.909 0.456 7.834 0.96 11.661 1.92 3.648 0.911 7.362 2.082 11.173 1.708 1.873-0.179 3.697-0.748 5.261-1.822 0.147-0.098 0.065-0.39-0.13-0.39-3.648 0.163-7.313 0.098-10.961-0.195-1.824-0.146-3.632-0.358-5.44-0.618-1.775-0.26-3.518-0.602-5.293-0.895-0.977-0.163-1.954-0.293-2.948-0.358 2.052-0.472 4.088-1.041 6.091-1.676 1.026-0.325 2.052-0.667 3.078-1.025 0.977 0.098 1.922 0.358 2.866 0.651 1.531 0.488 3.046 0.976 4.609 1.35 3.192 0.781 6.482 1.253 9.772 1.399 1.547 0.065 3.225 0.016 4.495-0.96 0.163-0.114 0.033-0.39-0.163-0.358-1.498 0.325-3.046 0.065-4.544-0.114-1.661-0.195-3.322-0.423-4.984-0.667s-3.306-0.537-4.967-0.813c-1.612-0.277-3.225-0.586-4.837-0.878-0.261-0.049-0.521-0.081-0.782-0.114 1.824-0.651 3.632-1.35 5.423-2.066-0.016 0.146 0.179 0.228 0.277 0.098 0.033-0.049 0.065-0.098 0.114-0.146 0.016 0.033 0.049 0.049 0.081 0.065 1.612 0.634 3.306 1.074 5.016 1.367 1.694 0.293 3.404 0.439 5.114 0.407 3.127-0.049 6.238-0.618 9.137-1.79 1.629-0.651 3.176-1.48 4.593-2.489 0.114-0.098-0.097-0.358-0.276-0.244zM53.6 13.942c0.147-0.033 0.293-0.081 0.44-0.114 1.189-0.309 2.362-0.667 3.518-1.041 1.205-0.39 2.394-0.797 3.583-1.188 1.205-0.407 2.426-0.765 3.632-1.171 0.602-0.211 1.205-0.439 1.775-0.716 0.228-0.098 0.423-0.228 0.635-0.342-0.114 0.146-0.244 0.277-0.375 0.407-0.391 0.39-0.831 0.765-1.27 1.090-0.912 0.667-1.922 1.204-2.98 1.627-2.215 0.895-4.609 1.236-6.971 1.383-0.668 0.033-1.336 0.049-1.987 0.065zM33.225 14.853c0.651-1.188 1.352-2.359 2.101-3.498 1.498-2.31 3.16-4.506 4.853-6.67 0.749-0.96 1.531-1.903 2.296-2.847-1.857 4.148-4.153 8.069-6.792 11.762-0.668 0.927-1.401 1.822-2.068 2.749-0.521 0.26-1.042 0.537-1.563 0.813 0.065-0.163 0.147-0.325 0.228-0.472 0.309-0.618 0.619-1.236 0.945-1.838zM18.86 22.581c0.424-0.586 0.896-1.123 1.319-1.692 0.863-1.139 1.71-2.294 2.573-3.433 1.726-2.278 3.388-4.604 5.081-6.914 0.619-0.846 1.238-1.692 1.857-2.538-0.798 1.903-1.743 3.742-2.801 5.515-1.352 2.245-2.915 4.344-4.658 6.296-0.505 0.553-1.010 1.106-1.547 1.643-0.505 0.504-0.993 1.009-1.466 1.545-0.261 0.081-0.537 0.163-0.814 0.228 0.147-0.228 0.309-0.439 0.456-0.651zM13.192 21.458c0.88-0.667 1.71-1.383 2.541-2.131 1.059-0.944 2.117-1.871 3.192-2.814 0.586-0.521 1.173-1.009 1.743-1.546 0.033-0.033 0.065-0.065 0.081-0.081-0.212 0.358-0.44 0.7-0.668 1.041-0.635 0.944-1.335 1.871-2.15 2.684-0.782 0.797-1.661 1.513-2.606 2.099-0.879 0.537-1.824 0.911-2.818 1.236 0.228-0.163 0.456-0.325 0.684-0.488zM16.417 25.411c0.961 0.325 1.938 0.634 2.915 0.944 1.922 0.586 3.86 1.155 5.798 1.708 1.922 0.537 3.827 1.074 5.765 1.562 1.71 0.439 3.436 0.846 5.179 1.106 1.71 0.244 3.453 0.358 5.179 0.212-1.466 0.7-3.127 0.878-4.739 0.797-2.052-0.098-4.088-0.569-6.091-0.992-2.378-0.504-4.756-1.057-7.036-1.903-2.036-0.748-3.99-1.708-6.010-2.505-1.759-0.7-3.599-1.334-5.489-1.578 0.391 0 0.765-0.016 1.156-0.049 0.505 0.016 1.010 0.033 1.515 0.033 0.619 0.228 1.238 0.456 1.857 0.667zM16.010 24.354c0.537-0.098 1.059-0.212 1.596-0.325-0.049 0.065-0.098 0.13-0.13 0.195-0.016 0.033-0.016 0.049 0 0.081-0.505 0-0.977 0.033-1.466 0.049zM30.277 23.768c1.743 0.325 3.469 0.716 5.212 0.992 3.599 0.586 7.231 0.911 10.88 1.009 1.775 0.049 3.551 0.032 5.326-0.049-2.72 1.562-6.091 1.611-9.137 1.106-1.954-0.325-3.876-0.862-5.782-1.35-1.954-0.504-3.925-0.911-5.912-1.22-1.629-0.26-3.274-0.472-4.919-0.667 0.423-0.081 0.863-0.179 1.287-0.277 1.026 0.081 2.036 0.26 3.046 0.456zM37.313 19.88c-0.081 0.032-0.163 0.065-0.228 0.081-0.065 0-0.114 0.016-0.179 0.033 0.195-0.537 0.375-1.074 0.619-1.594 0.277-0.602 0.586-1.171 0.912-1.724 0.684-1.139 1.466-2.213 2.264-3.286 1.645-2.245 3.371-4.441 5.195-6.556 0.765-0.878 1.547-1.741 2.345-2.587-1.14 1.968-2.313 3.904-3.534 5.808-1.433 2.245-2.915 4.474-4.495 6.605-0.847 1.139-1.775 2.147-2.915 2.993-0.065 0.081-0.049 0.179 0.016 0.228zM39.153 20.368c1.564 0.293 3.127 0.651 4.691 0.944 3.257 0.618 6.547 1.090 9.837 1.497 1.303 0.163 2.655 0.39 3.974 0.309-0.961 0.39-2.085 0.407-3.111 0.374-1.629-0.065-3.241-0.212-4.853-0.439s-3.225-0.521-4.821-0.895c-1.564-0.374-3.078-0.846-4.609-1.301-0.814-0.244-1.645-0.472-2.492-0.618 0.016 0 0.033-0.016 0.049-0.016 0.456 0 0.896 0.065 1.336 0.146zM44.919 16.919c0.13-0.228 0.261-0.456 0.407-0.683 0.358-0.586 0.717-1.155 1.108-1.724 0.765-1.155 1.547-2.294 2.378-3.384 1.661-2.196 3.469-4.295 5.423-6.263 0.945-0.96 1.938-1.887 2.98-2.749-1.010 1.985-2.085 3.921-3.322 5.775-1.336 2.001-2.801 3.921-4.397 5.726-0.684 0.781-1.417 1.546-2.134 2.294-0.831 0.342-1.629 0.683-2.443 1.009zM59.658 18.757c-3.127 0.667-6.368 0.748-9.528 0.277-1.889-0.277-3.713-0.781-5.521-1.399 0.049-0.016 0.081-0.033 0.13-0.049 0.033 0 0.065 0.016 0.081 0.016 0.407 0.081 0.814 0.13 1.221 0.179 0.814 0.114 1.629 0.195 2.459 0.244 1.645 0.114 3.306 0.146 4.967 0.114 3.29-0.065 6.58-0.39 9.821-0.976 0.75-0.13 1.515-0.293 2.248-0.504-1.857 0.96-3.844 1.659-5.88 2.099z"></path>
<path d="M0.781 22.093c-0.212-0.098-0.44-0.179-0.651-0.26 0.195 0.098 0.423 0.195 0.651 0.26z"></path>
</svg>
