<!-- Generated by IcoMoon.io -->
<svg version="1.1" xmlns="http://www.w3.org/2000/svg" width="32" height="32" viewBox="0 0 32 32">
<title>free</title>
<path d="M24.333 3c-2.4-1.267-4.6-1.867-6.667-1.733s-3.6 1.133-4.6 3c-0.733 1.267-0.933 2.533-0.667 3.733s0.8 2.333 1.667 3.333c0.8 1 2 2.333 3.6 3.933 1.667 1.667 3 3.067 3.933 4.267s1.533 2.467 1.8 3.933c0.267 1.467 0 2.933-0.867 4.533-1.333 2.4-3.333 3.733-5.867 4-2.6 0.267-5.267-0.4-7.933-1.867-2-1.067-3.733-2.467-5.133-4.133s-2.4-3.467-3-5.4l1.2-0.467c0.6 1.867 1.533 3.533 2.8 5.067s2.867 2.8 4.8 3.8c2.467 1.333 4.8 1.867 7.067 1.733 2.267-0.2 3.933-1.267 5.067-3.333 0.733-1.267 0.933-2.533 0.667-3.8-0.267-1.2-0.867-2.4-1.667-3.467-0.867-1.067-2.067-2.4-3.6-3.933-1.667-1.667-2.933-3.133-3.8-4.333-0.933-1.2-1.533-2.467-1.8-3.867s0-2.867 0.8-4.333c1.267-2.267 3.067-3.467 5.467-3.667s4.867 0.4 7.533 1.8c2.733 1.467 5 3.533 6.6 6.2l-1.067 0.667c-1.533-2.333-3.6-4.2-6.333-5.667z"></path>
</svg>
