<!-- Generated by IcoMoon.io -->
<svg version="1.1" xmlns="http://www.w3.org/2000/svg" width="32" height="32" viewBox="0 0 32 32">
<title>free-delivery-1</title>
<path d="M5.010 16h5.091c0.15 0 0.294-0.047 0.4-0.13s0.166-0.196 0.166-0.314-0.060-0.231-0.166-0.314c-0.106-0.083-0.25-0.13-0.4-0.13h-5.091c-0.15 0-0.294 0.047-0.4 0.13s-0.166 0.196-0.166 0.314 0.060 0.231 0.166 0.314c0.106 0.083 0.25 0.13 0.4 0.13z"></path>
<path d="M12.741 17.778c0.157 0 0.308-0.047 0.419-0.13s0.174-0.196 0.174-0.314-0.062-0.231-0.174-0.314c-0.111-0.083-0.262-0.13-0.419-0.13h-7.704c-0.157 0-0.308 0.047-0.419 0.13s-0.174 0.196-0.174 0.314 0.062 0.231 0.174 0.314c0.111 0.083 0.262 0.13 0.419 0.13h7.704z"></path>
<path d="M29.348 15.717l-1.296-0.629-0.832-4.052c-0.072-0.348-0.265-0.66-0.548-0.885s-0.636-0.348-1.001-0.348h-4.93v-2.046c0-0.407-0.166-0.797-0.463-1.085s-0.698-0.45-1.117-0.45h-15.803c-0.419 0-0.821 0.162-1.117 0.45s-0.463 0.678-0.463 1.085v14.835c0 0.407 0.167 0.797 0.463 1.085s0.698 0.45 1.117 0.45h2.154c0.128 0.711 0.511 1.356 1.080 1.821s1.289 0.719 2.033 0.719c0.744 0 1.463-0.255 2.033-0.719s0.952-1.109 1.080-1.821h9.576c0.128 0.711 0.511 1.356 1.080 1.821s1.289 0.719 2.033 0.719c0.744 0 1.463-0.255 2.033-0.719s0.952-1.109 1.080-1.821h1.101c0.419 0 0.821-0.162 1.117-0.45s0.463-0.678 0.463-1.085v-5.504c-0-0.285-0.082-0.564-0.237-0.806s-0.375-0.438-0.638-0.565zM26.187 11.241l0.759 3.678h-4.098v-4.092h2.823c0.122 0 0.24 0.042 0.335 0.117s0.158 0.181 0.181 0.297zM2.831 22.592v-14.835c0-0.136 0.055-0.266 0.154-0.362s0.233-0.15 0.372-0.15h15.802c0.14 0 0.274 0.054 0.372 0.15s0.154 0.226 0.154 0.362v15.347h-7.949c-0.128-0.711-0.511-1.356-1.080-1.821s-1.289-0.719-2.033-0.719c-0.744 0-1.463 0.255-2.033 0.719s-0.952 1.109-1.080 1.821h-2.154c-0.14 0-0.274-0.054-0.372-0.15s-0.154-0.226-0.154-0.362zM8.626 25.662c-0.417 0-0.824-0.12-1.171-0.345s-0.617-0.544-0.776-0.918c-0.159-0.374-0.201-0.785-0.12-1.182s0.282-0.762 0.577-1.048 0.67-0.481 1.079-0.56c0.409-0.079 0.832-0.038 1.217 0.116s0.714 0.417 0.946 0.754c0.232 0.337 0.355 0.732 0.355 1.137 0 0.543-0.222 1.063-0.617 1.447s-0.931 0.599-1.49 0.599zM24.428 25.662c-0.417 0-0.824-0.12-1.171-0.345s-0.617-0.544-0.776-0.918c-0.159-0.374-0.201-0.785-0.12-1.182s0.282-0.762 0.577-1.048 0.67-0.481 1.079-0.56c0.409-0.079 0.832-0.038 1.217 0.116s0.714 0.417 0.946 0.754c0.231 0.337 0.355 0.732 0.355 1.137 0 0.543-0.222 1.063-0.617 1.447s-0.931 0.599-1.49 0.599zM29.169 22.592c0 0.136-0.055 0.266-0.154 0.362s-0.233 0.15-0.372 0.15h-1.101c-0.128-0.711-0.511-1.356-1.080-1.821s-1.289-0.719-2.033-0.719-1.463 0.255-2.033 0.719c-0.569 0.465-0.952 1.109-1.080 1.821h-0.574v-12.277h1.053v4.604c0 0.136 0.056 0.266 0.154 0.362s0.233 0.15 0.372 0.15h5.141l1.412 0.685c0.089 0.042 0.163 0.108 0.215 0.189s0.080 0.175 0.079 0.271v5.504z"></path>
<path d="M9.333 22.222c-0.264 0-0.521 0.052-0.741 0.15s-0.39 0.237-0.491 0.399c-0.101 0.162-0.127 0.341-0.076 0.514s0.178 0.331 0.365 0.455c0.186 0.124 0.424 0.209 0.683 0.243s0.527 0.017 0.77-0.051 0.452-0.181 0.598-0.327c0.146-0.146 0.225-0.318 0.225-0.494 0-0.236-0.14-0.462-0.39-0.629s-0.589-0.26-0.943-0.26z"></path>
<path d="M24 22.222c-0.176 0-0.348 0.052-0.494 0.15s-0.26 0.237-0.327 0.399-0.085 0.341-0.051 0.514c0.034 0.172 0.119 0.331 0.243 0.455s0.283 0.209 0.455 0.243 0.351 0.017 0.514-0.051c0.162-0.067 0.301-0.181 0.399-0.327s0.15-0.318 0.15-0.494c0-0.236-0.094-0.462-0.26-0.629s-0.393-0.26-0.629-0.26z"></path>
<path d="M24.444 16.889h-1.778c-0.118 0-0.231 0.047-0.314 0.13s-0.13 0.196-0.13 0.314 0.047 0.231 0.13 0.314c0.083 0.083 0.196 0.13 0.314 0.13h1.778c0.118 0 0.231-0.047 0.314-0.13s0.13-0.196 0.13-0.314-0.047-0.231-0.13-0.314c-0.083-0.083-0.196-0.13-0.314-0.13z"></path>
</svg>
