<!-- Generated by IcoMoon.io -->
<svg version="1.1" xmlns="http://www.w3.org/2000/svg" width="28" height="28" viewBox="0 0 28 28">
<title>fried-chicken</title>
<path d="M24.826 10.266h-0.747c-0.001-0.495-0.197-0.969-0.547-1.319s-0.824-0.547-1.319-0.547h-0.002c0.487-0.645 0.75-1.432 0.749-2.24 0-0.064-0.016-0.126-0.047-0.182s-0.076-0.102-0.13-0.136c-0.054-0.033-0.116-0.052-0.18-0.055s-0.127 0.011-0.184 0.039l-3.611 1.806c0.009-0.171 0.004-0.342-0.014-0.512l1.351-1.351c0.281 0.051 0.572-0.007 0.811-0.163s0.411-0.398 0.478-0.676c0.067-0.278 0.026-0.571-0.116-0.819s-0.373-0.433-0.647-0.516c-0.083-0.273-0.268-0.505-0.516-0.646s-0.541-0.183-0.819-0.116c-0.278 0.067-0.519 0.238-0.675 0.478s-0.215 0.529-0.164 0.811l-1.353 1.353c-0.461-0.053-1.001 0.004-1.599 0.173-0.974 0.276-1.97 0.821-2.538 1.389-0.175 0.175-0.328 0.371-0.454 0.584-0.616-0.311-1.285-0.534-1.885-0.625-0.309-0.050-0.624-0.059-0.935-0.028l-1.352-1.352c0.051-0.281-0.007-0.572-0.163-0.811s-0.398-0.411-0.676-0.478-0.571-0.026-0.819 0.116c-0.248 0.142-0.433 0.373-0.516 0.647-0.273 0.083-0.505 0.268-0.646 0.516s-0.183 0.541-0.116 0.819c0.067 0.278 0.238 0.519 0.477 0.675s0.53 0.215 0.811 0.164l1.352 1.352c-0.015 0.132-0.021 0.265-0.019 0.398 0.013 0.425 0.083 0.847 0.207 1.254h-1.368c-0.099 0-0.194 0.039-0.264 0.109s-0.109 0.165-0.109 0.264v1.493c0 0.099 0.039 0.194 0.109 0.264s0.165 0.109 0.264 0.109h1.171l0.447 3.041 0.739-0.109-0.431-2.933h14.070l-1.757 11.947h-6.771v0.747h7.094c0.090 0 0.176-0.032 0.244-0.091s0.112-0.14 0.125-0.228l1.82-12.375h1.171c0.099 0 0.194-0.039 0.264-0.109s0.109-0.165 0.109-0.264v-1.493c0-0.099-0.039-0.194-0.109-0.264s-0.165-0.109-0.264-0.109zM19.226 9.146h-0.373v0.747h0.373c0.807 0.001 1.593-0.261 2.238-0.747h0.749c0.297 0 0.582 0.118 0.792 0.328s0.328 0.495 0.328 0.792h-6.742c-0.004-0.359 0.152-0.768 0.62-1.002l4.933-2.467c-0.146 0.665-0.516 1.26-1.046 1.687s-1.191 0.66-1.872 0.661zM19.183 4.49c0.054-0.054 0.090-0.123 0.103-0.198s0.004-0.152-0.028-0.222c-0.022-0.048-0.033-0.099-0.032-0.152 0-0.099 0.039-0.194 0.109-0.264s0.165-0.109 0.264-0.109 0.194 0.039 0.264 0.109c0.070 0.070 0.109 0.165 0.109 0.264s0.039 0.194 0.109 0.264c0.070 0.070 0.165 0.109 0.264 0.109s0.194 0.039 0.264 0.109c0.070 0.070 0.109 0.165 0.109 0.264s-0.039 0.194-0.109 0.264c-0.070 0.070-0.165 0.109-0.264 0.109-0.052 0-0.104-0.011-0.152-0.032-0.069-0.032-0.147-0.041-0.222-0.028s-0.144 0.050-0.198 0.103l-1.232 1.232c-0.070-0.123-0.156-0.236-0.256-0.336s-0.213-0.186-0.337-0.255l1.232-1.232zM13.535 7.562c0.477-0.477 1.367-0.959 2.214-1.198 0.925-0.262 1.658-0.21 2.010 0.142 0.287 0.286 0.375 0.824 0.254 1.522l-1.136 0.568c-0.314 0.15-0.579 0.387-0.762 0.683s-0.277 0.639-0.271 0.987h-2.666c-0.247-0.427-0.345-0.924-0.281-1.413s0.289-0.943 0.637-1.291zM7.103 6.575c-0.054-0.054-0.123-0.090-0.198-0.103s-0.152-0.004-0.222 0.028c-0.048 0.022-0.099 0.033-0.152 0.032-0.099 0-0.194-0.039-0.264-0.109s-0.109-0.165-0.109-0.264c0-0.099 0.039-0.194 0.109-0.264s0.165-0.109 0.264-0.109c0.099 0 0.194-0.039 0.264-0.109s0.109-0.165 0.109-0.264 0.039-0.194 0.109-0.264 0.165-0.109 0.264-0.109c0.099 0 0.194 0.039 0.264 0.109s0.109 0.165 0.109 0.264c0 0.052-0.011 0.104-0.032 0.152-0.032 0.069-0.041 0.147-0.028 0.222s0.050 0.144 0.103 0.198l1.233 1.233c-0.248 0.139-0.453 0.344-0.593 0.591l-1.232-1.232zM9.119 7.999c0.559-0.56 1.976-0.292 3.135 0.304-0.19 0.646-0.157 1.338 0.096 1.963h-3.293c-0.345-1.023-0.325-1.879 0.063-2.267zM24.453 11.759h-17.174v-0.747h17.174v0.747z"></path>
<path d="M14.704 23.333h1.599c0.055 0.156 0.144 0.298 0.261 0.416s0.258 0.208 0.413 0.264c0.156 0.056 0.322 0.078 0.487 0.062s0.324-0.067 0.467-0.152c0.142-0.084 0.264-0.199 0.357-0.336s0.154-0.293 0.179-0.457c0.025-0.164 0.014-0.331-0.033-0.489s-0.129-0.305-0.239-0.428c0.11-0.123 0.192-0.27 0.239-0.428s0.058-0.326 0.033-0.489-0.086-0.319-0.179-0.457c-0.093-0.137-0.215-0.252-0.357-0.336s-0.302-0.136-0.466-0.152c-0.165-0.015-0.331 0.006-0.486 0.062s-0.297 0.147-0.413 0.264c-0.117 0.117-0.206 0.259-0.261 0.415h-1.599c-0.289-0.38-0.723-0.738-1.288-1.054-0.884-0.494-1.974-0.813-2.777-0.813-0.077 0-0.153 0.004-0.228 0.010l0.401-0.401c0.281 0.051 0.572-0.007 0.811-0.163s0.411-0.398 0.478-0.676 0.026-0.571-0.116-0.819c-0.142-0.248-0.373-0.433-0.647-0.516-0.083-0.273-0.268-0.505-0.516-0.646s-0.541-0.183-0.819-0.116c-0.278 0.067-0.519 0.238-0.675 0.477s-0.215 0.53-0.164 0.811l-1.353 1.353c-0.461-0.053-1.001 0.004-1.599 0.173-0.974 0.276-1.97 0.821-2.538 1.389-0.56 0.56-0.874 1.32-0.873 2.112s0.315 1.551 0.875 2.111 1.319 0.875 2.111 0.875c0.792 0 1.551-0.314 2.112-0.873 0.114-0.116 0.221-0.238 0.319-0.368 0.276 0.384 0.64 0.697 1.061 0.913s0.888 0.329 1.361 0.329c0.803 0 1.893-0.319 2.777-0.813 0.565-0.316 0.999-0.674 1.288-1.054zM16.613 21.84c0.099 0 0.194-0.039 0.264-0.109s0.109-0.165 0.109-0.264c0-0.074 0.022-0.146 0.063-0.207s0.099-0.109 0.168-0.138c0.068-0.028 0.143-0.036 0.216-0.021s0.139 0.050 0.191 0.102c0.052 0.052 0.088 0.119 0.102 0.191s0.007 0.147-0.021 0.216c-0.028 0.068-0.076 0.127-0.138 0.168s-0.134 0.063-0.207 0.063c-0.099 0-0.194 0.039-0.264 0.109s-0.109 0.165-0.109 0.264c0 0.099 0.039 0.194 0.109 0.264s0.165 0.109 0.264 0.109c0.074 0 0.146 0.022 0.207 0.063s0.109 0.099 0.138 0.168c0.028 0.068 0.036 0.143 0.021 0.216s-0.050 0.139-0.102 0.191-0.119 0.088-0.191 0.102c-0.072 0.014-0.147 0.007-0.216-0.021s-0.127-0.076-0.168-0.138c-0.041-0.061-0.063-0.134-0.063-0.207 0-0.099-0.039-0.194-0.109-0.264s-0.165-0.109-0.264-0.109h-1.539c0.060-0.245 0.060-0.501 0-0.747h1.539zM9.849 17.557c0.054-0.054 0.090-0.123 0.103-0.198s0.004-0.152-0.028-0.222c-0.022-0.048-0.033-0.099-0.032-0.152 0-0.099 0.039-0.194 0.109-0.264s0.165-0.109 0.264-0.109 0.194 0.039 0.264 0.109c0.070 0.070 0.109 0.165 0.109 0.264s0.039 0.194 0.109 0.264c0.070 0.070 0.165 0.109 0.264 0.109s0.194 0.039 0.264 0.109c0.070 0.070 0.109 0.165 0.109 0.264s-0.039 0.194-0.109 0.264c-0.070 0.070-0.165 0.109-0.264 0.109-0.052 0-0.104-0.011-0.152-0.032-0.069-0.032-0.147-0.041-0.222-0.028s-0.144 0.050-0.198 0.103l-1.232 1.232c-0.14-0.248-0.345-0.452-0.592-0.592l1.232-1.232zM7.369 23.797c-0.208 0.208-0.455 0.373-0.727 0.486s-0.563 0.171-0.857 0.171c-0.294 0-0.586-0.058-0.857-0.17s-0.519-0.278-0.727-0.486-0.373-0.455-0.486-0.727c-0.113-0.272-0.17-0.563-0.17-0.857s0.058-0.586 0.171-0.857c0.113-0.272 0.278-0.519 0.486-0.727 0.477-0.477 1.367-0.958 2.214-1.198 0.925-0.262 1.658-0.21 2.010 0.142 0.11 0.115 0.19 0.254 0.233 0.407-0.446 0.395-0.764 0.914-0.912 1.491s-0.12 1.185 0.080 1.746c-0.132 0.208-0.286 0.402-0.457 0.58zM13.052 23.735c-0.769 0.429-1.738 0.718-2.413 0.718-0.594 0-1.164-0.236-1.584-0.656s-0.656-0.99-0.656-1.584c0-0.594 0.236-1.164 0.656-1.584s0.99-0.656 1.584-0.656c0.675 0 1.644 0.289 2.413 0.718 0.84 0.469 1.321 1.024 1.321 1.522s-0.481 1.053-1.321 1.522z"></path>
</svg>
