<svg xmlns="http://www.w3.org/2000/svg" width="32" height="32"><path d="m10.4 2.061-.72.075c-2.577.272-4.608 1.248-5.808 2.79-.999 1.284-1.527 2.791-1.798 5.127-.04.347-.07 2.151-.086 5.147-.03 5.6.019 6.824.332 8.339.421 2.036 1.289 3.563 2.613 4.594 1.295 1.009 2.857 1.548 5.2 1.796.958.102 10.776.102 11.734 0 2.347-.248 3.902-.786 5.207-1.801 1.291-1.004 2.194-2.594 2.606-4.589.312-1.511.362-2.779.332-8.377-.025-4.665-.039-5.004-.253-6.255-.416-2.436-1.403-4.164-3.016-5.279-.816-.564-1.934-1.029-3.065-1.274-1.374-.297-1.283-.293-7.411-.303-3.124-.005-5.764-.001-5.867.01m12.135 1.444c1.937.316 3.223.878 4.145 1.811.96.97 1.501 2.21 1.814 4.149.103.642.113.957.132 4.122.012 1.884.007 3.426-.01 3.426s-.301-.23-.63-.512c-.66-.563-1.053-.816-1.55-.994-.286-.103-.437-.119-1.156-.119-.926 0-1.185.062-1.806.425-.176.104-1.648 1.329-3.271 2.722-1.901 1.633-3.046 2.58-3.22 2.663a2.318 2.318 0 0 1-1.366.198c-.514-.088-.851-.263-1.35-.7-.779-.682-1.512-.963-2.502-.962-.644.001-1.109.101-1.582.341-.193.098-1.679 1.07-3.302 2.16-1.623 1.091-2.969 1.964-2.992 1.941-.069-.071-.264-.906-.384-1.641-.109-.669-.114-.896-.133-6.108-.014-3.776-.001-5.615.041-6.08.413-4.532 2.297-6.459 6.774-6.928.249-.026 2.973-.043 6.053-.037 5.43.009 5.621.013 6.295.123M11.173 7.432c-.612.158-1.268.566-1.705 1.061-.282.32-.625.994-.725 1.427a4.163 4.163 0 0 0-.067.747c0 .576.082.929.346 1.483a3.314 3.314 0 0 0 1.495 1.495c.557.265.888.341 1.483.341.603 0 .932-.077 1.491-.349a3.293 3.293 0 0 0 1.487-1.487c.265-.557.341-.888.341-1.483 0-.597-.076-.927-.343-1.488-.349-.733-1.073-1.373-1.886-1.668-.394-.143-1.494-.188-1.917-.079m1.695 1.444c.365.185.767.594.948.964.113.231.131.341.131.827 0 .512-.014.586-.155.864-.403.795-1.21 1.223-2.083 1.105-.63-.085-1.196-.502-1.501-1.105-.141-.278-.155-.352-.155-.864 0-.515.013-.586.158-.871.199-.394.678-.843 1.054-.991.227-.09.38-.108.788-.098.44.011.548.034.815.169m13.361 8.006c.227.107.671.442 1.374 1.038l1.039.88-.022 1.52c-.017 1.177-.046 1.677-.13 2.215-.414 2.659-1.393 4.238-3.183 5.134-1.133.567-2.438.861-4.299.969-1.205.07-8.811.07-10.016 0-3.218-.186-5.198-1.039-6.303-2.716-.208-.315-.249-.411-.196-.461.161-.152 6.019-4.057 6.307-4.204.305-.156.351-.164.961-.164.615 0 .656.007.987.172.19.094.501.308.692.476.502.44.919.694 1.409.855.377.124.517.142 1.124.142.607 0 .747-.018 1.125-.142.236-.078.572-.234.746-.347.174-.112 1.624-1.327 3.223-2.698 1.598-1.372 3.002-2.544 3.12-2.605.4-.207.62-.252 1.173-.237.463.012.577.035.869.173" fill-rule="evenodd"/></svg>