<!-- Generated by IcoMoon.io -->
<svg version="1.1" xmlns="http://www.w3.org/2000/svg" width="32" height="32" viewBox="0 0 32 32">
<title>gift1</title>
<path d="M1.25 11.006v-4.755h26.249v4.755h-26.249zM-0.001 11.069c0 0.656 0.532 1.188 1.188 1.188h26.375c0.656 0 1.188-0.532 1.188-1.188v-4.881c0-0.656-0.532-1.188-1.188-1.188h-26.375c-0.656 0-1.188 0.532-1.188 1.188v4.881z"></path>
<path d="M2.009 27.626c0 1.036 0.84 1.876 1.876 1.876h12.989c0.346 0 0.626-0.28 0.626-0.626s-0.28-0.626-0.626-0.626h-12.989c-0.345 0-0.624-0.28-0.624-0.624v-15.368h22.227v2.394c0 0.346 0.28 0.626 0.626 0.626s0.626-0.28 0.626-0.626v-3.020c0-0.346-0.28-0.626-0.626-0.626h-23.479c-0.345 0-0.626 0.28-0.626 0.626v15.994z"></path>
<path d="M11.874 29.501c0.346 0 0.626-0.28 0.626-0.626v-6.47c0-0.346-0.28-0.626-0.626-0.626s-0.626 0.28-0.626 0.626v6.47c0 0.346 0.28 0.626 0.626 0.626z"></path>
<path d="M16.874 17.751c0.346 0 0.626-0.28 0.626-0.626v-5.494c0-0.346-0.28-0.626-0.626-0.626h-5c-0.346 0-0.626 0.28-0.626 0.626v5.149c0 0.345 0.28 0.626 0.626 0.626s0.626-0.28 0.626-0.626v-4.523h3.749v4.868c0 0.346 0.28 0.626 0.626 0.626z"></path>
<path d="M11.249 11.632c0 0.345 0.28 0.626 0.626 0.626h5c0.346 0 0.626-0.28 0.626-0.626v-6.006c0-0.346-0.28-0.626-0.626-0.626h-5c-0.346 0-0.626 0.28-0.626 0.626v6.006zM12.5 11.006v-4.755h3.749v4.755h-3.749z"></path>
<path d="M11.249 5.626c0 0.346 0.28 0.626 0.626 0.626h5c0.346 0 0.626-0.28 0.626-0.626v-1c0-1.726-1.399-3.126-3.126-3.126s-3.126 1.399-3.126 3.126v1zM12.5 5v-0.374c0-1.035 0.839-1.874 1.874-1.874s1.874 0.839 1.874 1.874v0.374h-3.749z"></path>
<path d="M6.249 3.126c0 1.726 1.399 3.126 3.126 3.126h2.5c0.346 0 0.626-0.28 0.626-0.626v-2.5c0-1.726-1.399-3.126-3.126-3.126s-3.126 1.399-3.126 3.126zM9.374 5c-1.035 0-1.874-0.839-1.874-1.874s0.839-1.874 1.874-1.874c1.035 0 1.874 0.839 1.874 1.874v1.874h-1.874z"></path>
<path d="M3.773 1.888c0 2.41 1.954 4.364 4.364 4.364h3.738c0.346 0 0.626-0.28 0.626-0.626s-0.28-0.626-0.626-0.626h-3.738c-1.719 0-3.112-1.393-3.112-3.112 0-0.346-0.28-0.626-0.626-0.626s-0.626 0.28-0.626 0.626z"></path>
<path d="M16.249 5.626c0 0.346 0.28 0.626 0.626 0.626h2.5c1.726 0 3.126-1.399 3.126-3.126s-1.399-3.126-3.126-3.126c-1.726 0-3.126 1.399-3.126 3.126v2.5zM17.5 5v-1.874c0-1.035 0.839-1.874 1.874-1.874s1.874 0.839 1.874 1.874c0 1.035-0.839 1.874-1.874 1.874h-1.874z"></path>
<path d="M16.249 5.626c0 0.346 0.28 0.626 0.626 0.626h3.738c2.41 0 4.364-1.954 4.364-4.364 0-0.346-0.28-0.626-0.626-0.626s-0.626 0.28-0.626 0.626c0 1.719-1.393 3.112-3.112 3.112h-3.738c-0.346 0-0.626 0.28-0.626 0.626z"></path>
<path d="M23 30.75c-4.28 0-7.749-3.47-7.749-7.749s3.469-7.749 7.749-7.749c4.28 0 7.749 3.47 7.749 7.749s-3.47 7.749-7.749 7.749zM13.999 23.001c0 4.971 4.030 9.001 9.001 9.001s9.001-4.030 9.001-9.001-4.030-9.001-9.001-9.001c-4.971 0-9.001 4.030-9.001 9.001z"></path>
<path d="M21.052 27.094c0.311 0.151 0.685 0.021 0.836-0.29l3.439-7.082c0.151-0.311 0.021-0.685-0.289-0.836s-0.685-0.021-0.836 0.289l-3.439 7.082c-0.151 0.311-0.021 0.685 0.289 0.836z"></path>
<path d="M20.536 20.481c-0.293 0.293-0.767 0.293-1.060 0h-0c-0.293-0.293-0.293-0.767 0-1.060s0.767-0.293 1.060 0c0.293 0.293 0.293 0.768 0 1.060zM21.42 21.366c-0.781 0.781-2.048 0.781-2.83 0l-0-0z"></path>
<path d="M26.635 26.581c-0.293 0.293-0.768 0.293-1.060 0l-0-0c-0.293-0.293-0.293-0.767 0-1.060s0.767-0.293 1.060 0c0.293 0.293 0.293 0.768 0 1.060zM27.52 27.465c-0.781 0.781-2.048 0.781-2.83 0h-0z"></path>
</svg>
