<!-- Generated by IcoMoon.io -->
<svg version="1.1" xmlns="http://www.w3.org/2000/svg" width="32" height="32" viewBox="0 0 32 32">
<title>global</title>
<path d="M28.847 8.266v-0.014h-0.008c-2.631-4.343-7.401-7.252-12.839-7.252-8.271 0-15 6.729-15 15 0 2.824 0.785 5.467 2.147 7.725v0.023h0.014c2.631 4.343 7.401 7.252 12.839 7.252 8.271 0 15-6.729 15-15-0-2.827-0.788-5.474-2.153-7.734l0 0zM18.527 29.776c-0.662 0.121-1.34 0.196-2.031 0.22v-6.247h6.38c-0.986 2.773-2.499 4.937-4.348 6.027l-0-0zM9.125 23.749h6.379v6.247c-0.69-0.024-1.368-0.099-2.030-0.22-1.849-1.091-3.362-3.254-4.349-6.028l0 0zM13.473 2.225c0.662-0.121 1.341-0.196 2.032-0.22v6.247h-6.379c0.986-2.772 2.498-4.936 4.347-6.027l-0 0zM22.875 8.253h-6.379v-6.247c0.692 0.024 1.37 0.099 2.032 0.22 1.849 1.091 3.361 3.254 4.346 6.027l0-0zM23.198 9.245c0.561 1.894 0.889 4.023 0.931 6.26h-7.633v-6.26h6.701zM15.504 9.245v6.26h-7.633c0.042-2.237 0.37-4.366 0.931-6.26h6.701zM6.88 15.505h-4.875c0.079-2.263 0.696-4.392 1.729-6.26h4.046c-0.543 1.917-0.86 4.041-0.901 6.26h0zM6.88 16.497c0.041 2.219 0.358 4.343 0.901 6.26h-4.046c-1.033-1.868-1.65-3.997-1.729-6.26h4.875zM7.871 16.497h7.633v6.26h-6.702c-0.561-1.894-0.888-4.023-0.931-6.26h-0zM16.496 22.757v-6.26h7.633c-0.043 2.237-0.37 4.365-0.931 6.26h-6.702zM25.121 16.497h4.875c-0.079 2.263-0.696 4.391-1.729 6.26h-4.046c0.543-1.917 0.859-4.040 0.901-6.26h-0zM25.121 15.505c-0.041-2.219-0.358-4.343-0.901-6.26h4.046c1.033 1.869 1.65 3.997 1.729 6.26h-4.874zM27.663 8.253h-3.75c-0.735-2.176-1.775-4.034-3.043-5.386 2.792 1.038 5.165 2.943 6.793 5.386h0zM11.132 2.867c-1.268 1.352-2.308 3.21-3.043 5.386h-3.751c1.628-2.443 4.001-4.347 6.794-5.386h-0zM4.337 23.749h3.751c0.735 2.176 1.775 4.034 3.044 5.386-2.793-1.039-5.166-2.944-6.795-5.386h-0zM20.869 29.135c1.268-1.351 2.308-3.21 3.044-5.386h3.75c-1.628 2.442-4.002 4.347-6.794 5.386h0z"></path>
</svg>
