<!-- Generated by IcoMoon.io -->
<svg version="1.1" xmlns="http://www.w3.org/2000/svg" width="32" height="32" viewBox="0 0 32 32">
<title>gmo</title>
<path d="M25.387 7.947c-0.8-4.587-4.693-7.947-9.387-7.947s-8.587 3.36-9.387 7.947c-2.933 0.8-5.013 3.52-5.013 6.667 0 3.84 3.093 6.987 6.933 6.987 0.64 0 1.333-0.107 1.973-0.267 0.64 0.853 1.387 1.493 2.293 1.973l-0.533 3.947h-2.293v1.76h11.787v-1.76h-2.027l-0.48-3.947c0.907-0.48 1.707-1.173 2.293-1.973 0.64 0.213 1.28 0.267 1.973 0.267 3.787 0 6.933-3.147 6.933-6.987-0.053-3.147-2.133-5.867-5.067-6.667zM14.027 27.253l0.96-7.84c0.053-0.267-0.053-0.533-0.267-0.747l-3.52-3.307 0.48-0.48 2.24 2.080c0.267 0.213 0.64 0.32 0.96 0.16s0.533-0.48 0.533-0.8v-4.747h1.28v4.747c0 0.373 0.213 0.693 0.533 0.8 0.32 0.16 0.693 0.053 0.96-0.213l2.080-2.080 0.427 0.48-3.36 3.413c-0.213 0.213-0.267 0.48-0.267 0.747l0.96 7.84h-4zM23.467 19.84c-0.693 0-1.333-0.107-1.973-0.373-0.373-0.16-0.853 0-1.067 0.373-0.373 0.64-0.853 1.173-1.44 1.6l-0.213-1.76 3.68-3.733c0.16-0.16 0.267-0.373 0.267-0.64 0-0.213-0.107-0.48-0.267-0.64l-1.653-1.707c-0.32-0.32-0.907-0.32-1.227 0l-1.173 1.173v-3.467c0-0.48-0.373-0.853-0.853-0.853h-2.987c-0.48 0-0.853 0.373-0.853 0.853v3.627l-1.387-1.28c-0.32-0.32-0.853-0.32-1.173 0.053l-1.707 1.707c-0.16 0.16-0.267 0.373-0.267 0.64 0 0.213 0.107 0.48 0.267 0.64l3.84 3.68-0.213 1.76c-0.587-0.427-1.067-0.96-1.44-1.6-0.16-0.267-0.427-0.427-0.747-0.427-0.107 0-0.213 0-0.32 0.053-0.64 0.267-1.28 0.373-1.973 0.373-2.88 0-5.173-2.347-5.173-5.227 0-2.507 1.76-4.693 4.213-5.12 0.373-0.053 0.693-0.373 0.693-0.747 0.427-4 3.733-6.987 7.733-6.987s7.307 2.987 7.733 6.987c0.053 0.373 0.32 0.693 0.693 0.747 2.453 0.48 4.213 2.613 4.213 5.12-0.053 2.827-2.347 5.173-5.227 5.173zM18.56 32h1.973v-1.76h-1.973zM11.253 32h5.813v-1.76h-5.813z"></path>
</svg>
