<!-- Generated by IcoMoon.io -->
<svg version="1.1" xmlns="http://www.w3.org/2000/svg" width="32" height="32" viewBox="0 0 32 32">
<title>green-house-1</title>
<path d="M29.923 26.77c-0.053-1.038-1.145-1.817-2.146-1.503-0.082 0.024-0.15 0.079-0.191 0.153s-0.051 0.162-0.027 0.243c0.024 0.082 0.079 0.15 0.153 0.191s0.162 0.051 0.243 0.027c0.173-0.051 0.356-0.055 0.531-0.012 0.696 0.16 1.031 1.008 0.625 1.592-0.036 0.055-0.055 0.12-0.054 0.186s0.023 0.13 0.062 0.183c0.031 0.052 0.048 0.111 0.048 0.172s-0.015 0.12-0.045 0.173c-0.030 0.052-0.074 0.096-0.126 0.126s-0.112 0.045-0.173 0.045h-2.61c0.996-2.157 0.859-4.739 0.698-6.038-0.015-0.125-0.067-0.242-0.148-0.338s-0.188-0.166-0.308-0.202c-0.12-0.036-0.248-0.036-0.369-0.001s-0.228 0.105-0.309 0.201c-0.801 0.938-2.927 3.082-5.362 2.744-2.784-0.405-4.676 1.536-4.394 3.635h-1.97v-5.448c0-0.090 0.036-0.177 0.1-0.241s0.151-0.1 0.241-0.1h3.241c0.090 0 0.177 0.036 0.241 0.1s0.1 0.15 0.1 0.241v0.83c0.014 0.423 0.626 0.424 0.64 0v-0.83c-0-0.26-0.104-0.509-0.288-0.693s-0.433-0.287-0.693-0.287h-3.241c-0.26 0-0.509 0.104-0.693 0.287s-0.287 0.433-0.288 0.693v5.448h-5.005c-0.107-0-0.21-0.041-0.288-0.114s-0.126-0.172-0.134-0.279l-0.634-8.715c1.576-1.96 6.704-8.337 8.186-10.181 0.057-0.071 0.13-0.129 0.212-0.168s0.173-0.060 0.264-0.060 0.182 0.021 0.264 0.060c0.082 0.039 0.155 0.097 0.212 0.168 1.261 1.568 6.818 8.48 8.186 10.181l-0.177 2.443c-0.018 0.422 0.594 0.468 0.638 0.046l0.128-1.758c0.255 0.312 0.613 0.524 1.010 0.597s0.806 0.005 1.157-0.195c0.954-0.515 1.156-1.779 0.461-2.6l-7.060-8.639v-2.625h2.651v4.618c0 0.085 0.034 0.166 0.094 0.226s0.141 0.094 0.226 0.094c0.085 0 0.166-0.034 0.226-0.094s0.094-0.141 0.094-0.226v-4.938c-0-0.027-0.004-0.054-0.011-0.080 1.846-1.29 1.965-3.234 1.952-3.843-0.002-0.069-0.018-0.136-0.047-0.198s-0.071-0.117-0.123-0.162-0.112-0.078-0.178-0.098c-0.066-0.020-0.135-0.026-0.203-0.018-0.675 0.077-1.322 0.312-1.889 0.686-0.035 0.023-0.066 0.053-0.089 0.088s-0.040 0.074-0.048 0.116c-0.008 0.041-0.008 0.084-0 0.126s0.025 0.081 0.048 0.116c0.024 0.035 0.054 0.065 0.089 0.088s0.075 0.039 0.116 0.047c0.041 0.008 0.084 0.008 0.126-0.001s0.081-0.025 0.115-0.049c0.435-0.287 0.927-0.477 1.442-0.557-0.021 0.718-0.282 2.421-2.144 3.42h-0.029c-0.023-0.653-0.139-1.3-0.344-1.921-0.838-2.482-2.956-3.43-3.585-3.662-0.072-0.026-0.148-0.037-0.224-0.032s-0.151 0.026-0.218 0.062c-0.068 0.036-0.127 0.085-0.174 0.145s-0.081 0.129-0.1 0.203c-0.675 2.687 0.575 4.497 1.594 5.469-0.003 0.018-0.005 0.037-0.006 0.056v2.162l-3.21-3.927c-0.117-0.144-0.265-0.259-0.433-0.339s-0.351-0.121-0.536-0.121-0.369 0.041-0.536 0.121c-0.168 0.079-0.315 0.195-0.433 0.339l-10.931 13.374c-0.696 0.82-0.41 2.157 0.563 2.618 0.347 0.171 0.742 0.219 1.12 0.139s0.718-0.287 0.965-0.585l0.584 8.031c0.009 0.119 0.038 0.237 0.087 0.346h-4.202c-0.061 0.001-0.12-0.015-0.173-0.045s-0.096-0.073-0.127-0.126-0.046-0.112-0.045-0.173c0.001-0.061 0.017-0.12 0.049-0.172 0.039-0.053 0.060-0.117 0.062-0.183s-0.017-0.13-0.054-0.185c-0.128-0.191-0.189-0.42-0.173-0.65 0.017-0.221 0.103-0.431 0.246-0.601s0.337-0.289 0.552-0.342c0.175-0.043 0.358-0.039 0.531 0.012 0.050 0.014 0.102 0.017 0.153 0.006s0.098-0.033 0.138-0.065c0.040-0.033 0.072-0.074 0.092-0.122s0.029-0.099 0.025-0.151c-0.034-0.435 0.097-0.867 0.367-1.211s0.659-0.572 1.090-0.641c0.042-0.007 0.082-0.021 0.118-0.043s0.067-0.051 0.092-0.085c0.025-0.034 0.043-0.073 0.052-0.114s0.011-0.084 0.005-0.125-0.022-0.082-0.044-0.117c-0.022-0.036-0.051-0.067-0.086-0.092s-0.073-0.042-0.114-0.052c-0.041-0.010-0.084-0.011-0.125-0.004-0.522 0.083-1.001 0.338-1.362 0.725s-0.582 0.883-0.628 1.409c-1.266-0.053-2.149 1.329-1.56 2.448-0.259 0.623 0.243 1.347 0.919 1.336h12.963c0.449 1.068 1.389 1.682 2.577 2.225 2.581 1.158 5.7 0.202 7.103-2.225h2.948c0.676 0.012 1.179-0.713 0.919-1.336 0.139-0.271 0.202-0.575 0.181-0.878zM19.199 0.922c1.458 0.547 3.342 2.205 3.409 4.944h-1.752c-0.917-0.794-2.242-2.43-1.658-4.944zM6.276 19.552c-0.555 0.695-1.704 0.432-1.885-0.447-0.034-0.158-0.032-0.321 0.005-0.477s0.111-0.303 0.213-0.427l10.931-13.374c0.057-0.070 0.13-0.127 0.211-0.165s0.171-0.059 0.262-0.059 0.18 0.020 0.262 0.059c0.082 0.039 0.154 0.095 0.211 0.165l10.91 13.348c0.443 0.527 0.332 1.306-0.281 1.638-0.221 0.126-0.481 0.169-0.731 0.122s-0.475-0.184-0.635-0.383l-8.762-10.897c-0.117-0.146-0.266-0.263-0.435-0.344s-0.353-0.123-0.541-0.123c-0.187 0-0.372 0.042-0.541 0.123s-0.317 0.198-0.435 0.344c-1.28 1.593-7.361 9.154-8.762 10.897zM23.67 30.343c-1.986 1.283-4.862 0.727-6.446-0.912 2.326 0.639 4.791-0.724 6.029-1.992 0.059-0.061 0.090-0.144 0.088-0.229s-0.038-0.165-0.099-0.224c-0.062-0.058-0.144-0.090-0.229-0.088s-0.165 0.038-0.224 0.099c-1.3 1.326-3.864 2.596-6.055 1.598-0.498-1.665 0.879-3.295 2.938-3.299 0.219 0.001 0.438 0.016 0.655 0.047 2.518 0.438 5.121-1.926 5.94-2.965 0.003 0 0.006 0.001 0.009 0.002 0.221 1.778 0.406 6.106-2.605 7.963z"></path>
<path d="M1.91 20.4c-2.014 0.053-2.013 3 0 3.053 2.013-0.053 2.013-3.001 0-3.053zM1.91 22.864c-1.232-0.022-1.232-1.853 0-1.875 1.232 0.022 1.232 1.854 0 1.875z"></path>
<path d="M27.043 12.775c0.539 0.089 1.392 0.954 1.476 1.477 0.095 0.325 0.592 0.321 0.679-0.006 0.001 0 0.001-0 0.001-0 0.073-0.535 0.931-1.397 1.469-1.472 0.327-0.089 0.33-0.59 0.003-0.68-0.528-0.079-1.39-0.937-1.47-1.47-0.093-0.299-0.588-0.299-0.68 0-0.076 0.533-0.936 1.395-1.474 1.472-0.327 0.087-0.33 0.586-0.004 0.679zM28.369 11.976c0.218-0.214 0.377-0.441 0.493-0.654 0.207 0.414 0.698 0.903 1.107 1.109-0.418 0.206-0.913 0.704-1.116 1.12-0.222-0.42-0.66-0.871-1.112-1.111 0.204-0.111 0.421-0.261 0.628-0.464z"></path>
<path d="M13.174 0.687c0.036 0.272-0.148 0.934 0.295 0.941 0.443-0.006 0.259-0.668 0.295-0.941 0.005-0.383-0.595-0.383-0.59 0z"></path>
<path d="M13.469 2.154c-0.44 0.005-0.26 0.664-0.295 0.933 0 0.163 0.132 0.295 0.295 0.295 0.441-0.005 0.26-0.664 0.295-0.933 0-0.163-0.132-0.295-0.295-0.295z"></path>
<path d="M14.717 1.592h-0.688c-0.382-0.006-0.382 0.595 0 0.589h0.688c0.382 0.006 0.382-0.595 0-0.59z"></path>
<path d="M12.913 1.592h-0.626c-0.383-0.006-0.383 0.595 0 0.589h0.626c0.382 0.006 0.383-0.595 0-0.59z"></path>
<path d="M13.434 13.988c-0.085 0-0.166 0.034-0.226 0.094s-0.094 0.141-0.094 0.226v4.005c0 0.228 0.091 0.447 0.252 0.608s0.38 0.252 0.608 0.252h4.075c0.228-0 0.447-0.091 0.608-0.252s0.252-0.38 0.252-0.608v-4.005c0-0.085-0.034-0.166-0.094-0.226s-0.141-0.094-0.226-0.094h-5.157zM13.754 14.628h4.517v0.611h-4.517v-0.611zM18.050 18.534h-4.075c-0.059-0-0.115-0.023-0.156-0.065s-0.065-0.098-0.065-0.156v-2.434h4.517v2.434c-0 0.059-0.023 0.115-0.065 0.156s-0.098 0.065-0.156 0.065z"></path>
</svg>
