<!-- Generated by IcoMoon.io -->
<svg version="1.1" xmlns="http://www.w3.org/2000/svg" width="28" height="28" viewBox="0 0 28 28">
<title>grinding</title>
<path d="M25.086 14.824h-3.291c0.043-0.276 0.086-0.55 0.128-0.832 0.22-1.961 0.668-3.89 1.333-5.748 1.579-0.107 2.858-1.325 3.041-2.897s-0.781-3.051-2.293-3.518c-1.512-0.467-3.143 0.21-3.879 1.612-0.534 1.005-0.502 2.216 0.082 3.192-1.157 1.604-2.496 3.066-3.992 4.359-1.345 1.252-2.614 2.44-3.454 3.833h-9.851c-0.68 0-1.232 0.552-1.232 1.232v0.821c0.002 0.526 0.339 0.993 0.837 1.161 0.159 4.598 3.442 6.379 5.322 6.61v0.44c0 0.68 0.552 1.232 1.232 1.232h9.855c0.68 0 1.232-0.551 1.232-1.232v-0.439c1.88-0.232 5.163-2.015 5.322-6.61 0.499-0.169 0.835-0.635 0.837-1.162v-0.821c0-0.68-0.552-1.232-1.232-1.232zM16.777 11.592c1.542-1.334 2.922-2.845 4.112-4.501 0.173-0.265 0.18-0.606 0.018-0.878-0.58-0.995-0.393-2.258 0.45-3.043s2.116-0.881 3.067-0.232c0.918 0.633 1.3 1.801 0.932 2.854-0.324 0.929-1.174 1.573-2.155 1.634-0.321 0.026-0.599 0.233-0.715 0.534-0.687 1.911-1.148 3.895-1.375 5.912-0.048 0.322-0.096 0.64-0.145 0.953h-7.232c0.899-1.181 1.919-2.264 3.043-3.233zM19.337 25.088c0 0.227-0.184 0.41-0.411 0.41h-9.855c-0.227 0-0.411-0.184-0.411-0.41v-0.411h10.676v0.411zM19.748 23.857h-11.498c-1.497 0-4.722-1.459-4.919-5.748h21.335c-0.196 4.289-3.421 5.748-4.918 5.748zM25.496 16.877c0 0.227-0.184 0.411-0.411 0.411h-22.174c-0.227 0-0.411-0.184-0.411-0.411v-0.821c0-0.227 0.184-0.41 0.411-0.41h22.174c0.227 0 0.411 0.184 0.411 0.41v0.821z"></path>
<path d="M4.345 19.44c0.114 0.466 0.291 0.915 0.525 1.334 0.115 0.189 0.36 0.253 0.553 0.144s0.264-0.351 0.162-0.548c-0.198-0.355-0.347-0.735-0.443-1.129-0.059-0.215-0.279-0.344-0.495-0.29s-0.35 0.271-0.301 0.488z"></path>
<path d="M6.385 22.386c0.283 0.183 0.586 0.334 0.903 0.449 0.045 0.016 0.092 0.024 0.139 0.024 0.199-0 0.369-0.144 0.404-0.34s-0.077-0.389-0.264-0.457c-0.259-0.094-0.507-0.217-0.739-0.367-0.124-0.080-0.28-0.089-0.412-0.021s-0.216 0.199-0.223 0.346c-0.007 0.147 0.066 0.287 0.19 0.366h0.002z"></path>
<path d="M1.68 7.023c0 1.577 2.385 3.277 4.435 3.687 1.027 0.205 1.789 1.036 2.247 1.697 0.158 0.229 0.42 0.365 0.698 0.365h0.017c0.033-0 0.066-0.003 0.098-0.007 0.317-0.040 0.585-0.254 0.694-0.555 0.403-1.141 0.653-2.33 0.743-3.536 0.011-0.043 0.014-0.088 0.011-0.132 0.085-1.106 0.022-2.219-0.188-3.309-0.003-0.025-0.009-0.049-0.017-0.073-0.15-0.81-0.459-1.582-0.908-2.272-0.445-0.727-1.228-1.179-2.080-1.203-1.235-0.072-2.419 0.503-3.125 1.519-0.11-0.316-0.244-0.623-0.401-0.918-0.169-0.308-0.469-0.521-0.816-0.579-0.37-0.071-0.752 0.029-1.040 0.272-0.276 0.232-0.41 0.592-0.352 0.948 0.065 0.361 0.314 0.662 0.657 0.793 0.334 0.138 0.645 0.326 0.923 0.556-1.033 0.324-1.594 1.268-1.594 2.746zM4.395 9.177c-0.079-1.119 0.424-2.201 1.33-2.862 0.569 0.534 1.080 1.127 1.524 1.769-0.593 0.422-0.923 1.124-0.869 1.85-0.035-0.008-0.067-0.021-0.103-0.028-0.663-0.139-1.299-0.385-1.883-0.729zM9.845 7.827c-0.57-0.288-1.233-0.327-1.833-0.11-0.471-0.701-1.018-1.348-1.63-1.93 0.924-0.803 2.268-0.897 3.294-0.229 0.135 0.749 0.192 1.509 0.17 2.269zM7.228 10.25c-0.121-0.881 0.203-1.29 0.456-1.469 0.454 0.796 0.759 1.668 0.9 2.573-0.381-0.448-0.84-0.821-1.355-1.103v-0.001zM9.371 11.052c-0.16-0.917-0.472-1.8-0.923-2.614 0.472-0.116 0.972 0.003 1.341 0.32-0.072 0.776-0.212 1.543-0.418 2.295v-0.001zM7.429 2.507c0.584 0.026 1.114 0.347 1.408 0.852 0.243 0.359 0.435 0.75 0.569 1.162-1.25-0.463-2.655-0.187-3.636 0.716-0.367-0.311-0.753-0.6-1.155-0.866 0.182-0.565 0.816-1.864 2.813-1.864zM2.504 2.795c-0.009-0.074 0.022-0.148 0.082-0.193 0.074-0.062 0.168-0.096 0.264-0.095 0.029 0 0.058 0.003 0.087 0.008 0.099 0.013 0.188 0.070 0.24 0.155 0.13 0.244 0.243 0.496 0.337 0.756-0.266-0.188-0.553-0.345-0.855-0.468-0.077-0.024-0.136-0.086-0.155-0.164zM4.030 4.973c0.371 0.241 0.728 0.504 1.068 0.787-0.884 0.698-1.433 1.736-1.514 2.859-0.66-0.542-1.083-1.14-1.083-1.596 0-1.743 0.841-2.025 1.529-2.050z"></path>
</svg>
