<svg width="24" height="24" fill="none" xmlns="http://www.w3.org/2000/svg"><path d="M5.516 1.282c-.707.063-1.527.36-2.169.786a5.044 5.044 0 0 0-1.47 1.59c-.244.434-.167.775.227 1.006.364.214.661.203.881-.033.067-.072.207-.26.309-.418.356-.544.976-1.034 1.606-1.267.5-.185.436-.183 5.011-.185l4.33-.001-.01 4.79-.011 4.79-.094.18a1.453 1.453 0 0 1-.586.592c-.192.101-.232.106-1.02.127-.753.019-.832.028-.96.108-.224.14-.3.304-.3.653 0 .349.076.513.3.653.133.083.184.087 1.02.086.723-.001.926-.014 1.137-.073.907-.254 1.675-1.013 1.948-1.926.066-.221.072-.51.085-3.61l.013-3.37h.657c1.122 0 1.182.045 2.008 1.488l.565.988-.187.025c-.447.06-.765.223-1.079.555a1.667 1.667 0 0 0-.448.891c-.051.307-.05 3.285.001 3.593.115.704.719 1.305 1.427 1.421.128.021.75.039 1.383.039h1.15v1.292c0 1.426-.017 1.56-.25 2.005a2.67 2.67 0 0 1-.409.524c-.462.462-.937.659-1.589.659-.273 0-.352-.012-.352-.055 0-.104-.317-.684-.499-.915-.488-.617-1.347-1.03-2.141-1.03s-1.653.413-2.141 1.03c-.182.231-.499.811-.499.915 0 .046-.228.055-1.36.055-1.132 0-1.36-.009-1.36-.055 0-.104-.317-.684-.499-.915-.488-.617-1.347-1.03-2.141-1.03s-1.653.413-2.141 1.03c-.182.231-.499.811-.499.915 0 .043-.079.055-.352.055-.651 0-1.125-.196-1.592-.659-.447-.443-.61-.834-.679-1.63-.041-.475-.265-.683-.737-.683-.593 0-.796.308-.717 1.087.049.49.129.792.317 1.193.399.855.94 1.406 1.78 1.813.509.247.75.309 1.43.368l.549.047.045.142c.177.562.708 1.173 1.316 1.514.714.4 1.846.4 2.56 0 .611-.343 1.138-.951 1.319-1.522l.047-.15h2.708l.047.15c.181.571.708 1.179 1.319 1.522.714.4 1.846.4 2.56 0 .608-.341 1.139-.952 1.316-1.514l.045-.142.549-.047c.68-.059.921-.121 1.43-.368.84-.407 1.381-.958 1.78-1.813.187-.399.267-.7.319-1.193.052-.496.052-5.28-.001-5.507-.021-.094-.361-.735-.755-1.423-.394-.689-.796-1.394-.894-1.568-.553-.986-1.875-3.272-1.982-3.427a2.704 2.704 0 0 0-1.098-.911c-.426-.198-.67-.242-1.476-.267l-.747-.024-.013-1.244c-.012-1.159-.018-1.253-.093-1.38a.652.652 0 0 0-.466-.327c-.216-.042-9.205-.037-9.678.005M1.787 7.278c-.342.068-.519.314-.519.722 0 .462.207.693.663.739.137.015 1.617.02 3.289.014 2.956-.013 3.044-.015 3.176-.093a.646.646 0 0 0 .327-.475c.069-.367-.054-.684-.327-.845-.133-.078-.214-.08-3.296-.086-1.738-.003-3.229.007-3.313.024m18.765 3.689.688 1.207v1.066h-1.16c-1.107 0-1.164-.004-1.24-.08-.077-.077-.08-.133-.08-1.66 0-1.914-.063-1.74.632-1.74h.472l.688 1.207m-18.765-.689c-.342.068-.519.314-.519.722 0 .462.207.692.663.74.137.014 1.167.02 2.289.013 1.956-.012 2.046-.016 2.176-.093.273-.161.396-.478.327-.845a.646.646 0 0 0-.327-.475c-.131-.077-.214-.08-2.296-.086-1.188-.004-2.229.007-2.313.024m0 2.999c-.343.07-.519.315-.519.723 0 .461.207.692.663.741.137.014.717.02 1.289.013.954-.013 1.051-.021 1.176-.094a.646.646 0 0 0 .327-.475c.069-.367-.054-.684-.327-.845-.127-.075-.215-.08-1.296-.087-.638-.004-1.229.007-1.313.024m6.739 5.6c.234.121.482.368.595.593.135.271.153.682.042.975a1.34 1.34 0 0 1-.709.714c-.644.241-1.379-.083-1.617-.714-.11-.292-.093-.712.04-.971.159-.308.47-.579.769-.67.22-.068.681-.029.88.073m8 0c.234.121.482.368.595.593.135.271.153.682.042.975a1.34 1.34 0 0 1-.709.714c-.644.241-1.379-.083-1.617-.714-.11-.292-.093-.712.04-.971.159-.308.47-.579.769-.67.22-.068.681-.029.88.073" fill-rule="evenodd" fill="#000"/></svg>