<!-- Generated by IcoMoon.io -->
<svg version="1.1" xmlns="http://www.w3.org/2000/svg" width="32" height="32" viewBox="0 0 32 32">
<title>guarranted</title>
<path d="M21 17.5c-0.814-0.001-1.594 0.33-2.16 0.916s-0.868 1.377-0.838 2.191c0.030 0.814 0.39 1.58 0.998 2.123v2.77c0 0.184 0.102 0.354 0.264 0.441s0.36 0.077 0.513-0.025l1.223-0.816 1.223 0.815c0.153 0.102 0.35 0.112 0.513 0.025s0.264-0.256 0.265-0.44v-2.77c0.607-0.543 0.967-1.309 0.998-2.123s-0.272-1.605-0.838-2.191c-0.566-0.586-1.345-0.917-2.16-0.916l-0-0zM22 24.566l-0.723-0.482c-0.168-0.112-0.387-0.112-0.555 0l-0.723 0.482v-1.241c0.646 0.233 1.354 0.233 2 0l0 1.241zM21 22.5c-0.53 0-1.039-0.211-1.414-0.586s-0.586-0.884-0.586-1.414c0-0.53 0.211-1.039 0.586-1.414s0.884-0.586 1.414-0.586 1.039 0.211 1.414 0.586c0.375 0.375 0.586 0.884 0.586 1.414s-0.211 1.039-0.586 1.414c-0.375 0.375-0.884 0.586-1.414 0.586z"></path>
<path d="M12.5 6h6.5v1h-6.5v-1z"></path>
<path d="M8 9h16v1h-16v-1z"></path>
<path d="M8 12h11v1h-11v-1z"></path>
<path d="M21 12h3v1h-3v-1z"></path>
<path d="M8 15h16v1h-16v-1z"></path>
<path d="M8 18h6v1h-6v-1z"></path>
<path d="M8 20.5h2.5v1h-2.5v-1z"></path>
<path d="M12.5 20.5h1.5v1h-1.5v-1z"></path>
<path d="M28.5 1h-21c-0.663 0.001-1.298 0.264-1.767 0.733s-0.732 1.104-0.733 1.767v23.5h-3.5c-0.276 0-0.5 0.224-0.5 0.5v1c0.001 0.663 0.264 1.298 0.733 1.767s1.104 0.732 1.767 0.733h21c0.663-0.001 1.298-0.265 1.767-0.733s0.732-1.104 0.733-1.767v-23.5h3.5c0.133 0 0.26-0.053 0.354-0.146s0.146-0.221 0.146-0.354v-1c-0.001-0.663-0.265-1.298-0.733-1.767s-1.104-0.732-1.767-0.733zM3.5 30c-0.398 0-0.78-0.158-1.061-0.439s-0.439-0.663-0.439-1.061v-0.5h20v0.5c-0.001 0.541 0.175 1.068 0.5 1.5l-19-0zM26 28.5c0 0.536-0.286 1.031-0.75 1.299s-1.036 0.268-1.5 0c-0.464-0.268-0.75-0.763-0.75-1.299v-1c0-0.133-0.053-0.26-0.146-0.354s-0.221-0.146-0.354-0.146h-16.5v-23.5c0-0.398 0.158-0.78 0.439-1.061s0.663-0.439 1.061-0.439h19c-0.014 0.019-0.025 0.042-0.038 0.061-0.029 0.042-0.055 0.085-0.082 0.129h-0c-0.052 0.084-0.1 0.171-0.142 0.261-0.023 0.050-0.044 0.1-0.064 0.15h0c-0.037 0.097-0.068 0.197-0.093 0.298-0.012 0.047-0.026 0.092-0.035 0.14-0.030 0.152-0.045 0.307-0.046 0.462l0 25zM30 4h-3v-0.5c0-0.536 0.286-1.031 0.75-1.299s1.036-0.268 1.5 0c0.464 0.268 0.75 0.763 0.75 1.299v0.5z"></path>
</svg>
