<!-- Generated by IcoMoon.io -->
<svg version="1.1" xmlns="http://www.w3.org/2000/svg" width="28" height="28" viewBox="0 0 28 28">
<title>hamburger</title>
<path d="M25.846 13.282c0-5.543-4.65-10.051-10.365-10.051h-2.962c-5.716 0-10.365 4.509-10.365 10.051 0 0.263 0.222 0.479 0.494 0.479h0.548c-0.010 0.010-0.020 0.014-0.025 0.024-0.479 0.46-0.795 1.034-0.923 1.656-0.039 0.072-0.069 0.148-0.069 0.235 0 0.024 0.010 0.048 0.015 0.072-0.020 0.134-0.039 0.268-0.039 0.407 0 0.938 0.4 1.785 1.041 2.393h-0.548c-0.271 0-0.494 0.215-0.494 0.479 0 3.169 2.656 5.744 5.923 5.744h11.846c1.584 0 3.070-0.598 4.191-1.68 1.115-1.087 1.732-2.527 1.732-4.064 0-0.263-0.222-0.479-0.494-0.479h-0.548c0.010-0.010 0.020-0.014 0.025-0.024 0.479-0.46 0.79-1.034 0.923-1.656 0.040-0.072 0.069-0.148 0.069-0.235 0-0.024-0.010-0.048-0.015-0.072 0.020-0.134 0.040-0.268 0.040-0.407 0-0.938-0.4-1.785-1.041-2.393h0.548c0.271 0 0.494-0.215 0.494-0.479zM18.358 16.364c-0.005 0.005-0.010 0.009-0.010 0.019l-2.261 3.484-0.395-1.020c0-0.005-0.005-0.010-0.005-0.014l-1.965-5.073h6.328l-1.693 2.604zM12.662 13.761l0.824 2.125c-0.291 0.158-0.592 0.268-1.111 0.268-0.676 0-0.982-0.182-1.367-0.412-0.434-0.258-0.928-0.546-1.876-0.546-0.953 0-1.446 0.292-1.881 0.55-0.385 0.23-0.691 0.407-1.362 0.407-0.676 0-0.982-0.182-1.367-0.407-0.316-0.187-0.666-0.392-1.194-0.488 0.123-0.292 0.301-0.565 0.538-0.795 0.464-0.45 1.081-0.699 1.742-0.699l7.053-0.005zM3.146 16.197c0.355 0.067 0.587 0.201 0.864 0.364 0.434 0.258 0.928 0.55 1.881 0.55 0.948 0 1.441-0.292 1.876-0.546 0.385-0.23 0.691-0.412 1.367-0.412 0.671 0 0.977 0.182 1.362 0.407 0.434 0.258 0.928 0.55 1.881 0.55 0.666 0 1.106-0.144 1.461-0.321l0.681 1.757h-8.909c-1.347 0-2.438-1.053-2.463-2.35zM24.834 19.504c-0.114 1.101-0.607 2.116-1.422 2.905-0.933 0.905-2.172 1.402-3.49 1.402h-11.846c-2.557 0-4.664-1.891-4.911-4.308h11.723l0.622 1.603c0.064 0.172 0.227 0.287 0.415 0.306h0.049c0.168 0 0.326-0.081 0.42-0.225l1.096-1.69 7.345 0.005zM18.107 18.547l0.938-1.441c0.829-0.033 1.288-0.302 1.693-0.541 0.385-0.23 0.691-0.407 1.367-0.407s0.982 0.182 1.367 0.407c0.316 0.187 0.666 0.393 1.199 0.488-0.123 0.292-0.301 0.565-0.538 0.794-0.464 0.45-1.081 0.699-1.742 0.699h-4.284zM24.854 16.111c-0.355-0.067-0.592-0.206-0.869-0.369-0.434-0.258-0.928-0.55-1.881-0.55s-1.446 0.292-1.881 0.55c-0.153 0.091-0.296 0.172-0.454 0.244l1.441-2.226h1.18c1.347 0 2.438 1.053 2.463 2.35zM3.156 12.803c0.257-4.791 4.358-8.615 9.363-8.615h2.962c5.005 0 9.107 3.824 9.363 8.615h-21.688z"></path>
<path d="M9.503 6.844c-0.123-0.235-0.42-0.33-0.661-0.215l-0.987 0.479c-0.242 0.12-0.341 0.407-0.222 0.641 0.089 0.168 0.262 0.263 0.444 0.263 0.074 0 0.148-0.014 0.222-0.053l0.987-0.479c0.242-0.11 0.341-0.397 0.217-0.637z"></path>
<path d="M11.216 9.391l-1.056-0.311c-0.262-0.077-0.538 0.067-0.617 0.316-0.079 0.254 0.069 0.522 0.326 0.598l1.056 0.311c0.049 0.014 0.099 0.019 0.143 0.019 0.212 0 0.405-0.134 0.474-0.34 0.084-0.249-0.064-0.517-0.326-0.593z"></path>
<path d="M7.080 9.932l-0.726 0.809c-0.178 0.201-0.158 0.503 0.049 0.675 0.094 0.077 0.207 0.12 0.326 0.12 0.138 0 0.276-0.057 0.375-0.163l0.726-0.809c0.178-0.201 0.158-0.503-0.049-0.675-0.212-0.177-0.523-0.158-0.701 0.043z"></path>
<path d="M13.166 6.696c0.198 0 0.385-0.12 0.464-0.311 0.094-0.249-0.035-0.522-0.286-0.617l-1.032-0.378c-0.257-0.091-0.538 0.034-0.637 0.278-0.094 0.249 0.034 0.522 0.286 0.617l1.032 0.378c0.059 0.024 0.118 0.033 0.173 0.033z"></path>
<path d="M14.35 8.051c-0.064-0.258-0.331-0.416-0.597-0.354s-0.429 0.321-0.365 0.579l0.257 1.039c0.054 0.22 0.257 0.369 0.479 0.369 0.040 0 0.079-0.005 0.114-0.014 0.267-0.062 0.429-0.321 0.365-0.579l-0.252-1.039z"></path>
<path d="M17.144 7.266c0.247-0.11 0.36-0.392 0.247-0.632l-0.449-0.976c-0.114-0.239-0.405-0.349-0.652-0.239s-0.36 0.392-0.247 0.632l0.449 0.976c0.084 0.177 0.262 0.282 0.449 0.282 0.064 0 0.133-0.014 0.202-0.043z"></path>
<path d="M20.54 6.849c-0.252-0.101-0.543 0.019-0.642 0.263l-0.415 0.991c-0.104 0.244 0.020 0.522 0.271 0.622 0.059 0.024 0.123 0.033 0.183 0.033 0.197 0 0.38-0.115 0.459-0.302l0.415-0.991c0.104-0.239-0.020-0.522-0.271-0.617z"></path>
<path d="M18.625 8.998c-0.143-0.225-0.449-0.292-0.681-0.148l-0.933 0.57c-0.232 0.139-0.301 0.436-0.153 0.661 0.094 0.144 0.257 0.225 0.419 0.225 0.089 0 0.183-0.024 0.262-0.072l0.933-0.57c0.232-0.148 0.301-0.44 0.153-0.665z"></path>
<path d="M19.346 10.793l-1.071-0.258c-0.267-0.062-0.533 0.091-0.597 0.349s0.094 0.517 0.36 0.579l1.071 0.258c0.039 0.010 0.079 0.014 0.118 0.014 0.222 0 0.424-0.144 0.479-0.364 0.064-0.258-0.099-0.517-0.36-0.579z"></path>
<path d="M21.448 9.96l-0.484 0.962c-0.118 0.239-0.015 0.522 0.227 0.641 0.069 0.033 0.143 0.048 0.217 0.048 0.183 0 0.36-0.1 0.444-0.268l0.484-0.962c0.118-0.239 0.015-0.522-0.227-0.641-0.247-0.12-0.543-0.019-0.661 0.22z"></path>
<path d="M13.882 10.98l-1.091-0.168c-0.267-0.038-0.523 0.139-0.563 0.397-0.044 0.263 0.143 0.507 0.41 0.546l1.091 0.167c0.025 0.005 0.049 0.005 0.079 0.005 0.237 0 0.449-0.168 0.489-0.407 0.040-0.258-0.143-0.503-0.415-0.541z"></path>
</svg>
