<!-- Generated by IcoMoon.io -->
<svg version="1.1" xmlns="http://www.w3.org/2000/svg" width="32" height="32" viewBox="0 0 32 32">
<title>hand</title>
<path d="M31.141 4.675c-0.081 0.063-2.002 1.551-2.987 3.056-0.512 0.787-0.745 1.754-0.992 2.778-0.245 1.017-0.498 2.068-1.044 3.049-0.193 0.35-0.609 1.004-1.091 1.761-1.050 1.648-2.487 3.904-3.298 5.625-0.311 0.659-0.685 1.525-1.081 2.441-1.047 2.419-2.48 5.732-3.322 6.469-0.49 0.427-0.928 0.465-1.127 0.32-0.138-0.1-0.156-0.308-0.048-0.556 0.415-0.958 2.047-6.083 2.613-7.87 0.052 0.002 0.099 0.007 0.154 0.007 0.147 0 0.307-0.009 0.475-0.032 0.292-0.040 0.496-0.309 0.456-0.601-0.041-0.292-0.31-0.499-0.601-0.456-0.315 0.043-0.591 0.016-0.767-0.015-0.015-0.003-0.030-0.005-0.045-0.006-0.060-0.009-0.112-0.019-0.147-0.027-0.155-0.039-0.253-0.075-0.264-0.080-0.272-0.107-0.581 0.027-0.69 0.3-0.069 0.173-0.031 0.355 0.068 0.498-1.225 1.963-4.079 6.48-5.272 7.918-0.584 0.706-1.173 0.889-1.449 0.705-0.173-0.115-0.196-0.359-0.059-0.622 1.218-2.337 2.965-6.364 4.012-8.832 0.173 0.044 0.348 0.075 0.522 0.092 0.018 0.002 0.035 0.003 0.053 0.003 0.271 0 0.503-0.206 0.53-0.481 0.029-0.293-0.185-0.555-0.478-0.584-0.303-0.030-0.562-0.116-0.742-0.189-0.168-0.062-0.294-0.13-0.353-0.163-0.095-0.055-0.153-0.093-0.159-0.098-0.242-0.165-0.573-0.104-0.74 0.139-0.101 0.148-0.109 0.326-0.051 0.482-1.031 1.536-2.708 4.064-3.9 6.021-2.1 3.442-3.198 3.929-3.485 3.996-0.141 0.034-0.194-0.001-0.218-0.016-0.447-0.281-0.108-1.19 0.255-1.901 0.554-1.079 3.701-6.591 5.26-9.312 0.2 0.069 0.403 0.126 0.608 0.165 0.033 0.006 0.066 0.009 0.098 0.009 0.252 0 0.476-0.179 0.524-0.435 0.054-0.29-0.137-0.568-0.427-0.622-0.271-0.051-0.551-0.142-0.82-0.268-0.149-0.067-0.276-0.136-0.384-0.204-0.166-0.1-0.262-0.18-0.275-0.19-0.22-0.194-0.558-0.173-0.753 0.048-0.147 0.167-0.17 0.4-0.077 0.588l-5.175 5.178c-1.877 1.877-2.81 2.022-3.079 2.022-0.057-0-0.088-0.007-0.084-0.004-0.189-0.19-0.687-0.695 1.037-2.643 1.745-1.967 7.587-8.966 8.516-10.079 0.226-0.029 0.431-0.022 0.678 0.007 1.134 0.137 4.147 0.498 6.611-1.181 0.243-0.166 0.306-0.498 0.14-0.741s-0.497-0.307-0.741-0.14c-2.133 1.453-4.76 1.138-5.883 1.003-1.077-0.13-1.618 0.090-3.631 0.907-0.5 0.203-1.096 0.445-1.823 0.732-1.913 0.755-2.889 0.473-3.301 0.24-0.179-0.102-0.289-0.213-0.353-0.302 0.141-0.062 0.332-0.138 0.509-0.208 1.055-0.418 2.82-1.118 4.588-2.657 2.657-2.313 7.107-5.063 10.599-5.638 4.184-0.689 3.95-3.174 3.938-3.279-0.033-0.288-0.287-0.492-0.579-0.465-0.289 0.027-0.503 0.286-0.482 0.575 0.005 0.065 0.080 1.601-3.051 2.116-3.698 0.608-8.36 3.478-11.126 5.886-1.631 1.419-3.29 2.077-4.281 2.47-0.685 0.272-1.029 0.408-1.183 0.716-0.178 0.355-0.044 0.857 0.342 1.277 0.282 0.308 0.943 0.826 2.196 0.826 0.676 0 1.523-0.15 2.575-0.566 0.731-0.288 1.33-0.532 1.832-0.736 0.181-0.073 0.344-0.139 0.499-0.202-2.035 2.434-6.008 7.174-7.388 8.73-1.628 1.839-1.945 3.142-0.998 4.1 0.198 0.201 0.505 0.313 0.862 0.314h0.007c0.982 0 2.264-0.783 3.808-2.327l4.258-4.261c-1.792 3.134-4.065 7.132-4.544 8.064-0.823 1.614-0.78 2.721 0.127 3.29 0.203 0.128 0.434 0.193 0.68 0.193 0.114 0 0.23-0.014 0.349-0.042 1.1-0.258 2.497-1.765 4.152-4.479 0.688-1.13 1.541-2.454 2.336-3.666-0.944 2.164-2.047 4.611-2.889 6.227-0.394 0.756-0.223 1.58 0.416 2.004 0.231 0.153 0.517 0.241 0.834 0.241 0.612 0 1.343-0.329 2.026-1.155 0.872-1.050 2.526-3.57 3.91-5.739-0.756 2.344-1.46 4.466-1.691 5.001-0.309 0.715-0.153 1.438 0.399 1.841 0.235 0.172 0.547 0.277 0.902 0.277 0.473 0 1.020-0.188 1.556-0.655 0.947-0.83 2.139-3.476 3.598-6.848 0.393-0.908 0.764-1.766 1.067-2.409 0.783-1.659 2.199-3.883 3.233-5.507 0.512-0.804 0.917-1.439 1.125-1.817 0.615-1.107 0.898-2.281 1.147-3.316 0.225-0.932 0.438-1.813 0.848-2.445 0.885-1.352 2.726-2.781 2.744-2.795 0.233-0.18 0.277-0.515 0.097-0.748s-0.515-0.277-0.748-0.097l-0 0z"></path>
</svg>
