<!-- Generated by IcoMoon.io -->
<svg version="1.1" xmlns="http://www.w3.org/2000/svg" width="32" height="32" viewBox="0 0 32 32">
<title>headphone</title>
<path fill="none" stroke-linejoin="round" stroke-linecap="round" stroke-miterlimit="4" stroke-width="2" stroke="#000" d="M7.28 24.653v-3.893c0-1.293 1.013-2.453 2.453-2.453 1.293 0 2.453 1.013 2.453 2.453v3.747c0 2.6-2.16 4.76-4.76 4.76s-4.76-2.173-4.76-4.76v-8.213c-0.147-7.493 5.773-13.56 13.267-13.56s13.4 6.067 13.4 13.413v8.213c0 2.6-2.16 4.76-4.76 4.76s-4.76-2.16-4.76-4.76v-3.747c0-1.293 1.013-2.453 2.453-2.453 1.293 0 2.453 1.013 2.453 2.453v4.040"></path>
</svg>
