<!-- Generated by IcoMoon.io -->
<svg version="1.1" xmlns="http://www.w3.org/2000/svg" width="32" height="32" viewBox="0 0 32 32">
<title>heart-rate</title>
<path d="M31.067 16.933h-0.933c1.2-1.733 1.867-3.6 1.867-5.6 0-4.667-3.467-8.667-8.4-8.667-2.667 0-4.933 1.2-6.667 3.467-0.4 0.4-0.667 0.933-0.933 1.333-0.267-0.4-0.533-0.933-0.8-1.333-1.733-2.267-4-3.467-6.667-3.467-4.933 0-8.533 3.867-8.533 8.667 0 2 0.667 3.867 1.867 5.6h-0.933c-0.533 0-0.933 0.4-0.933 0.8 0 0.533 0.4 0.933 0.933 0.933h2.267c2.667 3.067 6.933 6.133 12.133 10.4 0.133 0.133 0.4 0.267 0.667 0.267s0.4-0.133 0.667-0.267c5.2-4.267 9.467-7.333 12.133-10.4h2.267c0.533 0 0.933-0.4 0.933-0.933 0-0.4-0.4-0.8-0.933-0.8zM16 27.2c-4.133-3.467-7.733-6.133-10.267-8.533h6.533c0.4 0 0.667-0.133 0.8-0.533l1.067-2 2.933 5.467c0.133 0.267 0.533 0.533 0.8 0.533 0.4 0 0.667-0.133 0.8-0.533l1.6-3.067h5.867c-2.4 2.667-6 5.333-10.133 8.667zM27.867 16.933h-8.133c-0.4 0-0.667 0.133-0.8 0.533l-1.067 2-2.933-5.467c-0.133-0.533-0.4-0.667-0.8-0.667s-0.667 0.133-0.8 0.533l-1.6 3.067h-7.6c-1.467-1.867-2.267-3.6-2.267-5.6 0-4 2.8-6.933 6.667-6.933 2 0 3.733 0.933 5.067 2.667 1.067 1.467 1.467 2.8 1.467 2.933 0.133 0.4 0.533 0.667 0.933 0.667s0.8-0.267 0.933-0.667c0 0 0.4-1.467 1.6-2.933 1.333-1.733 3.067-2.667 5.067-2.667 3.733 0 6.533 2.933 6.533 6.933 0 2-0.8 3.733-2.267 5.6z"></path>
</svg>
