<!-- Generated by IcoMoon.io -->
<svg version="1.1" xmlns="http://www.w3.org/2000/svg" width="32" height="32" viewBox="0 0 32 32">
<title>hot</title>
<path d="M13.8 13.733c0-0.8 0.333-1.2 0.8-1.733 0.333-0.333 0.267-0.867-0.067-1.2s-0.867-0.267-1.2 0.067c-0.533 0.6-1.2 1.4-1.2 2.867s0.667 2.2 1.2 2.867c0.467 0.533 0.8 0.867 0.8 1.733 0 0.8-0.333 1.2-0.8 1.733-0.333 0.333-0.267 0.867 0.067 1.2s0.867 0.267 1.2-0.067c0.533-0.6 1.2-1.4 1.2-2.867s-0.667-2.2-1.2-2.867c-0.533-0.533-0.8-0.867-0.8-1.733zM18.067 13.733c0-0.8 0.333-1.2 0.8-1.733 0.333-0.333 0.267-0.867-0.067-1.2s-0.867-0.267-1.2 0.067c-0.533 0.6-1.2 1.4-1.2 2.867s0.667 2.2 1.2 2.867c0.467 0.533 0.8 0.867 0.8 1.733 0 0.8-0.333 1.2-0.8 1.733-0.333 0.333-0.267 0.867 0.067 1.2s0.867 0.267 1.2-0.067c0.533-0.6 1.2-1.4 1.2-2.867s-0.667-2.2-1.2-2.867c-0.533-0.533-0.8-0.867-0.8-1.733zM16 0c-8.867 0-16 7.133-16 16s7.133 16 16 16c8.867 0 16-7.133 16-16s-7.133-16-16-16zM16 30.733c-8.133 0-14.667-6.533-14.667-14.733 0-8.133 6.533-14.667 14.667-14.667s14.733 6.533 14.733 14.667c0 8.133-6.533 14.733-14.733 14.733z"></path>
</svg>
