<!-- Generated by IcoMoon.io -->
<svg version="1.1" xmlns="http://www.w3.org/2000/svg" width="32" height="32" viewBox="0 0 32 32">
<title>improve</title>
<path d="M32 10.133c0-1.267-0.867-2.333-2.133-2.6v-1.667c0-1.2-0.933-2.133-2.133-2.133h-0.533v-1.067c0.667-0.133 1.133-0.733 1.067-1.467-0.067-0.667-0.667-1.2-1.333-1.2h-3.733c-0.667 0-1.267 0.533-1.333 1.2s0.4 1.333 1.067 1.467v1.067h-0.533c-1.2 0-2.133 0.933-2.133 2.133v1.667c-1.267 0.267-2.133 1.333-2.133 2.6v5.333c0 0.667 0.267 1.333 0.733 1.867-0.467 0.267-0.733 0.733-0.733 1.267-0.067 0-0.2 0-0.267 0-0.2-1.2-1.067-2.133-2.2-2.467s-2.4 0.067-3.2 1c-0.267 0-0.467 0.067-0.733 0.133-0.133-1.267-0.8-2.467-1.8-3.267-0.267-0.2-0.6-0.133-0.733 0.133-0.2 0.267-0.133 0.6 0.133 0.733 0.8 0.6 1.267 1.467 1.4 2.4-0.333-0.133-0.733-0.2-1.133-0.2-0.6 0.067-1.067 0.333-1.467 0.8-0.533-0.467-1.133-0.867-1.8-1.067 0.267-0.533 0.6-1.067 1-1.467 0.2-0.2 0.2-0.533 0-0.733s-0.533-0.2-0.733 0c-0.2 0.267-0.4 0.467-0.6 0.733-0.2-0.267-0.4-0.533-0.733-0.667-1.067-0.467-2.267 0.333-2.4 0.467-0.2 0.133-0.267 0.4-0.2 0.667 0.133 0.4 0.333 0.733 0.533 1.067-1.467 0.467-2.6 1.667-3 3.133s-0.133 3.067 0.8 4.267c-0.2 0.133-0.333 0.267-0.467 0.4-0.333 0.4-0.4 0.867-0.267 1.333 0.667 2.733 2.667 4.933 5.267 5.933 0.2 0.067 0.4 0.133 0.667 0.133h11.267c0.2 0 0.4-0.067 0.6-0.133 0.333-0.133 0.733-0.333 1.067-0.533 0.467 0.4 1.067 0.667 1.733 0.667h8.467c1.467 0 2.667-1.2 2.667-2.667v-5.333c0-0.667-0.267-1.333-0.733-1.867 0.067-0.067 0.2-0.133 0.267-0.2 0.333-0.267 0.467-0.733 0.467-1.133s-0.133-0.8-0.4-1.067c0.333-0.333 0.467-0.8 0.4-1.267s-0.333-0.867-0.733-1.133c0.467-0.467 0.733-1.133 0.733-1.867v-5.4zM23.2 1.067h3.733c0.133 0 0.267 0.133 0.267 0.267s-0.133 0.267-0.267 0.267h-3.733c-0.133 0-0.267-0.133-0.267-0.267s0.133-0.267 0.267-0.267zM26.133 2.667v1.067h-2.133v-1.067h2.133zM21.333 5.867c0-0.6 0.467-1.067 1.067-1.067h5.333c0.6 0 1.067 0.467 1.067 1.067v1.6h-7.467v-1.6zM14.8 17.067c0.533 0 1.067 0.2 1.467 0.6s0.6 0.933 0.6 1.467c0 0.133 0.067 0.333 0.2 0.4 0.133 0.133 0.267 0.133 0.467 0.133 0.133 0 0.2 0 0.333 0 0.867 0 1.6 0.733 1.6 1.6 0 0.133 0 0.333-0.067 0.467-0.067 0.267 0.067 0.467 0.267 0.6 0.4 0.2 0.667 0.6 0.667 1.067 0 0.2-0.067 0.467-0.2 0.667h-3.667c0.067-0.4 0.133-0.8 0.133-1.2 0-1.4-0.6-2.8-1.667-3.733-0.067-0.2-0.067-0.333-0.133-0.533-0.133-0.467-0.467-0.933-0.933-1.2 0.2-0.2 0.6-0.333 0.933-0.333zM8.733 18.933c0.133-0.4 0.467-0.733 0.867-0.8 0.4 0 0.8 0.067 1.067 0.267 0 0.067 0 0.133 0 0.133-0.067 0.267 0.133 0.533 0.4 0.6 0.067 0 0.067 0 0.133 0 0.267 0 0.467-0.2 0.533-0.4 0-0.133 0.067-0.267 0.067-0.4 0.333-0.2 0.667-0.267 1-0.267 0.4 0.067 0.8 0.4 0.867 0.8 0.067 0.133 0.067 0.333 0.133 0.467 0 0 0 0 0 0 0.067 0.4 0.067 0.867-0.133 1.267-0.067 0.133-0.2 0.267-0.333 0.4 0 0-0.133 0.067-0.2 0.133-0.333-0.6-1-1.467-2-1.467s-1.667 0.8-2 1.467c-0.067-0.067-0.133-0.067-0.133-0.067-0.133-0.133-0.267-0.267-0.333-0.4-0.2-0.533-0.2-1.2 0.067-1.733zM13.4 21.667v0c0 0 0-0.067-0.067-0.067 0.067 0 0.067 0.067 0.067 0.067zM9 21.6c0 0 0 0.067 0 0.067v0c0 0 0-0.067 0-0.067zM8.4 21.933c0.333 0.2 0.667 0.4 1.067 0.467 0.067 0 0.067 0 0.133 0 0.133-0.067 0.267-0.2 0.333-0.333v0c0 0 0.467-1.267 1.2-1.267s1.2 1.2 1.2 1.267v0c0.067 0.133 0.2 0.267 0.333 0.333 0.067 0 0.067 0 0.133 0 0.4-0.067 0.733-0.2 1.067-0.467 0.267-0.2 0.467-0.467 0.667-0.8 0.067-0.133 0.133-0.333 0.2-0.467 0.667 1 0.8 2.2 0.467 3.333h-8.333c-0.4-1.2-0.133-2.533 0.667-3.533 0.067 0.267 0.133 0.533 0.267 0.733 0.133 0.267 0.333 0.533 0.6 0.733zM4.8 15.667c0.267 0.2 0.467 0.533 0.467 0.867v0.067c-0.333 0-0.667 0-0.933 0-0.2-0.267-0.4-0.467-0.533-0.8 0.267-0.2 0.667-0.2 1-0.133zM1.267 20.2c0.4-1.333 1.533-2.333 2.933-2.533 0.267-0.067 0.467-0.067 0.733-0.067-0.067 0.333-0.133 0.733-0.133 1.067 0 0.267 0.267 0.533 0.533 0.533s0.533-0.267 0.533-0.533c0-0.267 0.067-0.6 0.133-0.867 0.6 0.2 1.2 0.6 1.6 1.067-1.2 0.933-1.933 2.4-1.933 3.933 0 0.4 0.067 0.8 0.133 1.2h-3.6c-1-1-1.4-2.467-0.933-3.8zM17.6 30.867c-0.067 0-0.133 0.067-0.2 0.067h-11.333c-0.067 0-0.133 0-0.2-0.067-2.267-0.867-4-2.8-4.6-5.2-0.067-0.133 0-0.333 0.067-0.467 0.133-0.133 0.267-0.2 0.4-0.2h19.933c0.2 0 0.333 0.067 0.4 0.2s0.133 0.267 0.067 0.467c-0.533 2.4-2.267 4.333-4.533 5.2zM30.933 29.333c0 0.867-0.733 1.6-1.6 1.6h-8.533c-0.267 0-0.533-0.067-0.733-0.2 1.6-1.133 2.733-2.867 3.2-4.733 0.133-0.467 0-1-0.267-1.333-0.333-0.467-0.8-0.667-1.267-0.667h-0.467c0.2-0.533 0.133-1.133-0.133-1.6h8.2c0.867 0 1.6 0.733 1.6 1.6v5.333zM30.8 21.2c-0.133 0.067-0.267 0.133-0.4 0.133h-9.933c0-0.067 0-0.067 0-0.133 0-0.333-0.067-0.667-0.2-0.933h10.133c0.267 0 0.533 0.267 0.533 0.533 0 0.133-0.067 0.267-0.133 0.4zM30.4 19.2h-10.667c-0.267 0-0.533-0.267-0.533-0.533s0.267-0.533 0.533-0.533h10.667c0.267 0 0.533 0.267 0.533 0.533s-0.267 0.533-0.533 0.533zM30.933 15.467c0 0.867-0.733 1.6-1.6 1.6h-8.533c-0.867 0-1.6-0.733-1.6-1.6v-5.333c0-0.867 0.733-1.6 1.6-1.6h8.533c0.867 0 1.6 0.733 1.6 1.6v5.333zM20.8 9.6c-0.267 0-0.533 0.267-0.533 0.533v0.533c0 0.267 0.267 0.533 0.533 0.533s0.533-0.267 0.533-0.533v-0.533c0-0.267-0.267-0.533-0.533-0.533zM20.8 12.267c-0.267 0-0.533 0.267-0.533 0.533v2.667c0 0.267 0.267 0.533 0.533 0.533s0.533-0.267 0.533-0.533v-2.667c0-0.267-0.267-0.533-0.533-0.533zM3.733 26.133h-0.533c-0.267 0-0.533 0.267-0.533 0.533s0.267 0.533 0.533 0.533h0.533c0.267 0 0.533-0.267 0.533-0.533s-0.267-0.533-0.533-0.533zM20.8 26.667c0-0.267-0.267-0.533-0.533-0.533h-14.4c-0.267 0-0.533 0.267-0.533 0.533s0.267 0.533 0.533 0.533h14.4c0.267 0 0.533-0.267 0.533-0.533z"></path>
</svg>
