<!-- Generated by IcoMoon.io -->
<svg version="1.1" xmlns="http://www.w3.org/2000/svg" width="32" height="32" viewBox="0 0 32 32">
<title>insert</title>
<path d="M21.85 6.050v-1.25c0-0.25-0.15-0.5-0.35-0.55l-18.15-4.25c-0.2-0.050-0.35 0-0.5 0.2-0.2 0.15-0.25 0.35-0.15 0.5l2.1 5.7v3.45c-3.050 2.3-4.8 5.9-4.8 9.9v0.45c0.15 4.5 2.75 8.55 6.75 10.55 1.55 0.85 3.25 1.3 4.95 1.3h3.2c1.65 0 3.4-0.45 4.85-1.15 4.2-2.050 7-6.4 7-11.1 0-0.1-0.050-0.25-0.1-0.3-0.1-3.9-1.8-7.35-4.8-9.55v-0.45c4.3 2.050 6.95 6.1 6.95 10.75 0 0.3 0.2 0.55 0.55 0.55h2.15c0.3 0 0.55-0.2 0.55-0.55-0.050-6.4-4-11.95-10.2-14.2zM4.050 1.3l16.75 3.95v0.65h-15.1zM20.8 6.95v2.65h-14.95v-2.65zM21 28.75s0 0.050 0 0c-0.1 0.1-0.2 0.15-0.25 0.2s-0.1 0.050-0.15 0.1c-0.050 0-0.050 0.050-0.1 0.050-0.1 0.050-0.2 0.1-0.3 0.2-0.15 0.1-0.35 0.2-0.5 0.3-0.050 0-0.050 0.050-0.1 0.050-0.050 0.050-0.15 0.1-0.25 0.1-0.1 0.050-0.15 0.1-0.25 0.1-1.15 0.7-2.7 1.050-4.2 1.050h-3.2c-1.55 0-3.050-0.45-4.45-1.15-2.7-1.35-4.7-3.65-5.65-6.4-0.25-0.7-0.4-1.5-0.5-2.25l1.15 1.35c0.7 0.7 1.8 0.7 2.5 0l0.55-0.55c0.8-0.8 2.1-0.8 2.9 0l0.55 0.55c0.7 0.7 1.8 0.7 2.5 0l0.55-0.55c0.8-0.8 2.1-0.8 2.9 0l0.55 0.55c0.7 0.7 1.8 0.7 2.5 0l0.55-0.55c0.8-0.8 2.1-0.8 2.9 0l0.5 0.5c0.7 0.7 1.85 0.7 2.55 0l1.3-1.3c-0.45 3.050-2.050 5.85-4.55 7.65zM25.6 19.65l-2.050 2c-0.25 0.25-0.75 0.25-1 0l-0.5-0.5c-1.15-1.25-3.15-1.25-4.35 0l-0.55 0.55c-0.3 0.25-0.75 0.25-1 0l-0.55-0.55c-1.15-1.25-3.15-1.25-4.35 0l-0.55 0.55c-0.3 0.25-0.75 0.25-1 0l-0.55-0.55c-1.15-1.25-3.15-1.25-4.35 0l-0.55 0.55c-0.3 0.25-0.75 0.25-1 0l-2.2-2.2c0.050-3.65 1.65-6.85 4.4-8.85h15.7c2.8 2.050 4.4 5.3 4.45 9zM29.85 19.75c-0.2-5-3.2-9.35-8-11.4v-1.15c5.4 2.15 8.85 7 9.050 12.6h-1.050zM8.9 24h-0.75c-0.7 0-1.25 0.55-1.25 1.25v0.75c0 0.7 0.55 1.25 1.25 1.25h0.75c0.7 0 1.25-0.55 1.25-1.25v-0.75c0-0.7-0.55-1.25-1.25-1.25zM9.050 26c0 0.1-0.050 0.15-0.15 0.15h-0.75c-0.1 0-0.15-0.050-0.15-0.15v-0.75c0-0.1 0.050-0.15 0.15-0.15h0.75c0.1 0 0.15 0.050 0.15 0.15zM17.45 26.15h-0.75c-0.7 0-1.25 0.55-1.25 1.25v0.75c0 0.7 0.55 1.25 1.25 1.25h0.75c0.7 0 1.25-0.55 1.25-1.25v-0.75c-0.050-0.75-0.55-1.25-1.25-1.25zM17.6 28.1c0 0.1-0.050 0.15-0.15 0.15h-0.75c-0.1 0-0.15-0.050-0.15-0.15v-0.75c0-0.1 0.050-0.15 0.15-0.15h0.75c0.1 0 0.15 0.050 0.15 0.15z"></path>
</svg>
