<!-- Generated by IcoMoon.io -->
<svg version="1.1" xmlns="http://www.w3.org/2000/svg" width="32" height="32" viewBox="0 0 32 32">
<title>insomnia</title>
<path d="M22.194 26.839h-0.106c-1.355 0-2.695 0.217-3.981 0.646l-2.885 0.962c-0.91 0.303-1.857 0.457-2.816 0.457h-6.729c-1.777 0-3.475 0.849-4.542 2.271l-0.619 0.826h30.968l-0.619-0.826c-2.036-2.715-5.278-4.336-8.671-4.336zM2.76 30.968c0.819-0.659 1.85-1.032 2.917-1.032h6.729c1.070 0 2.127-0.172 3.143-0.51l2.885-0.962c1.18-0.393 2.41-0.593 3.654-0.593h0.106c2.709 0 5.31 1.141 7.151 3.097l-26.584-0z"></path>
<path d="M6.193 2.064h1.032v5.161h-1.032v-5.161z"></path>
<path d="M8.258 2.064h1.032v5.161h-1.032v-5.161z"></path>
<path d="M10.323 2.064h1.032v5.161h-1.032v-5.161z"></path>
<path d="M29.25 19.141c0.304 0.304 0.709 0.472 1.139 0.472 0.888 0 1.611-0.723 1.611-1.611v-13.294c0-0.888-0.723-1.611-1.611-1.611-0.43 0-0.835 0.168-1.139 0.472l-0.56 0.56h-4.977c-0.258-2.319-2.229-4.129-4.616-4.129-1.561 0-3.022 0.793-3.878 2.088-0.747 0.066-1.482 0.273-2.153 0.608l-0.91 0.455 0.462 0.923 0.91-0.455c0.684-0.342 1.45-0.523 2.215-0.523 2.339 0 4.327 1.595 4.834 3.878l0.081 0.363 1.008-0.224-0.081-0.363c-0.072-0.326-0.172-0.644-0.297-0.951 1.492 0.884 2.455 2.505 2.455 4.308 0 2.021-1.238 3.86-3.097 4.628v-1.316c1.138 0 2.065-0.926 2.065-2.065s-0.926-2.065-2.065-2.065h-0.017c-0.172-1.736-1.641-3.097-3.422-3.097-0.531 0-1.063 0.126-1.538 0.363l-0.986 0.493c-0.231 0.115-0.489 0.176-0.747 0.176s-0.516-0.061-0.747-0.176l-0.571-0.285-0.462 0.923 0.571 0.285c0.373 0.187 0.791 0.285 1.209 0.285s0.835-0.099 1.209-0.285l0.986-0.493c0.332-0.166 0.705-0.254 1.076-0.254 1.327 0 2.407 1.080 2.407 2.407v0.69h1.032c0.569 0 1.032 0.463 1.032 1.032s-0.463 1.032-1.032 1.032h-1.032v5.635l-0.636 3.817c-0.184 1.103-1.129 1.904-2.247 1.904-1.256 0-2.278-1.022-2.278-2.278v-1.424c0.601-0.213 1.032-0.787 1.032-1.46v-0.084c1.050-0.187 2.017-0.687 2.787-1.457l0.159-0.159-0.73-0.73-0.159 0.159c-0.799 0.799-1.861 1.238-2.99 1.238-2.331 0-4.228-1.897-4.228-4.228v-2.226c0.312 0.167 0.665 0.26 1.032 0.26 0.833 0 1.583-0.463 1.956-1.209l0.055-0.109-0.923-0.462-0.055 0.109c-0.197 0.394-0.592 0.638-1.032 0.638-0.357 0-0.689-0.165-0.906-0.44 0.141-0.471 0.397-0.902 0.755-1.26l-0.73-0.73c-0.611 0.61-1.001 1.382-1.133 2.219-0.657-0.37-1.083-1.070-1.083-1.854h-1.032c0 0.547 0.14 1.066 0.389 1.521-0.253 0.373-0.389 0.813-0.389 1.274v0.089c0 1.185 0.909 2.161 2.067 2.268 0.028 1.695 0.861 3.196 2.133 4.139h-8.542l-0.863 0.863c-0.109 0.109-0.255 0.169-0.409 0.169-0.319 0-0.579-0.26-0.579-0.579v-13.294c0-0.319 0.26-0.579 0.579-0.579 0.155 0 0.3 0.060 0.409 0.17l0.863 0.863h2.278v-1.032h-1.851l-0.56-0.56c-0.304-0.304-0.709-0.472-1.139-0.472-0.888 0-1.611 0.723-1.611 1.611v13.294c0 0.888 0.723 1.611 1.611 1.611 0.156 0 0.308-0.022 0.453-0.065v4.197c0 1.371 0.672 2.587 1.704 3.337-1.236 0.259-2.426 0.723-3.518 1.378l0.531 0.885c1.608-0.965 3.449-1.475 5.325-1.475h3.952c2.29 0 4.543-0.397 6.696-1.18l0.069-0.025c1.569-0.57 3.205-0.86 4.864-0.86 3.517 0 6.823 1.37 9.31 3.856l0.122 0.122 0.73-0.73-0.122-0.122c-1.325-1.325-2.875-2.361-4.606-3.078-0.094-0.039-0.188-0.076-0.282-0.113v-0.946c0-1.829-0.682-3.577-1.92-4.923-0.468-0.508-1-0.941-1.578-1.292h5.349l0.561 0.56zM8.258 11.141v-0.089c0-0.138 0.023-0.272 0.066-0.398 0.281 0.242 0.607 0.435 0.966 0.568v1.146c-0.585-0.102-1.032-0.612-1.032-1.226zM20.41 4.307c-0.272-0.34-0.581-0.651-0.923-0.926-0.855-0.686-1.888-1.123-2.969-1.265 0.672-0.683 1.6-1.084 2.578-1.084 1.992 0 3.613 1.621 3.613 3.613 0 0.284-0.033 0.562-0.097 0.833-0.631-0.529-1.376-0.933-2.202-1.171zM20.855 15.763c2.344-0.879 3.919-3.151 3.919-5.655 0-1.421-0.496-2.748-1.342-3.795 0.143-0.371 0.238-0.756 0.282-1.151h5.403l0.863-0.863c0.109-0.109 0.255-0.17 0.409-0.17 0.319 0 0.579 0.26 0.579 0.579v13.294c0 0.319-0.26 0.579-0.579 0.579-0.155 0-0.3-0.060-0.409-0.169l-0.863-0.863h-8.472v-1.707l0.21-0.079zM13.935 19.097c-2.453 0-4.83 0.879-6.692 2.476l-0.018 0.015v-3.007h7.226c0 0.285-0.232 0.516-0.516 0.516zM3.097 23.745v-4.951l0.214-0.214h2.883v5.251l1.722-1.476c1.117-0.957 2.44-1.628 3.851-1.968l-0.498 0.747c-0.619 0.928-0.946 2.008-0.946 3.123 0 0.18 0.009 0.359 0.026 0.536l-2.519 1.574c-0.492 0.308-1.059 0.47-1.64 0.47-1.706 0-3.094-1.388-3.094-3.094zM10.058 26.839h-1.033l1.535-0.959c0.097 0.323 0.223 0.636 0.378 0.938-0.293 0.014-0.586 0.021-0.88 0.021zM16.471 25.696l-0.069 0.025c-1.403 0.51-2.851 0.847-4.325 1.008-0.472-0.74-0.721-1.592-0.721-2.471 0-0.911 0.267-1.793 0.772-2.55l1.030-1.545c0.087-0.007 0.175-0.013 0.262-0.018v1.32c0 1.825 1.485 3.31 3.31 3.31 1.625 0 2.998-1.163 3.265-2.766l0.562-3.371c0.306 0.049 0.604 0.121 0.893 0.214-0.469 1.949-0.607 3.942-0.412 5.938-1.556 0.066-3.090 0.371-4.567 0.908zM25.806 24.796v0.588c-1.211-0.368-2.46-0.57-3.733-0.604-0.191-1.856-0.076-3.711 0.342-5.527 2.015 1.047 3.39 3.161 3.39 5.543z"></path>
<path d="M17.032 11.355c0.833 0 1.583-0.463 1.956-1.208l0.055-0.109-0.923-0.462-0.055 0.109c-0.197 0.394-0.592 0.638-1.032 0.638s-0.835-0.244-1.032-0.638l-0.054-0.109-0.923 0.462 0.054 0.109c0.373 0.745 1.122 1.209 1.956 1.209z"></path>
<path d="M11.98 15.66l-0.055 0.109 0.923 0.462 0.055-0.109c0.197-0.394 0.592-0.638 1.032-0.638s0.835 0.245 1.032 0.638l0.055 0.109 0.923-0.462-0.054-0.109c-0.373-0.745-1.122-1.209-1.956-1.209s-1.583 0.463-1.956 1.209z"></path>
<path d="M13.435 10.714l-0.616 2.466 1.402 0.701 0.462-0.923-0.662-0.331 0.416-1.663-1.001-0.25z"></path>
</svg>
