<!-- Generated by IcoMoon.io -->
<svg version="1.1" xmlns="http://www.w3.org/2000/svg" width="32" height="32" viewBox="0 0 32 32">
<title>ion</title>
<path d="M16 0.667c-1.733 0-3.2 1.467-3.2 3.267 0 0.533 0.133 1 0.333 1.4-0.067 0-0.2 0-0.267 0-1 0-1.8 0.867-1.8 1.867s0.8 1.867 1.8 1.867 1.8-0.867 1.8-1.867c0-0.133-0.067-0.267-0.067-0.333 0.4 0.2 0.867 0.333 1.4 0.333s1-0.133 1.4-0.4c0 0.133-0.067 0.267-0.067 0.4 0 1 0.8 1.867 1.8 1.867s1.8-0.867 1.8-1.867-0.8-1.867-1.8-1.867c-0.133 0-0.2 0-0.333 0 0.2-0.467 0.333-0.933 0.333-1.4 0.067-1.8-1.4-3.267-3.133-3.267zM16 1.6c1.267 0 2.267 1.067 2.267 2.333s-1 2.333-2.267 2.333-2.267-1.067-2.267-2.333c0-1.333 1-2.333 2.267-2.333zM12.8 6.267c0.533 0 0.933 0.4 0.933 0.933s-0.4 0.933-0.933 0.933-0.933-0.4-0.933-0.933c0.067-0.533 0.467-0.933 0.933-0.933zM19.2 6.267c0.533 0 0.933 0.4 0.933 0.933s-0.4 0.933-0.933 0.933-0.933-0.4-0.933-0.933 0.4-0.933 0.933-0.933zM24.667 9c-1 0-1.8 0.867-1.8 1.867s0.8 1.867 1.8 1.867c0.4 0 0.733-0.133 1-0.333-0.067 0.267-0.067 0.533-0.067 0.8 0 0.933 0.333 1.733 0.933 2.333-1 0-1.8 0.867-1.8 1.867s0.8 1.867 1.8 1.867 1.8-0.867 1.8-1.867c0-0.4-0.133-0.733-0.267-1 0.2 0.067 0.467 0.067 0.733 0.067 1.733 0 3.2-1.467 3.2-3.267s-1.467-3.267-3.2-3.267c-0.867 0-1.733 0.4-2.267 1v-0.067c0-1-0.867-1.867-1.867-1.867zM7.333 9.067c-1 0-1.8 0.867-1.8 1.867v0.067c-0.6-0.667-1.467-1-2.333-1-1.733 0-3.2 1.467-3.2 3.267s1.467 3.267 3.2 3.267c0.267 0 0.533 0 0.733-0.067-0.2 0.267-0.267 0.6-0.267 1 0 1 0.8 1.867 1.8 1.867s1.8-0.867 1.8-1.867-0.8-1.867-1.8-1.867c0.6-0.6 0.933-1.4 0.933-2.267 0-0.267 0-0.533-0.067-0.8 0.267 0.2 0.6 0.333 1 0.333 1 0 1.8-0.867 1.8-1.867s-0.8-1.933-1.8-1.933zM16 9.933c-3.8 0-6.867 3.133-6.867 7s3.067 6.933 6.867 6.933 6.867-3.133 6.867-6.933c0-3.867-3.067-7-6.867-7zM24.667 9.933c0.533 0 0.933 0.4 0.933 0.933s-0.4 0.933-0.933 0.933-0.933-0.4-0.933-0.933c0.067-0.533 0.467-0.933 0.933-0.933zM7.333 10c0.533 0 0.933 0.4 0.933 0.933s-0.4 0.933-0.933 0.933-0.933-0.4-0.933-0.933 0.4-0.933 0.933-0.933zM16 10.867c3.267 0 5.933 2.667 5.933 6.067s-2.667 6.067-5.933 6.067-5.933-2.667-5.933-6.067 2.667-6.067 5.933-6.067zM28.8 10.867c1.267 0 2.267 1.067 2.267 2.333s-1 2.333-2.267 2.333-2.267-1.067-2.267-2.333 1-2.333 2.267-2.333zM3.2 10.933c1.267 0 2.267 1.067 2.267 2.333s-1 2.333-2.267 2.333-2.267-1.067-2.267-2.333c0-1.333 1-2.333 2.267-2.333zM5.467 16.467c0.533 0 0.933 0.4 0.933 0.933s-0.4 0.933-0.933 0.933-0.933-0.4-0.933-0.933c0.067-0.533 0.467-0.933 0.933-0.933zM26.533 16.467c0.533 0 0.933 0.4 0.933 0.933s-0.4 0.933-0.933 0.933-0.933-0.4-0.933-0.933 0.4-0.933 0.933-0.933zM7.2 22c-0.6 0.067-1.133 0.4-1.4 0.933-0.467 0.867-0.2 2.067 0.733 2.533 0.067 0.067 0.133 0.067 0.2 0.067-0.667 0.6-1.133 1.467-1.133 2.467 0 1.8 1.467 3.267 3.2 3.267 1.667 0 3.067-1.333 3.2-3.067h0.067c0.867 0.467 2 0.133 2.467-0.733s0.133-2-0.733-2.467-2-0.2-2.467 0.733c-0.067 0.067-0.067 0.133-0.067 0.2-0.533-0.667-1.333-1.067-2.2-1.133 0 0 0.067-0.067 0.067-0.067 0.467-0.867 0.133-2.067-0.733-2.533-0.533-0.133-0.867-0.2-1.2-0.2zM24.533 22c-0.267 0-0.467 0.133-0.667 0.2-0.867 0.467-1.2 1.6-0.733 2.467 0 0 0.067 0.067 0.067 0.067-0.867 0.067-1.733 0.467-2.267 1.133 0-0.067 0-0.133-0.067-0.2-0.467-0.867-1.6-1.267-2.467-0.733-0.867 0.467-1.2 1.6-0.733 2.533 0.467 0.867 1.6 1.2 2.467 0.733 0 0 0.067-0.067 0.067-0.067 0.067 1.733 1.467 3.067 3.2 3.067s3.2-1.467 3.2-3.267c0-1-0.467-1.867-1.2-2.467 0.067 0 0.133-0.067 0.2-0.067 0.867-0.467 1.2-1.6 0.733-2.533-0.4-0.533-1.133-0.933-1.8-0.867zM7.467 22.933c0.133 0 0.2 0.067 0.333 0.133 0.467 0.267 0.6 0.8 0.4 1.267-0.267 0.467-0.8 0.6-1.2 0.4-0.467-0.267-0.6-0.8-0.4-1.267 0.133-0.333 0.533-0.533 0.867-0.533zM24.6 22.933c0.333-0.067 0.733 0.133 0.867 0.467 0.267 0.467 0.067 1-0.4 1.267s-1 0.067-1.2-0.4c-0.267-0.467-0.067-1 0.4-1.267 0.133 0 0.2 0 0.333-0.067zM8.733 25.733c1.267 0 2.267 1.067 2.267 2.333s-1 2.333-2.267 2.333-2.267-1.067-2.267-2.333 1-2.333 2.267-2.333zM12.933 25.733c0.133 0 0.267 0.067 0.4 0.133 0.467 0.267 0.6 0.8 0.333 1.267s-0.8 0.6-1.2 0.4c-0.467-0.267-0.6-0.8-0.4-1.267 0.133-0.4 0.467-0.533 0.867-0.533zM19.133 25.733c0.333-0.067 0.733 0.133 0.867 0.467 0.267 0.467 0.067 1-0.4 1.267s-1 0.067-1.2-0.4c-0.267-0.467-0.133-1 0.333-1.267 0.133 0 0.267-0.067 0.4-0.067zM23.333 25.733c1.267 0 2.267 1.067 2.267 2.333s-1 2.333-2.267 2.333-2.267-1.067-2.267-2.333 1-2.333 2.267-2.333z"></path>
</svg>
