<!-- Generated by IcoMoon.io -->
<svg version="1.1" xmlns="http://www.w3.org/2000/svg" width="28" height="28" viewBox="0 0 28 28">
<title>laurel-wreath</title>
<path d="M13.446 23.965c-4.366-0.535-7.658-4.212-7.658-8.552 0-1.39 0.344-2.769 0.994-3.992 0.801-0.832 1.111-2.024 0.809-3.133-0.309-1.136-1.219-2.032-2.374-2.339-0.182-0.048-0.376 0.003-0.509 0.134-0.845 0.834-1.178 2.058-0.869 3.195 0.254 0.934 0.914 1.706 1.783 2.121-0.198 0.427-0.363 0.868-0.496 1.319-0.097-0.129-0.204-0.252-0.32-0.367-0.845-0.832-2.087-1.16-3.244-0.856-0.182 0.048-0.324 0.188-0.373 0.367-0.308 1.139 0.025 2.363 0.869 3.195 0.636 0.627 1.499 0.968 2.38 0.968 0.105 0 0.211-0.005 0.317-0.015 0.034 0.548 0.115 1.086 0.239 1.608-0.15-0.064-0.304-0.118-0.464-0.16-1.154-0.305-2.397 0.023-3.244 0.856-0.133 0.131-0.185 0.322-0.136 0.501 0.311 1.138 1.221 2.034 2.374 2.339 0.285 0.075 0.575 0.112 0.864 0.112 0.687-0 1.362-0.208 1.929-0.598 0.319 0.484 0.681 0.938 1.081 1.358-1.126 0.060-2.159 0.68-2.728 1.648-0.094 0.161-0.094 0.358 0 0.519 0.599 1.020 1.714 1.654 2.908 1.654 1.19 0 2.3-0.629 2.901-1.642 0.881 0.395 1.833 0.666 2.836 0.789 0.022 0.003 0.044 0.004 0.066 0.004 0.261 0 0.488-0.192 0.521-0.454 0.036-0.284-0.169-0.543-0.457-0.578zM3.798 20.153c-0.689-0.182-1.252-0.672-1.528-1.311 0.563-0.418 1.299-0.565 1.988-0.383s1.252 0.672 1.528 1.311c-0.563 0.418-1.299 0.565-1.988 0.383zM4.855 9.010c-0.185-0.679-0.035-1.404 0.389-1.959 0.649 0.271 1.147 0.825 1.331 1.504s0.035 1.404-0.389 1.959c-0.649-0.271-1.147-0.825-1.331-1.504zM2.803 14.325c-0.505-0.497-0.743-1.198-0.657-1.888 0.7-0.085 1.412 0.15 1.917 0.647s0.743 1.198 0.657 1.888c-0.7 0.085-1.412-0.15-1.917-0.647zM7.579 24.81c-0.714 0-1.386-0.33-1.82-0.877 0.434-0.547 1.106-0.877 1.82-0.877s1.386 0.33 1.82 0.877c-0.434 0.548-1.106 0.877-1.82 0.877z"></path>
<path d="M24.546 17.457c-0.16 0.042-0.315 0.096-0.464 0.16 0.124-0.522 0.205-1.059 0.239-1.608 0.106 0.010 0.212 0.015 0.317 0.015 0.881 0 1.743-0.341 2.38-0.968 0.845-0.832 1.178-2.056 0.869-3.195-0.048-0.179-0.191-0.319-0.373-0.367-1.156-0.304-2.399 0.024-3.243 0.856-0.117 0.115-0.224 0.238-0.32 0.367-0.133-0.451-0.298-0.892-0.496-1.319 0.869-0.415 1.529-1.187 1.783-2.121 0.309-1.136-0.024-2.361-0.869-3.195-0.133-0.131-0.327-0.183-0.509-0.134-1.155 0.306-2.065 1.202-2.374 2.339-0.302 1.109 0.008 2.301 0.809 3.133 0.65 1.223 0.994 2.602 0.994 3.992 0 4.34-3.292 8.017-7.658 8.552-0.288 0.035-0.493 0.294-0.457 0.578 0.033 0.262 0.26 0.454 0.521 0.454 0.022 0 0.044-0.001 0.066-0.004 1.003-0.123 1.956-0.394 2.836-0.789 0.601 1.013 1.711 1.642 2.901 1.642 1.195 0 2.309-0.634 2.908-1.654 0.094-0.161 0.094-0.358 0-0.519-0.569-0.968-1.603-1.588-2.728-1.648 0.4-0.42 0.762-0.874 1.081-1.358 0.567 0.389 1.243 0.598 1.929 0.598 0.288 0 0.579-0.037 0.864-0.112 1.154-0.304 2.064-1.201 2.374-2.339 0.049-0.179-0.003-0.37-0.136-0.501-0.847-0.832-2.090-1.16-3.243-0.856zM25.015 13.084c0.505-0.497 1.216-0.732 1.917-0.647 0.086 0.689-0.152 1.391-0.657 1.888s-1.217 0.732-1.917 0.647c-0.086-0.689 0.152-1.391 0.657-1.888zM22.501 8.556c0.185-0.679 0.682-1.233 1.331-1.504 0.425 0.555 0.574 1.279 0.389 1.959s-0.682 1.233-1.331 1.504c-0.425-0.555-0.574-1.279-0.389-1.959zM23.318 23.933c-0.434 0.548-1.106 0.877-1.82 0.877s-1.386-0.33-1.82-0.877c0.434-0.547 1.106-0.877 1.82-0.877s1.386 0.33 1.82 0.877zM25.279 20.153c-0.689 0.182-1.425 0.035-1.988-0.383 0.275-0.639 0.838-1.129 1.528-1.311s1.426-0.035 1.988 0.383c-0.275 0.639-0.838 1.129-1.528 1.311z"></path>
<path d="M17.919 20.387c0.376-0.269 0.525-0.724 0.381-1.158l-0.826-2.485 2.156-1.536c0.376-0.268 0.527-0.722 0.384-1.156s-0.535-0.716-0.999-0.716h-2.662l-0.815-2.484c-0.143-0.435-0.535-0.716-0.999-0.716s-0.856 0.281-0.999 0.716l-0.815 2.484h-2.662c-0.464 0-0.856 0.281-0.999 0.716s0.008 0.889 0.384 1.156l2.156 1.536-0.826 2.485c-0.144 0.435 0.005 0.889 0.381 1.158 0.187 0.134 0.402 0.201 0.617 0.201s0.431-0.068 0.619-0.203l2.145-1.542 2.145 1.542c0.375 0.27 0.86 0.27 1.236 0.001zM14.538 17.685c-0.109 0-0.218 0.033-0.31 0.1l-2.45 1.761 0.944-2.839c0.071-0.214-0.006-0.449-0.192-0.581l-2.463-1.754h3.039c0.228 0 0.43-0.145 0.5-0.359l0.931-2.837 0.931 2.837c0.070 0.214 0.272 0.359 0.5 0.359h3.039l-2.463 1.754c-0.185 0.132-0.263 0.367-0.192 0.581l0.944 2.839-2.45-1.761c-0.092-0.066-0.201-0.1-0.31-0.1z"></path>
<path d="M14.538 3.19c0.138 0 0.274-0.055 0.372-0.152s0.154-0.23 0.154-0.366-0.056-0.27-0.154-0.366c-0.098-0.096-0.233-0.152-0.372-0.152s-0.274 0.055-0.372 0.152c-0.098 0.096-0.154 0.23-0.154 0.366s0.056 0.269 0.154 0.366c0.098 0.096 0.233 0.152 0.372 0.152z"></path>
<path d="M10.418 7.936c0.089 0.188 0.279 0.299 0.477 0.299 0.074 0 0.15-0.016 0.222-0.049 0.263-0.121 0.377-0.429 0.254-0.688l-1.373-2.899c-0.123-0.259-0.435-0.371-0.699-0.251s-0.377 0.429-0.254 0.688l1.373 2.899z"></path>
<path d="M14.538 8.084c0.29 0 0.526-0.231 0.527-0.517l0.003-2.561c0-0.286-0.235-0.518-0.525-0.519-0 0 0 0 0 0-0.29 0-0.526 0.231-0.527 0.517l-0.003 2.561c-0 0.286 0.235 0.518 0.525 0.519z"></path>
<path d="M17.96 8.186c0.072 0.033 0.148 0.049 0.222 0.049 0.198 0 0.388-0.111 0.477-0.299l1.373-2.899c0.123-0.259 0.009-0.567-0.254-0.688s-0.576-0.009-0.699 0.251l-1.373 2.899c-0.123 0.259-0.009 0.567 0.254 0.688z"></path>
</svg>
