<!-- Generated by IcoMoon.io -->
<svg version="1.1" xmlns="http://www.w3.org/2000/svg" width="32" height="32" viewBox="0 0 32 32">
<title>mint</title>
<path d="M31.348 17.976c-0.203-0.438-1.151-0.498-1.562-0.604 0.931-1.095 1.399-2.537 1.56-3.948 0.031-0.273 0.118-0.663 0.014-0.931-0.23-0.593-0.903-0.239-1.315-0.098 0.328-1.413 0.44-2.874 0.418-4.322-0.010-0.667 0.028-1.446-0.139-2.1-0.168-0.659-0.978-0.464-1.492-0.415-0.704 0.066-1.401 0.206-2.079 0.408-0.992 0.296-1.947 0.726-2.828 1.27 0-0.3 0.082-0.751-0.135-0.994-0.444-0.5-1.592 0.274-2.041 0.506-0.963 0.497-1.884 1.114-2.626 1.91 0-0.375 0.030-0.877-0.475-0.928-0.557-0.056-1.29 0.757-1.65 1.11-0.446-1.918-1.239-3.874-2.631-5.308-0.232-0.239-0.502-0.529-0.803-0.686-0.325-0.17-0.702-0.080-0.824 0.296-0.105 0.322-0.037 0.736-0.091 1.076-0.048 0.301-0.122 0.598-0.225 0.885-0.619-2.085-2.114-3.933-4.043-4.952-0.274-0.145-0.501-0.234-0.802-0.045-0.591 0.372-1.076 1.102-1.442 1.678-0.767 1.208-1.262 2.583-1.6 3.968-0.125-0.324-0.22-0.689-0.384-0.994-0.155-0.287-0.45-0.464-0.768-0.281-0.333 0.192-0.378 0.751-0.447 1.088-0.353 1.721-0.182 3.532 0.181 5.237-0.176-0.203-0.398-0.382-0.686-0.297-0.451 0.134-0.437 0.734-0.469 1.112-0.071 0.849 0.032 1.709 0.324 2.51-0.2-0.103-0.431-0.277-0.655-0.319-0.618-0.116-0.679 0.53-0.612 0.968 0.17 1.111 0.774 2.163 1.369 3.097-0.354-0.092-0.894-0.35-1.214-0.078-0.546 0.463 0.35 1.82 0.592 2.309 0.602 1.22 1.343 2.394 2.306 3.363 0.669 0.674 1.451 1.245 2.332 1.608 0.338 0.139 0.689 0.247 1.047 0.318 0.151 0.030 0.309 0.037 0.458 0.071 0.050 0.012 0.141-0.008 0.185 0.017 0.136 0.078 0.181 0.381 0.24 0.553 0.171 0.501 0.629 2.538 1.465 2.008 0.441-0.28 0.168-0.744 0.017-1.106-0.21-0.506-0.397-1.021-0.565-1.542 0.339-0.083 0.669-0.202 0.99-0.337 0.235-0.099 0.772-0.454 0.933-0.356 0.208 0.125 0.418 0.583 0.588 0.777 0.085 0.098 0.343 0.279 0.367 0.389 0.022 0.104-0.166 0.382-0.205 0.476-0.56 1.34-0.99 2.738-1.22 4.173-0.072 0.447-0.351 1.407 0.363 1.478 0.652 0.064 0.606-0.756 0.671-1.183 0.221-1.456 0.667-2.872 1.245-4.224 2.992 2.166 7.453 1.836 10.699 0.434 1.967-0.85 3.794-2.155 5.212-3.767 0.144-0.164 0.344-0.352 0.365-0.581 0.070-0.747-0.956-0.584-1.409-0.584 1.041-0.754 2.021-1.622 2.816-2.637 0.253-0.324 0.897-1.011 0.681-1.478l-0-0zM8.947 24.374c-0.471-1.726-0.753-3.5-0.916-5.28-0.075-0.827-0.239-1.767-0.154-2.594 0.064-0.628 0.575-1.368 0.868-1.924 0.582-1.101 1.224-2.172 1.898-3.219 0.123-0.192 0.284-0.385 0.386-0.59 0.313-0.631-0.437-1.113-0.892-0.586-0.316 0.366-0.556 0.849-0.81 1.257-0.511 0.821-1.002 1.656-1.458 2.51 0.045-2.003 0.194-4.009 0.47-5.995 0.043-0.309 0.216-0.828 0.018-1.109-0.42-0.598-0.922-0.005-1.003 0.46-0.522 2.993-0.651 6.11-0.565 9.14 0.075 2.668 0.369 5.348 1.049 7.934-2.704-0.421-4.398-3.099-5.417-5.391 0.429 0.111 2.149 0.688 1.721-0.442-0.17-0.448-0.632-0.896-0.887-1.303-0.382-0.609-0.742-1.245-0.99-1.922 0.336 0.174 0.668 0.363 1.011 0.523 0.578 0.27 1.162-0.163 0.759-0.777-0.588-0.896-1.004-1.722-1.025-2.837 0.264 0.274 0.524 0.651 0.843 0.86 0.344 0.226 0.813 0.057 0.851-0.382 0.017-0.197-0.091-0.417-0.147-0.603-0.509-1.667-0.827-3.453-0.718-5.199 0.149 0.385 0.287 1.175 0.738 1.305 0.582 0.168 0.663-0.429 0.725-0.827 0.207-1.321 0.565-2.64 1.116-3.86 0.337-0.745 0.755-1.466 1.305-2.075 0.263-0.291 0.281-0.298 0.584-0.105 0.216 0.137 0.424 0.287 0.624 0.446 1.2 0.953 2.093 2.26 2.505 3.739 0.121 0.434 0.076 1.313 0.516 1.54 0.316 0.163 0.557-0.024 0.749-0.251 0.559-0.664 0.865-1.589 1.002-2.43 0.646 0.704 1.137 1.544 1.517 2.417 0.283 0.649 0.504 1.324 0.677 2.011 0.094 0.372 0.283 0.845 0.126 1.185-0.138 0.3-0.367 0.572-0.519 0.868-0.065-0.268-0.089-0.637-0.319-0.818-0.518-0.408-0.979 0.319-1.223 0.69-0.608 0.923-0.923 2.025-1.096 3.108-0.209-0.323-0.476-0.789-0.938-0.529-0.452 0.254-0.768 1.179-0.987 1.632-0.571 1.18-0.967 2.454-1.113 3.759-0.129 1.154-0.044 2.332 0.252 3.454 0.118 0.448 0.407 0.926 0.476 1.373 0.038 0.248-0.018 0.206-0.277 0.334-0.161 0.080-0.325 0.155-0.492 0.224-0.273 0.113-0.553 0.213-0.84 0.28l0 0zM25.79 22.164c-0.345 0.204-0.343 0.721 0.005 0.921 0.161 0.093 0.34 0.068 0.516 0.072 0.403 0.008 0.807 0 1.21 0-2.213 2.184-5.16 3.666-8.285 3.857-1.111 0.068-2.241-0.017-3.328-0.26-0.509-0.114-1-0.286-1.466-0.524-0.245-0.125-0.481-0.266-0.707-0.422-0.007-0.005-0.286-0.177-0.295-0.217-0.021-0.092 0.182-0.366 0.234-0.466 0.186-0.361 0.105-0.269 0.409-0.312 0.289-0.041 0.614 0 0.906 0 0.473 0 0.994 0.063 1.464 0 0.433-0.058 0.75-0.543 0.383-0.911-0.192-0.192-0.468-0.156-0.715-0.156h-1.69c0.401-0.654 0.827-1.292 1.258-1.927 0.076-0.112 0.254-0.494 0.376-0.535 0.055-0.019 0.169 0.037 0.227 0.043 0.833 0.081 1.678 0.315 2.501 0.47 0.438 0.082 1.552 0.511 1.856-0.007 0.503-0.859-1.111-0.939-1.561-1.023-0.777-0.146-1.554-0.292-2.331-0.438 0.617-0.805 1.264-1.587 1.933-2.349 0.259-0.295 0.331-0.218 0.708-0.185 1.006 0.087 2.011 0.173 3.017 0.26 0.456 0.039 1.715 0.379 1.989-0.168 0.473-0.945-1.445-0.856-1.889-0.894-0.906-0.078-1.813-0.156-2.719-0.234 0.628-0.666 1.272-1.318 1.93-1.954 0.257-0.248 0.377-0.456 0.709-0.489 0.823-0.081 1.694 0 2.521 0 0.215 0 0.505 0.047 0.718-0.019 0.648-0.201 0.398-0.985-0.185-1.048-0.68-0.073-1.404 0-2.089 0 0.927-0.83 1.878-1.635 2.858-2.402 0.343-0.269 1.481-1.016 0.555-1.421-0.474-0.207-1.142 0.522-1.464 0.778-1.036 0.822-2.040 1.683-3.018 2.573 0-0.409 0.102-0.951-0.019-1.346-0.133-0.434-0.739-0.533-0.975-0.127-0.101 0.173-0.073 0.402-0.073 0.594 0 0.549 0.069 1.146 0 1.69-0.041 0.326-0.275 0.447-0.523 0.689-0.457 0.446-0.907 0.899-1.349 1.359-0.079-0.736-0.158-1.471-0.238-2.207-0.043-0.398-0.24-0.9-0.754-0.695-0.392 0.156-0.336 0.535-0.301 0.865 0.094 0.873 0.188 1.745 0.282 2.618 0.047 0.432 0.063 0.431-0.248 0.782-0.639 0.72-1.259 1.455-1.855 2.21-0.070-0.649-0.14-1.299-0.21-1.948-0.050-0.467 0.032-1.994-0.8-1.781-0.651 0.166-0.33 1.251-0.281 1.712 0.093 0.864 0.187 1.728 0.28 2.592 0.020 0.181 0.112 0.484 0.072 0.667-0.053 0.243-0.401 0.579-0.543 0.79-0.274 0.405-0.545 0.812-0.81 1.223-0.071-0.37-0.068-0.922-0.285-1.238-0.226-0.329-0.73-0.305-0.912 0.056-0.093 0.184-0.046 0.354-0.013 0.542 0.087 0.497 0.191 0.992 0.286 1.488 0.027 0.143 0.11 0.35 0.095 0.495-0.031 0.31-0.39 0.752-0.531 1.034-2.484-2.783-2.075-6.969-0.409-10.035 0.191 0.296 0.362 0.645 0.589 0.913 0.392 0.462 0.928 0.209 0.989-0.338 0.143-1.261 0.226-2.489 0.823-3.645 0.081 0.336 0.128 0.701 0.247 1.025 0.24 0.657 0.884 0.507 1.078-0.080 0.431-1.304 1.063-2.463 2.119-3.372 0 0.401-0.155 1.182 0.133 1.509 0.461 0.523 0.832-0.074 1.019-0.458 0.686-1.414 2.284-2.342 3.651-2.958 0 0.295-0.054 0.644 0.011 0.933 0.115 0.515 0.576 0.51 0.943 0.273 0.726-0.469 1.426-0.917 2.232-1.25 0.63-0.26 1.284-0.462 1.952-0.595 0.34-0.067 0.788-0.192 1.137-0.155 0.228 0.024 0.138-0.029 0.197 0.159 0.037 0.116 0.020 0.284 0.028 0.407 0.080 1.389 0.036 2.795-0.193 4.168-0.077 0.461-0.175 0.918-0.303 1.367-0.105 0.369-0.261 0.839 0.213 1.017 0.345 0.13 0.865-0.164 1.19-0.275-0.185 1.387-0.695 2.721-1.741 3.682-1.075 0.988 0.852 1.24 1.495 1.406-1.094 1.51-2.641 2.69-4.231 3.63l-0-0z"></path>
</svg>
