<!-- Generated by IcoMoon.io -->
<svg version="1.1" xmlns="http://www.w3.org/2000/svg" width="32" height="32" viewBox="0 0 32 32">
<title>length</title>
<path d="M5.462 26.041c-0.11 0-0.221 0.055-0.331 0.11-0.11 0.11-0.11 0.221-0.11 0.331s0.055 0.221 0.11 0.331c0.11 0.11 0.221 0.166 0.331 0.166s0.221-0.055 0.331-0.166 0.11-0.221 0.11-0.331-0.055-0.221-0.11-0.331c-0.055-0.055-0.166-0.11-0.331-0.11zM31.172 21.186l-3.641 3.641c-0.276-0.166-0.662-0.276-1.048-0.276s-0.717 0.11-1.048 0.276l-0.772-0.772c0.441-0.772 0.331-1.821-0.331-2.483l-1.821-1.821c-0.993-0.993-1.545-2.317-1.545-3.752s0.552-2.759 1.545-3.752l1.821-1.821c0.662-0.662 0.828-1.71 0.331-2.483l0.772-0.772c0.276 0.166 0.662 0.276 1.048 0.276s0.717-0.11 1.048-0.276l3.641 3.641c0.11 0.11 0.221 0.11 0.331 0.11s0.221-0.055 0.331-0.11c0.166-0.166 0.166-0.497 0-0.662l-3.641-3.641c0.166-0.276 0.276-0.662 0.276-1.048 0-1.103-0.883-1.986-1.986-1.986-0.386 0-0.717 0.11-1.048 0.276l-3.641-3.641c-0.166-0.166-0.497-0.166-0.662 0s-0.166 0.497 0 0.662l3.697 3.697c-0.166 0.276-0.276 0.662-0.276 1.048s0.11 0.717 0.276 1.048l-0.772 0.772c-0.331-0.166-0.662-0.276-1.048-0.276-0.552 0-1.048 0.221-1.379 0.552l-1.876 1.876c-0.993 0.993-2.317 1.545-3.752 1.545s-2.759-0.552-3.752-1.545l-1.876-1.876c-0.386-0.386-0.883-0.552-1.379-0.552-0.386 0-0.717 0.11-1.048 0.276l-0.772-0.828c0.166-0.276 0.276-0.662 0.276-1.048s-0.11-0.717-0.276-1.048l3.641-3.641c0.166-0.166 0.166-0.497 0-0.662s-0.497-0.166-0.662 0l-3.641 3.641c-0.276-0.166-0.662-0.276-1.048-0.276-1.048 0.055-1.931 0.938-1.931 1.986 0 0.386 0.11 0.717 0.276 1.048l-3.641 3.641c-0.166 0.166-0.166 0.497 0 0.662 0.11 0.11 0.221 0.11 0.331 0.11s0.221-0.055 0.331-0.11l3.641-3.641c0.276 0.166 0.662 0.276 1.048 0.276s0.717-0.11 1.048-0.276l0.772 0.772c-0.441 0.772-0.331 1.821 0.331 2.483l1.821 1.821c0.993 0.993 1.545 2.317 1.545 3.752s-0.552 2.759-1.545 3.752l-1.821 1.821c-0.662 0.662-0.828 1.71-0.331 2.483l-0.828 0.772c-0.276-0.166-0.662-0.276-1.048-0.276s-0.717 0.11-1.048 0.276l-3.641-3.641c-0.166-0.166-0.497-0.166-0.662 0s-0.166 0.497 0 0.662l3.641 3.641c-0.166 0.276-0.276 0.662-0.276 1.048 0 1.103 0.883 1.986 1.986 1.986 0.386 0 0.717-0.11 1.048-0.276l3.641 3.641c0.11 0.11 0.221 0.11 0.331 0.11s0.221-0.055 0.331-0.11c0.166-0.166 0.166-0.497 0-0.662l-3.641-3.697c0.166-0.276 0.276-0.662 0.276-1.048s-0.11-0.717-0.276-1.048l0.772-0.772c0.331 0.166 0.662 0.276 1.048 0.276 0.552 0 1.048-0.221 1.379-0.552l1.876-1.876c0.993-0.993 2.317-1.545 3.752-1.545s2.759 0.552 3.752 1.545l1.876 1.876c0.386 0.386 0.883 0.552 1.379 0.552 0.386 0 0.717-0.11 1.048-0.276l0.772 0.772c-0.166 0.276-0.276 0.662-0.276 1.048s0.11 0.717 0.276 1.048l-3.641 3.641c-0.166 0.166-0.166 0.497 0 0.662 0.11 0.11 0.221 0.11 0.331 0.11s0.221-0.055 0.331-0.11l3.641-3.641c0.276 0.166 0.662 0.276 1.048 0.276 1.103 0 1.986-0.883 1.986-1.986 0-0.386-0.11-0.717-0.276-1.048l3.641-3.641c0.166-0.166 0.166-0.497 0-0.662-0.221-0.11-0.497-0.11-0.717 0.055zM26.538 4.469c0.552 0 1.048 0.441 1.048 1.048 0 0.552-0.441 1.048-1.048 1.048-0.552 0-1.048-0.441-1.048-1.048s0.441-1.048 1.048-1.048zM5.462 6.51c-0.552 0-1.048-0.441-1.048-1.048 0-0.552 0.441-1.048 1.048-1.048s1.048 0.441 1.048 1.048-0.441 1.048-1.048 1.048zM5.462 27.531c-0.552 0-1.048-0.441-1.048-1.048 0-0.552 0.441-1.048 1.048-1.048s1.048 0.441 1.048 1.048-0.441 1.048-1.048 1.048zM23.779 23.669c-0.221 0.221-0.497 0.386-0.772 0.386s-0.552-0.11-0.717-0.276l-1.876-1.931c-1.048-1.048-2.428-1.71-3.917-1.821v-2.538c0-0.276-0.221-0.497-0.497-0.497s-0.497 0.221-0.497 0.497v2.538c-1.49 0.11-2.869 0.717-3.917 1.821l-1.876 1.876c-0.221 0.221-0.441 0.276-0.717 0.276s-0.607-0.11-0.772-0.386c-0.331-0.386-0.276-1.048 0.11-1.434l1.821-1.821c1.048-1.048 1.71-2.428 1.821-3.917h2.538c0.276 0 0.497-0.221 0.497-0.497s-0.221-0.497-0.497-0.497h-2.538c-0.11-1.49-0.717-2.869-1.821-3.917l-1.821-1.821c-0.386-0.386-0.441-1.048-0.11-1.434 0.221-0.221 0.497-0.386 0.772-0.386s0.552 0.11 0.717 0.276l1.876 1.876c1.048 1.048 2.428 1.71 3.917 1.821v2.538c0 0.276 0.221 0.497 0.497 0.497s0.497-0.221 0.497-0.497v-2.538c1.49-0.11 2.869-0.717 3.917-1.821l1.876-1.876c0.221-0.221 0.441-0.276 0.717-0.276s0.607 0.11 0.772 0.386c0.331 0.386 0.276 1.048-0.11 1.434l-1.821 1.876c-1.048 1.048-1.71 2.428-1.821 3.917h-2.538c-0.276 0-0.497 0.221-0.497 0.497s0.221 0.497 0.497 0.497h2.538c0.11 1.49 0.717 2.869 1.821 3.917l1.821 1.821c0.441 0.386 0.497 1.048 0.11 1.434zM26.538 27.531c-0.552 0-1.048-0.441-1.048-1.048 0-0.552 0.441-1.048 1.048-1.048 0.552 0 1.048 0.441 1.048 1.048-0.055 0.607-0.497 1.048-1.048 1.048zM26.538 26.041c-0.11 0-0.221 0.055-0.331 0.11-0.11 0.11-0.11 0.221-0.11 0.331s0.055 0.221 0.11 0.331c0.11 0.11 0.221 0.166 0.331 0.166s0.221-0.055 0.331-0.166 0.11-0.221 0.11-0.331-0.055-0.221-0.11-0.331c-0.11-0.055-0.221-0.11-0.331-0.11zM26.538 5.959c0.11 0 0.221-0.055 0.331-0.11 0.11-0.11 0.11-0.221 0.11-0.331s-0.055-0.221-0.11-0.331c-0.11-0.11-0.221-0.166-0.331-0.166s-0.221 0.055-0.331 0.166-0.11 0.221-0.11 0.331 0.055 0.221 0.11 0.331c0.055 0.055 0.166 0.11 0.331 0.11zM5.462 5.021c-0.11 0-0.221 0.055-0.331 0.166-0.055 0.055-0.11 0.166-0.11 0.276s0.055 0.221 0.11 0.331c0.11 0.11 0.221 0.11 0.331 0.11s0.221-0.055 0.331-0.11c0.11-0.11 0.11-0.221 0.11-0.331s-0.055-0.221-0.11-0.331c-0.055-0.055-0.166-0.11-0.331-0.11z"></path>
</svg>
