<!-- Generated by IcoMoon.io -->
<svg version="1.1" xmlns="http://www.w3.org/2000/svg" width="32" height="32" viewBox="0 0 32 32">
<title>lens</title>
<path d="M27.276 4.724c-2.971-3.048-7.010-4.724-11.276-4.724-3.886 0-7.619 1.371-10.514 3.962-0.229 0.229-0.533 0.457-0.762 0.686-3.048 3.048-4.724 7.086-4.724 11.352s1.676 8.305 4.724 11.276c3.048 3.048 7.010 4.724 11.276 4.724s8.305-1.676 11.276-4.724c3.048-3.048 4.724-7.010 4.724-11.276s-1.676-8.305-4.724-11.276zM30.552 12.724l-9.067 5.257v-15.848c4.571 1.752 8 5.714 9.067 10.59zM11.581 18.59v-5.181l4.419-2.59 4.419 2.59v5.181l-4.419 2.59zM20.419 1.752v10.438l-13.714-7.924c2.59-1.981 5.79-3.2 9.295-3.2 1.524 0 3.048 0.229 4.419 0.686zM5.867 5.029l9.067 5.257-13.714 7.924c-0.076-0.762-0.152-1.448-0.152-2.21 0-4.343 1.829-8.229 4.8-10.971zM1.448 19.276l9.067-5.257v15.848c-4.571-1.752-8-5.714-9.067-10.59zM11.581 30.248v-10.438l4.19 2.438 9.524 5.486c-2.514 2.057-5.79 3.2-9.295 3.2-1.524 0-3.048-0.229-4.419-0.686zM26.133 26.971l-9.067-5.257 13.714-7.924c0.076 0.686 0.152 1.448 0.152 2.21 0 4.343-1.829 8.229-4.8 10.971z"></path>
</svg>
