<!-- Generated by IcoMoon.io -->
<svg version="1.1" xmlns="http://www.w3.org/2000/svg" width="32" height="32" viewBox="0 0 32 32">
<title>light</title>
<path d="M25.2 11.35c-0.95 0-1.8 0.2-2.65 0.55l-1.95-3.75h2.7c0.3 0 0.55 0.25 0.55 0.55s-0.25 0.55-0.55 0.55h-0.6c-0.3 0-0.55 0.25-0.55 0.55s0.25 0.55 0.55 0.55h0.6c0.9 0 1.65-0.75 1.65-1.65s-0.75-1.65-1.65-1.65h-3.6c-0.2 0-0.35 0.1-0.45 0.25s-0.1 0.35 0 0.55l0.95 1.85h-7.95l-0.8-1.55h1.25c0.3 0 0.55-0.25 0.55-0.55s-0.25-0.55-0.55-0.55h-3.6c-0.3 0-0.55 0.25-0.55 0.55s0.25 0.55 0.55 0.55h1.1l1.050 2.1-1.25 1.95c-0.95-0.5-2.050-0.8-3.2-0.8-3.75-0.050-6.8 3-6.8 6.75 0 3.8 3.050 6.85 6.8 6.85 3.6 0 6.5-2.75 6.8-6.3h1.6l-0.65 2.050h-0.35c-0.3 0-0.55 0.25-0.55 0.55s0.25 0.55 0.55 0.55h2c0.3 0 0.55-0.25 0.55-0.55s-0.25-0.55-0.55-0.55h-0.45l0.7-2.35 4.55-7.050 0.55 1.050c-1.95 1.2-3.2 3.35-3.2 5.8 0 3.75 3.050 6.85 6.8 6.85 3.8-0.050 6.85-3.1 6.85-6.9 0-3.75-3.050-6.8-6.8-6.8zM11.9 11.35l3.2 6.3h-1.45c-0.15-2-1.15-3.75-2.65-4.85zM12.5 17.6h-4.7l2.55-3.95c1.2 0.95 2 2.35 2.15 3.95zM6.8 23.9c-3.15 0-5.7-2.55-5.7-5.75s2.55-5.75 5.7-5.75c0.95 0 1.85 0.25 2.65 0.65l-3.1 4.8c-0.1 0.15-0.1 0.4 0 0.55 0.1 0.2 0.3 0.3 0.5 0.3h5.65c-0.25 2.9-2.7 5.2-5.7 5.2zM16.050 17.050l-3.25-6.3h7.25zM25.2 23.9c-3.15 0-5.7-2.55-5.7-5.75 0-2 1.050-3.8 2.65-4.8l2.6 5.050c0.1 0.2 0.3 0.3 0.5 0.3 0.1 0 0.15 0 0.25-0.050 0.25-0.15 0.4-0.45 0.25-0.75l-2.6-5.050c0.65-0.25 1.35-0.4 2.1-0.4 3.15 0 5.7 2.55 5.7 5.75-0.050 3.15-2.6 5.7-5.75 5.7z"></path>
</svg>
