<!-- Generated by IcoMoon.io -->
<svg version="1.1" xmlns="http://www.w3.org/2000/svg" width="32" height="32" viewBox="0 0 32 32">
<title>lighting</title>
<path d="M16 6.281c-4.681 0-8.533 3.733-8.533 8.356 0.059 3.022 1.541 5.807 4.030 7.585v6.044c0 0.059 0 0.119 0.059 0.178v0.059s0 0.059 0.059 0.059l2.133 3.081c0.119 0.178 0.296 0.237 0.474 0.237h3.496c0.178 0 0.415-0.119 0.474-0.237l2.133-3.081s0-0.059 0.059-0.059v-0.059c0-0.059 0.059-0.119 0.059-0.178v-5.985c2.489-1.778 3.97-4.563 4.030-7.585 0-4.622-3.793-8.356-8.474-8.415zM17.422 30.815h-2.904l-1.304-1.896h5.511zM12.741 27.733v-1.6h6.519v1.6zM19.556 21.452c-0.178 0.119-0.296 0.296-0.296 0.533v3.022h-6.519v-3.081c0-0.178-0.119-0.415-0.296-0.474-2.311-1.541-3.733-4.030-3.733-6.756 0.119-4.030 3.437-7.111 7.526-6.993 3.852 0.119 6.993 3.141 7.111 6.993-0.059 2.726-1.481 5.215-3.793 6.756zM16.237 9.007c-0.356 0-0.593 0.237-0.593 0.593s0.296 0.593 0.593 0.593c2.489 0 4.563 2.015 4.563 4.444 0 0.356 0.296 0.593 0.593 0.593 0.356 0 0.593-0.237 0.593-0.593 0-3.141-2.548-5.63-5.748-5.63zM6.459 14.637c0-0.356-0.296-0.593-0.593-0.593h-4.385c-0.356 0-0.593 0.237-0.593 0.593s0.296 0.593 0.593 0.593h4.326c0.356 0 0.652-0.237 0.652-0.593zM30.519 14.044h-4.326c-0.356 0-0.593 0.237-0.593 0.593s0.296 0.593 0.593 0.593h4.326c0.356 0 0.593-0.237 0.593-0.593 0-0.296-0.296-0.593-0.593-0.593zM8.474 21.215s-0.059 0.059-0.059 0.059l-3.141 3.022c-0.237 0.237-0.237 0.593-0.059 0.83 0.237 0.237 0.593 0.296 0.83 0.059 0 0 0.059-0.059 0.059-0.059l3.081-3.022c0.237-0.237 0.296-0.593 0.059-0.83-0.178-0.237-0.533-0.296-0.77-0.059zM23.17 8.178c0.178 0 0.296-0.059 0.415-0.178l3.081-3.022c0.237-0.237 0.237-0.593-0.059-0.83-0.237-0.178-0.533-0.178-0.77 0l-3.081 3.022c-0.237 0.237-0.237 0.593 0 0.83 0.119 0.119 0.296 0.178 0.415 0.178zM26.726 24.296l-3.081-3.022c-0.237-0.237-0.593-0.296-0.83-0.059s-0.296 0.593-0.059 0.83c0 0 0.059 0.059 0.059 0.059l3.081 3.022c0.178 0.237 0.593 0.296 0.83 0.119 0.296-0.178 0.296-0.593 0.119-0.83-0.059-0.059-0.119-0.059-0.119-0.119zM8.415 8c0.237 0.237 0.652 0.178 0.83-0.059s0.178-0.533 0-0.77l-3.081-3.022c-0.237-0.237-0.652-0.178-0.889 0.059-0.178 0.237-0.178 0.533 0 0.77zM16 5.511c0.356 0 0.652-0.237 0.652-0.593v-4.326c0-0.356-0.296-0.593-0.593-0.593-0.356 0-0.593 0.237-0.593 0.593v4.267c-0.059 0.356 0.178 0.593 0.533 0.652z"></path>
</svg>
