<!-- Generated by IcoMoon.io -->
<svg version="1.1" xmlns="http://www.w3.org/2000/svg" width="32" height="32" viewBox="0 0 32 32">
<title>magnetic</title>
<path d="M14.4 10.133h17.6v-8.533h-17.6c-7.933 0-14.4 6.467-14.4 14.4s6.467 14.4 14.4 14.4h17.6v-8.533h-17.6c-3.267 0-5.867-2.6-5.867-5.867s2.6-5.867 5.867-5.867zM30.933 2.667v6.4h-5.867v-6.4h5.867zM24 2.667v6.4h-1.067v-6.4h1.067zM30.933 22.933v6.4h-5.867v-6.4h5.867zM24 22.933v6.4h-1.067v-6.4h1.067zM7.467 16c0 3.8 3.133 6.933 6.933 6.933h7.467v6.4h-7.467c-7.333 0-13.333-6-13.333-13.333s6-13.333 13.333-13.333h7.467v6.4h-7.467c-3.8 0-6.933 3.133-6.933 6.933z"></path>
</svg>
