<!-- Generated by IcoMoon.io -->
<svg version="1.1" xmlns="http://www.w3.org/2000/svg" width="32" height="32" viewBox="0 0 32 32">
<title>map</title>
<path d="M30.3 7.1l-0.8-0.15c0-0.050 0-0.15 0-0.2 0-3-2.45-5.5-5.5-5.5-2.9 0-5.3 2.3-5.45 5.15l-8.1 1.85-8.3-0.8c-0.55-0.050-1.1 0.15-1.5 0.5s-0.65 0.9-0.65 1.45v18.5c0 1 0.75 1.85 1.8 1.95l8.7 0.9h0.1l10.95-2.5 8.2 1.25h0.3c0.45 0 0.95-0.15 1.3-0.5 0.45-0.4 0.7-0.9 0.7-1.5v-18.5c-0.050-0.95-0.75-1.8-1.75-1.9zM10 29.75l-8.15-0.8c-0.55-0.050-0.95-0.5-0.95-1.050v-18.5c0-0.3 0.1-0.55 0.35-0.75 0.2-0.2 0.5-0.3 0.8-0.25l7.95 0.75zM21.050 27.4l-10.1 2.3v-20.6l7.6-1.75c0.15 1.75 1 3.55 2.45 5.25v14.8zM19.5 6.75c0-2.5 2-4.55 4.5-4.55s4.55 2.050 4.55 4.55c0 0.2 0 0.35-0.050 0.55v0.050c-0.35 3.35-3.55 6.1-4.5 6.85-1-0.8-4.5-3.8-4.5-7.45zM31.050 27.55c0 0.3-0.15 0.6-0.35 0.8-0.25 0.2-0.55 0.3-0.85 0.25l-7.85-1.25v-13.7c0.95 0.95 1.75 1.45 1.75 1.5 0.1 0.050 0.15 0.1 0.25 0.1s0.2-0.050 0.25-0.1 1.3-0.95 2.6-2.4c1.4-1.6 2.25-3.25 2.5-4.85l0.8 0.1c0.5 0.1 0.9 0.5 0.9 1zM28 22.3c-0.8 0-1.45 0.65-1.45 1.45s0.65 1.45 1.45 1.45 1.45-0.65 1.45-1.45c0.050-0.8-0.6-1.45-1.45-1.45zM28 24.3c-0.3 0-0.55-0.25-0.55-0.55s0.25-0.55 0.55-0.55 0.55 0.25 0.55 0.55-0.25 0.55-0.55 0.55zM14 10.75c-0.8 0-1.5 0.7-1.5 1.5s0.65 1.45 1.45 1.45 1.45-0.65 1.45-1.45c0.050-0.8-0.6-1.5-1.4-1.5zM14 12.75c-0.3 0-0.55-0.25-0.55-0.55s0.25-0.55 0.55-0.55 0.55 0.25 0.55 0.55c0 0.35-0.25 0.55-0.55 0.55zM4.5 25.75c0.8 0 1.45-0.65 1.45-1.45s-0.65-1.45-1.45-1.45c-0.85-0.050-1.5 0.6-1.5 1.4 0 0.85 0.65 1.5 1.5 1.5zM4.5 23.75c0.25 0 0.5 0.2 0.5 0.5s-0.25 0.55-0.55 0.55-0.55-0.25-0.55-0.55c0.050-0.3 0.3-0.5 0.6-0.5zM24.7 17.25l0.65-0.65c0.2-0.2 0.2-0.5 0-0.65-0.2-0.2-0.5-0.2-0.65 0l-0.7 0.65-0.65-0.65c-0.2-0.2-0.5-0.2-0.65 0-0.2 0.2-0.2 0.5 0 0.65l0.65 0.65-0.65 0.65c-0.2 0.2-0.2 0.5 0 0.65 0.1 0.1 0.2 0.15 0.35 0.15 0.1 0 0.25-0.050 0.35-0.15l0.65-0.65 0.65 0.65c0.1 0.1 0.2 0.15 0.35 0.15s0.25-0.050 0.35-0.15c0.2-0.2 0.2-0.5 0-0.65zM27 6.75c0-0.4-0.1-0.8-0.25-1.2-0.1-0.25-0.4-0.35-0.6-0.25-0.25 0.1-0.35 0.4-0.25 0.6 0.1 0.25 0.15 0.55 0.15 0.8 0 1.1-0.9 2.050-2.050 2.050-1.1 0-2-0.9-2-2s0.9-2.050 2.050-2.050c0.3 0 0.55 0.050 0.8 0.15s0.5 0 0.6-0.25 0-0.5-0.25-0.6c-0.35-0.15-0.75-0.25-1.2-0.25-1.65 0-2.95 1.35-2.95 2.95 0 1.65 1.35 2.95 2.95 2.95s3-1.3 3-2.9z"></path>
</svg>
