<svg width="24" height="24" fill="none" xmlns="http://www.w3.org/2000/svg"><path d="M21.8 1.245c-.108.032-.587.487-2.087 1.984l-1.947 1.943-.013-1.216c-.012-1.131-.019-1.226-.093-1.352a.646.646 0 0 0-.475-.327c-.367-.069-.684.054-.845.327-.077.13-.081.227-.1 2.296-.011 1.188-.006 2.216.01 2.285a.81.81 0 0 0 .382.488l.169.093 2.109-.005c1.161-.003 2.188-.021 2.284-.039.362-.068.538-.304.538-.722s-.175-.653-.538-.723c-.096-.018-.669-.034-1.273-.035l-1.099-.002 1.946-1.95c1.72-1.724 1.95-1.97 1.99-2.121.135-.511-.446-1.072-.958-.924m-10.48.034c-2.081.127-4.071.864-5.79 2.145-.618.46-1.646 1.488-2.106 2.106-1.549 2.078-2.288 4.52-2.143 7.08.121 2.149.837 4.107 2.143 5.86.456.613 1.485 1.641 2.106 2.105 2.076 1.551 4.54 2.295 7.097 2.142 2.163-.129 4.097-.838 5.843-2.142.617-.46 1.645-1.488 2.105-2.105a10.836 10.836 0 0 0 2.042-4.813c.082-.532.146-1.634.106-1.845-.037-.2-.126-.346-.265-.437-.235-.154-.716-.147-.933.015-.216.161-.25.279-.286.987-.072 1.42-.382 2.6-1.006 3.832-.435.857-.89 1.486-1.611 2.225-.817.839-1.559 1.38-2.562 1.869a8.914 8.914 0 0 1-4.06.937 8.914 8.914 0 0 1-4.06-.937c-1.003-.489-1.745-1.03-2.562-1.869-.767-.786-1.208-1.41-1.68-2.374A8.895 8.895 0 0 1 2.76 12c0-1.462.3-2.761.936-4.06.492-1.006 1.033-1.746 1.87-2.562.739-.72 1.368-1.176 2.225-1.611 1.235-.626 2.407-.934 3.832-1.006.708-.036.826-.07.987-.286.106-.142.155-.433.113-.66-.092-.493-.37-.599-1.403-.536m.279 5.571c-.228.116-.311.265-.344.622l-.026.288h-.305c-.584.001-1.032.191-1.468.62-.535.527-.761 1.197-.665 1.971.052.423.133.676.314.976.259.428.637.669 1.555.989l.56.195.011 1.13.01 1.129-.164-.026a.968.968 0 0 1-.745-.578 2.328 2.328 0 0 1-.094-.46c-.058-.511-.246-.686-.738-.686-.484 0-.697.19-.73.651-.066.927.467 1.863 1.316 2.309.284.149.694.258.978.259l.165.001.026.288c.015.159.059.343.097.41.222.388 1.053.399 1.284.018.048-.077.089-.243.106-.422l.027-.294h.287a2.07 2.07 0 0 0 1.506-.635c.322-.325.494-.62.599-1.027.149-.583.072-1.302-.19-1.79-.158-.292-.504-.623-.831-.794a7.854 7.854 0 0 0-.83-.335l-.55-.19V9.24h.121c.279 0 .61.233.768.54.048.092.096.292.114.471.054.535.251.721.762.721.298 0 .468-.074.611-.265.067-.09.087-.183.097-.46.028-.702-.198-1.254-.731-1.791-.456-.46-.979-.696-1.539-.696h-.194l-.027-.294c-.017-.179-.058-.345-.106-.422-.166-.273-.688-.371-1.037-.194m-.359 3.23c0 .462-.016.84-.035.84-.05 0-.551-.191-.689-.262-.314-.163-.351-.839-.063-1.167.159-.181.313-.247.577-.249l.21-.002v.84m2.269 3.263c.174.112.229.25.23.574.001.35-.065.499-.31.697-.126.102-.196.125-.41.139l-.259.016V13.046l.33.119c.182.066.37.146.419.178" fill-rule="evenodd" fill="#000"/></svg>