<!-- Generated by IcoMoon.io -->
<svg version="1.1" xmlns="http://www.w3.org/2000/svg" width="32" height="32" viewBox="0 0 32 32">
<title>music</title>
<path d="M24.77 0h-17.541c-3.97 0-7.23 3.259-7.23 7.23v17.541c0 3.97 3.259 7.23 7.23 7.23h17.541c3.97 0 7.23-3.259 7.23-7.23v-17.541c0-3.97-3.259-7.23-7.23-7.23zM30.815 24.77c0 3.319-2.726 6.044-6.044 6.044h-17.541c-3.319 0-6.044-2.726-6.044-6.044v-17.541c0-3.319 2.726-6.044 6.044-6.044h17.541c3.319 0 6.044 2.726 6.044 6.044zM25.422 5.274l-13.037 1.719c-0.296 0.059-0.533 0.296-0.533 0.593v14.163c-0.83-0.77-1.956-1.304-3.259-1.304-2.43 0-4.444 1.778-4.444 3.97 0 2.252 2.015 4.030 4.444 4.030s4.444-1.778 4.444-3.97v-12.089l11.852-1.541v7.111c-0.83-0.77-1.956-1.244-3.2-1.244-2.43 0-4.385 1.778-4.385 3.97s1.956 3.97 4.385 3.97 4.385-1.778 4.385-3.97v-14.815c0-0.178-0.059-0.356-0.178-0.474-0.178-0.119-0.296-0.178-0.474-0.119zM8.593 27.259c-1.778 0-3.259-1.244-3.259-2.785s1.481-2.785 3.259-2.785 3.259 1.244 3.259 2.785-1.481 2.785-3.259 2.785zM21.689 23.467c-1.778 0-3.2-1.244-3.2-2.785s1.422-2.785 3.2-2.785 3.2 1.244 3.2 2.785-1.422 2.785-3.2 2.785zM24.889 8.356v1.244l-11.852 1.541v-3.081l11.852-1.541z"></path>
</svg>
