<!-- Generated by IcoMoon.io -->
<svg version="1.1" xmlns="http://www.w3.org/2000/svg" width="32" height="32" viewBox="0 0 32 32">
<title>music-2</title>
<path d="M22.4 15.448l-8.828-6.069c-0.276-0.221-0.993-0.221-1.048 0.552v12.083c0.055 0.772 0.828 0.772 1.048 0.552l8.828-6.014c0.221-0.11 0.552-0.662 0-1.103zM13.903 20.745v-9.49l6.897 4.745zM16 0c-8.828 0-16 7.172-16 16s7.172 16 16 16 16-7.172 16-16-7.172-16-16-16zM16 30.621c-8.055 0-14.621-6.566-14.621-14.621s6.566-14.621 14.621-14.621 14.621 6.566 14.621 14.621-6.566 14.621-14.621 14.621z"></path>
</svg>
