<!-- Generated by IcoMoon.io -->
<svg version="1.1" xmlns="http://www.w3.org/2000/svg" width="32" height="32" viewBox="0 0 32 32">
<title>natural-1</title>
<path d="M11.058 24.041l-0.392-0.494c0.905-1.005 2.069-1.912 3.492-1.857h5.926c1.502 0.027 1.508 2.263 0 2.291h-4.506c-0.383-0.006-0.381 0.594 0 0.589h4.506c2.283-0.059 2.29-3.409 0-3.469h-5.926c-1.195 0-2.321 0.463-3.171 1.302l-5.242 5.176c-0.116 0.115-0.117 0.301-0.003 0.417s0.301 0.117 0.417 0.002l4.085-4.035c0.341 0.399 0.772 0.885 0.297 1.375l-3.394 3.351c-0.275 0.264 0.145 0.693 0.414 0.419l3.394-3.351c0.469-0.462 0.513-1.2 0.103-1.716z"></path>
<path d="M26.219 16.115c-0.606-0.331-1.366-0.218-1.862 0.29l-3.187 3.741c-0.106 0.124-0.090 0.31 0.033 0.416s0.31 0.090 0.415-0.033l3.174-3.726c0.722-0.761 2.008 0.114 1.547 1.070l-3.054 6.519c-0.729 1.556-2.311 2.562-4.030 2.562h-2.542c-1.211 0-2.382 0.507-3.212 1.39l-2.971 3.161c-0.111 0.119-0.106 0.306 0.013 0.417s0.304 0.105 0.416-0.013l2.971-3.162c0.719-0.766 1.733-1.204 2.783-1.204h2.542c1.947 0 3.738-1.139 4.564-2.902l3.054-6.519c0.343-0.735 0.056-1.616-0.654-2.007z"></path>
<path d="M14.132 17.603c0.080-0.017 0.158-0.041 0.235-0.068 0.424 0.764 0.764 1.557 1.005 2.377 0.037 0.129 0.155 0.212 0.282 0.212 0.193 0.002 0.341-0.192 0.283-0.378-0.276-0.939-0.681-1.843-1.187-2.712-0.003-0.019-0.014-0.032-0.027-0.045-0.368-0.628-0.782-1.24-1.267-1.825l-2.929-3.383 0.228-3.181c0.012-0.162-0.11-0.303-0.272-0.315-0.164-0.003-0.303 0.111-0.315 0.273l-0.186 2.594-2.226-2.571c-0.247-0.292-0.7 0.1-0.446 0.386l2.651 3.062c0.023 0.047 0.057 0.086 0.101 0.116l1.524 1.76-2.694-0.193c-0.383-0.012-0.427 0.553-0.042 0.588l3.282 0.236 0.875 1.010c0.392 0.472 0.73 0.965 1.042 1.467-4.197 0.913-7.167-0.675-8.747-4.655-0.133-0.355-0.696-0.137-0.547 0.217 1.635 4.332 5.288 5.961 9.377 5.028z"></path>
<path d="M4.544 11.323c0.191 0.002 0.338-0.191 0.283-0.375-0.729-2.595-0.757-5.173-0.745-6.154 4.057 0.708 7.079 1.91 8.981 3.572 0.279 0.253 0.682-0.195 0.387-0.444-1.984-1.734-5.102-2.981-9.267-3.708-0.168-0.030-0.338 0.016-0.469 0.123s-0.208 0.267-0.211 0.436c-0.022 1.015 0.006 3.663 0.757 6.335 0.037 0.13 0.155 0.215 0.284 0.215z"></path>
<path d="M15.765 16.589c0 0 0.001 0 0.001 0.001 0.675 0.447 1.611 0.357 2.366 0.395 3.869 0 6.622-1.733 8.194-5.164 0.162-0.343-0.381-0.597-0.535-0.245-1.64 3.659-5.040 5.377-9.42 4.662l2.311-3.302 3.876-0.684c0.376-0.061 0.274-0.651-0.103-0.58l-3.296 0.582 5.357-7.655c0.093-0.133 0.060-0.317-0.073-0.411-0.132-0.092-0.316-0.060-0.41 0.073l-3.21 4.587-0.577-3.269c-0.028-0.161-0.179-0.268-0.341-0.239-0.16 0.028-0.267 0.181-0.239 0.341l0.68 3.849-4.47 6.386c-1.196-1.564-2.181-5.431-0.365-8.347 0.297 0.27 1.012 0.609 0.747 1.119-0.684 1.476-0.753 3.14-0.215 4.838 0.112 0.365 0.682 0.184 0.561-0.179-0.478-1.503-0.442-2.925 0.107-4.227 0.292-0.508 0.247-1.164-0.233-1.536l-0.654-0.52c1.839-2.732 5.555-4.907 11.090-6.473l-0.080-0.283 0.137 0.32c0.080 0.639 0.213 1.954 0.201 3.569-0.002 0.385 0.586 0.389 0.589 0.004 0.011-1.649-0.124-2.992-0.206-3.646-0.038-0.376-0.441-0.641-0.801-0.531-6.609 1.87-10.721 4.621-12.221 8.177-1.366 3.251-0.244 7.077 1.232 8.388z"></path>
<path d="M30.2 8.12c-0.384-0.121-0.948-0.374-1.453-0.885-0.491-0.499-0.733-1.047-0.85-1.42-0.051-0.161-0.199-0.27-0.369-0.27s-0.319 0.109-0.369 0.272c-0.119 0.386-0.37 0.953-0.886 1.459-0.499 0.492-1.050 0.732-1.424 0.847-0.355 0.094-0.358 0.639-0.005 0.737 0.362 0.118 0.896 0.357 1.386 0.828 0.532 0.512 0.797 1.089 0.925 1.483 0.053 0.16 0.2 0.268 0.369 0.268 0.17 0 0.319-0.111 0.369-0.274 0.116-0.385 0.363-0.95 0.875-1.457 0.499-0.495 1.052-0.736 1.43-0.851 0.354-0.096 0.357-0.64 0.002-0.737zM28.353 9.29c-0.402 0.399-0.664 0.828-0.835 1.204-0.328-0.764-1.153-1.632-1.998-1.997 0.753-0.284 1.727-1.259 2.009-2.004 0.287 0.745 1.253 1.708 1.991 1.993-0.363 0.166-0.779 0.419-1.167 0.804z"></path>
<path d="M6.622 18.176c0.001-0.164-0.104-0.308-0.26-0.357-0.321-0.101-0.793-0.312-1.215-0.74-0.41-0.417-0.613-0.876-0.711-1.186-0.048-0.156-0.191-0.262-0.355-0.262s-0.308 0.105-0.357 0.262c-0.099 0.324-0.309 0.798-0.74 1.221-0.418 0.411-0.878 0.612-1.191 0.708-0.342 0.092-0.346 0.613-0.004 0.712 0.729 0.133 1.803 1.223 1.932 1.931 0.051 0.156 0.196 0.26 0.359 0.258s0.305-0.107 0.352-0.264c0.098-0.322 0.304-0.794 0.732-1.218 0.417-0.414 0.88-0.615 1.194-0.711 0.157-0.048 0.263-0.191 0.263-0.354zM4.749 18.823c-0.316 0.314-0.532 0.648-0.678 0.95-0.255-0.583-0.995-1.331-1.592-1.591 0.6-0.254 1.351-1.004 1.602-1.599 0.255 0.594 0.997 1.334 1.586 1.588-0.291 0.143-0.614 0.351-0.918 0.652z"></path>
<path d="M10.435 1.439c0.162 0 0.294-0.133 0.294-0.294-0.038-0.383 0.153-1.047-0.294-1.055-0.163 0-0.295 0.133-0.295 0.294 0.038 0.383-0.152 1.046 0.295 1.055z"></path>
<path d="M10.434 3.507c0.163 0 0.295-0.132 0.295-0.294-0.038-0.377 0.152-1.038-0.295-1.046-0.162 0-0.294 0.132-0.294 0.295 0.038 0.377-0.152 1.038 0.294 1.046z"></path>
<path d="M11.096 2.093h0.809c0.382 0.006 0.383-0.595 0-0.589h-0.809c-0.382-0.006-0.382 0.595 0 0.589z"></path>
<path d="M9.042 2.093h0.738c0.382 0.006 0.383-0.595 0-0.589h-0.738c-0.382-0.006-0.383 0.595 0 0.589z"></path>
<path d="M25.718 26.575c-0.447 0.008-0.257 0.677-0.295 1.039 0 0.162 0.132 0.294 0.295 0.294 0.447-0.007 0.256-0.676 0.294-1.038 0-0.162-0.132-0.295-0.294-0.295z"></path>
<path d="M25.718 28.605c-0.447 0.007-0.257 0.675-0.295 1.029 0 0.163 0.132 0.295 0.295 0.295 0.447-0.008 0.256-0.675 0.294-1.030 0-0.162-0.132-0.294-0.294-0.294z"></path>
<path d="M27.158 27.957h-0.792c-0.382-0.006-0.383 0.594 0 0.589h0.792c0.382 0.005 0.382-0.595 0-0.589z"></path>
<path d="M25.079 27.957h-0.722c-0.382-0.006-0.382 0.594 0 0.589h0.722c0.382 0.005 0.382-0.595 0-0.589z"></path>
<path d="M7.355 20.731c0.027 1.497 2.251 1.497 2.278 0-0.027-1.497-2.251-1.496-2.278 0zM9.043 20.731c-0.004 0.719-1.096 0.719-1.1 0 0.004-0.718 1.096-0.719 1.1 0z"></path>
<path d="M28.411 21.302c-2.014 0.053-2.013 3 0 3.053 2.013-0.053 2.012-3.001 0-3.053zM28.411 23.766c-1.233-0.022-1.233-1.854 0-1.875 1.232 0.022 1.231 1.853 0 1.875z"></path>
</svg>
