<!-- Generated by IcoMoon.io -->
<svg version="1.1" xmlns="http://www.w3.org/2000/svg" width="32" height="32" viewBox="0 0 32 32">
<title>natural_2</title>
<path d="M8.533 18.133h-1.067c-0.267 0-0.533 0.267-0.533 0.533s0.267 0.533 0.533 0.533h1.067c0.267 0 0.533-0.267 0.533-0.533s-0.267-0.533-0.533-0.533zM29.333 18.133h-18.667c-0.267 0-0.533 0.267-0.533 0.533s0.267 0.533 0.533 0.533h18.667c0.267 0 0.533-0.267 0.533-0.533s-0.267-0.533-0.533-0.533zM31.533 16.467c-0.333-0.333-0.733-0.467-1.133-0.467h-1.467l2.733-5.6c0.8-1.6 0.2-3.467-1.333-4.4 0 0 0 0-0.067 0-1.533-0.867-3.533-0.4-4.467 1.067l-6 8.933h-0.667c-0.067-0.067-0.133-0.2-0.133-0.267l-0.067-0.133c-0.467-0.733-0.467-1.6-0.133-2.333v0c0.733-0.133 1.267-0.733 1.4-1.4 0.133-0.733-0.133-1.467-0.667-1.867 0.8-0.6 1.267-1.533 1.267-2.533 0-1.4-1-2.667-2.6-3.333 0.733-1.133 0.533-2.6-0.467-3.467s-2.533-0.867-3.533 0c-1 0.867-1.2 2.4-0.467 3.467-1.6 0.6-2.6 1.867-2.6 3.333 0 1 0.467 1.933 1.267 2.533-0.6 0.467-0.867 1.133-0.667 1.867 0.133 0.733 0.667 1.267 1.4 1.4v0c0.333 0.733 0.333 1.6-0.133 2.333l-0.067 0.133c-0.067 0.067-0.067 0.2-0.133 0.267h-4.333c-0.067-0.067-0.133-0.2-0.133-0.267l-0.067-0.133c-0.467-0.733-0.467-1.6-0.133-2.333v0c0.733-0.133 1.267-0.733 1.4-1.4 0.133-0.733-0.133-1.4-0.667-1.867 0.8-0.6 1.267-1.533 1.267-2.533 0-1.4-1-2.667-2.6-3.333 0.733-1.133 0.533-2.6-0.467-3.467s-2.467-0.867-3.467 0c-1 0.867-1.2 2.4-0.467 3.467-1.6 0.6-2.6 1.867-2.6 3.333 0 1 0.467 1.933 1.267 2.533-0.6 0.467-0.867 1.133-0.667 1.867 0.133 0.733 0.667 1.267 1.4 1.4v0c0.333 0.733 0.333 1.6-0.133 2.333l-0.067 0.133c-0.867 1.333-0.933 3.067-0.267 4.467l0.4 0.8c-0.133 0.067-0.267 0.133-0.333 0.267-0.333 0.267-0.467 0.733-0.467 1.133 0 0.2 0.067 0.4 0.133 0.6-0.267 0.067-0.533 0.2-0.733 0.4-0.6 0.533-0.667 1.467-0.133 2.067-0.6 0.4-0.933 1.067-0.933 1.733v4.267c0 0.267 0.267 0.533 0.533 0.533h9.6c0.267 0 0.533-0.267 0.533-0.533v-0.733c0.467 0.8 1.333 1.267 2.267 1.267h10.933c1.133 0 2.133-0.733 2.533-1.8 0.6-1.6 1.533-3.067 2.8-4.2 2.467-2.467 2.867-6.267 2.867-8.333-0.067-0.467-0.267-0.867-0.533-1.2zM26.667 7.667c0.667-1 2-1.333 3.067-0.733 0 0 0 0 0.067 0 1.067 0.6 1.467 1.933 0.933 3l-3 6.067h-6.6l5.533-8.333zM14.533 2.067c0.2-0.6 0.8-1 1.467-1s1.267 0.4 1.467 1c0.267 0.6 0.067 1.333-0.4 1.733-0.733-0.133-1.4-0.133-2.133 0-0.467-0.4-0.667-1.067-0.4-1.733zM12.267 7.467c0-1.133 1.067-2.2 2.6-2.533 0.733-0.133 1.467-0.133 2.2 0 1.533 0.333 2.6 1.4 2.6 2.533-0.067 0.933-0.667 1.733-1.533 2.133h-4.4c-0.8-0.4-1.4-1.2-1.467-2.133zM12.8 11.467c0-0.467 0.333-0.8 0.8-0.8h4.8c0.467 0 0.8 0.333 0.8 0.8s-0.333 0.8-0.8 0.8h-4.8c-0.467 0-0.8-0.333-0.8-0.8zM14.333 13.333h3.333c-0.267 0.867-0.133 1.867 0.267 2.667h-3.867c0.4-0.8 0.533-1.8 0.267-2.667zM3.867 2.067c0.2-0.6 0.8-1 1.467-1s1.267 0.4 1.467 1c0.267 0.6 0.067 1.333-0.4 1.733-0.733-0.133-1.4-0.133-2.133 0-0.467-0.4-0.667-1.067-0.4-1.733zM1.6 7.467c0-1.133 1.067-2.2 2.6-2.533 0.733-0.133 1.467-0.133 2.2 0 1.533 0.333 2.6 1.4 2.6 2.533-0.067 0.933-0.667 1.733-1.533 2.133h-4.333c-0.867-0.4-1.467-1.2-1.533-2.133zM2.133 11.467c0-0.467 0.333-0.8 0.8-0.8h4.8c0.467 0 0.8 0.333 0.8 0.8s-0.333 0.8-0.8 0.8h-4.8c-0.467 0-0.8-0.333-0.8-0.8zM3.2 16.267l0.067-0.133c0.533-0.867 0.667-1.867 0.4-2.867h3.333c-0.267 0.867-0.133 1.867 0.267 2.667h-0.867c-0.4 0-0.867 0.2-1.133 0.467-0.333 0.333-0.467 0.733-0.467 1.133 0 1.067 0.133 2.133 0.333 3.2h-1.667l-0.467-1c-0.533-1.067-0.4-2.4 0.2-3.467zM3.2 21.867h2.133c0.133 0.333 0.2 0.733 0.333 1.067h-2.467c-0.267 0-0.533-0.267-0.533-0.533s0.267-0.533 0.533-0.533zM1.733 24.133c0.133-0.067 0.267-0.133 0.4-0.133h4.067c0.2 0.4 0.4 0.733 0.667 1.067h-4.733c-0.267 0-0.533-0.267-0.533-0.533 0-0.133 0.067-0.267 0.133-0.4zM9.6 30.933h-8.533v-3.733c0-0.6 0.467-1.067 1.067-1.067h5.667c0.667 0.733 1.333 1.467 1.8 2.333v2.467zM28.4 25.2c-1.333 1.267-2.4 2.867-3.067 4.667-0.2 0.667-0.8 1.067-1.533 1.067h-10.867c-0.667 0-1.267-0.4-1.533-1.067-0.2-0.6-0.467-1.2-0.8-1.733v0c-0.6-1.067-1.4-2.067-2.267-2.933-0.533-0.6-1-1.2-1.333-1.933 0 0 0 0 0-0.067-0.8-1.8-1.2-3.667-1.133-5.6 0-0.133 0.067-0.267 0.133-0.4 0.133-0.133 0.267-0.133 0.4-0.133h24c0.133 0 0.267 0.067 0.4 0.133 0.133 0.133 0.133 0.267 0.133 0.4 0 1.933-0.333 5.467-2.533 7.6z"></path>
</svg>
