<!-- Generated by IcoMoon.io -->
<svg version="1.1" xmlns="http://www.w3.org/2000/svg" width="32" height="32" viewBox="0 0 32 32">
<title>nature-1</title>
<path d="M6.016 3.926c-1.154 0-2.090 0.936-2.090 2.090s0.936 2.090 2.090 2.090c1.154 0 2.090-0.936 2.090-2.090s-0.936-2.090-2.090-2.090zM3.114 6.016c0-1.603 1.299-2.902 2.902-2.902s2.902 1.299 2.902 2.902c0 1.603-1.299 2.902-2.902 2.902s-2.902-1.299-2.902-2.902z"></path>
<path d="M6.016 0.681c0.224 0 0.406 0.182 0.406 0.406v0.768c0 0.224-0.182 0.406-0.406 0.406s-0.406-0.182-0.406-0.406v-0.768c0-0.224 0.182-0.406 0.406-0.406z"></path>
<path d="M6.016 9.769c0.224 0 0.406 0.182 0.406 0.406v0.704c0 0.224-0.182 0.406-0.406 0.406s-0.406-0.182-0.406-0.406v-0.704c0-0.224 0.182-0.406 0.406-0.406z"></path>
<path d="M9.769 6.016c0-0.224 0.182-0.406 0.406-0.406h0.704c0.224 0 0.406 0.182 0.406 0.406s-0.182 0.406-0.406 0.406h-0.704c-0.224 0-0.406-0.182-0.406-0.406z"></path>
<path d="M0.681 6.016c0-0.224 0.182-0.406 0.406-0.406h0.768c0.224 0 0.406 0.182 0.406 0.406s-0.182 0.406-0.406 0.406h-0.768c-0.224 0-0.406-0.182-0.406-0.406z"></path>
<path d="M3.402 1.428c0.201-0.1 0.445-0.019 0.545 0.182l0.32 0.64c0.1 0.201 0.019 0.445-0.182 0.545s-0.445 0.019-0.545-0.182l-0.32-0.64c-0.1-0.201-0.019-0.445 0.182-0.545z"></path>
<path d="M7.855 9.252c0.192-0.115 0.442-0.053 0.557 0.139l0.384 0.64c0.115 0.192 0.053 0.442-0.139 0.557s-0.442 0.053-0.557-0.139l-0.384-0.64c-0.115-0.192-0.053-0.442 0.139-0.557z"></path>
<path d="M10.603 3.402c0.1 0.201 0.019 0.445-0.182 0.545l-0.64 0.32c-0.201 0.1-0.445 0.019-0.545-0.182s-0.019-0.445 0.182-0.545l0.64-0.32c0.201-0.1 0.445-0.019 0.545 0.182z"></path>
<path d="M2.78 7.855c0.115 0.192 0.053 0.442-0.139 0.557l-0.64 0.384c-0.192 0.115-0.442 0.053-0.557-0.139s-0.053-0.442 0.139-0.557l0.64-0.384c0.192-0.115 0.442-0.053 0.557 0.139z"></path>
<path d="M1.428 3.402c0.1-0.201 0.344-0.282 0.545-0.182l0.64 0.32c0.201 0.1 0.282 0.344 0.182 0.545s-0.344 0.282-0.545 0.182l-0.64-0.32c-0.201-0.1-0.282-0.344-0.182-0.545z"></path>
<path d="M9.252 7.855c0.115-0.192 0.365-0.255 0.557-0.139l0.64 0.384c0.192 0.115 0.255 0.365 0.139 0.557s-0.365 0.255-0.557 0.139l-0.64-0.384c-0.192-0.115-0.255-0.365-0.139-0.557z"></path>
<path d="M8.657 1.443c0.192 0.115 0.255 0.365 0.139 0.557l-0.384 0.64c-0.115 0.192-0.365 0.255-0.557 0.139s-0.255-0.365-0.139-0.557l0.384-0.64c0.115-0.192 0.365-0.255 0.557-0.139z"></path>
<path d="M4.085 9.237c0.201 0.1 0.282 0.344 0.182 0.545l-0.32 0.64c-0.1 0.201-0.344 0.282-0.545 0.182s-0.282-0.344-0.182-0.545l0.32-0.64c0.1-0.201 0.344-0.282 0.545-0.182z"></path>
<path d="M11.454 12.486c0.083-0.068 0.191-0.101 0.298-0.090l1.278 0.128c3.801 0.34 6.659 3.668 6.318 7.481-0 0.001-0 0.003-0 0.004l-0.128 1.28c-0.022 0.223-0.22 0.385-0.443 0.364l-1.342-0.128c-0-0-0.001-0-0.001-0-3.807-0.341-6.595-3.673-6.255-7.481 0-0.001 0-0.003 0-0.004l0.128-1.28c0.011-0.107 0.064-0.206 0.147-0.274zM12.076 13.245l-0.087 0.874c-0.299 3.359 2.16 6.297 5.52 6.597l0.002 0 0.942 0.090 0.088-0.875c0.298-3.354-2.218-6.297-5.584-6.597-0.001-0-0.003-0-0.004-0l-0.876-0.088z"></path>
<path d="M15.643 17.446c0.156-0.162 0.413-0.166 0.574-0.010l-0.282 0.292c0.282-0.292 0.282-0.292 0.282-0.292l0.001 0.001 0.002 0.002c0.002 0.002 0.005 0.005 0.009 0.008 0.007 0.007 0.018 0.018 0.032 0.031 0.028 0.027 0.067 0.067 0.118 0.118 0.101 0.102 0.243 0.25 0.414 0.435 0.34 0.37 0.794 0.891 1.244 1.493 0.449 0.601 0.902 1.291 1.236 1.999 0.331 0.703 0.561 1.458 0.524 2.177-0.011 0.224-0.202 0.396-0.427 0.385s-0.396-0.202-0.385-0.427c0.027-0.529-0.143-1.142-0.448-1.789-0.302-0.642-0.721-1.283-1.152-1.859-0.43-0.574-0.864-1.073-1.192-1.429-0.164-0.178-0.3-0.319-0.395-0.416-0.047-0.048-0.085-0.085-0.11-0.11-0.012-0.012-0.022-0.022-0.028-0.028l-0.007-0.007-0.002-0.002c-0.161-0.156-0.166-0.413-0.010-0.574z"></path>
<path d="M26.429 13.698c0.084 0.067 0.138 0.165 0.15 0.272l0.128 1.152c0 0.004 0.001 0.008 0.001 0.012 0.273 3.415-2.249 6.425-5.667 6.708l-1.135 0.189c-0.11 0.018-0.223-0.009-0.312-0.077s-0.146-0.168-0.159-0.279l-0.128-1.152c-0-0.004-0.001-0.009-0.001-0.013-0.273-3.479 2.252-6.495 5.678-6.772l1.146-0.127c0.107-0.012 0.215 0.019 0.299 0.087zM25.817 14.464l-0.748 0.083c-0.004 0-0.008 0.001-0.012 0.001-2.968 0.237-5.175 2.849-4.94 5.893l0.080 0.719 0.729-0.122c0.011-0.002 0.023-0.003 0.034-0.004 2.971-0.238 5.175-2.852 4.94-5.829l-0.082-0.742z"></path>
<path d="M22.696 18.153c0.154 0.163 0.146 0.42-0.017 0.574l-0 0zM22.678 18.727l-0.002 0.001-0.006 0.006c-0.006 0.005-0.014 0.013-0.025 0.024-0.023 0.022-0.056 0.054-0.099 0.097-0.086 0.085-0.209 0.211-0.357 0.369-0.296 0.316-0.688 0.759-1.073 1.268-0.386 0.511-0.758 1.079-1.020 1.647-0.265 0.572-0.402 1.11-0.363 1.57 0.019 0.224-0.146 0.42-0.37 0.439s-0.42-0.146-0.439-0.37c-0.057-0.66 0.142-1.347 0.435-1.98 0.295-0.639 0.704-1.258 1.11-1.795 0.407-0.539 0.819-1.004 1.129-1.334 0.155-0.165 0.285-0.297 0.377-0.389 0.046-0.046 0.082-0.081 0.107-0.105 0.013-0.012 0.022-0.022 0.029-0.028 0.003-0.003 0.006-0.006 0.008-0.008l0.003-0.003c0-0 0-0 0.265 0.281l-0.264-0.281c0.163-0.154 0.421-0.146 0.574 0.017z"></path>
<path d="M26.074 7.569c0.489-0.668 1.293-1.128 2.214-1.128 1.504 0 2.71 1.206 2.71 2.71s-1.206 2.71-2.71 2.71h-2.88c-1.175 0-2.198-0.94-2.198-2.198 0-1.175 0.94-2.198 2.198-2.198 0.232 0 0.456 0.036 0.666 0.104zM26.796 7.963c0.357 0.293 0.619 0.695 0.734 1.154 0.054 0.218-0.078 0.438-0.296 0.493s-0.438-0.078-0.493-0.296c-0.148-0.591-0.692-1.036-1.334-1.036-0.79 0-1.386 0.641-1.386 1.386 0 0.79 0.641 1.386 1.386 1.386h2.88c1.056 0 1.898-0.842 1.898-1.898s-0.842-1.898-1.898-1.898c-0.606 0-1.143 0.285-1.492 0.709z"></path>
<path d="M17.241 2.577c0.489-0.668 1.293-1.128 2.214-1.128 1.504 0 2.71 1.206 2.71 2.71s-1.206 2.71-2.71 2.71h-2.88c-1.175 0-2.198-0.94-2.198-2.198 0-1.175 0.94-2.198 2.198-2.198 0.232 0 0.456 0.036 0.666 0.104zM17.964 2.97c0.357 0.293 0.619 0.695 0.734 1.154 0.054 0.218-0.078 0.438-0.296 0.493s-0.438-0.078-0.493-0.296c-0.148-0.591-0.692-1.036-1.334-1.036-0.79 0-1.386 0.641-1.386 1.386 0 0.79 0.641 1.386 1.386 1.386h2.88c1.056 0 1.898-0.842 1.898-1.898s-0.842-1.898-1.898-1.898c-0.606 0-1.143 0.285-1.492 0.709z"></path>
<path d="M18.867 25.174c0.129-0.184 0.382-0.228 0.566-0.1 0.788 0.551 1.131 1.603 0.636 2.511-0.003 0.005-0.005 0.010-0.008 0.014-0.472 0.786-1.414 1.187-2.355 0.894-0.043-0.007-0.078-0.019-0.104-0.028-0.034-0.013-0.066-0.028-0.081-0.036-0.038-0.008-0.075-0.021-0.11-0.039l-3.392-1.792c-0.198-0.105-0.274-0.351-0.169-0.549s0.351-0.274 0.549-0.169l3.337 1.763c0.022 0.006 0.041 0.012 0.056 0.018 0.034 0.013 0.066 0.028 0.081 0.036 0.016 0.003 0.033 0.008 0.049 0.013 0.578 0.193 1.148-0.043 1.439-0.52 0.267-0.499 0.098-1.106-0.392-1.449-0.184-0.129-0.228-0.382-0.1-0.566z"></path>
<path d="M10.471 22.088l-3.187 0.956c-0.215 0.064-0.441-0.057-0.506-0.272s0.058-0.441 0.272-0.506l3.2-0.96c0.008-0.003 0.017-0.005 0.025-0.007 0.908-0.209 1.912-0.146 2.786 0.361l6.15 3.297c0.016 0.005 0.030 0.010 0.044 0.016l9.357-2.386c1.038-0.385 2.164 0.172 2.492 1.156 0.152 0.454 0.161 0.935-0.004 1.356-0.161 0.473-0.557 0.963-1.144 1.14l-12.015 4.857c-1.063 0.425-2.342 0.363-3.354-0.276l-3.56-1.653c-0.884-0.412-1.83-0.533-2.786-0.413-0.008 0.001-0.016 0.002-0.023 0.002l-0.96 0.064c-0.224 0.015-0.417-0.154-0.432-0.378s0.154-0.417 0.378-0.432l0.948-0.063c1.088-0.134 2.186 0.003 3.218 0.484 0 0 0 0 0 0l3.583 1.664c0.017 0.008 0.033 0.017 0.049 0.027 0.776 0.499 1.788 0.56 2.637 0.221 0-0 0-0 0.001-0l12.031-4.863c0.013-0.005 0.027-0.010 0.041-0.014 0.292-0.084 0.527-0.348 0.622-0.634 0.003-0.008 0.005-0.015 0.008-0.022 0.086-0.216 0.095-0.499-0.008-0.809-0.182-0.545-0.834-0.883-1.453-0.645-0.015 0.006-0.030 0.011-0.045 0.014l-9.536 2.432c-0.033 0.008-0.067 0.013-0.1 0.013-0.043 0-0.087-0.005-0.131-0.018s-0.083-0.030-0.116-0.050c-0.017-0.010-0.032-0.021-0.045-0.031-0.009-0.004-0.018-0.009-0.028-0.013l-6.208-3.328c-0.004-0.002-0.009-0.005-0.013-0.007-0.657-0.383-1.438-0.448-2.187-0.278z"></path>
<path d="M2.239 21.333c-0.352 0-0.682 0.33-0.682 0.682v7.168c0 0.4 0.314 0.682 0.682 0.682h3.904c0.352 0 0.682-0.33 0.682-0.682v-7.168c0-0.352-0.33-0.682-0.682-0.682h-3.904zM0.745 22.015c0-0.8 0.694-1.494 1.494-1.494h3.904c0.8 0 1.494 0.694 1.494 1.494v7.168c0 0.8-0.694 1.494-1.494 1.494h-3.904c-0.785 0-1.494-0.614-1.494-1.494v-7.168z"></path>
<path d="M3.282 27.699c-0.041 0.335 0.122 0.639 0.392 0.822 0.57 0.345 1.272 0.006 1.362-0.672l0.001-0.004c0.039-0.274-0.127-0.636-0.393-0.816-0.57-0.345-1.27-0.006-1.362 0.67zM2.476 27.593c0.165-1.24 1.507-1.925 2.6-1.252 0.004 0.003 0.008 0.005 0.012 0.008 0.498 0.332 0.841 0.99 0.753 1.61-0.166 1.239-1.507 1.922-2.599 1.25-0.004-0.003-0.008-0.005-0.012-0.008-0.493-0.329-0.84-0.919-0.754-1.604l0-0.003z"></path>
</svg>
