<!-- Generated by IcoMoon.io -->
<svg version="1.1" xmlns="http://www.w3.org/2000/svg" width="32" height="32" viewBox="0 0 32 32">
<title>newspaper1</title>
<path d="M23.332 21.773c0.072 0.267-0.087 0.541-0.354 0.612l-9.22 2.47c-0.043 0.012-0.087 0.017-0.13 0.017-0.221 0-0.423-0.147-0.483-0.371-0.071-0.267 0.087-0.541 0.354-0.612l9.22-2.47c0.267-0.071 0.541 0.087 0.612 0.354zM11.857 16.265c-0.24-0.139-0.412-0.362-0.483-0.629l-1.614-6.022c-0.148-0.552 0.181-1.121 0.733-1.269l7.058-1.891c0.267-0.072 0.546-0.035 0.786 0.104s0.411 0.362 0.483 0.629l1.614 6.022c0.148 0.552-0.181 1.121-0.733 1.269l-7.058 1.891c-0.089 0.024-0.179 0.036-0.269 0.036-0.18 0-0.357-0.047-0.517-0.139zM19.468 13.467l-0.402-1.5-1.888-1.489-2.104 3.287c-0.095 0.149-0.257 0.231-0.422 0.231-0.092 0-0.186-0.026-0.269-0.079-0.233-0.149-0.3-0.458-0.152-0.691l0.286-0.447-1.087-0.718-1.472 1.895 0.381 1.421c0.003 0.009 0.008 0.017 0.017 0.022s0.018 0.006 0.027 0.004l7.058-1.891c0.019-0.005 0.031-0.026 0.026-0.044zM10.726 9.355l0.908 3.39 1.291-1.662c0.16-0.206 0.452-0.254 0.67-0.11l1.461 0.965 1.576-2.463c0.076-0.119 0.199-0.2 0.338-0.224s0.282 0.013 0.393 0.1l1.27 1.001-0.779-2.908c-0.002-0.009-0.008-0.016-0.017-0.022-0.006-0.004-0.012-0.005-0.018-0.005-0.003 0-0.006 0-0.009 0.001l-7.059 1.891c-0.019 0.005-0.031 0.026-0.026 0.044zM14.754 10.767c0.315-0.084 0.501-0.408 0.417-0.723s-0.408-0.501-0.722-0.417c-0.315 0.084-0.501 0.408-0.417 0.723s0.408 0.501 0.722 0.417zM29.987 16.86c0.201 0.349 0.197 0.763-0.011 1.107s-0.573 0.54-0.976 0.524c-0.649-0.027-1.291-0.045-1.926-0.025 0.353 1.13 0.518 2.15 0.501 3.1-0.027 1.549-1.051 2.859-2.547 3.26l-15.987 4.284c-0 0-0 0-0 0-0.303 0.081-0.607 0.12-0.907 0.12-1.183 0-2.292-0.61-2.929-1.669-1.397-2.324-1.646-4.876-1.91-7.578-0.291-2.979-0.592-6.059-2.542-8.942-0.091-0.134-0.111-0.303-0.054-0.455s0.183-0.266 0.339-0.308l1.962-0.526c-0.047-0.359-0.075-0.715-0.082-1.067-0.004-0.23 0.149-0.433 0.37-0.492l1.253-0.336c0.004-0.147 0.010-0.295 0.021-0.443 0.015-0.213 0.163-0.392 0.369-0.448l15.987-4.284c0.156-0.042 0.323-0.006 0.448 0.097s0.192 0.26 0.18 0.421c-0.205 2.877 0.954 5.657 2.37 8.471 0.074-0.128 0.148-0.254 0.22-0.379 0.133-0.23 0.258-0.447 0.384-0.66 0.198-0.334 0.548-0.533 0.936-0.533h0.006c0.391 0.002 0.741 0.206 0.936 0.544l1.035 1.792c0.697-0.177 1.455 0.119 1.831 0.771s0.254 1.457-0.248 1.971l0.971 1.682zM27.991 13.404l0.466 0.807c0.048-0.163 0.032-0.345-0.059-0.504s-0.241-0.263-0.407-0.303zM21.851 19.117l1.33-0.768-1.437-2.489-1.33 0.768c-0.243 0.141-0.43 0.342-0.552 0.574-0.008 0.017-0.016 0.034-0.025 0.050-0.197 0.413-0.194 0.913 0.051 1.338 0.191 0.331 0.501 0.568 0.873 0.667s0.759 0.050 1.090-0.141zM23.303 19.434l0.985 1.707c0.134 0.232 0.408 0.333 0.654 0.258l-1.26-2.183-0.379 0.219zM27.353 17.461l-2.814-4.874c-0.556 0.934-1.187 1.894-1.981 2.682l1.534 2.657c1.076-0.339 2.177-0.448 3.261-0.465zM5.851 26.675c0.289 0.084 0.597 0.086 0.901 0.005 0.718-0.192 1.202-0.817 1.235-1.593 0.096-2.253-1.119-4.97-2.405-7.846-0.967-2.163-1.958-4.38-2.412-6.499l-1.214 0.325c1.756 2.911 2.050 5.911 2.334 8.818 0.238 2.438 0.464 4.748 1.562 6.789zM10.588 25.833c0.044-2.48-1.324-5.117-2.773-7.909-1.5-2.89-3.043-5.866-3.254-9.036l-0.627 0.168c0.162 2.41 1.381 5.136 2.561 7.777 1.336 2.987 2.597 5.808 2.491 8.297-0.052 1.221-0.827 2.208-1.976 2.516-0.121 0.032-0.243 0.056-0.365 0.072 0.586 0.468 1.358 0.635 2.136 0.426l0.004-0.001c1.075-0.29 1.782-1.196 1.802-2.31zM26.047 18.539c-0.486 0.055-0.967 0.143-1.442 0.278l1.459 2.528c0.138 0.239 0.056 0.545-0.183 0.683l-0.323 0.186c-0.246 0.142-0.514 0.209-0.78 0.209-0.541 0-1.068-0.281-1.358-0.782l-0.985-1.707-0.085 0.049c-0.373 0.216-0.789 0.326-1.211 0.326-0.213 0-0.427-0.028-0.638-0.085-0.051-0.014-0.102-0.030-0.152-0.047l-7.32 1.961c-0.043 0.012-0.087 0.017-0.13 0.017-0.221 0-0.423-0.147-0.483-0.371-0.071-0.267 0.087-0.541 0.354-0.612l6.49-1.739c-0.089-0.106-0.169-0.221-0.24-0.343-0.251-0.435-0.352-0.917-0.32-1.384l-6.4 1.715c-0.043 0.012-0.087 0.017-0.13 0.017-0.221 0-0.423-0.147-0.483-0.371-0.071-0.267 0.087-0.541 0.354-0.612l7.028-1.883c0.204-0.325 0.487-0.606 0.842-0.811l1.718-0.992c0.645-0.583 1.19-1.324 1.675-2.088-1.494-2.915-2.799-5.797-2.784-8.857l-14.982 4.014c-0.109 3.321 1.553 6.524 3.162 9.625 1.508 2.907 2.933 5.653 2.885 8.387-0.011 0.604-0.173 1.172-0.456 1.664l13.637-3.654c1.078-0.289 1.787-1.196 1.806-2.311 0.016-0.904-0.158-1.892-0.528-3.011zM29.121 17.36l-3.589-6.216c-0.019-0.032-0.039-0.044-0.076-0.044-0 0-0.001 0-0.001 0-0.037 0-0.056 0.011-0.075 0.043-0.086 0.145-0.173 0.294-0.261 0.447l3.396 5.882c0.176 0.005 0.352 0.012 0.526 0.019 0.038 0.002 0.059-0.010 0.079-0.042s0.020-0.057 0.001-0.090zM28.4 11.859c0.043 0.012 0.087 0.017 0.13 0.017 0.221 0 0.423-0.147 0.483-0.371l0.209-0.78c0.071-0.267-0.087-0.541-0.354-0.612s-0.541 0.087-0.612 0.354l-0.209 0.78c-0.071 0.267 0.087 0.541 0.354 0.612zM30.18 13.178c0.085 0 0.171-0.022 0.25-0.067l0.699-0.404c0.239-0.138 0.321-0.444 0.183-0.683s-0.444-0.321-0.683-0.183l-0.699 0.404c-0.239 0.138-0.321 0.444-0.183 0.683 0.093 0.16 0.261 0.25 0.433 0.25zM31.296 14.498l-0.78-0.209c-0.267-0.071-0.541 0.087-0.612 0.354s0.087 0.541 0.354 0.612l0.78 0.209c0.043 0.012 0.087 0.017 0.13 0.017 0.221 0 0.423-0.147 0.483-0.371 0.071-0.267-0.087-0.541-0.354-0.612z"></path>
</svg>
