<!-- Generated by IcoMoon.io -->
<svg version="1.1" xmlns="http://www.w3.org/2000/svg" width="32" height="32" viewBox="0 0 32 32">
<title>noise</title>
<path d="M21.076 13.186c0 0.166 0 0.331-0.055 0.497-0.11 0.717-0.552 1.269-0.993 1.821-0.497 0.607-1.048 1.269-1.214 2.262s-0.055 1.49 0 1.876c0.055 0.276 0.055 0.497 0 0.883-0.11 0.938-0.607 1.71-1.324 2.262s-1.655 0.772-2.538 0.662c-0.938-0.11-1.71-0.607-2.262-1.324-0.055-0.11-0.166-0.221-0.221-0.276l-0.883 0.828c0.055 0.055 0.055 0.11 0.11 0.166 0.772 0.993 1.821 1.655 3.090 1.821 0.221 0.055 0.441 0.055 0.662 0.055 0.993 0 1.986-0.331 2.814-0.938 0.993-0.772 1.655-1.821 1.821-3.090 0.055-0.552 0-0.883 0-1.214-0.055-0.331-0.11-0.717 0-1.545 0.11-0.607 0.497-1.103 0.938-1.655 0.552-0.662 1.103-1.379 1.269-2.428 0.11-0.607 0.055-1.214 0-1.821zM11.090 12.91c0.331 0.055 0.662-0.166 0.662-0.497 0.331-2.538 2.703-4.359 5.297-3.972 1.103 0.166 2.097 0.717 2.759 1.434l0.883-0.883c-0.883-0.938-2.097-1.6-3.476-1.821-3.2-0.441-6.179 1.821-6.676 5.021 0 0.386 0.221 0.662 0.552 0.717zM13.848 12.634c-0.055 2.593-1.6 3.090-1.655 3.090-0.221 0.055-0.331 0.276-0.276 0.497 0.055 0.166 0.221 0.276 0.386 0.276h0.11c0.11 0 2.207-0.607 2.262-3.862 0-1.048 0.828-1.876 1.876-1.876 0.662 0 1.214 0.331 1.545 0.828l0.607-0.607c-0.497-0.662-1.269-1.048-2.152-1.048-1.49 0.055-2.648 1.214-2.703 2.703zM22.621 8.386l-14.234 14.234c-0.276 0.276-0.276 0.717 0 0.993 0.11 0.11 0.331 0.221 0.497 0.221s0.331-0.055 0.497-0.221l14.234-14.234c0.276-0.276 0.276-0.717 0-0.993s-0.717-0.276-0.993 0zM25.379 0h-18.759c-3.641 0-6.621 2.979-6.621 6.621v18.759c0 3.641 2.979 6.621 6.621 6.621h18.759c3.641 0 6.621-2.979 6.621-6.621v-18.759c0-3.641-2.979-6.621-6.621-6.621zM30.786 25.379c0 2.979-2.428 5.407-5.407 5.407h-18.759c-2.979 0-5.407-2.428-5.407-5.407v-18.759c0-2.979 2.428-5.407 5.407-5.407h18.759c2.979 0 5.407 2.428 5.407 5.407z"></path>
</svg>
