<!-- Generated by IcoMoon.io -->
<svg version="1.1" xmlns="http://www.w3.org/2000/svg" width="32" height="32" viewBox="0 0 32 32">
<title>novelty-1</title>
<path d="M3.733 22.886c-1.218 0-2.229 0.973-2.229 2.229 0 1.285 0.911 2.235 1.831 3.010 0.276 0.23 0.567 0.44 0.798 0.6 0.096 0.066 0.18 0.123 0.249 0.17 0.014 0.010 0.028 0.019 0.042 0.028 0.037 0.025 0.071 0.048 0.098 0.067 0.001 0.001 0.002 0.001 0.003 0.002 0.009 0.006 0.026 0.018 0.047 0.034l1.198 0.758 1.195-0.757c0.016-0.013 0.030-0.023 0.038-0.029 0.001-0.001 0.002-0.001 0.002-0.002 0.026-0.019 0.058-0.042 0.094-0.068s0.079-0.056 0.129-0.091c0.048-0.034 0.101-0.071 0.155-0.11 0.228-0.162 0.525-0.376 0.833-0.613 0.903-0.713 1.819-1.714 1.819-3 0-1.218-0.973-2.229-2.229-2.229-0.701 0-1.303 0.287-1.7 0.764-0.083 0.1-0.206 0.157-0.336 0.157s-0.253-0.058-0.336-0.157c-0.398-0.477-0.999-0.764-1.7-0.764zM0.629 25.116c0-1.75 1.413-3.104 3.104-3.104 0.776 0 1.489 0.263 2.036 0.736 0.547-0.473 1.26-0.736 2.036-0.736 1.75 0 3.104 1.413 3.104 3.104 0 1.718-1.215 2.948-2.154 3.689-0.001 0.001-0.003 0.002-0.004 0.003-0.322 0.247-0.63 0.469-0.862 0.634-0.060 0.042-0.112 0.079-0.159 0.112s-0.088 0.062-0.124 0.088c-0.035 0.025-0.061 0.044-0.079 0.057-0.006 0.004-0.010 0.007-0.013 0.010-0.018 0.016-0.037 0.030-0.056 0.043l-1.455 0.921c-0.143 0.090-0.325 0.090-0.468 0l-1.455-0.921c-0.018-0.011-0.034-0.024-0.050-0.037-0.003-0.002-0.007-0.005-0.012-0.008-0.019-0.014-0.047-0.032-0.085-0.058-0.013-0.008-0.026-0.017-0.040-0.027-0.069-0.047-0.158-0.107-0.259-0.176-0.241-0.167-0.556-0.393-0.861-0.648l-0.002-0.001c-0.921-0.776-2.144-1.959-2.144-3.68zM4.037 29.719c-0 0-0-0-0.001-0.001 0.001 0.001 0.001 0.001 0.001 0.001z"></path>
<path d="M4.557 16.438c-0.72 0-1.259 0.572-1.259 1.259 0 0.701 0.52 1.262 1.103 1.749 0.003 0.002 0.005 0.005 0.008 0.007 0.178 0.155 0.346 0.279 0.477 0.37 0.050 0.035 0.093 0.064 0.132 0.090 0.013 0.009 0.026 0.017 0.038 0.025 0.023 0.015 0.046 0.031 0.066 0.046l0 0c0.008 0.006 0.022 0.016 0.039 0.030l0.62 0.414 0.699-0.419c0.028-0.024 0.058-0.046 0.080-0.063 0.048-0.036 0.109-0.082 0.179-0.134 0.034-0.025 0.069-0.051 0.107-0.079 0.118-0.087 0.254-0.187 0.397-0.294 0.586-0.489 1.095-0.999 1.095-1.742 0-0.72-0.572-1.259-1.259-1.259-0.351 0-0.716 0.182-0.928 0.429-0.083 0.097-0.204 0.153-0.332 0.153s-0.249-0.056-0.332-0.153c-0.212-0.247-0.578-0.429-0.928-0.429zM2.423 17.697c0-1.155 0.915-2.134 2.134-2.134 0.458 0 0.908 0.166 1.261 0.427 0.353-0.261 0.803-0.427 1.261-0.427 1.155 0 2.134 0.915 2.134 2.134 0 1.194-0.844 1.942-1.418 2.421-0.006 0.005-0.012 0.009-0.018 0.014-0.15 0.112-0.293 0.218-0.413 0.307-0.037 0.027-0.072 0.053-0.104 0.077-0.070 0.052-0.126 0.094-0.168 0.126-0.037 0.028-0.049 0.039-0.050 0.039s0.002-0.003 0.007-0.007c-0.025 0.025-0.054 0.047-0.084 0.066l-0.97 0.582c-0.145 0.087-0.327 0.083-0.468-0.011l-0.873-0.582c-0.016-0.011-0.031-0.022-0.045-0.035-0.009-0.006-0.023-0.016-0.044-0.031-0.010-0.007-0.021-0.014-0.032-0.022-0.039-0.026-0.090-0.061-0.145-0.099-0.146-0.102-0.341-0.244-0.549-0.426-0.58-0.484-1.414-1.278-1.414-2.418zM4.615 20.698c-0 0-0.001-0.001-0.003-0.002 0.002 0.001 0.003 0.002 0.003 0.002z"></path>
<path d="M16.39 0.583c5.787-0.609 10.714 3.91 10.714 9.599 0 2.794-1.169 5.28-3.041 7.101-0.002 0.002-0.004 0.004-0.006 0.006-1.471 1.379-2.383 3.303-2.383 5.354 0 0.678-0.535 1.213-1.213 1.213h-5.964c-0.678 0-1.213-0.535-1.213-1.213 0-2.049-0.91-3.973-2.432-5.402l-0.002-0.002c-2.184-2.083-3.401-5.23-2.894-8.576l0-0.001c0.661-4.319 4.068-7.57 8.43-8.078 0.002-0 0.003-0 0.005-0.001zM16.484 1.453c-3.976 0.463-7.064 3.417-7.664 7.34-0.463 3.053 0.647 5.918 2.632 7.81 1.678 1.577 2.706 3.725 2.706 6.039 0 0.195 0.144 0.338 0.338 0.338h5.964c0.195 0 0.338-0.144 0.338-0.338 0-2.312 1.026-4.459 2.656-5.989 1.714-1.669 2.774-3.933 2.774-6.472 0-5.171-4.478-9.282-9.745-8.729z"></path>
<path d="M13.722 23.807c-0.486 0-0.872 0.386-0.872 0.872 0 0.502 0.395 0.904 0.893 0.872 0.009-0.001 0.018-0.001 0.027-0.001h7.418c0.486 0 0.872-0.386 0.872-0.872s-0.386-0.872-0.872-0.872h-7.467zM11.975 24.679c0-0.969 0.778-1.747 1.747-1.747h7.467c0.969 0 1.747 0.778 1.747 1.747s-0.778 1.747-1.747 1.747h-7.405c-1.046 0.057-1.808-0.798-1.808-1.747z"></path>
<path d="M13.963 26.036c0-0.242 0.196-0.438 0.438-0.438h6.206c0.242 0 0.438 0.196 0.438 0.438v1.6c0 1.163-0.923 2.086-2.086 2.086h-2.909c-1.163 0-2.086-0.923-2.086-2.086v-1.6zM14.838 26.474v1.163c0 0.68 0.531 1.211 1.211 1.211h2.909c0.68 0 1.211-0.531 1.211-1.211v-1.163h-5.331z"></path>
<path d="M15.66 28.799c0.242 0 0.438 0.196 0.438 0.438 0 0.728 0.628 1.356 1.356 1.356s1.356-0.628 1.356-1.356c0-0.242 0.196-0.438 0.438-0.438s0.438 0.196 0.438 0.438c0 1.211-1.020 2.231-2.231 2.231s-2.231-1.020-2.231-2.231c0-0.242 0.196-0.438 0.438-0.438z"></path>
<path d="M14.932 15.176c0-0.242 0.196-0.438 0.438-0.438h4.17c0.242 0 0.438 0.196 0.438 0.438v8.194c0 0.242-0.196 0.438-0.438 0.438h-4.17c-0.242 0-0.438-0.196-0.438-0.438v-8.194zM15.807 15.614v7.319h3.295v-7.319h-3.295z"></path>
<path d="M17.453 10.423c0.167-0.001 0.32 0.094 0.394 0.244l2.133 4.315c0.067 0.136 0.059 0.296-0.021 0.425s-0.22 0.207-0.372 0.207h-4.218c-0.151 0-0.291-0.077-0.371-0.205s-0.089-0.287-0.023-0.423l2.085-4.315c0.073-0.15 0.225-0.246 0.392-0.247zM17.459 11.857l-1.392 2.881h2.817l-1.424-2.881z"></path>
<path d="M17.454 14.739c0.242 0 0.438 0.196 0.438 0.438v8.194c0 0.242-0.196 0.438-0.438 0.438s-0.438-0.196-0.438-0.438v-8.194c0-0.242 0.196-0.438 0.438-0.438z"></path>
<path d="M15.853 13.576c0-0.242 0.196-0.438 0.437-0.438h2.327c0.242 0 0.438 0.196 0.438 0.438s-0.196 0.438-0.438 0.438h-2.327c-0.242 0-0.438-0.196-0.438-0.438z"></path>
<path d="M20.989 7.378c0.183 0.158 0.203 0.434 0.045 0.617l-1.551 1.794c-0.081 0.094-0.198 0.148-0.321 0.151s-0.243-0.047-0.328-0.137l-1.347-1.424-1.238 1.587c-0.081 0.104-0.204 0.165-0.336 0.168s-0.257-0.054-0.342-0.154l-1.648-1.939c-0.157-0.184-0.134-0.46 0.050-0.617s0.46-0.134 0.617 0.050l1.301 1.53 1.221-1.565c0.078-0.101 0.197-0.162 0.324-0.168s0.251 0.044 0.339 0.136l1.365 1.443 1.235-1.428c0.158-0.183 0.434-0.203 0.617-0.045z"></path>
<path d="M29.137 9.601c0-0.242 0.196-0.438 0.438-0.438h1.358c0.242 0 0.438 0.196 0.438 0.438s-0.196 0.438-0.438 0.438h-1.358c-0.242 0-0.438-0.196-0.438-0.438z"></path>
<path d="M28.269 11.285c0.114-0.213 0.379-0.293 0.592-0.179l1.358 0.727c0.213 0.114 0.293 0.379 0.179 0.592s-0.379 0.293-0.592 0.179l-1.358-0.727c-0.213-0.114-0.293-0.379-0.179-0.592z"></path>
<path d="M30.398 6.776c0.114 0.213 0.034 0.478-0.179 0.592l-1.358 0.727c-0.213 0.114-0.478 0.034-0.592-0.179s-0.034-0.478 0.179-0.592l1.358-0.727c0.213-0.114 0.478-0.034 0.592 0.179z"></path>
<path d="M3.586 9.6c0-0.242 0.196-0.438 0.438-0.438h1.358c0.242 0 0.438 0.196 0.438 0.438s-0.196 0.438-0.438 0.438h-1.358c-0.242 0-0.438-0.196-0.438-0.438z"></path>
<path d="M4.562 6.77c0.117-0.211 0.384-0.287 0.595-0.17l1.309 0.727c0.211 0.117 0.287 0.384 0.17 0.595s-0.384 0.287-0.595 0.17l-1.309-0.727c-0.211-0.117-0.287-0.384-0.17-0.595z"></path>
<path d="M6.636 11.279c0.117 0.211 0.041 0.478-0.17 0.595l-1.309 0.727c-0.211 0.117-0.478 0.041-0.595-0.17s-0.041-0.478 0.17-0.595l1.309-0.727c0.211-0.117 0.478-0.041 0.595 0.17z"></path>
</svg>
