<!-- Generated by IcoMoon.io -->
<svg version="1.1" xmlns="http://www.w3.org/2000/svg" width="32" height="32" viewBox="0 0 32 32">
<title>organic</title>
<path d="M13.067 26.4h-0.8v-5.76c0-0.213-0.107-0.427-0.267-0.587l-4.533-4.587c-0.48-0.48-1.067-0.693-1.707-0.693-0.16 0-0.267 0-0.373 0.053v-3.147c0-1.333-1.067-2.453-2.4-2.453-1.387-0.053-2.453 1.067-2.453 2.4v9.707c0 0.213 0.107 0.427 0.267 0.587l3.36 3.413v1.013h-0.64c-0.48 0.053-0.853 0.427-0.853 0.853v4.8h1.653v-3.947h7.947v3.947h1.653v-4.8c0-0.427-0.373-0.8-0.853-0.8zM10.613 26.4h-4.8v-1.387c0-0.213-0.107-0.427-0.267-0.587l-3.36-3.413v-9.387c0-0.427 0.373-0.8 0.8-0.8 0.373 0 0.747 0.373 0.747 0.8v4.267c-0.267 0.373-0.373 0.853-0.373 1.333 0 0.64 0.267 1.28 0.693 1.707l2.613 2.613 1.173-1.173-2.613-2.613c-0.16-0.16-0.213-0.32-0.213-0.533s0.107-0.427 0.213-0.533c0.267-0.32 0.8-0.32 1.12 0l4.32 4.373v5.333zM29.067 9.173c-1.333 0-2.4 1.12-2.4 2.453v3.147c-0.107 0-0.267-0.053-0.373-0.053-0.64 0-1.28 0.267-1.707 0.693l-4.533 4.587c-0.16 0.16-0.267 0.373-0.267 0.587v5.707h-0.8c-0.48 0-0.8 0.373-0.8 0.853v4.8h1.547v-3.947h7.947v4h1.653v-4.8c0-0.48-0.373-0.853-0.8-0.853h-0.64v-1.013l3.36-3.413c0.16-0.16 0.267-0.373 0.267-0.587v-9.707c-0.053-1.333-1.12-2.453-2.453-2.453zM26.453 24.427c-0.16 0.16-0.267 0.373-0.267 0.587v1.387h-4.853v-5.387l4.32-4.373c0.267-0.32 0.8-0.32 1.12 0 0.16 0.16 0.213 0.32 0.213 0.533s-0.107 0.427-0.213 0.533l-2.613 2.613 1.173 1.173 2.613-2.613c0.48-0.48 0.693-1.067 0.693-1.707 0-0.48-0.107-0.907-0.373-1.333v-4.267c0-0.427 0.373-0.8 0.8-0.8s0.8 0.373 0.8 0.8v9.387zM22.453 10.507c0-4.747-5.6-10.080-5.867-10.293-0.32-0.32-0.8-0.32-1.12 0-0.213 0.213-5.867 5.547-5.867 10.293 0 4.213 2.080 6.827 5.6 7.2v2.453h1.653v-2.453c3.52-0.373 5.6-2.987 5.6-7.2zM15.2 16c-2.613-0.32-3.947-2.187-3.947-5.493 0-0.533 0.107-1.12 0.267-1.707l3.68 3.68zM15.2 10.133l-2.987-3.040c0.853-1.653 2.027-3.147 2.987-4.213zM16.853 2.88c0.96 1.067 2.133 2.613 2.987 4.213l-2.987 3.040zM16.853 16v-3.52l3.68-3.733c0.16 0.587 0.267 1.173 0.267 1.707 0 3.36-1.387 5.227-3.947 5.547zM15.2 23.36h1.653v-2.080h-1.653z"></path>
</svg>
