<svg xmlns="http://www.w3.org/2000/svg" width="32" height="32"><path d="M29.141 1.922c-1.901.511-3.754 1.697-5.016 3.212a9.838 9.838 0 0 0-1.965 3.7l-.137.473-.782.784c-.43.432-.788.779-.795.772-.008-.007.033-.19.09-.406a10.07 10.07 0 0 0 .107-4.51 11.618 11.618 0 0 0-.645-2.012c-.266-.613-.722-1.407-.867-1.508a.475.475 0 0 0-.616.071c-.149.159-.64 1.054-.853 1.555a9.999 9.999 0 0 0 .264 8.399l.317.638-1.959 1.96c-1.078 1.077-1.966 1.952-1.975 1.943-.009-.008.029-.145.083-.304.127-.369.364-1.362.469-1.959.123-.708.154-2.611.055-3.399-.222-1.758-.806-3.505-1.651-4.941-.316-.536-.458-.683-.661-.683-.253 0-.382.123-.716.683-.799 1.343-1.37 2.991-1.629 4.703-.129.85-.129 2.576-.001 3.414.242 1.583.764 3.167 1.442 4.372.136.242.247.455.247.474 0 .019-.984 1.017-2.185 2.219l-2.185 2.184.26-.798c.288-.88.492-1.737.631-2.651.132-.872.13-3.344-.004-4.2-.307-1.963-.922-3.768-1.842-5.406-.459-.818-.572-.941-.857-.941-.271 0-.341.067-.695.667-1.056 1.787-1.73 3.752-2.039 5.946-.045.324-.07 1.007-.068 1.894.003 1.159.023 1.512.122 2.154.147.946.458 2.179.755 2.992.237.65.818 1.9 1.133 2.437l.189.322L3.51 27.82c-.908.905-1.675 1.704-1.702 1.774-.115.288.158.646.493.646.085 0 .608-.486 1.829-1.699l1.71-1.699.213.128c.529.317 1.716.881 2.374 1.127a15.28 15.28 0 0 0 7.946.753 14.973 14.973 0 0 0 4.027-1.299c2.138-1.031 2.316-1.329 1.192-1.993a15 15 0 0 0-7.305-2.129c-2.084-.066-3.956.241-5.94.972-.059.022.877-.948 2.079-2.154 1.203-1.207 2.203-2.194 2.222-2.194.02 0 .212.101.427.223 1.231.702 3.006 1.28 4.578 1.491.655.088 2.443.088 3.094-.001a13.887 13.887 0 0 0 2.88-.708c.89-.318 2.403-1.116 2.597-1.372.107-.14.082-.413-.051-.558-.256-.28-1.577-.969-2.573-1.342-.649-.243-1.732-.521-2.483-.639-.773-.121-2.332-.163-3.119-.084-.774.077-1.734.264-2.451.478a5.262 5.262 0 0 1-.544.146c-.007-.006.87-.893 1.947-1.971l1.96-1.959.638.317c1.345.668 2.592.988 4.105 1.054 1.829.079 3.804-.406 5.367-1.318.519-.303.633-.424.633-.666 0-.257-.153-.396-.858-.779a10.053 10.053 0 0 0-3.088-1.068c-.473-.086-.847-.113-1.627-.116-1.053-.005-1.682.066-2.531.285-.219.056-.405.096-.413.088-.037-.038 1.577-1.581 1.654-1.581.207 0 1.549-.488 2.095-.762 2.566-1.287 4.43-3.535 5.197-6.266.193-.689.197-.831.027-1.001-.162-.162-.425-.168-.968-.022" fill-rule="evenodd"/></svg>