<!-- Generated by IcoMoon.io -->
<svg version="1.1" xmlns="http://www.w3.org/2000/svg" width="32" height="32" viewBox="0 0 32 32">
<title>payload</title>
<path d="M31.55 16.55h-4.050v-0.050c0-0.8-0.65-1.45-1.45-1.45s-1.45 0.65-1.45 1.45v0.050h-4.1c-0.25 0-0.45 0.2-0.45 0.45s0.2 0.45 0.45 0.45h3.55v0.6h-16.1s0 0 0-0.050v-0.55h3.55c0.25 0 0.45-0.2 0.45-0.45s-0.2-0.45-0.45-0.45h-4.050v-0.050c0-0.8-0.65-1.45-1.45-1.45-0.85 0-1.5 0.65-1.5 1.45v0.050h-4.050c-0.25 0-0.45 0.2-0.45 0.45s0.2 0.45 0.45 0.45h3.55v0.55c0 1.1 0.9 2 1.95 2 0.75 0 1.4-0.4 1.7-1h2.95l0.45 1.3c0.35 1 1.3 1.7 2.35 1.7h5.15c1.050 0 2-0.7 2.35-1.7l0.45-1.3h2.95c0.35 0.6 1 1 1.7 1 1.1 0 1.95-0.9 1.95-2v-0.55h3.55c0.25 0 0.45-0.2 0.45-0.45 0.050-0.25-0.15-0.45-0.4-0.45zM5.45 16.5c0-0.3 0.25-0.55 0.55-0.55s0.55 0.25 0.55 0.55v0.050zM7 18c0 0.55-0.45 1.050-1.050 1.050-0.55 0-1.050-0.45-1.050-1.050v-0.55h2.1zM20 20c-0.2 0.65-0.8 1.050-1.45 1.050h-5.1c-0.65 0-1.25-0.4-1.45-1.050l-0.35-1h8.7zM25.5 16.5c0-0.3 0.25-0.55 0.55-0.55s0.55 0.25 0.55 0.55v0.050zM27.050 18c0 0.55-0.45 1.050-1.050 1.050-0.55 0-1.050-0.45-1.050-1.050v-0.55h2.050v0.55zM12.5 10.45h1.55l0.45 6.1c0 0.25 0.25 0.45 0.5 0.45s0.45-0.25 0.45-0.5l-0.5-6.5c0-0.3-0.2-0.5-0.45-0.5h-0.95l2.45-2.8 2.45 2.8h-0.95c-0.25 0-0.45 0.2-0.45 0.45l-0.5 6.5c0 0.25 0.15 0.5 0.45 0.5h0.050c0.25 0 0.45-0.2 0.45-0.45l0.45-6.1h1.55c0.2 0 0.35-0.1 0.45-0.3 0.050-0.1 0.050-0.3-0.1-0.45l-3.5-4c-0.1-0.1-0.2-0.15-0.35-0.15s-0.25 0.050-0.35 0.15l-3.5 4c-0.15 0.15-0.15 0.35-0.1 0.55 0.1 0.15 0.25 0.25 0.45 0.25zM21.35 23.6c-0.85-0.2-2-0.4-3.3-0.45-0.25 0-0.5 0.2-0.5 0.45s0.2 0.5 0.45 0.5c2.35 0.15 3.55 0.5 3.95 0.75-0.55 0.3-2.55 0.8-5.95 0.8s-5.4-0.45-5.95-0.8c0.4-0.2 1.6-0.6 3.95-0.75 0.25 0 0.45-0.25 0.45-0.5s-0.25-0.45-0.5-0.45c-1.35 0.1-2.5 0.25-3.3 0.45-0.7 0.2-1.6 0.5-1.6 1.2 0 0.65 0.7 1.050 2.3 1.35 1.25 0.25 2.95 0.4 4.7 0.4s3.45-0.15 4.7-0.4c1.6-0.3 2.3-0.7 2.3-1.35-0.050-0.7-1-1.050-1.7-1.2z"></path>
</svg>
