<!-- Generated by IcoMoon.io -->
<svg version="1.1" xmlns="http://www.w3.org/2000/svg" width="32" height="32" viewBox="0 0 32 32">
<title>phone-5</title>
<path d="M25.733 32c-1.333 0-2.933-0.333-4.733-1-3.867-1.467-8.067-4.333-11.867-8.133s-6.667-8-8.133-11.867c-1.333-3.533-1.333-6.4 0-7.733 0.2-0.2 0.4-0.4 0.6-0.6 1.2-1.267 2.6-2.733 4.4-2.667 1.267 0.067 2.467 0.8 3.667 2.333 3.667 4.533 2 6.2 0.133 8.067l-0.333 0.333c-0.333 0.333-0.933 1.733 4.6 7.267 1.8 1.8 3.333 3.133 4.533 3.867 0.8 0.467 2.133 1.267 2.733 0.667l0.333-0.333c1.867-1.933 3.467-3.533 8.067 0.133 1.533 1.267 2.333 2.467 2.333 3.667 0.067 1.8-1.4 3.2-2.667 4.4-0.2 0.2-0.4 0.4-0.6 0.6-0.667 0.667-1.733 1-3.067 1zM5.8 1.067c-1.267 0-2.467 1.2-3.467 2.333-0.2 0.2-0.4 0.4-0.6 0.6-1 1-0.867 3.6 0.267 6.6 1.4 3.733 4.2 7.8 7.867 11.467s7.733 6.467 11.467 7.867c3 1.133 5.6 1.267 6.6 0.267l0.6-0.6c1.133-1.067 2.333-2.267 2.333-3.533-0.067-0.933-0.667-1.867-1.933-2.867-3.8-3.067-4.867-2-6.6-0.2l-0.333 0.333c-0.867 0.867-2.2 0.667-4.067-0.533-1.267-0.867-2.867-2.2-4.733-4.067-4.533-4.533-6-7.333-4.6-8.733l0.333-0.333c1.8-1.733 2.867-2.8-0.2-6.6-1-1.267-2-1.933-2.933-1.933 0.067-0.067 0.067-0.067 0-0.067z"></path>
</svg>
