<!-- Generated by IcoMoon.io -->
<svg version="1.1" xmlns="http://www.w3.org/2000/svg" width="32" height="32" viewBox="0 0 32 32">
<title>phone-6</title>
<path d="M25.333 19.867c-0.667-0.667-1.467-1.067-2.267-1.067s-1.6 0.4-2.267 1.067l-2.133 2.133c-0.133-0.133-0.4-0.133-0.533-0.267-0.267-0.133-0.533-0.267-0.667-0.4-2-1.333-3.867-2.933-5.6-5.067-0.8-1.067-1.467-2-1.867-2.933 0.533-0.533 1.067-1.067 1.6-1.6 0.133-0.133 0.4-0.4 0.533-0.533 1.467-1.467 1.467-3.2 0-4.667l-1.867-1.733c-0.267-0.267-0.4-0.533-0.667-0.667-0.4-0.4-0.8-0.8-1.333-1.2-0.533-0.8-1.333-1.067-2.133-1.067s-1.6 0.267-2.267 0.933l-2.4 2.4c-0.8 0.8-1.333 1.867-1.467 3.067-0.133 2 0.4 3.867 0.933 5.067 1.067 2.933 2.667 5.733 5.2 8.667 2.933 3.467 6.533 6.267 10.533 8.267 1.6 0.8 3.6 1.6 6 1.733h0.4c1.6 0 2.933-0.533 3.867-1.733l2.133-2.133c0.667-0.667 1.067-1.467 1.067-2.4 0-0.8-0.4-1.6-1.067-2.267zM27.733 26.933c-0.267 0.267-0.533 0.533-0.8 0.8-0.4 0.4-0.933 0.8-1.333 1.333-0.667 0.667-1.467 1.067-2.533 1.067-0.133 0-0.267 0-0.267 0-2-0.133-3.867-0.933-5.333-1.6-3.867-1.867-7.2-4.533-10-7.867-2.267-2.8-3.867-5.333-4.933-8.133-0.533-1.467-0.8-2.8-0.667-4.133 0.133-0.8 0.4-1.467 0.933-2l2.267-2.267c0.267-0.267 0.667-0.533 1.067-0.533s0.8 0.267 0.933 0.533c0.533 0.4 0.933 0.8 1.333 1.2l2.533 2.533c0.667 0.667 0.667 1.333 0 2.133-0.267 0.133-0.533 0.4-0.667 0.533-0.533 0.533-1.067 1.2-1.733 1.6-0.533 0.667-0.533 1.2-0.4 1.6 0.533 1.2 1.2 2.4 2.267 3.6 1.867 2.267 3.867 4.133 6 5.467 0.267 0.133 0.533 0.267 0.8 0.4s0.533 0.267 0.667 0.4h0.133c0.267 0.133 0.4 0.133 0.667 0.133 0.533 0 0.933-0.4 1.067-0.533l2.267-2.267c0.267-0.267 0.533-0.533 1.067-0.533 0.4 0 0.8 0.267 0.933 0.533l3.733 3.733c0.667 0.8 0.667 1.6 0 2.267zM22 10c1.333 1.333 2.133 2.933 2.4 4.667 0.133 0.4 0.4 0.8 0.933 0.8h0.133c0.533-0.133 0.8-0.533 0.8-1.067-0.4-2.133-1.333-4.133-2.933-5.6-1.6-1.6-3.467-2.533-5.6-2.933-0.533-0.133-0.933 0.267-1.067 0.8s0.267 0.933 0.8 1.067c1.6 0.133 3.2 1.067 4.533 2.267zM27.2 4.8c-2.533-2.533-5.733-4.267-9.333-4.8-0.533-0.133-0.933 0.267-1.067 0.8s0.267 0.933 0.8 1.067c3.2 0.533 6 2 8.267 4.267s3.733 5.2 4.267 8.267c0.133 0.4 0.4 0.8 0.933 0.8h0.133c0.533-0.133 0.8-0.533 0.8-1.067-0.667-3.6-2.267-6.8-4.8-9.333z"></path>
</svg>
