<!-- Generated by IcoMoon.io -->
<svg version="1.1" xmlns="http://www.w3.org/2000/svg" width="32" height="32" viewBox="0 0 32 32">
<title>phone-4</title>
<path d="M14.578 24.356c-0.267 0.267-0.267 0.622 0 0.889s0.622 0.267 0.889 0 0.267-0.622 0-0.889c-0.267-0.178-0.711-0.178-0.889 0zM30.578 23.289l-4.711-4s-0.089 0-0.089-0.089c-1.244-0.8-2.844-0.622-3.911 0.444l-2.578 2.578c-0.178 0.178-0.444 0.267-0.711 0.178-2.933-1.244-5.333-3.022-7.111-5.422-1.422-1.778-1.867-3.289-1.956-3.467v-0.089c-0.089-0.267 0-0.533 0.178-0.711l2.578-2.578c1.067-1.067 1.244-2.667 0.444-3.911l-3.467-4.8c-1.156-1.689-3.467-1.956-4.889-0.533l-2.4 2.4c-2.222 2.222-2.578 5.511-1.067 9.6 1.333 3.467 3.911 7.289 7.378 10.756 3.556 3.556 7.467 6.222 11.022 7.467 3.556 1.333 7.378 1.422 10.044-1.244l1.778-1.778c1.422-1.333 1.156-3.733-0.533-4.8zM5.244 1.778c0.889-0.889 2.311-0.711 2.933 0.356l3.378 4.8c0.444 0.711 0.356 1.689-0.267 2.311l-0.8 0.8-5.422-8.089zM28.444 28.978c-2.489 2.489-6.133 1.867-8.711 0.889-3.467-1.244-7.2-3.822-10.578-7.2-3.289-3.289-5.867-6.933-7.111-10.311-0.978-2.489-1.6-5.956 0.8-8.267l1.333-1.333 5.511 8.089-0.889 0.889c-0.533 0.533-0.711 1.333-0.444 1.956 0.178 0.8 1.067 2.489 2.044 3.733 1.333 1.778 3.822 4.356 7.822 5.956 0.711 0.267 1.511 0.089 2.044-0.444l0.889-0.889 8.089 6.044zM30.222 27.289l-0.089 0.089-8.178-6.044 0.8-0.8c0.622-0.622 1.6-0.711 2.311-0.267l4.711 4s0.089 0 0.089 0.089c1.067 0.622 1.156 2.044 0.356 2.933zM10.933 20.711c-1.511-1.511-3.022-3.378-3.911-4.711-0.178-0.267-0.622-0.356-0.889-0.178s-0.356 0.622-0.178 0.889c1.156 1.689 2.844 3.556 4.089 4.8 0.622 0.622 1.778 1.689 2.489 2.222 0.267 0.267 0.622 0.178 0.889-0.089s0.178-0.622-0.089-0.889c-0.622-0.444-1.778-1.422-2.4-2.044z"></path>
</svg>
