<!-- Generated by IcoMoon.io -->
<svg version="1.1" xmlns="http://www.w3.org/2000/svg" width="32" height="32" viewBox="0 0 32 32">
<title>photo</title>
<path d="M28.288 28.8h-24.576c-2.048 0-3.712-1.664-3.712-3.776v-15.168c0-2.048 1.664-3.776 3.712-3.776h4.992l0.448-1.472c0.192-0.832 0.896-1.408 1.792-1.408h10.112c0.832 0 1.6 0.576 1.792 1.408v0.064l0.384 1.472h5.056c2.048 0 3.712 1.664 3.712 3.776v15.168c0 2.048-1.664 3.712-3.712 3.712zM3.712 7.36c-1.344 0-2.496 1.088-2.496 2.496v15.168c0 1.408 1.088 2.496 2.496 2.496h24.576c1.344 0 2.496-1.088 2.496-2.496v-15.168c0-1.408-1.088-2.496-2.496-2.496h-5.952l-0.704-2.432c-0.064-0.256-0.32-0.512-0.576-0.512h-10.112c-0.32 0-0.512 0.192-0.576 0.512l-0.704 2.432zM16 25.024c-4.288 0-7.808-3.584-7.808-7.936s3.52-7.936 7.808-7.936 7.808 3.584 7.808 7.936c0 4.416-3.52 7.936-7.808 7.936zM16 10.432c-3.648 0-6.592 3.008-6.592 6.656s2.944 6.656 6.592 6.656 6.592-3.008 6.592-6.656-2.944-6.656-6.592-6.656zM27.52 9.664c-0.64 0-1.152 0.512-1.152 1.152s0.512 1.152 1.152 1.152 1.152-0.512 1.152-1.152-0.512-1.152-1.152-1.152z"></path>
</svg>
