<svg xmlns="http://www.w3.org/2000/svg" width="32" height="32"><path d="M.336 1.593C.034 1.786 0 1.919 0 2.925c0 3.969.675 7.568 1.802 9.608.909 1.647 1.939 2.565 3.444 3.068 1.987.665 4.265.536 6.155-.348l.44-.207.127.25c.256.506.834 2.039 1.091 2.893.88 2.926 1.351 6.268 1.427 10.131.028 1.385.044 1.599.132 1.788.184.395.65.53 1.027.297.296-.183.343-.393.376-1.685.083-3.199.67-6.19 1.713-8.72.335-.812 1.191-2.455 1.385-2.658.056-.06.123-.028.391.189 1.194.961 3.375 1.518 5.29 1.349 1.772-.155 3.138-.73 4.129-1.738 1.563-1.588 2.568-4.38 2.909-8.075.09-.984.16-2.416.161-3.295.001-.927-.048-1.119-.329-1.291-.162-.099-.267-.107-1.298-.107-3.761-.001-6.919.557-9.065 1.603-2.201 1.072-3.278 2.42-3.714 4.649-.16.817-.177 2.267-.03 2.536a.676.676 0 0 0 .692.369c.25-.022.268-.036 1.173-.954 1.411-1.431 2.737-2.422 4.383-3.277.662-.343.84-.414 1.047-.414.447 0 .767.335.724.758-.033.326-.221.498-.915.837a16.588 16.588 0 0 0-4.56 3.274c-2.028 2.043-3.443 4.472-4.399 7.549-.133.428-.243.796-.246.817-.003.022-.039-.153-.08-.388-.742-4.197-1.95-7.423-3.709-9.903-.86-1.212-1.966-2.447-2.885-3.22-.257-.216-.787-.62-1.179-.898-.892-.633-1.049-.803-1.049-1.132 0-.428.287-.728.696-.728.225 0 .268.024 1.127.623 1.048.731 1.487 1.096 2.341 1.949.891.89 1.277 1.359 1.977 2.4.245.364.513.711.596.772.287.21.766.109.973-.206.249-.381.353-2.485.17-3.47-.376-2.03-1.206-3.291-2.848-4.325-2.123-1.336-5.18-2.008-9.485-2.082-1.543-.027-1.606-.024-1.771.08" fill-rule="evenodd"/></svg>