<!-- Generated by IcoMoon.io -->
<svg version="1.1" xmlns="http://www.w3.org/2000/svg" width="43" height="32" viewBox="0 0 43 32">
<title>plastic</title>
<path d="M12.089 0c-6.666 0-12.089 5.423-12.089 12.089v4.267c0 5.237 3.34 9.852 8.311 11.487 0.375 0.121 0.775-0.081 0.898-0.453s-0.081-0.775-0.453-0.898c-4.386-1.442-7.333-5.515-7.333-10.135v-4.267c0-5.881 4.785-10.666 10.666-10.666h18.489c5.881 0 10.667 4.785 10.667 10.666v4.267c0 4.621-2.947 8.693-7.333 10.135-0.373 0.123-0.576 0.525-0.453 0.898 0.098 0.299 0.377 0.489 0.675 0.489 0.074 0 0.148-0.012 0.222-0.036 4.971-1.634 8.311-6.25 8.311-11.487v-4.267c0-6.666-5.423-12.089-12.089-12.089h-18.489z"></path>
<path d="M12.8 17.066v-2.464l-1.817-1.211c-0.327-0.218-0.415-0.659-0.197-0.986s0.659-0.416 0.986-0.197l2.133 1.422c0.198 0.132 0.317 0.354 0.317 0.592v2.844c0 0.393-0.318 0.711-0.711 0.711s-0.711-0.318-0.711-0.711z"></path>
<path d="M17.777 14.222c0-0.393 0.318-0.711 0.711-0.711s0.711 0.318 0.711 0.711v2.844c0 0.393-0.318 0.711-0.711 0.711s-0.711-0.319-0.711-0.711v-2.844z"></path>
<path d="M30.894 12.208l-2.133 1.422c-0.198 0.132-0.317 0.354-0.317 0.592v2.844c0 0.393 0.318 0.711 0.711 0.711s0.711-0.319 0.711-0.711v-2.464l1.817-1.211c0.327-0.218 0.415-0.659 0.197-0.986s-0.659-0.416-0.986-0.197z"></path>
<path d="M38.776 19.092c0.208-0.13 0.334-0.358 0.334-0.603v-5.689c0-0.245-0.126-0.473-0.334-0.603l-5.689-3.555c-0.231-0.144-0.523-0.144-0.753 0l-5.312 3.32-4.655-2.91 3.802-5.069c0.236-0.314 0.172-0.76-0.142-0.996s-0.76-0.171-0.995 0.142l-4.187 5.583-5.2 3.25-5.312-3.32c-0.23-0.144-0.523-0.144-0.753 0l-5.689 3.556c-0.208 0.13-0.335 0.358-0.335 0.603v5.689c0 0.245 0.126 0.473 0.334 0.603l5.417 3.386 1.37 8.217c0.058 0.347 0.359 0.594 0.701 0.594 0.038 0 0.078-0.003 0.118-0.010 0.387-0.064 0.649-0.431 0.584-0.818l-1.344-8.065 4.909-3.068 5.312 3.32c0.115 0.072 0.246 0.108 0.377 0.108s0.262-0.036 0.377-0.108l5.312-3.32 4.909 3.068-1.344 8.065c-0.065 0.388 0.197 0.754 0.584 0.818 0.039 0.007 0.079 0.010 0.117 0.010 0.341 0 0.643-0.247 0.701-0.594l1.37-8.217 5.417-3.385zM4.978 13.194l4.978-3.111 4.978 3.111v4.901l-4.978 3.111-4.978-3.111v-4.901zM21.333 21.205l-4.978-3.111v-4.901l4.978-3.111 4.978 3.111v4.901l-4.978 3.111zM27.733 13.194l4.978-3.111 4.978 3.111v4.901l-4.978 3.111-4.978-3.111v-4.901z"></path>
</svg>
