<!-- Generated by IcoMoon.io -->
<svg version="1.1" xmlns="http://www.w3.org/2000/svg" width="32" height="32" viewBox="0 0 32 32">
<title>play-2</title>
<path d="M16 0c-8.85 0-16 7.15-16 16s7.15 16 16 16 16-7.15 16-16-7.15-16-16-16zM16 31.1c-8.35 0-15.1-6.75-15.1-15.1s6.75-15.1 15.1-15.1 15.1 6.75 15.1 15.1-6.75 15.1-15.1 15.1zM26.6 22.3c-0.2-0.15-0.5-0.050-0.65 0.15-0.25 0.35-0.5 0.75-0.8 1.050-0.050 0.1-0.1 0.2-0.1 0.3 0 0.25 0.2 0.45 0.45 0.45 0.15 0 0.25-0.050 0.35-0.15 0.3-0.35 0.6-0.75 0.85-1.15 0.2-0.25 0.15-0.55-0.1-0.65zM16 3.2c-7.050 0-12.8 5.75-12.8 12.8s5.75 12.8 12.8 12.8c1 0 2-0.1 2.95-0.35 0.25-0.050 0.4-0.3 0.35-0.55s-0.3-0.4-0.55-0.35c-0.9 0.2-1.85 0.35-2.75 0.35-6.55 0-11.9-5.35-11.9-11.9s5.35-11.9 11.9-11.9 11.9 5.35 11.9 11.9c0 1.15-0.15 2.35-0.5 3.45-0.050 0.25 0.050 0.5 0.3 0.55 0.25 0.1 0.5-0.050 0.6-0.3 0.35-1.2 0.55-2.45 0.55-3.7-0.050-7.050-5.8-12.8-12.85-12.8zM22.95 25.6c-0.35 0.25-0.7 0.5-1.1 0.7-0.15 0.1-0.25 0.25-0.25 0.4 0 0.25 0.2 0.45 0.45 0.45 0.1 0 0.15 0 0.2-0.050 0.4-0.25 0.8-0.5 1.2-0.75 0.2-0.15 0.25-0.45 0.1-0.65-0.1-0.2-0.4-0.25-0.6-0.1zM20.7 14.45l-5.2-4c-0.35-0.25-0.75-0.4-1.2-0.4-1.1 0-1.95 0.85-1.95 1.95v7.95c0 1.1 0.9 1.95 1.95 1.95 0.45 0 0.85-0.15 1.2-0.4l5.25-3.95c0.15-0.1 0.25-0.25 0.35-0.35 0.65-0.9 0.45-2.1-0.4-2.75zM20.15 16.85l-5.25 3.95c-0.2 0.15-0.4 0.2-0.65 0.2-0.6 0-1.050-0.45-1.050-1.050v-7.9c0-0.4 0.2-0.75 0.6-0.95 0.2-0.1 0.35-0.1 0.5-0.1 0.25 0 0.45 0.1 0.65 0.2l5.25 3.95c0.1 0.050 0.15 0.1 0.2 0.2 0.3 0.5 0.2 1.15-0.25 1.5z"></path>
</svg>
