<!-- Generated by IcoMoon.io -->
<svg version="1.1" xmlns="http://www.w3.org/2000/svg" width="32" height="32" viewBox="0 0 32 32">
<title>pose</title>
<path d="M11.039 20.521l-0.691-0.773c-0.359-0.402-0.981-0.44-1.387-0.084l-1.772 1.556-0.741-0.586c-0.002-0.001-0.004-0.003-0.005-0.004-0.409-0.315-0.981-0.265-1.329 0.117l-0.714 0.781c-0.183 0.2-0.274 0.459-0.256 0.729s0.141 0.515 0.347 0.69l2.226 1.887c0 0 0 0 0 0 0.135 0.114 0.303 0.171 0.47 0.171 0.173 0 0.346-0.061 0.482-0.181l3.287-2.906c0.198-0.175 0.316-0.417 0.331-0.681s-0.073-0.518-0.249-0.715zM10.336 21.215l-3.151 2.785-2.088-1.77c-0.011-0.009-0.016-0.020-0.017-0.034s0.003-0.026 0.013-0.036l0.714-0.781c0.010-0.011 0.023-0.016 0.036-0.016 0.010 0 0.020 0.003 0.029 0.009l0.877 0.694c0.002 0.001 0.004 0.003 0.005 0.004 0.275 0.211 0.663 0.198 0.924-0.030l1.903-1.672c0.020-0.018 0.051-0.016 0.069 0.004l0.691 0.773c0.009 0.010 0.013 0.022 0.012 0.035s-0.006 0.025-0.016 0.034z"></path>
<path d="M27.371 16.469h3.643c0.544 0 0.986-0.443 0.986-0.986v-14.009c0-0.518-0.403-0.949-0.919-0.984l-4.687-0.401c-0.002-0-0.004-0-0.006-0.001-0.8-0.058-1.613-0.087-2.415-0.087h-3.794c-1.576 0-3.026 0.792-3.878 2.117l-2.042 3.176-0.568-0.736c-0.422-0.547-0.971-0.999-1.589-1.308l-1.384-0.692c-0.637-0.318-1.35-0.487-2.062-0.487h-3.010c-2.542 0-4.61 2.068-4.61 4.61v2.075c0 1.495 0.716 2.826 1.823 3.669h-1.354c-0.829-0-1.504 0.675-1.504 1.504v16.567c0 0.829 0.675 1.504 1.504 1.504h2.013c0.259 0 0.469-0.21 0.469-0.469s-0.21-0.469-0.469-0.469h-2.013c-0.312 0-0.567-0.254-0.567-0.567v-0.567h30.125v0.567c0 0.312-0.254 0.567-0.567 0.567h-24.792c-0.259 0-0.469 0.21-0.469 0.469s0.21 0.469 0.469 0.469h24.792c0.829 0 1.504-0.675 1.504-1.504v-11.39c0-0.829-0.675-1.504-1.504-1.504h-10.547c-2.087 0-4.050-0.813-5.526-2.289l-0.325-0.325c-0.925-0.925-2.021-1.617-3.216-2.048 0.493-0.227 0.947-0.54 1.334-0.928l0.553-0.555 3.579 2.983c1.57 1.308 3.56 2.029 5.603 2.029h3.232c0.259 0 0.469-0.21 0.469-0.469s-0.21-0.469-0.469-0.469h-3.232c-1.824 0-3.601-0.643-5.003-1.811l-3.621-3.017c-0.27-0.225-0.612-0.349-0.963-0.349h-1.178c-0.259 0-0.469 0.21-0.469 0.469s0.21 0.469 0.469 0.469h0.424l-0.059 0.059c-0.684 0.686-1.632 1.080-2.601 1.080-0.001 0-0.002 0-0.002 0l-3.466-0.006c-1.949-0.086-3.51-1.699-3.51-3.669v-2.075c0-2.025 1.648-3.673 3.673-3.673h3.010c0.567 0 1.135 0.134 1.643 0.388l1.384 0.692c0.492 0.246 0.93 0.606 1.266 1.042l0.772 1.001-0.857 1.333c-0.14 0.218-0.077 0.508 0.141 0.648s0.508 0.077 0.648-0.141l3.437-5.346c0.679-1.056 1.834-1.687 3.090-1.687h3.794c0.779 0 1.568 0.028 2.345 0.084l4.688 0.401c0.004 0 0.007 0.001 0.011 0.001 0.026 0.002 0.046 0.023 0.046 0.049v2.628l-4.685-0.392c-0.793-0.057-1.599-0.085-2.394-0.085h-2.96c-0.259 0-0.469 0.21-0.469 0.469s0.21 0.469 0.469 0.469h2.96c0.773 0 1.556 0.028 2.322 0.083l4.758 0.397v10.441c0 0.027-0.022 0.049-0.049 0.049h-3.643c-0.259 0-0.469 0.21-0.469 0.469s0.21 0.469 0.469 0.469zM0.938 15.433h3.204v2.413c-1.263 1.036-2.071 2.609-2.071 4.366s0.807 3.33 2.071 4.366v2.413h-3.204v-13.558zM7.717 27.858c0.556 0 1.094-0.081 1.602-0.232v1.365h-2.169v-1.162c0.186 0.019 0.375 0.028 0.567 0.028zM7.717 26.921c-2.596 0-4.708-2.112-4.708-4.708s2.112-4.708 4.708-4.708c2.596 0 4.708 2.112 4.708 4.708s-2.112 4.708-4.708 4.708zM6.213 15.433v1.337c-0.397 0.11-0.776 0.262-1.133 0.451v-1.789h1.133zM12.327 25.468c0.652-0.921 1.035-2.044 1.035-3.255s-0.384-2.336-1.036-3.256c0-0.005 0.001-0.010 0.001-0.015v-1.289c0.024 0.024 0.049 0.047 0.073 0.071l0.325 0.325c0.537 0.537 1.133 0.996 1.771 1.37v9.574h-2.169v-3.524h0zM11.39 17.928c-0.344-0.296-0.725-0.551-1.133-0.757v-0.972c0.394 0.19 0.773 0.413 1.133 0.669v1.060zM9.319 16.799c-0.508-0.151-1.046-0.232-1.602-0.232-0.191 0-0.38 0.010-0.567 0.028v-1.156c0.747 0.026 1.475 0.155 2.169 0.383v0.977zM5.079 28.992v-1.789c0.357 0.189 0.736 0.342 1.133 0.451v1.337h-1.133zM10.256 28.992v-1.738c0.409-0.207 0.789-0.462 1.133-0.757v2.495h-1.133zM15.433 28.992v-9.098c0.368 0.159 0.746 0.294 1.133 0.401v8.698h-1.133zM18.913 20.61h0.76v8.381h-2.169v-8.494c0.462 0.074 0.932 0.113 1.409 0.113zM20.61 28.992v-8.381h1.133v8.381h-1.133zM24.85 20.61v8.381h-2.169v-8.381h2.169zM25.788 28.992v-8.381h1.133v8.381h-1.133zM27.858 28.992v-8.381h3.204v8.381h-3.204zM13.76 15.976c1.653 1.653 3.851 2.563 6.189 2.563h10.547c0.312 0 0.567 0.254 0.567 0.567v0.567h-12.149c-2.087 0-4.050-0.813-5.526-2.289l-0.325-0.325c-1.653-1.653-3.851-2.563-6.189-2.563h-5.937v-0.567c0-0.312 0.254-0.567 0.567-0.567l6.683 0.005c1.983 0.069 3.838 0.873 5.248 2.283l0.325 0.325z"></path>
<path d="M15.58 7.82c-0.277-0.028-0.554 0.064-0.76 0.25s-0.325 0.453-0.325 0.731v1.041c0 0.509 0.382 0.931 0.888 0.982l2.961 0.296c0.001 0 0.003 0 0.004 0 0.021 0.002 0.042 0.003 0.063 0.003 0.159 0 0.313-0.059 0.432-0.166 0.135-0.122 0.212-0.296 0.212-0.478v-1.726c0-0.333-0.25-0.61-0.582-0.643l-2.895-0.29zM18.119 10.155l-2.642-0.264c-0.025-0.003-0.044-0.023-0.044-0.049v-1.041c0-0.014 0.005-0.027 0.016-0.036 0.009-0.008 0.020-0.013 0.032-0.013 0.002 0 0.004 0 0.005 0l2.633 0.263v1.139h-0z"></path>
<path d="M21.795 8.283c-0.279 0-0.567-0.004-0.855-0.012-0.195-0.005-0.388 0.070-0.528 0.206-0.142 0.138-0.22 0.323-0.22 0.521v1.553c0 0.398 0.311 0.717 0.708 0.728 0.305 0.008 0.607 0.012 0.896 0.012h2.23c0.401 0 0.728-0.326 0.728-0.728v-1.553c0-0.401-0.326-0.728-0.728-0.728l-2.23 0zM23.815 10.354h-2.020c-0.216 0-0.439-0.002-0.666-0.007v-1.133c0.225 0.005 0.448 0.007 0.666 0.007h2.020v1.133z"></path>
<path d="M29.929 10.305v-1.035c0-0.544-0.443-0.986-0.986-0.986h-2.33c-0.401 0-0.728 0.326-0.728 0.728v1.553c0 0.401 0.326 0.728 0.728 0.728h2.33c0.544 0 0.986-0.443 0.986-0.986zM26.823 9.221h2.12c0.027 0 0.049 0.022 0.049 0.049v1.035c0 0.027-0.022 0.049-0.049 0.049h-2.12v-1.133z"></path>
</svg>
