<svg xmlns="http://www.w3.org/2000/svg" width="32" height="32"><path d="M20.213.05a2.13 2.13 0 0 0-.299.126c-.101.052-2.561 2.899-6.293 7.284-6.537 7.68-6.351 7.444-6.281 7.927.043.302.194.616.373.781.085.077 1.258.684 2.607 1.348 2.207 1.086 2.452 1.219 2.438 1.325-.008.066-.566 2.738-1.24 5.938-.673 3.201-1.225 5.898-1.225 5.994 0 .323.124.607.372.856.405.406.967.481 1.458.193.355-.208 12.452-14.427 12.583-14.791.155-.428.04-.914-.288-1.226-.11-.104-1.121-.632-2.631-1.376-1.887-.928-2.451-1.228-2.443-1.298.005-.05.563-2.719 1.24-5.93.676-3.212 1.229-5.943 1.229-6.069a1.19 1.19 0 0 0-.282-.752c-.278-.302-.898-.458-1.318-.33" fill-rule="evenodd"/></svg>