<!-- Generated by IcoMoon.io -->
<svg version="1.1" xmlns="http://www.w3.org/2000/svg" width="32" height="32" viewBox="0 0 32 32">
<title>press</title>
<path d="M26.050 8.15c1.7 0 3.050-1.35 3.050-3.050s-1.35-3.050-3.050-3.050-3.050 1.35-3.050 3.050 1.35 3.050 3.050 3.050zM26.55 4.6h-2.5c0.25-0.9 1.050-1.55 2-1.55 1.15 0 2.050 0.9 2.050 2.050s-0.9 2.050-2.050 2.050c-0.95 0-1.75-0.65-2-1.55h2.5c0.3 0 0.5-0.25 0.5-0.5 0-0.3-0.2-0.5-0.5-0.5zM9.1 20.1c0.7 1.6 2.35 2.7 4.2 2.7 2.55 0 4.6-2.050 4.6-4.6v-1.7c0-0.3-0.25-0.5-0.5-0.5h-10.2c-0.2 0-0.35 0.1-0.45 0.25-0.2 0.4-0.35 0.85-0.35 1.3 0 1.4 1.15 2.55 2.55 2.55zM9.7 17h7.15v1.2c0 1.95-1.6 3.55-3.55 3.55s-3.55-1.6-3.55-3.55v-1.2zM7.45 17.55c0-0.15 0.050-0.35 0.1-0.5h1.15v1.2c0 0.3 0.050 0.55 0.1 0.85-0.8-0.15-1.35-0.8-1.35-1.55zM9.7 31h-2.7c-0.3 0-0.5 0.25-0.5 0.5 0 0.3 0.25 0.5 0.5 0.5h2.7c0.3 0 0.5-0.25 0.5-0.5 0-0.3-0.2-0.5-0.5-0.5zM30.45 31h-2.7c-0.3 0-0.5 0.25-0.5 0.5 0 0.3 0.25 0.5 0.5 0.5h2.7c0.3 0 0.5-0.25 0.5-0.5 0.050-0.3-0.2-0.5-0.5-0.5zM31.5 0h-25.55c-0.3 0-0.5 0.25-0.5 0.5v5.1c0 1.4 1.15 2.55 2.55 2.55h1.55v2.050h-1v-0.5c0-0.25-0.2-0.5-0.5-0.5l-7.5-0.5c-0.15 0-0.3 0.050-0.4 0.15-0.1 0.050-0.15 0.2-0.15 0.35v3.050c0 0.15 0.050 0.3 0.15 0.35 0.1 0.1 0.2 0.15 0.35 0.15h0.050l7.5-0.5c0.25 0 0.5-0.25 0.5-0.5v-0.5h1.1c0.2 0.6 0.8 1 1.45 1h1.7v0.85c0 0.3 0.25 0.5 0.5 0.5 0.3 0 0.5-0.25 0.5-0.5v-0.85h1.7c0.85 0 1.55-0.7 1.55-1.55v-2.55h3.050v15.65h-12.1c-1.4 0-2.55 1.15-2.55 2.55v3.050c0 0.3 0.25 0.5 0.5 0.5h25.55c0.3 0 0.5-0.25 0.5-0.5v-28.9c0-0.25-0.25-0.5-0.5-0.5zM7.5 11.25l-6.5 0.45v-1.95l6.5 0.45zM16 10.7c0 0.3-0.25 0.5-0.5 0.5h-4.45c-0.3 0-0.5-0.25-0.5-0.5v-2.55h5.45zM31 28.95h-24.5v-2.55c0-0.85 0.7-1.55 1.55-1.55h12.1v2.55c0 0.3 0.25 0.5 0.5 0.5 0.3 0 0.5-0.25 0.5-0.5v-19.75c0-0.3-0.25-0.5-0.5-0.5h-12.65c-0.85 0-1.55-0.7-1.55-1.55v-4.6h24.5v27.95zM24 23.85c-0.3 0-0.5 0.25-0.5 0.5 0 0.3 0.25 0.5 0.5 0.5 0.3 0 0.5-0.25 0.5-0.5 0-0.3-0.2-0.5-0.5-0.5zM24 20.75c-0.3 0-0.5 0.25-0.5 0.5 0 0.3 0.25 0.5 0.5 0.5 0.3 0 0.5-0.25 0.5-0.5s-0.2-0.5-0.5-0.5zM24 17.7c-0.3 0-0.5 0.25-0.5 0.5 0 0.3 0.25 0.5 0.5 0.5 0.3 0 0.5-0.25 0.5-0.5s-0.2-0.5-0.5-0.5z"></path>
</svg>
