<!-- Generated by IcoMoon.io -->
<svg version="1.1" xmlns="http://www.w3.org/2000/svg" width="32" height="32" viewBox="0 0 32 32">
<title>profit-1</title>
<path d="M8.050 15.925c0.207 0 0.375 0.168 0.375 0.375v0.438c0 0.207-0.168 0.375-0.375 0.375s-0.375-0.168-0.375-0.375v-0.438c0-0.207 0.168-0.375 0.375-0.375zM8.050 17.238c0.207 0 0.375 0.168 0.375 0.375v0.437c0 0.207-0.168 0.375-0.375 0.375s-0.375-0.168-0.375-0.375v-0.437c0-0.207 0.168-0.375 0.375-0.375z"></path>
<path d="M6.65 6.125c0.111 0 0.217 0.050 0.288 0.135l3.7 4.45c0.093 0.112 0.113 0.267 0.051 0.399s-0.194 0.216-0.339 0.216h-1.925v3.375c0 0.207-0.168 0.375-0.375 0.375s-0.375-0.168-0.375-0.375v-3.75c0-0.207 0.168-0.375 0.375-0.375h1.5l-2.9-3.488-2.901 3.488h1.5c0.207 0 0.375 0.168 0.375 0.375v7.1c0 0.207-0.168 0.375-0.375 0.375s-0.375-0.168-0.375-0.375v-6.725h-1.925c-0.145 0-0.278-0.084-0.34-0.216s-0.042-0.287 0.051-0.399l3.7-4.45c0.071-0.086 0.177-0.135 0.288-0.135z"></path>
<path d="M17.399 11.225c0.207 0 0.375 0.168 0.375 0.375v0.438c0 0.207-0.168 0.375-0.375 0.375s-0.375-0.168-0.375-0.375v-0.438c0-0.207 0.168-0.375 0.375-0.375zM17.399 12.537c0.207 0 0.375 0.168 0.375 0.375v0.438c0 0.207-0.168 0.375-0.375 0.375s-0.375-0.168-0.375-0.375v-0.438c0-0.207 0.168-0.375 0.375-0.375z"></path>
<path d="M16 0.125c0.111 0 0.217 0.050 0.288 0.135l3.7 4.45c0.093 0.112 0.113 0.267 0.051 0.399s-0.194 0.216-0.339 0.216h-1.925v4.675c0 0.207-0.168 0.375-0.375 0.375s-0.375-0.168-0.375-0.375v-5.050c0-0.207 0.168-0.375 0.375-0.375h1.501l-2.901-3.488-2.901 3.488h1.501c0.207 0 0.375 0.168 0.375 0.375v8.4c0 0.207-0.168 0.375-0.375 0.375s-0.375-0.168-0.375-0.375v-8.025h-1.925c-0.145 0-0.278-0.084-0.34-0.216s-0.042-0.287 0.051-0.399l3.7-4.45c0.071-0.086 0.177-0.135 0.288-0.135z"></path>
<path d="M26.75 16.475c0.207 0 0.375 0.168 0.375 0.375v0.45c0 0.207-0.168 0.375-0.375 0.375s-0.375-0.168-0.375-0.375v-0.45c0-0.207 0.168-0.375 0.375-0.375zM26.75 17.825c0.207 0 0.375 0.168 0.375 0.375v0.45c0 0.207-0.168 0.375-0.375 0.375s-0.375-0.168-0.375-0.375v-0.45c0-0.207 0.168-0.375 0.375-0.375z"></path>
<path d="M25.349 6.125c0.111 0 0.217 0.050 0.288 0.135l3.7 4.45c0.093 0.112 0.113 0.267 0.051 0.399s-0.194 0.216-0.339 0.216h-1.925v3.925c0 0.207-0.168 0.375-0.375 0.375s-0.375-0.168-0.375-0.375v-4.3c0-0.207 0.168-0.375 0.375-0.375h1.5l-2.9-3.488-2.901 3.488h1.501c0.207 0 0.375 0.168 0.375 0.375v7.7c0 0.207-0.168 0.375-0.375 0.375s-0.375-0.168-0.375-0.375v-7.325h-1.925c-0.145 0-0.278-0.084-0.34-0.216s-0.042-0.287 0.051-0.399l3.7-4.45c0.071-0.086 0.177-0.135 0.288-0.135z"></path>
<path d="M15.999 16.625c-1.277 0-2.516 0.379-3.57 0.954-0.182 0.099-0.41 0.032-0.509-0.15s-0.032-0.41 0.15-0.509c1.145-0.625 2.507-1.046 3.929-1.046 4.407 0 7.975 3.568 7.975 7.975 0 4.455-3.566 8.025-7.975 8.025-4.407 0-7.975-3.568-7.975-7.975 0-1.418 0.368-2.731 1.049-3.934 0.102-0.18 0.331-0.244 0.511-0.142s0.244 0.331 0.142 0.511c-0.62 1.097-0.951 2.283-0.951 3.566 0 3.993 3.232 7.225 7.225 7.225 3.991 0 7.225-3.23 7.225-7.275 0-3.993-3.232-7.225-7.225-7.225z"></path>
<path d="M10.78 24.761c-0.592-3.603 2.478-6.672 6.081-6.081l0.002 0c2.207 0.377 3.93 2.1 4.306 4.306l0 0.002c0.592 3.603-2.478 6.672-6.081 6.081l-0.002-0c-2.207-0.377-3.93-2.1-4.306-4.306l-0-0.002zM11.52 24.638c0.324 1.892 1.8 3.369 3.692 3.692 3.096 0.508 5.726-2.122 5.218-5.218-0.324-1.892-1.8-3.369-3.692-3.692-3.096-0.507-5.726 2.122-5.218 5.218z"></path>
<path d="M16.649 25c0-0.15-0.050-0.3-0.15-0.4s-0.25-0.2-0.5-0.3c-0.25-0.1-0.45-0.15-0.6-0.25s-0.3-0.2-0.45-0.3c-0.1-0.1-0.2-0.25-0.3-0.4-0.050-0.15-0.1-0.35-0.1-0.55 0-0.35 0.1-0.65 0.35-0.85 0.25-0.25 0.55-0.35 0.9-0.4v-0.65h0.5v0.7c0.35 0.050 0.65 0.2 0.85 0.45s0.3 0.6 0.3 1h-0.9c0-0.25-0.050-0.45-0.15-0.55s-0.25-0.2-0.4-0.2c-0.15 0-0.3 0.050-0.4 0.15s-0.15 0.25-0.15 0.4c0 0.15 0.050 0.3 0.15 0.4s0.25 0.2 0.5 0.3c0.25 0.1 0.45 0.2 0.6 0.3s0.3 0.2 0.4 0.3 0.2 0.25 0.25 0.4c0.050 0.15 0.1 0.3 0.1 0.5 0 0.35-0.1 0.65-0.35 0.85-0.2 0.2-0.55 0.35-0.9 0.4v0.65h-0.5v-0.6c-0.45-0.050-0.75-0.2-1-0.45s-0.35-0.6-0.35-1.050h0.9c0 0.25 0.050 0.45 0.2 0.55 0.1 0.15 0.3 0.2 0.5 0.2s0.35-0.050 0.45-0.15c0.2-0.15 0.25-0.3 0.25-0.45z"></path>
</svg>
