<!-- Generated by IcoMoon.io -->
<svg version="1.1" xmlns="http://www.w3.org/2000/svg" width="32" height="32" viewBox="0 0 32 32">
<title>quality-2</title>
<path d="M31.911 15.644l-1.956-3.378v-3.911c0-0.267-0.178-0.533-0.356-0.622l-3.378-1.956-1.956-3.378c-0.178-0.267-0.356-0.356-0.622-0.356h-3.911l-3.378-1.956c-0.267-0.178-0.533-0.178-0.711 0l-3.378 1.956h-3.911c-0.267 0-0.533 0.178-0.622 0.356l-1.956 3.378-3.378 1.956c-0.267 0.089-0.356 0.356-0.356 0.622v3.911l-1.956 3.378c-0.178 0.267-0.178 0.533 0 0.711l1.956 3.378v3.911c0 0.267 0.178 0.533 0.356 0.622l3.378 1.956 1.956 3.378c0.178 0.267 0.356 0.356 0.622 0.356h3.911l3.378 1.956c0.089 0.089 0.267 0.089 0.356 0.089 0.178 0 0.267 0 0.356-0.089l3.378-1.956h3.911c0.267 0 0.533-0.178 0.622-0.356l1.956-3.378 3.378-1.956c0.267-0.178 0.356-0.356 0.356-0.622v-3.911l1.956-3.378c0.089-0.178 0.089-0.533 0-0.711zM28.533 19.2c-0.089 0.089-0.089 0.178-0.089 0.356v3.644l-3.2 1.867c-0.089 0.089-0.178 0.178-0.267 0.267l-1.778 3.111h-3.644c-0.089 0-0.267 0-0.356 0.089l-3.2 1.778-3.2-1.778c-0.089-0.089-0.267-0.089-0.356-0.089h-3.644l-1.778-3.2c-0.089-0.089-0.178-0.178-0.267-0.267l-3.2-1.778v-3.644c0-0.089 0-0.267-0.089-0.356l-1.778-3.2 1.778-3.2c0-0.089 0.089-0.178 0.089-0.356v-3.644l3.2-1.867 0.267-0.267 1.778-3.2h3.644c0.089 0 0.267 0 0.356-0.089l3.2-1.778 3.2 1.778c0.089 0.178 0.178 0.178 0.356 0.178h3.644l1.867 3.2c0.089 0.089 0.178 0.178 0.267 0.267l3.111 1.778v3.644c0 0.089 0 0.267 0.089 0.356l1.778 3.2zM16 5.422c-5.867 0-10.578 4.8-10.578 10.578s4.711 10.578 10.578 10.578c5.778 0 10.578-4.711 10.578-10.578-0.089-5.778-4.8-10.578-10.578-10.578zM16 25.067c-4.978 0-9.067-4.089-9.067-9.067s4.089-9.067 9.067-9.067 9.067 4.089 9.067 9.067c-0.089 4.978-4.089 9.067-9.067 9.067zM21.689 13.156l-3.467-0.533-1.511-3.111c-0.089-0.267-0.356-0.444-0.711-0.444-0.267 0-0.533 0.178-0.711 0.444l-1.511 3.111-3.467 0.533c-0.267 0.089-0.533 0.267-0.622 0.533s0 0.533 0.178 0.8l2.489 2.489-0.622 3.467c-0.089 0.267 0.089 0.533 0.267 0.711 0.178 0.089 0.267 0.178 0.444 0.178 0.089 0 0.267 0 0.356-0.089l3.2-1.689 3.111 1.6c0.267 0.178 0.533 0.089 0.8-0.089s0.356-0.444 0.267-0.711l-0.622-3.378 2.489-2.489c0.178-0.178 0.267-0.533 0.178-0.8 0-0.267-0.267-0.444-0.533-0.533zM18.222 16.089c-0.178 0.178-0.267 0.444-0.178 0.711l0.444 2.311-2.133-1.067c-0.178-0.089-0.444-0.089-0.711 0l-2.133 1.067 0.356-2.311c0.089-0.267 0-0.533-0.178-0.711l-1.689-1.689 2.311-0.356c0.267 0 0.444-0.178 0.533-0.444l1.156-2.044 1.067 2.133c0.089 0.178 0.356 0.356 0.533 0.444l2.311 0.356z"></path>
</svg>
