<!-- Generated by IcoMoon.io -->
<svg version="1.1" xmlns="http://www.w3.org/2000/svg" width="32" height="32" viewBox="0 0 32 32">
<title>quiet</title>
<path d="M25.067 16.533v-4.8c0-0.8-0.107-1.493-0.32-2.187l3.52-3.413-0.8-0.8-3.147 3.147c-0.853-1.867-2.4-3.147-3.787-3.787-0.587-0.267-1.227-0.48-1.867-0.64v-0.32c0-1.493-1.173-2.667-2.667-2.667s-2.667 1.173-2.667 2.667v0.373c-0.587 0.16-1.12 0.373-1.653 0.587-2.347 1.067-4.747 3.68-4.747 7.040v4.8c0 3.413-1.227 6.347-3.573 8.693-0.16 0.16-0.213 0.373-0.107 0.533 0.053 0.213 0.213 0.32 0.427 0.373l2.613 0.427-3.627 3.573 0.8 0.8 4.107-4.107 1.173 0.213c0.96 0.16 1.813 0.32 2.613 0.427 0.907 1.813 2.773 2.987 4.747 2.987s3.84-1.173 4.747-2.987c0.8-0.107 1.707-0.267 2.613-0.427l5.067-0.853c0.213-0.053 0.373-0.16 0.427-0.373s0-0.373-0.107-0.533c-2.507-2.507-3.787-5.44-3.787-8.747zM14.4 3.733c0-0.907 0.693-1.6 1.6-1.6s1.6 0.693 1.6 1.6v0.107c-1.067-0.16-2.133-0.16-3.2 0zM7.2 25.653l-2.4-0.427c2.133-2.453 3.2-5.333 3.2-8.693v-4.8c0-2.88 2.080-5.12 4.107-6.080 0.587-0.267 1.227-0.48 1.867-0.64 1.333-0.32 2.72-0.32 4.053-0.053 0.693 0.16 1.387 0.373 2.027 0.64 1.387 0.64 2.773 1.92 3.467 3.627zM16.107 29.333c-1.333 0-2.613-0.693-3.413-1.76 1.173 0.107 2.293 0.16 3.413 0.16s2.24-0.053 3.413-0.16c-0.8 1.067-2.080 1.76-3.413 1.76zM23.307 25.973c-1.013 0.16-1.973 0.32-2.827 0.427-0.373 0.053-0.747 0.107-1.12 0.107-0.32 0.053-0.693 0.053-1.013 0.107-0.053 0-0.107 0-0.16 0-0.267 0-0.587 0.053-0.853 0.053-0.053 0-0.107 0-0.16 0-0.64 0-1.333 0-1.973 0-0.053 0-0.107 0-0.16 0-0.267 0-0.533 0-0.853-0.053-0.053 0-0.107 0-0.213 0-0.32 0-0.64-0.053-0.96-0.107 0 0 0 0-0.053 0-0.373-0.053-0.747-0.107-1.12-0.107-0.907-0.107-1.813-0.267-2.88-0.427l-0.427-0.053 15.413-15.413c0.053 0.427 0.107 0.853 0.107 1.28v4.8c0 3.2 1.173 6.187 3.36 8.693zM19.413 7.093c-2.080-0.96-4.587-0.96-6.667 0-1.173 0.533-3.147 2.133-3.147 4.64 0 0.32 0.213 0.533 0.533 0.533 0.267 0 0.533-0.213 0.533-0.533 0-1.973 1.6-3.2 2.56-3.627 1.76-0.8 3.947-0.8 5.76 0 0.267 0.107 0.587 0 0.693-0.267s0-0.587-0.267-0.747zM2.56 19.893c-0.96-0.96-1.493-2.293-1.493-3.627 0-1.387 0.533-2.667 1.493-3.627 0.213-0.213 0.213-0.533 0-0.747s-0.533-0.213-0.747 0c-1.173 1.173-1.813 2.72-1.813 4.373s0.64 3.2 1.813 4.373c0.107 0.107 0.213 0.16 0.373 0.16s0.267-0.053 0.373-0.16c0.213-0.213 0.213-0.587 0-0.747zM4.427 19.573c0.16 0 0.267-0.053 0.373-0.16 0.213-0.213 0.213-0.533 0-0.747-1.387-1.387-1.387-3.573 0-4.96 0.213-0.213 0.213-0.533 0-0.747s-0.533-0.213-0.747 0c-1.76 1.76-1.76 4.693 0 6.453 0.107 0.107 0.213 0.16 0.373 0.16zM30.187 11.893c-0.213-0.213-0.533-0.213-0.747 0s-0.213 0.533 0 0.747c0.96 0.96 1.493 2.24 1.493 3.627s-0.533 2.667-1.493 3.627c-0.213 0.213-0.213 0.533 0 0.747 0.107 0.107 0.267 0.16 0.373 0.16 0.16 0 0.267-0.053 0.373-0.16 1.173-1.173 1.813-2.72 1.813-4.373s-0.64-3.2-1.813-4.373zM27.2 19.413c0.107 0.107 0.267 0.16 0.373 0.16 0.16 0 0.267-0.053 0.373-0.16 1.76-1.76 1.76-4.693 0-6.453-0.213-0.213-0.533-0.213-0.747 0s-0.213 0.533 0 0.747c1.387 1.387 1.387 3.573 0 4.96-0.213 0.213-0.213 0.533 0 0.747z"></path>
</svg>
