<!-- Generated by IcoMoon.io -->
<svg version="1.1" xmlns="http://www.w3.org/2000/svg" width="40" height="32" viewBox="0 0 40 32">
<title>quote-4</title>
<path d="M3.403 4.584c2.813-3.042 7.069-4.584 12.648-4.584h2.005v5.638l-1.612 0.322c-2.746 0.548-4.657 1.626-5.679 3.208-0.533 0.852-0.836 1.828-0.878 2.832h6.164c0.532 0 1.042 0.211 1.418 0.586s0.587 0.884 0.587 1.414v14c0 2.206-1.798 4-4.009 4h-12.028c-0.532 0-1.042-0.211-1.418-0.586s-0.587-0.884-0.587-1.414v-10l0.006-5.838c-0.018-0.222-0.399-5.482 3.384-9.578zM26.061 0h12.028c0.532 0 1.041 0.211 1.418 0.586s0.587 0.884 0.587 1.414v10l-0.006 5.838c0.018 0.222 0.399 5.482-3.384 9.578-2.813 3.042-7.069 4.584-12.648 4.584h-2.005v-5.638l1.612-0.322c2.746-0.548 4.657-1.626 5.679-3.208 0.533-0.852 0.836-1.828 0.878-2.832h-6.164c-0.532 0-1.042-0.211-1.418-0.586s-0.587-0.884-0.587-1.414v-14c0-2.206 1.798-4 4.010-4z"></path>
</svg>
