<!-- Generated by IcoMoon.io -->
<svg version="1.1" xmlns="http://www.w3.org/2000/svg" width="32" height="32" viewBox="0 0 32 32">
<title>quote</title>
<path d="M26.867 5.867l-0.8-1.533c-2.933 1.333-5.133 3.2-6.6 5.533s-2.2 5-2.2 7.8c0 1.333 0.133 2.6 0.467 3.8 0.333 1.267 0.8 2.267 1.333 3.133 1.267 1.933 3.267 2.933 6 2.933 2 0 3.667-0.6 4.933-1.8s1.933-2.733 1.933-4.667c0-2-0.6-3.6-1.867-4.733-1.133-1-2.733-1.6-4.733-1.6-1.933 0-3.6 0.667-4.867 2-0.133-0.4-0.2-0.933-0.2-1.533 0-0.533 0.067-1.2 0.2-1.933 0.267-1.467 1-2.867 2.2-4.267s2.6-2.4 4.2-3.133v0zM9.6 5.867l-0.8-1.533c-2.933 1.333-5.133 3.2-6.6 5.533-1.467 2.4-2.2 5.067-2.2 7.867 0 1.333 0.133 2.6 0.467 3.8 0.333 1.267 0.8 2.267 1.333 3.133 1.267 1.933 3.267 2.933 6 2.933 2 0 3.667-0.6 4.933-1.8s1.933-2.733 1.933-4.667c0-2-0.6-3.6-1.867-4.733-1.2-1.133-2.8-1.733-4.8-1.733s-3.6 0.667-4.867 2c-0.133-0.4-0.2-0.933-0.2-1.533 0-0.533 0.067-1.2 0.2-1.933 0.267-1.467 1-2.867 2.2-4.267 1.267-1.333 2.667-2.333 4.267-3.067v0z"></path>
</svg>
