<svg xmlns="http://www.w3.org/2000/svg" width="32" height="32"><path d="M5.813 1.094a4.749 4.749 0 0 0-2.602 1.498c-1.301 1.441-1.563 3.636-.64 5.367.185.347.415.658 3.317 4.478l1.808 2.38.379-.33c.208-.182.54-.445.738-.587.198-.141.36-.267.36-.28 0-.014-.759-1.025-1.687-2.247S5.732 9.042 5.651 8.909c-.216-.354-.321-.768-.322-1.267-.001-.519.062-.785.289-1.214a2.568 2.568 0 0 1 1.136-1.077c.414-.204.414-.204 1.086-.204.671 0 .673 0 1.084.203.528.261.927.647 1.169 1.133.101.204.672 1.534 1.268 2.957a995.525 995.525 0 0 0 1.091 2.599c.004.007.282-.057.618-.142.335-.084.748-.17.917-.191.169-.021.319-.057.333-.08.027-.044-3.12-7.578-3.384-8.1-.634-1.256-1.991-2.232-3.416-2.457-.467-.074-1.282-.062-1.707.025m18.658-.026c-1.434.242-2.778 1.212-3.407 2.458-.26.514-3.411 8.057-3.384 8.101.014.022.164.058.333.079.169.021.582.107.917.191.336.085.614.149.618.142.005-.007.496-1.176 1.091-2.599a159.295 159.295 0 0 1 1.248-2.932 2.544 2.544 0 0 1 1.177-1.152l.424-.209h.672c.672 0 .672 0 1.086.204.668.33 1.184.945 1.365 1.625.157.59.04 1.439-.266 1.94-.084.138-.91 1.246-1.836 2.464a132.988 132.988 0 0 0-1.682 2.239c0 .014.162.14.36.281.198.142.531.406.741.589l.381.332 2.461-3.237c2.583-3.397 2.796-3.718 3.05-4.571.08-.27.118-.578.136-1.12.023-.675.012-.796-.111-1.273-.482-1.868-1.969-3.25-3.821-3.55-.391-.064-1.183-.065-1.553-.002M7.505 6.135a1.606 1.606 0 0 0-1.04.82c-.193.368-.204.953-.026 1.312.106.212 3.292 4.463 3.531 4.71.09.094.118.086.765-.227.369-.178.699-.323.733-.323.035 0 .052-.031.038-.067-.014-.037-.539-1.288-1.165-2.78C9.102 6.629 9.046 6.526 8.53 6.265c-.292-.148-.729-.204-1.025-.13m16.321 0c-.329.082-.6.246-.82.496-.167.191-.422.749-1.346 2.949-.627 1.492-1.151 2.743-1.166 2.78-.014.037.005.067.042.067.037 0 .365.144.729.321.363.177.682.308.708.292.026-.016.834-1.066 1.796-2.334 1.814-2.389 1.932-2.577 1.936-3.064.002-.309-.187-.788-.41-1.034-.344-.381-.994-.59-1.469-.473m-8.973 6.457c-2.145.223-4.359 1.166-6.031 2.569a11.18 11.18 0 0 0-3.968 8.557c.006 3.639 1.75 5.827 5.365 6.73 1.487.371 2.635.488 5.151.524 3.189.045 5.065-.129 6.814-.631 3.334-.957 4.956-3.123 4.962-6.623a11.146 11.146 0 0 0-7.685-10.621 11.251 11.251 0 0 0-4.608-.505m-3.464 7.699c.127.127.131.155.131.884v.753l-.156.156c-.206.207-.466.213-.663.015-.139-.139-.141-.149-.141-.909 0-.745.004-.772.131-.899a.514.514 0 0 1 .698 0m5.945-.032c.265.141.475.461.512.781.03.255.009.311-.485 1.307-.284.572-.587 1.113-.672 1.202l-.156.163.138.277c.264.529.766.811 1.445.811.501 0 .706.136.709.47.005.495-.452.654-1.339.467a2.423 2.423 0 0 1-1.202-.63L16 24.838l-.284.269c-.347.328-.733.53-1.202.63-.652.138-1.15.067-1.283-.182a.498.498 0 0 1 .098-.599c.143-.143.188-.156.527-.156.708 0 1.205-.274 1.473-.811l.138-.277-.155-.163c-.085-.089-.378-.606-.65-1.149-.445-.886-.496-1.017-.498-1.285a.928.928 0 0 1 .489-.845c.181-.095.31-.106 1.348-.108 1.018-.002 1.168.009 1.333.097m3.975.032c.127.127.131.154.131.899 0 .76-.002.77-.141.909-.197.198-.457.192-.663-.015l-.156-.156v-.753c0-.729.004-.757.131-.884a.514.514 0 0 1 .698 0m-6.162.855c0 .054.826 1.681.853 1.681.027 0 .853-1.627.853-1.681 0-.014-.384-.026-.853-.026s-.853.012-.853.026" fill-rule="evenodd"/></svg>