<!-- Generated by IcoMoon.io -->
<svg version="1.1" xmlns="http://www.w3.org/2000/svg" width="32" height="32" viewBox="0 0 32 32">
<title>range</title>
<path d="M31.503 2.593h-4.028c0-0.828-0.662-1.49-1.49-1.49s-1.49 0.662-1.49 1.49v0.055h-4.028c-0.276 0-0.497 0.221-0.497 0.497s0.221 0.497 0.497 0.497h3.531v0.607h-16.055s0 0 0-0.055v-0.552h3.531c0.276 0 0.497-0.221 0.497-0.497s-0.221-0.497-0.497-0.497h-4.028v-0.055c0-0.828-0.662-1.49-1.49-1.49-0.772 0-1.434 0.662-1.434 1.49v0.055h-4.028c-0.276-0.055-0.497 0.166-0.497 0.441s0.221 0.497 0.497 0.497h3.531v0.552c0 1.103 0.883 1.986 1.986 1.986 0.717 0 1.379-0.386 1.71-0.993h2.979l0.441 1.324c0.331 1.048 1.269 1.71 2.372 1.71h0.11v1.6h-0.055c-1.048 0-2.041 0.552-2.538 1.434l-0.772 1.324c-0.11 0.166-0.11 0.331 0 0.497s0.221 0.221 0.386 0.221h10.869c0.166 0 0.331-0.11 0.386-0.221 0.11-0.166 0.055-0.331 0-0.497l-0.772-1.324c-0.552-0.883-1.49-1.434-2.538-1.434h-0.055v-1.6h0.11c1.048 0 1.986-0.662 2.372-1.71l0.441-1.324h2.814c0.386 0.552 0.993 0.938 1.766 0.938 1.103 0 1.986-0.883 1.986-1.986v-0.552h3.531c0.276 0 0.497-0.221 0.497-0.497-0.055-0.221-0.276-0.441-0.552-0.441zM5.462 2.593c0-0.276 0.221-0.552 0.552-0.552 0.276 0 0.552 0.221 0.552 0.552v0.055zM7.007 4.083c0 0.552-0.441 1.048-1.048 1.048s-0.993-0.441-0.993-1.048v-0.552h2.041zM18.483 10.648c0.717 0 1.379 0.386 1.766 0.993l0.331 0.607h-9.159l0.331-0.607c0.386-0.607 1.048-0.993 1.766-0.993zM14.455 9.71v-1.6h3.090v1.6zM20.028 6.124c-0.221 0.607-0.772 1.048-1.434 1.048h-5.131c-0.662 0-1.269-0.441-1.434-1.048l-0.331-1.048h8.717zM25.49 2.593c0-0.276 0.221-0.552 0.552-0.552 0.276 0 0.552 0.221 0.552 0.552v0.055zM27.034 4.083c0 0.552-0.441 1.048-1.048 1.048s-1.048-0.441-1.048-1.048v-0.552h2.097zM16 19.752c-0.276 0-0.497 0.221-0.497 0.497s0.221 0.497 0.497 0.497 0.497-0.221 0.497-0.497-0.221-0.497-0.497-0.497zM16 15.724c-0.276 0-0.497 0.221-0.497 0.497s0.221 0.497 0.497 0.497 0.497-0.221 0.497-0.497-0.221-0.497-0.497-0.497zM16 13.683c-0.276 0-0.497 0.221-0.497 0.497s0.221 0.497 0.497 0.497 0.497-0.221 0.497-0.497c0-0.221-0.221-0.497-0.497-0.497zM16 21.793c-0.276 0-0.497 0.221-0.497 0.497s0.221 0.497 0.497 0.497 0.497-0.221 0.497-0.497-0.221-0.497-0.497-0.497zM16 17.766c-0.276 0-0.497 0.221-0.497 0.497s0.221 0.497 0.497 0.497 0.497-0.221 0.497-0.497-0.221-0.497-0.497-0.497zM16 29.903c-0.276 0-0.497 0.221-0.497 0.497s0.221 0.497 0.497 0.497 0.497-0.221 0.497-0.497-0.221-0.497-0.497-0.497zM16 23.834c-0.276 0-0.497 0.221-0.497 0.497s0.221 0.497 0.497 0.497 0.497-0.221 0.497-0.497-0.221-0.497-0.497-0.497zM16 25.821c-0.276 0-0.497 0.221-0.497 0.497s0.221 0.497 0.497 0.497 0.497-0.221 0.497-0.497c0-0.221-0.221-0.497-0.497-0.497zM16 27.862c-0.276 0-0.497 0.221-0.497 0.497s0.221 0.497 0.497 0.497 0.497-0.221 0.497-0.497-0.221-0.497-0.497-0.497zM20.524 14.731c0.11 0 0.166 0 0.276-0.055 0.221-0.166 0.331-0.441 0.166-0.717-0.166-0.221-0.441-0.331-0.662-0.166s-0.331 0.441-0.166 0.717c0.055 0.11 0.221 0.221 0.386 0.221zM21.517 16.497c0.11 0 0.166 0 0.276-0.055 0.221-0.166 0.331-0.441 0.166-0.717-0.166-0.221-0.441-0.331-0.662-0.166-0.221 0.11-0.331 0.441-0.166 0.662 0.055 0.166 0.221 0.276 0.386 0.276zM26.262 24.276c-0.221 0.11-0.331 0.441-0.166 0.662 0.11 0.166 0.276 0.276 0.441 0.276 0.11 0 0.166 0 0.276-0.055 0.221-0.11 0.331-0.441 0.166-0.717-0.166-0.221-0.441-0.276-0.717-0.166zM23.283 19.034c-0.221 0.11-0.331 0.441-0.166 0.662 0.11 0.166 0.276 0.276 0.441 0.276 0.11 0 0.166 0 0.221-0.055 0.221-0.166 0.331-0.441 0.166-0.717-0.11-0.221-0.441-0.331-0.662-0.166zM25.269 22.51c-0.221 0.11-0.331 0.441-0.166 0.662 0.11 0.166 0.276 0.276 0.441 0.276 0.11 0 0.166 0 0.276-0.055 0.221-0.166 0.331-0.441 0.166-0.717-0.166-0.221-0.441-0.276-0.717-0.166zM24.276 20.8c-0.221 0.166-0.331 0.441-0.166 0.717 0.11 0.166 0.276 0.276 0.441 0.276 0.055 0 0.166 0 0.221-0.055 0.221-0.11 0.331-0.441 0.166-0.662-0.11-0.331-0.441-0.441-0.662-0.276zM27.31 26.041c-0.221 0.166-0.331 0.441-0.166 0.717 0.11 0.166 0.276 0.276 0.441 0.276 0.055 0 0.166 0 0.221-0.055 0.221-0.166 0.331-0.441 0.166-0.717s-0.441-0.386-0.662-0.221zM28.303 27.807c-0.221 0.11-0.331 0.441-0.166 0.662 0.11 0.166 0.276 0.276 0.441 0.276 0.055 0 0.166 0 0.221-0.055 0.221-0.166 0.331-0.441 0.166-0.717-0.11-0.221-0.441-0.331-0.662-0.166zM22.51 18.207c0.11 0 0.166 0 0.276-0.055 0.221-0.11 0.331-0.441 0.166-0.662s-0.441-0.331-0.662-0.166-0.331 0.441-0.166 0.717c0.055 0.11 0.221 0.166 0.386 0.166zM19.586 16c-0.11-0.276-0.386-0.386-0.607-0.331-0.276 0.11-0.386 0.386-0.331 0.607s0.276 0.331 0.497 0.331h0.166c0.221-0.055 0.386-0.331 0.276-0.607zM22.069 23.669c-0.11-0.276-0.386-0.441-0.607-0.331-0.276 0.11-0.386 0.386-0.331 0.662 0.055 0.221 0.276 0.331 0.497 0.331h0.166c0.221-0.11 0.331-0.386 0.276-0.662zM20.193 17.931c-0.11-0.276-0.386-0.441-0.607-0.331-0.276 0.055-0.441 0.331-0.331 0.607 0.055 0.221 0.276 0.331 0.497 0.331h0.166c0.221-0.055 0.386-0.386 0.276-0.607zM21.462 21.738c-0.11-0.276-0.386-0.386-0.607-0.331-0.331 0.11-0.441 0.386-0.386 0.662 0.055 0.221 0.276 0.331 0.497 0.331h0.166c0.276-0.11 0.386-0.386 0.331-0.662zM20.8 19.862c-0.11-0.276-0.386-0.441-0.607-0.331-0.276 0.11-0.386 0.386-0.331 0.662 0.055 0.221 0.276 0.331 0.497 0.331h0.166c0.221-0.166 0.386-0.441 0.276-0.662zM23.283 29.131c-0.276 0.11-0.386 0.386-0.331 0.662 0.055 0.221 0.276 0.331 0.497 0.331h0.166c0.276-0.11 0.386-0.386 0.331-0.662-0.11-0.276-0.441-0.441-0.662-0.331zM22.676 25.6c-0.11-0.276-0.386-0.441-0.607-0.331-0.276 0.11-0.386 0.386-0.331 0.662 0.055 0.221 0.276 0.331 0.497 0.331h0.166c0.221-0.11 0.331-0.386 0.276-0.662zM18.979 14.069c-0.11-0.276-0.386-0.386-0.607-0.331-0.276 0.11-0.386 0.386-0.331 0.662 0.055 0.221 0.276 0.331 0.497 0.331h0.166c0.221-0.11 0.386-0.386 0.276-0.662zM23.283 27.531c-0.11-0.276-0.386-0.386-0.607-0.331-0.276 0.11-0.386 0.386-0.331 0.662 0.055 0.221 0.276 0.331 0.497 0.331h0.166c0.221-0.11 0.386-0.386 0.276-0.662zM9.986 25.269c-0.276-0.11-0.552 0.055-0.607 0.331-0.11 0.276 0.055 0.552 0.331 0.607h0.166c0.221 0 0.386-0.11 0.497-0.331 0-0.221-0.166-0.497-0.386-0.607zM9.324 27.2c-0.276-0.11-0.552 0.055-0.607 0.331-0.11 0.276 0.055 0.552 0.331 0.662h0.166c0.221 0 0.386-0.11 0.497-0.331 0.055-0.276-0.11-0.552-0.386-0.662zM8.717 29.131c-0.276-0.11-0.552 0.055-0.607 0.331-0.11 0.276 0.055 0.552 0.331 0.662h0.166c0.221 0 0.386-0.11 0.497-0.331 0.055-0.276-0.11-0.607-0.386-0.662zM11.2 21.407c-0.276-0.11-0.552 0.055-0.607 0.331-0.11 0.276 0.055 0.552 0.331 0.662h0.166c0.221 0 0.386-0.11 0.497-0.331 0-0.276-0.11-0.552-0.386-0.662zM10.593 23.338c-0.276-0.11-0.552 0.055-0.607 0.331-0.11 0.276 0.055 0.552 0.331 0.662h0.166c0.221 0 0.386-0.11 0.497-0.331 0-0.276-0.166-0.552-0.386-0.662zM12.414 17.6c-0.276-0.11-0.552 0.055-0.607 0.331-0.11 0.276 0.055 0.552 0.331 0.662h0.166c0.221 0 0.386-0.166 0.497-0.331 0.055-0.331-0.11-0.607-0.386-0.662zM13.021 15.669c-0.276-0.11-0.552 0.055-0.607 0.331-0.11 0.276 0.055 0.552 0.331 0.662h0.166c0.221 0 0.386-0.11 0.497-0.331 0.055-0.276-0.11-0.607-0.386-0.662zM13.628 13.738c-0.276-0.11-0.552 0.055-0.607 0.331-0.11 0.276 0.055 0.552 0.331 0.662h0.166c0.221 0 0.386-0.11 0.497-0.331 0.055-0.276-0.11-0.607-0.386-0.662zM11.807 19.531c-0.276-0.11-0.552 0.055-0.607 0.331-0.11 0.276 0.055 0.552 0.331 0.607h0.166c0.221 0 0.386-0.11 0.497-0.331 0-0.276-0.11-0.552-0.386-0.607zM5.683 24.276c-0.221-0.166-0.552-0.055-0.662 0.166-0.166 0.221-0.055 0.552 0.166 0.717 0.055 0.055 0.166 0.055 0.276 0.055 0.166 0 0.331-0.11 0.441-0.276 0.11-0.221 0-0.497-0.221-0.662zM11.2 14.676c0.055 0.055 0.166 0.055 0.221 0.055 0.166 0 0.331-0.11 0.441-0.276 0.166-0.221 0.055-0.552-0.166-0.717-0.221-0.11-0.552-0.055-0.662 0.166-0.166 0.276-0.055 0.607 0.166 0.772zM4.69 26.041c-0.221-0.11-0.552-0.055-0.662 0.166-0.166 0.221-0.055 0.552 0.166 0.717 0.055 0.055 0.166 0.055 0.221 0.055 0.166 0 0.331-0.11 0.441-0.276 0.166-0.221 0.055-0.552-0.166-0.662zM6.676 22.51c-0.221-0.166-0.552-0.055-0.662 0.166-0.166 0.221-0.055 0.552 0.166 0.717 0.055 0.055 0.166 0.055 0.276 0.055 0.166 0 0.331-0.11 0.441-0.276s0.055-0.497-0.221-0.662zM3.697 27.807c-0.221-0.166-0.552-0.055-0.662 0.166-0.166 0.221-0.055 0.552 0.166 0.717 0.055 0.055 0.166 0.055 0.276 0.055 0.166 0 0.331-0.11 0.441-0.276 0.11-0.221 0-0.552-0.221-0.662zM10.207 16.386c0.055 0.055 0.166 0.055 0.276 0.055 0.166 0 0.331-0.11 0.441-0.276 0.166-0.221 0.055-0.552-0.166-0.662-0.221-0.166-0.552-0.055-0.662 0.166-0.221 0.276-0.166 0.607 0.11 0.717zM9.434 18.207c0.166 0 0.331-0.11 0.441-0.276 0.166-0.221 0.055-0.552-0.166-0.717-0.221-0.11-0.552-0.055-0.662 0.166-0.166 0.221-0.055 0.552 0.166 0.662 0.055 0.166 0.166 0.166 0.221 0.166zM8.441 19.972c0.166 0 0.331-0.11 0.441-0.276 0.166-0.221 0.055-0.552-0.166-0.662-0.221-0.166-0.552-0.055-0.662 0.166-0.166 0.221-0.055 0.552 0.166 0.717 0.055 0.055 0.11 0.055 0.221 0.055zM7.669 20.8c-0.221-0.166-0.552-0.055-0.662 0.166-0.166 0.221-0.055 0.552 0.166 0.662 0.055 0.055 0.166 0.055 0.276 0.055 0.166 0 0.331-0.11 0.441-0.276s0.055-0.497-0.221-0.607z"></path>
</svg>
