<!-- Generated by IcoMoon.io -->
<svg version="1.1" xmlns="http://www.w3.org/2000/svg" width="32" height="32" viewBox="0 0 32 32">
<title>recharge</title>
<path d="M22.667 2.133h-3.467v-2.133h-6.4v2.133h-3.467c-1.013 0-1.867 0.853-1.867 1.867v26.187c0 0.96 0.853 1.813 1.867 1.813h13.387c1.013 0 1.867-0.853 1.867-1.867v-26.133c-0.053-1.013-0.907-1.867-1.92-1.867zM13.867 1.067h4.267v1.067h-4.267zM23.467 12.8v17.333c0 0.427-0.373 0.8-0.8 0.8h-13.333c-0.16 0-0.32-0.053-0.427-0.16 0.107-0.053 0.16-0.213 0.16-0.373 0-0.32-0.213-0.533-0.533-0.533v-2.133c0.32 0 0.533-0.213 0.533-0.533s-0.213-0.533-0.533-0.533v-2.133c0.32 0 0.533-0.213 0.533-0.533s-0.213-0.533-0.533-0.533v-2.133c0.32 0 0.533-0.213 0.533-0.533s-0.213-0.533-0.533-0.533v-2.133c0.32 0 0.533-0.213 0.533-0.533s-0.213-0.533-0.533-0.533v-2.133c0.32 0 0.533-0.213 0.533-0.533s-0.213-0.533-0.533-0.533v-2.133c0.32 0 0.533-0.213 0.533-0.533h2.133c0 0.32 0.213 0.533 0.533 0.533s0.533-0.213 0.533-0.533h2.133c0 0.32 0.213 0.533 0.533 0.533s0.533-0.213 0.533-0.533h2.133c0 0.32 0.213 0.533 0.533 0.533s0.533-0.213 0.533-0.533h2.133c0 0.32 0.213 0.533 0.533 0.533s0.533-0.213 0.533-0.533h1.6zM23.467 10.133h-14.933v-6.133c0-0.427 0.373-0.8 0.8-0.8h13.333c0.427 0 0.8 0.373 0.8 0.8zM10.133 12.267c-0.32 0-0.533 0.213-0.533 0.533s0.213 0.533 0.533 0.533 0.533-0.213 0.533-0.533-0.213-0.533-0.533-0.533zM11.733 13.867c-0.32 0-0.533 0.213-0.533 0.533s0.213 0.533 0.533 0.533 0.533-0.213 0.533-0.533-0.213-0.533-0.533-0.533zM13.333 12.267c-0.32 0-0.533 0.213-0.533 0.533s0.213 0.533 0.533 0.533 0.533-0.213 0.533-0.533-0.213-0.533-0.533-0.533zM16.533 12.267c-0.32 0-0.533 0.213-0.533 0.533s0.213 0.533 0.533 0.533 0.533-0.213 0.533-0.533-0.213-0.533-0.533-0.533zM14.933 13.867c-0.32 0-0.533 0.213-0.533 0.533s0.213 0.533 0.533 0.533 0.533-0.213 0.533-0.533-0.213-0.533-0.533-0.533zM18.133 13.867c-0.32 0-0.533 0.213-0.533 0.533s0.213 0.533 0.533 0.533 0.533-0.213 0.533-0.533-0.213-0.533-0.533-0.533zM19.733 12.267c-0.32 0-0.533 0.213-0.533 0.533s0.213 0.533 0.533 0.533 0.533-0.213 0.533-0.533-0.213-0.533-0.533-0.533zM22.933 12.267c-0.32 0-0.533 0.213-0.533 0.533s0.213 0.533 0.533 0.533 0.533-0.213 0.533-0.533-0.213-0.533-0.533-0.533zM21.333 13.867c-0.32 0-0.533 0.213-0.533 0.533s0.213 0.533 0.533 0.533 0.533-0.213 0.533-0.533-0.213-0.533-0.533-0.533zM10.133 15.467c-0.32 0-0.533 0.213-0.533 0.533s0.213 0.533 0.533 0.533 0.533-0.213 0.533-0.533-0.213-0.533-0.533-0.533zM10.133 18.667c-0.32 0-0.533 0.213-0.533 0.533s0.213 0.533 0.533 0.533 0.533-0.213 0.533-0.533-0.213-0.533-0.533-0.533zM11.733 17.067c-0.32 0-0.533 0.213-0.533 0.533s0.213 0.533 0.533 0.533 0.533-0.213 0.533-0.533-0.213-0.533-0.533-0.533zM11.733 20.267c-0.32 0-0.533 0.213-0.533 0.533s0.213 0.533 0.533 0.533 0.533-0.213 0.533-0.533-0.213-0.533-0.533-0.533zM13.333 15.467c-0.32 0-0.533 0.213-0.533 0.533s0.213 0.533 0.533 0.533 0.533-0.213 0.533-0.533-0.213-0.533-0.533-0.533zM16.533 15.467c-0.32 0-0.533 0.213-0.533 0.533s0.213 0.533 0.533 0.533 0.533-0.213 0.533-0.533-0.213-0.533-0.533-0.533zM13.333 18.667c-0.32 0-0.533 0.213-0.533 0.533s0.213 0.533 0.533 0.533 0.533-0.213 0.533-0.533-0.213-0.533-0.533-0.533zM16.533 18.667c-0.32 0-0.533 0.213-0.533 0.533s0.213 0.533 0.533 0.533 0.533-0.213 0.533-0.533-0.213-0.533-0.533-0.533zM14.933 17.067c-0.32 0-0.533 0.213-0.533 0.533s0.213 0.533 0.533 0.533 0.533-0.213 0.533-0.533-0.213-0.533-0.533-0.533zM18.133 17.067c-0.32 0-0.533 0.213-0.533 0.533s0.213 0.533 0.533 0.533 0.533-0.213 0.533-0.533-0.213-0.533-0.533-0.533zM14.933 20.267c-0.32 0-0.533 0.213-0.533 0.533s0.213 0.533 0.533 0.533 0.533-0.213 0.533-0.533-0.213-0.533-0.533-0.533zM18.133 20.267c-0.32 0-0.533 0.213-0.533 0.533s0.213 0.533 0.533 0.533 0.533-0.213 0.533-0.533-0.213-0.533-0.533-0.533zM19.733 15.467c-0.32 0-0.533 0.213-0.533 0.533s0.213 0.533 0.533 0.533 0.533-0.213 0.533-0.533-0.213-0.533-0.533-0.533zM22.933 15.467c-0.32 0-0.533 0.213-0.533 0.533s0.213 0.533 0.533 0.533 0.533-0.213 0.533-0.533-0.213-0.533-0.533-0.533zM19.733 18.667c-0.32 0-0.533 0.213-0.533 0.533s0.213 0.533 0.533 0.533 0.533-0.213 0.533-0.533-0.213-0.533-0.533-0.533zM22.933 18.667c-0.32 0-0.533 0.213-0.533 0.533s0.213 0.533 0.533 0.533 0.533-0.213 0.533-0.533-0.213-0.533-0.533-0.533zM21.333 17.067c-0.32 0-0.533 0.213-0.533 0.533s0.213 0.533 0.533 0.533 0.533-0.213 0.533-0.533-0.213-0.533-0.533-0.533zM21.333 20.267c-0.32 0-0.533 0.213-0.533 0.533s0.213 0.533 0.533 0.533 0.533-0.213 0.533-0.533-0.213-0.533-0.533-0.533zM10.133 21.867c-0.32 0-0.533 0.213-0.533 0.533s0.213 0.533 0.533 0.533 0.533-0.213 0.533-0.533-0.213-0.533-0.533-0.533zM10.133 25.067c-0.32 0-0.533 0.213-0.533 0.533s0.213 0.533 0.533 0.533 0.533-0.213 0.533-0.533-0.213-0.533-0.533-0.533zM11.733 23.467c-0.32 0-0.533 0.213-0.533 0.533s0.213 0.533 0.533 0.533 0.533-0.213 0.533-0.533-0.213-0.533-0.533-0.533zM11.733 26.667c-0.32 0-0.533 0.213-0.533 0.533s0.213 0.533 0.533 0.533 0.533-0.213 0.533-0.533-0.213-0.533-0.533-0.533zM13.333 21.867c-0.32 0-0.533 0.213-0.533 0.533s0.213 0.533 0.533 0.533 0.533-0.213 0.533-0.533-0.213-0.533-0.533-0.533zM16.533 21.867c-0.32 0-0.533 0.213-0.533 0.533s0.213 0.533 0.533 0.533 0.533-0.213 0.533-0.533-0.213-0.533-0.533-0.533zM13.333 25.067c-0.32 0-0.533 0.213-0.533 0.533s0.213 0.533 0.533 0.533 0.533-0.213 0.533-0.533-0.213-0.533-0.533-0.533zM16.533 25.067c-0.32 0-0.533 0.213-0.533 0.533s0.213 0.533 0.533 0.533 0.533-0.213 0.533-0.533-0.213-0.533-0.533-0.533zM14.933 23.467c-0.32 0-0.533 0.213-0.533 0.533s0.213 0.533 0.533 0.533 0.533-0.213 0.533-0.533-0.213-0.533-0.533-0.533zM18.133 23.467c-0.32 0-0.533 0.213-0.533 0.533s0.213 0.533 0.533 0.533 0.533-0.213 0.533-0.533-0.213-0.533-0.533-0.533zM14.933 26.667c-0.32 0-0.533 0.213-0.533 0.533s0.213 0.533 0.533 0.533 0.533-0.213 0.533-0.533-0.213-0.533-0.533-0.533zM18.133 26.667c-0.32 0-0.533 0.213-0.533 0.533s0.213 0.533 0.533 0.533 0.533-0.213 0.533-0.533-0.213-0.533-0.533-0.533zM19.733 21.867c-0.32 0-0.533 0.213-0.533 0.533s0.213 0.533 0.533 0.533 0.533-0.213 0.533-0.533-0.213-0.533-0.533-0.533zM22.933 21.867c-0.32 0-0.533 0.213-0.533 0.533s0.213 0.533 0.533 0.533 0.533-0.213 0.533-0.533-0.213-0.533-0.533-0.533zM19.733 25.067c-0.32 0-0.533 0.213-0.533 0.533s0.213 0.533 0.533 0.533 0.533-0.213 0.533-0.533-0.213-0.533-0.533-0.533zM22.933 25.067c-0.32 0-0.533 0.213-0.533 0.533s0.213 0.533 0.533 0.533 0.533-0.213 0.533-0.533-0.213-0.533-0.533-0.533zM21.333 23.467c-0.32 0-0.533 0.213-0.533 0.533s0.213 0.533 0.533 0.533 0.533-0.213 0.533-0.533-0.213-0.533-0.533-0.533zM21.333 26.667c-0.32 0-0.533 0.213-0.533 0.533s0.213 0.533 0.533 0.533 0.533-0.213 0.533-0.533-0.213-0.533-0.533-0.533zM10.133 28.267c-0.32 0-0.533 0.213-0.533 0.533s0.213 0.533 0.533 0.533 0.533-0.213 0.533-0.533-0.213-0.533-0.533-0.533zM12.267 30.4c0-0.32-0.213-0.533-0.533-0.533s-0.533 0.213-0.533 0.533 0.213 0.533 0.533 0.533 0.533-0.213 0.533-0.533zM13.333 28.267c-0.32 0-0.533 0.213-0.533 0.533s0.213 0.533 0.533 0.533 0.533-0.213 0.533-0.533-0.213-0.533-0.533-0.533zM16.533 28.267c-0.32 0-0.533 0.213-0.533 0.533s0.213 0.533 0.533 0.533 0.533-0.213 0.533-0.533-0.213-0.533-0.533-0.533zM15.467 30.4c0-0.32-0.213-0.533-0.533-0.533s-0.533 0.213-0.533 0.533 0.213 0.533 0.533 0.533 0.533-0.213 0.533-0.533zM18.667 30.4c0-0.32-0.213-0.533-0.533-0.533s-0.533 0.213-0.533 0.533 0.213 0.533 0.533 0.533 0.533-0.213 0.533-0.533zM19.733 28.267c-0.32 0-0.533 0.213-0.533 0.533s0.213 0.533 0.533 0.533 0.533-0.213 0.533-0.533-0.213-0.533-0.533-0.533zM22.933 28.267c-0.32 0-0.533 0.213-0.533 0.533s0.213 0.533 0.533 0.533 0.533-0.213 0.533-0.533-0.213-0.533-0.533-0.533zM21.867 30.4c0-0.32-0.213-0.533-0.533-0.533s-0.533 0.213-0.533 0.533 0.213 0.533 0.533 0.533 0.533-0.213 0.533-0.533z"></path>
</svg>
