<!-- Generated by IcoMoon.io -->
<svg version="1.1" xmlns="http://www.w3.org/2000/svg" width="32" height="32" viewBox="0 0 32 32">
<title>recharge-1</title>
<path fill="#fff" d="M8.625 25.864v-2.078c0-0.37-0.3-0.67-0.67-0.67s-0.67 0.3-0.67 0.67v2.078c-0.754 0.154-1.432 0.562-1.92 1.157s-0.757 1.339-0.762 2.108c0 0.178 0.071 0.348 0.196 0.474s0.296 0.196 0.474 0.196h0.617v1.428c0 0.371 0.3 0.67 0.67 0.67s0.67-0.3 0.67-0.67v-1.428h1.394v1.428c0 0.371 0.3 0.67 0.67 0.67s0.67-0.3 0.67-0.67v-1.428h0.67c0.178 0 0.348-0.071 0.474-0.196s0.196-0.296 0.196-0.474c-0.005-0.769-0.273-1.514-0.762-2.108s-1.166-1.003-1.92-1.157h0zM6.078 28.458c0.197-0.506 0.591-0.911 1.091-1.122s1.065-0.211 1.565 0c0.5 0.211 0.894 0.616 1.091 1.122h-3.748z"></path>
<path fill="#fff" d="M25.386 3.92h-3.352v-3.352c0-0.178-0.071-0.348-0.196-0.474s-0.296-0.196-0.474-0.196h-8.045c-0.37 0-0.67 0.3-0.67 0.67v3.352h-3.352c-0.533 0-1.045 0.212-1.422 0.589s-0.589 0.889-0.589 1.422v16.003c0 0.37 0.3 0.67 0.67 0.67s0.67-0.3 0.67-0.67v-16.003c0-0.37 0.3-0.67 0.67-0.67h16.091c0.178 0 0.348 0.071 0.474 0.196s0.196 0.296 0.196 0.474v21.857c0 0.178-0.071 0.348-0.196 0.474s-0.296 0.196-0.474 0.196h-12.739c-0.37 0-0.67 0.3-0.67 0.67s0.3 0.67 0.67 0.67h12.739c0.533 0 1.045-0.212 1.422-0.589s0.589-0.889 0.589-1.422v-21.857c0-0.533-0.212-1.045-0.589-1.422s-0.889-0.589-1.422-0.589zM13.989 1.239h6.705v2.682h-6.704v-2.682z"></path>
<path fill="#fff" d="M13.426 22.779c0.111 0.075 0.242 0.114 0.376 0.114 0.222 0.002 0.43-0.106 0.556-0.288l4.023-5.806c0.133-0.2 0.148-0.456 0.040-0.67-0.117-0.22-0.347-0.357-0.596-0.356h-1.824l2.769-4.807c0.167-0.318 0.053-0.711-0.259-0.891s-0.708-0.082-0.901 0.221l-3.352 5.813c-0.12 0.207-0.12 0.463 0 0.67s0.343 0.336 0.583 0.335h1.71l-3.299 4.76c-0.191 0.3-0.115 0.698 0.174 0.905h0z"></path>
</svg>
