<!-- Generated by IcoMoon.io -->
<svg version="1.1" xmlns="http://www.w3.org/2000/svg" width="32" height="32" viewBox="0 0 32 32">
<title>remider</title>
<path d="M27.2 25.943l-1.486-2.971v-7.2c0-4.457-2.971-8.229-6.971-9.486v-3.543c-0.114-1.486-1.257-2.743-2.743-2.743s-2.743 1.257-2.743 2.743v3.657c-4 1.143-6.971 4.914-6.971 9.486v7.2l-1.486 2.971c-0.343 0.571-0.229 1.257 0 1.829 0.343 0.343 0.914 0.686 1.6 0.686h6.057c0.114 1.943 1.6 3.429 3.543 3.429s3.429-1.486 3.543-3.429h6.057c0.686 0 1.143-0.343 1.486-0.914 0.457-0.457 0.457-1.143 0.114-1.714zM14.743 2.743c0-0.686 0.571-1.257 1.257-1.257s1.257 0.571 1.257 1.257v3.314c-0.457 0-0.8-0.114-1.257-0.114s-0.8 0-1.257 0.114zM7.771 15.771c0-4.571 3.657-8.343 8.229-8.343s8.229 3.771 8.229 8.343v6.629h-16.457zM16 30.514c-1.143 0-2.057-0.914-2.171-1.943h4.229c0 1.143-0.914 1.943-2.057 1.943zM25.943 26.971s-0.114 0.229-0.343 0.229h-19.2c-0.229 0-0.229-0.114-0.343-0.229 0 0-0.114-0.229 0-0.343l1.486-2.743h17.029l1.486 2.743c0 0.114-0.114 0.343-0.114 0.343zM16 9.371c-3.543 0-6.4 2.857-6.4 6.514 0 0.343 0.343 0.686 0.686 0.686s0.686-0.343 0.686-0.686c0-2.743 2.171-5.029 4.914-5.029 0.343 0 0.686-0.343 0.686-0.686 0.114-0.571-0.229-0.8-0.571-0.8z"></path>
</svg>
