<!-- Generated by IcoMoon.io -->
<svg version="1.1" xmlns="http://www.w3.org/2000/svg" width="32" height="32" viewBox="0 0 32 32">
<title>return-box-1</title>
<path d="M31.081 22.624c-0.172-1.81-1.078-3.457-2.551-4.638-0.568-0.456-1.213-0.836-1.925-1.139v-8.161c0-0.173-0.090-0.332-0.236-0.418l-12.386-7.314c-0.146-0.086-0.326-0.086-0.472 0l-12.386 7.314c-0.146 0.086-0.236 0.246-0.236 0.418v14.628c0 0.173 0.090 0.332 0.236 0.418l12.386 7.314c0.073 0.043 0.155 0.065 0.236 0.065s0.163-0.022 0.236-0.065l12.386-7.314c0.097-0.057 0.169-0.147 0.206-0.252 0.322 0.425 0.545 0.902 0.651 1.404 0.39 1.856-0.784 3.66-3.062 4.709-0.219 0.101-0.329 0.353-0.256 0.587 0.063 0.203 0.248 0.337 0.45 0.336 0.030 0 0.061-0.003 0.091-0.009 2.186-0.439 3.975-1.479 5.174-3.008 1.106-1.41 1.624-3.142 1.459-4.876zM13.747 15.442l-3.453-2.039 11.441-6.756 3.453 2.039-11.441 6.756zM6.702 11.282l11.441-6.756 2.647 1.563-11.441 6.756-2.647-1.563zM8.878 13.682l-0 4.645-2.647-1.563-0-4.645 2.648 1.563zM13.747 1.93l3.452 2.039-11.441 6.756-3.452-2.039 11.441-6.756zM1.833 9.523l3.452 2.039 0 5.481c0 0.173 0.090 0.332 0.236 0.418l3.592 2.121c0.073 0.043 0.155 0.065 0.236 0.065s0.163-0.022 0.236-0.065c0.146-0.086 0.236-0.246 0.236-0.418v-4.924l3.452 2.039v13.513l-11.441-6.756v-13.513zM14.219 29.792v-13.513l11.441-6.756v6.979c-0.982-0.303-2.066-0.476-3.231-0.513v-1.562c0-0.188-0.106-0.358-0.272-0.438s-0.362-0.053-0.503 0.067l-5.459 4.674c-0.111 0.095-0.173 0.238-0.169 0.386s0.076 0.286 0.193 0.374l5.459 4.097c0.144 0.108 0.334 0.124 0.493 0.041s0.259-0.249 0.259-0.431v-1.624c1.25 0.069 2.349 0.413 3.199 1.005 0.011 0.008 0.021 0.016 0.032 0.023v0.434l-11.441 6.756zM27.27 28.372c0.117-0.156 0.223-0.316 0.32-0.48 0.594-1.010 0.787-2.12 0.558-3.209-0.24-1.145-0.946-2.175-1.988-2.902-1.113-0.776-2.567-1.186-4.203-1.186-0.261 0-0.472 0.216-0.472 0.483v1.166l-4.222-3.168 4.222-3.614v1.004c0 0.267 0.211 0.483 0.472 0.483 5.636 0 7.931 3.108 8.184 5.77 0.185 1.951-0.683 4.223-2.871 5.654z"></path>
</svg>
