<!-- Generated by IcoMoon.io -->
<svg version="1.1" xmlns="http://www.w3.org/2000/svg" width="32" height="32" viewBox="0 0 32 32">
<title>ride</title>
<path d="M26.1 13.55c-0.6 0-1.2 0.1-1.75 0.3l-3-7.2s0-0.050-0.050-0.050 0 0 0-0.050c0 0 0 0 0-0.050s0 0 0-0.050 0 0-0.050 0 0 0-0.050 0 0 0-0.050 0 0 0-0.050 0 0 0-0.050 0c0 0 0 0-0.050 0 0 0 0 0-0.050 0h-1.7c-0.45-0.2-0.75 0.050-0.75 0.4s0.25 0.6 0.6 0.6h1.25l1.25 2.95-3.95 3.15c-0.55 0.4-1.1 0.6-1.65 0.6h-1.2c-0.35 0-0.6 0.25-0.6 0.6s0.25 0.6 0.6 0.6h1.2c0.8 0 1.6-0.25 2.35-0.85l3.7-2.95 0.35 0.8-6.65 5.75c-0.25-0.15-0.6-0.25-0.95-0.25-0.1 0-0.2 0-0.3 0.050l-4.55-9.8h1.3c0.35 0 0.6-0.25 0.6-0.6s-0.25-0.6-0.6-0.6h-2.9c-0.15 0-0.3-0.1-0.4-0.25-0.2-0.25-0.55-0.35-0.85-0.15-0.25 0.2-0.35 0.6-0.15 0.85 0.35 0.45 0.85 0.75 1.4 0.75h0.3l0.85 1.75-1.7 4c-0.6-0.2-1.2-0.3-1.85-0.3-3.3 0-5.95 2.75-5.95 6.1s2.65 6.1 5.9 6.1c3.1 0 5.6-2.4 5.9-5.5h1.35c0.25 0.7 0.9 1.2 1.65 1.2 1 0 1.75-0.8 1.75-1.8 0-0.2-0.050-0.4-0.1-0.6l6.4-5.5 0.3 0.75c-1.85 1.050-3.050 3.050-3.050 5.35 0 3.35 2.65 6.1 5.9 6.1 3.35 0 6-2.75 6-6.1s-2.65-6.1-5.9-6.1zM8.35 15.5c1.2 0.75 2.050 2.050 2.25 3.55h-3.8zM5.9 24.55c-2.6 0-4.75-2.2-4.75-4.85 0-2.7 2.15-4.85 4.75-4.85 0.45 0 0.95 0.050 1.35 0.2l-1.9 4.4c-0.1 0.2-0.050 0.4 0.050 0.6 0.1 0.15 0.3 0.3 0.5 0.3h4.7c-0.25 2.3-2.25 4.2-4.7 4.2zM13.15 19.050h-1.35c-0.2-2-1.35-3.75-2.95-4.7l1.3-3.050 3.35 7.15c-0.15 0.2-0.3 0.4-0.35 0.6zM14.8 20.25c-0.3 0-0.6-0.25-0.6-0.6s0.25-0.6 0.6-0.6 0.6 0.25 0.6 0.6-0.25 0.6-0.6 0.6zM26.1 24.55c-2.6 0-4.75-2.2-4.75-4.85 0-1.8 0.95-3.35 2.35-4.2l1.85 4.45c0.1 0.25 0.3 0.35 0.55 0.35 0.1 0 0.15 0 0.25-0.050 0.3-0.15 0.45-0.5 0.3-0.8l-1.85-4.45c0.4-0.1 0.85-0.2 1.3-0.2 2.6 0 4.75 2.2 4.75 4.85-0.050 2.7-2.15 4.9-4.75 4.9zM24.9 12.95h0.6c0.35 0 0.6-0.25 0.6-0.6s-0.25-0.6-0.6-0.6h-0.6c-0.35 0-0.6 0.25-0.6 0.6s0.25 0.6 0.6 0.6z"></path>
</svg>
