<!-- Generated by IcoMoon.io -->
<svg version="1.1" xmlns="http://www.w3.org/2000/svg" width="32" height="32" viewBox="0 0 32 32">
<title>run</title>
<path d="M31.488 6.976c-0.768-0.768-2.048-0.768-2.752 0l-2.88 2.88c-0.192 0.192-0.384 0.192-0.576 0l-4.032-3.712c-0.384-0.32-0.896-0.576-1.408-0.576h-6.016c-0.192 0-0.256 0.064-0.32 0.128l-5.056 4.8c-0.704 0.768-0.768 1.984-0.128 2.688 0.32 0.384 0.832 0.576 1.408 0.576s1.024-0.192 1.408-0.576l3.584-3.776h1.28l-8.512 9.344h-5.184c-1.28 0-2.24 0.96-2.304 2.112-0.064 0.576 0.192 1.216 0.576 1.664 0.448 0.384 1.024 0.64 1.6 0.64h7.744c0.192 0 0.256-0.064 0.384-0.192l3.968-4.224 3.328 3.456-0.96 6.336c-0.256 1.088 0.256 2.112 1.216 2.56 0.32 0.192 0.576 0.192 0.96 0.192 0.32 0 0.64-0.064 1.024-0.192 0.576-0.256 1.024-0.832 1.152-1.472l1.664-9.152c0-0.192-0.064-0.384-0.192-0.512l-4.544-4.544 3.648-3.648 2.56 2.496c0.704 0.704 1.92 0.704 2.624 0l4.736-4.736c0.704-0.64 0.704-1.792 0-2.56zM30.72 8.896l-4.736 4.736c-0.32 0.256-0.832 0.256-1.088 0l-2.944-2.88c-0.192-0.192-0.576-0.192-0.768 0l-4.416 4.416c-0.128 0.128-0.192 0.192-0.192 0.384s0.064 0.256 0.192 0.448l4.736 4.736-1.6 8.704c-0.128 0.256-0.32 0.576-0.576 0.704s-0.576 0.192-0.96 0c-0.512-0.192-0.704-0.768-0.576-1.344l1.024-6.72c0-0.192-0.064-0.32-0.192-0.448l-3.904-4.032c-0.128-0.128-0.192-0.192-0.384-0.192s-0.32 0.064-0.384 0.192l-4.224 4.416h-7.488c-0.32 0-0.576-0.128-0.832-0.32-0.192-0.192-0.256-0.512-0.256-0.832 0-0.576 0.576-1.024 1.216-1.024h5.44c0.192 0 0.256-0.064 0.384-0.064l9.408-10.432c0.192-0.192 0.192-0.384 0.128-0.576s-0.256-0.32-0.512-0.32h-2.752c-0.128 0-0.256 0.064-0.384 0.192l-3.84 3.904c-0.128 0.192-0.32 0.256-0.576 0.256-0.192 0-0.448-0.128-0.576-0.256-0.256-0.32-0.256-0.832 0.064-1.152l4.928-4.672h5.824c0.192 0 0.512 0.128 0.64 0.256l4.032 3.712c0.576 0.576 1.536 0.512 2.112-0.064l2.88-2.88c0.256-0.256 0.832-0.256 1.088 0l0.064 0.064c0.256 0.32 0.256 0.768 0 1.088zM25.408 7.232c1.792 0 3.328-1.472 3.328-3.264s-1.536-3.328-3.328-3.328-3.328 1.472-3.328 3.264 1.472 3.328 3.328 3.328zM25.408 1.728c1.216 0 2.24 0.96 2.24 2.176s-1.024 2.176-2.24 2.176-2.24-0.96-2.24-2.176 1.024-2.176 2.24-2.176z"></path>
</svg>
