<!-- Generated by IcoMoon.io -->
<svg version="1.1" xmlns="http://www.w3.org/2000/svg" width="32" height="32" viewBox="0 0 32 32">
<title>safe-2</title>
<path d="M9.3 14.9c0 1.2 1 2.15 2.2 2.15s2.2-1 2.2-2.15c0-1.2-1-2.15-2.2-2.15-1.25 0-2.2 0.95-2.2 2.15zM12.55 14.9c0 0.6-0.5 1.1-1.1 1.1s-1.1-0.5-1.1-1.1 0.5-1.1 1.1-1.1 1.1 0.5 1.1 1.1zM10.55 24.8c-2.9 0.25-5.5-1.95-5.75-4.85 0-0.3-0.3-0.55-0.6-0.5-0.3 0-0.5 0.3-0.5 0.6 0.3 3.35 3.1 5.85 6.35 5.85h0.55c0.3 0 0.5-0.3 0.5-0.6s-0.25-0.55-0.55-0.5zM31.9 18.15c0.2-0.6 0.1-1.25-0.2-1.8l-5.3-8.3c-0.6-0.9-1.8-1.25-2.75-0.7l-0.25 0.15s-0.050-0.050-0.050-0.050c-0.1-0.1-0.45-0.45-0.95-0.85-4.6-3.75-11.1-4.1-16.2-1-3 1.8-4.85 4.1-5.55 6.8-0.1 0.3-2.55 7.95 2.75 13.8 0.25 0.3 1.65 1.55 7.7 2.050 1.5 0.15 3 0.2 4.5 0.2 2.95 0 5.95-0.25 9-0.75 2.55-0.4 4.55-0.85 6-1.35 0.15-0.050 0.3-0.2 0.35-0.35 0.050-0.1 1.3-3.75 0.050-6.5 0 0 0-0.050-0.050-0.050l-0.1-0.15c0.5-0.25 0.85-0.65 1.050-1.15zM30 25.45c-1.35 0.45-3.2 0.85-5.55 1.25-4.55 0.75-9 0.9-13.25 0.55-5.8-0.5-6.95-1.65-6.95-1.65s0-0.050-0.050-0.050c-4.9-5.4-2.55-12.7-2.55-12.8 0.65-2.5 2.35-4.55 5.050-6.2 4.8-2.9 10.8-2.55 15 0.85 0.3 0.25 0.55 0.45 0.7 0.6l-4.7 2.6c-0.25 0.15-0.45 0.2-0.75 0.3l-0.15 0.050c-0.85 0.2-2.25 0.5-4.85 0-1.4-0.3-2.85 0.25-3.7 1.45-0.1 0.15-0.2 0.3-0.3 0.45-0.55 1.050-0.6 2.3-0.050 3.4 0 0.050 0.050 0.1 0.050 0.1 0.050 0.1 0.15 0.25 0.2 0.35 0.35 0.55 0.75 1.050 1.2 1.55 1.25 1.3 2.85 2.25 4.6 2.7 0.1 0.050 0.25 0.050 0.4 0.1 0.050 0 0.050 0 0.1 0.050 1.050 0.3 2.75 0.75 5.3 0.75 2.5 0 5.8-0.45 10.1-2.050l0.15 0.25c0.9 1.9 0.25 4.6 0 5.4zM19.5 20.65c-2.25-0.050-3.8-0.45-4.75-0.7-0.15-0.050-0.25-0.050-0.35-0.1-0.050 0-0.1 0-0.15-0.050-1.25-0.3-2.4-0.9-3.35-1.7-0.7-0.6-1.3-1.25-1.8-2.050-0.050-0.1-0.1-0.2-0.2-0.3-0.2-0.35-0.3-0.7-0.3-1.050-0.050-0.6 0.15-1.2 0.5-1.75 0.050-0.1 0.15-0.2 0.25-0.25 0.050-0.050 0.050-0.050 0.1-0.1s0.1-0.1 0.2-0.15c0.050-0.050 0.050-0.050 0.1-0.050 0.050-0.050 0.1-0.1 0.2-0.1 0.050 0 0.050-0.050 0.1-0.050 0.050-0.050 0.15-0.050 0.2-0.1 0.050 0 0.050 0 0.1-0.050 0.1-0.050 0.2-0.050 0.3-0.1h0.050c0.1 0 0.2-0.050 0.25-0.050h0.3c0.15 0 0.3 0 0.45 0.050 0.7 0.15 1.35 0.25 1.9 0.3 0.25 3.8 2.6 6.95 5.9 8.35zM30.85 17.8c-0.1 0.25-0.25 0.45-0.5 0.55-0.3 0.1-0.55 0.2-0.8 0.3-0.35 0.15-0.75 0.25-1.1 0.4-0.15 0.050-0.3 0.1-0.45 0.15-0.35 0.1-0.7 0.25-1.050 0.35-0.15 0.050-0.25 0.050-0.35 0.1-0.35 0.1-0.7 0.2-1.050 0.3-0.1 0.050-0.2 0.050-0.3 0.050-0.35 0.1-0.7 0.15-1 0.2-0.050 0-0.15 0.050-0.2 0.050-0.25 0.050-0.45 0.1-0.65 0.1-4.65 0-8.35-3.5-8.6-8.050 1.1 0 1.85-0.2 2.35-0.3l0.15-0.050c0.35-0.1 0.7-0.2 1-0.4l5.35-2.95 0.6-0.35c0.45-0.25 1.050-0.1 1.3 0.35l5.25 8.3c0.1 0.3 0.15 0.6 0.050 0.9z"></path>
</svg>
