<!-- Generated by IcoMoon.io -->
<svg version="1.1" xmlns="http://www.w3.org/2000/svg" width="32" height="32" viewBox="0 0 32 32">
<title>safe</title>
<path d="M31 1c-0.7-0.7-1.6-1-2.6-1-1.1 0-2.3 0.5-3.2 1.4-0.1 0.1-0.2 0.2-0.2 0.3l-0.4 0.6c-0.2 0-0.4 0-0.6 0-0.8 0-1.6 0.2-2.3 0.6-0.3-0.2-0.7-0.4-1.1-0.4-0.5 0-1 0.2-1.4 0.6l-2.5 2.5s0 0-0.1 0.1c-0.2 0-0.4 0-0.6 0-1 0-2 0.4-2.7 1.1l-12.3 12.2c-1.4 1.4-1.4 3.5 0 4.9l7.2 7.1c0.7 0.7 1.5 1 2.4 1s1.8-0.4 2.4-1l12.2-12.2c0.9-0.9 1.2-2.1 1.1-3.2 0 0 0 0 0.1-0.1l2.5-2.5c0.4-0.4 0.6-0.9 0.6-1.4 0-0.4-0.1-0.8-0.4-1.1 0.6-1.1 0.6-2 0.6-2.9l0.6-0.6c0.1-0.1 0.2-0.2 0.3-0.2 1.7-1.7 1.9-4.3 0.4-5.8zM23.9 17.3l-12.3 12.2c-0.3 0.3-0.7 0.5-1 0.5-0.4 0-0.7-0.2-1-0.5l-7.1-7.1c-0.5-0.5-0.7-1.4 0-2l1.5-1.6 2.2 2.2c0.1 0.1 0.2 0.1 0.3 0.1s0.3-0.1 0.4-0.2c0.2-0.2 0.2-0.5 0.1-0.7l-2.2-2.2 3.3-3.3 2.2 2.2c0.1 0.1 0.2 0.1 0.3 0.1s0.3-0.1 0.4-0.2c0.2-0.2 0.2-0.5 0.1-0.7l-2.2-2.2 3.3-3.3 2.2 2.2c0.1 0.1 0.2 0.1 0.3 0.1s0.3-0.1 0.4-0.2c0.2-0.2 0.3-0.5 0.1-0.7l-2.2-2.2 1.7-1.7c0.3-0.3 0.8-0.5 1.3-0.5 0.4 0 0.8 0.1 1 0.4l7 7c0.5 0.5 0.5 1.6-0.1 2.3zM25 14l-7-7 2.5-2.5 7 7zM29.2 5.4l-1.7 1.2c0.3 1.3 0.4 2.2-0.5 3.5l-5-5c0.7-0.5 1.3-0.7 2-0.7 0.5 0 1 0.1 1.5 0.2l1.2-1.7c0.4-0.6 1.1-0.9 1.7-0.9 0.4 0 0.9 0.1 1.2 0.5 0.7 0.7 0.5 2-0.4 2.9z"></path>
</svg>
