<!-- Generated by IcoMoon.io -->
<svg version="1.1" xmlns="http://www.w3.org/2000/svg" width="28" height="28" viewBox="0 0 28 28">
<title>salads</title>
<path d="M17.774 6.218c-0.571 0.576-0.994 1.285-1.331 2.017-0.564-0.267-1.173-0.367-1.745-0.214-0.862 0.231-1.487 0.933-1.808 1.805s-0.362 1.93-0.074 3.003c0.265 0.988 0.755 2.037 1.295 2.921h-2.761c-0.219-1.964-1.89-3.5-3.912-3.5s-3.693 1.536-3.912 3.5h-0.463c-0.72 0-1.313 0.593-1.313 1.313 0 4.102 3.335 7.438 7.438 7.438h9.625c4.102 0 7.438-3.335 7.438-7.438 0-0.72-0.593-1.313-1.313-1.313h-2.129c0.85-0.77 1.468-1.807 1.639-2.828 0.158-0.915-0.032-1.836-0.663-2.467h-0.001c-0.415-0.415-1.001-0.596-1.617-0.649 0.095-0.701 0.096-1.51-0.111-2.302-0.254-0.97-0.781-1.921-1.764-2.184-1.055-0.283-1.931 0.318-2.517 0.898zM20.064 6.165c0.529 0.142 0.93 0.745 1.143 1.561s0.21 1.787 0.069 2.352c-0.072 0.289 0.16 0.565 0.457 0.543 0.615-0.046 1.102 0.125 1.43 0.453 0.394 0.394 0.543 0.991 0.42 1.7s-0.527 1.501-1.194 2.168c-0.277 0.277-0.605 0.549-0.954 0.808h-3.489l0.221-0.825 3.456-1.656c0.218-0.105 0.31-0.366 0.205-0.584s-0.366-0.31-0.584-0.205l-2.78 1.332 1.339-4.998c0.063-0.233-0.076-0.473-0.309-0.536-0.285-0.055-0.458 0.085-0.536 0.309l-1.339 4.998-1.741-2.544c-0.185-0.245-0.436-0.222-0.608-0.114-0.199 0.136-0.25 0.408-0.114 0.608l2.165 3.162-0.282 1.052h-1.893c-0.633-0.961-1.218-2.064-1.489-3.148-0.244-0.911-0.198-1.8 0.050-2.475s0.675-1.117 1.213-1.261c0.448-0.12 0.955-0.025 1.465 0.323 0.231 0.158 0.548 0.062 0.653-0.197 0.309-0.765 0.798-1.598 1.353-2.158 0.56-0.595 1.163-0.831 1.669-0.669zM7.438 13.125c1.547 0 2.817 1.138 3.028 2.625h-0.885c-0.204-0.995-1.090-1.75-2.143-1.75s-1.939 0.755-2.143 1.75h-0.885c0.212-1.487 1.481-2.625 3.028-2.625zM7.438 14.875c0.575 0 1.054 0.364 1.233 0.875h-2.466c0.179-0.511 0.658-0.875 1.233-0.875zM3.063 16.625h21.875c0.247 0 0.438 0.191 0.438 0.438 0 3.63-2.933 6.563-6.563 6.563h-9.625c-3.63 0-6.563-2.933-6.563-6.563 0-0.247 0.191-0.438 0.438-0.438z"></path>
<path d="M10.5 7c-0.72 0-1.313 0.593-1.313 1.313v2.625c0 0.72 0.593 1.313 1.313 1.313s1.313-0.593 1.313-1.313v-2.625c0-0.72-0.593-1.313-1.313-1.313zM10.5 7.875c0.25 0 0.438 0.188 0.438 0.438v2.625c0 0.25-0.188 0.438-0.438 0.438s-0.438-0.188-0.438-0.438v-2.625c0-0.25 0.188-0.438 0.438-0.438z"></path>
<path d="M4.155 5.309c-0.209 0.121-0.28 0.388-0.16 0.597l0.241 0.417c-0.76 0.674-0.971 1.819-0.444 2.731 0.301 0.521 0.836 1.013 1.446 1.357s1.345 0.568 1.98 0.202c0.635-0.367 0.808-1.116 0.815-1.816s-0.151-1.409-0.452-1.93c-0.636-1.026-1.712-1.261-2.587-0.981l-0.241-0.417c-0.16-0.25-0.422-0.259-0.597-0.16zM6.822 7.304c0.182 0.316 0.341 0.94 0.335 1.484s-0.176 0.95-0.378 1.066c-0.202 0.117-0.639 0.061-1.113-0.206s-0.934-0.716-1.117-1.032c-0.365-0.632-0.152-1.428 0.48-1.793 0.689-0.393 1.481-0.095 1.793 0.48z"></path>
<path d="M13.563 3.5c-0.961 0-1.75 0.789-1.75 1.75 0 0.481 0.174 0.975 0.461 1.394s0.721 0.794 1.289 0.794 1.003-0.375 1.289-0.794c0.287-0.419 0.461-0.913 0.461-1.394 0-0.961-0.789-1.75-1.75-1.75zM13.563 4.375c0.488 0 0.875 0.387 0.875 0.875 0 0.244-0.119 0.625-0.308 0.9s-0.411 0.413-0.567 0.413-0.379-0.138-0.567-0.413c-0.188-0.275-0.308-0.656-0.308-0.9 0-0.488 0.387-0.875 0.875-0.875z"></path>
</svg>
