<!-- Generated by IcoMoon.io -->
<svg version="1.1" xmlns="http://www.w3.org/2000/svg" width="28" height="28" viewBox="0 0 28 28">
<title>salt</title>
<path d="M10.185 14.256c0.195 0 0.354-0.158 0.354-0.352s-0.158-0.352-0.354-0.352c-0.195 0-0.354 0.158-0.354 0.352s0.158 0.352 0.354 0.352z"></path>
<path d="M11.323 13.781c0.195 0 0.354-0.158 0.354-0.352s-0.158-0.352-0.354-0.352c-0.195 0-0.354 0.158-0.354 0.352s0.158 0.352 0.354 0.352z"></path>
<path d="M11.204 14.889c0.195 0 0.354-0.158 0.354-0.352s-0.158-0.352-0.354-0.352-0.354 0.158-0.354 0.352c0 0.195 0.158 0.352 0.354 0.352z"></path>
<path d="M21.123 14.256c0.195 0 0.354-0.158 0.354-0.352s-0.158-0.352-0.354-0.352c-0.195 0-0.354 0.158-0.354 0.352s0.158 0.352 0.354 0.352z"></path>
<path d="M22.262 13.781c0.195 0 0.354-0.158 0.354-0.352s-0.158-0.352-0.354-0.352c-0.195 0-0.354 0.158-0.354 0.352s0.158 0.352 0.354 0.352z"></path>
<path d="M22.143 14.889c0.195 0 0.354-0.158 0.354-0.352s-0.158-0.352-0.354-0.352c-0.195 0-0.354 0.158-0.354 0.352s0.158 0.352 0.354 0.352z"></path>
<path d="M24.374 15.67h-0.402v-4.064c0-0.933-0.639-1.72-1.505-1.95v-1.391c0-1.175-0.96-2.132-2.141-2.132h-1.716c-1.18 0-2.141 0.956-2.141 2.132v1.391c-0.865 0.23-1.505 1.017-1.505 1.95v4.064h-0.633v-10.172c0.598-0.149 1.042-0.688 1.042-1.329 0-0.755-0.617-1.37-1.375-1.37s-1.375 0.614-1.375 1.37c0 0.646 0.452 1.189 1.058 1.332v10.168h-0.649v-4.064c0-0.933-0.639-1.72-1.505-1.95v-1.391c0-1.175-0.96-2.132-2.141-2.132h-1.716c-1.18 0-2.141 0.956-2.141 2.132v1.391c-0.865 0.23-1.505 1.017-1.505 1.95v4.064h-0.402c-0.455 0-0.826 0.369-0.826 0.822v7.886c0 0.453 0.37 0.822 0.826 0.822h20.749c0.455 0 0.826-0.369 0.826-0.822v-7.886c0-0.453-0.37-0.822-0.826-0.822zM17.121 8.265c0-0.818 0.669-1.484 1.49-1.484h1.716c0.822 0 1.49 0.666 1.49 1.484v0.171h-4.696v-0.171zM17.121 9.084h4.696v0.504h-4.696v-0.504zM16.993 10.235h4.953c0.647 0 1.191 0.447 1.337 1.047h-7.627c0.147-0.6 0.69-1.047 1.337-1.047zM15.616 11.929h7.706v3.74h-7.706v-3.74zM13.275 4.17c0-0.398 0.325-0.722 0.725-0.722s0.725 0.324 0.725 0.722c0 0.398-0.325 0.722-0.725 0.722s-0.725-0.324-0.725-0.722zM6.183 8.265c0-0.818 0.669-1.484 1.49-1.484h1.716c0.822 0 1.49 0.666 1.49 1.484v0.171h-4.696v-0.171zM6.183 9.084h4.696v0.504h-4.696v-0.504zM6.054 10.235h4.953c0.647 0 1.191 0.447 1.337 1.047h-7.627c0.147-0.6 0.69-1.047 1.337-1.047zM4.678 11.929h7.706v3.74h-7.706v-3.74zM24.55 24.378c0 0.096-0.079 0.175-0.175 0.175h-20.749c-0.097 0-0.175-0.078-0.175-0.175v-3.619h21.099v3.619zM24.55 20.111h-21.099v-3.619c0-0.096 0.079-0.175 0.175-0.175h20.749c0.097 0 0.175 0.078 0.175 0.175v3.619z"></path>
</svg>
