<!-- Generated by IcoMoon.io -->
<svg version="1.1" xmlns="http://www.w3.org/2000/svg" width="32" height="32" viewBox="0 0 32 32">
<title>saver</title>
<path d="M21.956 5.156c0-0.089 0.089-0.178 0.178-0.267 0.356-0.356 0.444-0.8 0.356-1.244l-0.267-2.222c-0.089-0.8-0.8-1.422-1.6-1.422h-9.244c-0.8 0-1.511 0.622-1.6 1.422l-0.267 2.222c-0.089 0.444 0.089 0.889 0.356 1.244 0.089 0.089 0.178 0.178 0.267 0.178h-0.089c-0.444 0.533-0.711 1.067-0.711 1.689v1.511c0 1.156 0.267 2.222 0.711 3.289l0.444 0.978c0.356 0.889 0.622 1.867 0.622 2.844v11.644c0 2.756 2.222 4.978 4.978 4.978s4.978-2.222 4.978-4.978v-11.644c0-0.978 0.178-1.956 0.622-2.844l0.444-0.978c0.444-1.067 0.711-2.133 0.711-3.289v-1.511c-0.178-0.622-0.444-1.156-0.889-1.6zM19.733 1.067l-0.178 0.622h-7.022l-0.267-0.622zM10.844 1.511c0-0.178 0.178-0.356 0.356-0.444l0.267 0.889c0.178 0.444 0.533 0.711 1.067 0.711h7.022c0.444 0 0.889-0.267 1.067-0.711l0.267-0.889c0.178 0.089 0.356 0.267 0.356 0.444l0.267 2.222c0 0.178 0 0.356-0.178 0.444-0.089 0.178-0.267 0.267-0.444 0.267h-9.778c-0.178 0-0.356-0.089-0.444-0.178-0.089-0.178-0.178-0.356-0.089-0.533zM19.911 27.022c0 2.133-1.778 3.911-3.911 3.911s-3.911-1.778-3.911-3.911v-7.733h7.911v7.733zM21.6 8.356c0 0.978-0.178 1.956-0.622 2.844l-0.444 0.978c-0.444 1.067-0.711 2.133-0.711 3.289v2.844h-7.733v-2.844c0-1.156-0.267-2.222-0.711-3.289l-0.444-0.978c-0.356-0.889-0.622-1.867-0.622-2.844v-1.6c0-0.356 0.178-0.622 0.356-0.889l0.533-0.444h9.333l0.533 0.444c0.267 0.178 0.356 0.533 0.356 0.889v1.6zM16 7.2c-0.889 0-1.6 0.711-1.6 1.6v2.756c0 0.889 0.711 1.6 1.6 1.6s1.6-0.711 1.6-1.6v-2.756c0-0.889-0.711-1.6-1.6-1.6zM16.622 11.556c0 0.356-0.267 0.622-0.622 0.622s-0.622-0.267-0.622-0.622v-1.244c0.178 0.089 0.356 0.089 0.622 0.089 0.178 0 0.444 0 0.622-0.089zM16 9.422c-0.356 0-0.622-0.267-0.622-0.622s0.267-0.622 0.622-0.622 0.622 0.267 0.622 0.622-0.267 0.622-0.622 0.622zM16 14.489c-0.533 0-0.978 0.444-0.978 0.978s0.444 0.978 0.978 0.978 0.978-0.444 0.978-0.978-0.444-0.978-0.978-0.978z"></path>
</svg>
