<!-- Generated by IcoMoon.io -->
<svg version="1.1" xmlns="http://www.w3.org/2000/svg" width="32" height="32" viewBox="0 0 32 32">
<title>shipping-2</title>
<path d="M30.933 14.756l-2.222-0.978-1.867-3.556c-0.533-0.978-1.511-1.6-2.578-1.6h-3.2v-0.889c0-1.6-1.333-2.933-2.933-2.933h-15.2c-1.689 0.089-2.933 1.422-2.933 3.022v13.689c0 0.978 0.8 1.778 1.778 1.778h0.356v0.178c0 2.044 1.6 3.644 3.644 3.644s3.733-1.6 3.733-3.644c0-0.089 0-0.089 0-0.178h12.267v0.178c0 2.044 1.6 3.644 3.644 3.644s3.733-1.6 3.733-3.644c0-0.089 0-0.089 0-0.178h0.889c0.978 0 1.778-0.8 1.778-1.778v-5.067c0.178-0.711-0.267-1.333-0.889-1.689zM24.267 10.133c0.533 0 1.067 0.267 1.333 0.8l1.422 2.756h-5.956v-3.556zM2.933 6.311h15.2c0.8 0 1.511 0.711 1.511 1.511v8.622h-18.222v-8.622c0-0.8 0.622-1.511 1.511-1.511zM5.867 25.689c-1.244 0-2.311-0.978-2.311-2.222s0.978-2.222 2.311-2.222c1.244 0 2.311 0.978 2.311 2.222s-1.067 2.222-2.311 2.222zM5.867 19.733c-1.422 0-2.756 0.8-3.378 2.133h-0.711c-0.178 0-0.356-0.178-0.356-0.356v-3.644h18.222v4h-10.4c-0.622-1.244-1.956-2.133-3.378-2.133zM25.6 25.689c-1.244 0-2.311-0.978-2.311-2.222s0.978-2.222 2.311-2.222c1.244 0 2.311 0.978 2.311 2.222-0.089 1.244-1.067 2.222-2.311 2.222zM30.578 21.511c0 0.178-0.178 0.356-0.356 0.356h-1.244c-0.889-1.867-3.022-2.667-4.889-1.778-0.8 0.356-1.422 0.978-1.778 1.778h-1.156v-6.756h7.022l2.311 0.978c0.178 0.089 0.267 0.267 0.267 0.356v5.067z"></path>
</svg>
