<!-- Generated by IcoMoon.io -->
<svg version="1.1" xmlns="http://www.w3.org/2000/svg" width="32" height="32" viewBox="0 0 32 32">
<title>shoes</title>
<path d="M31.886 15.657c-0.114-1.143-0.229-2.171-0.343-2.857-0.229-0.8-0.457-1.714-1.371-1.943-0.343-0.114-0.8-0.114-1.143-0.114-0.686 0-1.257 0.114-1.257 0.229-0.114 0-0.229 0.114-0.343 0.229 0 0-0.914 1.143-2.286 1.143-1.257 0-2.286-0.686-2.629-1.029-0.114-1.029-0.8-2.514-2.514-2.743h-0.114c-0.571 0-1.829 0.686-5.143 2.514-1.371 0.8-2.857 1.6-4 2.171-1.829 1.029-2.286 1.143-2.514 1.143-1.714 0.114-6.057 1.029-6.514 1.143-0.8 0.343-1.714 1.029-1.714 2.171 0 1.029 0.343 1.829 0.343 1.829 0 0.114 0.114 0.229 0.229 0.229 0 0 0.571 0.457 1.486 0.914-0.114 0.114-0.114 0.229-0.114 0.457 0 0.343 0.343 0.686 0.686 0.686h1.257c0.114 0 0.229 0 0.343-0.114 0.457 0.229 1.029 0.457 1.486 0.571v0.229c0 0.343 0.343 0.686 0.686 0.686h1.257c0.343 0 0.571-0.229 0.686-0.571h1.257v0.114c0 0.343 0.343 0.686 0.686 0.686h1.257c0.343 0 0.686-0.343 0.686-0.686 2.286 0 4.914 0.114 7.314 0.114h4.114c0 0.343 0.343 0.571 0.686 0.571h1.257c0.343 0 0.686-0.343 0.686-0.686 0.457 0 0.914 0 1.257-0.114 0.114 0.343 0.343 0.457 0.686 0.457h1.257c0.343 0 0.686-0.343 0.686-0.686 0-0.114 0-0.229-0.114-0.343 1.6-0.8 1.943-2.4 1.943-2.4v-0.114s0-1.943-0.114-3.886zM15.429 12.343c1.714-0.914 4-2.286 4.457-2.4 0.8 0.114 1.143 0.8 1.257 1.257-1.143 0.457-4 1.486-7.429 2.057 0.571-0.343 1.143-0.686 1.714-0.914zM16 14.171l2.171 5.486c-0.343 0-0.686 0-1.143 0l-2.057-5.257c0.343-0.114 0.686-0.114 1.029-0.229zM13.6 14.629l2.057 5.029c-0.114 0-0.229 0-0.229 0h-0.343c-0.114 0-0.343 0-0.457 0l-2.057-4.914c0.343 0 0.686-0.114 1.029-0.114zM2.057 16.8c0.343-0.114 4.571-0.914 6.286-1.143 0.457 0 1.257-0.343 2.286-0.914h0.457l1.943 4.8c-2.286 0-4.457 0-5.6-0.229-2.286-0.343-4.914-1.6-6.057-2.171 0.229-0.114 0.571-0.229 0.686-0.343zM28.686 21.143c-1.029 0.114-4.343 0.229-9.143 0.229-5.486 0-11.429-0.114-12.343-0.229-2.629-0.343-5.029-1.829-5.714-2.286 1.371 0.686 3.657 1.714 5.829 1.943 1.486 0.229 4.8 0.229 7.657 0.229h14.286c-0.114 0-0.343 0.114-0.571 0.114zM30.629 19.543v0.114c-1.257 0-5.257 0-10.971 0l-2.286-5.829c2.171-0.571 3.771-1.143 4.457-1.486 0.571 0.457 1.714 1.257 3.314 1.257h0.114c1.6 0 2.743-1.029 3.086-1.486 0.114 0 0.457-0.114 0.686-0.114s0.571 0 0.8 0.114c0.114 0 0.571 0.571 0.8 3.771 0.114 1.714 0 3.314 0 3.657z"></path>
</svg>
