<!-- Generated by IcoMoon.io -->
<svg version="1.1" xmlns="http://www.w3.org/2000/svg" width="32" height="32" viewBox="0 0 32 32">
<title>skin-cell-1</title>
<path d="M23.611 23.095c0.207 0 0.375-0.168 0.375-0.375v-1.604h1.604c0.207 0 0.375-0.168 0.375-0.375s-0.168-0.375-0.375-0.375h-1.604v-1.604c0-0.207-0.168-0.375-0.375-0.375s-0.375 0.168-0.375 0.375v1.604h-1.604c-0.207 0-0.375 0.168-0.375 0.375s0.168 0.375 0.375 0.375h1.604v1.604c0 0.207 0.168 0.375 0.375 0.375z"></path>
<path d="M29.864 25.996c-0.769-0.371-1.431-0.927-1.682-1.743l-0.329-1.069c-0.048-0.157-0.194-0.265-0.358-0.265s-0.31 0.107-0.358 0.265l-0.328 1.069c-0.251 0.816-0.913 1.372-1.681 1.743-0.13 0.063-0.212 0.194-0.212 0.338 0 0.133 0.070 0.255 0.183 0.322 0.179 0.106 0.353 0.22 0.519 0.342-0.608 0.447-1.278 0.831-2.006 1.137-6.714-2.817-6.127-10.445-5.915-12.102 1.265-0.022 2.458-0.176 3.555-0.456 0.204-0.052 0.321-0.267 0.263-0.469l-0-0.001c-0.056-0.195-0.255-0.305-0.451-0.255-0.368 0.094-0.751 0.167-1.142 0.231-0.008-0.035-0.016-0.070-0.034-0.103l-1.432-2.48 1.804-3.125h3.612l1.804 3.125-1.057 1.831c-0.518-0.223-0.786-0.399-0.793-0.404-0.127-0.087-0.295-0.088-0.422-0.002-0.004 0.002-0.33 0.219-0.962 0.477-0.186 0.076-0.28 0.286-0.212 0.474l0 0.001c0.073 0.201 0.301 0.298 0.499 0.218 0.408-0.166 0.703-0.319 0.883-0.421 0.618 0.354 2.576 1.3 5.913 1.358 0.117 0.979 0.356 4.127-0.886 7.080-0.079 0.187-0.001 0.403 0.184 0.488 0.191 0.088 0.423 0.002 0.506-0.192 1.575-3.732 0.923-7.642 0.894-7.812-0.031-0.18-0.187-0.311-0.37-0.311-2.009 0-3.518-0.342-4.524-0.683l1.106-1.915c0.067-0.116 0.067-0.259 0-0.375l-2.021-3.5c-0.067-0.116-0.191-0.187-0.325-0.187h-3.828l-1.913-3.313c-0.067-0.116-0.191-0.188-0.325-0.188h-4.041c-0.134 0-0.258 0.071-0.325 0.187l-1.912 3.313h-3.828c-0.134 0-0.258 0.071-0.325 0.187l-2.021 3.5c-0.067 0.116-0.067 0.259 0 0.375l1.912 3.312-1.912 3.312c-0.067 0.116-0.067 0.259 0 0.375l2.021 3.5c0.067 0.116 0.191 0.187 0.325 0.187h3.828l1.912 3.313c0.067 0.116 0.191 0.187 0.325 0.187h1.386c0.207 0 0.375-0.168 0.375-0.375s-0.168-0.375-0.375-0.375h-1.169l-1.804-3.125 1.804-3.125h2.796c0.195 1.535 0.648 3.281 1.601 4.883l-0.789 1.367h-0.939c-0.207 0-0.375 0.168-0.375 0.375s0.168 0.375 0.375 0.375h1.155c0.134 0 0.258-0.071 0.325-0.187l0.706-1.222c0.987 1.383 2.402 2.609 4.42 3.423 0.045 0.018 0.092 0.027 0.14 0.027s0.095-0.009 0.14-0.027c0.895-0.361 1.712-0.832 2.444-1.389 0.302 0.318 0.542 0.685 0.675 1.12l0.266 0.867c0.048 0.157 0.194 0.265 0.358 0.265s0.31-0.107 0.358-0.265l0.266-0.866c0.272-0.884 0.977-1.492 1.773-1.962 0.113-0.067 0.183-0.189 0.183-0.322 0-0.144-0.083-0.276-0.212-0.338zM8.131 9.375h3.611l0.514 0.891c0.104 0.179 0.333 0.241 0.512 0.137s0.241-0.333 0.137-0.512l-0.514-0.891 1.804-3.125h3.608l1.804 3.125-1.804 3.125h-3.608l-0.54-0.936c-0.104-0.179-0.333-0.241-0.512-0.137s-0.241 0.333-0.137 0.512l0.54 0.936-1.804 3.125h-3.611l-1.804-3.125 1.804-3.125zM11.742 22.625h-3.611l-1.804-3.125 1.804-3.125h3.611l1.804 3.125-1.804 3.125zM17.003 15.597c-0.007 0.038-0.249 1.526-0.088 3.528h-2.719l-1.804-3.125 1.804-3.125h3.608l1.337 2.315c-0.571 0.062-1.16 0.096-1.769 0.096-0.182 0-0.338 0.131-0.37 0.311zM27.495 28.16c-0.304-0.736-0.814-1.371-1.465-1.825 0.65-0.454 1.161-1.088 1.465-1.825 0.304 0.736 0.815 1.371 1.465 1.825-0.65 0.455-1.161 1.089-1.465 1.825z"></path>
<path d="M4.863 9.063l0.26-0.846c0.32-1.041 1.067-1.908 2.048-2.379 0.13-0.062 0.213-0.194 0.213-0.338s-0.083-0.276-0.213-0.338c-0.981-0.471-1.728-1.338-2.048-2.379l-0.26-0.846c-0.048-0.157-0.194-0.265-0.358-0.265s-0.31 0.107-0.358 0.265l-0.26 0.846c-0.321 1.041-1.067 1.908-2.048 2.379-0.13 0.062-0.213 0.194-0.213 0.338s0.083 0.276 0.213 0.338c0.981 0.471 1.728 1.338 2.048 2.379l0.26 0.846c0.048 0.157 0.194 0.265 0.358 0.265s0.31-0.107 0.358-0.265zM2.752 5.5c0.794-0.537 1.41-1.31 1.753-2.21 0.343 0.9 0.959 1.674 1.753 2.21-0.794 0.537-1.41 1.31-1.753 2.21-0.343-0.9-0.959-1.674-1.753-2.21z"></path>
<path d="M7.010 25.796c-1.263 0-2.29 1.027-2.29 2.29s1.027 2.29 2.29 2.29c1.263 0 2.29-1.027 2.29-2.29s-1.027-2.29-2.29-2.29zM7.010 29.625c-0.849 0-1.54-0.691-1.54-1.54s0.691-1.54 1.54-1.54c0.849 0 1.54 0.69 1.54 1.54s-0.691 1.54-1.54 1.54z"></path>
<path d="M28.648 6.975c0.952 0 1.727-0.775 1.727-1.727s-0.775-1.728-1.727-1.728c-0.953 0-1.728 0.775-1.728 1.728s0.775 1.727 1.728 1.727zM28.648 4.271c0.539 0 0.977 0.438 0.977 0.978s-0.439 0.977-0.977 0.977c-0.539 0-0.978-0.439-0.978-0.977s0.439-0.978 0.978-0.978z"></path>
</svg>
