<!-- Generated by IcoMoon.io -->
<svg version="1.1" xmlns="http://www.w3.org/2000/svg" width="32" height="32" viewBox="0 0 32 32">
<title>sleep</title>
<path d="M31.564 18.909c-0.436-0.291-0.873-0.291-1.309-0.145-2.036 1.164-4.073 1.745-6.255 1.745-6.982 0-12.509-5.673-12.509-12.509 0-2.182 0.582-4.218 1.745-6.255 0.145-0.436 0.145-0.873-0.145-1.309-0.291-0.291-0.873-0.582-1.309-0.436-3.345 1.018-6.255 3.055-8.436 5.818s-3.345 6.255-3.345 9.891c0 9.018 7.273 16.291 16.291 16.291 3.636 0 6.982-1.164 9.891-3.345 2.764-2.182 4.8-5.091 5.818-8.436 0.145-0.436-0.145-1.018-0.436-1.309zM16.291 29.673c-7.709 0-13.964-6.255-13.964-13.964 0-5.236 2.909-9.891 7.418-12.364-0.582 1.455-0.727 3.055-0.727 4.655 0 8.291 6.691 14.982 14.836 14.982 1.6 0 3.2-0.291 4.655-0.727-2.327 4.364-6.982 7.418-12.218 7.418z"></path>
</svg>
