<!-- Generated by IcoMoon.io -->
<svg version="1.1" xmlns="http://www.w3.org/2000/svg" width="32" height="32" viewBox="0 0 32 32">
<title>sleep</title>
<path d="M30.616 17.403c-1.262 0.002-1.204-0.004-1.306 0.004-0.584-1.294-1.885-2.197-3.393-2.197h-5.428c0.302-0.891-0.363-1.82-1.306-1.82h-3.999c-0.041-0.401-0.381-0.714-0.792-0.714h-2.289c-1.181 0-2.182 0.781-2.516 1.853-0.512-0.517-1.222-0.838-2.006-0.838-2.11 0-3.475 2.242-2.513 4.113-1.247 0.020-1.409-0.049-1.769 0.074v-1.616c1.203-0.724 0.683-2.571-0.712-2.571h-1.204c-0.763 0-1.384 0.621-1.384 1.384 0 0.503 0.27 0.944 0.673 1.187v9.083c0 0.259 0.21 0.469 0.469 0.469s0.469-0.21 0.469-0.469v-8.885h0.752c0 1.919 0 12.751 0 14.227 0 0.207-0.169 0.376-0.376 0.376s-0.376-0.169-0.376-0.376v-3.155c0-0.259-0.21-0.469-0.469-0.469s-0.469 0.21-0.469 0.469v3.155c0 0.724 0.589 1.313 1.313 1.313s1.313-0.589 1.313-1.313v-1.66l2.119-2.119h7.546v0.115c0 0.566 0.46 1.026 1.026 1.026h9.612c0.259 0 0.469-0.21 0.469-0.469s-0.21-0.469-0.469-0.469c-10.054-0.041-9.7 0.086-9.7-0.088 0-1.026 0-9.742 0-10.762 0-0.163 0.221-0.1 0.294-0.112 0.406 0 11.314 0 11.721 0 1.535 0 2.784 1.249 2.784 2.784v8.179h-2.91c-0.259 0-0.469 0.21-0.469 0.469s0.21 0.469 0.469 0.469h2.91v2.639c0 0.724 0.589 1.313 1.313 1.313s1.313-0.589 1.313-1.313v-10.713c0.403-0.242 0.673-0.683 0.673-1.187 0-0.763-0.621-1.384-1.384-1.384zM2.588 15.521h-1.204c-0.246 0-0.447-0.2-0.447-0.447s0.2-0.447 0.447-0.447h1.204c0.246 0 0.447 0.2 0.447 0.447s-0.2 0.447-0.447 0.447zM7.58 14.629c1.041 0 1.887 0.847 1.887 1.887 0 0.6-0.282 1.136-0.72 1.481-1.238 0.978-3.054 0.083-3.054-1.481 0-1.041 0.847-1.887 1.887-1.887zM3.746 18.741h2.096c0.933 0.729 2.225 0.799 3.233 0.171 0.233 0.294 0.021 0.722-0.349 0.722h-4.98c-0.246 0-0.446-0.2-0.446-0.447s0.2-0.447 0.446-0.447zM3.299 27.7v-0.793h0.794l-0.794 0.793zM12.965 25.969c-1.093 0-8.704 0-9.666 0v-3.577h9.666v3.577zM12.965 21.454h-9.666v-0.883c1.386 0 8.271 0 9.666 0v0.883zM14.25 15.21c-0.369 0-1.344 0-1.569 0-0.259 0-0.469 0.21-0.469 0.469s0.21 0.469 0.469 0.469h0.284c0 0.231 0 1.478 0 1.981h-0.284c-0.259 0-0.469 0.21-0.469 0.469s0.21 0.469 0.469 0.469h0.284v0.568h-2.56v-4.324c0-0.936 0.761-1.697 1.697-1.697h2.148c0 0.564 0 0.992 0 1.597zM19.182 15.21l-3.995-0v-0.883h3.995c0.243 0 0.441 0.198 0.441 0.441s-0.198 0.441-0.441 0.441zM30.014 31.062c-0.207 0-0.376-0.169-0.376-0.376 0-1.073 0-9.533 0-10.515h0.752v10.515c0 0.207-0.168 0.376-0.376 0.376zM30.616 19.233h-0.978v-0.893h0.978c0.246 0 0.447 0.2 0.447 0.447 0 0.254-0.209 0.447-0.447 0.447z"></path>
<path d="M29.498 1.688c-2.6 0-8.068 0-9.603 0-0.449 0-0.814 0.365-0.814 0.814v8.040c0 0.449 0.365 0.814 0.814 0.814 2.6 0 8.068 0 9.603 0 0.449 0 0.814-0.365 0.814-0.814v-8.040c0-0.449-0.365-0.814-0.814-0.814zM24.228 10.419h-4.21v-7.794h4.21v7.794zM29.375 10.419h-4.21v-7.794h4.21v7.794z"></path>
<path d="M16.972 17.171c-0.183-0.183-0.48-0.183-0.663-0l-1.223 1.223c-0.183 0.183-0.183 0.48-0 0.663 0.092 0.092 0.211 0.137 0.332 0.137s0.24-0.046 0.331-0.137l1.223-1.223c0.183-0.183 0.183-0.48 0-0.663z"></path>
<path d="M17.786 18.777c-0.183-0.183-0.48-0.183-0.663 0l-0.434 0.434c-0.183 0.183-0.183 0.48 0 0.663 0.091 0.091 0.211 0.137 0.331 0.137s0.24-0.046 0.331-0.137l0.434-0.434c0.183-0.183 0.183-0.48-0-0.663z"></path>
<path d="M31.531 3.877c0.259 0 0.469-0.21 0.469-0.469v-1.422c0-1.095-0.891-1.986-1.986-1.986h-10.635c-1.095 0-1.986 0.891-1.986 1.986v9.072c0 1.095 0.891 1.986 1.986 1.986h10.635c1.095 0 1.986-0.891 1.986-1.986v-5.463c0-0.259-0.21-0.469-0.469-0.469s-0.469 0.21-0.469 0.469v5.463c0 0.578-0.47 1.049-1.049 1.049h-10.635c-0.578 0-1.049-0.47-1.049-1.049v-9.072c0-0.578 0.47-1.049 1.049-1.049h10.635c0.578 0 1.049 0.47 1.049 1.049v1.422c0 0.259 0.21 0.469 0.469 0.469z"></path>
</svg>
