<!-- Generated by IcoMoon.io -->
<svg version="1.1" xmlns="http://www.w3.org/2000/svg" width="32" height="32" viewBox="0 0 32 32">
<title>sleeping-1</title>
<path d="M30.5 19.536v-1.592c0-0.398-0.158-0.779-0.439-1.061s-0.663-0.439-1.061-0.439h-0.592c-0.103-0.291-0.294-0.544-0.546-0.723s-0.553-0.276-0.862-0.277h-12.5c-0.309 0.001-0.61 0.098-0.862 0.277s-0.443 0.431-0.546 0.723h-2.092v-0.025c0-1.717-0.682-3.364-1.896-4.579s-2.861-1.896-4.579-1.896h-0.025v-3.5c0-0.53-0.211-1.039-0.586-1.414s-0.884-0.586-1.414-0.586c-0.53 0-1.039 0.211-1.414 0.586s-0.586 0.884-0.586 1.414v16.5c0.001 0.309 0.098 0.61 0.277 0.862s0.431 0.443 0.723 0.546v2.592c0 0.133 0.053 0.26 0.146 0.354s0.221 0.146 0.354 0.146h5c0.133 0 0.26-0.053 0.354-0.146s0.146-0.221 0.146-0.354v-2.5h17v2.5c0 0.133 0.053 0.26 0.146 0.354s0.221 0.146 0.354 0.146h5c0.133 0 0.26-0.053 0.354-0.146s0.146-0.221 0.146-0.354v-2.592c0.291-0.103 0.544-0.294 0.723-0.546s0.276-0.553 0.277-0.862v-2c-0.001-0.309-0.098-0.61-0.277-0.862s-0.431-0.443-0.723-0.546zM29.5 17.944v1.5h-1v-2h0.5c0.133 0 0.26 0.053 0.354 0.146s0.146 0.221 0.146 0.354zM14 16.944c0-0.133 0.053-0.26 0.146-0.354s0.221-0.146 0.354-0.146h12.5c0.133 0 0.26 0.053 0.354 0.146s0.146 0.221 0.146 0.354v3.5h-13.5v-3.5zM13 19.444h-8.5v-2h8.5v2zM4.5 14.419c0.511 0.821 1.204 1.513 2.024 2.025h-2.024v-2.025zM4.525 10.944c0.719-0 1.431 0.142 2.095 0.417s1.268 0.678 1.776 1.187c0.508 0.508 0.912 1.112 1.187 1.776s0.417 1.376 0.417 2.095l-0.025 0.025c-0.719 0-1.431-0.142-2.095-0.417s-1.268-0.678-1.776-1.187c-0.508-0.508-0.912-1.112-1.187-1.776s-0.417-1.376-0.417-2.095v-0.025h0.025zM2.5 5.444c0.265 0 0.52 0.105 0.707 0.293s0.293 0.442 0.293 0.707v13h-2v-13c0-0.265 0.105-0.52 0.293-0.707s0.442-0.293 0.707-0.293zM6.5 26.444h-4v-2h4v2zM25.5 26.444v-2h4v2h-4zM30.5 22.944c0 0.133-0.053 0.26-0.146 0.354s-0.221 0.146-0.354 0.146h-28c-0.133 0-0.26-0.053-0.354-0.146s-0.146-0.221-0.146-0.354v-2.5h11.5v0.5c0 0.133 0.053 0.26 0.146 0.354s0.221 0.146 0.354 0.146h14.5c0.133 0 0.26-0.053 0.354-0.146s0.146-0.221 0.146-0.354v-0.5h1.5c0.133 0 0.26 0.053 0.354 0.146s0.146 0.221 0.146 0.354v2z"></path>
</svg>
