<!-- Generated by IcoMoon.io -->
<svg version="1.1" xmlns="http://www.w3.org/2000/svg" width="32" height="32" viewBox="0 0 32 32">
<title>sos-2</title>
<path d="M25.896 0h-19.793c-3.378 0-6.104 2.726-6.104 6.104v19.793c0 3.378 2.726 6.104 6.104 6.104h19.793c3.378 0 6.104-2.726 6.104-6.104v-19.793c0-3.378-2.726-6.104-6.104-6.104zM31.052 25.896c0 2.844-2.311 5.156-5.156 5.156h-19.793c-2.844 0-5.156-2.311-5.156-5.156v-19.793c0-2.844 2.311-5.156 5.156-5.156h19.793c2.844 0 5.156 2.311 5.156 5.156zM7.526 11.378c0.533 0 0.948 0.415 0.948 0.948 0 0.77 0.652 1.422 1.422 1.422s1.422-0.652 1.422-1.422c0-2.074-1.719-3.793-3.793-3.793s-3.793 1.719-3.793 3.793v1.304c0 2.074 1.719 3.793 3.793 3.793 0.533 0 0.948 0.415 0.948 0.948v1.244c0 0.533-0.415 0.948-0.948 0.948s-0.948-0.415-0.948-0.948c0-0.77-0.652-1.422-1.422-1.422s-1.422 0.652-1.422 1.422c0 2.074 1.719 3.793 3.793 3.793s3.793-1.719 3.793-3.793v-1.244c0-2.074-1.719-3.793-3.793-3.793-0.533 0-0.948-0.415-0.948-0.948v-1.244c-0.059-0.533 0.415-1.007 0.948-1.007zM7.526 15.526c1.541 0 2.844 1.304 2.844 2.844v1.244c0 1.541-1.304 2.844-2.844 2.844s-2.844-1.304-2.844-2.844c0-0.237 0.237-0.474 0.474-0.474s0.474 0.237 0.474 0.474c0 1.067 0.83 1.896 1.896 1.896s1.896-0.83 1.896-1.896v-1.244c0-1.067-0.83-1.896-1.896-1.896-1.541 0-2.844-1.304-2.844-2.844v-1.244c0-1.541 1.304-2.844 2.844-2.844s2.844 1.304 2.844 2.844c0 0.237-0.237 0.474-0.474 0.474s-0.474-0.237-0.474-0.474c0-1.067-0.83-1.896-1.896-1.896s-1.896 0.83-1.896 1.896v1.244c-0.059 1.067 0.83 1.896 1.896 1.896zM24.474 11.378c0.533 0 0.948 0.415 0.948 0.948 0 0.77 0.652 1.422 1.422 1.422s1.422-0.652 1.422-1.422c0-2.074-1.719-3.793-3.793-3.793s-3.793 1.719-3.793 3.793v1.304c0 2.074 1.719 3.793 3.793 3.793 0.533 0 0.948 0.415 0.948 0.948v1.244c0 0.533-0.415 0.948-0.948 0.948s-0.948-0.415-0.948-0.948c0-0.77-0.652-1.422-1.422-1.422s-1.422 0.652-1.422 1.422c0 2.074 1.719 3.793 3.793 3.793s3.793-1.719 3.793-3.793v-1.244c0-2.074-1.719-3.793-3.793-3.793-0.533 0-0.948-0.415-0.948-0.948v-1.244c0-0.533 0.415-1.007 0.948-1.007zM24.474 15.526c1.541 0 2.844 1.304 2.844 2.844v1.244c0 1.541-1.304 2.844-2.844 2.844s-2.844-1.304-2.844-2.844c0-0.237 0.237-0.474 0.474-0.474s0.474 0.237 0.474 0.474c0 1.067 0.83 1.896 1.896 1.896s1.896-0.83 1.896-1.896v-1.244c0-1.067-0.83-1.896-1.896-1.896-1.541 0-2.844-1.304-2.844-2.844v-1.244c0-1.541 1.304-2.844 2.844-2.844s2.844 1.304 2.844 2.844c0 0.237-0.237 0.474-0.474 0.474s-0.474-0.237-0.474-0.474c0-1.067-0.83-1.896-1.896-1.896s-1.896 0.83-1.896 1.896v1.244c0 1.067 0.889 1.896 1.896 1.896zM16 8.593c-2.074 0-3.793 1.719-3.793 3.793v7.23c0 2.074 1.719 3.793 3.793 3.793s3.793-1.719 3.793-3.793v-7.23c0-2.074-1.719-3.793-3.793-3.793zM18.844 19.615c0 1.541-1.304 2.844-2.844 2.844s-2.844-1.304-2.844-2.844v-7.23c0-1.541 1.304-2.844 2.844-2.844s2.844 1.304 2.844 2.844zM16 10.489c-1.067 0-1.896 0.83-1.896 1.896v2.667c0 0.237 0.237 0.474 0.474 0.474s0.474-0.237 0.474-0.474v-2.667c0-0.533 0.415-0.948 0.948-0.948s0.948 0.415 0.948 0.948v7.23c0 0.533-0.415 0.948-0.948 0.948s-0.948-0.415-0.948-0.948v-2.667c0-0.237-0.237-0.474-0.474-0.474s-0.474 0.237-0.474 0.474v2.667c0 1.067 0.83 1.896 1.896 1.896s1.896-0.83 1.896-1.896v-7.23c0-1.067-0.83-1.896-1.896-1.896z"></path>
</svg>
