<!-- Generated by IcoMoon.io -->
<svg version="1.1" xmlns="http://www.w3.org/2000/svg" width="32" height="32" viewBox="0 0 32 32">
<title>speed-2</title>
<path d="M27.319 5.63c-3.022-3.081-7.052-4.741-11.319-4.741s-8.296 1.659-11.319 4.741c-3.022 3.022-4.681 7.052-4.681 11.378 0 4.622 1.956 9.007 5.393 12.089 0.178 0.178 0.474 0.178 0.652-0.059 0.178-0.178 0.178-0.474-0.059-0.652-3.259-2.904-5.096-6.993-5.096-11.378 0-4.030 1.541-7.881 4.385-10.726s6.637-4.444 10.667-4.444 7.822 1.6 10.667 4.444 4.385 6.696 4.385 10.726c0 4.326-1.837 8.474-5.096 11.378-0.178 0.178-0.237 0.474-0.059 0.652 0.119 0.119 0.237 0.178 0.356 0.178s0.237-0.059 0.296-0.119c3.556-3.081 5.511-7.467 5.511-12.089 0-4.326-1.659-8.356-4.681-11.378zM22.341 26.785h-10.667c-0.237 0-0.474 0.237-0.474 0.474s0.237 0.474 0.474 0.474h10.667c0.356 0 0.652 0.296 0.652 0.711v1.067c0 0.356-0.296 0.711-0.652 0.711h-12.681c-0.356 0-0.652-0.296-0.652-0.711v-1.067c0-0.356 0.296-0.711 0.652-0.711h0.474c0.237 0 0.474-0.237 0.474-0.474s-0.237-0.474-0.474-0.474h-0.474c-0.889 0-1.659 0.711-1.659 1.659v1.067c0 0.889 0.711 1.659 1.659 1.659h12.681c0.889 0 1.659-0.711 1.659-1.659v-1.067c0-0.948-0.77-1.659-1.659-1.659zM16 3.437c-5.393 0-10.252 3.259-12.385 8.237-0.119 0.237 0 0.474 0.237 0.593 0.059 0.059 0.178 0.059 0.237 0.059 0.178 0 0.296-0.059 0.415-0.237 2.074-3.081 5.452-4.919 9.185-4.919 2.667 0 5.274 1.007 7.289 2.785 0.178 0.178 0.474 0.178 0.652-0.059 0.178-0.178 0.178-0.474-0.059-0.652-2.193-1.956-4.978-3.022-7.941-3.022-2.43 0-4.741 0.711-6.637 2.015 2.311-2.43 5.57-3.911 9.067-3.911 2.726 0 5.333 0.889 7.467 2.489 0.237 0.178 0.533 0.119 0.652-0.119 0.119-0.059 0.119-0.415-0.119-0.533-2.311-1.778-5.096-2.726-8.059-2.726zM29.452 17.007c0-3.081-1.007-6.044-2.904-8.415-0.178-0.178-0.474-0.237-0.652-0.059s-0.237 0.474-0.059 0.652c1.659 2.133 2.607 4.681 2.726 7.348h-3.081c-0.178-1.363-0.652-2.667-1.244-3.852-0.119-0.237-0.415-0.296-0.652-0.178s-0.296 0.415-0.178 0.652c0.652 1.244 1.067 2.548 1.185 3.97 0 0.237 0.237 0.415 0.474 0.415h3.97c0.237-0.059 0.415-0.296 0.415-0.533zM16.593 18.133c-0.178-0.178-0.533-0.119-0.652 0.059l-1.481 1.896c-0.356 0.415-0.474 0.948-0.415 1.481s0.296 1.007 0.711 1.363c0.356 0.296 0.77 0.415 1.244 0.415h0.237c0.533-0.059 1.007-0.296 1.363-0.77 0.059-0.119 0.178-0.296 0.237-0.356l8.119-15.17c0.119-0.237 0.059-0.474-0.178-0.652-0.178-0.119-0.474-0.119-0.652 0.119l-8.237 10.489c-0.178 0.178-0.119 0.533 0.059 0.652 0.178 0.178 0.533 0.119 0.652-0.059l4.919-6.281-5.57 10.43c-0.059 0.059-0.119 0.178-0.178 0.237-0.178 0.237-0.415 0.356-0.711 0.415s-0.533-0.059-0.77-0.237-0.356-0.415-0.415-0.711 0.059-0.533 0.237-0.77l1.481-1.896c0.237-0.237 0.178-0.533 0-0.652zM15.585 21.156c0 0.178 0.059 0.415 0.237 0.474s0.415 0.059 0.533-0.059c0.178-0.178 0.178-0.415 0.059-0.593-0.178-0.356-0.77-0.237-0.83 0.178z"></path>
</svg>
