<!-- Generated by IcoMoon.io -->
<svg version="1.1" xmlns="http://www.w3.org/2000/svg" width="28" height="28" viewBox="0 0 28 28">
<title>spices</title>
<path d="M20.54 21.061c-0.649 0-1.177 0.528-1.177 1.177s0.528 1.177 1.177 1.177c0.649 0 1.177-0.528 1.177-1.177s-0.528-1.177-1.177-1.177zM20.54 22.76c-0.287 0-0.521-0.234-0.521-0.521s0.234-0.521 0.521-0.521c0.287 0 0.521 0.234 0.521 0.521s-0.234 0.521-0.521 0.521z"></path>
<path d="M24.023 22.845c-0.649 0-1.177 0.528-1.177 1.177s0.528 1.177 1.177 1.177c0.649 0 1.177-0.528 1.177-1.177s-0.528-1.177-1.177-1.177zM24.023 24.544c-0.287 0-0.521-0.234-0.521-0.521s0.234-0.521 0.521-0.521c0.287 0 0.521 0.234 0.521 0.521s-0.234 0.521-0.521 0.521z"></path>
<path d="M22.947 17.884l-0.401-0.401h1.13c0.087 0 0.17-0.035 0.232-0.096l0.841-0.841c0.128-0.128 0.128-0.336 0-0.464s-0.336-0.128-0.464 0l-0.745 0.745h-1.595l0.731-0.731c0.128-0.128 0.128-0.336 0-0.464s-0.336-0.128-0.464 0l-1.195 1.195h-0.914v-0.2l0.561-0.561c0.128-0.128 0.128-0.336 0-0.464s-0.336-0.128-0.464 0l-0.097 0.097v-0.179c0.006-0.005 0.012-0.011 0.018-0.016l1.813-1.813h1.648c0.181 0 0.328-0.147 0.328-0.328s-0.147-0.328-0.328-0.328h-0.992l0.618-0.618h1.223c0.181 0 0.328-0.147 0.328-0.328s-0.147-0.328-0.328-0.328h-0.567l0.799-0.799c0.062-0.062 0.096-0.145 0.096-0.232v-1.189c0-0.181-0.147-0.328-0.328-0.328s-0.328 0.147-0.328 0.328v1.053l-1.127 1.127v-1.034c0-0.181-0.147-0.328-0.328-0.328s-0.328 0.147-0.328 0.328v1.69l-0.787 0.787v-1.076c0-0.181-0.147-0.328-0.328-0.328s-0.328 0.147-0.328 0.328v1.733l-0.772 0.772v-5.223c0-0.673-0.547-1.22-1.22-1.22h-0.118v-0.918c0.29-0.105 0.498-0.382 0.498-0.707v-0.849c0-0.157-0.049-0.304-0.132-0.425 0.083-0.121 0.132-0.267 0.132-0.425v-0.425c-0-0.883-0.719-1.602-1.602-1.602h-4.776c-0.883 0-1.602 0.719-1.602 1.602v0.425c0 0.157 0.049 0.304 0.132 0.425-0.083 0.121-0.132 0.267-0.132 0.425v0.849c0 0.326 0.208 0.603 0.498 0.707v0.918h-0.118c-0.673 0-1.22 0.547-1.22 1.22v6.211c-0.21-0.147-0.46-0.227-0.721-0.227h-0.928c-0.336 0-0.652 0.131-0.89 0.369l-1.187 1.187c-0.128 0.128-0.128 0.336 0 0.464s0.336 0.128 0.464 0l1.187-1.187c0.114-0.114 0.265-0.177 0.426-0.177h0.928c0.161 0 0.312 0.063 0.426 0.177l2.899 2.899c-0.326-0.013-0.546 0.077-0.658 0.27-0.228 0.395 0.141 0.964 1.099 1.693-0.441 0.336-0.756 0.637-0.947 0.903h-1.051c-0.128-0.512-0.591-0.892-1.142-0.892s-1.014 0.38-1.142 0.892h-5.146c-0.332 0-0.603-0.27-0.603-0.603 0-0.161 0.063-0.312 0.177-0.426l2.601-2.601c0.128-0.128 0.128-0.336 0-0.464s-0.336-0.128-0.464 0l-2.601 2.601c-0.238 0.238-0.369 0.554-0.369 0.89 0 0.694 0.565 1.259 1.259 1.259h5.171c0.156 0.468 0.598 0.807 1.117 0.807s0.962-0.339 1.117-0.807h0.872c0.011 0.046 0.028 0.091 0.052 0.133 0.228 0.395 0.905 0.359 2.015-0.105 0.153 1.194 0.461 1.798 0.917 1.798s0.764-0.604 0.917-1.798c1.11 0.464 1.787 0.5 2.015 0.105 0.202-0.35-0.065-0.836-0.794-1.45h0.533c1.164 0 2.112-0.947 2.112-2.112v-1.41l0.878 0.878c0.064 0.064 0.148 0.096 0.232 0.096s0.168-0.032 0.232-0.096c0.128-0.128 0.128-0.336 0-0.464l-0.701-0.701h0.874l0.865 0.865c0.064 0.064 0.148 0.096 0.232 0.096s0.168-0.032 0.232-0.096c0.128-0.128 0.128-0.336-0-0.464zM10.348 22.76c-0.287 0-0.521-0.234-0.521-0.521s0.234-0.521 0.521-0.521c0.287 0 0.521 0.234 0.521 0.521s-0.234 0.521-0.521 0.521zM11.94 5.676c0-0.053 0.043-0.097 0.097-0.097h5.106c0.181 0 0.328-0.147 0.328-0.328s-0.147-0.328-0.328-0.328h-5.106c-0.053 0-0.097-0.043-0.097-0.097v-0.425c0-0.522 0.424-0.946 0.946-0.946h4.776c0.522 0 0.946 0.424 0.946 0.946v0.425c0 0.053-0.043 0.097-0.097 0.097-0.181 0-0.328 0.147-0.328 0.328s0.147 0.328 0.328 0.328c0.053 0 0.097 0.043 0.097 0.097v0.849c0 0.053-0.043 0.097-0.097 0.097h-6.474c-0.053 0-0.097-0.043-0.097-0.097v-0.849zM11.1 9.371c0-0.311 0.253-0.564 0.564-0.564h0.446c0.181 0 0.328-0.147 0.328-0.328v-1.201h5.672v1.201c0 0.181 0.147 0.328 0.328 0.328h0.446c0.311 0 0.564 0.253 0.564 0.564v1.428c-0.171-0.090-0.366-0.142-0.572-0.142-0.355 0-0.676 0.152-0.9 0.394-0.224-0.242-0.545-0.394-0.9-0.394s-0.676 0.152-0.9 0.394c-0.224-0.242-0.545-0.394-0.9-0.394s-0.676 0.152-0.9 0.394c-0.224-0.242-0.545-0.394-0.9-0.394s-0.676 0.152-0.9 0.394c-0.224-0.242-0.545-0.394-0.9-0.394-0.207 0-0.401 0.051-0.572 0.142v-1.428zM16.41 20.781c-0.088 0.061-0.14 0.162-0.14 0.269s0.052 0.208 0.14 0.269c0.711 0.497 1.044 0.851 1.178 1.040-0.231-0.022-0.704-0.133-1.49-0.501-0.097-0.045-0.21-0.040-0.303 0.013s-0.154 0.149-0.163 0.256c-0.075 0.864-0.215 1.33-0.311 1.541-0.097-0.211-0.236-0.676-0.311-1.541-0.009-0.107-0.070-0.202-0.163-0.256-0.051-0.029-0.107-0.044-0.164-0.044-0.047 0-0.095 0.010-0.139 0.031-0.786 0.367-1.259 0.479-1.49 0.501 0.134-0.189 0.467-0.543 1.179-1.040 0.088-0.061 0.14-0.162 0.14-0.269s-0.052-0.208-0.14-0.269c-0.711-0.497-1.044-0.851-1.178-1.040 0.231 0.022 0.704 0.133 1.49 0.501 0.097 0.045 0.21 0.040 0.303-0.013s0.154-0.149 0.163-0.256c0.075-0.864 0.215-1.33 0.311-1.541 0.097 0.211 0.236 0.676 0.311 1.541 0.009 0.107 0.070 0.202 0.163 0.256s0.206 0.058 0.303 0.013c0.786-0.367 1.259-0.479 1.49-0.501-0.134 0.189-0.467 0.543-1.178 1.040zM17.992 20.637h-0.339c0.582-0.534 0.784-0.963 0.601-1.28-0.228-0.395-0.905-0.359-2.015 0.105-0.153-1.194-0.461-1.798-0.917-1.798s-0.764 0.604-0.917 1.798c-0.033-0.014-0.065-0.027-0.097-0.040-0.008-0.010-0.016-0.019-0.025-0.028l-3.183-3.183v-4.326c0-0.315 0.257-0.572 0.572-0.572s0.572 0.257 0.572 0.572c0 0.181 0.147 0.328 0.328 0.328s0.328-0.147 0.328-0.328c0-0.315 0.257-0.572 0.572-0.572s0.572 0.257 0.572 0.572c0 0.181 0.147 0.328 0.328 0.328s0.328-0.147 0.328-0.328c0-0.315 0.257-0.572 0.572-0.572s0.572 0.257 0.572 0.572c0 0.181 0.147 0.328 0.328 0.328s0.328-0.147 0.328-0.328c0-0.315 0.257-0.572 0.572-0.572s0.572 0.257 0.572 0.572c0 0.181 0.147 0.328 0.328 0.328s0.328-0.147 0.328-0.328c0-0.315 0.257-0.572 0.572-0.572s0.572 0.257 0.572 0.572v7.296c0 0.803-0.653 1.456-1.456 1.456z"></path>
<path d="M16.336 14.691h-2.123c-0.181 0-0.328 0.147-0.328 0.328s0.147 0.328 0.328 0.328h2.123c0.181 0 0.328-0.147 0.328-0.328s-0.147-0.328-0.328-0.328z"></path>
<path d="M16.96 13.417h-3.372c-0.422 0-0.766 0.343-0.766 0.766v1.673c0 0.422 0.343 0.766 0.766 0.766h3.372c0.422 0 0.766-0.343 0.766-0.766v-1.673c0-0.422-0.343-0.766-0.766-0.766zM17.069 15.856c0 0.060-0.049 0.109-0.109 0.109h-3.372c-0.060 0-0.109-0.049-0.109-0.109v-1.673c0-0.060 0.049-0.109 0.109-0.109h3.372c0.060 0 0.109 0.049 0.109 0.109v1.673z"></path>
</svg>
