<!-- Generated by IcoMoon.io -->
<svg version="1.1" xmlns="http://www.w3.org/2000/svg" width="28" height="28" viewBox="0 0 28 28">
<title>spices-1</title>
<path d="M8.861 18.020c-0.225 0-0.444 0.067-0.631 0.192s-0.332 0.303-0.418 0.511c-0.086 0.208-0.108 0.437-0.064 0.657s0.152 0.423 0.311 0.582c0.159 0.159 0.362 0.267 0.582 0.311s0.449 0.021 0.657-0.065c0.208-0.086 0.385-0.232 0.51-0.419s0.191-0.407 0.191-0.632c-0-0.302-0.121-0.591-0.334-0.804s-0.502-0.333-0.804-0.333zM8.861 19.735c-0.114-0-0.225-0.034-0.32-0.098s-0.168-0.154-0.212-0.259-0.055-0.222-0.032-0.333c0.022-0.112 0.077-0.215 0.158-0.295s0.183-0.135 0.295-0.158c0.112-0.022 0.228-0.011 0.333 0.033s0.195 0.118 0.259 0.213c0.063 0.095 0.097 0.206 0.097 0.321-0 0.153-0.061 0.3-0.17 0.408s-0.255 0.169-0.408 0.169z"></path>
<path d="M8.813 17.691c0.074 0 0.145-0.030 0.198-0.082s0.082-0.124 0.082-0.198v-0.958c0-0.074-0.030-0.146-0.082-0.198s-0.124-0.082-0.198-0.082-0.145 0.030-0.198 0.082c-0.053 0.053-0.082 0.124-0.082 0.198v0.958c0 0.074 0.029 0.146 0.082 0.198s0.124 0.082 0.198 0.082z"></path>
<path d="M8.813 20.674c-0.074 0-0.145 0.030-0.198 0.082s-0.082 0.124-0.082 0.198v0.958c0 0.074 0.029 0.146 0.082 0.198s0.124 0.082 0.198 0.082 0.145-0.030 0.198-0.082c0.053-0.053 0.082-0.124 0.082-0.198v-0.958c0-0.074-0.030-0.146-0.082-0.198s-0.124-0.082-0.198-0.082z"></path>
<path d="M10.328 18.543c0.051-0 0.101-0.014 0.145-0.041l0.819-0.498c0.063-0.039 0.108-0.101 0.125-0.173s0.005-0.147-0.033-0.211c-0.038-0.063-0.1-0.109-0.171-0.126s-0.147-0.007-0.211 0.031l-0.819 0.498c-0.052 0.032-0.093 0.080-0.115 0.137s-0.026 0.12-0.009 0.179c0.017 0.059 0.052 0.111 0.101 0.148s0.108 0.057 0.169 0.057z"></path>
<path d="M7.152 19.863l-0.819 0.498c-0.032 0.019-0.060 0.044-0.082 0.074s-0.038 0.063-0.047 0.099c-0.009 0.036-0.011 0.073-0.005 0.11s0.018 0.072 0.037 0.103c0.019 0.032 0.044 0.059 0.074 0.081s0.064 0.037 0.1 0.046c0.036 0.009 0.073 0.010 0.11 0.004s0.072-0.019 0.103-0.038l0.82-0.498c0.063-0.039 0.108-0.101 0.125-0.173s0.005-0.147-0.033-0.211c-0.038-0.063-0.1-0.109-0.171-0.126s-0.147-0.007-0.211 0.031z"></path>
<path d="M10.095 19.946c-0.038 0.064-0.049 0.14-0.031 0.212s0.064 0.134 0.128 0.172l0.824 0.49c0.032 0.019 0.067 0.031 0.103 0.036s0.074 0.003 0.109-0.006c0.036-0.009 0.069-0.025 0.099-0.047s0.054-0.050 0.073-0.081c0.019-0.032 0.031-0.067 0.036-0.103s0.003-0.074-0.006-0.109-0.025-0.069-0.047-0.099c-0.022-0.029-0.050-0.054-0.081-0.073l-0.824-0.49c-0.032-0.019-0.067-0.031-0.103-0.036s-0.073-0.003-0.109 0.006c-0.036 0.009-0.069 0.025-0.099 0.047s-0.054 0.050-0.073 0.081z"></path>
<path d="M7.53 18.42c0.038-0.064 0.049-0.14 0.031-0.212s-0.064-0.134-0.128-0.172l-0.824-0.49c-0.064-0.038-0.14-0.049-0.212-0.031s-0.134 0.065-0.172 0.128-0.049 0.14-0.031 0.212c0.018 0.072 0.064 0.134 0.128 0.172l0.824 0.49c0.032 0.019 0.067 0.031 0.103 0.036s0.073 0.003 0.109-0.006 0.069-0.025 0.099-0.047c0.029-0.022 0.054-0.050 0.073-0.081v-0z"></path>
<path d="M22.77 18.246c0.067 0 0.131-0.024 0.182-0.067 1.246-1.068 1.288-2.792 1.29-2.864 0.001-0.074-0.027-0.146-0.079-0.199s-0.122-0.084-0.196-0.085c-0.074-0.001-0.145 0.028-0.199 0.079s-0.084 0.122-0.086 0.196c-0 0.015-0.043 1.548-1.094 2.449-0.044 0.037-0.075 0.087-0.089 0.142s-0.011 0.114 0.008 0.168c0.020 0.054 0.056 0.1 0.103 0.133s0.103 0.050 0.16 0.050z"></path>
<path d="M26.456 3.153c-0.581-0.34-1.273-0.439-1.926-0.277s-1.218 0.574-1.573 1.147l-4.891 7.984h-1.533c0.56-0.81 0.634-1.866 0.209-3.093-0.247-0.69-0.59-1.342-1.021-1.936l-0.003-0.004c-0.045-0.059-0.112-0.098-0.186-0.107s-0.148 0.010-0.207 0.055c-0.059 0.045-0.098 0.112-0.107 0.186s0.010 0.148 0.055 0.207l0.001 0.002c0.006 0.010 0.193 0.509-0.778 1.669-0.050 0.060-0.097 0.122-0.142 0.185-1.302-1.578-3.255-1.312-3.343-1.299-0.067 0.010-0.128 0.044-0.172 0.095s-0.068 0.117-0.067 0.185c0.001 0.068 0.026 0.133 0.070 0.183s0.106 0.083 0.174 0.092c0.005 0.001 0.495 0.213 0.629 1.73 0.081 0.918 0.459 1.493 0.859 1.85h-5.414c-0.142 0-0.28 0.050-0.39 0.14s-0.185 0.216-0.213 0.356c-0.114 0.574-0.404 2.447 0.183 4.257-0.931-0.239-1.619-0.031-1.661-0.018-0.068 0.022-0.126 0.069-0.161 0.131s-0.044 0.137-0.026 0.206c0.252 0.976 1.153 1.713 1.702 2.084-0.555 0.347-1.019 0.822-1.352 1.386l-0.661-1.764c-0.020-0.054-0.054-0.101-0.099-0.136s-0.099-0.058-0.155-0.066c-0.057-0.007-0.115 0.001-0.167 0.024s-0.098 0.060-0.13 0.107c-0.105-0.064-0.214-0.121-0.328-0.17-1.238-0.532-2.659 0-3.169 1.185-0.118 0.277-0.181 0.574-0.184 0.875s0.054 0.599 0.168 0.878c0.122 0.304 0.303 0.581 0.532 0.814s0.503 0.419 0.805 0.546c0.131 0.056 0.266 0.101 0.404 0.135-0.021 0.057-0.024 0.119-0.010 0.178s0.044 0.113 0.088 0.155c0.044 0.042 0.099 0.071 0.158 0.082s0.121 0.006 0.178-0.017l1.734-0.697 1.946 0.836c0.164 0.071 0.35 0.073 0.516 0.007s0.299-0.196 0.37-0.36l0.339-0.789c0.035-0.081 0.054-0.169 0.055-0.258s-0.015-0.177-0.048-0.259c-0.033-0.082-0.082-0.157-0.143-0.221s-0.136-0.114-0.217-0.149l-0.052-0.022c0.207-0.086 0.406-0.191 0.594-0.314-0.009 0.711 0.122 1.842 0.922 2.623 0.053 0.051 0.123 0.080 0.197 0.080s0.144-0.030 0.196-0.082c0.037-0.037 0.803-0.82 0.928-2.348l0.013 0.022c0.272 0.466 0.574 0.984 0.725 1.341-0.094 0.085-0.162 0.195-0.197 0.316s-0.034 0.251 0.002 0.373l0.242 0.824c0.051 0.172 0.167 0.316 0.324 0.402s0.341 0.106 0.513 0.056l2.029-0.594 1.729 0.994c0.050 0.029 0.106 0.043 0.163 0.042s0.113-0.018 0.161-0.048c0.048-0.031 0.088-0.074 0.113-0.125s0.037-0.108 0.033-0.166c0.122-0.017 0.242-0.043 0.36-0.078 0.571-0.164 1.064-0.526 1.391-1.022h4.441c0.186 0.001 0.366-0.062 0.511-0.178s0.246-0.278 0.286-0.459c0.181-0.803 0.748-2.407 2.512-4.135 2.208-2.163 1.75-5.511 1.557-6.485-0.028-0.14-0.103-0.265-0.213-0.356s-0.248-0.14-0.39-0.14h-1.306l2.549-5.575c0.265-0.577 0.306-1.232 0.116-1.838s-0.599-1.12-1.147-1.441zM14.927 9.346c0.441-0.526 0.684-0.955 0.81-1.295 0.549 0.995 1.248 2.779 0.066 3.957h-0.188c0.377-0.921 0.223-2.202 0.215-2.265-0.009-0.074-0.047-0.141-0.106-0.186s-0.133-0.066-0.207-0.057c-0.074 0.009-0.141 0.047-0.186 0.106s-0.066 0.133-0.057 0.207c0.052 0.42 0.094 1.585-0.284 2.196h-0.386c-0.174-0.405-0.566-1.602 0.321-2.662zM12.205 10.108c-0.073-0.83-0.249-1.352-0.442-1.681 0.64 0.063 1.606 0.326 2.29 1.27-0.134 0.301-0.214 0.624-0.238 0.952-0.212-0.395-0.462-0.769-0.747-1.115-0.048-0.056-0.117-0.090-0.191-0.096s-0.147 0.018-0.203 0.067c-0.056 0.048-0.091 0.117-0.097 0.19s0.018 0.147 0.065 0.203c0.009 0.011 0.85 1.006 1.108 2.108h-0.112c-0.161-0.037-1.299-0.351-1.435-1.899zM2.514 22.471c-0.175-0.025-0.346-0.072-0.509-0.142-0.234-0.098-0.446-0.242-0.624-0.422s-0.319-0.395-0.413-0.631c-0.086-0.21-0.129-0.436-0.127-0.663s0.049-0.452 0.138-0.661c0.387-0.901 1.479-1.301 2.433-0.891 0.143 0.061 0.279 0.14 0.404 0.233l-0.222 1.102-1.405-0.243c-0.008-0.001-0.017-0.003-0.025-0.003-0.066-0.005-0.132 0.010-0.188 0.044s-0.101 0.085-0.127 0.146c-0.026 0.061-0.032 0.128-0.018 0.192s0.048 0.123 0.097 0.167l1.076 1.035-0.49 0.737zM6.993 22.151l-0.339 0.789c-0.012 0.028-0.035 0.050-0.063 0.061s-0.060 0.011-0.088-0.001l-2.052-0.881c-0.034-0.015-0.070-0.022-0.107-0.023s-0.073 0.006-0.108 0.020l-1.11 0.446 0.474-0.714c0.036-0.055 0.052-0.12 0.045-0.186s-0.037-0.126-0.084-0.172l-0.676-0.65 0.882 0.152c0.072 0.012 0.146-0.004 0.206-0.045s0.102-0.104 0.116-0.176l0.199-0.99 0.441 1.177c0.013 0.035 0.034 0.068 0.060 0.095s0.057 0.049 0.092 0.064l0.012 0.005c-0.022 0.055-0.043 0.11-0.063 0.167-0.013 0.036-0.018 0.075-0.015 0.113s0.014 0.076 0.032 0.11c0.018 0.034 0.043 0.064 0.073 0.088s0.065 0.042 0.102 0.052c0.397 0.090 0.807 0.105 1.21 0.045l0.703 0.302c0.014 0.006 0.026 0.014 0.037 0.025s0.019 0.023 0.024 0.037c0.006 0.014 0.008 0.029 0.008 0.044s-0.003 0.030-0.009 0.043zM9.544 20.507c-0.048 0.024-0.088 0.062-0.116 0.109s-0.040 0.1-0.038 0.154c0.055 1.218-0.342 2.002-0.589 2.367-0.758-1.008-0.504-2.535-0.501-2.551 0.010-0.058 0.002-0.117-0.023-0.17s-0.067-0.096-0.118-0.125c-0.052-0.028-0.111-0.039-0.169-0.032s-0.113 0.033-0.156 0.073c-0.892 0.829-1.863 0.875-2.35 0.832 0.347-0.758 0.953-1.367 1.708-1.719 0.050-0.019 0.094-0.053 0.126-0.096s0.050-0.095 0.054-0.149c0.003-0.054-0.009-0.107-0.036-0.154s-0.066-0.085-0.114-0.11c-0.014-0.007-1.309-0.698-1.757-1.712 0.446-0.052 1.352-0.035 2.322 0.7 0.045 0.034 0.099 0.054 0.156 0.056s0.112-0.012 0.16-0.042 0.086-0.073 0.109-0.125c0.023-0.052 0.029-0.109 0.019-0.165-0.003-0.015-0.254-1.417 0.622-2.344 0.216 0.356 0.567 1.122 0.538 2.314-0.001 0.052 0.012 0.104 0.039 0.149s0.065 0.082 0.111 0.106c0.046 0.024 0.098 0.035 0.15 0.032s0.102-0.022 0.144-0.052c0.014-0.010 1.306-0.929 2.488-0.655-0.239 0.518-0.842 1.608-1.702 1.652-0.062 0.003-0.121 0.026-0.168 0.067s-0.080 0.095-0.092 0.155c-0.013 0.061-0.005 0.124 0.022 0.179s0.071 0.101 0.127 0.129c0.725 0.421 1.311 1.046 1.685 1.798-0.833 0.074-1.665-0.151-2.346-0.636-0.042-0.034-0.093-0.055-0.146-0.061s-0.108 0.004-0.156 0.028zM13.764 23.619c-0.033-0.019-0.069-0.031-0.106-0.035s-0.075-0.001-0.112 0.009l-2.144 0.627c-0.029 0.009-0.060 0.005-0.087-0.009s-0.046-0.039-0.055-0.068l-0.242-0.824c-0.008-0.029-0.005-0.060 0.010-0.087s0.039-0.046 0.068-0.055l2.144-0.627c0.035-0.010 0.068-0.028 0.097-0.051s0.053-0.052 0.070-0.084l0.571-1.051 0.090 0.853c0.007 0.065 0.036 0.126 0.084 0.172s0.109 0.073 0.174 0.078l0.936 0.070-0.776 0.444c-0.063 0.036-0.11 0.096-0.13 0.166s-0.012 0.145 0.022 0.21l0.477 0.889-1.090-0.626zM17.126 23.365c-0.251 0.429-0.657 0.744-1.135 0.88-0.15 0.044-0.304 0.070-0.46 0.078l-0.532-0.991 1.237-0.707c0.007-0.004 0.014-0.009 0.021-0.013 0.054-0.038 0.095-0.092 0.117-0.154s0.024-0.13 0.005-0.193c-0.018-0.063-0.056-0.119-0.108-0.16s-0.116-0.064-0.182-0.067l-1.49-0.112-0.092-0.88c0.151-0.092 0.313-0.164 0.482-0.214 0.997-0.291 2.032 0.237 2.308 1.178 0.066 0.226 0.084 0.463 0.054 0.696s-0.107 0.458-0.227 0.66zM24.897 18.588c-1.867 1.829-2.472 3.55-2.667 4.413-0.013 0.057-0.044 0.108-0.090 0.144s-0.102 0.056-0.161 0.056h-4.168c0.146-0.437 0.154-0.907 0.025-1.349-0.363-1.238-1.709-1.937-3.002-1.558-0.137 0.040-0.27 0.091-0.398 0.154-0.020-0.057-0.057-0.107-0.105-0.144s-0.106-0.059-0.167-0.064c-0.061-0.005-0.121 0.008-0.174 0.037s-0.097 0.073-0.126 0.126l-0.892 1.641-1.781 0.521c-0.154-0.341-0.327-0.673-0.519-0.995 0.641 0.204 1.324 0.238 1.982 0.1 0.040-0.008 0.077-0.025 0.11-0.050s0.060-0.056 0.079-0.092c0.019-0.036 0.031-0.076 0.033-0.116s-0.004-0.081-0.019-0.119c-0.324-0.813-0.861-1.525-1.554-2.059 1.070-0.523 1.632-2.040 1.66-2.116 0.025-0.068 0.022-0.143-0.007-0.209s-0.083-0.118-0.15-0.146c-1.085-0.442-2.249 0.032-2.863 0.366-0.094-1.593-0.805-2.398-0.838-2.434-0.048-0.053-0.114-0.086-0.185-0.091s-0.142 0.016-0.197 0.060c-0.925 0.74-1.088 1.82-1.089 2.488-0.092-0.052-0.183-0.099-0.272-0.141-0.4-0.957-0.498-1.977-0.485-2.81h19.586c0.020 1.326-0.25 3.1-1.564 4.388zM26.242 12.568c0.013 0 0.025 0.005 0.035 0.013s0.017 0.020 0.019 0.032c0.066 0.34 0.112 0.683 0.138 1.028h-19.534c0.025-0.345 0.071-0.688 0.136-1.028 0.002-0.013 0.009-0.024 0.019-0.032s0.022-0.013 0.035-0.013h19.151zM24.321 12.007h-5.598l3.308-5.4 3.755 2.197-1.465 3.204zM26.020 8.292l-3.697-2.163 0.256-0.417 3.667 2.086-0.226 0.493zM26.977 6.199l-0.497 1.087-3.608-2.052 0.562-0.918c0.267-0.437 0.691-0.755 1.184-0.89s1.020-0.076 1.472 0.164c0.452 0.24 0.795 0.644 0.96 1.129s0.138 1.014-0.074 1.48z"></path>
</svg>
