<!-- Generated by IcoMoon.io -->
<svg version="1.1" xmlns="http://www.w3.org/2000/svg" width="32" height="32" viewBox="0 0 32 32">
<title>sustainable-1</title>
<path d="M30.104 15.45c-0.506-0.814-1.18-1.523-2.002-2.112-0.7-3.285-2.836-6.22-5.694-7.934-0.023-0.019-0.047-0.037-0.075-0.048-0.788-0.471-1.627-0.862-2.512-1.151-0.565-0.644-1.182-1.209-1.838-1.679-0.126-0.091-0.301-0.061-0.391 0.065s-0.061 0.301 0.065 0.39c0.541 0.387 1.056 0.843 1.534 1.358-5.051 2.192-8.141 4.971-9.188 8.265-0.521 1.65-0.688 3.808-1.992 4.963-0.030 0.018-0.055 0.039-0.076 0.066-0.974 0.792-2.114 0.909-3.623 0.596-0.163-0.845-0.225-1.693-0.201-2.532 0.437-1.463 2.467-3.478 4.354-3.782 0.355-0.077 0.22-0.638-0.13-0.544-1.628 0.345-3.273 1.541-4.093 2.871 0.287-1.847 1.008-3.602 2.087-5.118 0.673-0.709 2.433-1.328 3.628-1.011 0.154 0.030 0.299-0.071 0.328-0.223s-0.071-0.298-0.224-0.327c-0.879-0.171-1.835-0.082-2.649 0.254 1.405-1.496 3.299-2.659 5.316-3.221 0.149-0.042 0.235-0.197 0.193-0.346s-0.196-0.236-0.346-0.192c-1.312 0.37-2.595 0.978-3.703 1.76 0.373-1.014 1.124-1.874 2.071-2.39 0.321-0.169 0.048-0.671-0.27-0.491-1.29 0.703-2.272 1.995-2.548 3.441-1.609 1.318-2.851 3.017-3.635 4.91-0.384-1.125-0.209-3.013 0.581-4.151 0.082-0.131 0.041-0.304-0.090-0.386s-0.304-0.042-0.386 0.090c-1.004 1.41-1.112 4.064-0.392 5.226-0.383 1.131-0.606 2.318-0.651 3.528-0.013 0.048-0.013 0.095-0.002 0.14-0.017 0.684 0.023 1.374 0.124 2.064-3.904-3.137-1.855-9.089-1.143-10.27 2.314-4.576 8.124-7.221 12.688-5.776 0.453 0.143 0.899 0.327 1.327 0.548 0.138 0.072 0.307 0.017 0.378-0.12s0.017-0.306-0.12-0.377c-0.455-0.235-0.932-0.432-1.415-0.584-4.811-1.524-10.926 1.252-13.357 6.058-0.925 1.594-2.946 8.1 1.785 11.345 0.213 0.978 0.546 1.944 0.992 2.849 0.068 0.14 0.239 0.196 0.375 0.128 0.139-0.068 0.196-0.236 0.128-0.375-0.379-0.768-0.669-1.581-0.872-2.407 1.247 0.258 2.634 0.171 3.612-0.582 0.358 0.785 1.275 1.266 2.009 1.154 0.582-0.069 0.99 0.203 1.073 0.83 0.137 1.050 1.088 1.701 2.094 1.652 1.307-0.115 1.582 1.286 1.041 2.199-0.925 1.446-3.455 0.562-3.694 2.484-0.436-0.221-0.86-0.464-1.266-0.738-0.129-0.086-0.302-0.053-0.39 0.076s-0.053 0.302 0.076 0.389c0.979 0.661 2.048 1.177 3.176 1.538 0.612 0.693 1.283 1.295 2.001 1.785 0.127 0.087 0.302 0.054 0.39-0.073s0.054-0.302-0.073-0.389c-0.606-0.413-1.18-0.91-1.708-1.48 5.050-2.193 8.141-4.972 9.188-8.265 0.802-3.266 1.375-6.596 5.692-5.624 0.163 0.845 0.225 1.693 0.201 2.532-0.437 1.463-2.467 3.478-4.354 3.782-0.318 0.067-0.256 0.562 0.065 0.552 1.655-0.313 3.326-1.538 4.158-2.879-0.287 1.847-1.008 3.602-2.087 5.118-0.673 0.709-2.433 1.328-3.628 1.011-0.152-0.027-0.299 0.071-0.328 0.223s0.071 0.298 0.224 0.327c0.874 0.17 1.836 0.082 2.648-0.254-1.405 1.496-3.299 2.659-5.316 3.221-0.149 0.042-0.235 0.197-0.193 0.346 0.042 0.15 0.201 0.235 0.346 0.192 1.312-0.37 2.595-0.978 3.703-1.76-0.373 1.014-1.124 1.874-2.071 2.39-0.322 0.17-0.045 0.671 0.27 0.491 1.29-0.703 2.272-1.995 2.548-3.441 1.609-1.318 2.851-3.017 3.635-4.91 0.384 1.125 0.209 3.013-0.581 4.151-0.082 0.131-0.041 0.304 0.090 0.386 0.129 0.081 0.304 0.043 0.386-0.090 1.007-1.414 1.107-4.061 0.393-5.231 0.382-1.13 0.605-2.316 0.649-3.523 0.013-0.047 0.013-0.095 0.002-0.14 0.017-0.684-0.023-1.374-0.124-2.064 3.905 3.139 1.855 9.087 1.143 10.27-2.314 4.576-8.122 7.223-12.687 5.777-0.404-0.128-0.804-0.289-1.189-0.478-0.139-0.069-0.307-0.011-0.375 0.127s-0.011 0.306 0.127 0.375c1.263 0.626 2.643 0.931 4.060 0.929 4.168-0 8.587-2.566 10.564-6.476 0.272-0.539 2.59-5.372 0.166-9.273zM15.84 6.713c0.342 0.361-0.117 0.629-0.199 1.062-0.183 0.641 0.154 0.781 0.061 1.361-0.090 0.5-0.416 0.823-0.514 0.911-0.125 0.112-0.474 0.398-0.943 0.396-0.023-0-0.558-0.018-0.841-0.362-0.167-0.317-0.416-0.632-0.809-0.741 0.856-0.934 1.941-1.81 3.244-2.627zM18.235 23.751c-0.536-0.366-0.679-1.345 0.147-1.766 0.43-0.255 0.916-0.633 1.184-1.115 0.258-0.532 0.906-0.87 1.3-0.313-0.595 1.134-1.473 2.2-2.632 3.193zM24.018 13.693c-2.129 1.421-1.955 4.231-2.892 6.325-0.931-0.787-1.788 0.038-2.214 0.82-0.36 0.503-1.287 0.81-1.496 1.335-0.41 0.75-0.079 1.553 0.382 1.942-1.452 1.154-3.294 2.205-5.519 3.149-0.369-0.121-0.73-0.262-1.084-0.418-0.186-0.369 0.081-0.77 0.438-0.954 0.507-0.237 0.825-0.188 1.434-0.408 0.465-0.156 1.243-0.417 1.678-1.119 0.424-0.685 0.509-1.849-0.095-2.536-0.405-0.462-0.929-0.491-1.392-0.516-0.424-0.023-0.825-0.045-1.168-0.371-0.274-0.261-0.341-0.546-0.411-0.848-0.098-0.808-0.791-1.377-1.639-1.263-0.669 0.084-1.245-0.289-1.547-0.96 1.349-1.321 1.518-3.395 2.043-5.096 0.33-1.037 0.881-2.022 1.644-2.953 0.482 0.055 0.561 0.258 0.79 0.616 1.292 1.266 2.987 0.25 3.282-1.201 0.134-0.628-0.189-0.783-0.073-1.311 0.205-0.518 0.591-0.94 0.141-1.51 0.996-0.589 2.113-1.146 3.346-1.669 0.68 0.223 1.33 0.511 1.95 0.848-0.429 0.324-0.426 1.171-0.789 1.525-0.354 0.258-0.894 0.204-1.258 0.533-1.099 0.971 0.286 3.441 1.49 3.61 0.68 0.187 1.439-0.086 2.079 0.125 0.868 0.337 1.092 1.383 0.878 2.306zM24.637 13.359c0.134-1.025-0.347-2.164-1.307-2.499-0.695-0.259-1.449 0.016-2.13-0.141-0.789-0.125-1.935-1.823-1.265-2.641 0.351-0.258 0.89-0.206 1.255-0.531 0.355-0.302 0.432-0.726 0.561-1.116 0.081-0.241 0.237-0.472 0.415-0.518 2.617 1.589 4.598 4.247 5.319 7.25-1.088-0.2-2.041-0.133-2.848 0.196z"></path>
<path d="M9.169 24.731c0.342-0.092 0.345-0.614 0.003-0.709-0.383-0.121-0.947-0.371-1.451-0.883-0.491-0.497-0.733-1.045-0.849-1.415-0.049-0.156-0.192-0.26-0.356-0.26s-0.306 0.105-0.355 0.261c-0.119 0.385-0.369 0.95-0.885 1.457-0.499 0.49-1.049 0.73-1.424 0.844-0.155 0.048-0.26 0.189-0.262 0.352s0.103 0.307 0.259 0.358c0.361 0.117 0.894 0.355 1.384 0.826 0.532 0.512 0.796 1.087 0.925 1.48 0.098 0.338 0.618 0.336 0.71-0.006 0.117-0.384 0.363-0.948 0.874-1.454 0.499-0.494 1.052-0.734 1.427-0.849zM6.507 26.401c-0.323-0.77-1.164-1.655-2.019-2.015 0.76-0.277 1.754-1.271 2.030-2.022 0.281 0.751 1.267 1.733 2.012 2.011-0.76 0.277-1.75 1.273-2.023 2.026z"></path>
<path d="M26.459 7.303c0.513 0.084 1.325 0.906 1.404 1.403 0.090 0.308 0.563 0.305 0.646-0.006 0 0 0-0 0-0 0.070-0.508 0.886-1.327 1.398-1.398 0.311-0.084 0.314-0.56 0.002-0.646-0.502-0.075-1.322-0.89-1.398-1.396-0.088-0.284-0.559-0.284-0.647 0-0.073 0.506-0.89 1.325-1.402 1.398-0.312 0.083-0.314 0.557-0.004 0.645zM27.72 6.544c0.207-0.203 0.359-0.419 0.469-0.621 0.197 0.393 0.664 0.857 1.054 1.053-0.398 0.196-0.868 0.669-1.062 1.064-0.211-0.399-0.628-0.827-1.057-1.055 0.194-0.105 0.4-0.247 0.597-0.44z"></path>
<path d="M24.724 4.072c0.421-0.006 0.246-0.635 0.281-0.893 0-0.155-0.126-0.28-0.281-0.28-0.421 0.006-0.246 0.635-0.281 0.893 0 0.155 0.126 0.28 0.281 0.28z"></path>
<path d="M24.724 4.572c-0.419 0.005-0.247 0.631-0.281 0.886 0 0.155 0.126 0.28 0.281 0.28 0.419-0.005 0.247-0.631 0.281-0.886-0-0.155-0.126-0.28-0.281-0.28z"></path>
<path d="M25.257 4.598h0.654c0.364 0.005 0.364-0.565 0-0.56h-0.654c-0.363-0.005-0.364 0.565 0 0.56z"></path>
<path d="M23.599 4.598h0.596c0.364 0.005 0.364-0.565 0-0.56h-0.596c-0.364-0.005-0.364 0.565-0 0.56z"></path>
<path d="M8.12 27.696c0.034 0.258-0.141 0.888 0.281 0.893 0.421-0.006 0.246-0.635 0.281-0.893 0.005-0.363-0.566-0.363-0.561 0z"></path>
<path d="M8.401 29.091c-0.419 0.005-0.247 0.631-0.281 0.886 0 0.155 0.126 0.28 0.281 0.28 0.419-0.005 0.247-0.631 0.281-0.886 0-0.155-0.126-0.28-0.281-0.28z"></path>
<path d="M9.589 28.557h-0.654c-0.364-0.005-0.364 0.565 0 0.56h0.654c0.363 0.005 0.364-0.566 0-0.56z"></path>
<path d="M7.873 28.557h-0.596c-0.364-0.005-0.364 0.565 0 0.56h0.596c0.363 0.005 0.364-0.566 0-0.56z"></path>
</svg>
