<!-- Generated by IcoMoon.io -->
<svg version="1.1" xmlns="http://www.w3.org/2000/svg" width="32" height="32" viewBox="0 0 32 32">
<title>terrain</title>
<path d="M7.8 2c1.5 0 3 0.6 4.1 1.7 1.7 1.7 2.1 4.1 1.3 6.2l8.9 8.9c0.7-0.3 1.4-0.4 2.1-0.4 1.5 0 3 0.6 4.1 1.7 1.7 1.7 2.1 4.1 1.3 6.2l-3.6-3.7-3 0.4-0.3 3 3.7 3.6c-0.7 0.3-1.3 0.4-2 0.4-1.5 0-2.9-0.6-4-1.7-1.7-1.7-2.2-4.1-1.2-6.2l-9-8.9c-0.7 0.2-1.5 0.4-2.2 0.4-1.5 0-3-0.6-4.1-1.7-1.9-1.7-2.3-4.1-1.5-6.2l3.6 3.7 3-0.4 0.4-3-3.7-3.6c0.7-0.3 1.4-0.4 2.1-0.4zM26.8 2c0.8 0 1.6 0.3 2.2 0.9 1.2 1.2 1.2 3.2 0 4.4l-4.5-4.5c0.7-0.5 1.5-0.8 2.3-0.8zM23.8 3.7l4.5 4.5-7.7 7.7-4.5-4.5zM11.4 16.1l4.5 4.5-6.8 6.8-4.5-4.5zM4.2 24l3.8 3.8-6 2.2zM7.8 0c-1 0-1.9 0.2-2.8 0.5-0.6 0.2-1.1 0.8-1.2 1.5-0.2 0.6 0 1.3 0.5 1.8l3 3-0.1 0.4-0.5 0.1-3-3c-0.3-0.4-0.8-0.6-1.3-0.6-0.1 0-0.3 0-0.4 0-0.7 0.2-1.3 0.7-1.5 1.3-1.1 2.9-0.4 6.1 1.8 8.3 1.5 1.5 3.4 2.3 5.5 2.3 0.5 0 0.9 0 1.4-0.1l-5.9 5.9c-0.3 0.3-0.9 1.6-1 1.9l-2.2 6c-0.3 0.7-0.1 1.5 0.5 2.1 0.4 0.4 0.9 0.6 1.4 0.6 0.2 0 0.5 0 0.7-0.1l6-2.2c0.3-0.1 1.6-0.7 1.9-1l6.1-6.1c-0.6 2.5 0.2 5.1 2.1 7 1.5 1.5 3.4 2.3 5.5 2.3 0.9 0 1.9-0.2 2.7-0.5 0.6-0.2 1.1-0.8 1.2-1.5s-0.1-1.4-0.5-1.8l-3-3 0.1-0.5 0.5-0.1 3 3c0.4 0.4 0.9 0.6 1.4 0.6h0.4c0.7-0.1 1.2-0.6 1.5-1.2 1.1-2.9 0.4-6.1-1.8-8.3-1.5-1.5-3.4-2.3-5.5-2.3-0.5 0-0.9 0-1.4 0.1 0 0 7.6-7.6 7.8-7.8 2-2.1 1.9-5.2-0.1-7.2-1-1-2.3-1.5-3.7-1.5-1.3 0-2.6 0.5-3.6 1.4-0.2 0.1-7.8 7.8-7.8 7.8 0.5-2.5-0.3-5.1-2.2-6.9-1.5-1.4-3.4-2.2-5.5-2.2z"></path>
</svg>
