<!-- Generated by IcoMoon.io -->
<svg version="1.1" xmlns="http://www.w3.org/2000/svg" width="32" height="32" viewBox="0 0 32 32">
<title>tooth</title>
<path d="M21.363 1.425c0.099-0.074 0.199-0.146 0.297-0.215 1.572-1.096 3.738-1.887 5.616-0.369 0.915 0.741 1.477 1.852 1.766 3.109 0.406 1.765 0.276 3.816-0.057 5.382-0.594 2.8-1.641 4.464-2.663 7.019-1.69 4.227-1.317 8.46-1.183 10.559 0.101 1.562-0.26 3.027-0.943 3.953-0.528 0.717-1.243 1.136-2.096 1.136-1.056 0-2.011-0.755-2.789-2.099-0.994-1.721-1.759-4.439-2.359-7.293-0.097-0.455-0.499-0.78-0.964-0.779-0.465 0-0.866 0.326-0.961 0.78-0.594 2.855-1.352 5.573-2.353 7.293-0.78 1.343-1.741 2.098-2.814 2.098-0.852 0-1.568-0.418-2.096-1.136-0.684-0.926-1.044-2.391-0.943-3.953 0.134-2.099 0.507-6.333-1.183-10.559-1.023-2.555-2.069-4.219-2.663-7.019-0.333-1.566-0.463-3.617-0.057-5.382 0.289-1.256 0.851-2.368 1.766-3.109 1.877-1.518 4.044-0.728 5.616 0.369 0.098 0.069 0.198 0.141 0.297 0.215 1.57-0.608 3.414-0.961 5.382-0.961s3.812 0.353 5.382 0.961l-0-0zM11.703 2.292c0.702 0.57 1.426 1.166 2.154 1.637 0.715 0.463 1.426 0.808 2.125 0.808s1.41-0.345 2.125-0.808c0.727-0.471 1.452-1.067 2.153-1.637-1.288-0.411-2.741-0.642-4.279-0.642s-2.99 0.231-4.279 0.642zM15.981 5.922c-0.906 0-1.843-0.399-2.769-0.998-1.235-0.799-2.462-1.955-3.59-2.741-1.176-0.82-2.785-1.555-4.191-0.419-0.717 0.58-1.131 1.467-1.357 2.452-0.367 1.598-0.239 3.454 0.062 4.87 0.577 2.724 1.61 4.339 2.604 6.826 1.774 4.434 1.407 8.872 1.265 11.075-0.066 1.054 0.102 2.059 0.483 2.797 0.313 0.606 0.766 1.030 1.374 1.030 0.715 0 1.269-0.613 1.79-1.508 0.949-1.635 1.652-4.225 2.216-6.939 0.21-1.003 1.095-1.722 2.12-1.723s1.911 0.716 2.124 1.719c0.571 2.716 1.28 5.309 2.226 6.944 0.516 0.894 1.061 1.508 1.762 1.508 0.608 0 1.061-0.424 1.374-1.030 0.382-0.738 0.55-1.743 0.483-2.797-0.142-2.202-0.51-6.641 1.265-11.075 0.994-2.487 2.027-4.102 2.604-6.826 0.301-1.416 0.429-3.273 0.062-4.87-0.226-0.985-0.64-1.873-1.357-2.452-1.406-1.137-3.015-0.402-4.191 0.419-1.128 0.787-2.355 1.942-3.59 2.741-0.926 0.598-1.863 0.998-2.769 0.998h0z"></path>
</svg>
