<!-- Generated by IcoMoon.io -->
<svg version="1.1" xmlns="http://www.w3.org/2000/svg" width="32" height="32" viewBox="0 0 32 32">
<title>touch-2</title>
<path d="M7.267 2.067c0.2 0 0.4-0.2 0.4-0.467v-1.133c0-0.267-0.2-0.467-0.4-0.467-0.267 0-0.4 0.2-0.4 0.467v1.133c0 0.2 0.133 0.467 0.4 0.467zM7.667 12.4v-1.133c0-0.267-0.2-0.467-0.4-0.467s-0.4 0.2-0.4 0.467v1.133c0 0.267 0.2 0.467 0.4 0.467s0.4-0.2 0.4-0.467zM3 6.4c0-0.2-0.2-0.4-0.467-0.4h-1.067c-0.267 0-0.467 0.2-0.467 0.4 0 0.267 0.2 0.4 0.467 0.4h1.067c0.267 0.067 0.467-0.133 0.467-0.4zM10.867 3.333l0.8-0.8c0.2-0.2 0.2-0.467 0-0.6-0.133-0.133-0.467-0.133-0.6 0l-0.733 0.733c-0.2 0.2-0.2 0.467 0 0.6 0.133 0.2 0.4 0.2 0.533 0.067zM3.6 9.533l-0.8 0.8c-0.2 0.2-0.2 0.467 0 0.6 0.133 0.2 0.467 0.133 0.6 0l0.8-0.8c0.2-0.2 0.2-0.467 0-0.6-0.133-0.133-0.4-0.133-0.6 0zM3.467 1.933c-0.2-0.2-0.467-0.2-0.667-0.067-0.133 0.133-0.133 0.467 0 0.6l0.8 0.867c0.2 0.2 0.467 0.2 0.6 0 0.133-0.133 0.133-0.467 0-0.6zM30.933 26.133c-0.933-2.933-1.933-5.867-2.867-8.867-0.4-1.333-0.8-2.6-1.533-3.8-1.333-2.2-2.6-4.467-3.933-6.733-0.2-0.333-0.467-0.6-0.733-0.8-0.733-0.533-1.6-0.467-2.333 0.133-0.133 0.133-0.267 0.333-0.467 0.533-0.467-0.867-1.2-1.2-2.067-1.067s-1.467 0.733-1.8 1.6c-0.133-0.267-0.333-0.533-0.4-0.733-0.733-1.4-2.467-1.333-3.333-0.4-0.2 0.2-0.333 0.467-0.533 0.733-0.067-0.067-0.067-0.133-0.133-0.2-0.267-0.467-0.533-1-0.867-1.467-0.333-0.6-0.867-1-1.6-1-0.333 0-0.667 0-1 0.133-0.2 0.067-0.333 0.2-0.533 0.333-0.067 0.067-0.133 0.2-0.267 0.267-0.2 0.267-0.333 0.6-0.467 0.933-0.2 0.533-0.067 1.133 0.267 1.6 0.533 0.867 1 1.733 1.533 2.667 1.4 2.4 2.733 4.8 4.133 7.2 0 0.067 0.067 0.133 0.067 0.2-0.4-0.267-0.733-0.533-1.067-0.8-0.467-0.333-0.8-0.733-1.4-0.867-1.267-0.4-2.4 0.4-2.933 1.4-0.4 0.8-0.133 1.8 0.6 2.533 1.667 1.6 3.267 3.267 4.933 4.867 0.533 0.533 1 1.067 1.6 1.4 1.933 1.133 3.867 2.333 5.733 3.467 0.267 0.133 0.467 0.333 0.667 0.533 0.6 0.6 1.2 1.2 1.867 1.8 0.467 0.467 0.8 0.467 1.333 0.133 2.333-1.4 4.667-2.867 7-4.267 0.6-0.4 0.733-0.8 0.533-1.467zM29.8 26.8c-2.2 1.333-4.467 2.733-6.667 4.067-0.067 0.067-0.2 0.133-0.267 0.133-0.733-0.733-1.467-1.4-2.2-2.067-0.133-0.133-0.267-0.2-0.4-0.333-1.8-1.133-3.6-2.2-5.467-3.267-0.8-0.467-1.467-1.133-2.133-1.8-1.533-1.533-3.133-3.067-4.667-4.667-0.2-0.2-0.333-0.467-0.467-0.733-0.2-0.4-0.067-0.933 0.333-1.267 0.133-0.133 0.267-0.2 0.467-0.333 0.467-0.333 1.067-0.2 1.533 0.133 1.2 1 2.333 1.933 3.467 2.933 0.333 0.267 0.733 0.133 0.8-0.2 0.067-0.133 0-0.333-0.067-0.467-0.933-1.667-1.867-3.267-2.8-4.933-1.4-2.4-2.733-4.8-4.133-7.133-0.267-0.467-0.333-0.867-0.067-1.267 0.333-0.467 0.733-0.667 1.333-0.6 0.4 0.067 0.667 0.333 0.8 0.667 1.733 3 3.4 6 5.133 9 0.067 0.067 0.067 0.133 0.133 0.2 0.2 0.4 0.6 0.4 0.933 0.067 0.133-0.2 0.133-0.4 0-0.6-1-1.733-1.933-3.4-2.933-5.133-0.2-0.333-0.4-0.667-0.6-1-0.267-0.467-0.267-0.867 0.067-1.333s0.8-0.667 1.333-0.533c0.333 0.067 0.533 0.267 0.733 0.6 1.067 1.933 2.2 3.867 3.267 5.8 0.133 0.2 0.2 0.4 0.467 0.4 0.333 0 0.533-0.2 0.667-0.467 0.067-0.133 0-0.267-0.067-0.4-0.733-1.267-1.4-2.533-2.133-3.8-0.267-0.533-0.267-1 0.067-1.4 0.333-0.467 0.933-0.667 1.4-0.467 0.2 0.067 0.467 0.267 0.6 0.533 0.933 1.6 1.8 3.133 2.733 4.733 0.067 0.133 0.267 0.333 0.4 0.333s0.333-0.133 0.467-0.267c0.067-0.133 0.067-0.333 0-0.467-0.6-1.067-1.2-2.133-1.8-3.133-0.133-0.2-0.2-0.4-0.2-0.6-0.067-0.467 0.133-0.8 0.533-1.067 0.333-0.2 0.667-0.133 1 0.133 0.2 0.2 0.4 0.4 0.533 0.667 1.267 2.133 2.533 4.333 3.8 6.533 0.667 1.067 1.067 2.267 1.467 3.467 0.933 2.933 1.933 5.933 2.867 8.867 0.067 0.333 0.133 0.267-0.267 0.467z"></path>
</svg>
