<!-- Generated by IcoMoon.io -->
<svg version="1.1" xmlns="http://www.w3.org/2000/svg" width="32" height="32" viewBox="0 0 32 32">
<title>turbo</title>
<path d="M24.622 14.933c0.089-0.267-0.089-0.533-0.267-0.711-0.267-0.178-0.533-0.178-0.8-0.089-0.444 0.267-0.889 0.356-1.333 0.356-0.622 0-1.244-0.267-1.956-0.533s-1.422-0.622-2.222-0.622c-0.711 0-1.422 0.267-2.044 0.711-0.622-0.444-1.333-0.711-2.044-0.711-0.8 0-1.511 0.267-2.222 0.622-0.622 0.267-1.244 0.533-1.956 0.533-0.444 0-0.889-0.089-1.333-0.356-0.267-0.089-0.533-0.089-0.8 0.089s-0.356 0.444-0.267 0.711c0.356 1.689 2.756 3.822 5.333 3.822 0.889 0 2.133-0.267 3.289-1.333 1.156 1.067 2.4 1.333 3.289 1.333 2.489-0.089 4.978-2.133 5.333-3.822zM15.378 15.822c-0.711 0.978-1.6 1.422-2.667 1.422-1.156 0-2.311-0.622-3.022-1.333h0.089c0.978 0 1.778-0.356 2.489-0.622 0.622-0.267 1.156-0.533 1.689-0.533 0.356 0 0.8 0.089 1.511 0.711 0 0 0.089 0.089 0.089 0.089 0 0.089-0.089 0.178-0.178 0.267zM19.289 17.244c-1.067 0-1.956-0.444-2.667-1.422-0.089-0.089-0.089-0.178-0.178-0.178 0.089 0 0.089-0.089 0.089-0.089 0.711-0.622 1.244-0.711 1.511-0.711 0.533 0 1.067 0.267 1.689 0.533 0.711 0.267 1.511 0.622 2.489 0.622h0.089c-0.711 0.622-1.867 1.244-3.022 1.244zM31.022 20.089c0.356-1.333 0.533-2.756 0.533-4.178s-0.178-2.756-0.533-4c0.267-0.178 0.444-0.533 0.356-0.889s-0.444-0.533-0.8-0.533c-0.978-2.667-2.667-4.889-4.889-6.667 0.089-0.267 0-0.622-0.267-0.8s-0.622-0.178-0.889 0c-2.311-1.511-4.978-2.4-7.911-2.578 0-0.267-0.267-0.444-0.622-0.444s-0.622 0.178-0.711 0.533c-2.933 0.089-5.6 1.067-7.911 2.578-0.267-0.178-0.622-0.178-0.889 0s-0.356 0.533-0.267 0.8c-2.133 1.689-3.822 4-4.889 6.667-0.356 0-0.622 0.178-0.8 0.533-0.089 0.356 0 0.711 0.356 0.889-0.356 1.244-0.533 2.667-0.533 4 0 1.422 0.178 2.844 0.533 4.178-0.356 0.178-0.444 0.533-0.356 0.889 0.089 0.267 0.356 0.533 0.711 0.533h0.089c0.978 2.578 2.667 4.889 4.889 6.578-0.178 0.356-0.089 0.711 0.178 0.978 0.089 0.089 0.267 0.178 0.444 0.178s0.444-0.089 0.533-0.267c2.222 1.422 4.889 2.4 7.822 2.489 0 0.356 0.356 0.711 0.711 0.711s0.711-0.267 0.711-0.711c2.844-0.089 5.511-1.067 7.822-2.489 0.178 0.178 0.356 0.267 0.533 0.267s0.267 0 0.444-0.178c0.267-0.267 0.356-0.622 0.178-0.978 2.133-1.689 3.822-4 4.889-6.578h0.089c0.267 0 0.622-0.178 0.711-0.533 0.178-0.444 0-0.8-0.267-0.978zM24.889 5.067c1.956 1.511 3.378 3.556 4.267 5.867l-2.311 0.711c-0.711-1.867-1.956-3.467-3.467-4.711zM16.711 1.956c2.578 0.089 4.978 0.978 7.022 2.311l-1.422 1.956c-1.6-1.067-3.556-1.689-5.6-1.778zM15.289 1.956v2.4c-2.044 0.089-3.911 0.8-5.6 1.778l-1.422-1.867c2.044-1.333 4.444-2.222 7.022-2.311zM7.111 5.067l1.422 1.956c-1.511 1.244-2.667 2.844-3.467 4.711l-2.311-0.711c0.978-2.4 2.4-4.356 4.356-5.956zM1.867 15.911c0-1.244 0.178-2.4 0.444-3.556l2.311 0.711c-0.267 0.889-0.356 1.867-0.356 2.933 0 0.978 0.089 1.956 0.356 2.933l-2.222 0.711c-0.356-1.244-0.533-2.4-0.533-3.733zM7.2 26.844c-1.867-1.511-3.378-3.556-4.356-5.867l2.222-0.711c0.711 1.867 1.956 3.467 3.467 4.711zM15.289 29.867c-2.578-0.089-4.889-0.889-6.933-2.222l1.333-1.867c1.6 1.067 3.556 1.689 5.6 1.778zM16 26.222c-4.533 0-8.444-2.933-9.778-7.022-0.356-0.978-0.533-2.044-0.533-3.111s0.178-2.133 0.533-3.111c1.333-4.089 5.244-7.022 9.778-7.022s8.444 2.933 9.778 7.022c0.356 0.978 0.533 2.044 0.533 3.111s-0.178 2.133-0.533 3.111c-1.333 4-5.244 7.022-9.778 7.022zM16.711 29.867v-2.311c2.044-0.089 3.911-0.8 5.6-1.778l1.333 1.867c-2.044 1.333-4.356 2.133-6.933 2.222zM24.8 26.844l-1.333-1.867c1.511-1.244 2.667-2.844 3.467-4.711l2.222 0.711c-0.889 2.311-2.4 4.356-4.356 5.867zM29.6 19.644l-2.222-0.711c0.267-0.889 0.356-1.867 0.356-2.933 0-0.978-0.089-1.956-0.356-2.933l2.311-0.711c0.267 1.156 0.444 2.311 0.444 3.556 0 1.333-0.178 2.489-0.533 3.733z"></path>
</svg>
