<!-- Generated by IcoMoon.io -->
<svg version="1.1" xmlns="http://www.w3.org/2000/svg" width="29" height="32" viewBox="0 0 29 32">
<title>Union</title>
<path d="M18.817 4.153c-0.108-0.285-0.426-0.428-0.712-0.32-2.935 1.115-7.896 1.115-10.831 0-0.286-0.109-0.604 0.034-0.712 0.32s0.035 0.604 0.319 0.712c1.601 0.608 3.705 0.913 5.807 0.913s4.206-0.304 5.808-0.913c0.285-0.108 0.428-0.427 0.32-0.712h0z"></path>
<path d="M25.651 14.768c0.201-0.23 0.548-0.255 0.779-0.055s0.255 0.548 0.055 0.779l-3.311 3.819c-0.105 0.121-0.257 0.19-0.417 0.19h-0.010c-0.163-0.003-0.317-0.078-0.419-0.205l-1.902-2.352c-0.192-0.237-0.155-0.585 0.082-0.776s0.585-0.155 0.776 0.082l1.488 1.84 2.879-3.321z"></path>
<path d="M25.38 4.641c0-2.167-0.967-3.29-1.779-3.852-1.371-0.948-3.425-1.048-5.496-0.267-2.934 1.115-7.895 1.115-10.832-0-2.069-0.781-4.124-0.681-5.495 0.267-0.812 0.561-1.779 1.685-1.779 3.852 0 8.39 0.786 13.343 2.404 15.145 0.924 1.028 1.481 4.018 1.569 8.419 0.034 1.914 1.325 3.533 3.004 3.764 0.15 0.021 0.298 0.031 0.446 0.031 0.782 0 1.532-0.285 2.149-0.822 0.828-0.722 1.304-1.801 1.304-2.96v-5.297c0-1.153 0.814-2.091 1.815-2.091 0.474 0 0.921 0.209 1.261 0.589 0.357 0.398 0.554 0.932 0.554 1.502v5.164c0 2.012 1.322 3.684 3.076 3.892 0.921 0.106 1.818-0.18 2.532-0.805 0.802-0.702 1.274-1.749 1.294-2.873 0.033-1.889 0.178-4.444 0.649-6.362 0.437 0.112 0.892 0.178 1.363 0.178 3.042 0 5.517-2.475 5.517-5.518 0-2.434-1.586-4.502-3.778-5.232 0.148-1.927 0.221-4.13 0.221-6.723zM20.305 28.279c-0.015 0.813-0.349 1.564-0.918 2.062-0.477 0.417-1.071 0.61-1.678 0.539-1.178-0.139-2.1-1.367-2.1-2.796v-5.164c0-0.842-0.297-1.638-0.836-2.238-0.543-0.607-1.303-0.956-2.083-0.956-1.609 0-2.919 1.433-2.919 3.194v5.297c0 0.84-0.337 1.616-0.925 2.129-0.49 0.427-1.103 0.613-1.719 0.531-1.145-0.158-2.027-1.315-2.051-2.692-0.095-4.802-0.719-7.876-1.851-9.136-0.968-1.078-2.121-4.452-2.121-14.407 0-1.336 0.451-2.354 1.303-2.944 1.073-0.742 2.747-0.795 4.476-0.143 3.203 1.216 8.414 1.216 11.613 0 1.732-0.653 3.406-0.599 4.478 0.143 0.853 0.589 1.303 1.607 1.303 2.944 0 0.947-0 3.702-0.205 6.48-0.214-0.025-0.431-0.042-0.652-0.042-3.042 0-5.518 2.475-5.518 5.517 0 2.18 1.274 4.063 3.114 4.959-0.519 2.037-0.677 4.74-0.711 6.724l0-0zM23.42 21.011c-2.434 0-4.414-1.98-4.414-4.414s1.98-4.414 4.414-4.414c2.434 0 4.414 1.98 4.414 4.414s-1.98 4.414-4.414 4.414z"></path>
</svg>
