<!-- Generated by IcoMoon.io -->
<svg version="1.1" xmlns="http://www.w3.org/2000/svg" width="32" height="32" viewBox="0 0 32 32">
<title>usb</title>
<path fill="#fff" d="M2.667 6.4v-4.8c0-0.294 0.239-0.533 0.533-0.533h5.333c0.294 0 0.534 0.239 0.534 0.533v4.8h-6.4zM9.6 7.467c0.295 0 0.533-0.239 0.533-0.534v-5.333c0-0.883-0.716-1.6-1.6-1.6h-5.333c-0.883 0-1.6 0.717-1.6 1.6v5.333c0 0.295 0.239 0.534 0.533 0.534h7.467z"></path>
<path fill="#fff" d="M1.067 20.266v-12.8h9.6v12.8h-9.6zM10.667 21.333c0.589 0 1.066-0.477 1.066-1.067v-12.8c0-0.59-0.477-1.067-1.066-1.067h-9.6c-0.589 0-1.067 0.477-1.067 1.067v12.8c0 0.589 0.478 1.067 1.067 1.067h9.6z"></path>
<path fill="#fff" d="M4.267 21.333h3.2v1.6h-3.2v-1.6zM7.467 24c0.589 0 1.067-0.477 1.067-1.067v-2.133c0-0.295-0.239-0.533-0.533-0.533h-4.267c-0.294 0-0.533 0.239-0.533 0.533v2.133c0 0.59 0.478 1.067 1.067 1.067h3.2z"></path>
<path fill="#fff" d="M19.733 9.6h10.667c0.295 0 0.533-0.239 0.533-0.534v-8.533c0-0.295-0.239-0.533-0.533-0.533h-10.667c-0.294 0-0.533 0.239-0.533 0.533v8.533c0 0.295 0.239 0.534 0.533 0.534zM20.267 1.066h9.6v7.467h-9.6v-7.467z"></path>
<path fill="#fff" d="M19.2 20.266v-10.667h11.733v10.667h-11.733zM30.933 21.333c0.589 0 1.067-0.477 1.067-1.067v-10.667c0-0.589-0.478-1.067-1.067-1.067h-11.733c-0.589 0-1.067 0.477-1.067 1.067v10.667c0 0.589 0.478 1.067 1.067 1.067h11.733z"></path>
<path fill="#fff" d="M23.467 21.333h3.2v1.6h-3.2v-1.6zM26.667 24c0.589 0 1.067-0.477 1.067-1.067v-2.133c0-0.295-0.239-0.533-0.533-0.533h-4.267c-0.294 0-0.533 0.239-0.533 0.533v2.133c0 0.59 0.478 1.067 1.067 1.067h3.2z"></path>
<path fill="#fff" d="M21.867 6.4h2.133c0.295 0 0.533-0.239 0.533-0.534v-2.133c0-0.295-0.239-0.533-0.533-0.533h-2.133c-0.295 0-0.533 0.239-0.533 0.533v2.133c0 0.295 0.239 0.534 0.533 0.534zM22.4 5.333v-1.067h1.067v1.067h-1.067z"></path>
<path fill="#fff" d="M26.133 6.4h2.134c0.294 0 0.533-0.239 0.533-0.534v-2.133c0-0.295-0.239-0.533-0.533-0.533h-2.134c-0.294 0-0.533 0.239-0.533 0.533v2.133c0 0.295 0.239 0.534 0.533 0.534zM26.667 5.333v-1.067h1.067v1.067h-1.067z"></path>
<path fill="#fff" d="M7.467 25.614v-2.148c0-0.295-0.239-0.533-0.533-0.533h-2.133c-0.295 0-0.533 0.239-0.533 0.533v2.148c0 3.527 2.868 6.386 6.4 6.386h9.6c3.53 0 6.4-2.865 6.4-6.393v-2.14c0-0.295-0.239-0.533-0.533-0.533h-2.133c-0.295 0-0.533 0.239-0.533 0.533v2.14c0 1.762-1.434 3.193-3.2 3.193h-9.6c-1.767 0-3.2-1.425-3.2-3.186v-0zM25.6 24v1.607c0 2.939-2.392 5.327-5.333 5.327h-9.6c-2.943 0-5.333-2.382-5.333-5.319v-1.615h1.067v1.615c0 2.351 1.912 4.252 4.267 4.252h9.6c2.354 0 4.267-1.908 4.267-4.26v-1.607h1.067z"></path>
</svg>
