<!-- Generated by IcoMoon.io -->
<svg version="1.1" xmlns="http://www.w3.org/2000/svg" width="32" height="32" viewBox="0 0 32 32">
<title>vegan</title>
<path d="M16.64 0.267c-0.373-0.32-0.907-0.32-1.28 0-0.32 0.267-8.16 7.573-8.16 14.027 0 5.76 2.933 9.333 7.84 9.707v3.573h1.92v-3.573c4.907-0.373 7.84-3.947 7.84-9.707 0-6.453-7.84-13.76-8.16-14.027zM15.040 22.133c-3.84-0.373-5.92-3.147-5.92-7.84 0-0.16 0-0.267 0-0.427l5.92 5.867zM15.040 17.067l-5.44-5.44c0.373-1.12 0.96-2.293 1.6-3.36l3.84 3.84zM15.040 9.44l-2.773-2.773c0.96-1.333 1.973-2.507 2.773-3.413zM16.96 3.253c0.8 0.853 1.813 2.080 2.773 3.413l-2.773 2.773zM16.96 12.107l3.84-3.84c0.64 1.067 1.227 2.24 1.6 3.36l-5.44 5.44zM16.96 22.133v-2.4l5.92-5.867v0.427c0 4.693-2.080 7.467-5.92 7.84zM15.040 32h1.92v-2.827h-1.92z"></path>
</svg>
