<svg width="24" height="24" fill="none" xmlns="http://www.w3.org/2000/svg"><path d="M11.46 1.305a3.274 3.274 0 0 0-.822.317c-.123.074-.627.479-1.12.901-.552.47-.983.807-1.118.871-.219.106-.223.106-1.48.13-1.388.027-1.458.037-1.965.302-.66.345-1.179.987-1.355 1.674-.07.274-.08.444-.08 1.358 0 1.099-.027 1.328-.197 1.653-.043.082-.386.509-.762.949-.816.955-1.034 1.266-1.163 1.662-.087.265-.098.367-.097.918.002.569.01.642.105.89.165.428.315.64 1.133 1.603.587.691.791.96.862 1.136.088.218.095.299.119 1.471.023 1.119.034 1.265.112 1.5.129.39.355.747.671 1.06a2.57 2.57 0 0 0 1.024.651c.287.104.318.106 1.553.127l1.26.022.26.126c.184.088.5.333 1.076.832.449.388.895.761.991.827a2.7 2.7 0 0 0 1.713.46c.832-.056 1.1-.2 2.319-1.246.733-.629 1.004-.838 1.177-.907.209-.082.307-.09 1.444-.112l1.22-.023.342-.121a2.688 2.688 0 0 0 1.654-1.654l.121-.342.025-1.22c.015-.728.043-1.274.07-1.354.081-.241.199-.4.923-1.239.393-.456.789-.944.88-1.085.421-.651.517-1.633.234-2.402-.129-.352-.37-.686-1.127-1.56-.501-.579-.747-.896-.836-1.08l-.126-.26-.023-1.24c-.021-1.124-.031-1.264-.109-1.5a2.876 2.876 0 0 0-1.079-1.414c-.592-.392-.796-.433-2.269-.462-1.194-.024-1.201-.025-1.42-.13-.138-.067-.549-.391-1.099-.867-.954-.826-1.143-.959-1.588-1.117-.252-.09-.369-.106-.833-.115a5.792 5.792 0 0 0-.62.01m1.086 1.567c.092.047.56.424 1.04.837.985.847 1.153.965 1.601 1.129.45.164.807.202 1.889.202 1.082 0 1.202.023 1.5.284.1.089.229.26.292.387l.112.229.021 1.22c.021 1.206.023 1.224.133 1.54.188.537.323.738 1.153 1.706.441.514.824.979.853 1.035.155.298.148.833-.015 1.145-.044.085-.408.532-.808.994-.778.898-.932 1.108-1.089 1.482-.191.457-.198.513-.224 1.798-.023 1.189-.028 1.248-.117 1.428a1.43 1.43 0 0 1-.599.599c-.18.089-.239.094-1.408.117-1.347.027-1.464.045-1.978.302-.365.183-.35.172-1.322 1.014-.954.825-1.127.931-1.536.933-.477.003-.566-.049-1.621-.952-.994-.85-1.236-1.013-1.763-1.184-.258-.084-.375-.093-1.52-.115-1.056-.021-1.263-.035-1.397-.094a1.348 1.348 0 0 1-.604-.553l-.119-.215-.023-1.24c-.021-1.148-.03-1.261-.115-1.52-.193-.591-.303-.757-1.223-1.841-.385-.453-.74-.899-.789-.992-.129-.243-.129-.81 0-1.067.05-.099.433-.583.851-1.076.418-.494.813-.989.877-1.101.065-.113.176-.375.248-.584l.131-.379.022-1.22c.019-1.133.027-1.233.105-1.4.116-.246.347-.471.613-.595.221-.103.235-.104 1.463-.128 1.365-.026 1.419-.035 1.96-.305.311-.155.362-.194 1.3-.993.901-.768.965-.816 1.165-.881.252-.082.73-.054.941.054m2.774 6.011c-.077.046-1.13 1.072-2.34 2.281l-2.201 2.197-1.018-1.02c-1.127-1.131-1.218-1.196-1.526-1.104-.09.027-.24.12-.335.207-.293.271-.368.536-.233.83.08.173 2.506 2.633 2.77 2.808a.622.622 0 0 0 .59.076c.14-.052 5.098-4.99 5.257-5.236.157-.24.155-.444-.003-.695-.24-.377-.655-.526-.961-.344" fill-rule="evenodd" fill="#000"/></svg>