<!-- Generated by IcoMoon.io -->
<svg version="1.1" xmlns="http://www.w3.org/2000/svg" width="32" height="32" viewBox="0 0 32 32">
<title>vibrating</title>
<path d="M5.467 5.4c0.2-0.2 0.2-0.6 0-0.8s-0.6-0.2-0.8 0c-6.267 6.267-6.267 16.533 0 22.8 0.133 0.133 0.267 0.133 0.4 0.133s0.267-0.067 0.4-0.133c0.2-0.2 0.2-0.6 0-0.8-5.8-5.867-5.8-15.333 0-21.2zM27.333 4.6c-0.2-0.2-0.533-0.2-0.8 0-0.2 0.2-0.2 0.6 0 0.8 2.8 2.8 4.333 6.6 4.333 10.6s-1.533 7.8-4.333 10.6c-0.2 0.2-0.2 0.6 0 0.8 0.133 0.133 0.267 0.133 0.4 0.133s0.267-0.067 0.4-0.133c3-3.067 4.667-7.067 4.667-11.4s-1.667-8.333-4.667-11.4zM7.8 7.733c0.2-0.2 0.2-0.6 0-0.8s-0.533-0.2-0.8 0c-4.933 5-4.933 13.067 0 18.067 0.133 0.133 0.267 0.133 0.4 0.133s0.267-0.067 0.4-0.133c0.2-0.2 0.2-0.6 0-0.8-4.533-4.467-4.533-11.933 0-16.467zM25 6.933c-0.2-0.2-0.533-0.2-0.8 0-0.2 0.2-0.2 0.6 0 0.8 4.533 4.533 4.533 11.933 0 16.467-0.2 0.2-0.2 0.6 0 0.8 0.133 0.133 0.267 0.133 0.4 0.133s0.267-0.067 0.4-0.133c4.933-4.933 4.933-13.067 0-18.067zM10.133 10.133c0.2-0.2 0.2-0.6 0-0.8s-0.533-0.2-0.8 0c-1.8 1.8-2.733 4.133-2.733 6.667s1 4.867 2.733 6.667c0.133 0.133 0.267 0.133 0.4 0.133s0.267-0.067 0.4-0.133c0.2-0.2 0.2-0.6 0-0.8-3.2-3.2-3.2-8.533 0-11.733zM22.667 9.333c-0.2-0.2-0.533-0.2-0.8 0-0.2 0.2-0.2 0.6 0 0.8 3.2 3.267 3.2 8.533 0 11.8-0.2 0.2-0.2 0.6 0 0.8 0.133 0.133 0.267 0.133 0.4 0.133s0.267-0.067 0.4-0.133c1.8-1.8 2.733-4.133 2.733-6.667 0-2.6-1-4.933-2.733-6.733zM16 13.333c-1.533 0-2.733 1.267-2.733 2.8s1.267 2.8 2.733 2.8c1.533 0 2.733-1.267 2.733-2.8s-1.2-2.8-2.733-2.8z"></path>
</svg>
