<svg xmlns="http://www.w3.org/2000/svg" width="32" height="32"><path d="M9.84 2.108c-2.576.226-4.751 1.253-5.968 2.818-1.015 1.305-1.553 2.86-1.801 5.207-.102.958-.102 10.776 0 11.734.321 3.036 1.209 4.978 2.862 6.266 1.295 1.009 2.857 1.548 5.2 1.796.958.102 10.776.102 11.734 0 2.347-.248 3.902-.786 5.207-1.801 1.291-1.004 2.194-2.594 2.606-4.589.312-1.511.362-2.779.332-8.377-.016-2.95-.047-4.765-.086-5.109-.269-2.331-.799-3.842-1.798-5.127-1.24-1.595-3.362-2.581-6.075-2.823-1.084-.096-11.101-.093-12.213.005m5.467 3.972V8.8H9.972l.014-2.68L10 3.44l.32-.031c.176-.017 1.37-.035 2.653-.04l2.334-.009v2.72m6.226-2.685.44.034V8.8h-5.28V3.36h2.2c1.21 0 2.398.016 2.64.035m3.069.626c.455.171 1.125.518 1.461.756.84.597 1.541 1.575 1.956 2.73.12.333.354 1.169.354 1.262 0 .017-1.14.031-2.533.031h-2.533V3.634l.466.125c.257.069.63.187.829.262M8.64 6.24V8.8H3.618l.037-.173c.245-1.137.794-2.334 1.383-3.016.713-.825 1.69-1.415 2.966-1.793.247-.073.491-.134.543-.135.087-.003.093.153.093 2.557m6.667 9.893v6H3.479l-.043-.12c-.053-.147-.098-10.701-.048-11.386l.035-.494h11.884v6m13.305-5.506c.05.685.005 11.239-.048 11.386l-.043.12H16.693v-12h11.884l.035.494M8.64 25.899v2.433l-.2-.036c-.364-.066-1.299-.4-1.739-.622-1.368-.688-2.248-1.756-2.778-3.372a13.967 13.967 0 0 1-.212-.689l-.033-.146H8.64v2.432m6.667.188v2.621l-2.334-.034c-1.283-.019-2.483-.049-2.666-.067l-.334-.033V23.467h5.334v2.62m6.666-.067v2.553l-.306.034c-.169.018-1.357.049-2.64.067l-2.334.034v-5.241h5.28v2.553m6.316-2.407c-.17.743-.669 1.89-1.064 2.447-.735 1.034-1.888 1.762-3.452 2.181l-.466.125v-4.899H28.322l-.033.146" fill-rule="evenodd"/></svg>