<svg xmlns="http://www.w3.org/2000/svg" width="32" height="32"><path d="M7.227 4.142c-.147.011-.525.056-.841.101-2.612.37-3.902 1.697-4.293 4.418C2.009 9.247 2 9.913 2 15.867c0 6.013.008 6.603.093 7.079.107.595.365 1.437.559 1.827a5.428 5.428 0 0 0 3.387 2.823c1.038.297 1.216.304 6.932.282 5.084-.019 5.26-.023 5.829-.133 2.851-.552 4.003-2.066 4.175-5.489l.038-.756 1.067.751c2.123 1.496 2.342 1.621 3.12 1.779.362.073.507.079.789.032.968-.16 1.645-.878 1.916-2.03.088-.376.095-.818.095-6.032s-.007-5.656-.095-6.032c-.332-1.415-1.303-2.176-2.577-2.021-.727.088-1.101.288-2.875 1.532l-1.44 1.011-.038-.752c-.162-3.214-1.25-4.808-3.668-5.372-.943-.219-.943-.219-6.48-.231-2.934-.007-5.454-.003-5.6.007m11.28 1.425c1.96.37 2.678 1.1 3.022 3.073.091.523.098 1.006.098 7.333 0 5.358-.015 6.867-.071 7.22-.304 1.925-.952 2.725-2.531 3.125-.913.232-1.479.251-6.812.229-4.856-.019-4.998-.023-5.443-.132-1.519-.374-2.53-1.22-3.043-2.547-.356-.921-.334-.451-.353-7.758-.015-5.78-.006-6.719.067-7.278.089-.687.315-1.451.545-1.845.524-.896 1.528-1.35 3.347-1.513.118-.01 2.566-.015 5.44-.011 4.78.008 5.27.017 5.734.104m9.42 3.713c.138 0 .493.379.59.63.091.236.096.584.096 6.09 0 6.562.026 6.143-.397 6.524-.26.236-.538.288-.921.174-.406-.121-.684-.295-2.591-1.631l-1.713-1.2-.002-3.868-.002-3.867 1.8-1.259c2.144-1.499 2.474-1.683 2.913-1.616.084.013.186.023.227.023m-13.34.819c-.601.198-1.198.651-1.521 1.155-.517.806-.519 2.017-.003 2.82a2.655 2.655 0 0 0 2.27 1.248c.736 0 1.292-.221 1.825-.725.573-.541.825-1.129.827-1.93.002-1.07-.561-1.946-1.558-2.422-.379-.181-.433-.192-1.014-.204-.398-.008-.688.012-.826.058m1.443 1.45c.778.48.824 1.648.086 2.183-.876.636-2.089.025-2.089-1.051 0-.54.245-.953.705-1.186.242-.122.335-.14.66-.125.309.015.426.047.638.179" fill-rule="evenodd"/></svg>