<!-- Generated by IcoMoon.io -->
<svg version="1.1" xmlns="http://www.w3.org/2000/svg" width="32" height="32" viewBox="0 0 32 32">
<title>view</title>
<path d="M29.565 15.374l-26.365-15.304c-0.348-0.209-0.835-0.070-1.043 0.278s-0.070 0.835 0.278 1.043l13.009 7.513c-0.974 1.322-4.591 6.817 0.070 14.191l-13.078 7.513c-0.348 0.209-0.487 0.696-0.278 1.043 0.139 0.209 0.417 0.348 0.696 0.348 0.139 0 0.278 0 0.348-0.070l26.365-15.235c0.209-0.139 0.348-0.348 0.348-0.626 0-0.348-0.139-0.557-0.348-0.696zM16.626 22.4c-1.043-1.391-4.243-6.47-0.417-13.078l11.478 6.678z"></path>
</svg>
