<!-- Generated by IcoMoon.io -->
<svg version="1.1" xmlns="http://www.w3.org/2000/svg" width="32" height="32" viewBox="0 0 32 32">
<title>voice-2</title>
<path d="M31.062 18.311h-0.911c-0.5 0-0.908-0.405-0.908-0.904v-1.99c0-1.868-1.524-3.387-3.399-3.387s-3.399 1.519-3.399 3.387v10.092c0 0.837-0.684 1.518-1.524 1.518s-1.524-0.681-1.524-1.518v-19.011c0-1.868-1.524-3.387-3.398-3.387s-3.399 1.519-3.399 3.387v19.011c0 0.837-0.684 1.518-1.524 1.518s-1.524-0.681-1.524-1.518v-10.092c0-1.868-1.525-3.387-3.399-3.387s-3.399 1.519-3.399 3.387v1.99c0 0.499-0.407 0.904-0.908 0.904h-0.911c-0.518 0-0.938 0.419-0.938 0.934s0.42 0.934 0.938 0.934h0.911c0.827 0 1.571-0.362 2.080-0.934 0.436-0.49 0.702-1.133 0.702-1.838v-1.99c0-0.837 0.684-1.518 1.524-1.518s1.524 0.681 1.524 1.518v10.092c0 1.868 1.524 3.387 3.398 3.387s3.399-1.519 3.399-3.387v-19.011c0-0.837 0.684-1.518 1.524-1.518s1.524 0.681 1.524 1.518v19.011c0 1.868 1.525 3.387 3.399 3.387s3.398-1.52 3.398-3.387v-10.092c0-0.837 0.684-1.518 1.524-1.518s1.524 0.681 1.524 1.518v1.99c0 0.705 0.266 1.348 0.702 1.838 0.51 0.572 1.253 0.934 2.080 0.934h0.911c0.518 0 0.938-0.418 0.938-0.934 0.004-0.516-0.416-0.934-0.934-0.934z"></path>
</svg>
