<!-- Generated by IcoMoon.io -->
<svg version="1.1" xmlns="http://www.w3.org/2000/svg" width="32" height="32" viewBox="0 0 32 32">
<title>warranted</title>
<path d="M11.707 11.59l2.021 1.742-0.612 2.596c-0.045 0.191 0.029 0.389 0.187 0.504s0.37 0.124 0.537 0.022l2.274-1.39 2.274 1.39c0.167 0.102 0.379 0.093 0.537-0.022s0.232-0.314 0.187-0.504l-0.612-2.596 2.021-1.742c0.148-0.128 0.204-0.332 0.144-0.518s-0.226-0.317-0.421-0.334l-2.658-0.217-1.026-2.462c-0.075-0.181-0.252-0.298-0.448-0.298s-0.372 0.118-0.447 0.298l-1.026 2.462-2.658 0.217c-0.422 0.029-0.602 0.579-0.277 0.852h-0zM15.422 11.169l0.692-1.661 0.692 1.661c0.070 0.167 0.227 0.282 0.408 0.296l1.796 0.147-1.365 1.177c-0.102 0.088-0.162 0.213-0.168 0.347-0.054-0.077 0.43 1.877 0.425 1.884l-1.536-0.939c-0.155-0.095-0.35-0.095-0.505 0l-1.536 0.939 0.413-1.752c0.042-0.176-0.018-0.361-0.155-0.48l-1.365-1.177 1.796-0.147c0.18-0.015 0.338-0.129 0.407-0.296l0 0zM25.345 19.087v-2.618c0-0.34 0.138-0.666 0.382-0.903l1.854-1.858c0.417-0.424 0.65-0.995 0.65-1.59s-0.234-1.165-0.652-1.589l-1.857-1.862c-0.241-0.237-0.377-0.56-0.377-0.898v-2.613c0-0.601-0.238-1.177-0.663-1.602s-1-0.665-1.601-0.666h-2.613c-0.341 0-0.668-0.135-0.908-0.376l-1.858-1.858c-0.423-0.418-0.994-0.652-1.588-0.652s-1.165 0.235-1.588 0.653l-1.859 1.859c-0.24 0.24-0.566 0.375-0.906 0.374h-2.613c-0.6 0.001-1.176 0.239-1.6 0.664s-0.663 1-0.664 1.6v2.618c-0 0.34-0.138 0.666-0.382 0.904l-1.853 1.857c-0.417 0.424-0.651 0.995-0.651 1.59s0.234 1.166 0.651 1.59l1.857 1.863c0.241 0.236 0.377 0.56 0.377 0.897v2.613c0.001 0.508 0.173 1.001 0.487 1.4s0.754 0.681 1.248 0.8l-4.18 6.805c-0.102 0.166-0.094 0.378 0.020 0.537s0.312 0.233 0.503 0.189l3.554-0.825 0.823 3.635c0.044 0.192 0.2 0.339 0.395 0.371s0.389-0.058 0.492-0.226l4.762-7.841c0.341 0.202 0.73 0.308 1.126 0.308s0.785-0.106 1.126-0.307l4.761 7.84c0.103 0.169 0.297 0.258 0.492 0.226s0.351-0.179 0.395-0.371l0.823-3.635 3.553 0.826c0.19 0.044 0.389-0.031 0.503-0.189s0.122-0.37 0.020-0.537l-4.179-6.806c0.493-0.118 0.933-0.399 1.247-0.797s0.486-0.89 0.488-1.398l-0 0zM10.021 30.239l-0.666-2.941c-0.029-0.126-0.106-0.235-0.215-0.304s-0.241-0.091-0.367-0.062l-2.899 0.673 3.842-6.256 2.046-0c0.341-0.002 0.668 0.134 0.908 0.377 0.485 0.488 1.358 1.368 1.565 1.573l-4.214 6.939zM23.457 26.933c-0.262-0.059-0.522 0.104-0.582 0.365l-0.666 2.941-4.215-6.942c0.236-0.237 0.687-0.692 1.572-1.576v0c0.239-0.24 0.564-0.374 0.903-0.372h2.046l3.842 6.256-2.899-0.673zM24.375 19.087h0c-0 0.343-0.137 0.672-0.38 0.915s-0.571 0.379-0.915 0.38h-2.613c-0.598-0.002-1.172 0.236-1.594 0.661-0.001 0.004-1.84 1.837-1.84 1.841v0c-0.245 0.248-0.58 0.386-0.929 0.384s-0.682-0.146-0.923-0.398l-1.822-1.822c-0.422-0.428-0.998-0.668-1.598-0.666h-2.613c-0.344-0.001-0.673-0.138-0.916-0.382s-0.379-0.573-0.378-0.917v-2.613c0-0.597-0.239-1.169-0.665-1.588l-1.85-1.855c-0.238-0.242-0.372-0.567-0.372-0.906s0.133-0.665 0.37-0.907l1.846-1.851c0.429-0.42 0.67-0.994 0.671-1.594v-2.618c0-0.343 0.137-0.672 0.379-0.915s0.572-0.379 0.915-0.379c4.156-0.019 3.123 0.384 6.062-2.516 0.241-0.238 0.565-0.371 0.903-0.371s0.663 0.133 0.904 0.37l1.854 1.854c0.423 0.424 0.997 0.663 1.596 0.663h2.613c0.344 0.001 0.673 0.138 0.916 0.382s0.379 0.573 0.378 0.917v2.613c0 0.597 0.24 1.169 0.665 1.588l1.851 1.856c0.238 0.242 0.371 0.567 0.371 0.906s-0.133 0.664-0.37 0.906l-1.846 1.851c-0.429 0.42-0.67 0.994-0.671 1.594l-0 2.617zM21.195 5.315h-10.156c-0.458 0-0.896 0.182-1.22 0.506s-0.506 0.762-0.506 1.22v10.156c0.001 0.457 0.184 0.895 0.507 1.218s0.762 0.504 1.219 0.503h10.15c0.457 0 0.895-0.181 1.219-0.503s0.506-0.761 0.507-1.218v-10.156c0-0.457-0.181-0.895-0.504-1.219s-0.76-0.506-1.217-0.507l0.001-0zM10.297 17.176v-10.126c0.001-0.414 0.336-0.75 0.751-0.75h10.134c0.414 0 0.749 0.336 0.75 0.75v10.127c-0.002 0.42-0.344 0.758-0.763 0.757h-10.107c-0.42 0.001-0.761-0.338-0.763-0.757l-0 0z"></path>
</svg>
