<!-- Generated by IcoMoon.io -->
<svg version="1.1" xmlns="http://www.w3.org/2000/svg" width="32" height="32" viewBox="0 0 32 32">
<title>warranty</title>
<path d="M16.095 0c-3.031 0-5.938 1.204-8.081 3.347s-3.347 5.050-3.347 8.081c0 3.031 1.204 5.938 3.347 8.081s5.050 3.347 8.081 3.347c3.031 0 5.938-1.204 8.081-3.347s3.347-5.050 3.347-8.081c-0.003-3.030-1.208-5.935-3.351-8.078s-5.047-3.348-8.078-3.351l0 0zM20.314 9.968l-4.8 4.604c-0.212 0.204-0.496 0.319-0.791 0.319-0.032 0.002-0.063 0.002-0.095 0-0.327-0.027-0.626-0.194-0.822-0.457l-2.057-2.763c-0.215-0.328-0.247-0.743-0.085-1.1s0.496-0.606 0.884-0.66c0.388-0.054 0.777 0.095 1.030 0.395l1.283 1.723 3.866-3.709c0.295-0.283 0.718-0.387 1.11-0.272s0.694 0.429 0.791 0.825c0.097 0.396-0.024 0.815-0.319 1.097l0.005-0.003z"></path>
<path d="M8.095 22.56v7.154c0.001 0.554 0.203 1.088 0.569 1.505s0.87 0.685 1.419 0.757c0.549 0.072 1.106-0.057 1.567-0.365l4.446-2.96 4.446 2.96c0.342 0.232 0.742 0.366 1.155 0.386s0.824-0.074 1.188-0.272c0.367-0.192 0.674-0.482 0.887-0.836s0.326-0.761 0.324-1.175v-7.154c-2.33 1.679-5.128 2.583-8 2.583s-5.67-0.904-8-2.583h0z"></path>
</svg>
