<!-- Generated by IcoMoon.io -->
<svg version="1.1" xmlns="http://www.w3.org/2000/svg" width="32" height="32" viewBox="0 0 32 32">
<title>washing-hands-1</title>
<path d="M22.745 20.615c-0.401-0.327-0.925-0.475-1.438-0.408l-4.681 0.617c-0.131 0.017-0.198-0.068-0.221-0.106s-0.068-0.137 0.008-0.245l0.646-0.925c0.148-0.212 0.096-0.505-0.116-0.653s-0.505-0.096-0.653 0.116l-0.646 0.925c-0.268 0.383-0.283 0.869-0.040 1.269s0.681 0.609 1.145 0.548l4.681-0.617c0.262-0.034 0.518 0.038 0.723 0.205s0.328 0.404 0.347 0.667c0.030 0.418-0.212 0.8-0.601 0.952l-8.842 3.447c-1.176 0.458-2.46 0.633-3.716 0.506l-0.71-0.072c-0.102-0.010-0.205 0.013-0.292 0.067l-5.243 3.211c-0.221 0.135-0.29 0.424-0.155 0.645 0.088 0.144 0.242 0.224 0.4 0.224 0.083 0 0.168-0.022 0.244-0.069l5.109-3.128 0.552 0.056c1.402 0.142 2.838-0.053 4.151-0.565l4.199-1.637 1.543 5.012c0.062 0.202 0.248 0.331 0.448 0.331 0.046 0 0.092-0.007 0.138-0.021 0.247-0.076 0.386-0.338 0.31-0.586l-1.563-5.078 3.767-1.469c0.775-0.302 1.256-1.063 1.196-1.893-0.037-0.516-0.289-0.999-0.69-1.326z"></path>
<path d="M4.338 15.904l0.71-0.701c0.184-0.182 0.186-0.479 0.004-0.663s-0.479-0.186-0.663-0.004l-0.709 0.7c-0.657 0.645-1.162 1.447-1.458 2.319l-0.316 0.928-1.721 1.313c-0.206 0.157-0.245 0.451-0.088 0.657 0.092 0.121 0.232 0.184 0.373 0.184 0.099 0 0.199-0.031 0.284-0.096l1.835-1.4c0.074-0.056 0.13-0.134 0.159-0.222l0.362-1.063c0.25-0.734 0.674-1.409 1.229-1.953z"></path>
<path d="M28.901 26.389c-0.079-0.247-0.343-0.382-0.59-0.303s-0.382 0.343-0.303 0.589l1.277 3.986c0.064 0.199 0.248 0.326 0.446 0.326 0.047 0 0.096-0.007 0.143-0.023 0.246-0.079 0.382-0.343 0.303-0.589l-1.277-3.986z"></path>
<path d="M26.488 16.997c0.716-0.899 1.253-1.91 1.597-3.007l1.27-4.054c0.077-0.247-0.060-0.51-0.307-0.587s-0.51 0.060-0.587 0.307l-1.27 4.054c-0.309 0.986-0.792 1.895-1.435 2.703l-0.299 0.375c-0.19 0.239-0.292 0.54-0.286 0.848v0c0.003 0.131 0.157 0.674 0.157 0.674 0.064 0.199 0.248 0.326 0.446 0.326 0.044 0 0.089-0.006 0.134-0.020l0.022-0.006c0.121-0.035 0.223-0.116 0.283-0.226s0.074-0.24 0.037-0.36l-0.138-0.455c0.008-0.072 0.034-0.14 0.078-0.195l0.299-0.375z"></path>
<path d="M0.919 10.443c0 0.829 0.674 1.503 1.503 1.503s1.503-0.674 1.503-1.503c0-0.829-0.674-1.503-1.503-1.503s-1.503 0.674-1.503 1.503zM2.988 10.443c0 0.312-0.254 0.566-0.566 0.566s-0.566-0.254-0.566-0.566c0-0.312 0.254-0.566 0.566-0.566s0.566 0.254 0.566 0.566z"></path>
<path d="M30.259 13.236c-0.96 0-1.741 0.781-1.741 1.741s0.781 1.741 1.741 1.741c0.96 0 1.741-0.781 1.741-1.741s-0.781-1.741-1.741-1.741zM30.259 15.78c-0.443 0-0.803-0.36-0.803-0.803s0.36-0.803 0.803-0.803c0.443 0 0.803 0.36 0.803 0.803s-0.36 0.803-0.803 0.803z"></path>
<path d="M2.967 5.91c1.138 0 2.064-0.926 2.064-2.064s-0.926-2.064-2.064-2.064c-1.138 0-2.064 0.926-2.064 2.064s0.926 2.064 2.064 2.064zM2.967 2.721c0.621 0 1.126 0.505 1.126 1.126s-0.505 1.126-1.126 1.126c-0.621 0-1.126-0.505-1.126-1.126s0.505-1.126 1.126-1.126z"></path>
<path d="M23.45 10.394l0.067-0.097h1.412c0.41 0 0.779-0.259 0.919-0.644l0.838-2.307c0.356-0.982 1.174-1.72 2.186-1.977 0.207-0.052 0.419 0.009 0.566 0.164s0.197 0.37 0.133 0.574l-0.513 1.637c-0.077 0.247 0.060 0.51 0.307 0.587s0.51-0.060 0.587-0.307l0.513-1.637c0.167-0.533 0.038-1.093-0.346-1.499s-0.936-0.566-1.477-0.429c-1.314 0.333-2.375 1.292-2.837 2.565l-0.838 2.307c-0.006 0.016-0.021 0.027-0.038 0.027h-0.758l0.191-0.273c0.272-0.39 0.367-0.879 0.26-1.342s-0.407-0.861-0.822-1.092c-0.18-0.1-0.372-0.163-0.567-0.192 0.213-0.59 0.053-1.28-0.448-1.709-0.629-0.538-1.567-0.488-2.135 0.114l-0.281 0.298c-0.096-0.265-0.258-0.504-0.476-0.696-0.025-0.022-0.050-0.043-0.076-0.063 0.034-0.173 0.046-0.351 0.034-0.531-0.069-1.039-0.906-1.857-1.947-1.903-0.418-0.019-0.827 0.090-1.176 0.309-0.386-0.487-0.966-0.771-1.599-0.771-0.718 0-1.358 0.365-1.725 0.947l-0.978-0.961c-0.339-0.333-0.806-0.508-1.28-0.479s-0.917 0.258-1.214 0.629c-0.129 0.161-0.223 0.34-0.284 0.527-0.547-0.308-1.253-0.265-1.76 0.158-0.635 0.531-0.742 1.464-0.243 2.124l0.247 0.327c-0.278 0.050-0.539 0.17-0.765 0.354-0.705 0.572-0.837 1.595-0.3 2.328l0.896 1.222c-0.224 0.051-0.435 0.153-0.621 0.301-0.635 0.508-0.768 1.43-0.303 2.097l0.443 0.636-1.426 1.409c-0.184 0.182-0.186 0.479-0.004 0.663 0.092 0.093 0.213 0.139 0.333 0.139 0.119 0 0.238-0.045 0.329-0.135l8.905-8.799c0.23-0.228 0.6-0.237 0.842-0.021 0.126 0.112 0.198 0.267 0.205 0.435s-0.054 0.328-0.171 0.449l-4.115 4.264c-0.18 0.186-0.176 0.482 0.009 0.663 0.091 0.089 0.209 0.133 0.327 0.133 0.122 0 0.244-0.048 0.336-0.142l5.408-5.563c0.284-0.293 0.747-0.311 1.053-0.041 0.157 0.138 0.249 0.329 0.259 0.538s-0.064 0.408-0.208 0.56l-5.551 5.877c-0.178 0.188-0.169 0.485 0.019 0.663 0.091 0.086 0.206 0.128 0.322 0.128 0.124 0 0.249-0.049 0.341-0.147l6.877-7.281c0.225-0.238 0.596-0.258 0.844-0.045 0.253 0.217 0.286 0.601 0.073 0.858l-6.371 7.612c-0.167 0.198-0.142 0.494 0.056 0.661s0.494 0.142 0.661-0.056l5.819-6.895c0.229-0.272 0.621-0.343 0.931-0.171 0.187 0.104 0.316 0.275 0.364 0.484s0.007 0.419-0.115 0.594l-6.16 8.824c-0.148 0.212-0.096 0.505 0.116 0.653 0.082 0.057 0.175 0.084 0.268 0.084 0.148 0 0.294-0.070 0.385-0.2l0.358-0.512c0.403 0.553 1.038 0.922 1.739 0.966 0.051 0.003 0.102 0.005 0.153 0.005 0.597 0 1.159-0.222 1.597-0.633 0.469-0.44 0.738-1.061 0.738-1.704 0-0.082-0.004-0.165-0.013-0.247 1.324-0.282 2.272-1.444 2.272-2.813 0-1.117-0.631-2.101-1.596-2.577zM10.664 2.229c0.133-0.167 0.324-0.266 0.537-0.279s0.415 0.063 0.567 0.212l0.784 0.771c-0.512 0.191-0.943 0.549-1.227 1.008l-0.648-0.765c-0.23-0.271-0.235-0.669-0.013-0.947zM7.918 11.049l-0.351-0.503c-0.184-0.264-0.131-0.628 0.12-0.829 0.132-0.105 0.296-0.151 0.463-0.129s0.314 0.109 0.413 0.245l0.246 0.336-0.891 0.881zM9.484 9.502l-1.902-2.595c-0.241-0.329-0.182-0.788 0.135-1.045 0.162-0.132 0.367-0.191 0.574-0.165s0.391 0.131 0.518 0.298l1.806 2.391-1.13 1.117zM11.287 7.72l-2.894-3.832c-0.197-0.261-0.155-0.63 0.096-0.84 0.256-0.214 0.64-0.182 0.858 0.070l1.625 1.886c-0.006 0.071-0.010 0.144-0.010 0.217 0 0.757 0.348 1.455 0.921 1.91l-0.596 0.589zM17.548 4.558l-0.293 0.301c-0.088-0.222-0.226-0.421-0.41-0.585-0.61-0.544-1.543-0.521-2.125 0.054l-2.163 2.137c-0.407-0.276-0.659-0.738-0.659-1.243 0-0.828 0.673-1.502 1.5-1.503h0.005c0.31 0 0.577-0.196 0.665-0.487 0.14-0.463 0.575-0.786 1.059-0.786 0.391 0 0.745 0.2 0.948 0.536 0.104 0.172 0.277 0.29 0.474 0.324 0.199 0.034 0.402-0.020 0.559-0.149 0.211-0.173 0.479-0.262 0.752-0.25 0.554 0.025 1.016 0.477 1.053 1.029 0.003 0.038 0.003 0.076 0.002 0.113-0.493-0.043-0.999 0.129-1.369 0.51zM22.485 14.885c-0.211 0.035-0.396 0.149-0.52 0.323-0.122 0.171-0.17 0.38-0.135 0.587 0.013 0.078 0.020 0.158 0.020 0.237 0 0.391-0.157 0.753-0.442 1.021s-0.657 0.401-1.049 0.376c-0.535-0.034-1.006-0.385-1.206-0.879l3.752-5.374c0.722 0.293 1.204 0.993 1.204 1.795 0 0.955-0.683 1.76-1.623 1.914z"></path>
<path d="M29.177 23.564c0-0.285-0.071-0.567-0.206-0.817-0.101-0.187-0.128-0.406-0.075-0.616 0.050-0.201 0.072-0.408 0.064-0.617-0.042-1.1-0.936-2.016-2.034-2.084-0.608-0.038-1.184 0.17-1.626 0.585-0.435 0.409-0.685 0.987-0.685 1.584 0 0.664 0.298 1.284 0.818 1.699 0.168 0.134 0.279 0.322 0.311 0.528 0.007 0.045 0.016 0.091 0.027 0.137 0.175 0.728 0.815 1.272 1.557 1.324 0.042 0.003 0.083 0.004 0.124 0.004 0.439 0 0.852-0.162 1.176-0.464 0.349-0.325 0.549-0.786 0.549-1.263zM27.988 24.141c-0.162 0.151-0.373 0.225-0.596 0.21-0.338-0.023-0.63-0.273-0.71-0.607-0.005-0.021-0.009-0.042-0.013-0.063-0.069-0.439-0.3-0.835-0.652-1.116-0.296-0.236-0.465-0.588-0.465-0.966 0-0.345 0.138-0.665 0.39-0.901 0.232-0.218 0.529-0.335 0.846-0.335 0.026 0 0.053 0.001 0.080 0.003 0.624 0.039 1.131 0.559 1.156 1.184 0.005 0.12-0.008 0.238-0.036 0.352v0c-0.11 0.438-0.054 0.896 0.159 1.29 0.062 0.115 0.093 0.24 0.093 0.372 0 0.221-0.089 0.426-0.251 0.577z"></path>
</svg>
