<!-- Generated by IcoMoon.io -->
<svg version="1.1" xmlns="http://www.w3.org/2000/svg" width="32" height="32" viewBox="0 0 32 32">
<title>water-3</title>
<path d="M19.791 5.94l-3.25-5.628c-0.111-0.194-0.318-0.313-0.541-0.313s-0.43 0.119-0.541 0.313l-3.25 5.628c-0.382 0.661-0.584 1.417-0.584 2.185 0 2.412 1.963 4.375 4.375 4.375s4.375-1.963 4.375-4.375c0-0.768-0.202-1.524-0.584-2.185zM16 11.25c-1.723 0-3.125-1.402-3.125-3.125 0-0.549 0.144-1.088 0.416-1.56l2.709-4.691 2.709 4.691c0.273 0.471 0.416 1.011 0.416 1.56 0 1.723-1.402 3.125-3.125 3.125zM31.166 15.129l-4.874-8.441c-0.111-0.194-0.318-0.313-0.541-0.313s-0.43 0.119-0.541 0.313l-4.874 8.441c-0.547 0.944-0.834 2.024-0.834 3.121 0 3.447 2.804 6.25 6.25 6.25s6.25-2.803 6.25-6.25c0-1.098-0.288-2.177-0.834-3.122zM25.75 23.25c-2.757 0-5-2.243-5-5 0-0.878 0.23-1.741 0.667-2.496l4.333-7.505 4.334 7.505c0.436 0.755 0.666 1.618 0.666 2.496 0 2.757-2.243 5-5 5zM27.064 16.777c-0.299 0.173-0.401 0.555-0.228 0.854 0.107 0.185 0.163 0.395 0.163 0.61v0.009c0 0.689-0.561 1.25-1.25 1.25-0.345 0-0.625 0.28-0.625 0.625s0.28 0.625 0.625 0.625c1.378 0 2.5-1.122 2.5-2.5v-0.009c0-0.433-0.115-0.861-0.331-1.235-0.173-0.299-0.555-0.401-0.854-0.227zM8.125 27c-0.345 0-0.625 0.28-0.625 0.625s0.28 0.625 0.625 0.625c2.412 0 4.375-1.962 4.375-4.375v-0.010c0-0.761-0.201-1.512-0.582-2.172-0.172-0.299-0.554-0.402-0.854-0.23s-0.402 0.555-0.229 0.854c0.271 0.471 0.415 1.006 0.415 1.549v0.010c0 1.723-1.402 3.125-3.125 3.125zM8.125 30.75c-0.346 0-0.625 0.28-0.625 0.625s0.279 0.625 0.625 0.625c0.345 0 0.625-0.28 0.625-0.625s-0.28-0.625-0.625-0.625zM8.666 8.563c-0.111-0.194-0.318-0.313-0.541-0.313s-0.429 0.119-0.542 0.313l-6.5 11.255c-0.71 1.229-1.085 2.632-1.085 4.058 0 3.385 2.081 6.346 5.131 7.555 0.322 0.127 0.684-0.029 0.811-0.351s-0.029-0.684-0.351-0.811c-2.638-1.046-4.342-3.556-4.342-6.393 0-1.206 0.317-2.393 0.917-3.433l5.958-10.318 5.958 10.318c0.6 1.039 0.917 2.226 0.917 3.433 0 2.838-1.704 5.348-4.342 6.393-0.321 0.127-0.478 0.491-0.351 0.811 0.127 0.319 0.489 0.479 0.811 0.351 3.048-1.209 5.131-4.168 5.131-7.555 0-1.426-0.375-2.829-1.085-4.058z"></path>
</svg>
