<!-- Generated by IcoMoon.io -->
<svg version="1.1" xmlns="http://www.w3.org/2000/svg" width="32" height="32" viewBox="0 0 32 32">
<title>weight_2</title>
<path d="M29.267 6.533c-0.6-0.733-1.533-1.2-2.533-1.2h-3.333c-1.067-3.2-4.067-5.333-7.4-5.333s-6.333 2.133-7.467 5.333h-3.333c-0.933 0-1.867 0.467-2.467 1.2-0.8 0.933-1.133 2.2-0.933 3.4l2.867 18.8c0.267 1.867 1.733 3.267 3.4 3.267h15.733c1.667 0 3.133-1.4 3.4-3.267l2.867-18.8c0.333-1.2 0-2.467-0.8-3.4zM21.8 25.133c0.267 1.6 0.467 2.933 0.067 3.333-0.133 0.2-0.533 0.267-1.133 0.267-1.067 0-2.333 0-2.867-0.667-0.4-0.6-0.4-1.733 0.2-3.4 0.933-3 1.133-6.133 0.667-9.2 1.8-0.667 3.267-1.933 4.2-3.667 0.533 0.333 1 0.733 1.467 1.133 1 1.067 1.2 2.133 0.667 3.267-0.4 0.8-0.867 1.6-1.267 2.267-1.267 2.2-2.467 4.133-2 6.667zM9.2 6.933c0.533-3.4 3.4-5.867 6.8-5.867s6.267 2.533 6.8 5.867c0.533 3.4-1.467 6.667-4.733 7.667 0 0 0 0 0 0s0 0-0.067 0c-1.333 0.4-2.667 0.4-4 0 0 0 0 0-0.067 0 0 0 0 0 0 0-3.2-1-5.2-4.267-4.733-7.667zM13.267 15.533c-0.467 3.067-0.267 6.2 0.667 9.2 0.533 1.667 0.6 2.8 0.2 3.4-0.467 0.667-1.733 0.667-2.867 0.667-0.6 0-1-0.067-1.133-0.267-0.333-0.4-0.2-1.8 0.067-3.333 0.4-2.533-0.733-4.533-1.933-6.533-0.4-0.733-0.867-1.467-1.267-2.267-1.133-2.267 1.2-3.867 2.067-4.4 0.933 1.533 2.4 2.867 4.2 3.533zM29.133 9.8l-2.867 18.8c-0.133 1.267-1.133 2.267-2.4 2.333h-15.733c-1.267-0.067-2.267-1.067-2.4-2.333l-2.867-18.8c-0.133-0.933 0.067-1.867 0.667-2.533 0.4-0.533 1.067-0.8 1.733-0.867h3c-0.333 1.533-0.2 3.067 0.4 4.467-0.667 0.4-1.267 0.867-1.733 1.4-1.267 1.4-1.533 2.933-0.8 4.467 0.4 0.867 0.867 1.6 1.333 2.333 1.2 2.067 2.133 3.667 1.8 5.867-0.333 2.067-0.533 3.4 0.133 4.2 0.533 0.533 1.267 0.733 1.933 0.667 1.267 0 2.867 0 3.667-1.133 0.667-0.933 0.667-2.333 0-4.333-0.867-2.8-1.067-5.667-0.667-8.533 1.133 0.267 2.267 0.267 3.4 0 0.4 2.867 0.2 5.8-0.667 8.533-0.667 2-0.667 3.467 0 4.333 0.8 1.133 2.4 1.133 3.667 1.133 0.733 0.067 1.4-0.2 1.933-0.667 0.667-0.8 0.467-2.133 0.133-4.2-0.333-2.2 0.6-3.8 1.8-5.867 0.467-0.733 0.867-1.533 1.333-2.333 0.733-1.533 0.467-3.067-0.8-4.467-0.533-0.533-1.133-1-1.733-1.4 0.533-1.4 0.667-3 0.4-4.467h3c0.667 0 1.267 0.333 1.733 0.867 0.533 0.667 0.733 1.6 0.6 2.533zM16 3.733c0.267 0 0.533-0.267 0.533-0.533v-0.533c0-0.267-0.267-0.533-0.533-0.533s-0.533 0.267-0.533 0.533v0.533c0 0.267 0.267 0.533 0.533 0.533zM13.2 4.133c0.067 0.133 0.267 0.267 0.467 0.267 0.067 0 0.2 0 0.267-0.067 0.267-0.133 0.333-0.467 0.2-0.733l-0.267-0.467c-0.133-0.267-0.467-0.333-0.733-0.2s-0.333 0.467-0.2 0.733l0.267 0.467zM11.2 5.8l0.467 0.267c0.267 0.133 0.6 0.067 0.733-0.2s0.067-0.6-0.2-0.733l-0.467-0.267c-0.267-0.133-0.6-0.067-0.733 0.2-0.2 0.267-0.067 0.6 0.2 0.733zM20.8 10.2l-0.467-0.267c-0.267-0.133-0.6-0.067-0.733 0.2s-0.067 0.6 0.2 0.733l0.467 0.267c0.267 0.133 0.6 0.067 0.733-0.2 0.2-0.267 0.067-0.6-0.2-0.733zM11.8 8c0-0.267-0.267-0.533-0.533-0.533h-0.533c-0.267 0-0.533 0.267-0.533 0.533s0.267 0.533 0.533 0.533h0.533c0.267 0 0.533-0.267 0.533-0.533zM20.2 8c0 0.267 0.267 0.533 0.533 0.533h0.533c0.267 0 0.533-0.267 0.533-0.533s-0.267-0.533-0.533-0.533h-0.533c-0.267 0-0.533 0.267-0.533 0.533zM11.667 11.133l0.467-0.267c0.267-0.133 0.333-0.467 0.2-0.733s-0.467-0.333-0.733-0.2l-0.467 0.267c-0.133 0.067-0.267 0.267-0.267 0.467s0.133 0.4 0.267 0.467c0.2 0.067 0.4 0.067 0.533 0zM20.133 6.133c0.067 0 0.2 0 0.267-0.067l0.467-0.267c0.133-0.067 0.267-0.267 0.267-0.467s-0.133-0.4-0.267-0.467c-0.133-0.067-0.333-0.067-0.533 0l-0.467 0.267c-0.2 0.133-0.333 0.4-0.267 0.6 0.067 0.267 0.267 0.4 0.533 0.4zM18.133 4.333c0.067 0.067 0.2 0.067 0.267 0.067 0.2 0 0.333-0.133 0.467-0.267l0.267-0.467c0.067-0.133 0.067-0.4 0-0.533s-0.267-0.267-0.467-0.267c-0.2 0-0.333 0.133-0.467 0.267l-0.267 0.467c-0.133 0.2-0.067 0.533 0.2 0.733zM13.867 12.267c0 0.267 0.267 0.533 0.533 0.533h3.133c0.267 0 0.533-0.267 0.533-0.533s-0.267-0.533-0.533-0.533h-1.067v-6.4c0-0.267-0.267-0.533-0.533-0.533s-0.533 0.267-0.533 0.533v6.4h-1.067c-0.2 0-0.467 0.267-0.467 0.533z"></path>
</svg>
