<!-- Generated by IcoMoon.io -->
<svg version="1.1" xmlns="http://www.w3.org/2000/svg" width="32" height="32" viewBox="0 0 32 32">
<title>wifi-3</title>
<path d="M31.709 11.171c-4.189-4.189-9.775-6.516-15.767-6.516-5.935 0-11.578 2.327-15.767 6.516-0.233 0.233-0.233 0.582 0 0.815s0.582 0.233 0.815 0c4.015-3.956 9.309-6.167 14.953-6.167s10.938 2.211 14.953 6.167c0.116 0.116 0.291 0.175 0.407 0.175 0.175 0 0.291-0.058 0.407-0.175 0.233-0.233 0.233-0.582 0-0.815zM3.607 14.604c-0.233 0.233-0.233 0.582 0 0.815 0.116 0.116 0.291 0.175 0.407 0.175s0.291-0.058 0.407-0.175c6.342-6.342 16.698-6.342 23.098 0 0.233 0.233 0.582 0.233 0.815 0s0.233-0.582 0-0.815c-6.865-6.807-17.92-6.807-24.727 0zM15.942 14.313c-3.375 0-6.575 1.338-8.96 3.724-0.233 0.233-0.233 0.582 0 0.815s0.582 0.233 0.815 0c2.153-2.153 5.062-3.375 8.145-3.375s5.935 1.164 8.145 3.375c0.116 0.116 0.291 0.175 0.407 0.175 0.175 0 0.291-0.058 0.407-0.175 0.233-0.233 0.233-0.582 0-0.815-2.385-2.444-5.585-3.724-8.96-3.724zM15.942 19.724c-2.095 0-3.782 1.687-3.782 3.782s1.687 3.782 3.782 3.782 3.782-1.687 3.782-3.782c0-2.036-1.687-3.782-3.782-3.782zM15.942 26.182c-1.455 0-2.618-1.164-2.618-2.618s1.164-2.618 2.618-2.618 2.618 1.164 2.618 2.618-1.164 2.618-2.618 2.618z"></path>
</svg>
