<!-- Generated by IcoMoon.io -->
<svg version="1.1" xmlns="http://www.w3.org/2000/svg" width="32" height="32" viewBox="0 0 32 32">
<title>wisdom-tooth</title>
<path d="M22.4 0c-1.42 0.005-2.819 0.335-4.092 0.965-0.715 0.375-1.502 0.592-2.308 0.635-0.806-0.043-1.594-0.259-2.308-0.635-1.272-0.63-2.672-0.96-4.092-0.965-3.893 0-5.867 2.333-5.867 6.933 0.021 2.813 0.415 5.61 1.17 8.32 0.446 1.663 0.769 3.356 0.966 5.067 0.053 0.545 0.107 1.095 0.155 1.644 0.45 4.934 0.915 10.036 4.643 10.036 3.185 0 4.8-3.23 4.8-9.6v-0.533c0-0.295 0.239-0.533 0.533-0.533s0.533 0.239 0.533 0.533v0.533c0 6.37 1.615 9.6 4.8 9.6 3.727 0 4.193-5.102 4.64-10.037 0.050-0.549 0.1-1.099 0.155-1.643 0.196-1.71 0.519-3.404 0.966-5.067 0.756-2.71 1.15-5.507 1.173-8.32 0-4.601-1.973-6.933-5.867-6.933zM26.060 15c-0.457 1.711-0.789 3.454-0.991 5.213-0.053 0.548-0.107 1.101-0.156 1.653-0.427 4.662-0.827 9.067-3.58 9.067-1.703 0-3.733-1.481-3.733-8.533v-0.533c0-0.884-0.716-1.6-1.6-1.6s-1.6 0.716-1.6 1.6v0.533c0 7.053-2.030 8.533-3.733 8.533-2.754 0-3.155-4.404-3.58-9.067-0.053-0.553-0.101-1.106-0.156-1.653-0.202-1.76-0.534-3.502-0.991-5.213-0.733-2.627-1.116-5.339-1.14-8.067 0-4.057 1.48-5.867 4.8-5.867 1.273 0.006 2.528 0.306 3.666 0.877 0.847 0.438 1.781 0.685 2.734 0.723 0.953-0.038 1.886-0.285 2.733-0.723 1.139-0.57 2.393-0.87 3.667-0.877 3.319 0 4.8 1.81 4.8 5.867-0.023 2.727-0.407 5.44-1.14 8.067z"></path>
<path d="M10.133 2.667c0-0.295-0.239-0.533-0.533-0.533-2.24 0-3.733 0.816-3.733 4.8 0 0.295 0.239 0.533 0.533 0.533s0.533-0.239 0.533-0.533c0-3.733 1.356-3.733 2.667-3.733 0.295 0 0.533-0.239 0.533-0.533z"></path>
<path d="M16 11.2c-2.552 0-4.267 1.978-4.267 3.825-0.062 0.534 0.129 1.067 0.517 1.44 0.509 0.37 1.139 0.164 1.867-0.073 0.603-0.229 1.238-0.362 1.883-0.391 0.644 0.029 1.279 0.16 1.881 0.389 0.387 0.151 0.795 0.244 1.21 0.275 0.236 0.006 0.467-0.065 0.659-0.202 0.387-0.372 0.578-0.904 0.517-1.437 0-1.847-1.715-3.825-4.267-3.825zM19.133 15.592c-0.317-0.025-0.628-0.098-0.923-0.218-0.708-0.265-1.455-0.414-2.21-0.441-0.756 0.027-1.502 0.176-2.21 0.441-0.291 0.114-0.594 0.192-0.903 0.232 0 0-0.086-0.11-0.086-0.582 0-1.304 1.314-2.758 3.2-2.758s3.2 1.454 3.2 2.758c0.010 0.192-0.013 0.384-0.067 0.567z"></path>
<path d="M13.835 9.781c0.076-0.211 0.012-0.447-0.16-0.591l-3.2-2.667c-0.146-0.127-0.349-0.166-0.531-0.101s-0.315 0.224-0.346 0.415c-0.031 0.191 0.043 0.384 0.195 0.504l2.068 1.724h-2.794c-0.295 0-0.533 0.239-0.533 0.533s0.239 0.533 0.533 0.533h4.267c0.225-0 0.425-0.141 0.501-0.352z"></path>
<path d="M22.933 9.067h-2.794l2.068-1.724c0.218-0.191 0.244-0.52 0.059-0.743s-0.514-0.256-0.741-0.076l-3.2 2.667c-0.172 0.144-0.236 0.38-0.16 0.591s0.277 0.352 0.501 0.352h4.267c0.295 0 0.533-0.239 0.533-0.533s-0.239-0.533-0.533-0.533z"></path>
<path d="M4.229 19.876c-0.058-0.289-0.339-0.476-0.628-0.418l-1.885 0.377c-0.193 0.039-0.349 0.18-0.406 0.368s-0.006 0.392 0.133 0.531l0.427 0.427-0.907 0.182c-0.269 0.053-0.454 0.302-0.427 0.575s0.256 0.481 0.53 0.482c0.036 0 0.072-0.003 0.107-0.011l1.886-0.377c0.193-0.039 0.349-0.18 0.406-0.368s0.006-0.392-0.133-0.531l-0.427-0.427 0.907-0.182c0.289-0.058 0.475-0.339 0.418-0.628z"></path>
<path d="M2.385 14.996c-0.173-0.093-0.384-0.083-0.548 0.027l-1.6 1.067c-0.245 0.163-0.311 0.495-0.148 0.74s0.495 0.311 0.74 0.148l0.771-0.514v0.603c-0 0.197 0.108 0.378 0.282 0.47s0.384 0.083 0.548-0.027l1.6-1.067c0.159-0.106 0.249-0.288 0.236-0.478s-0.125-0.359-0.296-0.444-0.374-0.071-0.532 0.034l-0.771 0.514v-0.603c0-0.197-0.108-0.378-0.282-0.47z"></path>
<path d="M28.537 21.644c0.057 0.188 0.213 0.33 0.406 0.368l1.886 0.377c0.034 0.007 0.069 0.011 0.105 0.011 0.274 0 0.504-0.207 0.531-0.48s-0.156-0.522-0.424-0.576l-0.907-0.182 0.427-0.427c0.139-0.139 0.19-0.343 0.133-0.531s-0.213-0.33-0.406-0.368l-1.885-0.377c-0.187-0.038-0.38 0.027-0.506 0.17s-0.166 0.343-0.105 0.524 0.214 0.315 0.402 0.352l0.907 0.182-0.427 0.427c-0.14 0.139-0.192 0.343-0.135 0.531z"></path>
<path d="M31.763 16.090l-1.6-1.067c-0.164-0.109-0.374-0.119-0.548-0.027s-0.282 0.274-0.282 0.47v0.603l-0.771-0.514c-0.245-0.163-0.576-0.097-0.74 0.148s-0.097 0.576 0.148 0.74l1.6 1.067c0.164 0.109 0.374 0.119 0.548 0.027s0.282-0.274 0.282-0.47v-0.603l0.771 0.514c0.159 0.106 0.361 0.119 0.532 0.034s0.284-0.254 0.296-0.444c0.012-0.19-0.078-0.372-0.236-0.478z"></path>
</svg>
