<!-- Generated by IcoMoon.io -->
<svg version="1.1" xmlns="http://www.w3.org/2000/svg" width="44" height="32" viewBox="0 0 44 32">
<title>youtube-new</title>
<path d="M23.138 32c-5.046 0-10.462-0.123-16.246-0.492-3.446-0.246-6.031-2.831-6.4-6.523-0.615-6.031-0.615-12.185 0-18.092 0.369-3.569 3.077-6.277 6.4-6.4 9.969-0.615 20.185-0.615 30.523 0 3.446 0.246 6.031 2.831 6.4 6.4 0.615 5.785 0.615 11.938 0 18.092-0.369 3.569-2.954 6.154-6.4 6.523-4.431 0.369-9.231 0.492-14.277 0.492zM22.031 1.723c-5.046 0-10.092 0.123-15.015 0.492-2.585 0.123-4.554 2.092-4.8 4.923-0.615 5.908-0.615 11.815 0 17.723 0.246 2.831 2.215 4.8 4.8 4.923 5.785 0.369 11.2 0.492 16.246 0.492s9.723-0.123 14.031-0.492c2.585-0.246 4.554-2.215 4.8-4.923 0.615-6.154 0.615-12.062 0-17.723-0.246-2.831-2.215-4.8-4.8-4.923-5.169-0.369-10.215-0.492-15.262-0.492zM17.846 9.969v11.815l11.2-5.908z"></path>
</svg>
