<!-- Generated by IcoMoon.io -->
<svg version="1.1" xmlns="http://www.w3.org/2000/svg" width="32" height="32" viewBox="0 0 32 32">
<title>zip</title>
<path d="M31 22.5h-0.5v-4.5c0-0.133-0.053-0.26-0.146-0.354s-0.221-0.146-0.354-0.146h-2v-4c-0.001-1.060-0.423-2.077-1.173-2.827s-1.767-1.172-2.827-1.173c-1.334-0.004-2.656 0.257-3.889 0.768s-2.352 1.261-3.293 2.207c-0.641 0.644-1.402 1.155-2.242 1.502s-1.739 0.525-2.647 0.523h-10.929c-0.133 0-0.26 0.053-0.354 0.146s-0.146 0.221-0.146 0.354v16c0 0.133 0.053 0.26 0.146 0.354s0.221 0.146 0.354 0.146h30c0.133 0 0.26-0.053 0.354-0.146s0.146-0.221 0.146-0.354v-8c0-0.133-0.053-0.26-0.146-0.354s-0.221-0.146-0.354-0.146zM15.707 22.5l1.283-1.283c0.464 0.212 0.974 0.303 1.483 0.265s1-0.204 1.427-0.482l0.25-0.168c0.326-0.213 0.707-0.326 1.097-0.326s0.77 0.113 1.096 0.326l0.25 0.168c0.489 0.327 1.065 0.501 1.654 0.501s1.164-0.174 1.653-0.501l0.175-0.116c0.337-0.22 0.724-0.348 1.125-0.373s0.802 0.055 1.163 0.231l1.137 0.568v1.191h-13.793zM29.5 20.191l-0.688-0.345c-0.519-0.254-1.095-0.369-1.672-0.333s-1.134 0.221-1.618 0.538l-0.175 0.116c-0.326 0.213-0.707 0.326-1.096 0.326s-0.77-0.113-1.097-0.326l-0.253-0.168c-0.491-0.32-1.064-0.49-1.65-0.49s-1.159 0.17-1.65 0.49l-0.25 0.168c-0.23 0.15-0.488 0.25-0.759 0.296s-0.548 0.035-0.814-0.031l1.93-1.933h9.793v1.691zM11.929 15.5c1.040 0.003 2.070-0.201 3.030-0.598s1.833-0.982 2.566-1.72c0.848-0.853 1.858-1.529 2.969-1.989s2.303-0.696 3.506-0.693c0.795 0.001 1.558 0.317 2.12 0.88s0.879 1.325 0.88 2.12v4h-6.293l0.732-0.733c0.497-0.493 0.89-1.081 1.158-1.727s0.405-1.34 0.403-2.040h-1c0.001 0.569-0.11 1.132-0.327 1.657s-0.537 1.002-0.941 1.403l-5.985 5.985c-0.17-0.315-0.422-0.579-0.73-0.763s-0.659-0.282-1.017-0.283h-0.793l-0.353-0.354c-0.094-0.094-0.221-0.146-0.354-0.146h-2c-0.576 0.001-1.134 0.2-1.581 0.564s-0.753 0.871-0.869 1.436h-1.050v-1h-1v1h-1v-1h-1v1h-1.5v-7h10.429zM14 23c0 0.265-0.105 0.52-0.293 0.707s-0.442 0.293-0.707 0.293h-1c-0.133 0-0.26 0.053-0.353 0.146l-0.354 0.353h-1.793c-0.398 0-0.779-0.158-1.061-0.439s-0.439-0.663-0.439-1.061c0-0.398 0.158-0.779 0.439-1.061s0.663-0.439 1.061-0.439h1.793l0.354 0.353c0.094 0.094 0.221 0.146 0.353 0.147h1c0.265 0 0.52 0.105 0.707 0.293s0.293 0.442 0.293 0.707zM30.5 30.5h-29v-7h1.5v1h1v-1h1v1h1v-1h1.050c0.116 0.564 0.423 1.071 0.869 1.436s1.005 0.564 1.581 0.564h2c0.133 0 0.26-0.053 0.354-0.146l0.353-0.353h0.793c0.442-0.002 0.871-0.15 1.22-0.421s0.598-0.651 0.709-1.079h15.571v7z"></path>
<path d="M11 22.5h-2v1h2v-1z"></path>
<path d="M4 7c0 1.286 0.381 2.542 1.095 3.611s1.729 1.902 2.917 2.394c1.188 0.492 2.495 0.621 3.755 0.37s2.419-0.87 3.328-1.779 1.528-2.067 1.779-3.328c0.251-1.261 0.122-2.568-0.37-3.756s-1.325-2.203-2.394-2.917c-1.069-0.714-2.326-1.095-3.611-1.095-1.723 0.002-3.375 0.687-4.594 1.906s-1.904 2.871-1.906 4.594zM10.5 12.5c-1.371-0.002-2.693-0.515-3.705-1.44s-1.643-2.194-1.769-3.56h2.025c0.116 0.564 0.423 1.071 0.869 1.436s1.005 0.564 1.581 0.564h2c0.133-0 0.26-0.053 0.353-0.147l0.353-0.353h0.793c0.442-0.002 0.871-0.15 1.22-0.421s0.598-0.651 0.709-1.079h1.046c-0.126 1.366-0.757 2.635-1.769 3.56s-2.334 1.438-3.705 1.44zM8 7c0-0.398 0.158-0.779 0.439-1.061s0.663-0.439 1.061-0.439h1.793l0.354 0.354c0.094 0.094 0.221 0.146 0.353 0.146h1c0.265 0 0.52 0.105 0.707 0.293s0.293 0.442 0.293 0.707-0.105 0.52-0.293 0.707c-0.188 0.188-0.442 0.293-0.707 0.293h-1c-0.133 0-0.26 0.053-0.353 0.146l-0.354 0.354h-1.793c-0.398 0-0.779-0.158-1.061-0.439s-0.439-0.663-0.439-1.061zM15.975 6.5h-1.046c-0.111-0.428-0.36-0.808-0.709-1.079s-0.778-0.42-1.22-0.421h-0.793l-0.353-0.354c-0.094-0.094-0.221-0.146-0.353-0.146h-2c-0.576 0.001-1.134 0.2-1.581 0.564s-0.753 0.871-0.869 1.436h-2.025c0.123-1.367 0.753-2.639 1.766-3.566s2.336-1.44 3.709-1.44c1.373 0 2.696 0.514 3.709 1.44s1.643 2.198 1.766 3.566h-0z"></path>
<path d="M11 6.5h-2v1h2v-1z"></path>
</svg>
