<?xml version="1.0" encoding="utf-8"?>
<!-- Generator: Adobe Illustrator 24.1.1, SVG Export Plug-In . SVG Version: 6.00 Build 0)  -->
<svg version="1.1" id="Layer_1" xmlns="http://www.w3.org/2000/svg" xmlns:xlink="http://www.w3.org/1999/xlink" x="0px" y="0px"
	 viewBox="0 0 20.1 17" style="enable-background:new 0 0 20.1 17;" xml:space="preserve">
<style type="text/css">
	.st0{fill-rule:evenodd;clip-rule:evenodd;}
</style>
<path class="st0" d="M1.4,0C1,0,0.7,0.3,0.7,0.7c0,0.1,0,0.2,0.1,0.3c1.2,2.3,2.5,4.7,3.7,7H0.7C0.3,8.1,0,8.4,0,8.8v5.9
	c0,0.4,0.3,0.7,0.7,0.7h0.7v0.7c0,0.4,0.3,0.7,0.7,0.8c0.4,0,0.7-0.3,0.7-0.7c0,0,0,0,0,0v-0.7h14.3v0.7c0,0.4,0.3,0.7,0.7,0.7
	s0.7-0.3,0.7-0.7v-0.7h0.7c0.4,0,0.7-0.3,0.7-0.7V8.8c0-0.4-0.3-0.7-0.7-0.7h-4.6c1.2-2.3,2.5-4.7,3.7-7c0.2-0.4,0.1-0.8-0.3-1
	C18.1,0,18,0,17.9,0c-0.3,0-0.5,0.2-0.6,0.4c-1.4,2.6-2.7,5.1-4.1,7.7h-7C4.8,5.5,3.4,3,2.1,0.4C1.9,0.1,1.7,0,1.4,0z M1.4,9.6h4.2
	c0,0,0.1,0,0.1,0h7.7c0,0,0.1,0,0.1,0h5V14H18c0,0-0.1,0-0.1,0c0,0-0.1,0-0.1,0H2.3c0,0-0.1,0-0.1,0c0,0-0.1,0-0.1,0H1.4V9.6z
	 M3.6,10.3c-0.4,0-0.7,0.3-0.7,0.7v1.5c0,0.4,0.3,0.7,0.7,0.7c0.4,0,0.7-0.3,0.7-0.7v-1.5C4.3,10.6,4,10.3,3.6,10.3
	C3.6,10.3,3.6,10.3,3.6,10.3z M6.4,10.3c-0.4,0-0.7,0.3-0.7,0.7v1.5c0,0.4,0.3,0.7,0.7,0.7c0.4,0,0.7-0.3,0.7-0.7l0,0v-1.5
	C7.2,10.6,6.9,10.3,6.4,10.3C6.5,10.3,6.4,10.3,6.4,10.3z M16.5,11.1c-0.4,0-0.7,0.3-0.7,0.7c0,0.4,0.3,0.7,0.7,0.7
	c0.4,0,0.7-0.3,0.7-0.7C17.2,11.4,16.9,11.1,16.5,11.1z"/>
</svg>
