<svg height="32" viewBox="0 0 32 32" width="32" xmlns="http://www.w3.org/2000/svg"><path d="m5.558 0c-1.937 0-3.453 1.516-3.453 3.368s1.516 3.368 3.453 3.368c1.853 0 3.453-1.516 3.453-3.368s-1.6-3.368-3.453-3.368zm0 5.558c-1.263 0-2.274-1.011-2.274-2.189s1.011-2.189 2.274-2.189 2.274 1.011 2.274 2.189c-.084 1.179-1.095 2.189-2.274 2.189zm23.747 20.042c-.253 0-.505.168-.589.421-.337 1.011-.926 1.937-1.768 2.695-1.347 1.347-3.2 2.105-5.137 2.105s-3.789-.758-5.137-2.105c-1.347-1.347-2.105-3.116-2.105-5.053v-15.411c0-1.937.758-3.705 2.105-5.053s3.2-2.105 5.137-2.105 3.789.758 5.137 2.105c.758.758 1.347 1.684 1.768 2.695.084.253.337.421.589.421.337 0 .589-.253.589-.589 0-.084 0-.084 0-.168l-.084-.168c-1.179-3.2-4.379-5.389-7.916-5.389-4.632 0-8.421 3.705-8.421 8.253v15.411c0 4.547 3.789 8.253 8.421 8.253 3.621 0 6.821-2.274 8-5.558 0-.084 0-.168 0-.168 0-.337-.253-.589-.589-.589z"/></svg>