<svg height="32" viewBox="0 0 32 32" width="32" xmlns="http://www.w3.org/2000/svg"><path d="m28.8 16.784h-4.637l-3.788-10.775c-.196-.588-1.11-.588-1.241.065l-4.441 17.633-4.18-13.061c-.196-.588-.98-.588-1.241-.065l-2.482 6.204h-6.139c-.392 0-.653.327-.653.653 0 .392.327.653.653.653h6.596c.261 0 .522-.196.588-.392l1.959-4.898 4.31 13.453c.196.653 1.11.588 1.241-.065l4.441-17.763 3.2 9.208c.065.261.327.457.653.457h5.094c.261.588.849.98 1.502.98.914 0 1.633-.718 1.633-1.633s-.718-1.633-1.633-1.633c-.588 0-1.175.392-1.437.98z"/></svg>

