<svg height="32" viewBox="0 0 32 32" width="32" xmlns="http://www.w3.org/2000/svg"><path d="m31.911 30.933-6.4-12.8c-.089-.178-.356-.356-.622-.356h-2.756l1.689-2.489c2.044-3.022 2.311-6.756.711-9.956s-4.622-5.156-8-5.333c-.356 0-.622 0-.978 0-3.467.178-6.489 2.133-8 5.333-1.6 3.289-1.422 6.933.711 9.956l1.689 2.489h-2.844c-.267 0-.533.178-.622.356l-6.4 12.8c-.089.178-.089.444 0 .711.178.178.356.356.622.356h30.578c.267 0 .444-.178.622-.356.089-.178.089-.444 0-.711zm-22.578-16.444c-1.778-2.578-1.956-5.778-.533-8.533 1.333-2.667 3.911-4.356 6.844-4.533h.889c2.933.178 5.511 1.778 6.844 4.444 1.422 2.844 1.156 5.956-.533 8.533l-5.867 8.622c-.178.267-.444.444-.8.444s-.622-.178-.8-.444zm-7.466 16.089 5.689-11.378h3.289l3.2 4.622c.444.711 1.244 1.067 2.044 1.067s1.6-.356 2.044-1.067l3.2-4.622h3.289l5.689 11.378h-28.444zm18.755-20.978c0-2.578-2.044-4.622-4.622-4.622s-4.622 2.044-4.622 4.622 2.044 4.622 4.622 4.622 4.622-2.044 4.622-4.622zm-7.822 0c0-1.778 1.422-3.2 3.2-3.2s3.2 1.422 3.2 3.2-1.422 3.2-3.2 3.2-3.2-1.422-3.2-3.2z"/></svg>