<svg height="32" viewBox="0 0 32 32" width="32" xmlns="http://www.w3.org/2000/svg"><path d="m9.309 7.127c1.964 0 3.564-1.6 3.564-3.564s-1.6-3.564-3.564-3.564-3.564 1.6-3.564 3.564 1.6 3.564 3.564 3.564zm0-5.672c1.164 0 2.109.945 2.109 2.109s-.945 2.109-2.109 2.109-2.182-.945-2.182-2.109.945-2.109 2.182-2.109zm4.582 7.781h-9.236c-1.164 0-2.109.945-2.109 2.109v8.509c0 1.164.945 2.109 2.036 2.109l.945 8.073c.145 1.164 1.091 1.964 2.182 1.964h3.127c1.091 0 1.964-.8 2.109-1.891l1.018-8.073c1.164 0 2.036-.945 2.036-2.109v-8.582c0-1.164-.945-2.109-2.109-2.109zm.727 10.691c0 .364-.291.727-.727.727h-.582c-.364 0-.655.291-.727.655l-1.091 8.727c0 .364-.364.655-.727.655h-3.055c-.364 0-.655-.291-.727-.655l-1.091-8.727c0-.364-.364-.655-.727-.655h-.509c-.364 0-.727-.291-.727-.727v-8.582c0-.364.291-.727.727-.727h9.236c.364 0 .727.291.727.727zm9.164-8.582c1.964 0 3.564-1.6 3.564-3.564s-1.6-3.564-3.564-3.564-3.564 1.6-3.564 3.564 1.6 3.564 3.564 3.564zm0-5.672c1.164 0 2.109.945 2.109 2.109s-.945 2.109-2.109 2.109-2.109-.945-2.109-2.109.945-2.109 2.109-2.109zm3.563 7.854h-7.055c-1.164 0-2.109.945-2.109 2.109v6.4c0 1.164.945 2.109 2.109 2.109l.945 5.964c.145 1.091 1.018 1.891 2.109 1.891h1.018c1.091 0 1.964-.8 2.109-1.818l.945-5.964c1.164 0 2.109-.945 2.109-2.109v-6.4c-.073-1.236-1.018-2.182-2.182-2.182zm.728 8.509c0 .364-.291.727-.727.727h-.582c-.364 0-.655.218-.727.582l-1.091 6.618c0 .364-.364.655-.727.655h-1.018c-.364 0-.655-.291-.727-.655l-1.091-6.545c0-.364-.364-.582-.727-.582h-.509c-.364 0-.727-.291-.727-.727v-6.4c0-.364.291-.727.727-.727h7.055c.364 0 .727.291.727.727v6.327zm-5.018-20.436s0-.073 0-.145c0-.145.073-.364.218-.509 0 0 .073-.073.073-.073s.073 0 .073-.073h.145c.218 0 .436 0 .655.145.145.145.218.291.218.509v.145.145s0 .073-.073.073c0 0-.073.073-.073.073s-.073.073-.073.073-.073 0-.073.073c0 0-.073 0-.145 0 0 0-.073 0-.145 0 0 0-.073 0-.145 0 0 0-.073 0-.145 0 0 0-.073 0-.073-.073 0 0-.073 0-.073-.073 0 0-.073-.073-.073-.073-.073 0-.073-.073-.145-.073-.145-.145-.145-.145-.145-.145zm-3.564 0s0-.073 0-.145c0 0 0-.073 0-.145 0 0 0-.073 0-.145 0 0 0-.073.073-.073 0 0 .073-.073.073-.073.291-.218.727-.218 1.018 0 0 0 .073.073.073.073s0 .073.073.073v.145.145.145.145s0 .073-.073.073c0 0-.073.073-.073.073-.145.145-.291.218-.509.218 0 0-.073 0-.145 0 0 0-.073 0-.145 0 0 0-.073 0-.073-.073 0 0-.073 0-.073-.073 0 0-.073-.073-.073-.073 0-.073 0-.073-.073-.145 0-.145-.073-.145-.073-.145zm7.127 0s0-.073 0-.145c0-.145.073-.364.218-.509.145-.218.364-.291.582-.218h.145s.073 0 .073.073c0 0 .073 0 .073.073 0 0 .073.073.073.073s0 .073.073.145v.145.145.145.145s0 .073-.073.073c0 0-.073.073-.073.073s-.073.073-.073.073-.073 0-.073.073c0 0-.073 0-.145 0 0 0-.073 0-.145 0-.145 0-.364-.073-.509-.218 0 0-.073-.073-.073-.073-.073 0-.073-.073-.073-.073s0 0 0 0z"/></svg>