<svg height="32" viewBox="0 0 32 32" width="32" xmlns="http://www.w3.org/2000/svg"><path d="m8.55 0c-.05 0-.15 0-.2.05-1.9.7-3.6 1.8-5.05 3.25-1.45 1.4-2.55 3.1-3.3 5-.1.3.05.65.35.75s.65-.05.75-.35c.65-1.75 1.7-3.3 3-4.6s2.9-2.35 4.65-3c.3-.1.45-.45.35-.75-.1-.2-.3-.35-.55-.35zm14.95 0c-.3 0-.55.25-.55.6 0 .25.15.45.35.5 1.75.65 3.3 1.7 4.65 3 1.3 1.3 2.35 2.85 3 4.6.1.3.45.45.75.35s.45-.45.35-.75c-.75-1.9-1.85-3.6-3.25-5-1.45-1.4-3.15-2.55-5.05-3.25-.1-.05-.2-.05-.25-.05zm-7.45 4.25c-1.35 0-2.45 1.1-2.45 2.45 0 .6.2 1.1.55 1.55-3.85.85-6.65 4.25-6.65 8.25v6.6h-.2c-1.3 0-2.35 1.05-2.35 2.35s1.05 2.35 2.35 2.35h4.3v.1c0 2.25 1.85 4.1 4.15 4.1s4.15-1.85 4.15-4.1v-.1h4.9c1.3 0 2.35-1.05 2.35-2.35s-1.05-2.35-2.35-2.35h-.2v-6.6c0-4.05-2.85-7.4-6.65-8.25.35-.4.55-.95.55-1.55 0-1.3-1.1-2.45-2.45-2.45zm-5.95.35c-.05 0-.15 0-.2.05-1.15.5-2.25 1.2-3.1 2.05-.9.9-1.6 1.95-2.1 3.1-.15.3 0 .65.3.75.3.15.65 0 .75-.3v-.05c.4-1 1.05-1.95 1.85-2.7.8-.8 1.7-1.4 2.75-1.8.3-.1.45-.45.3-.75-.1-.2-.3-.35-.55-.35zm11.85 0c-.3 0-.55.25-.55.55 0 .25.15.45.35.55 1.05.4 1.95 1.05 2.75 1.8.8.8 1.4 1.7 1.85 2.7.1.3.45.45.75.3.3-.1.45-.45.3-.75-.5-1.15-1.2-2.2-2.1-3.1s-1.95-1.6-3.1-2.05c-.1 0-.15 0-.25 0zm-5.9.8c.75 0 1.3.6 1.3 1.3s-.6 1.3-1.3 1.3c-.75 0-1.3-.6-1.3-1.3s.55-1.3 1.3-1.3zm0 3.75c4.1 0 7.4 3.25 7.4 7.35v6.6h-14.8v-6.6c0-4.05 3.3-7.35 7.4-7.35zm-8.8 15.1h17.55c.7 0 1.2.55 1.2 1.2 0 .7-.55 1.2-1.2 1.2h-17.55c-.7 0-1.2-.5-1.2-1.2s.55-1.2 1.2-1.2zm5.5 3.55h6v.1c0 1.65-1.35 3-3 3s-3-1.3-3-3z"/></svg>