<!-- Generated by IcoMoon.io -->
<svg version="1.1" xmlns="http://www.w3.org/2000/svg" width="20" height="32" viewBox="0 0 20 32">
<title>app</title>
<path d="M12.746 2.667h-3.254c-0.45 0-0.813 0.358-0.813 0.8s0.364 0.8 0.813 0.8h3.254c0.45 0 0.813-0.358 0.813-0.8s-0.364-0.8-0.813-0.8zM16.271 0h-13.017c-1.794 0-3.254 1.436-3.254 3.2v25.6c0 1.764 1.46 3.2 3.254 3.2h13.017c1.794 0 3.254-1.436 3.254-3.2v-25.6c0-1.764-1.46-3.2-3.254-3.2zM17.899 28.8c0 0.884-0.728 1.6-1.628 1.6h-13.017c-0.899 0-1.628-0.716-1.628-1.6v-25.6c0-0.884 0.728-1.6 1.628-1.6h13.017c0.899 0 1.628 0.716 1.628 1.6v25.6zM9.763 26.133c-0.899 0-1.628 0.716-1.628 1.6s0.729 1.6 1.628 1.6c0.899 0 1.628-0.716 1.628-1.6s-0.729-1.6-1.628-1.6zM6.78 2.667c-0.449 0-0.813 0.358-0.813 0.8s0.364 0.8 0.813 0.8c0.449 0 0.813-0.358 0.813-0.8s-0.364-0.8-0.813-0.8z"></path>
</svg>




