<svg height="32" viewBox="0 0 32 32" width="32" xmlns="http://www.w3.org/2000/svg"><path d="m31.76 29.6c-3.84-3.04-4.24-11.2-5.52-12.16-.24-.16-.4-.24-.64-.24-.88 0-1.44 1.04-2.08 2.32-.32.64-1.12 2.08-1.44 2.08-1.28.08-2.64-.88-3.04-1.76-.64-1.44-3.52-2.08-5.84-.4-2.16 1.52-4.24 1.52-6.08-.4-.96-1.04-1.68-1.44-2.4-1.44-3.04 0-2.32 8.4-4.64 12.24-.08.16-.08.4 0 .64.16.16.32.32.64.32h30.72c.24 0 .56-.24.64-.48 0-.24-.08-.56-.32-.72zm-30-.24c1.44-3.28 1.92-10.48 3.04-10.48.16 0 .56.08 1.44 1.04 2.32 2.48 5.2 2.48 7.84.56 1.44-1.12 3.52-.72 3.84-.16.64 1.52 2.64 2.72 4.32 2.56 1.12-.08 1.84-1.52 2.56-2.8.24-.48.64-1.12.8-1.44.64 1.76 1.52 7.44 4.24 10.72h-28.08zm25.52-15.44c1.84 0 3.36-1.52 3.36-3.36 0-1.92-1.44-3.36-3.36-3.36-1.84 0-3.36 1.52-3.36 3.36s1.44 3.36 3.36 3.36zm0-5.44c1.12 0 2 .88 2 2s-.88 2-2 2-2-.88-2-2 .8-2 2-2zm-8.4 7.28c1.68 0 3.04-1.44 3.04-3.12s-1.44-3.12-3.04-3.12c-1.68 0-3.04 1.36-3.04 3.12-.08 1.68 1.36 3.12 3.04 3.12zm0-4.88c.96 0 1.76.8 1.76 1.76s-.8 1.76-1.76 1.76-1.76-.8-1.76-1.76.72-1.76 1.76-1.76zm-7.92 1.28c2.24 0 4-1.84 4-4.08s-1.84-4.08-4-4.08c-2.24 0-4 1.84-4 4.08s1.84 4.08 4 4.08zm0-6.8c1.44 0 2.64 1.2 2.64 2.72s-1.2 2.72-2.64 2.72-2.64-1.2-2.64-2.72c0-1.44 1.2-2.72 2.64-2.72zm10.32 1.28c1.44 0 2.64-1.2 2.64-2.72s-1.2-2.72-2.64-2.72-2.64 1.2-2.64 2.72c-.08 1.44 1.12 2.72 2.64 2.72zm0-4.08c.72 0 1.36.64 1.36 1.36s-.64 1.36-1.36 1.36-1.36-.64-1.36-1.36c0-.8.56-1.36 1.36-1.36zm-17.12 14.48c1.68 0 3.04-1.36 3.04-3.04s-1.44-3.12-3.04-3.12-3.04 1.44-3.04 3.12 1.36 3.04 3.04 3.04zm0-4.88c.96 0 1.76.8 1.76 1.76s-.8 1.76-1.76 1.76-1.76-.8-1.76-1.76.8-1.76 1.76-1.76z"/></svg>