<svg xmlns="http://www.w3.org/2000/svg" width="32" height="32"><path d="M18.014 7.156c-.113.041-.937 1.194-3.625 5.075-3.814 5.504-3.672 5.268-3.359 5.581l.162.161h2.004c1.379 0 2.004.018 2.004.057 0 .031-.469 1.471-1.041 3.199-.718 2.167-1.031 3.183-1.009 3.272a.523.523 0 0 0 .48.374c.143 0 .229-.044.367-.184.098-.102 1.874-2.387 3.944-5.08 3.457-4.495 3.766-4.913 3.766-5.098a.396.396 0 0 0-.138-.33l-.137-.13-2.067-.026L17.298 14l.684-3.093c.377-1.702.688-3.186.691-3.299.011-.342-.324-.571-.659-.452M6.32 8.181c-.645.157-1.306.679-1.604 1.266-.298.588-.294.5-.277 6.221.014 5.238.015 5.267.129 5.564.324.847.969 1.415 1.841 1.62.426.101 4.346.119 4.625.022.346-.121.424-.639.126-.834-.127-.084-.371-.096-2.411-.12-2.199-.026-2.276-.03-2.482-.142a2.007 2.007 0 0 1-.701-.711c-.095-.179-.099-.424-.099-5.547v-5.36l.132-.258c.155-.304.408-.54.745-.696.238-.11.321-.113 3.976-.139 2.053-.015 3.766-.048 3.805-.074.04-.025.106-.127.148-.226.065-.156.065-.205-.001-.363a.56.56 0 0 0-.184-.24c-.161-.086-7.41-.071-7.768.017m14.087.066a.517.517 0 0 0-.038.667l.101.126 1.779.027c1.727.027 1.786.031 2.06.154.34.153.664.504.78.845.059.172.084.446.084.906 0 1.014.065 1.081 1.047 1.081.608 0 .616.002.771.156l.156.156v3.126c0 3.446.012 3.318-.332 3.438-.09.032-.423.058-.74.058-.532 0-.587.01-.725.128-.15.129-.15.131-.178.947-.022.653-.047.856-.126 1.005a1.993 1.993 0 0 1-.699.711c-.209.113-.27.116-2.996.142l-2.783.027-.137.129c-.185.173-.188.472-.009.681l.129.15 2.614.014c2.127.012 2.684.001 2.987-.062 1.234-.258 2.035-1.266 2.035-2.562v-.337l.44-.024c.674-.037 1.093-.293 1.357-.832l.149-.304v-3.307c0-3.707.023-3.482-.398-3.938-.294-.319-.591-.451-1.118-.494l-.43-.036v-.305c0-.979-.477-1.837-1.28-2.307-.474-.278-.721-.306-2.618-.306h-1.741l-.141.14m-3.26 1.846c-.013.037-.241 1.059-.506 2.27-.537 2.449-.534 2.397-.161 2.584.166.083.378.093 1.958.093h1.772l-2.512 3.267a448.042 448.042 0 0 1-2.586 3.345c-.097.104-.063-.007.701-2.292.657-1.963.671-2.039.416-2.239-.131-.103-.214-.108-2.023-.108-1.037 0-1.886-.011-1.886-.025 0-.024 4.638-6.742 4.76-6.895.029-.036.061-.066.072-.066.01 0 .008.03-.005.066" fill-rule="evenodd"/></svg>