<svg height="32" viewBox="0 0 32 32" width="32" xmlns="http://www.w3.org/2000/svg"><path d="m19.933 19.333 1.067-.8c-.067-.2-.133-.467-.2-.733-.4-1.667-.667-2.8-.867-4.067-.4-2.533-.333-4.933.2-7.067-.533.533-1.067.867-1.467.867-.867 0-1.733-1-2.6-3-.933 2-1.8 3-2.667 3-.467 0-.933-.267-1.467-.867.467 2.2.533 4.533.133 7.067-.2 1.267-.4 2.333-.8 3.933-.067.133-.067.267-.133.467-.067.133-.067.267-.067.333l1.2.933h7.667zm-1.2.867h-5.4l2.667 2.067zm-2.333 2.867.067 5.467c0 .2-.2.4-.4.4s-.4-.2-.4-.4l-.067-5.533-4.8-3.733v.067c-.133.667-.267 1.2-.4 1.733-.467 2.6-.4 4.733.4 7.267.067.2-.067.467-.267.533s-.467-.067-.533-.267c-.867-2.667-.933-4.933-.4-7.667.133-.533.2-1.133.4-1.8.067-.267.133-.533.2-.933 0-.133.067-.2.133-.467.067-.2.067-.333.133-.467.4-1.6.6-2.667.8-3.867.467-3.6.067-6.867-1.333-9.733l-.067-.067c-.067-.2 0-.4.133-.467l.133-.067c.2-.067.4 0 .467.133l.067.067c.2.467.467 1 .6 1.467.6 1.2 1.333 1.8 2 1.8.6 0 1.267-1 2.067-2.933.067-.133.267-.267.4-.2l.133.067s0 0 0 0l.133-.067c.2-.067.333.067.4.2.8 1.933 1.467 2.867 2.067 2.867.667 0 1.4-.533 2.067-1.733.2-.533.4-1.067.667-1.533l.067-.067c.067-.2.333-.267.467-.133l.133.067c.2.067.267.333.133.467l.2.133c-1.467 2.867-1.933 6.133-1.333 9.867.2 1.2.4 2.333.8 4 .733 3.133.8 3.4 1 4.667.333 2.333.2 4.333-.467 6.533-.067.2-.333.333-.533.267s-.333-.333-.267-.533c.667-2 .733-3.933.467-6.133-.133-.933-.2-1.333-.6-2.867l-4.867 3.6zm-10.733-9.934h-5.667v-.867h5.667l-2-2.333.667-.6 2.867 3.4-2.867 3.4-.667-.6zm20.666 0 2 2.333-.667.6-2.867-3.4 2.867-3.4.667.6-2 2.333h5.667v.867h-5.667z"/></svg>