<svg height="32" viewBox="0 0 32 32" width="32" xmlns="http://www.w3.org/2000/svg"><path d="m13.181 18.514c-.229-.686-.61-1.295-1.143-1.752-1.905-1.905-4.952-1.905-6.857 0-1.6 1.6-1.905 4.038-.686 5.943l-4.267 4.19c-.305.305-.305.762 0 1.067l3.505 3.505c.152.076.305.152.533.152s.381-.076.533-.229l4.267-4.19c1.905 1.143 4.343.914 5.943-.686 1.905-1.905 1.905-4.952 0-6.857-.533-.533-1.143-.914-1.829-1.143zm.762 6.934c-1.219 1.219-3.2 1.295-4.495.229-.305-.229-.762-.229-.99.076l-4.19 4.114-2.438-2.438 4.19-4.114c.229-.229.305-.686.076-.99-1.143-1.371-.99-3.276.229-4.495 1.295-1.295 3.429-1.295 4.8 0 .457.457.762.914.838 1.524.076.229.305.457.533.533.533.152 1.067.457 1.524.838 1.219 1.295 1.219 3.429-.076 4.724zm11.657-14.705 4.8-4.8c.305-.305.305-.762 0-1.067l-3.505-3.505c-.229-.229-.762-.229-.99.076l-4.8 4.8c-1.905-1.143-4.343-.914-5.943.686-1.905 1.905-1.905 4.952 0 6.857.533.533 1.143.914 1.752 1.143.229.686.61 1.295 1.143 1.752.914.914 2.21 1.371 3.429 1.371s2.514-.457 3.429-1.371c1.6-1.676 1.829-4.114.686-5.943zm-1.752 4.876c-.61.61-1.448.99-2.362.99s-1.752-.381-2.362-.99c-.457-.457-.762-.914-.838-1.524-.076-.229-.305-.457-.533-.533-.533-.152-1.067-.457-1.524-.838-.61-.61-.99-1.448-.99-2.362s.381-1.752.99-2.362c.686-.686 1.524-.99 2.362-.99.762 0 1.524.229 2.133.762.305.229.762.229.99-.076l4.724-4.724 2.438 2.438-4.724 4.724c-.229.229-.305.686-.076.99 1.067 1.295.99 3.276-.229 4.495zm7.39 3.657h-3.962c-.381 0-.762.305-.762.762 0 .381.305.762.762.762h3.962c.381 0 .762-.305.762-.762 0-.381-.305-.762-.762-.762zm-30.171-7.238h3.962c.381 0 .762-.305.762-.762 0-.381-.305-.762-.762-.762h-3.962c-.381 0-.762.305-.762.762s.381.762.762.762zm10.285-6.248c.381 0 .762-.305.762-.762v-3.886c0-.381-.305-.762-.762-.762-.381 0-.762.305-.762.762v3.962c0 .381.381.686.762.686zm8.762 19.81c-.381 0-.762.305-.762.762v3.962c0 .381.305.762.762.762s.762-.305.762-.762v-4.038c0-.381-.305-.686-.762-.686zm-13.79-18.286c.152.152.305.229.533.229s.381-.076.533-.229c.305-.305.305-.762 0-1.067l-2.819-2.743c-.305-.305-.762-.305-1.067 0s-.305.762 0 1.067l2.819 2.743zm17.981 15.848c-.305-.305-.762-.305-1.067 0s-.305.762 0 1.067l2.819 2.819c.152.152.305.229.533.229s.381-.076.533-.229c.305-.305.305-.762 0-1.067l-2.819-2.819z"/></svg>

