<!-- Generated by IcoMoon.io -->
<svg version="1.1" xmlns="http://www.w3.org/2000/svg" width="32" height="32" viewBox="0 0 32 32">
<title>bottle</title>
<path d="M30.966 20.186l-5.046-5.046c-0.006-0.006-0.011-0.012-0.017-0.018s-0.012-0.011-0.019-0.017l-1.686-1.685c-0.244-0.244-0.64-0.244-0.884 0s-0.244 0.64 0 0.884l1.262 1.261-2.087 2.087c-0.108 0.108-0.173 0.252-0.182 0.405-0.066 1.099-0.536 2.14-1.322 2.928-0.791 0.787-1.831 1.257-2.93 1.323-0.152 0.009-0.296 0.074-0.404 0.182l-2.087 2.087-6.056-6.056 2.086-2.086c0.108-0.108 0.173-0.252 0.182-0.404 0.066-1.101 0.537-2.143 1.324-2.93s1.828-1.258 2.93-1.324c0.152-0.009 0.296-0.074 0.404-0.182l2.087-2.087 0.791 0.791c0.122 0.122 0.282 0.183 0.442 0.183s0.32-0.061 0.442-0.183c0.244-0.244 0.244-0.639 0-0.884l-1.233-1.232c-0 0-0-0.001-0-0.001s-0-0.001-0-0.001l-1.511-1.511c-2.319-2.319-4.521-2.184-6.128-2.086-0.954 0.059-1.509 0.075-1.834-0.249l-0.8-0.8 0.049-0.049c0.117-0.117 0.183-0.276 0.183-0.442s-0.066-0.325-0.184-0.442l-1.941-1.94c-0.428-0.427-0.998-0.662-1.606-0.662s-1.179 0.235-1.606 0.662l-2.921 2.922c-0.427 0.427-0.663 0.998-0.663 1.605s0.235 1.179 0.662 1.606l1.94 1.942c0.117 0.117 0.276 0.184 0.442 0.184s0.325-0.066 0.442-0.184l0.049-0.049 0.799 0.8c0.325 0.325 0.308 0.88 0.249 1.834-0.098 1.607-0.233 3.809 2.086 6.128l1.511 1.511c0 0 0 0 0.001 0l6.923 6.923c0.005 0.006 0.011 0.012 0.016 0.018s0.012 0.011 0.018 0.016l5.047 5.047c0.666 0.666 1.552 1.034 2.492 1.034 1.747 0 3.199-1.278 3.475-2.948 1.482-0.245 2.654-1.417 2.898-2.898 1.671-0.276 2.948-1.729 2.948-3.475 0.001-0.94-0.366-1.825-1.032-2.491zM3.045 7.412l-1.498-1.5c-0.191-0.191-0.296-0.447-0.296-0.722s0.105-0.531 0.296-0.722l2.921-2.921c0.191-0.191 0.447-0.296 0.722-0.296s0.531 0.105 0.723 0.297l1.5 1.498-4.367 4.367zM7.554 16.567c-1.921-1.921-1.816-3.646-1.723-5.168 0.065-1.057 0.125-2.056-0.612-2.793l-0.8-0.8 3.386-3.386 0.8 0.8c0.739 0.739 1.737 0.677 2.794 0.612 1.521-0.093 3.246-0.199 5.167 1.723l1.070 1.069-1.924 1.924c-1.316 0.136-2.55 0.722-3.497 1.668s-1.533 2.179-1.668 3.496l-1.924 1.924-1.069-1.070zM29.032 24.882c-0.134-0.675-0.465-1.297-0.962-1.797-0.244-0.244-0.639-0.244-0.884-0.002s-0.245 0.639-0.002 0.884c0.43 0.431 0.666 1.003 0.666 1.608 0 1.253-1.020 2.273-2.273 2.273-0.607 0-1.177-0.237-1.609-0.666-0.244-0.244-0.64-0.243-0.884 0.002s-0.243 0.64 0.002 0.884c0.5 0.498 1.122 0.828 1.797 0.963-0.248 0.986-1.143 1.718-2.204 1.718-0.607 0-1.177-0.237-1.608-0.668l-4.622-4.622 1.925-1.924c1.314-0.135 2.547-0.721 3.497-1.668 0.945-0.948 1.53-2.181 1.666-3.495l1.925-1.925 4.622 4.622c0.43 0.43 0.668 1.002 0.668 1.608-0 1.063-0.733 1.956-1.719 2.205zM18.358 13.303c-0.244-0.244-0.639-0.244-0.884 0l-4.099 4.099c-0.245 0.244-0.245 0.64 0 0.884 0.122 0.122 0.282 0.183 0.441 0.183s0.32-0.061 0.442-0.183l4.1-4.099c0.245-0.245 0.245-0.64 0-0.884zM19.6 15.43l-4.099 4.099c-0.244 0.244-0.244 0.64 0 0.884 0.122 0.122 0.282 0.183 0.441 0.183s0.32-0.061 0.442-0.183l4.099-4.1c0.244-0.244 0.244-0.639 0-0.884s-0.639-0.244-0.884 0.001zM21.27 12.315c0.122 0.121 0.28 0.182 0.439 0.182 0.16 0 0.32-0.062 0.442-0.184 0.244-0.244 0.242-0.642-0.002-0.886s-0.64-0.244-0.884 0c-0.244 0.244-0.244 0.639 0 0.883l0.004 0.004z"></path>
</svg>
