<svg height="32" viewBox="0 0 29 32" width="29" xmlns="http://www.w3.org/2000/svg"><path d="m8.95 29.95c7.35 2.9 14.75-.8 17.1-10.4.05-.3.35-.45.65-.4s.45.35.4.65c-2.45 10.25-10.55 14.25-18.5 11.1-7.85-3.05-11.2-11.4-6.3-19.75.2-.35.7-.35.9 0 .75 1.15 1.65 1.95 2.55 2.25 1.6-4.95 4.1-9.35 7.5-13.2.2-.25.55-.25.8 0 2.4 2.55 4.4 5.5 6.1 8.95.15.25 0 .6-.25.7-.25.15-.6 0-.7-.25-1.55-3.15-3.35-5.85-5.5-8.25-3.2 3.75-5.55 8.05-7.05 12.85-.1.25-.3.4-.6.35-1.2-.15-2.3-.95-3.25-2.1-3.95 7.45-.85 14.75 6.15 17.5zm4.95-2.75c.3.05.5.3.45.6s-.3.5-.6.45c-6.75-.85-10.6-4.65-9.85-10.6.05-.4.5-.6.85-.35.8.65 1.5 1.05 2.1 1.2.65.15 1.05.05 1.3-.4 1.05-4.2 2.65-8 4.9-11.4.2-.3.65-.3.85-.05 1.35 1.8 2.4 3.75 3.25 6.1.1.25-.05.6-.3.65-.25.1-.6-.05-.7-.3-.7-1.95-1.55-3.65-2.65-5.2-2 3.15-3.4 6.6-4.4 10.55-.55 1.05-1.5 1.35-2.55 1.05-.55-.15-1.1-.45-1.7-.85-.15 4.8 3.15 7.8 9.05 8.55zm8.65-16.7-7.1 7.1c-1.2 1.2-1.2 3.2 0 4.45 1.25 1.2 3.25 1.2 4.45 0l7.1-7.05c1.2-1.2 1.2-3.2 0-4.45-1.2-1.25-3.2-1.25-4.45-.05zm5.2 5.2-7.05 7.05c-1.65 1.65-4.3 1.65-5.95 0-1.65-1.65-1.65-4.3 0-5.95l7.1-7.05c1.65-1.65 4.3-1.65 5.95 0v.05c1.6 1.6 1.6 4.3-.05 5.9zm-9.45 1.15c.2-.2.55-.2.75 0s.2.55 0 .75l-2.1 2.1c-.1.1-.1.2.05.5.15.25.05.55-.2.7s-.6.05-.7-.2c-.4-.65-.45-1.25.1-1.8zm5.2 2.4-5.25-5.2c-.5-.5.25-1.25.75-.75l5.2 5.2c.5.5-.25 1.25-.7.75z"/></svg>