<!-- Generated by IcoMoon.io -->
<svg version="1.1" xmlns="http://www.w3.org/2000/svg" width="32" height="32" viewBox="0 0 32 32">
<title>button</title>
<path d="M21.062 0h-10.125c-6.031 0-10.938 4.907-10.938 10.938v10.125c0 6.031 4.907 10.938 10.938 10.938h10.125c6.031 0 10.938-4.907 10.938-10.938v-10.125c0-6.031-4.907-10.938-10.938-10.938zM30.125 21.062c0 4.997-4.066 9.062-9.062 9.062h-10.125c-4.997 0-9.062-4.066-9.062-9.062v-10.125c0-4.997 4.066-9.062 9.062-9.062h10.125c4.997 0 9.062 4.066 9.062 9.062v10.125zM21.528 14.181l-7.75-5.178c-1.452-0.971-3.403 0.073-3.403 1.819v10.356c0 1.756 1.963 2.781 3.403 1.819l7.75-5.178c1.293-0.864 1.297-2.771 0-3.637zM20.486 16.26l-7.75 5.178c-0.207 0.139-0.486-0.008-0.486-0.26v-10.356c0-0.249 0.276-0.4 0.486-0.26l7.75 5.178c0.185 0.124 0.186 0.396 0 0.52z"></path>
</svg>
