<svg height="32" viewBox="0 0 32 32" width="32" xmlns="http://www.w3.org/2000/svg"><path d="m29.267 23.8-4.467-3.067c-.6-.4-1.267-.6-2-.6-1.133 0-2.2.533-2.8 1.467l-1.067 1.467c-1.733-1.133-3.667-2.733-5.533-4.533s-3.467-3.733-4.667-5.4l1.467-1c1.533-1.067 1.933-3.2.867-4.733l-3.067-4.4c-.667-.933-1.733-1.467-2.8-1.467-.4 0-.733.067-1.133.2s-.8.333-1.133.533l-.6.467c-.2.133-.333.2-.467.333-.733.8-1.267 1.733-1.6 2.8-1.267 4.733 1.933 11.867 7.933 17.8 5.067 4.933 11.133 8 15.867 8 .8 0 1.6-.067 2.267-.267 1.133-.267 2.067-.8 2.8-1.533.133-.133.267-.267.4-.467l.467-.6c.2-.333.4-.733.533-1.133.6-1.4.067-3-1.267-3.867zm0 3.4c-.133.333-.267.6-.4.8l-.4.533c-.067.133-.2.2-.267.267-.6.6-1.333 1-2.2 1.2-.6.133-1.2.2-1.933.2-4.4 0-10.067-2.933-14.867-7.667-5.6-5.333-8.733-12.133-7.6-16.333.267-.867.667-1.6 1.2-2.133l.267-.267.533-.4c.333-.133.667-.267.933-.4.2-.067.4-.133.667-.133.667 0 1.267.333 1.667.867l3.133 4.4c.667.933.4 2.2-.533 2.8l-2 1.4c-.333.2-.4.6-.2.933 1.2 1.933 3.067 4.133 5.2 6.2s4.333 3.867 6.333 5.067c.333.2.733.133.933-.2l1.4-2c.6-.867 2-1.133 2.867-.533l4.467 3.067c.8.6 1.133 1.533.8 2.333zm-2.267-21.933c-3-2.933-6.933-4.667-11.133-4.933-.4 0-.733.267-.733.6 0 .4.267.667.667.733 3.867.267 7.467 1.867 10.2 4.533s4.4 6.267 4.6 10c0 .333.333.6.667.6h.067c.4 0 .667-.333.667-.733-.267-4.067-2.067-7.933-5-10.8zm-11.467.466c2.867.2 5.533 1.333 7.533 3.333s3.2 4.6 3.4 7.4c0 .333.333.6.667.6h.067c.4 0 .667-.333.667-.733-.2-3.133-1.533-6.067-3.8-8.267s-5.267-3.533-8.467-3.733c-.4 0-.733.267-.733.6 0 .467.267.8.667.8zm-.266 4.067c1.867.133 3.6.867 4.867 2.133 1.333 1.267 2.067 3 2.2 4.8 0 .333.333.6.667.6h.067c.4 0 .667-.333.667-.733-.133-2.133-1.067-4.133-2.6-5.667s-3.6-2.4-5.8-2.533c-.4 0-.733.267-.733.6 0 .4.267.733.667.8z"/></svg>