<!-- Generated by IcoMoon.io -->
<svg version="1.1" xmlns="http://www.w3.org/2000/svg" width="32" height="32" viewBox="0 0 32 32">
<title>camera</title>
<path d="M16 0c-8.8 0-16 7.2-16 16s7.2 16 16 16 16-7.2 16-16c0-8.8-7.2-16-16-16zM16 30.88c-8.213 0-14.88-6.667-14.88-14.88s6.667-14.88 14.88-14.88c8.213 0 14.88 6.667 14.88 14.88s-6.667 14.88-14.88 14.88zM16 7.893c-4.48 0-8.107 3.627-8.107 8.107s3.627 8.107 8.107 8.107 8.107-3.627 8.107-8.107c0-4.48-3.627-8.107-8.107-8.107zM16 23.040c-3.893 0-7.040-3.147-7.040-7.040s3.147-7.040 7.040-7.040c3.893 0 7.040 3.147 7.040 7.040s-3.147 7.040-7.040 7.040zM16 19.307v1.12c2.453 0 4.427-1.973 4.427-4.427h-1.12c0 1.813-1.493 3.307-3.307 3.307z"></path>
</svg>
