<!-- Generated by IcoMoon.io -->
<svg version="1.1" xmlns="http://www.w3.org/2000/svg" width="36" height="32" viewBox="0 0 36 32">
<title>cart</title>
<path d="M35.378 11.2c-0.178-0.356-0.533-0.533-0.889-0.533h-4.267l-5.689-10.133c-0.356-0.533-1.067-0.711-1.6-0.533-0.533 0.356-0.711 1.067-0.356 1.6l4.978 8.889h-0.711c-0.711 0-1.244 0.533-1.244 1.244s0.533 1.244 1.244 1.244h6.222l-4.089 16.356h-22.044l-4.267-16.178h19.378c0.711 0 1.244-0.533 1.244-1.244s-0.533-1.244-1.244-1.244h-13.867l4.978-8.889c0.356-0.533 0.178-1.422-0.356-1.6-0.533-0.356-1.422-0.178-1.6 0.356l-5.689 10.133h-4.267c-0.356 0-0.711 0.178-1.067 0.533-0.178 0.356-0.178 0.711-0.178 1.067l4.8 18.844c0.178 0.533 0.533 0.889 1.244 0.889h23.644c0.533 0 1.067-0.356 1.067-0.889l4.8-18.844c0.178-0.356 0-0.711-0.178-1.067z"></path>
</svg>