<svg height="32" viewBox="0 0 18 32" width="18" xmlns="http://www.w3.org/2000/svg"><path d="m15.6 3.15h-2.6v-2.65c0-.25-.2-.5-.5-.5h-7.5c-.25 0-.5.2-.5.5v2.65h-2.6c-1.05 0-1.9.85-1.9 1.85v25.1c0 1.05.85 1.9 1.9 1.9h13.75c1.05 0 1.9-.85 1.9-1.9v-25.1c-.05-1-.9-1.85-1.95-1.85zm-10.1-2.2h6.5v2.15h-6.5zm11.05 29.15c0 .5-.4.9-.9.9h-13.75c-.5 0-.9-.4-.9-.9v-25.1c0-.5.4-.9.9-.9h13.75c.5 0 .9.4.9.9zm-3.5-12.45-2.6-1 1.1-6c.05-.2-.05-.45-.25-.5-.2-.1-.45-.05-.55.1l-6.5 7.1c-.1.1-.15.3-.1.45s.15.3.3.35l2.65 1-.3 5.35c0 .2.1.4.3.5.05 0 .1.05.2.05.15 0 .25-.05.35-.15l5.6-6.45c.1-.1.15-.3.1-.45s-.15-.3-.3-.35zm-5.2 5.5.25-4.35c0-.2-.1-.4-.3-.5l-2.3-.9 4.8-5.3-.85 4.75c-.05.25.1.45.3.55l2.35.9z"/></svg>