<svg xmlns="http://www.w3.org/2000/svg" width="32" height="32"><path d="M7.933 3.64c-.152.115-.2.348-.2.973v.606l-1.08.017c-1 .016-1.096.026-1.305.138-.353.188-.585.421-.746.75l-.149.303v20.8l.114.246c.155.336.439.637.749.795l.257.132H15.76l.258-.132a1.74 1.74 0 0 0 .748-.795l.114-.246.014-6.631.015-6.631.172.037c.306.065.881.402 1.159.679.16.161.35.434.468.672l.199.401.027 5.096c.027 5.023.029 5.101.141 5.43A2.549 2.549 0 0 0 21.093 28c1.253.2 2.532-.698 2.795-1.963.04-.192.059-1.716.06-4.773l.002-4.491.235-.142c.346-.21.513-.497.58-.998l.056-.418.584-.031c.511-.027.627-.052.922-.197a1.63 1.63 0 0 0 .824-.905c.094-.247.102-.422.102-2.083v-1.812h.294c.319 0 .475-.099.535-.337.018-.07.024-.524.015-1.01-.022-1.12-.006-1.097-.73-1.118l-.514-.015-.026-1.654c-.03-1.819-.027-1.802-.382-2.144a1.173 1.173 0 0 0-.845-.336c-.331 0-.61.111-.845.336-.355.342-.352.325-.382 2.144l-.026 1.654-.814.014-.813.015V6.271c0-.842-.024-1.579-.057-1.732-.212-.989-1.487-1.306-2.148-.535-.283.331-.302.466-.302 2.176v1.553h-.5c-.773 0-.753-.031-.753 1.191 0 .971.002.989.129 1.125.108.115.177.138.414.138h.284v1.784c0 1.965.014 2.075.334 2.52.336.47.76.654 1.599.696l.573.028v.309c0 .496.201.879.586 1.116l.216.133-.014 4.613L23.067 26l-.124.25c-.375.762-1.278 1.136-2.044.847a1.764 1.764 0 0 1-.936-.846l-.15-.304-.027-5.094c-.026-5.078-.027-5.094-.144-5.44a3.513 3.513 0 0 0-1.078-1.562c-.274-.229-.999-.596-1.284-.65a4.816 4.816 0 0 1-.278-.061c-.085-.024-.093-.265-.107-3.37l-.015-3.343-.149-.303c-.161-.329-.393-.562-.746-.75-.208-.112-.304-.122-1.305-.138l-1.08-.017v-.602c0-.64-.058-.907-.215-.991-.156-.084-5.342-.07-5.452.014m4.814 1.16v.427h-4.16v-.854h4.16V4.8m8.903-.349c.083.043.165.117.184.165.018.047.033.756.033 1.575V7.68h-.8V4.594l.14-.11c.167-.131.241-.137.443-.033m4.221.078.156.156V7.68h-.854V4.685l.156-.156c.197-.197.345-.197.542 0M15.68 6.162a.826.826 0 0 1 .28.293c.088.174.093.78.093 10.372 0 9.593-.005 10.197-.093 10.369a.979.979 0 0 1-.244.294c-.15.109-.178.11-5.049.11s-4.9-.001-5.05-.11a.994.994 0 0 1-.244-.294c-.087-.172-.093-.776-.093-10.358 0-10.752-.008-10.393.231-10.591.261-.216.291-.217 5.236-.205 4.665.011 4.75.013 4.933.12m11.573 2.785v.413h-7.466v-.827h7.466v.414m-14.462.64c-.204.214-5.612 6.778-5.765 6.998-.123.175-.117.33.018.501l.11.141h1.063c.585 0 1.063.017 1.063.038 0 .021-.339 1.311-.753 2.867-.415 1.555-.754 2.887-.754 2.958 0 .16.238.377.414.377.07 0 .187-.054.26-.12.073-.066 1.443-1.713 3.043-3.659 1.984-2.413 2.91-3.579 2.91-3.663 0-.401-.152-.452-1.357-.452-.544 0-.989-.018-.988-.04.001-.022.345-1.324.765-2.893.806-3.01.816-3.067.565-3.201-.202-.108-.396-.06-.594.148M26.4 11.98c0 1.744-.003 1.799-.115 1.98a.838.838 0 0 1-.333.285c-.202.092-.389.099-2.428.1-2.103.002-2.221-.004-2.431-.105a.793.793 0 0 1-.337-.314c-.113-.201-.116-.256-.116-1.973v-1.766h5.76v1.793m-14.743 1.8c-.31 1.16-.564 2.168-.564 2.239 0 .071.046.186.102.255.098.121.137.127.99.153l.888.026-1.954 2.374c-2.105 2.558-2.073 2.52-2.03 2.4.097-.267 1.151-4.317 1.151-4.424a.444.444 0 0 0-.116-.253c-.112-.119-.145-.123-.987-.123-.479 0-.87-.014-.87-.03 0-.051 3.907-4.774 3.931-4.75.012.012-.231.972-.541 2.133m12.278 1.722c-.028.339-.16.499-.408.496-.266-.003-.434-.241-.434-.615V15.2h.867l-.025.302" fill-rule="evenodd"/></svg>