<svg height="32" viewBox="0 0 32 32" width="32" xmlns="http://www.w3.org/2000/svg"><path d="m13.733 3c-.4 0-.8 0-1.267.133l-.533.133.267 1.067.533-.133c.733-.2 1.2-.133 1.6.067s.667.467.933.8c.267.333.4.733.467 1-4.933.133-9.2 3.2-10.8 7.533h-.867c-2.267 0-4.067 1.8-4.067 3.933 0 2.2 1.8 3.933 4.067 3.933h.867c1.667 4.4 6 7.533 11.067 7.533s9.4-3.133 11.067-7.467h.867c2.267 0 4.067-1.8 4.067-3.933 0-2.2-1.8-3.933-4.067-3.933h-.867c-1.533-4.067-5.4-7-10-7.467.067-.2.133-.467.267-.667.2-.333.4-.533.667-.667s.6-.133 1.267.067l.533.2.4-1.067-.533-.2c-.8-.267-1.467-.267-2.067-.067-.533.2-.867.6-1.133 1-.067-.133-.133-.267-.2-.4-.333-.467-.733-.933-1.4-1.2-.4-.067-.733-.2-1.133-.2zm2.267 4.2c4.733 0 8.667 2.933 10.133 7v.067c.2.467.267 1 .4 1.533 0 .067 0 .133.067.267 0 .2.067.4.067.6 0 .267.067.6.067.867v.067c0 .333 0 .6-.067.933 0 .133-.067.267-.067.467 0 .133-.067.267-.067.467s-.067.333-.133.533c0 .067-.067.2-.067.267-.067.2-.133.4-.2.6-1.4 4.133-5.4 7.067-10.133 7.067s-8.667-2.933-10.133-7c0-.067 0-.067 0-.067-.2-.467-.333-1-.4-1.533 0-.067 0-.133 0-.2 0-.2-.067-.4-.067-.6-.067-.4-.067-.733-.067-1 0-.333 0-.6.067-.933 0-.133.067-.333.067-.467s.067-.267.067-.467c.067-.2.067-.333.133-.533 0-.067.067-.2.067-.267.067-.2.133-.4.2-.6 1.333-4.133 5.333-7.067 10.067-7.067zm-11.933 7.467h.467c-.267.933-.4 1.867-.4 2.867s0 0 0 0c0 1 .133 1.933.4 2.867h-.467c-1.667 0-2.933-1.267-2.933-2.867s1.333-2.867 2.933-2.867zm23.4 0h.467c1.667 0 2.933 1.267 2.933 2.867s-1.267 2.867-2.933 2.867h-.467c.267-.933.4-1.867.4-2.867s0 0 0 0c-.067-1-.133-1.933-.4-2.867zm-16.934 4.866-1 .467.267.467c1.2 2.333 3.6 3.733 6.267 3.733s5.067-1.467 6.267-3.733l.267-.467-1-.467-.267.467c-1 1.933-3 3.133-5.2 3.133s-4.267-1.2-5.2-3.133l-.4-.467z"/></svg>