<svg height="32" viewBox="0 0 32 32" width="32" xmlns="http://www.w3.org/2000/svg"><path d="m9.522 5.932c-.39.39-9.522 10.302-9.522 15.688 0 5.541 4.449 9.99 10.068 9.99 5.541 0 10.068-4.449 10.068-9.99 0-5.307-9.132-15.376-9.6-15.766-.312-.312-.78-.312-1.015.078zm.546 24.351c-4.839 0-8.663-3.824-8.663-8.663 0-4.215 6.79-12.176 8.663-14.283 1.951 2.185 8.663 10.146 8.663 14.283 0 4.761-3.902 8.663-8.663 8.663zm-5.385-10.068c0-.39-.234-.702-.702-.702-.39 0-.702.234-.702.702 0 4.683 3.824 8.429 8.507 8.429.39 0 .702-.234.702-.702s-.234-.702-.702-.702c-3.981.078-7.102-3.122-7.102-7.024zm19.278-19.825c-4.449 0-8.039 3.59-8.039 7.961s3.59 7.961 8.039 7.961 8.039-3.59 8.039-7.961-3.59-7.961-8.039-7.961zm.078 14.595c-3.668 0-6.712-2.966-6.712-6.634s3.044-6.634 6.712-6.634 6.712 2.966 6.712 6.634-3.044 6.634-6.712 6.634zm0-2.653c-2.185 0-3.98-1.795-3.98-3.98 0-.39-.234-.702-.702-.702-.39 0-.702.234-.702.702 0 2.888 2.419 5.307 5.385 5.307.312 0 .702-.312.702-.702-.078-.312-.312-.624-.702-.624z"/></svg>