<svg height="32" viewBox="0 0 32 32" width="32" xmlns="http://www.w3.org/2000/svg"><path d="m31.093 4.16c-2.88 1.28-6.027 2.133-7.253 5.387-.693 1.76-.907 5.227.907 6.453-.053.853.053 1.6.053 2.453.16 5.013-5.12 8.907-9.547 9.6-3.307.48-6.72-.16-9.333-2.293-2.133-1.76-3.413-4.48-3.947-7.147-1.067-5.653 1.92-11.253 7.2-13.333 2.667-1.013 5.707-1.12 8.32-.053 2.4.96 4.96 3.733 3.893 6.24-.267-.427-.64-.8-1.12-1.173-1.973-1.387-4.533-2.08-6.933-2.08-4.48.053-9.707 3.2-9.6 8.32.053 2.453 1.067 5.067 3.093 6.453 1.973 1.333 4.533 1.6 6.773 1.12 2.88-.64 5.6-2.4 7.467-4.64 1.6-1.92 2.933-4.907 1.013-7.04 1.173-1.867.8-4.533-.587-6.347-1.76-2.347-5.013-3.36-7.84-3.413-6.133-.053-11.787 4.107-13.28 10.08-1.547 6.293 1.653 13.6 7.893 15.733 6.347 2.187 13.973-.053 16.96-6.347.053-.053.107-.16.16-.213.8-.907 1.92-2.4 3.307-2.24s1.813 1.707 1.387 2.88c-.267.693-1.013 1.493-1.813 1.067-.32-.16-.587-.48-.587-.853s.32-.8.373-.8c-.053.533.587 1.12 1.12.587.693-.64.427-1.92-.48-2.187-1.013-.267-2.08.587-2.347 1.493-.8 2.613 2.667 4 4.267 2.08 1.44-1.76.8-4.853-1.6-5.28-1.227-.16-2.24.373-2.933 1.28.16-.907.213-1.813.213-2.827 0-.213 0-.427.053-.693 2.027-.107 3.733-1.973 4.427-3.733.427-1.067.587-2.187.693-3.307.16-1.44-.267-3.2.533-4.533.267-.427-.427-.907-.907-.693zm-16.96 5.6c1.92.16 4.107.747 5.6 1.973.267.213.48.427.587.64-1.493.427-2.88-.16-4.427-.373-1.6-.213-3.147-.213-4.693.107-1.44.32-2.88.96-3.947 1.973-.853.8-1.493 1.867-2.027 2.933-.053-.267-.053-.587-.053-.853.053-4.48 5.173-6.667 8.96-6.4zm5.494 4.16c-.8.587-2.08.96-2.827 1.013-2.453.267-4.907 0-7.307.853-.8.267-1.6.64-2.347 1.12.427-.853.907-1.653 1.76-2.24 1.227-.907 2.773-1.28 4.267-1.333s2.933.16 4.427.48c.693.107 1.387.213 2.027.107zm-2.507 6.987c-.107-.48-.267-.96-.48-1.44-.16-.373-.693-.107-.587.267.16.533.16 1.173.107 1.76-.587.267-1.12.533-1.707.747.107-.693.107-1.387-.32-1.92-.16-.16-.48-.16-.587.053-.16.373-.16.8-.213 1.173s-.16.693-.267 1.013c-.587.107-1.173.16-1.76.16.16-.213.267-.48.373-.747.16-.48.16-.64.107-1.067s-.64-.64-.693-.16c-.16 1.013-1.173 1.707-1.387 1.813-.48-.107-.907-.267-1.387-.533-.853-.427-1.493-1.12-2.027-1.973.053-.053.053-.053.053-.107 1.227-2.667 4.907-3.307 7.467-3.467 2.453-.107 5.067.053 7.04-1.653.32-.267.587-.587.693-.853.107 2.88-1.973 5.333-4.427 6.933zm11.36-6.987c-.587.64-1.227.853-1.973 1.067.48-1.813 1.387-3.52 2.133-5.12.427-.853-.853-1.653-1.333-.747-.907 1.707-1.813 3.52-2.293 5.387-.8-1.547-.533-3.52.267-5.12 1.013-1.973 2.987-2.827 4.96-3.627-.373 1.707-.053 3.68-.48 5.387-.213 1.013-.587 2.027-1.28 2.773z"/></svg>