<!-- Generated by IcoMoon.io -->
<svg version="1.1" xmlns="http://www.w3.org/2000/svg" width="33" height="32" viewBox="0 0 33 32">
<title>control</title>
<path d="M32.34 19.881l-4.357-2.451c0.068-0.477 0.068-0.953 0.068-1.43s0-0.953-0.068-1.43l4.357-2.451c0.272-0.136 0.408-0.477 0.272-0.749-0.749-2.587-2.179-4.902-4.085-6.809-0.204-0.204-0.545-0.272-0.817-0.136l-4.357 2.451c-0.749-0.545-1.634-1.021-2.519-1.43v-4.357c0-0.272-0.204-0.545-0.477-0.613-2.655-0.613-5.515-0.613-8.17 0-0.272 0.068-0.477 0.34-0.477 0.613v4.357c-0.885 0.34-1.77 0.885-2.519 1.43l-4.289-2.451c-0.272-0.136-0.613-0.068-0.817 0.136-1.906 1.974-3.336 4.221-4.085 6.809-0.068 0.272 0.068 0.613 0.272 0.749l4.357 2.451c-0.068 0.477-0.068 0.953-0.068 1.43s0 0.953 0.068 1.43l-4.357 2.451c-0.272 0.136-0.408 0.477-0.272 0.749 0.749 2.587 2.179 4.97 4.085 6.945 0.204 0.204 0.545 0.272 0.817 0.136l4.357-2.451c0.749 0.545 1.634 1.021 2.519 1.43v4.289c0 0.272 0.204 0.545 0.477 0.613 1.294 0.34 2.655 0.477 4.085 0.477 1.362 0 2.791-0.136 4.085-0.477 0.272-0.068 0.477-0.34 0.477-0.613v-4.289c0.885-0.34 1.77-0.885 2.519-1.43l4.357 2.451c0.272 0.136 0.613 0.136 0.817-0.136 1.906-1.974 3.336-4.357 4.085-6.945 0.068-0.272-0.068-0.613-0.34-0.749zM27.983 26.281l-4.289-2.451c-0.204-0.136-0.545-0.136-0.749 0.068-0.885 0.681-1.838 1.294-2.928 1.634-0.272 0.068-0.409 0.34-0.409 0.613v4.221c-2.111 0.477-4.426 0.477-6.536 0v-4.221c0-0.272-0.136-0.477-0.409-0.613-1.089-0.409-2.043-0.953-2.928-1.634-0.204-0.204-0.477-0.204-0.749-0.068l-4.289 2.451c-1.498-1.566-2.587-3.472-3.268-5.515l4.289-2.451c0.204-0.136 0.34-0.409 0.34-0.681-0.068-0.545-0.136-1.089-0.136-1.634s0.068-1.089 0.136-1.634c0.068-0.272-0.068-0.545-0.34-0.681l-4.289-2.451c0.681-2.043 1.77-3.881 3.268-5.447l4.289 2.451c0.204 0.136 0.545 0.136 0.749-0.068 0.885-0.681 1.838-1.294 2.928-1.634 0.272-0.068 0.409-0.34 0.409-0.613v-4.289c2.111-0.477 4.426-0.477 6.536 0v4.289c0 0.272 0.136 0.477 0.409 0.613 1.089 0.409 2.043 0.953 2.928 1.634 0.204 0.204 0.477 0.204 0.749 0.068l4.289-2.451c1.498 1.566 2.587 3.404 3.268 5.447l-4.289 2.451c-0.204 0.136-0.34 0.409-0.34 0.681 0.068 0.545 0.136 1.089 0.136 1.634s-0.068 1.089-0.136 1.634c-0.068 0.272 0.068 0.545 0.34 0.681l4.289 2.451c-0.681 2.043-1.838 3.949-3.268 5.515zM20.766 12.187c-0.817-0.953-1.974-1.566-3.268-1.838-0.749-0.136-1.566-0.136-2.315 0-1.294 0.272-2.383 0.885-3.268 1.838-0.545 0.613-0.885 1.226-1.157 1.974-0.204 0.613-0.34 1.226-0.34 1.838s0.136 1.226 0.34 1.838c0.272 0.681 0.613 1.362 1.157 1.974 0.817 0.953 1.974 1.566 3.268 1.838 0.34 0.068 0.749 0.136 1.157 0.136s0.817-0.068 1.157-0.136c1.294-0.272 2.383-0.885 3.268-1.838 0.545-0.613 0.885-1.226 1.157-1.974 0.204-0.613 0.34-1.226 0.34-1.838s-0.136-1.226-0.34-1.838c-0.272-0.681-0.681-1.362-1.157-1.974zM20.698 17.43c-0.204 0.545-0.477 1.089-0.885 1.498-0.681 0.749-1.498 1.226-2.519 1.43-0.545 0.136-1.226 0.136-1.838 0-1.021-0.204-1.838-0.681-2.519-1.43-0.409-0.477-0.749-0.953-0.885-1.498-0.136-0.477-0.272-0.953-0.272-1.43s0.068-0.953 0.272-1.43c0.204-0.545 0.477-1.089 0.885-1.498 0.681-0.749 1.498-1.226 2.519-1.43 0.272-0.068 0.613-0.068 0.885-0.068 0.34 0 0.613 0 0.885 0.068 1.021 0.204 1.838 0.681 2.519 1.43 0.409 0.477 0.749 0.953 0.885 1.498 0.136 0.477 0.272 0.953 0.272 1.43s-0.068 0.953-0.204 1.43z"></path>
</svg>