<!-- Generated by IcoMoon.io -->
<svg version="1.1" xmlns="http://www.w3.org/2000/svg" width="47" height="32" viewBox="0 0 47 32">
<title>delivery_3</title>
<path d="M43.442 12.509l-4.752-9.988h-9.503v-2.521h-22.982v1.939h21.042v12.024h14.836l2.424 3.103v8.436h-3.782c-0.485-3.006-3.394-4.945-6.303-4.461-2.23 0.388-4.073 2.133-4.461 4.461h-9.6c-0.485-3.006-3.394-4.945-6.303-4.461-2.23 0.388-4.073 2.133-4.461 4.461h-3.394v1.939h3.297c0.582 3.006 3.394 4.945 6.4 4.364 2.23-0.388 3.976-2.133 4.364-4.364h9.697c0.582 3.006 3.394 4.945 6.4 4.364 2.23-0.388 3.976-2.133 4.364-4.364h5.818v-10.958l-3.103-3.976zM29.188 12.024v-7.564h8.242l3.588 7.564h-11.83zM18.424 26.57c0 1.939-1.552 3.491-3.491 3.491s-3.491-1.552-3.491-3.491 1.552-3.491 3.491-3.491c1.939-0.097 3.491 1.455 3.491 3.491 0-0.097 0-0.097 0 0zM38.885 26.57c0 1.939-1.551 3.491-3.491 3.491v0c-1.939 0-3.491-1.552-3.491-3.491s1.551-3.491 3.491-3.491 3.491 1.455 3.491 3.491c0-0.097 0-0.097 0 0zM10.279 17.939h-7.855v1.939h7.855v-1.939zM13.77 12.024h-13.77v1.939h13.77v-1.939zM16.194 6.109h-13.77v1.939h13.77v-1.939z"></path>
</svg>
