<svg xmlns="http://www.w3.org/2000/svg" width="32" height="32"><path d="M8.152 3.049c-2.493.182-4.79 1.891-5.697 4.24-.436 1.129-.554 2.451-.321 3.596.16.782.711 2.339.882 2.488.241.211.643.109.769-.195.061-.147.036-.25-.286-1.189-.523-1.53-.616-2.383-.38-3.504.416-1.976 2.121-3.748 4.108-4.269 1.351-.354 2.647-.232 3.893.367.51.245.805.439 2.895 1.91 2.092 1.473 3.677 2.231 5.205 2.493.726.124.918.111 1.104-.075.344-.344.129-.769-.421-.833a8.774 8.774 0 0 1-1.585-.348c-.664-.213-1.942-.859-2.764-1.398l-.685-.45.445-.319c.808-.579 1.121-.774 1.613-1.006 2.098-.992 4.522-.594 6.277 1.031a5.799 5.799 0 0 1 1.63 2.709c.177.671.199 1.766.05 2.45-.112.512-1.794 5.26-1.87 5.28-.03.007-.266.041-.525.075-1.95.257-3.808 1.588-4.744 3.401a6.521 6.521 0 0 0 .021 6.034c.114.215.207.403.207.418 0 .052-.349-.049-.59-.171a1.823 1.823 0 0 1-.746-.791c-.053-.121-.46-1.802-.903-3.734s-.837-3.589-.875-3.68c-.091-.218-.406-.492-.62-.539-.434-.096-.935.148-1.096.533-.037.089-.43 1.744-.874 3.678-.443 1.933-.851 3.617-.906 3.741-.453 1.023-1.905 1.34-2.746.6a2.172 2.172 0 0 1-.373-.437c-.07-.122-.48-1.218-.912-2.435-.874-2.466-.917-2.548-1.299-2.488-.236.038-.433.249-.433.464 0 .224 1.573 4.607 1.777 4.95.344.581 1.027 1.063 1.777 1.256 1.218.314 2.543-.3 3.083-1.427.154-.322.296-.905.902-3.715.396-1.833.736-3.424.756-3.536.021-.111.046-.194.056-.184.01.009.381 1.601.824 3.535.907 3.954.942 4.062 1.483 4.602.551.55 1.291.833 2.095.802l.408-.015.333.308c.883.818 1.943 1.353 3.199 1.615.555.116 1.717.129 2.294.025.518-.092 1.385-.376 1.818-.595A6.587 6.587 0 0 0 29.89 23.6c.163-.943.078-2.153-.216-3.054-.154-.47-.155-.504-.026-.622.056-.05.156-.216.222-.368.309-.71.009-1.545-.675-1.877-.275-.134-.893-.169-1.143-.066-.182.076-.19.074-.425-.121a6.57 6.57 0 0 0-3.006-1.377l-.497-.088.771-2.16c.969-2.716 1.028-2.937 1.064-3.977.034-.961-.05-1.553-.337-2.377-.235-.674-.353-.91-.764-1.524-.575-.86-1.52-1.695-2.514-2.223-1.818-.966-4.127-.984-5.993-.047-.46.23-.673.367-1.311.843a28.8 28.8 0 0 1-.761.551l-.254.174-.786-.553c-1.014-.713-1.227-.845-1.774-1.102-1.013-.474-2.123-.67-3.313-.583M6.587 5.528c-.7.367-.893.61-.752.948.154.37.463.392.998.073.516-.308.626-.497.467-.806-.148-.289-.417-.37-.713-.215m3.555.142c-.083.089-.13.234-.165.513-.125.999-.841 1.711-1.811 1.802-.434.04-.646.21-.646.515 0 .319.171.458.634.516 1.013.127 1.696.801 1.819 1.793.063.502.19.658.539.658.314 0 .449-.159.497-.584.057-.504.215-.869.523-1.206.353-.386.755-.59 1.296-.657.513-.064.639-.165.639-.513s-.137-.463-.614-.514a2.055 2.055 0 0 1-1.215-.548c-.34-.317-.531-.706-.618-1.258-.084-.524-.181-.64-.537-.64-.166 0-.255.032-.341.123M4.88 7.198c-.164.066-.275.214-.453.607-.183.403-.35 1.06-.401 1.582-.071.724.172 1.869.442 2.082.246.193.643.059.764-.258.033-.085.011-.259-.068-.56-.23-.867-.135-1.84.255-2.608.17-.336.165-.522-.019-.693-.167-.156-.365-.213-.52-.152m5.68.523c0 .056.417.497.603.639l.15.114-.42.42-.42.42-.157-.208a2.493 2.493 0 0 0-.4-.394l-.243-.186.403-.416c.389-.401.484-.477.484-.389m2.773 2.823c-.219.08-.31.239-.347.605a2.063 2.063 0 0 1-.921 1.537c-.27.173-.773.327-1.067.327-.225 0-.491.246-.491.452 0 .182.13.432.251.481.052.021.257.057.456.08.919.106 1.597.761 1.746 1.687.094.584.1.601.265.686.281.146.578.086.7-.141.033-.062.081-.279.107-.482.061-.49.198-.782.533-1.136a1.856 1.856 0 0 1 1.201-.607c.419-.053.578-.118.659-.271.121-.224.027-.587-.178-.685a1.79 1.79 0 0 0-.434-.088 2.012 2.012 0 0 1-1.785-1.779c-.049-.447-.111-.569-.328-.644-.182-.064-.242-.067-.367-.022m-8.181 2.112c-.09.09-.133.213-.161.461-.058.519-.216.873-.546 1.229a1.894 1.894 0 0 1-1.247.637c-.207.026-.434.085-.504.132-.245.16-.223.633.037.796.067.042.276.091.464.109.916.089 1.635.787 1.77 1.719.071.496.123.6.342.691.397.166.644-.042.715-.604.083-.663.387-1.17.9-1.499.27-.173.772-.327 1.067-.327.409 0 .639-.515.37-.829-.101-.117-.186-.148-.501-.182-.999-.11-1.708-.806-1.831-1.798-.043-.345-.076-.438-.189-.538-.189-.165-.519-.164-.686.003m8.753.459.428.421-.134.072c-.073.039-.258.209-.412.378l-.278.308-.404-.398-.405-.398.383-.396.389-.402c.003-.004.198.183.433.415m-7.812 2.188.23.183-.421.416-.422.415-.112-.145a3.133 3.133 0 0 0-.531-.53l-.15-.116.416-.418.417-.419.171.216c.094.118.275.297.402.398m18.72 1.892c.284.072.72.227.97.344.43.201 1.257.729 1.257.801 0 .019-.781.814-1.735 1.767l-1.736 1.733-.246-.267c-.837-.905-.968-1.029-1.211-1.145a1.81 1.81 0 0 0-1.337-.052c-.484.183-.84.565-.991 1.062-.139.457-.12.776.072 1.193.159.344 1.924 2.33 2.261 2.544.56.354 1.367.411 1.968.137.275-.126.589-.418 2.484-2.309l2.169-2.166.055.208c.138.525.179.974.153 1.694-.034.932-.148 1.391-.543 2.194a5.473 5.473 0 0 1-3.523 2.889c-.464.124-.641.143-1.36.146-.705.003-.897-.015-1.303-.121-1.984-.522-3.425-1.913-4.013-3.874-.132-.441-.144-.557-.147-1.44-.004-1.152.077-1.532.527-2.453a5.458 5.458 0 0 1 4.149-3.014c.548-.077 1.5-.018 2.08.129m3.978 1.397c.173.121.238.32.171.523-.078.236-5.022 5.17-5.294 5.283-.246.102-.63.106-.856.008-.095-.041-.308-.215-.473-.387-.511-.53-1.44-1.584-1.545-1.752-.264-.422.062-.987.569-.987.125 0 .266.015.313.032.046.018.396.376.777.796.732.807.899.922 1.244.857.135-.025.592-.455 2.223-2.09 1.129-1.133 2.147-2.129 2.261-2.214.234-.173.43-.195.61-.069" fill-rule="evenodd"/></svg>