<svg xmlns="http://www.w3.org/2000/svg" width="32" height="32"><path d="M8.107 3.046c-1.514.124-3.027.84-4.16 1.967a6.555 6.555 0 0 0-1.815 3.36c-.162.783-.13 2.071.07 2.831.173.662 4.964 14.073 5.15 14.418.313.58 1.002 1.104 1.69 1.283.407.106 1.101.104 1.468-.003.765-.225 1.395-.743 1.723-1.416.196-.404.18-.336 1.454-6.271.14-.652.261-1.178.269-1.17.008.008.377 1.597.82 3.531.906 3.953.94 4.061 1.482 4.601 1.277 1.275 3.461 1.02 4.364-.509.073-.123.299-.687.502-1.253l.454-1.255.084-.227h.309c.169 0 .519-.036.778-.081.258-.045.486-.063.508-.04.022.023.732 1.241 1.577 2.708 1.064 1.844 1.609 2.738 1.768 2.897a2.5 2.5 0 0 0 .587.4c.314.148.413.169.811.169.398 0 .497-.021.811-.169a2.03 2.03 0 0 0 1.162-1.511 2.122 2.122 0 0 0-.121-1.057c-.035-.078-.765-1.361-1.624-2.851l-1.561-2.709.264-.344c.949-1.238 1.45-2.997 1.287-4.515-.17-1.573-.793-2.876-1.903-3.979l-.552-.55.084-.384c.134-.61.156-1.634.049-2.284-.309-1.874-1.338-3.452-2.936-4.5-1.157-.759-2.273-1.093-3.653-1.093-1.084 0-2.041.218-2.945.671-.377.19-1.142.685-1.962 1.271l-.4.286-.89-.627c-.49-.345-1.107-.739-1.372-.876a6.674 6.674 0 0 0-3.631-.719m1.228 1.009c1.069.131 1.968.523 3.172 1.381 2.282 1.628 3.111 2.164 4.133 2.676 1.055.528 2.511.955 3.26.955.225 0 .293-.025.424-.156.344-.344.129-.769-.421-.833-1.372-.159-2.791-.729-4.349-1.748l-.685-.448.445-.319c.754-.54 1.069-.74 1.513-.962.902-.45 1.445-.573 2.506-.569.698.003.868.022 1.332.149 1.992.543 3.526 2.02 4.117 3.964.129.425.143.553.147 1.375.004.935-.032 1.231-.145 1.182l-.501-.221a7.982 7.982 0 0 0-.96-.333c-.484-.131-.603-.142-1.59-.142-.985 0-1.106.011-1.586.141-2.817.76-4.759 3.144-4.878 5.986-.05 1.194.135 2.095.649 3.15.789 1.621 2.224 2.846 3.922 3.347.249.074.528.154.62.179l.167.044-.384 1.067c-.438 1.214-.45 1.24-.711 1.529-.808.894-2.409.642-2.895-.456-.053-.121-.46-1.802-.903-3.734s-.837-3.589-.875-3.68c-.091-.218-.406-.492-.62-.539-.436-.096-.935.148-1.097.536-.037.09-.431 1.746-.875 3.681-.444 1.934-.851 3.617-.906 3.739-.451 1.019-1.904 1.335-2.744.596a2.172 2.172 0 0 1-.373-.437c-.185-.321-5.018-13.901-5.128-14.408-.121-.561-.124-1.72-.006-2.246.633-2.814 3.401-4.791 6.225-4.446M6.473 5.59a5.88 5.88 0 0 0-.436.27c-.434.308-.265.913.254.913.186 0 .874-.385.994-.556.113-.162.092-.431-.045-.589-.183-.211-.436-.224-.767-.038M4.907 7.185c-.236.086-.445.434-.662 1.098a4.595 4.595 0 0 0-.196 1.89c.142 1.17.446 1.588.961 1.322.249-.129.287-.34.153-.847-.229-.864-.133-1.838.256-2.605.21-.415.155-.686-.168-.821-.193-.08-.22-.083-.344-.037m17.466 3.807c1.939.238 3.585 1.433 4.382 3.183a5.52 5.52 0 0 1-.026 4.566c-.292.623-.55.998-1.038 1.508-.691.722-1.444 1.177-2.47 1.493-.445.137-.536.146-1.461.146-.92 0-1.019-.009-1.467-.144-1.9-.573-3.286-1.96-3.849-3.851-.131-.438-.144-.561-.147-1.413-.003-.86.009-.974.144-1.459.602-2.161 2.417-3.75 4.599-4.027a4.445 4.445 0 0 1 1.333-.002m-1.62.554c-1.05.237-1.829.665-2.57 1.411a4.96 4.96 0 0 0-1.419 3.736c.119 2.196 1.607 4.011 3.769 4.595.651.176 1.802.177 2.45.001 1.888-.511 3.239-1.939 3.666-3.874.05-.226.082-.63.082-1.015-.004-2.241-1.499-4.18-3.686-4.781-.534-.146-1.791-.187-2.292-.073m2.017 1.048a3.947 3.947 0 0 1 2.564 2.099c.286.586.389 1.05.391 1.76.001.448-.027.687-.118 1.011-.497 1.77-2.04 2.963-3.832 2.963a3.784 3.784 0 0 1-1.748-.399c-1.038-.494-1.759-1.339-2.115-2.481-.103-.33-.125-.517-.125-1.067 0-.707.06-1.044.277-1.567.209-.504.523-.955.946-1.357 1.025-.973 2.364-1.316 3.76-.962m3.379 9.202c.111.195.183.373.16.395-.066.062-1.621.956-1.66.954-.02-.001-.122-.154-.228-.34l-.192-.339.485-.246c.268-.136.642-.366.833-.511.19-.146.358-.266.373-.267.015 0 .117.159.229.354m1.675 2.897c1.179 2.045 1.156 2 1.153 2.322a.966.966 0 0 1-1.377.884 1.202 1.202 0 0 1-.327-.225c-.151-.17-2.108-3.568-2.089-3.627.026-.075 1.666-1.005 1.701-.964.018.02.441.745.939 1.61" fill-rule="evenodd"/></svg>