<svg xmlns="http://www.w3.org/2000/svg" width="32" height="32"><path d="M26.194 3.043c-.483.097-.945.489-1.091.928l-.072.215-.475.113c-1.322.316-3.029.934-3.221 1.166-.044.052-.079.191-.079.307 0 .166.032.24.148.34.204.176.375.162.982-.078a18.865 18.865 0 0 1 2.147-.7l.614-.161.078.12a1.49 1.49 0 0 0 2.368.197l.23-.256.161.098c.197.119.353.334.442.61.097.298.039 1.029-.126 1.587-.158.535-.128.739.13.873.362.187.626.03.793-.47.255-.767.337-1.578.214-2.113-.145-.626-.597-1.198-1.161-1.468-.279-.133-.316-.172-.402-.412-.227-.639-.972-1.036-1.68-.896m.637 1.113c.322.322.124.828-.324.828-.292 0-.48-.197-.48-.502 0-.164.033-.234.164-.344.222-.187.441-.181.64.018M8.085 6.565c-2.384.252-4.233 1.441-5.619 3.615-.623.977-.906 1.942-.956 3.26-.047 1.217.159 2.351.656 3.624.484 1.242 1.351 2.698 2.13 3.581.151.171.176.248.233.72.207 1.696.762 3.59 1.347 4.591.114.195.189.373.166.395-.062.06-.92.302-1.577.446l-.574.126-.075-.142c-.114-.218-.457-.524-.723-.644-.482-.218-1.213-.099-1.584.257-.165.158-.21.144-.348-.114-.105-.197-.12-.3-.116-.787.004-.457.032-.643.153-1.013.276-.848.832-1.914 1.541-2.954.365-.536.407-.739.2-.96-.157-.167-.355-.216-.548-.135-.261.107-1.138 1.455-1.665 2.556-.959 2.004-.966 3.42-.022 4.294.17.158.309.332.309.387 0 .203.172.593.356.808.68.795 1.964.651 2.436-.273.146-.285.165-.301.401-.336.447-.065 1.142-.238 1.857-.463l.704-.22.282.254c.573.515 1.466.931 2.217 1.033 1.044.141 1.774-.34 1.979-1.304.036-.17.046-.61.027-1.173l-.03-.901.339-.181c.586-.313 1.9-1.118 2.946-1.803.553-.363 1.012-.653 1.02-.645.007.009.051.328.098.709.13 1.056.159 1.945.095 2.827-.049.665-.046.862.019 1.166.188.88.745 1.332 1.632 1.323.949-.009 2.014-.495 2.794-1.275.882-.882 1.637-2.48 2.009-4.254.136-.647.101-.817-.197-.958-.41-.195-.622.019-.799.804-.487 2.169-1.381 3.696-2.517 4.301-.471.251-1.133.43-1.434.387-.477-.069-.575-.372-.498-1.538.077-1.149-.043-2.865-.268-3.84a3.02 3.02 0 0 1-.053-.261c-.001-.022.329-.283.732-.582 1.081-.799 2.132-1.634 2.225-1.767a.556.556 0 0 0 .024-.527c-.075-.14-.37-.262-.534-.221-.071.018-.44.277-.822.575-.888.696-1.92 1.467-1.961 1.467-.018 0-.112-.15-.209-.333-.388-.73-1.219-1.338-1.932-1.411-.166-.017-.313-.051-.328-.075-.08-.129 1.126-.701 1.795-.85.86-.192.918-.217 1.022-.429.076-.154.083-.223.036-.356-.092-.265-.275-.352-.659-.312-.776.079-1.766.446-2.521.935-1.504.973-2.448 2.43-2.835 4.378-.141.709-.221 1.365-.221 1.816v.352l-1.107.539c-.608.296-1.319.625-1.578.732-.556.229-.471.284-.909-.586a10.934 10.934 0 0 1-.967-2.932l-.035-.211.267.249c.316.296.47.347.695.231.197-.102.274-.231.274-.462 0-.151-.106-.28-.842-1.03-1.087-1.108-1.519-1.652-2.114-2.663-.671-1.14-1.124-2.329-1.317-3.454-.093-.549-.108-.797-.084-1.461.046-1.286.249-1.936.927-2.955C4.518 8.905 5.989 7.91 7.754 7.603c.618-.108 1.927-.108 2.593-.001.744.121 1.92.429 1.92.504 0 .021-.095.08-.211.133-.479.216-.6.601-.279.888.094.084.232.153.305.153.074 0 .584-.227 1.133-.504 1.097-.554 1.763-.804 2.685-1.009.906-.201 1.619-.267 2.473-.229 1.06.047 1.752.219 2.694.67.426.203.539.206.75.017.203-.181.236-.474.074-.657-.117-.132-.895-.512-1.391-.68-.802-.27-1.37-.349-2.527-.35-.904 0-1.2.02-1.713.117-.779.147-1.757.428-2.32.666l-.434.184-.312-.127c-1.629-.663-3.582-.974-5.109-.813m16.502.991c-.249.087-.531.27-.896.583-1.138.974-2.6 1.746-4.137 2.184-1.072.306-1.38.579-1.527 1.357-.085.443.266 2.124.745 3.573 1.123 3.399 2.964 5.716 5.551 6.987.668.329.702.328 1.462-.05 3.062-1.522 5.248-4.911 6.084-9.434.154-.835.159-.964.047-1.341-.063-.211-.157-.356-.366-.566-.25-.25-.335-.297-.756-.421-2.053-.607-3.28-1.248-4.661-2.436-.41-.352-.694-.47-1.12-.467a2.42 2.42 0 0 0-.426.031m.972 1.26c1.405 1.189 2.7 1.886 4.521 2.434.788.237.904.319.905.643.002.505-.49 2.494-.879 3.556-.265.725-.964 2.134-1.344 2.711-.62.942-1.419 1.803-2.226 2.399-.421.312-1.269.814-1.453.861-.161.041-1.037-.424-1.627-.864-1.949-1.454-3.398-3.924-4.146-7.071-.241-1.013-.333-1.611-.273-1.77.074-.194.221-.271.883-.46 1.571-.449 3.16-1.291 4.372-2.317.433-.366.5-.405.706-.405.197 0 .272.038.561.283M10.715 9.882a.49.49 0 0 0-.091.706c.254.323 1.469.766 2.413.878.884.106 1.849-.062 2.703-.47.596-.284.74-.421.74-.703 0-.469-.415-.615-.927-.325-1.208.682-2.713.704-3.999.056-.428-.215-.687-.259-.839-.142m12.936 1.769c-.128.128-.131.149-.131.987v.855h-.803c-.878 0-1.046.043-1.16.292-.043.094-.064.505-.064 1.257v1.116l.156.174.156.175.857.019.858.019v1.686l.164.138.164.138h1.119c1.567 0 1.54.021 1.54-1.198v-.766l.816-.018c1.207-.027 1.21-.031 1.21-1.512 0-1.494.005-1.486-1.178-1.51l-.848-.017v-1.654l-.156-.156-.156-.156H23.782l-.131.131m1.842 1.653c0 1.184.019 1.203 1.224 1.203h.803v1.013H25.805l-.156.156-.156.156v1.661h-.96v-.706c0-.389-.025-.796-.055-.905-.093-.335-.179-.362-1.13-.362h-.841v-1.006l.852-.017c.851-.017.852-.017 1-.165.147-.147.148-.153.167-.973l.019-.826h.948v.771m-11.269 6.874c.328.167.657.521.865.933l.161.319-1.052.692c-1.124.74-1.468.955-2.375 1.487l-.577.339.034-.308c.245-2.155.747-3.204 1.698-3.545.37-.133.888-.098 1.246.083m-3.962 6.06c.042.667-.008.933-.211 1.125-.184.172-.604.173-1.134.001-.376-.122-1.03-.473-1.06-.57-.009-.026.182-.13.424-.231.241-.101.763-.346 1.159-.543.396-.198.735-.361.752-.363.018-.002.049.259.07.581m-7.571.824c.336.141.403.518.14.782-.199.199-.418.205-.64.018-.129-.108-.164-.181-.164-.335 0-.222.115-.419.285-.487.158-.064.174-.063.379.022" fill-rule="evenodd"/></svg>