<svg xmlns="http://www.w3.org/2000/svg" width="32" height="32"><path d="M6.587.056a5 5 0 0 0-4.066 3.668c-.184.69-.196 1.712-.028 2.436.15.647.424 1.385.585 1.577.189.224.485.221.677-.008.174-.206.173-.27-.013-.722-.317-.771-.405-1.21-.407-2.02-.001-.636.017-.806.123-1.147.417-1.336 1.349-2.277 2.702-2.729.326-.109.474-.124 1.173-.122.734.001.836.014 1.227.149a3.938 3.938 0 0 1 1.6 1.018c.488.495.767.94.973 1.551.132.391.144.497.145 1.28.002.724-.016.914-.116 1.258-.419 1.446-1.346 2.867-2.894 4.436-.485.491-.914.893-.953.893-.123-.001-1.617-1.539-2.173-2.237-.581-.729-.692-.802-.992-.652a.43.43 0 0 0-.239.494c.09.344 1.46 1.927 2.42 2.796.655.593.903.748 1.1.687.327-.101 2.053-1.789 2.76-2.699.87-1.121 1.407-2.078 1.757-3.131.261-.788.341-1.343.304-2.132A4.928 4.928 0 0 0 8.524.158C8.012.032 7.06-.018 6.587.056m.052 2.757c-.646.231-1.092.629-1.377 1.231-.156.329-.169.398-.169.916 0 .516.013.587.166.907.242.508.589.865 1.076 1.105.392.194.425.201.969.201.728 0 1.041-.117 1.526-.57.394-.37.627-.795.717-1.31.161-.927-.385-1.943-1.276-2.372-.304-.147-.418-.171-.858-.186-.385-.013-.57.005-.774.078m1.09.897c.51.152.911.701.911 1.25 0 .553-.414 1.105-.945 1.259a1.261 1.261 0 0 1-1.347-.385c-.24-.274-.321-.495-.321-.874 0-.382.101-.653.336-.898.377-.394.831-.51 1.366-.352m17.855 3.361c-.978.177-1.95.68-2.715 1.403-.761.721-1.26 1.562-1.548 2.61-.093.337-.113.565-.116 1.289-.002.798.012.936.148 1.467.435 1.695 1.397 3.313 3.006 5.058.501.544 1.342 1.34 1.792 1.697.436.346.525.309 1.583-.657 1.065-.974 2.186-2.279 2.186-2.546 0-.188-.168-.409-.345-.453-.228-.058-.428.084-.854.608-.228.278-.797.885-1.264 1.347l-.851.841-.166-.118c-.296-.211-1.549-1.496-2.03-2.082-1.185-1.444-1.956-2.906-2.197-4.167-.105-.552-.103-1.486.006-1.964a4.563 4.563 0 0 1 2.557-3.114c.976-.432 2.332-.471 3.327-.097a4.476 4.476 0 0 1 2.455 2.221c.329.67.44 1.165.44 1.959-.001.989-.201 1.778-.709 2.792-.144.288-.262.596-.262.682 0 .343.443.541.742.332.287-.202.938-1.851 1.101-2.792.119-.684.082-1.774-.081-2.374-.146-.537-.515-1.323-.826-1.758a5.458 5.458 0 0 0-5.379-2.184m.187 3.005c-.698.258-1.296.868-1.507 1.538a2.452 2.452 0 0 0 1.355 2.996c1.444.619 3.09-.307 3.352-1.886.167-1.005-.406-2.067-1.37-2.541-.346-.17-.413-.184-.96-.197-.477-.012-.641.005-.87.09m1.248.883c.324.096.665.378.861.712.129.219.147.304.146.702 0 .521-.069.693-.417 1.054-.692.717-1.901.523-2.368-.38-.189-.365-.202-.959-.027-1.293.374-.717 1.057-1.018 1.805-.795M8.046 12.508c-.268.145-.301.517-.065.727.158.142.71.365.901.365.243 0 .475-.269.429-.498-.046-.232-.122-.3-.554-.497-.433-.198-.507-.208-.711-.097m2.213 1.058a.432.432 0 0 0-.016.644c.145.142.732.403.906.403.169 0 .308-.093.398-.267.16-.309.007-.524-.54-.763-.402-.176-.559-.179-.748-.017m2.285.995c-.159.149-.204.361-.112.529.077.142.654.458.939.515.238.048.496-.188.496-.454 0-.246-.124-.371-.554-.56-.378-.166-.612-.175-.769-.03m2.407.931c-.28.121-.369.417-.198.661.085.121.663.416.856.436.317.033.552-.155.549-.44-.002-.243-.089-.336-.483-.517-.465-.212-.529-.225-.724-.14m2.165 1.091c-.192.192-.206.424-.036.606.149.16.719.411.933.411.349 0 .571-.472.347-.739-.105-.125-.799-.434-.975-.434-.062 0-.183.07-.269.156m2.268.988a.457.457 0 0 0-.009.635c.067.067.296.19.509.274.44.173.59.155.774-.092.09-.122.1-.179.058-.347-.045-.182-.087-.22-.449-.4-.476-.237-.698-.254-.883-.07m-14.451-.04a6.888 6.888 0 0 0-1.44.401c-.45.19-1.221.659-1.388.844-.142.156-.129.443.027.609.206.219.419.183.932-.158.86-.572 1.636-.8 2.696-.791.489.005.78.036 1.093.118.546.142 1.4.569 1.827.913.741.598 1.392 1.63 1.612 2.56.131.551.145 1.555.032 2.15-.252 1.312-1.022 2.794-2.251 4.33-.464.579-2.1 2.259-2.31 2.371-.097.052-.208-.042-1.059-.89-1.929-1.921-3.098-3.708-3.527-5.388-.339-1.326-.237-2.452.327-3.623.23-.477.237-.622.041-.818-.147-.147-.494-.143-.645.008-.17.169-.507.926-.664 1.492-.19.68-.235 1.771-.106 2.534.373 2.208 2.02 4.794 4.457 6.998.714.646.94.809 1.124.809.403 0 2.457-2.011 3.54-3.466 1.034-1.39 1.693-2.757 1.987-4.12.141-.654.127-2.05-.027-2.611-.601-2.199-2.228-3.764-4.367-4.2-.51-.103-1.424-.138-1.911-.072m16.725 1.05a.46.46 0 0 0-.047.575c.108.164.866.49 1.038.447.29-.073.452-.394.329-.652-.088-.186-.606-.449-.951-.484-.207-.021-.258-.005-.369.114m2.389.912a.45.45 0 0 0-.204.568c.055.133.151.206.457.347.472.218.7.23.875.044.152-.163.169-.453.033-.603-.094-.104-.828-.437-.953-.434a.705.705 0 0 0-.208.078M5.233 20.647c-.454.075-.952.343-1.318.708-.87.871-.997 2.174-.312 3.206.257.386.554.639 1.01.858 1.529.733 3.33-.225 3.598-1.912.169-1.058-.421-2.165-1.399-2.63-.56-.266-.988-.328-1.579-.23m19.955.635c-.404.224-.495.326-.495.559 0 .176.266.452.436.453.068.001.301-.089.516-.2.558-.285.685-.572.386-.871-.211-.211-.377-.199-.843.059m-18.757.439c.548.28.847.783.847 1.426 0 .485-.124.792-.451 1.12-.968.967-2.61.352-2.708-1.015-.038-.524.086-.853.463-1.229.379-.379.639-.48 1.178-.457.302.012.466.05.671.155m16.6.707c-.401.206-.524.345-.524.592 0 .196.249.447.444.447.148-.001.716-.294.886-.458a.431.431 0 0 0-.016-.643c-.197-.169-.366-.156-.79.062m-2.151 1.154c-.53.271-.656.439-.552.738.056.16.278.32.444.32.144 0 .816-.365.904-.491a.486.486 0 0 0-.047-.605c-.173-.173-.355-.163-.749.038m-2.29 1.217c-.403.226-.54.406-.484.633a.447.447 0 0 0 .38.359c.142.027.25-.005.539-.162.432-.233.549-.358.547-.582-.002-.187-.076-.307-.248-.398-.19-.101-.343-.07-.734.15m-2.163 1.149c-.408.218-.534.352-.534.569 0 .196.257.47.441.47.188 0 .895-.39.978-.539.112-.202.087-.364-.081-.532-.205-.205-.373-.199-.804.032m-2.196 1.173c-.401.206-.524.345-.524.593 0 .19.248.446.432.446.145 0 .799-.337.925-.477a.447.447 0 0 0-.043-.623c-.197-.17-.366-.156-.79.061m-2.151 1.153c-.533.277-.656.442-.552.739.056.16.278.32.444.32.144 0 .816-.364.904-.49a.486.486 0 0 0-.047-.605c-.175-.175-.361-.166-.749.036M9.791 29.49c-.404.227-.537.402-.485.641.042.188.174.312.379.353.118.023.251-.017.53-.161.436-.225.559-.354.557-.582-.002-.188-.076-.307-.248-.399-.191-.102-.344-.071-.733.148m-2.164 1.151c-.408.218-.534.353-.534.569 0 .194.257.47.436.47.187-.001.902-.393.983-.539.112-.202.087-.363-.081-.532-.205-.205-.373-.198-.804.032" fill-rule="evenodd"/></svg>