<svg height="32" viewBox="0 0 32 32" width="32" xmlns="http://www.w3.org/2000/svg"><path d="m20.727 3.927c-.727.873-1.018 2.036-.873 3.2.218 1.164.8 2.109 1.745 2.836.073.073.145.073.218.073.145 0 .218-.073.291-.145.145-.145.073-.436-.073-.582-.8-.582-1.309-1.382-1.382-2.327-.145-.945.145-1.891.655-2.618 1.236-1.6 3.491-1.891 5.091-.727.218.145.509.145.582 0 .145-.145.073-.436-.073-.582-1.891-1.382-4.727-1.091-6.182.873zm10.473 1.891c-.218-1.745-1.236-3.345-2.691-4.436s-3.273-1.527-5.091-1.309c-1.527.218-2.909.945-4 2.036l-7.345 7.055-.145-.145c-.436-.364-.945-.582-1.455-.582-.582 0-1.091.218-1.455.582l-7.709 7.564c-.8.8-.8 2.109 0 2.909l.945.873c.436.364.945.582 1.455.582s1.091-.218 1.455-.582l7.709-7.636c.8-.8.8-2.109 0-2.909l-.218-.218 5.236-5.091c-.873 2.618 0 5.673 2.4 7.418 1.236.873 2.691 1.309 4.073 1.309 1.309 0 2.691-.364 3.855-1.164l-3.273 6.109h-.218c-.509-.291-1.018-.291-1.6-.218-.509.145-.945.509-1.236.945l-5.382 9.382c-.582 1.018-.218 2.182.8 2.764l1.091.655c.291.145.655.291 1.018.291.727 0 1.455-.364 1.818-1.018l5.382-9.382c.582-1.018.218-2.182-.8-2.764l-.145-.073 4.727-8.727c.727-1.309 1.018-2.764.8-4.218zm-18.909 6.4-7.636 7.564c-.509.509-1.309.509-1.818 0l-.873-.873c-.509-.509-.509-1.236 0-1.745l7.709-7.636c.218-.218.582-.364.873-.364.364 0 .655.145.873.364l.945.873c.436.509.436 1.309-.073 1.818zm13.6 8.946-5.309 9.382c-.364.582-1.091.8-1.745.509l-1.091-.582c-.582-.364-.873-1.091-.509-1.673l5.309-9.455c.145-.291.436-.509.8-.582.291-.073.655-.073.945.145l1.091.655c.655.218.873 1.018.509 1.6zm3.418-10.982c-2.036 2.618-5.818 3.127-8.436 1.164-2.691-1.891-3.273-5.6-1.236-8.218.945-1.236 2.4-2.109 4-2.327.291 0 .582-.073.8-.073 1.309 0 2.545.364 3.636 1.164 1.309.945 2.109 2.327 2.327 3.927.145 1.236-.073 2.473-.582 3.564 0 0-.364.655-.509.8z"/></svg>