<!-- Generated by IcoMoon.io -->
<svg version="1.1" xmlns="http://www.w3.org/2000/svg" width="37" height="32" viewBox="0 0 37 32">
<title>dispatch</title>
<path d="M36.571 3.657c-0.076-0.229-0.229-0.381-0.457-0.457l-13.486-3.2c-0.229-0.076-0.533 0-0.686 0.229l-3.657 4.8-3.657-4.724c-0.152-0.229-0.381-0.381-0.686-0.305l-13.41 3.2c-0.229 0.076-0.381 0.229-0.533 0.457-0.076 0.229 0 0.457 0.076 0.61l3.429 4.343-3.276 3.886c-0.152 0.152-0.229 0.381-0.152 0.61s0.229 0.381 0.457 0.457l3.505 0.914v9.905c0 0.229 0.152 0.457 0.381 0.61l13.562 6.933c0.076 0.076 0.229 0.076 0.305 0.076s0.229 0 0.305-0.076l13.562-6.933c0.229-0.152 0.381-0.381 0.381-0.61v-9.905l3.429-0.914c0.229-0.076 0.381-0.229 0.457-0.457s0-0.457-0.152-0.61l-3.276-3.886 3.429-4.343c0.152-0.152 0.229-0.381 0.152-0.61zM18.286 10.133l-9.829-1.6 9.829-1.676 9.829 1.752-9.829 1.524zM13.867 1.448l3.2 4.267-12.343 2.133-2.819-3.581 11.962-2.819zM4.724 9.295l12.343 1.981-3.352 4.343-11.657-3.048 2.667-3.276zM5.41 14.857l8.381 2.21c0.076 0 0.152 0 0.152 0 0.229 0 0.381-0.076 0.533-0.229l3.048-3.962v17.371l-12.19-6.248v-9.143zM31.162 24l-12.19 6.248v-17.371l3.048 3.962c0.152 0.152 0.305 0.229 0.533 0.229 0.076 0 0.152 0 0.152 0l8.381-2.21v9.143zM22.857 15.619l-3.276-4.267 12.343-1.981 2.667 3.2-11.733 3.048zM31.848 7.848l-12.343-2.21 3.2-4.267 11.962 2.819-2.819 3.657z"></path>
</svg>
