<!-- Generated by IcoMoon.io -->
<svg version="1.1" xmlns="http://www.w3.org/2000/svg" width="35" height="32" viewBox="0 0 35 32">
<title>eco</title>
<path d="M34.593 10.467c-0.012-0.056-0.031-0.109-0.054-0.161-2.027-5.681-7.435-9.757-13.774-9.757-0.422 0-0.765 0.344-0.765 0.769v27.886c0 0.425 0.342 0.769 0.765 0.769 0.019 0 0.038-0.004 0.057-0.006 0.308-0.002 0.613-0.014 0.916-0.035 0.076 0.024 0.153 0.040 0.232 0.040 0.113 0 0.222-0.034 0.328-0.085 5.663-0.595 10.373-4.452 12.238-9.663 0.012-0.027 0.019-0.054 0.027-0.081 0.537-1.529 0.832-3.173 0.832-4.884 0.001-1.678-0.284-3.29-0.801-4.793zM32.708 9.856h-4.654c-0.995-3.409-2.743-5.903-3.965-7.338 3.849 1.016 7.007 3.753 8.618 7.338zM21.53 2.111c0.024 0.002 0.049 0.004 0.073 0.006 0.038 0.055 0.081 0.109 0.134 0.155 0.041 0.036 3.16 2.789 4.707 7.584h-4.914v-7.746zM21.53 11.394h5.333c0.269 1.189 0.434 2.479 0.434 3.866 0 1.385-0.17 2.683-0.447 3.887h-5.32v-7.752zM21.71 28.393c-0.060 0.004-0.12 0.010-0.18 0.014v-7.722h4.893c-1.362 4.173-3.918 6.925-4.713 7.709zM24.157 27.98c1.26-1.542 2.919-4.028 3.882-7.296h4.658c-1.604 3.554-4.731 6.268-8.54 7.296zM33.282 19.146h-4.855c0.251-1.208 0.399-2.505 0.399-3.887 0-1.38-0.145-2.669-0.389-3.866h4.851c0.374 1.223 0.577 2.52 0.577 3.866 0 1.353-0.205 2.658-0.583 3.887zM17.545 29.53c0.042-0.095 0.066-0.199 0.066-0.31v-23.726c0-0.425-0.342-0.769-0.765-0.769s-0.765 0.344-0.765 0.769v7.616l-4.136-3.502c-0.324-0.274-0.805-0.232-1.078 0.092s-0.231 0.81 0.092 1.084l5.005 4.238c0.035 0.030 0.077 0.044 0.116 0.067v4.687c-0.463-0.793-1.023-1.537-1.687-2.205-1.892-1.903-4.712-3.376-7.473-4.008 0.1-5.317 3.996-10.149 9.771-12.065 0.401-0.134 0.619-0.568 0.486-0.971s-0.567-0.622-0.966-0.489c-6.31 2.096-10.601 7.387-10.82 13.264-0.429-0.048-0.853-0.075-1.267-0.075-1.183 0-2.245 0.203-3.154 0.603-0.177 0.077-0.318 0.22-0.395 0.397-1.706 3.936 0.628 10.078 3.879 13.344 2.073 2.083 4.806 3.23 7.697 3.23v0c1.312 0 2.583-0.239 3.787-0.707l1.693 1.683c0.149 0.148 0.344 0.222 0.537 0.222 0.198 0 0.395-0.076 0.544-0.229 0.297-0.302 0.294-0.789-0.006-1.087l-1.161-1.153zM15.746 27.741l-5.18-5.151-0.033-3.684c-0.004-0.422-0.345-0.762-0.765-0.762-0.002 0-0.005 0-0.007 0-0.423 0.004-0.761 0.351-0.758 0.776l0.019 2.136-2.371-2.359c-0.3-0.299-0.785-0.296-1.081 0.006s-0.294 0.789 0.006 1.087l3.689 3.669c0.001 0.001 0.002 0.002 0.002 0.002l1.379 1.372-3.671-0.361c-0.428-0.043-0.795 0.268-0.836 0.69s0.266 0.799 0.686 0.84l5.546 0.546 2.352 2.339c-0.828 0.249-1.688 0.377-2.573 0.377h-0.001c-2.483 0-4.832-0.987-6.616-2.78-2.755-2.769-4.871-8.026-3.67-11.358 0.655-0.239 1.413-0.36 2.26-0.36 3.079 0 6.943 1.638 9.188 3.896 2.396 2.408 3.301 5.925 2.433 9.080z"></path>
</svg>
