<svg height="32" viewBox="0 0 32 32" width="32" xmlns="http://www.w3.org/2000/svg"><path d="m32 25.778v-19.556c0-.533-.444-.889-.889-.889h-30.222c-.444 0-.889.356-.889.889v19.556c0 .533.444.889.889.889h30.222c.444 0 .889-.356.889-.889zm-16-8.8-13.067-9.867h26.133l-13.067 9.867zm-14.133 7.911v-16.356l9.511 7.2-4.622 3.644c-.356.356-.444.889-.089 1.244.178.178.444.356.711.356.178 0 .444-.089.622-.178l4.889-3.911 2.578 1.956c.178.089.356.178.533.178s.356-.089.533-.178l2.578-1.956 4.889 3.911c.178.178.356.178.622.178s.533-.089.711-.356c.356-.356.267-.978-.089-1.244l-4.622-3.644 9.511-7.2v16.356h-28.267z"/></svg>