<!-- Generated by IcoMoon.io -->
<svg version="1.1" xmlns="http://www.w3.org/2000/svg" width="32" height="32" viewBox="0 0 32 32">
<title>farmed</title>
<path d="M11.733 6.649c0.071 0.036 0.142 0.071 0.249 0.071 0.071 0.036 0.107 0.036 0.178 0.036 0.178 0 0.356-0.107 0.427-0.284 0.107-0.249-0.036-0.498-0.249-0.604-0.107-0.036-0.178-0.071-0.284-0.107-0.249-0.071-0.498 0.036-0.569 0.284-0.142 0.249 0 0.498 0.249 0.604zM18.844 23.573c-0.427 0.498-0.924 0.924-1.493 1.209-1.138 0.604-2.453 0.711-3.662 0.356-1.244-0.391-2.24-1.209-2.844-2.347-1.244-2.347-0.32-5.262 2.027-6.507 1.351-0.711 2.347-1.92 2.809-3.378s0.32-3.022-0.391-4.373c-0.391-0.747-0.96-1.387-1.636-1.92-0.213-0.142-0.498-0.107-0.64 0.107s-0.107 0.498 0.107 0.64c0.569 0.427 1.031 0.96 1.351 1.6 0.604 1.138 0.711 2.453 0.356 3.662-0.391 1.244-1.209 2.24-2.347 2.844-0.427 0.213-0.818 0.498-1.173 0.818-0.036 0-0.071 0-0.107 0.036-1.422 0.782-3.2 0.533-4.338-0.604-1.102-1.102-1.102-2.88 0-3.982 0.853-0.853 2.204-0.853 3.058 0 0.64 0.64 0.64 1.671 0 2.311-0.213 0.213-0.533 0.356-0.853 0.356 0 0 0 0 0 0-0.32 0-0.64-0.142-0.853-0.356-0.356-0.356-0.356-0.889 0-1.244 0.107-0.107 0.284-0.178 0.427-0.178 0 0 0 0 0 0 0.178 0 0.32 0.071 0.427 0.178 0.178 0.178 0.462 0.178 0.64 0s0.178-0.462 0-0.64c-0.284-0.284-0.676-0.462-1.067-0.462 0 0 0 0 0 0-0.391 0-0.782 0.142-1.067 0.462-0.711 0.711-0.711 1.849 0 2.56 0.391 0.391 0.924 0.64 1.493 0.64 0 0 0 0 0 0 0.569 0 1.102-0.213 1.493-0.64 0.996-0.996 0.996-2.631 0-3.627-1.209-1.209-3.164-1.209-4.338 0-1.458 1.458-1.458 3.84 0 5.262 0.889 0.889 2.027 1.316 3.236 1.316 0.249 0 0.533-0.036 0.782-0.071-0.213 0.391-0.427 0.782-0.533 1.209-0.462 1.458-0.32 3.022 0.391 4.373s1.92 2.347 3.378 2.809c0.569 0.178 1.138 0.249 1.707 0.249 0.924 0 1.813-0.213 2.667-0.676 0.676-0.356 1.28-0.853 1.778-1.458 0.142-0.213 0.142-0.498-0.071-0.64-0.284-0.107-0.569-0.071-0.711 0.107zM20.196 21.938c-0.249-0.071-0.498 0.036-0.569 0.284-0.036 0.071-0.071 0.142-0.107 0.213-0.107 0.249 0 0.498 0.249 0.604 0.071 0.036 0.107 0.036 0.178 0.036 0.178 0 0.356-0.107 0.427-0.284 0.036-0.071 0.071-0.178 0.107-0.284 0.071-0.249-0.036-0.498-0.284-0.569zM26.809 16.747c-0.071-0.107-0.213-0.142-0.32-0.178l-0.462-0.036c0.249-0.249 0.462-0.569 0.604-0.996 0.498-1.209-0.356-2.773-0.391-2.809-0.071-0.107-0.178-0.178-0.284-0.213s-0.249 0-0.356 0.036l-0.64 0.391c-0.036-0.889-0.284-2.204-1.138-2.702-0.071-0.036-0.142-0.036-0.178-0.071-0.996-0.036-1.92 0.924-2.418 1.636l-0.32-0.676c-0.071-0.107-0.142-0.178-0.284-0.249-0.107-0.036-0.249-0.036-0.356 0.036-0.071 0.036-1.6 0.889-1.849 2.169-0.071 0.427-0.071 0.818-0.036 1.173l-0.391-0.249c-0.107-0.071-0.249-0.071-0.356-0.036s-0.213 0.107-0.284 0.249c-0.036 0.107-1.173 2.418-0.462 4.196 0.747 1.92 2.524 2.667 2.738 2.738 0.427 0.178 1.209 0.391 1.636 0.498 0.213 0.036 0.533 0.071 0.889 0.071 0.818 0 1.92-0.213 2.916-0.889 1.564-1.102 1.884-3.662 1.884-3.769-0.036-0.107-0.071-0.213-0.142-0.32zM24.498 20.124c-1.138 0.818-2.489 0.782-3.058 0.676-0.107-0.036-0.213-0.071-0.356-0.107 0.071-0.178 0.142-0.356 0.213-0.533 0.462-1.138 0.924-2.204 1.244-3.2 0.071-0.249-0.071-0.498-0.32-0.569s-0.498 0.071-0.569 0.32c-0.284 0.96-0.711 1.991-1.209 3.093-0.071 0.213-0.178 0.427-0.249 0.64-0.107-0.036-0.178-0.071-0.249-0.071v0c-0.071-0.036-1.564-0.64-2.204-2.204-0.391-0.996 0-2.311 0.249-3.022l1.102 0.64c0.178 0.107 0.427 0.071 0.569-0.107s0.142-0.427 0-0.569c-0.036-0.036-0.569-0.711-0.356-1.778 0.107-0.498 0.604-0.996 0.996-1.28l0.462 0.924c0.071 0.142 0.213 0.249 0.391 0.249 0.178 0.036 0.32-0.071 0.427-0.249 0.356-0.604 1.209-1.778 1.92-1.849 0.533 0.427 0.64 1.92 0.604 2.596 0 0.178 0.071 0.32 0.213 0.427 0.142 0.071 0.32 0.107 0.462 0l0.889-0.533c0.178 0.462 0.32 1.138 0.142 1.6-0.427 0.996-1.244 1.28-1.28 1.316-0.213 0.071-0.356 0.284-0.32 0.498s0.213 0.391 0.427 0.391l1.28 0.036c-0.178 0.747-0.569 2.062-1.422 2.667zM16 0c-8.853 0-16 7.182-16 16 0 8.853 7.147 16 16 16 8.818 0 16-7.182 16-16s-7.182-16-16-16zM16 31.040c-8.284 0-15.040-6.756-15.040-15.040s6.756-15.040 15.040-15.040c8.284 0 15.040 6.756 15.040 15.040s-6.756 15.040-15.040 15.040z"></path>
</svg>
