<svg height="32" viewBox="0 0 32 32" width="32" xmlns="http://www.w3.org/2000/svg"><path d="m16 0c-8.853 0-16 7.147-16 16s7.147 16 16 16 16-7.147 16-16-7.147-16-16-16zm0 1.12c8.213 0 14.88 6.667 14.88 14.88s-6.667 14.88-14.88 14.88-14.88-6.667-14.88-14.88 6.667-14.88 14.88-14.88zm-5.227 10.027c-.053 0-.16 0-.213.053-.16.053-.373.16-.48.373-.213.373-.16.747-.107 1.173s.213.853.373 1.333c.373 1.013.96 2.133 1.6 3.253s1.333 2.187 2.027 2.987c.32.427.64.747.96 1.013s.64.48 1.067.48.747-.213 1.067-.48.64-.587.96-1.013c.693-.8 1.387-1.867 2.027-2.987s1.227-2.293 1.6-3.253c.16-.48.32-.96.373-1.333.053-.427.107-.8-.107-1.173-.107-.213-.32-.32-.48-.32-.16-.053-.267-.053-.427-.053-.267 0-.48.107-.8.16-.533.16-1.227.48-1.867.8-1.173.587-2.08 1.12-2.4 1.28-.16-.053-.32-.16-.587-.267-.48-.267-1.12-.587-1.813-.907-.64-.32-1.333-.64-1.92-.8-.267-.107-.533-.16-.8-.213.053-.107 0-.107-.053-.107zm10.187 1.173v.16c-.053.267-.16.693-.32 1.12-.32.907-.907 2.027-1.493 3.093-.64 1.067-1.333 2.08-1.92 2.827-.32.373-.587.693-.8.853-.213.213-.427.213-.32.213.053 0-.107-.053-.373-.213-.213-.213-.533-.48-.8-.853-.587-.747-1.28-1.76-1.92-2.827s-1.173-2.187-1.493-3.093c-.16-.427-.267-.853-.32-1.12 0-.107 0-.107 0-.16.107 0 .16.053.32.107.48.16 1.12.48 1.76.8s1.28.64 1.76.907c.267.107.48.213.64.32.107.053.16.053.213.107.053 0 .053 0 .107.053h.107s.053 0 .107 0h.107s.107-.053.107-.053 1.28-.747 2.56-1.333c.64-.32 1.28-.587 1.707-.747.053-.16.16-.16.267-.16z"/></svg>