<svg height="32" viewBox="0 0 32 32" width="32" xmlns="http://www.w3.org/2000/svg"><path d="m30.255 22.691-21.018-21.091c-1.018-1.018-2.327-1.6-3.782-1.6s-2.836.582-3.855 1.6c-1.018 1.018-1.6 2.4-1.6 3.855s.582 2.836 1.6 3.855l21.018 21.091c1.018 1.018 2.4 1.6 3.855 1.6.291 0 .582 0 .873-.073 1.6-.509 3.927-3.055 4.509-4.509.582-1.673-.364-3.491-1.6-4.727zm.654 4.8c-.582 1.091-2.4 2.982-3.491 3.564-.291.145-.655.073-.945.073-1.236 0-2.327-.509-3.2-1.309l-21.091-21.164c-.873-.873-1.309-2.036-1.309-3.2s.509-2.4 1.309-3.2c.873-.873 2.036-1.309 3.2-1.309 1.236 0 2.327.509 3.2 1.309l21.018 21.091c1.164 1.091 2.036 2.764 1.309 4.145zm-26.182-18.546 9.164 9.236 4.145-4.145-9.164-9.309zm9.164 7.928-7.927-8 2.909-2.909 7.927 8z"/></svg>