<svg xmlns="http://www.w3.org/2000/svg" width="32" height="32"><path d="M24.4.061c-.166.09-18.904 18.827-18.99 18.99-.167.313-.019.717.322.879.181.087.293.074 4.2-.482 2.208-.315 4.032-.571 4.052-.57.021.001-1.572 2.684-3.539 5.962a859.305 859.305 0 0 0-3.677 6.158c-.129.252-.128.451.003.666.186.304.55.416.845.259.079-.042 4.385-4.32 9.568-9.506 6.493-6.498 9.434-9.476 9.459-9.577a.693.693 0 0 0-.487-.819c-.071-.018-1.911.222-4.089.533a441.7 441.7 0 0 1-4.024.566c-.036 0 1.465-2.55 3.335-5.667C25.43.7 25.333.866 25.333.665c0-.45-.555-.809-.933-.604M18.739 9.24a493.267 493.267 0 0 0-2.638 4.425.934.934 0 0 0-.101.346c0 .215.183.483.399.586.181.086.287.074 3.933-.448 2.062-.295 3.753-.532 3.759-.527.006.005-3.001 3.02-6.683 6.7l-6.695 6.691 2.543-4.24a490.131 490.131 0 0 0 2.643-4.438.934.934 0 0 0 .101-.346c0-.215-.183-.483-.399-.586-.181-.086-.287-.074-3.853.432-2.018.286-3.716.532-3.775.548-.058.015 2.906-2.987 6.587-6.671 3.681-3.684 6.698-6.699 6.704-6.699.006 0-1.13 1.902-2.525 4.227" fill-rule="evenodd"/></svg>