<svg height="32" viewBox="0 0 32 32" width="32" xmlns="http://www.w3.org/2000/svg"><path d="m31.933 7.533c0-.267.133-.467-.067-.6s-.333-.2-.533-.133l-9.733 3.2-4.333-1.467-.4 1.467 4.2 1.4v18.6l-10.467-2.6v-3.867h-1.267v3.867l-8 2.667v-13.667h-1.267v14.8c0 .267.133.467.333.6.067.133.2.2.4.2.067 0 .133 0 .267-.067l9.067-3.133 11.4 2.933c.133.067.333 0 .467 0l9.733-3.733c.333-.133.2-.4.2-.733v-19.733zm-1.266 19.2-8.4 3.2v-18.533l8.4-2.8zm-23.667-6.333c.067.333.4.533.733.533s.667-.2.733-.533c.733-2.533 2.2-4.133 3.6-5.667 1.733-1.933 3.4-3.733 3.4-6.933 0-4.2-3.6-7.8-7.733-7.8s-7.733 3.6-7.733 7.733c0 3.2 1.667 5 3.4 6.933 1.4 1.6 2.867 3.2 3.6 5.733zm.733-18.867c3.267 0 6.2 2.933 6.2 6.2 0 2.6-1.4 4.133-3 5.933-1.067 1.2-2.333 2.533-3.2 4.4-.867-1.8-2.133-3.133-3.2-4.4-1.6-1.8-3-3.333-3-5.933 0-3.2 2.933-6.2 6.2-6.2zm0 9.334c1.733 0 3.133-1.4 3.133-3.067 0-1.733-1.4-3.067-3.133-3.067-1.733-.067-3.133 1.333-3.133 3 0 1.733 1.4 3.133 3.133 3.133zm0-4.667c.867 0 1.533.667 1.533 1.533s-.667 1.533-1.533 1.533c-.867 0-1.533-.667-1.533-1.533s.667-1.533 1.533-1.533z"/></svg>