<svg height="32" viewBox="0 0 32 32" width="32" xmlns="http://www.w3.org/2000/svg"><path d="m3.791 15.902c-.32-.222-.862-.418-1.649-.591-.025 0-.049 0-.049 0-.025 0-.049 0-.074 0-.246-.049-.394-.098-.492-.148-.074-.074-.123-.148-.123-.246 0-.123.049-.246.172-.32s.295-.123.566-.123.468.049.591.148.197.222.246.394h1.28c-.049-.492-.246-.911-.591-1.231-.345-.345-.862-.492-1.551-.492-.32 0-.64.049-.935.172s-.542.32-.738.566c-.222.271-.32.591-.32.935 0 .246.049.468.148.665s.222.345.394.443c.172.123.345.197.517.271s.394.123.64.172c.025 0 .074 0 .098.025.049 0 .074.025.098.025s.049 0 .098.025c.369.074.591.148.714.197s.172.148.172.271c0 .295-.246.443-.738.443-.295-.025-.542-.074-.689-.172s-.246-.271-.32-.492h-1.255c.025.246.098.443.197.665.098.197.222.394.394.566s.394.32.689.418.615.148 1.009.148c.172 0 .345-.025.517-.049s.345-.098.542-.172c.172-.074.345-.197.468-.32s.246-.271.32-.468.123-.418.123-.665c.025-.468-.148-.837-.468-1.058zm6.154-1.502c-.566 0-1.009.246-1.354.714-.246-.468-.665-.714-1.231-.714-.468 0-.862.172-1.157.542v-.443h-1.255v4.062h1.255v-2.166c0-.542.246-.812.714-.812.222 0 .394.049.468.172.098.123.123.295.123.517v2.265h1.255v-2.166c0-.542.246-.812.714-.812.222 0 .394.049.468.172.098.123.123.295.123.517v2.265h1.255v-2.486c0-.492-.123-.886-.394-1.182-.197-.295-.542-.443-.985-.443zm5.046.542c-.295-.369-.665-.542-1.157-.542-.517 0-.935.197-1.305.591-.345.394-.517.911-.517 1.526s.172 1.132.517 1.526.788.591 1.305.591c.468 0 .862-.172 1.132-.542v.443h1.255v-4.062h-1.255v.468zm-.246 2.264c-.172.172-.369.246-.615.246s-.443-.074-.615-.246-.246-.394-.246-.665.074-.492.246-.665c.172-.172.369-.246.615-.246s.443.074.615.246.246.394.246.665-.098.492-.246.665zm3.495-2.092v-.615h-1.255v4.062h1.255v-1.748c0-.222.025-.418.098-.566.049-.148.148-.271.271-.345s.246-.123.369-.148.271-.049.443-.049c.049 0 .148 0 .246.025v-1.305c-.049-.025-.148-.025-.222-.025-.566 0-.96.246-1.206.714zm4.308 2.363c-.345 0-.517-.197-.517-.566v-1.231h1.354v-1.182h-1.354v-1.108l-1.255.271v.837h-.689v1.182h.689v1.305c0 .566.148.985.443 1.255s.665.418 1.108.418c.246 0 .468-.049.714-.123s.418-.148.566-.246l-.222-1.009c-.418.148-.689.197-.837.197zm1.674 1.083h1.255v-4.062h-1.255zm4.061-3.003c.418 0 .665.172.763.542h1.305c-.049-.517-.295-.935-.665-1.255-.394-.295-.837-.443-1.378-.443-.615 0-1.132.197-1.526.615-.394.394-.591.911-.591 1.526s.197 1.108.591 1.526c.394.394.911.615 1.526.615.517 0 .985-.148 1.378-.443s.615-.714.689-1.255h-1.329c-.049.172-.148.32-.271.418-.148.098-.295.148-.492.148-.271 0-.468-.098-.615-.271s-.222-.418-.222-.714c0-.295.074-.517.222-.689.123-.222.345-.32.615-.32zm2.979-2.166c-.418 0-.738.32-.738.738s.32.738.738.738.738-.32.738-.738-.345-.738-.738-.738z"/></svg>