<svg height="32" viewBox="0 0 32 32" width="32" xmlns="http://www.w3.org/2000/svg"><path d="m3.92 12.8h-1.76c-.16 0-.32.08-.48.24s-.16.32-.16.48c.24 6.16 4 11.28 9.2 13.52v1.68c0 1.6 1.28 2.88 2.88 2.88h6.4c1.6 0 2.88-1.28 2.88-2.88v-1.68c5.2-2.32 8.8-7.44 9.12-13.6 0-.4-.24-.64-.64-.64h-3.36l3.44-4.08c.88-1.04.8-2.56-.16-3.52-.96-.88-2.56-.8-3.44.24l-6.32 7.28h-1.28c-.16-2.08-.24-9.04 3.84-11.04.24-.16.4-.4.32-.72s-.32-.56-.64-.56c-.08 0-7.84-.48-9.44 6.88-1.52-1.12-3.36-2.08-5.44-2.4-.16 0-.4.08-.56.24s-.16.4-.16.64l.16.96c-1.36-1.12-3.84-2.88-7.36-4.4-.24-.08-.48-.08-.64 0-.16.16-.32.4-.32.56 0 .32 0 6.24 3.92 9.92zm24.8-6.4c.4-.48 1.12-.48 1.52-.16.48.4.56 1.12.16 1.52l-4.24 4.88h-2.96zm-7.28 22.4c0 .88-.64 1.52-1.52 1.52h-6.4c-.88 0-1.52-.64-1.52-1.52v-1.2c1.44.48 3.04.72 4.72.72s3.28-.24 4.72-.72zm-4.72-1.84c-7.28 0-13.28-5.6-13.84-12.88h27.76c-.64 7.28-6.64 12.88-13.92 12.88zm4.8-25.04c-2.56 2.8-2.8 7.44-2.72 10-.8-1.04-1.92-2.4-3.28-3.6.64-4.56 3.76-6 6-6.4zm-12.56 7.2c.48.56 1.28.08 1.12-.64l-.48-2c3.68.96 6.56 4.08 8.16 6.24h-11.68c-3.6-2.24-4.48-6.72-4.72-8.72 5.12 2.4 7.6 5.12 7.6 5.12z"/></svg>