<svg xmlns="http://www.w3.org/2000/svg" width="32" height="32"><path d="M13.787 3.9c-1.4.132-2.944.484-4.228.963-.435.163-.557.482-.301.786.179.213.348.213.925.003.962-.352 2.465-.682 3.623-.797.802-.08 2.541-.068 3.314.023 2.582.303 4.823 1.128 7 2.575.609.406.698.449.859.419a.462.462 0 0 0 .36-.629c-.101-.267-1.477-1.141-2.791-1.774a16.087 16.087 0 0 0-5.44-1.547c-.84-.088-2.51-.099-3.321-.022M7.493 5.804C4.452 7.42 1.89 10.091.387 13.214c-.43.893-.455 1.02-.238 1.237.182.181.397.212.581.083.062-.044.228-.242.368-.44 1.943-2.747 4.939-4.755 8.182-5.482 1.175-.264 1.705-.318 3.12-.316 1.332.001 1.618.026 2.721.238 2.216.427 4.4 1.486 6.177 2.994.913.776.988.807 1.266.529.332-.332.191-.572-.828-1.405-2.153-1.76-4.55-2.8-7.416-3.219-.786-.115-2.874-.131-3.68-.028-2.485.317-4.932 1.262-6.818 2.632-.201.145-.376.253-.39.24-.046-.046 1.496-1.555 2.008-1.965a16.824 16.824 0 0 1 2.657-1.754c.507-.266.628-.64.292-.904-.203-.159-.365-.132-.896.15m19.459 1.622c-.063.037-3.145 3.895-6.849 8.574-4.939 6.24-6.778 8.599-6.898 8.853-.155.326-.165.385-.165.963 0 .604.004.624.198 1.017.246.497.648.892 1.148 1.13.341.161.395.17.974.17s.634-.009.972-.17c.407-.192.817-.55 1.047-.915.087-.136 2.428-4.478 5.202-9.647 3.805-7.088 5.046-9.444 5.046-9.578 0-.315-.406-.553-.675-.397m.464 2.108c-.197.1-.3.311-.249.508.017.065.189.31.383.545.865 1.048 1.892 2.812 2.413 4.146.579 1.485.923 3.046 1.052 4.774l.036.494-2.016-.014-2.015-.014-.09-.506a15.508 15.508 0 0 0-.889-3.04c-.255-.617-.733-1.564-.831-1.646a.715.715 0 0 0-.269-.097c-.161-.026-.213-.006-.352.132-.097.098-.162.218-.162.301 0 .076.129.396.286.711a13.833 13.833 0 0 1 1.288 3.9c.177 1.043.165 1.008.36 1.127.165.1.281.105 2.667.105 2.72 0 2.811-.009 2.919-.294.068-.18.067-.799-.003-1.573-.301-3.327-1.525-6.421-3.543-8.961-.54-.679-.67-.758-.985-.598m-3.485 3.333c-.102.183-1.762 3.273-3.691 6.866-1.928 3.594-3.562 6.63-3.631 6.749-.58.996-1.993.973-2.498-.04-.181-.363-.192-.899-.026-1.225.105-.206 9.946-12.684 10.004-12.684.015 0-.056.15-.158.334m-9.049 12.776c-.216.216-.218.442-.006.654.173.174.31.194.532.079.277-.143.338-.545.114-.748a.674.674 0 0 0-.286-.117c-.163-.026-.215-.007-.354.132" fill-rule="evenodd"/></svg>