<svg height="32" viewBox="0 0 32 32" width="32" xmlns="http://www.w3.org/2000/svg"><path d="m4.067 29.267v-3.333h-1.067c-1.667 0-3-1.4-3-3v-8.467c0-1.667 1.4-3 3-3h6.933c.4 0 .733.333.733.733s-.333.733-.733.733h-6.933c-.867 0-1.6.733-1.6 1.533v8.467c0 .867.733 1.533 1.6 1.533h1.8c.4 0 .733.333.733.733v2.333l3-2.867c.133-.133.333-.2.533-.2h7.867c.867 0 1.6-.733 1.6-1.533v-4.267c0-.4.333-.733.733-.733s.733.333.733.733v4.333c0 1.667-1.4 3-3 3h-7.667l-4 3.867c-.133.067-.333.133-.533.133-.067 0-.2 0-.267-.067-.267-.133-.467-.4-.467-.667zm18.533-12.6h-7.667c-1.667 0-3.067-1.4-3.067-3.067v-8.533c0-1.667 1.4-3.067 3.067-3.067h14c1.667 0 3.067 1.4 3.067 3.067v8.533c0 1.667-1.4 3.067-3.067 3.067h-1.067v3.333c0 .333-.133.533-.4.667-.067.067-.2.067-.267.067-.2 0-.333-.067-.533-.2l-4.067-3.867zm-7.667-1.467h7.933c.2 0 .333.067.533.2l3 2.867v-2.333c0-.4.333-.733.733-.733h1.8c.867 0 1.6-.733 1.6-1.533v-8.6c0-.867-.733-1.533-1.6-1.533h-14c-.867 0-1.6.733-1.6 1.533v8.533c.067.867.733 1.6 1.6 1.6zm7-6.6c-.533 0-1 .467-1 1s.467 1 1 1 1-.467 1-1c.067-.533-.4-1-1-1zm3.8 2.067c.533 0 1-.467 1-1s-.467-1-1-1-1 .467-1 1 .467 1 1 1zm-7.6-2.067c-.533 0-1 .467-1 1s.467 1 1 1 1-.467 1-1-.467-1-1-1z"/></svg>