<svg height="32" viewBox="0 0 32 32" width="32" xmlns="http://www.w3.org/2000/svg"><path d="m3.067 13.067c-.133-.133-.2-.333-.2-.533s.067-.4.2-.533.333-.267.533-.267.4.067.533.267c.133.133.2.333.2.533s-.067.467-.2.533c-.133.133-.333.267-.533.267-.133 0-.333-.067-.533-.267zm3.333-5.334c.2 0 .4-.067.6-.267.267-.333.2-.8-.133-1.067s-.8-.2-1.067.133c-.267.267-.2.733.133 1.067.133.067.267.133.467.133zm7.8-4.866h.133c.4-.067.667-.467.533-.867-.067-.4-.467-.667-.867-.533-.4.067-.667.467-.533.867.067.267.333.533.733.533zm-9.8 7.4c.067.067.2.067.267.067.267 0 .533-.133.667-.4.2-.333.067-.8-.333-1-.333-.2-.8-.067-.933.333-.2.4-.067.867.333 1zm6.867-6.4c.133 0 .2-.067.333-.067.333-.133.533-.6.333-1-.133-.333-.6-.533-.933-.333-.333.133-.533.6-.333 1 .067.2.333.4.6.4zm-2.667 1.6c.133 0 .333-.067.467-.133.333-.267.4-.733.133-1.067-.2-.333-.667-.4-1.067-.133-.333.267-.4.733-.133 1.067.133.2.4.267.6.267zm8.667-4.467c-.067 0-.133 0-.133 0-.067 0-.067 0-.067.067-.067 0-.067 0-.067.067-.067 0-.067.067-.067.067s-.067 0-.067.067c0 0 0 0-.067.067s-.067.067-.067.067-.067.067-.067.067v-.067.067c-.067.133-.133.267-.133.4s.067.267.133.4c.133.2.333.333.6.333 7.333 0 13.333 6.067 13.333 13.467s-6 13.467-13.333 13.467c-7 0-12.733-5.467-13.267-12.4l1.2 1.2c.133.133.333.267.533.267.133 0 .4-.067.533-.267.267-.267.267-.733 0-1.067l-2.467-2.533c-.267-.267-.733-.267-1.067 0l-2.467 2.533c-.267.267-.267.733 0 1.067.133.133.333.267.533.267.133 0 .4-.067.533-.267l1.267-1.267c.4 7.733 6.8 13.933 14.6 13.933 8.133 0 14.8-6.733 14.8-15 .067-8.267-6.6-15-14.733-15zm-4.8 12.6c0-1.933 1.6-3.533 3.533-3.533h.533v-1.933c0-.4.333-.733.733-.733s.733.333.733.733v1.933h2.467c.4 0 .733.333.733.733s-.333.733-.733.733h-2.467v4.133h.533c1.933 0 3.533 1.6 3.533 3.533s-1.6 3.533-3.533 3.533h-.533v2c0 .4-.333.733-.733.733s-.733-.333-.733-.733v-2h-2.6c-.4 0-.733-.333-.733-.733s.333-.733.733-.733h2.6v-4.2h-.533c-1.933.133-3.533-1.467-3.533-3.467zm6.066 3.6h-.533v4.2h.6c1.133 0 2.067-.933 2.067-2.067s-1-2.133-2.133-2.133zm-4.6-3.6c0 1.133.933 2.067 2.067 2.067h.533v-4.133h-.533c-1.133 0-2.067.933-2.067 2.067z"/></svg>