<svg xmlns="http://www.w3.org/2000/svg" width="32" height="32"><path d="M11.502.081c-.724.183-1.489.727-1.873 1.332-.871 1.373-.7 3.13.413 4.258.618.625 1.36.94 2.217.942.865.001 1.594-.305 2.227-.935.911-.907 1.204-2.236.775-3.512-.329-.981-1.02-1.677-1.999-2.015-.428-.147-1.314-.183-1.76-.07m1.424 1.126c.982.3 1.552 1.29 1.413 2.452a2.093 2.093 0 0 1-2.361 1.831c-.685-.093-1.32-.567-1.62-1.21-.132-.281-.144-.362-.144-.974-.001-.644.005-.681.17-1.014.476-.968 1.499-1.404 2.542-1.085m7.101.625a2.101 2.101 0 0 0-.855.435c-.146.119-1.226 1.661-3.41 4.874-2.508 3.689-3.21 4.687-3.259 4.633-.034-.037-.704-1.021-1.487-2.187-.869-1.293-1.508-2.191-1.639-2.303-.799-.684-2.03-.665-2.792.043-.312.29-6.532 9.541-6.569 9.771-.031.191.094.472.248.554.067.036 1.264.055 3.476.055 1.856 0 3.352.019 3.324.043a5.393 5.393 0 0 1-.531.25c-.65.281-2.268 1.103-2.986 1.519-1.359.786-3.211 2.042-3.441 2.333-.164.209-.119.522.105.721.241.216.412.193.8-.106 2.53-1.954 5.132-3.305 8.429-4.375a31.96 31.96 0 0 1 6.48-1.376c1.055-.116 3.431-.159 4.509-.08 2.604.189 5.043.765 7.011 1.654l.48.217-.507-.04c-.278-.022-1.298-.039-2.266-.037-1.509.003-1.89.021-2.667.124-4.18.555-8.085 2.06-11.973 4.616-3.186 2.094-6.231 4.992-8.109 7.717-.323.469-.342.648-.099.924.185.211.415.251.62.108.063-.045.349-.384.634-.755.935-1.215 1.675-2.053 2.87-3.248.647-.647 1.501-1.45 1.897-1.783 2.785-2.346 5.865-4.126 9.028-5.219 4.206-1.452 8.279-1.753 12.945-.954 1.267.217 1.357.216 1.554-.004.201-.224.205-.473.011-.703-.1-.119-.543-.367-1.533-.856l-1.392-.689 1.351-.001c.822 0 1.39-.022 1.452-.055.155-.083.279-.363.248-.557-.029-.176-9.66-14.406-9.976-14.738-.093-.098-.336-.26-.541-.361-.44-.216-.996-.28-1.44-.164m1.195 1.301c.139.131 9.098 13.269 9.163 13.438.021.056-.395.069-2.147.069h-2.173l-.512-.158c-1.169-.359-2.533-.644-3.953-.824-2.282-.29-5.574-.244-7.593.106-.26.045-.484.07-.497.057-.014-.014.012-.17.057-.346.523-2.042 2.133-3.52 3.561-3.269.42.074.888.297 1.32.627.503.384.606.446.744.447.269 0 .541-.267.541-.531 0-.055-.072-.322-.161-.594-.311-.951-.43-1.679-.462-2.822-.052-1.902.277-3.472 1.049-5.013.272-.543.777-1.333.852-1.333.03 0 .125.066.211.146m-2.534 1.873c-.653 1.737-.86 3.912-.55 5.759.056.333.102.614.102.625 0 .01-.154-.039-.342-.11-.716-.27-1.617-.27-2.286-.002-1.509.606-2.79 2.363-3.204 4.394a3.393 3.393 0 0 1-.097.404c-.073.055-1.535.368-1.518.325.023-.057 8.046-11.868 8.063-11.868.005 0-.071.213-.168.473M8.885 8.385c.322.411 2.967 4.367 2.97 4.445.002.03-.571.9-1.273 1.933L9.307 16.64H4.32l.001-.12c.002-.236.211-.923.393-1.292.247-.498.508-.792.854-.961.541-.265.897-.191 1.551.32.277.216.344.246.501.22.219-.035.416-.209.459-.403.017-.078-.028-.388-.101-.69-.321-1.325-.302-2.755.057-4.194.127-.511.49-1.466.557-1.467.018 0 .15.15.293.332m-1.663.108a11.863 11.863 0 0 0-.472 1.967c-.087.589-.108 1.915-.037 2.34l.04.241-.59-.001c-.68 0-.88.061-1.393.427-.67.478-1.233 1.45-1.437 2.48l-.112.573c-.023.118-.036.12-.828.12-.691 0-.8-.011-.774-.08.037-.096 5.505-8.228 5.622-8.36a.475.475 0 0 1 .097-.093c.009 0-.044.174-.116.386m14.053 8.62c-.253.018-.496.064-.541.102-.239.199-.247.673-.015.855.195.153 1.512.216 1.834.087.458-.184.511-.751.09-.97-.187-.096-.693-.124-1.368-.074m-3.038.216c-1.281.18-2.034.338-2.172.457-.19.163-.222.537-.063.738.188.239.282.248 1.092.11.41-.07 1.033-.165 1.383-.211.351-.047.701-.118.779-.158.29-.15.338-.633.087-.869-.173-.163-.349-.174-1.106-.067m-5.155 1.203c-1.302.436-1.463.505-1.585.68-.181.258-.071.678.212.812.171.081.199.075 1.26-.288a44.233 44.233 0 0 1 1.383-.455c.397-.112.555-.281.555-.596 0-.204-.027-.264-.175-.396-.103-.093-.233-.155-.32-.155-.08.001-.678.18-1.33.398m-4.11 1.736c-1.671.85-1.877 1.012-1.802 1.411.04.218.269.454.438.454.173 0 .65-.222 1.512-.703.396-.221.832-.451.969-.511.408-.179.553-.556.34-.882a.717.717 0 0 0-.465-.25c-.025 0-.471.216-.992.481m-3.935 2.388c-1.018.734-1.665 1.254-1.727 1.387-.087.187-.068.351.063.545.132.194.352.294.536.244.065-.018.386-.242.713-.499a34.31 34.31 0 0 1 1.129-.84c.293-.205.573-.441.623-.523.2-.335-.074-.785-.475-.781-.189.002-.308.066-.862.467m-3.08 2.543c-.243.126-.414.278-.85.753-.374.407-.414.47-.414.666 0 .288.226.529.495.529.23 0 .46-.168 1.043-.76.378-.383.448-.483.473-.671.027-.199.012-.238-.159-.408-.205-.205-.352-.232-.588-.109" fill-rule="evenodd"/></svg>