<svg height="32" viewBox="0 0 32 32" width="32" xmlns="http://www.w3.org/2000/svg"><path d="m27.491 10.327c-2.036-3.855-4.073-6.836-4.073-6.909-.073-.073-.145-.145-.218-.218l-8-3.2c-.145 0-.218 0-.291 0h-1.6c-.145 0-.364.073-.436.218l-2.691 3.709c-.073.073-.073.218-.073.291v1.091c0 .873.727 1.6 1.6 1.6h5.6c.582 0 1.164.364 1.455.873l2.473 4.945c-.655 1.309-.873 3.491-.945 4.8-.727-.509-1.891-1.091-3.2-1.091-1.745 0-3.127.655-3.709.945-.945-.655-4.218-2.545-7.491-2.545-3.927 0-5.673 1.673-5.745 1.745-.073.218-.145.364-.145.509v14.4c0 .291.218.509.509.509h6.909c.218 0 .436-.145.509-.364l1.382-3.636c.291.218.655.364 1.018.436 1.455.582 3.345.8 5.673.8 1.091 0 3.782-.291 9.091-2.327 2.836-1.091 5.964-2.545 6.691-3.2.145-.145.218-.364.218-.582-.218-3.2-1.745-7.564-4.509-12.8zm-2.691 15.637c-3.782 1.455-6.982 2.255-8.8 2.255-4.873 0-6.473-1.382-6.545-1.455-.145-.145-.291-.218-.509-.145-.145.073-.291.145-.364.364l-1.455 3.927h-6.036v-13.6c.291-.218.655-.436 1.018-.582.727-.364 1.964-.727 3.782-.727 3.491 0 7.127 2.545 7.127 2.545.145.145.436.145.582 0 0 0 1.455-.945 3.418-.945 1.527 0 2.836.945 3.2 1.309.073.655.364 2.4 1.818 3.418.218.145.582.073.727-.145s.073-.582-.145-.727c-1.309-.873-1.382-2.764-1.382-2.764 0-1.164.145-4.364.945-5.6.073-.145.145-.364 0-.509l-2.618-5.236c-.436-.873-1.382-1.455-2.4-1.455h-5.6c-.291 0-.509-.218-.509-.509v-.582h3.2c.291 0 .509-.218.509-.509s-.218-.509-.509-.509h-2.691l1.891-2.691h1.236l7.782 3.127c1.018 1.236 7.855 11.782 8.436 18.909-.509.436-2.764 1.6-6.109 2.836zm-9.891-6.328c-.073-.291-.364-.509-.655-.436s-.509.364-.436.655l.291 1.527c.073.509-.073 1.091-.436 1.455l-2.909 2.909c-.218.218-.218.582 0 .727.218.218.582.218.727 0l2.909-2.909c.655-.655.873-1.527.727-2.4l-.218-1.527z"/></svg>