<svg height="32" viewBox="0 0 32 32" width="32" xmlns="http://www.w3.org/2000/svg"><path d="m28.8.4s-.08-.08-.08-.08 0-.08-.08-.08-.16-.08-.24-.16c-.08-.08-.16-.08-.24-.08h-.08s-.08 0-.16 0c-8 3.2-13.04 7.84-14.96 13.84-2.88 8.96 2.48 17.52 2.72 17.92 0 0 .08.08.08.08s0 0 0 0c.08.08.16.08.16.16h.24s.08 0 .16 0c.48-.16 10.08-2.56 14.08-11.12 2.56-5.6 2.08-12.48-1.6-20.48zm-12.64 29.28c-1.28-2.64-3.92-9.04-1.84-15.44 1.6-5.12 5.92-9.28 12.64-12.24zm12.96-9.36c-2.8 6.08-9.04 8.88-11.76 9.92l10.8-27.76c2.88 6.96 3.2 12.96.96 17.84zm-16.08 9.12c-3.6-1.52-8.4-4.56-10.56-10.08-1.76-4.56-1.44-10.16 1.12-16.56l5.84 13.84c.08.24.32.4.64.4.08 0 .16 0 .24-.08.32-.16.48-.56.32-.96l-5.84-13.76c3.52 1.44 6.48 3.28 8.64 5.36.32.24.72.24.96 0s.24-.72 0-.96c-2.56-2.48-6.16-4.56-10.56-6.24s-.08 0-.16 0c0 0-.08 0-.16 0s-.16 0-.24.08c-.08-.08-.16 0-.16.08 0 0-.08.08-.08.08s0 .08-.08.08c-3.2 7.36-3.76 13.84-1.76 19.12 2.32 6 7.44 9.2 11.28 10.88.08 0 .16.08.24.08.24 0 .48-.16.64-.4.16-.32 0-.8-.32-.96z"/></svg>