<!-- Generated by IcoMoon.io -->
<svg version="1.1" xmlns="http://www.w3.org/2000/svg" width="30" height="32" viewBox="0 0 30 32">
<title>packed</title>
<path d="M29.4 11h-2.533v-1.8c0-0.133 0-0.2-0.067-0.333l-5.067-8.533c-0.133-0.2-0.333-0.333-0.533-0.333h-12.4c-0.2 0-0.4 0.133-0.533 0.333l-5.067 8.533c-0.067 0.067-0.067 0.2-0.067 0.333v5.2l-2.933 2.933c-0.133 0.133-0.2 0.267-0.2 0.467v13.6c0 0.333 0.267 0.6 0.6 0.6h22.467c0 0 0 0 0.067 0s0.133 0 0.2-0.067v0c0 0 0 0 0.067 0v0 0 0 0 0c0 0 0 0 0 0v0l6.267-6.8c0.133-0.133 0.2-0.267 0.2-0.4v-13.133c0.133-0.333-0.133-0.6-0.467-0.6zM26.867 12.267h1l-1 0.933v-0.933zM9.133 1.267h11.667l4.333 7.333h-20.267l4.267-7.333zM3.133 16.2v0.933h-1l1-0.933zM22.467 30.733h-21.2v-12.333h21.2v12.333zM22.867 17.133h-18.467v-7.333h21.2v4.6l-2.733 2.733zM28.733 24.333l-5 5.467v-11.733l5-4.933v11.2zM18.667 2.067h-7.333c-0.8 0-1.467 0.667-1.467 1.533v0.733c0 0.8 0.667 1.533 1.467 1.533h7.333c0.8 0 1.467-0.667 1.467-1.533v-0.733c0-0.867-0.667-1.533-1.467-1.533zM18.867 4.267c0 0.133-0.133 0.267-0.267 0.267h-7.267c-0.133 0-0.267-0.133-0.267-0.267v-0.667c0.067-0.133 0.133-0.267 0.267-0.267h7.333c0.133 0 0.267 0.133 0.267 0.267v0.667z"></path>
</svg>
