<svg height="32" viewBox="0 0 32 32" width="32" xmlns="http://www.w3.org/2000/svg"><path d="m2.56 13.44c-1.408 0-2.56 1.152-2.56 2.56s1.152 2.56 2.56 2.56 2.56-1.152 2.56-2.56-1.152-2.56-2.56-2.56zm8.96 0c-1.408 0-2.56 1.152-2.56 2.56s1.152 2.56 2.56 2.56 2.56-1.152 2.56-2.56-1.152-2.56-2.56-2.56zm8.96 0c-1.408 0-2.56 1.152-2.56 2.56s1.152 2.56 2.56 2.56 2.56-1.152 2.56-2.56-1.152-2.56-2.56-2.56zm8.96 0c-1.408 0-2.56 1.152-2.56 2.56s1.152 2.56 2.56 2.56 2.56-1.152 2.56-2.56-1.152-2.56-2.56-2.56zm-26.88 8.96c-1.408 0-2.56 1.152-2.56 2.56s1.152 2.56 2.56 2.56 2.56-1.152 2.56-2.56-1.152-2.56-2.56-2.56zm8.96 0c-1.408 0-2.56 1.152-2.56 2.56s1.152 2.56 2.56 2.56 2.56-1.152 2.56-2.56-1.152-2.56-2.56-2.56zm8.96 0c-1.408 0-2.56 1.152-2.56 2.56s1.152 2.56 2.56 2.56 2.56-1.152 2.56-2.56-1.152-2.56-2.56-2.56zm-17.92-17.92c-1.408 0-2.56 1.152-2.56 2.56s1.152 2.56 2.56 2.56 2.56-1.152 2.56-2.56-1.152-2.56-2.56-2.56zm8.96 0c-1.408 0-2.56 1.152-2.56 2.56s1.152 2.56 2.56 2.56 2.56-1.152 2.56-2.56-1.152-2.56-2.56-2.56zm8.96 0c-1.408 0-2.56 1.152-2.56 2.56s1.152 2.56 2.56 2.56 2.56-1.152 2.56-2.56-1.152-2.56-2.56-2.56z"/></svg>