<svg height="32" viewBox="0 0 32 32" width="32" xmlns="http://www.w3.org/2000/svg"><path d="m10.489 1.333c6.4 6.222 6.4 6.222.978 11.644-.533.356-.8.622-1.333.8l8.178 8c.178-.622 3.644-5.244 6.222-5.067 2.311.356 7.2 5.244 7.378 7.378.356 2.933-8.178 12.889-16.267 4.889l-12.711-12.8c-3.289-3.289-4.267-8.711-.622-12.267 2.311-2.311 4.889-5.867 8.178-2.578zm2.311 4.534c-5.778-5.689-4.8-5.333-9.511-.622-2.667 2.578-1.778 7.022.8 9.778l12.978 12.711c2.667 2.756 7.022 3.556 10.044.622 4.622-4.622 4.8-3.556-.978-9.333-2.133-2.133-3.733.533-5.867 2.578-.978.978 0 1.778-.622 2.489-.178.356-.8.356-1.156 0l-10.667-10.667c-.533-.622 0-1.6.8-1.333h.978c-.089.178 5.956-3.378 3.2-6.222z"/></svg>