<!-- Generated by IcoMoon.io -->
<svg version="1.1" xmlns="http://www.w3.org/2000/svg" width="32" height="32" viewBox="0 0 32 32">
<title>play_2</title>
<path d="M16.41 11.323c-0.369-0.369-0.862-0.451-1.313-0.246s-0.738 0.615-0.738 1.108v7.631c0 0.492 0.287 0.944 0.738 1.108 0.164 0.041 0.287 0.082 0.451 0.082 0.328 0 0.615-0.123 0.862-0.369l3.774-3.856c0.451-0.451 0.451-1.231 0-1.682l-3.774-3.774zM19.569 16.205l-3.774 3.856c-0.164 0.164-0.369 0.123-0.41 0.082s-0.246-0.123-0.246-0.369v-7.59c0-0.246 0.164-0.328 0.246-0.369 0.041 0 0.082-0.041 0.164-0.041s0.164 0.041 0.246 0.123l3.774 3.774c0.164 0.164 0.164 0.41 0 0.533zM16 0c-8.82 0-16 7.179-16 16s7.179 16 16 16c8.82 0 16-7.18 16-16s-7.18-16-16-16zM16 31.18c-8.369 0-15.18-6.81-15.18-15.18s6.81-15.18 15.18-15.18c8.369 0 15.18 6.81 15.18 15.18s-6.81 15.18-15.18 15.18z"></path>
</svg>   
