<svg xmlns="http://www.w3.org/2000/svg" width="32" height="32"><path d="M14.987.031c-2.542.22-4.702.848-6.685 1.945C3.828 4.451.955 8.621.146 13.813c-.163 1.045-.163 3.329 0 4.374.473 3.037 1.57 5.568 3.421 7.893.518.65 1.703 1.835 2.353 2.353 2.325 1.851 4.856 2.948 7.893 3.421 1.045.163 3.329.163 4.374 0 3.037-.473 5.568-1.57 7.893-3.421.65-.518 1.835-1.703 2.353-2.353 1.851-2.325 2.948-4.856 3.421-7.893.163-1.045.163-3.329 0-4.374-.473-3.037-1.573-5.574-3.422-7.893-.547-.687-1.666-1.8-2.379-2.367C23.672 1.659 21.021.533 18 .133c-.613-.081-2.511-.145-3.013-.102m2.194 13.971c1.184.866 2.218 1.646 2.299 1.734.209.227.2.477-.027.712-.176.184-4.228 3.092-4.445 3.191-.274.125-.637-.067-.764-.402-.077-.203-.079-6.119-.002-6.395.074-.267.274-.415.559-.415.213 0 .357.095 2.38 1.575" fill-rule="evenodd"/></svg>