<svg height="32" viewBox="0 0 32 32" width="32" xmlns="http://www.w3.org/2000/svg"><path d="m16 0c-8.8 0-16 7.2-16 16s7.2 16 16 16 16-7.2 16-16c0-7.52-5.2-13.84-12.16-15.52-.56-.16-1.12.24-1.28.8s.24 1.12.8 1.28c6 1.44 10.48 6.88 10.48 13.44 0 7.68-6.16 13.84-13.84 13.84s-13.84-6.16-13.84-13.84 6.16-13.84 13.84-13.84c.56 0 1.04-.48 1.12-1.04 0-.64-.48-1.12-1.12-1.12zm-3.92 7.12c-.56 0-1.04.48-1.04 1.04v15.68c0 .56.48 1.04 1.04 1.04.24 0 .4-.08.56-.16l12.08-7.84c.48-.32.64-.96.32-1.44-.08-.16-.16-.24-.32-.32l-8.48-5.52c-.48-.32-1.2-.16-1.52.32s-.16 1.2.32 1.52l7.12 4.64-9.04 5.84v-13.76c.08-.56-.4-1.04-1.04-1.04z"/></svg>