<svg height="32" viewBox="0 0 26 32" width="26" xmlns="http://www.w3.org/2000/svg"><path d="m24.75 19.55h-2.3v-11.3c0-4.55-3.7-8.25-8.25-8.25h-.2c-4.4 0-7.95 3.45-8.2 7.8h-3.75c-1.1 0-2.05.9-2.05 2.05v20.15c0 1.1.9 2 2.05 2h8.5c1.1 0 2.05-.9 2.05-2.05v-20.15c0-1.1-.9-2.05-2.05-2.05h-3.75c.25-3.75 3.4-6.8 7.25-6.8h.2c4 0 7.3 3.25 7.3 7.3v11.3h-2.3c-.7 0-1.25.55-1.25 1.25v5.45c0 .25.2.5.5.5h.6v3.9c0 .25.2.5.5.5h4.9c.25 0 .5-.2.5-.5v-3.9h.5c.25 0 .5-.2.5-.5v-5.45c0-.7-.55-1.25-1.25-1.25zm-14.25-10.8c.6 0 1.05.5 1.05 1.05v20.15c0 .6-.5 1.05-1.05 1.05h-8.5c-.6 0-1.05-.5-1.05-1.05v-20.15c0-.6.45-1.05 1.05-1.05zm13.45 21.4h-3.95v-3.4h3.95zm1.1-4.4c.15 0-2.3 0-6.1 0v-4.95c0-.15.15-.3.3-.3h5.55c.15 0 .3.15.3.3v4.95zm-3.45 2.4h-.8v.65h.8zm1.55 0h-.8v.65h.8zm-14.05-13.25h-5.7v.95h5.7zm0 5.2h-5.7v.95h5.7zm0 5.2h-5.7v.95h5.7z"/></svg>