<svg height="32" viewBox="0 0 32 32" width="32" xmlns="http://www.w3.org/2000/svg"><path d="m16 0c-7.04 0-13.04 4.64-15.2 11.04-3.36 10.32 4.32 20.96 15.2 20.96 8.8 0 16-7.2 16-16s-7.2-16-16-16zm-14.16 12c4 1.28 12.32 4.24 18.48 8.16-.56.16-.96.32-1.52.56-4.4-2.56-10.16-4.96-17.28-7.04.08-.56.24-1.12.32-1.68zm-.48 3.04c6.32 1.92 11.68 4 15.76 6.24-.56.24-1.28.48-1.84.72-3.84-1.76-8.64-3.6-13.92-5.12-.08-.64-.08-1.12 0-1.84zm.16 3.2c4.56 1.36 8.64 2.88 12.16 4.48-.56.24-1.12.56-1.68.8-2-1.2-8.08-2.8-10-3.28-.16-.64-.4-1.28-.48-2zm1.04 3.6c2.72.72 6.24 1.76 7.92 2.48-1.52.8-2.96 1.68-4.4 2.56-1.44-1.44-2.72-3.2-3.52-5.04zm13.44 8.8c-.64 0-1.36-.08-2.08-.16 4.4-2 9.12-3.52 12.88-4.56-2.64 2.88-6.56 4.72-10.8 4.72zm12.24-6.48c-4.48 1.2-10.8 3.2-16.4 5.92-.64-.24-1.36-.48-1.92-.72 6.16-3.36 13.76-5.84 19.52-7.36-.4.72-.8 1.44-1.2 2.16zm1.76-3.76c-6.24 1.6-14.88 4.32-21.52 8.16-.48-.32-.88-.56-1.28-.88 6.96-4.48 17.12-7.6 23.28-9.2-.16.64-.24 1.36-.48 1.92zm-8.16-.8c-6.24-4.24-15.36-7.44-19.6-8.8 2.16-5.52 7.52-9.44 13.76-9.44 8.08 0 14.64 6.56 14.64 14.64 0 .32 0 .64-.08 1.04-2.32.64-5.36 1.52-8.72 2.56zm.8-8.56c-1.84 0-3.36 1.52-3.36 3.36s1.52 3.44 3.36 3.44 3.36-1.52 3.36-3.44c0-1.84-1.52-3.36-3.36-3.36zm0 5.52c-1.12 0-2.08-.96-2.08-2.08s.96-2.08 2.08-2.08 2.08.96 2.08 2.08c-.08 1.12-.96 2.08-2.08 2.08zm-10.32-10.08c-1.36 0-2.4 1.04-2.4 2.4s1.04 2.4 2.4 2.4 2.4-1.04 2.4-2.4-1.04-2.4-2.4-2.4zm0 3.44c-.56 0-1.04-.48-1.04-1.04s.48-1.04 1.04-1.04c.64 0 1.04.48 1.04 1.04.08.56-.4 1.04-1.04 1.04z"/></svg>