<svg height="32" viewBox="0 0 32 32" width="32" xmlns="http://www.w3.org/2000/svg"><path d="m16 16.971c2.857 0 5.143-2.343 5.143-5.2s-2.286-5.2-5.143-5.2-5.143 2.343-5.143 5.257c0 2.857 2.286 5.143 5.143 5.143zm0-9.314c2.229 0 4.057 1.829 4.057 4.114s-1.771 4.057-4.057 4.057-4.114-1.829-4.114-4.057c.057-2.286 1.829-4.114 4.114-4.114zm0 10.229c-4 0-7.257 3.029-7.657 6.971-.057.343.171.629.457.629.343.057.571-.171.571-.457.4-3.429 3.257-6 6.629-6s6.229 2.571 6.571 6c0 .286.286.514.571.457.286 0 .514-.286.514-.629-.4-3.943-3.714-6.971-7.657-6.971zm10.114 1.257c2.229 0 4.057-1.829 4.057-4.057s-1.771-4-4.057-4c-2.171 0-4 1.829-4 4 0 2.229 1.829 4.057 4 4.057zm0-7.029c1.657 0 2.914 1.314 2.914 2.914 0 1.657-1.314 2.971-2.914 2.971s-2.914-1.314-2.914-2.971c0-1.543 1.314-2.914 2.914-2.914zm0 7.6c-.914 0-1.829.286-2.686.686-.286.171-.4.514-.286.8.171.286.514.4.743.229.629-.343 1.429-.571 2.171-.571 2.4 0 4.457 1.771 4.8 4.171.057.286.343.514.629.457.286 0 .514-.343.457-.629-.4-2.971-2.914-5.143-5.829-5.143zm-20.228-.571c2.171 0 4-1.829 4-4.057s-1.771-4-4-4-4.057 1.829-4.057 4c.057 2.229 1.829 4.057 4.057 4.057zm0-7.029c1.6 0 2.914 1.314 2.914 2.914 0 1.657-1.314 2.971-2.914 2.971-1.657 0-2.914-1.314-2.914-2.971 0-1.543 1.314-2.914 2.914-2.914zm2.971 9.029c.114-.286 0-.629-.229-.8-.857-.4-1.771-.686-2.743-.686-2.914 0-5.429 2.229-5.886 5.143-.057.286.171.629.514.629.286.057.571-.171.571-.457.343-2.4 2.4-4.171 4.8-4.171.743 0 1.543.229 2.171.571.286.114.629 0 .8-.229z"/></svg>