<svg height="32" viewBox="0 0 32 32" width="32" xmlns="http://www.w3.org/2000/svg"><path d="m12 21.2c4.72 0 8.64-3.84 8.64-8.64s-3.84-8.64-8.56-8.64-8.64 3.76-8.64 8.64 3.84 8.64 8.56 8.64zm.08-16c4 0 7.2 3.28 7.2 7.28s-3.2 7.28-7.2 7.28-7.2-3.28-7.2-7.28c0-3.92 3.2-7.28 7.2-7.28zm0 13.68c.4 0 .72-.24.72-.72 0-.4-.32-.72-.72-.72-2.72 0-4.96-2.24-4.96-4.96 0-.4-.24-.72-.72-.72s-.72.24-.72.72c.08 3.6 2.88 6.4 6.4 6.4zm7.36-12.72 1.2-1.28c.24-.24.24-.72 0-.96s-.72-.24-.96 0l-1.2 1.28c-.24.24-.24.72 0 .96s.72.24.96 0zm-13.68 12.72c-.24-.24-.72-.24-.96 0l-1.2 1.28c-.24.24-.24.72 0 .96s.72.24.96 0l1.2-1.28c.32-.24.32-.64 0-.96zm16-5.68h1.68c.4 0 .72-.24.72-.72s-.24-.72-.72-.72h-1.68c-.4 0-.72.24-.72.72s.32.72.72.72zm-19.36-1.36h-1.68c-.4 0-.72.24-.72.72s.24.64.72.64h1.68c.4 0 .72-.24.72-.72s-.32-.64-.72-.64zm17.04 7.04c-.24-.24-.72-.24-.96 0s-.24.72 0 .96l1.2 1.28c.24.24.72.24.96 0s.24-.72 0-.96zm-14.72-12.72c.24.24.72.24.96 0s.24-.72 0-.96l-1.12-1.28c-.24-.24-.72-.24-.96 0s-.24.72 0 .96zm6.72 16.08v1.76c0 .4.24.72.72.72.4 0 .72-.32.72-.72v-1.76c0-.4-.24-.72-.72-.72-.48.08-.72.32-.72.72zm.64-18.72c.4 0 .72-.32.72-.72v-1.68c0-.48-.32-.72-.72-.72s-.72.24-.72.72v1.68c.08.4.32.72.72.72zm12.32 22.96c-.4 0-.72.32-.72.72v2l-6.64-6.72c-.24-.24-.72-.24-.96 0s-.24.72 0 .96l6.56 6.56h-1.84c-.4 0-.72.24-.72.72s.32.72.72.72h3.6c.24 0 .32-.08.48-.24s.24-.24.24-.48v-3.6c-.08-.4-.4-.64-.72-.64zm6.96-6.24c-.4 0-.72.32-.72.72v2.08l-6.64-6.8c-.24-.24-.72-.24-.96 0s-.24.72 0 .96l6.56 6.56h-1.76c-.4 0-.72.32-.72.72s.32.72.72.72h3.6c.4 0 .72-.32.72-.72v-3.6c-.16-.4-.48-.64-.8-.64zm-17.04 6.4c-.4 0-.72.32-.72.72v2.08l-6.64-6.72c-.24-.24-.72-.24-.96 0s-.24.72 0 .96l6.56 6.56h-1.76c-.4 0-.72.32-.72.72s.32.72.72.72h3.6c.24 0 .32-.08.48-.24s.24-.24.24-.48v-3.6c-.16-.48-.48-.72-.8-.72z"/></svg>