<svg height="32" viewBox="0 0 32 32" width="32" xmlns="http://www.w3.org/2000/svg"><path d="m24.655 8.436c-1.018-.945-2.182-1.673-3.491-1.964v-1.309h1.018c.873 0 1.527-.655 1.527-1.527v-2.109c0-.873-.655-1.527-1.527-1.527h-12.436c-.873 0-1.527.655-1.527 1.527v2.109c0 .873.655 1.527 1.527 1.527h1.018v1.309c-1.309.291-2.473.945-3.491 1.964-1.455 1.455-2.255 3.273-2.255 5.382v15.636c0 1.455 1.164 2.545 2.618 2.545h16.655c1.455 0 2.618-1.164 2.618-2.545v-15.709c0-2.036-.8-3.855-2.255-5.309zm-4.51-7.418h2.109c.291 0 .509.218.509.509v2.109c0 .291-.218.509-.509.509h-2.109zm-3.636 0h2.618v3.127h-2.618zm3.636 4.146v1.091c-.291-.073-.582-.073-.873-.073h-6.545c-.291 0-.582 0-.873.073v-1.091zm-7.272-4.146h2.618v3.127h-2.618zm-3.128 3.127c-.291 0-.509-.218-.509-.509v-2.109c0-.291.218-.509.509-.509h2.109v3.127zm-3.636 10.837h10.4v10.327h-10.4zm18.182 16h-16.582c-.873 0-1.527-.655-1.527-1.527v-3.127h11.418v-12.364h-11.491v-.145c0-1.745.655-3.418 1.891-4.582s2.909-1.891 4.655-1.891h6.618c1.745 0 3.418.655 4.655 1.891 1.164 1.236 1.891 2.909 1.891 4.582v15.636h.073c0 .873-.727 1.527-1.6 1.527zm-12.436-14.473h-1.018v3.127h-3.127v1.018h3.127v3.127h1.018v-3.127h3.127v-1.018h-3.127z"/></svg>