<svg height="32" viewBox="0 0 32 32" width="32" xmlns="http://www.w3.org/2000/svg"><path d="m26.109 2.4c-3.709-1.455-7.636-.073-10.109 3.564-2.473-3.636-6.4-5.091-10.109-3.564-3.636 1.455-6.909 5.745-5.6 11.855 1.236 5.382 5.382 9.455 8.655 11.855 3.564 2.618 6.764 4 6.909 4h.145s.073 0 .145 0c.145-.073 3.345-1.382 6.909-4 3.273-2.473 7.418-6.473 8.655-11.855 1.309-6.109-1.964-10.4-5.6-11.855zm4.8 11.636c-2.109 9.309-13.455 14.691-14.909 15.345-1.455-.655-12.8-5.964-14.909-15.273-1.236-5.6 1.745-9.6 5.091-10.909.8-.291 1.745-.509 2.691-.509 2.327 0 4.873 1.164 6.764 4.291.145.218.582.218.727 0 2.691-4.509 6.618-4.873 9.455-3.782 3.345 1.236 6.327 5.236 5.091 10.836zm-5.091.8h-3.418c-.145 0-.364.145-.364.291l-.509 1.6-1.455-7.055c-.073-.145-.218-.291-.364-.291-.218 0-.364.073-.436.291l-1.382 4.291-.291-.8c-.073-.145-.218-.291-.364-.291s-.291.145-.364.291l-.945 3.491-1.673-6.982c-.073-.218-.218-.291-.436-.291s-.364.145-.364.364l-1.018 6.545-1.236-4.945c-.073-.145-.218-.291-.364-.291-.218 0-.364.145-.364.291l-.727 3.491h-3.927c-.218 0-.436.145-.436.436.073.218.218.364.436.364h4.145c.218 0 .364-.145.364-.291l.436-2.109 1.309 5.164c.073.145.218.291.364.291.218 0 .364-.145.364-.364l1.018-6.473 1.527 6.545c.073.145.218.291.364.291.218 0 .364-.145.364-.291l1.091-3.855.291.8c.073.145.218.291.364.291s.291-.145.364-.291l1.236-3.927 1.455 6.982c0 .145.218.291.364.291s.364-.073.436-.291l.945-2.764h3.055c.218 0 .436-.145.436-.436.145-.145-.073-.364-.291-.364z"/></svg>