<svg height="32" viewBox="0 0 32 32" width="32" xmlns="http://www.w3.org/2000/svg"><path d="m21.3 10.95-3.35-.5-1.5-3.05c-.15-.25-.45-.35-.7-.25-.1.05-.2.15-.25.25l-1.5 3.05-3.35.5c-.3.05-.45.3-.4.6 0 .1.05.2.15.25l2.4 2.35-.55 3.35c-.05.2.05.4.2.5s.35.15.55.05l3-1.6 3 1.55c.05.05.15.05.25.05s.2 0 .3-.05c.15-.1.25-.3.2-.5l-.6-3.25 2.4-2.4c.2-.2.2-.55 0-.75-.05-.1-.15-.15-.25-.15zm-3.05 2.7c-.1.1-.2.3-.15.45l.45 2.55-2.3-1.2c-.15-.1-.35-.1-.5 0l-2.3 1.2.45-2.55c.05-.15-.05-.35-.15-.45l-1.9-1.8 2.55-.35c.15 0 .3-.15.4-.3l1.15-2.35 1.15 2.35c.1.15.2.25.4.3l2.55.35zm-2.25-9.95c-5.2 0-9.45 4.25-9.45 9.45s4.25 9.45 9.45 9.45 9.45-4.25 9.45-9.45-4.25-9.45-9.45-9.45zm0 17.85c-4.65 0-8.4-3.75-8.4-8.4s3.75-8.4 8.4-8.4 8.4 3.75 8.4 8.4c0 4.65-3.75 8.4-8.4 8.4zm15.85 2.35-4.9-4.9v-.05l-.2-2.35 1.55-1.8c.85-1 .85-2.45 0-3.4l-1.55-1.75.2-2.35c.1-1.3-.75-2.45-2-2.7l-2.3-.5-1.2-2.05c-.65-1.1-2.05-1.55-3.25-1.05l-2.15.95-2.15-.9c-1.2-.5-2.55-.05-3.25 1.05l-1.2 2-2.3.55c-1.25.3-2.1 1.5-2 2.75l.2 2.35-1.55 1.8c-.85 1-.85 2.45 0 3.4l1.55 1.75-.2 2.2-5 5c-.2.2-.2.55 0 .75.1.1.25.15.35.15l6-.05v6c0 .2.1.4.3.5h.2c.15 0 .25-.05.35-.15l3.8-3.8c.2-.2.2-.55 0-.75s-.55-.2-.75 0l-2.85 2.85.05-5.3c0-.15-.05-.3-.15-.35-.1-.1-.25-.15-.35-.15l-5.3.1 3.5-3.55c.3.8 1 1.4 1.85 1.6l2.3.5 1.2 2.05c.5.75 1.3 1.2 2.2 1.2.35 0 .7-.05 1.05-.2l2.15-.9 2.15.9c1.2.5 2.55.05 3.25-1.05l1.2-2.05 2.3-.55c.8-.2 1.45-.75 1.75-1.45l3.5 3.5-5.3-.1c-.15 0-.3.05-.35.15-.1.1-.15.25-.15.35l.05 5.3-2.85-2.85c-.2-.2-.55-.2-.75 0s-.2.55 0 .75l3.8 3.8c.1.1.25.15.35.15.05 0 .15 0 .2-.05.2-.1.3-.25.3-.5l-.05-6.05 6 .05c.2 0 .4-.15.5-.3s.05-.35-.1-.5zm-7.15-3.2-2.5.6c-.15.05-.25.1-.35.25l-1.3 2.2c-.4.65-1.2.95-1.95.65l-2.35-1c-.15-.05-.25-.05-.4 0l-2.35 1c-.7.3-1.55.05-1.95-.6l-1.35-2.2c-.05-.1-.2-.2-.35-.25l-2.5-.6c-.75-.15-1.25-.85-1.2-1.65l.2-2.55c0-.15-.05-.3-.1-.4l-1.7-1.9c-.5-.6-.5-1.45 0-2.05l1.65-1.95c.1-.1.15-.25.1-.4l-.25-2.55c-.05-.75.45-1.5 1.2-1.65l2.5-.6c.15-.05.25-.1.35-.25l1.3-2.2c.4-.65 1.25-.95 1.95-.65l2.35 1c.15.05.25.05.4 0l2.35-1c.7-.3 1.55-.05 1.95.6l1.4 2.2c.05.1.2.2.35.25l2.5.55c.75.15 1.25.85 1.2 1.65l-.2 2.55c0 .15.05.3.1.4l1.7 1.95c.5.6.5 1.45 0 2.05l-1.65 1.95c-.1.1-.15.25-.1.4l.25 2.55c0 .75-.5 1.45-1.25 1.65z"/></svg>