<!-- Generated by IcoMoon.io -->
<svg version="1.1" xmlns="http://www.w3.org/2000/svg" width="32" height="32" viewBox="0 0 32 32">
<title>recipes</title>
<path d="M25.813 12.302c-0.107-1.742-4.978-2.667-9.813-2.667-0.071 0-0.142 0-0.213 0v-1.92c0-0.249-0.249-0.462-0.498-0.391-1.28 0.036-2.524 0.107-3.698 0.249-0.391 0-0.391 0.32-0.391 0.782v1.6c-1.991 0.284-4.942 0.96-5.013 2.347 0 0 0 0.036 0 0.036s0 0.036 0 0.036c0 0.142 0.036 0.284 0.107 0.427l1.636 5.938c0 0.071 0.036 0.178 0.071 0.249l1.031 3.733c0.107 1.564 4.587 1.956 7.004 1.956 2.382 0 6.862-0.427 7.004-1.956l2.702-9.884c0.071-0.142 0.107-0.284 0.107-0.462-0.036-0.036-0.036-0.036-0.036-0.071 0 0 0 0 0 0zM9.813 22.649c0-0.036 0-0.071 0-0.107l-0.711-2.631c0.533 0.249 1.244 0.462 2.062 0.64l0.356 2.169c0 0.32 0.142 0.569 0.356 0.818-1.316-0.32-2.027-0.676-2.062-0.889zM12.338 22.649c0-0.036 0-0.036 0-0.071l-0.32-1.884c0.604 0.107 1.209 0.142 1.884 0.213l0.107 1.742c0 0.391 0.107 0.747 0.284 1.067-1.244-0.249-1.956-0.711-1.956-1.067zM22.187 22.542c0 0.036 0 0.071 0 0.107-0.036 0.356-2.169 1.209-6.187 1.209-0.64 0-1.173-0.533-1.173-1.244l-0.107-1.671c0.498 0.036 1.031 0.036 1.529 0.036 0.462 0 0.889 0 1.351-0.036 0.213 0 0.391-0.213 0.391-0.427s-0.213-0.391-0.427-0.391c-0.427 0.036-0.889 0.036-1.316 0.036-0.569 0-1.102 0-1.6-0.036l-0.107-1.6c0-0.213-0.213-0.391-0.427-0.391s-0.391 0.213-0.391 0.427l0.107 1.493c-0.747-0.071-1.387-0.142-1.956-0.249l-0.604-3.627c-0.036-0.213-0.249-0.391-0.462-0.32-0.213 0.036-0.391 0.249-0.32 0.462l0.569 3.307c-1.316-0.284-2.062-0.64-2.24-0.924l-0.107-0.213c0 0 0-0.036 0-0.036l-1.28-4.693c1.778 0.889 5.191 1.351 8.569 1.351 0.533 0 1.031 0 1.564-0.036 0.178 0 0.356-0.107 0.391-0.284v0c0-0.036 0.036-0.107 0.036-0.142v-1.92c1.031-0.071 1.991-0.142 2.916-0.284v1.813c0 0.107 0.071 0.249 0.142 0.32 0.107 0.071 0.213 0.107 0.32 0.107 1.102-0.178 2.347-0.498 3.2-0.924l-2.382 8.782zM24.924 12.516c-0.213 0.32-1.173 0.853-3.2 1.244v-1.813c0-0.107-0.071-0.249-0.142-0.32-0.107-0.071-0.213-0.107-0.32-0.107-1.102 0.178-2.347 0.32-3.662 0.356-0.213 0-0.391 0.178-0.391 0.427v1.92c-0.391 0-0.782 0.036-1.173 0.036-5.44 0-8.498-1.067-8.924-1.742l-0.036-0.178c0.071-0.427 1.529-1.209 4.658-1.6 0.213-0.036 0.356-0.213 0.356-0.391 0 0 0-1.316 0-1.956 0.924-0.107 1.884-0.178 2.916-0.213v1.884c0 0.107 0.036 0.213 0.107 0.284s0.178 0.107 0.284 0.107c0.213 0 0.427 0 0.604 0 5.831 0 8.889 1.209 8.96 1.884l-0.036 0.178zM15.573 11.342c-0.178 0-0.391 0.036-0.569 0.107-0.249-0.178-0.569-0.284-0.889-0.284-0.569 0-1.067 0.356-1.316 0.853-0.32-0.071-0.64-0.036-0.96 0.107-0.249-0.213-0.569-0.32-0.924-0.32-0.604 0-1.102 0.356-1.316 0.853-0.107-0.036-0.213-0.036-0.284-0.036-0.213 0-0.427 0.178-0.427 0.427 0 0.213 0.178 0.427 0.427 0.427 0.142 0 0.249 0.036 0.356 0.107 0.071 0.036 0.142 0.071 0.249 0.071 0.071 0 0.142 0 0.178-0.036 0.142-0.071 0.213-0.213 0.213-0.356 0-0.356 0.284-0.604 0.604-0.604 0.213 0 0.391 0.107 0.498 0.284 0.071 0.107 0.178 0.178 0.284 0.178s0.249-0.036 0.32-0.107c0.071-0.071 0.213-0.142 0.427-0.142 0.178 0 0.284 0.071 0.356 0.107 0.107 0.107 0.284 0.107 0.427 0.036s0.213-0.213 0.213-0.356c0-0.32 0.284-0.604 0.604-0.604 0.178 0 0.356 0.071 0.498 0.249s0.391 0.213 0.569 0.071c0.071-0.071 0.213-0.142 0.391-0.142 0.356 0 0.64 0.284 0.64 0.64 0 0.213 0.178 0.427 0.427 0.427 0.213 0 0.427-0.178 0.427-0.427 0.036-0.889-0.604-1.529-1.422-1.529zM22.898 11.769c-0.284 0-0.533 0.107-0.782 0.249-0.178 0.142-0.213 0.391-0.071 0.569s0.391 0.213 0.569 0.071c0.071-0.036 0.142-0.107 0.284-0.107s0.32 0.071 0.391 0.213c0.071 0.142 0.213 0.213 0.356 0.213 0.071 0 0.142-0.036 0.213-0.071 0.213-0.107 0.249-0.356 0.142-0.569-0.213-0.32-0.64-0.569-1.102-0.569zM16 0c-8.853 0-16 7.182-16 16 0 8.853 7.147 16 16 16 8.818 0 16-7.182 16-16s-7.182-16-16-16zM16 31.040c-8.284 0-15.040-6.756-15.040-15.040s6.756-15.040 15.040-15.040 15.040 6.756 15.040 15.040c0 8.284-6.756 15.040-15.040 15.040z"></path>
</svg>
