<svg height="32" viewBox="0 0 32 32" width="32" xmlns="http://www.w3.org/2000/svg"><path d="m10.074 16c0 3.2 2.548 5.748 5.748 5.748s5.748-2.548 5.748-5.748c0-1.126-.296-2.193-.889-3.141l1.896-1.896-.711-.711-1.778 1.778c-1.067-1.185-2.607-1.837-4.207-1.837-3.2.059-5.748 2.607-5.807 5.807zm5.689 1.778 4.148-4.148c.415.711.652 1.541.652 2.37 0 2.607-2.074 4.741-4.741 4.741-2.607 0-4.741-2.074-4.741-4.741 0-2.607 2.074-4.741 4.741-4.741 1.304 0 2.607.533 3.496 1.541l-3.556 3.556-1.541-1.541-.711.711 2.252 2.252zm13.037-11.911c-5.57 0-9.837-3.141-12.444-5.748-.178-.178-.533-.178-.711 0-2.607 2.607-6.874 5.748-12.444 5.748-.296 0-.533.237-.533.533v6.696c0 5.274 2.193 9.837 6.4 13.333l6.578 5.452c.178.178.474.178.652 0l6.637-5.452c4.207-3.496 6.4-8.059 6.4-13.333v-6.696c0-.296-.237-.533-.533-.533zm-.474 7.229c0 4.978-2.015 9.185-6.044 12.504l-6.281 5.215-6.281-5.215c-4.03-3.259-6.044-7.526-6.044-12.504v-6.222c5.452-.119 9.659-3.081 12.326-5.689 2.667 2.607 6.874 5.511 12.326 5.689v6.222z"/></svg>