<svg height="32" viewBox="0 0 32 32" width="32" xmlns="http://www.w3.org/2000/svg"><path d="m30.347 2.613c-.053-.747-1.173-.747-1.12 0 .053.587.16 1.28 0 1.813-.16.587-.747.96-1.28.587-.533-.32-.427-.907-.427-1.387.053-.533-.053-1.707.16-2.187.427-.8 1.387-.107 1.92.16.267.16.747-.16.64-.48-.48-1.173-1.813-1.493-2.88-.853-.533.267-.64.693-.747 1.227-.16.96-.32 2.08-.16 2.987.053.48.32.96.693 1.28-.747.373-1.707.267-2.453.267-1.547 0-7.627-.107-8.853.373-.747.267-1.653 1.387-1.28 2.08-1.333 0-2.72-.053-4.053 0-.907 0-.907 1.387 0 1.387 3.467-.053 6.933-.16 10.347-.267.533 0 1.44-.213 1.6.427.16.8-1.707.587-2.4.587-1.973.053-9.44.16-9.973.16-.427 0-1.013 0-1.333-.267-.267-.16-.533-.587-.267-.96.053-.053.533-.213.64-.267.373-.16.213-.64-.107-.747-1.707-.587-2.613 1.333-1.44 2.507.533.48 1.173.747 1.867.8-.107 1.28.427 2.72 1.227 3.627.48.587 1.067 1.013 1.76 1.333-2.293.053-4.587.053-6.88.16-1.067.053-2.133.107-3.2.213-.64.053-.64.96 0 1.013.267.053.533.053.747.053-.053.48-.053 4.373-.053 5.813-.053 2.133-.053 4.213-.053 6.347-.267.053-.533.053-.8.053-.64.053-.64.96 0 1.013 7.52.64 15.147.267 22.667.267 1.067 0 2.187-.053 3.2-.053 1.227 0 1.227-1.92 0-1.92-.16 0-.32 0-.533 0 0-1.973-.053-4-.107-5.973 0-1.493-.053-4.907-.053-5.227h.64c1.227 0 1.227-1.92 0-1.92-2.987 0-6.027 0-9.067 0 .427-.213.853-.48 1.12-.853 1.013-1.067 1.6-2.667 1.653-4.16.587-.053 1.12-.107 1.6-.533.587-.533.907-1.333.32-1.973-.693-.587-1.6-.587-2.453-.587-1.173 0-4.96 0-5.653 0 .267-.8.64-1.067 1.6-1.12.64-.053 4.64-.16 6.027-.213 1.6-.053 4.053.373 5.227-.907.267 0 .533-.053.747-.16 1.44-.587 1.333-2.24 1.227-3.52zm-4.267 16.16c0 .267-.053 3.733-.053 5.227 0 1.973-.053 4-.053 6.027-6.88 0-13.813 0-20.64.32-.267 0-.64.053-.907.053 0-2.08-.107-11.467-.16-11.947 6.773.533 21.387.32 21.813.32zm-6.933-3.786c-.853.747-2.347.96-3.467 1.013-1.44.053-2.987-.32-4.107-1.28-.853-.693-1.067-1.707-1.227-2.72.427 0 .853-.053 1.28-.053 2.4-.053 4.747-.053 7.2-.053.533 0 1.12 0 1.707-.053-.053 1.173-.48 2.4-1.387 3.147zm-12.534 6.346c-.053.96-.16 5.28-.053 6.507.053.373.267.693.693.693 2.987.053 6.027.107 9.067.053 1.707 0 3.36-.053 5.013-.053 1.12 0 2.293-.32 2.507-1.6.267-1.973.053-4.053-.053-6.027-.053-.32-.267-.587-.64-.587-5.333 0-10.667-.107-16-.107-.693-.107-.853.693-.533 1.12zm15.947.107c.107 1.493.16 2.933.107 4.427-.053.587 0 1.227-.533 1.387-.267.053-.8 0-1.12-.053-3.52-.053-7.093-.107-10.56-.107-.853 0-1.707 0-2.56 0-.053-1.067-.213-4.747-.267-5.6 4.96.053 9.973-.053 14.933-.053zm-7.093 4.373c.8 0 1.44-.64 1.44-1.44s-.64-1.44-1.44-1.44-1.44.64-1.44 1.44c-.053.8.64 1.44 1.44 1.44z"/></svg>