<!-- Generated by IcoMoon.io -->
<svg version="1.1" xmlns="http://www.w3.org/2000/svg" width="32" height="32" viewBox="0 0 32 32">
<title>search</title>
<path d="M13.689 0c-7.467 0-13.689 6.222-13.689 13.689s6.222 13.689 13.689 13.689c2.489 0 4.8-0.711 6.756-1.778l5.333 5.333c1.422 1.422 3.733 1.422 5.156 0s1.422-3.733 0-5.156l-5.333-5.333c1.067-1.956 1.778-4.267 1.778-6.756 0-7.467-6.044-13.689-13.689-13.689v0zM13.689 2.667c6.044 0 11.022 4.978 11.022 11.022s-4.978 11.022-11.022 11.022-11.022-4.978-11.022-11.022c0-6.044 4.978-11.022 11.022-11.022zM24 22.756l4.978 4.978c0.356 0.356 0.356 0.889 0 1.244s-0.889 0.356-1.244 0l-4.978-4.978c0.533-0.356 0.889-0.711 1.244-1.244v0z"></path>
</svg>
