<svg height="32" viewBox="0 0 28 32" width="28" xmlns="http://www.w3.org/2000/svg"><path d="m17.25 12.8-4.45 5.1-2.1-1.9c-.25-.25-.65-.2-.9.05s-.2.65.05.9l2.55 2.3c.1.1.25.15.4.15h.05c.15 0 .3-.1.45-.2l4.85-5.55c.25-.25.2-.65-.05-.9s-.65-.2-.85.05zm-3.25-4.65c-4.25 0-7.75 3.5-7.75 7.85s3.45 7.85 7.75 7.85c4.25 0 7.75-3.5 7.75-7.85 0-4.3-3.5-7.85-7.75-7.85zm0 14.4c-3.55 0-6.5-2.95-6.5-6.55s2.9-6.55 6.5-6.55c3.55 0 6.5 2.95 6.5 6.55s-2.95 6.55-6.5 6.55zm13.8-16.85c-.05-.5-.3-.85-.8-1.05-4.15-1.5-8.25-3-12.4-4.55-.4-.15-.8-.15-1.15 0-4.15 1.55-8.3 3.05-12.45 4.55-.5.2-.75.55-.8 1.05-.3 3.1-.3 5.9-.05 8.55.35 3.8 1.2 6.85 2.6 9.55 2.2 4.2 5.5 6.9 9.8 8 .45.1.95.2 1.45.2.2 0 .4 0 .6-.05 1.15-.25 2.15-.55 3-.95 4-1.75 6.75-4.85 8.5-9.35 1.25-3.2 1.8-6.75 1.85-11.4.05-1.5-.05-3-.15-4.55zm-2.8 15.45c-1.65 4.2-4.2 7.05-7.85 8.65-.8.35-1.7.65-2.75.85-.5.1-.95-.05-1.45-.15-4-1.05-6.95-3.45-9-7.35-1.35-2.55-2.1-5.4-2.45-9.05-.25-2.55-.25-5.2.05-8.25 4.15-1.5 8.25-3 12.35-4.55.1-.05.15-.05.3 0 4.1 1.5 8.2 3 12.4 4.55.1 1.5.2 2.95.2 4.35-.1 4.55-.65 7.9-1.8 10.95z"/></svg>