<svg height="32" viewBox="0 0 32 32" width="32" xmlns="http://www.w3.org/2000/svg"><path d="m15.933 0c-.133 0-.267.067-.333.133-3.333 2.333-7.133 4.333-13.6 4.933-.4 0-.667.333-.667.667 0 8.267 1.533 14 4.133 18.133 2.6 4.067 6.267 6.467 10.267 8.067.2.067.4.067.533 0 3.867-1.533 7.333-3.8 9.867-7.533s4.2-8.933 4.467-16.4c0-.4-.267-.733-.733-.733-.4 0-.733.267-.733.667-.267 7.267-1.867 12.2-4.2 15.667-2.333 3.333-5.4 5.4-8.933 6.867-3.733-1.533-6.933-3.733-9.333-7.4-2.333-3.667-3.733-8.933-3.8-16.667 6-.667 9.933-2.533 13.133-4.8 3.333 2.333 7.467 4.333 13.867 4.867.4.067.733-.267.8-.667s-.267-.733-.667-.8c-6.467-.6-10.267-2.533-13.6-4.867-.133-.067-.267-.133-.467-.133zm6.4 10.4c-.2 0-.333.133-.467.267l-6.933 8.2-3-2.867c-.267-.267-.733-.267-1.067 0-.267.267-.267.733 0 1l3.6 3.467c.267.267.733.267 1.067-.067l7.4-8.8c.267-.333.2-.733-.067-1-.133-.133-.333-.2-.533-.2z"/></svg>