<!-- Generated by IcoMoon.io -->
<svg version="1.1" xmlns="http://www.w3.org/2000/svg" width="25" height="32" viewBox="0 0 25 32">
<title>security</title>
<path d="M12.333 0c-4.4 0-7.667 3.6-7.667 8v2.067c0 0.4 0.333 0.733 0.733 0.733s0.733-0.333 0.733-0.733c0 0 0 0 0 0v-2.067c0-3.667 2.6-6.533 6.2-6.533s6.2 2.867 6.2 6.533v2.067c0 0.4 0.333 0.733 0.733 0.733s0.733-0.333 0.733-0.733c0 0 0 0 0 0v-2.067c0-4.4-3.333-8-7.667-8zM0.667 12.4c-0.4 0.067-0.667 0.333-0.667 0.733v18.133c0 0.4 0.333 0.733 0.733 0.733h23.2c0.4 0 0.733-0.333 0.733-0.733v-11.667c0-0.4-0.333-0.733-0.733-0.733s-0.733 0.333-0.733 0.733c0 0 0 0 0 0v10.933h-21.733v-16.667h21.733v2.933c0 0.4 0.333 0.733 0.733 0.733s0.733-0.333 0.733-0.733c0 0 0 0 0 0v-3.667c0-0.4-0.333-0.733-0.733-0.733h-23.2c0 0-0.067 0-0.067 0zM12.333 17.067c-2.2 0-4 1.8-4 4 0 1.333 0.667 2.4 1.6 3.133v2.333c0 0.4 0.333 0.733 0.733 0.733h3.267c0.4 0 0.733-0.333 0.733-0.733s-0.333-0.733-0.733-0.733c0 0 0 0 0 0h-2.533v-2c0-0.267-0.133-0.467-0.333-0.6-0.8-0.467-1.267-1.2-1.267-2.133 0-1.4 1.133-2.533 2.533-2.533s2.533 1.133 2.533 2.533c0 0.933-0.533 1.733-1.267 2.133-0.333 0.2-0.467 0.667-0.267 1s0.667 0.467 1 0.267c1.2-0.667 2-1.933 2-3.4 0-2.133-1.8-4-4-4z"></path>
</svg>
