<!-- Generated by IcoMoon.io -->
<svg version="1.1" xmlns="http://www.w3.org/2000/svg" width="18" height="32" viewBox="0 0 18 32">
<title>setup</title>
<path d="M14.8 0h-11.314c-1.886 0-3.486 1.543-3.486 3.486v25.029c0 1.943 1.6 3.486 3.486 3.486h11.257c1.943 0 3.486-1.543 3.486-3.486v-25.029c0.057-1.943-1.543-3.486-3.429-3.486zM8.971 1.371c0.114-0.114 0.286-0.114 0.4 0 0.057 0.057 0.057 0.114 0.057 0.171s0 0.057 0 0.114-0.057 0.057-0.057 0.114c0 0-0.057 0.057-0.114 0.057s-0.114 0-0.229 0c-0.057 0-0.057-0.057-0.114-0.057 0 0-0.057-0.057-0.057-0.114s0-0.057 0-0.114 0-0.057 0-0.114c0.057 0 0.057-0.057 0.114-0.057zM17.2 28.514c0 1.314-1.086 2.4-2.457 2.4h-11.257c-1.371 0-2.457-1.086-2.457-2.4v-25.029c0-1.314 1.086-2.4 2.457-2.4h4.343c0 0.057 0 0.171 0 0.229 0 0.686 0.571 1.257 1.314 1.257s1.314-0.571 1.314-1.257c0 0 0 0 0 0 0-0.057 0-0.171 0-0.229h4.343c1.314 0 2.4 1.086 2.4 2.4v25.029zM9.143 10.114c-3.257 0-5.943 2.629-5.943 5.886s2.629 5.886 5.943 5.886 5.943-2.629 5.943-5.886c0-3.257-2.686-5.886-5.943-5.886zM9.143 20.8c-2.686 0-4.857-2.171-4.857-4.8s2.171-4.8 4.857-4.8c2.686 0 4.857 2.171 4.857 4.8s-2.171 4.8-4.857 4.8zM11.429 13.543l-3.314 4.286-1.2-1.6c-0.171-0.229-0.514-0.286-0.743-0.114s-0.286 0.514-0.114 0.743l1.6 2.114c0.114 0.114 0.286 0.229 0.4 0.229 0.171 0 0.343-0.057 0.457-0.229l3.771-4.8c0.171-0.229 0.114-0.514-0.114-0.686s-0.571-0.171-0.743 0.057z"></path>
</svg>
