<svg height="32" viewBox="0 0 32 32" width="32" xmlns="http://www.w3.org/2000/svg"><path d="m31.6.05c-.05-.05-.15-.05-.25-.05h-24.3c-.1 0-.15 0-.25.05s-.15.1-.2.15l-6.4 6.4c-.05.05-.1.15-.15.2s-.05.15-.05.25v24.3c0 .35.3.65.65.65h24.3c.1 0 .15 0 .25-.05s.15-.1.2-.15l6.4-6.4c.05-.05.1-.15.15-.2.05-.1.05-.15.05-.25v-24.3c0-.1 0-.15-.05-.25-.05-.15-.2-.3-.35-.35zm-.9 24.65-5.1 5.1v-22.5l5.1-5.1zm-23.4-23.4h10.35l-5.1 5.1h-10.35zm3.6 6.4h3.85v4.7l-.35-.2c-.2-.1-.4-.1-.55 0l-1 .5-1-.5c-.1-.05-.2-.05-.3-.05s-.2 0-.3.05l-.35.2zm4.45-1.3h-1l5.1-5.1h10.35l-5.1 5.1zm-14.05 1.3h8.3v5.75c0 .2.1.45.3.55.1.05.2.1.35.1.1 0 .2 0 .3-.05l1-.5 1 .5c.2.1.4.1.55 0l1-.5 1 .5c.2.1.45.1.6-.05.2-.1.3-.3.3-.55v-5.75h8.3v23.05h-23v-23.05z"/></svg>