<svg height="32" viewBox="0 0 32 32" width="32" xmlns="http://www.w3.org/2000/svg"><path d="m16 0c-8.8 0-16 7.2-16 16s7.2 16 16 16c7.92 0 16-6.4 16-16 0-8.8-7.2-16-16-16zm0 30.64c-7.44 0-13.6-5.52-14.56-12.72h9.68l4.4 5.44c.16.16.32.24.56.24h.16c.24-.08.4-.16.56-.48l1.68-5.28h12.24c-1.04 7.2-7.28 12.8-14.72 12.8zm1.84-14.08c-.24 0-.56.16-.64.48l-1.36 4.56-3.84-4.72c-.16-.16-.32-.24-.56-.24h-10.08c0-.16 0-.4 0-.64 0-8.08 6.56-14.64 14.64-14.64s14.64 6.56 14.64 14.64v.56zm-2.8-7.04c-1.36 0-2.56 1.12-2.56 2.64 0 1.44 1.2 2.64 2.56 2.64 1.44 0 2.64-1.12 2.64-2.64s-1.12-2.64-2.64-2.64zm0 3.92c-.64 0-1.28-.64-1.28-1.28s.64-1.28 1.28-1.28c.72 0 1.28.64 1.28 1.28s-.56 1.28-1.28 1.28zm6.24 14c1.12 0 2-.88 2-2s-.96-2-2-2c-1.12 0-2 .88-2 2s.88 2 2 2zm0-2.64c.4 0 .64.24.64.64s-.32.64-.64.64c-.4 0-.64-.24-.64-.64s.24-.64.64-.64zm4.72-1.44c1.36 0 2.64-1.12 2.64-2.64 0-1.44-1.2-2.56-2.64-2.56s-2.64 1.12-2.64 2.56c.08 1.52 1.2 2.64 2.64 2.64zm0-3.92c.64 0 1.28.64 1.28 1.28s-.56 1.28-1.28 1.28-1.28-.64-1.28-1.28c0-.72.64-1.28 1.28-1.28zm-18.08.64c-1.44 0-2.56 1.12-2.56 2.64 0 1.44 1.12 2.64 2.56 2.64s2.64-1.12 2.64-2.64-1.2-2.64-2.64-2.64zm0 3.76c-.72 0-1.28-.64-1.28-1.28s.64-1.28 1.28-1.28 1.28.56 1.28 1.28-.56 1.28-1.28 1.28zm5.84 0c-1.44 0-2.64 1.12-2.64 2.56s1.12 2.64 2.64 2.64c1.44 0 2.64-1.12 2.64-2.64-.08-1.44-1.28-2.56-2.64-2.56zm0 3.92c-.72 0-1.28-.56-1.28-1.28s.64-1.28 1.28-1.28 1.28.64 1.28 1.28-.64 1.28-1.28 1.28zm-3.52-17.2c-.32-.08-.64.16-.8.48l-.24.88-2.48-4.56c-.16-.32-.56-.32-.88-.24-.32.24-.4.64-.24.88l2.72 4.64-1.04-.24c-.32-.08-.64.16-.8.48-.08.32.16.72.48.8l2.48.56c.16.08.32 0 .48-.08s.24-.24.24-.4l.56-2.48c.08-.32-.08-.72-.48-.72zm13.68-3.44c-.32-.16-.72-.08-.88.24l-2.56 4.48-.16-.88c-.08-.32-.4-.56-.8-.48-.32.08-.64.4-.48.8l.64 2.48c.08.24.16.32.24.4.16.08.32.16.48.08l2.48-.56c.32-.08.64-.4.48-.8s-.4-.56-.8-.48l-.96.24 2.64-4.64c.16-.32 0-.72-.32-.88z"/></svg>