<svg height="32" viewBox="0 0 32 32" width="32" xmlns="http://www.w3.org/2000/svg"><path d="m18.8 18.2v-4.4c0-1.8-1.4-2.8-2.8-2.8s-2.8.933-2.8 2.8v4.4c0 1.8 1.4 2.8 2.8 2.8s2.8-.933 2.8-2.8zm-4.4 0v-4.4c0-1.133.8-1.667 1.667-1.667.8 0 1.6.533 1.6 1.667v4.4c0 1.133-.8 1.667-1.6 1.667-.867 0-1.667-.533-1.667-1.667zm-5.733 1.667c-.8 0-1.667-.533-1.667-1.667 0-.333-.267-.6-.6-.6s-.6.267-.6.6c0 1.8 1.4 2.8 2.8 2.8s2.8-.933 2.8-2.8-1.533-2.4-2.6-2.733c-1.2-.4-1.8-.667-1.8-1.667 0-1.133.8-1.667 1.667-1.667.8 0 1.6.533 1.6 1.667 0 .333.267.6.6.6s.6-.267.6-.6c0-1.8-1.4-2.8-2.8-2.8s-2.8.933-2.8 2.8 1.467 2.4 2.6 2.733c1.2.4 1.8.667 1.8 1.667 0 1.133-.8 1.667-1.6 1.667zm14.666-7.734c.8 0 1.667.533 1.667 1.667 0 .333.267.6.6.6s.6-.267.6-.6c0-1.8-1.4-2.8-2.8-2.8s-2.8.933-2.8 2.8 1.467 2.4 2.6 2.733c1.2.4 1.8.667 1.8 1.667 0 1.133-.8 1.667-1.667 1.667-.8 0-1.6-.533-1.6-1.667 0-.333-.267-.6-.6-.6s-.6.267-.6.6c0 1.8 1.4 2.8 2.8 2.8s2.8-.933 2.8-2.8-1.467-2.4-2.6-2.733c-1.2-.4-1.8-.667-1.8-1.667 0-1.133.8-1.667 1.6-1.667zm-20.4 12.734c0 .333.267.6.6.6h25c.333 0 .6-.267.6-.6s-.267-.6-.6-.6h-25c-.333 0-.6.267-.6.6zm26.134-17.734c0-.333-.267-.6-.6-.6h-24.933c-.333 0-.6.267-.6.6s.267.6.6.6h25c.267 0 .533-.267.533-.6zm2.333 11.267c-.333 0-.6.267-.6.6v8.867c0 2.267-2.133 2.4-2.4 2.4h-24.867c-.267 0-2.333-.067-2.333-2.4v-11.267h2.333c.333 0 .6-.267.6-.6s-.267-.6-.6-.6h-2.933c-.333 0-.6.267-.6.6v11.8c0 2.8 2.267 3.533 3.533 3.533h25c1.2 0 3.533-.733 3.533-3.533v-8.867c-.067-.267-.333-.533-.667-.533zm-2.933-17.733h-24.933c-1.267 0-3.533.733-3.533 3.533v8.867c0 .333.267.6.6.6s.6-.267.6-.6v-8.867c0-2.267 2.133-2.4 2.333-2.4h25c.267 0 2.4.067 2.4 2.4v11.267h-2.4c-.333 0-.6.267-.6.6s.267.6.6.6h2.933c.333 0 .6-.267.6-.6v-11.867c-.067-2.8-2.333-3.533-3.6-3.533z"/></svg>