<!-- Generated by IcoMoon.io -->
<svg version="1.1" xmlns="http://www.w3.org/2000/svg" width="38" height="32" viewBox="0 0 38 32">
<title>sound</title>
<path d="M17.259 0.493l-9.918 6.087h-6.238c-0.609 0-1.103 0.499-1.103 1.113v16.617c0 0.614 0.494 1.113 1.103 1.113h6.238l9.918 6.087c2.207 1.354 5.033-0.246 5.033-2.851v-25.313c0-2.606-2.825-4.207-5.033-2.852zM6.548 23.195h-4.341v-14.391h4.341v14.391zM20.085 28.656c0 0.867-0.94 1.403-1.678 0.951l-9.652-5.924v-15.366l9.652-5.924c0.736-0.451 1.678 0.080 1.678 0.951v25.313zM25.432 13.115c-0.431 0.434-0.431 1.139 0 1.574 0.719 0.725 0.719 1.898 0 2.622-0.431 0.434-0.431 1.139 0 1.574s1.13 0.434 1.561 0c1.578-1.59 1.578-4.179 0-5.769-0.431-0.434-1.13-0.434-1.561 0zM30.322 9.758c-0.431-0.434-1.13-0.434-1.56 0-0.431 0.434-0.431 1.139 0 1.574 2.553 2.574 2.553 6.762 0 9.337-0.431 0.434-0.431 1.139 0 1.574s1.13 0.434 1.56 0c3.414-3.442 3.414-9.042 0-12.484zM33.652 6.402c-0.431-0.434-1.13-0.434-1.561 0s-0.431 1.139 0 1.574c4.463 4.5 4.463 11.55 0 16.051-0.431 0.434-0.431 1.139 0 1.574s1.13 0.434 1.561 0c5.354-5.398 5.359-13.794 0-19.198z"></path>
</svg>
