<svg height="32" viewBox="0 0 32 32" width="32" xmlns="http://www.w3.org/2000/svg"><path d="m24.8 11.782c.218-.8.364-1.745.364-2.545 0-5.091-4.073-9.236-9.164-9.236s-9.164 4.145-9.164 9.236c0 .873.145 1.745.364 2.545-2.036 2.182-3.2 5.091-3.2 8.145 0 6.691 5.382 12.073 12 12.073s12-5.382 12-12.073c0-3.055-1.164-5.964-3.2-8.145zm-8.8 19.273c-6.109 0-11.127-5.018-11.127-11.2 0-2.909 1.091-5.673 3.127-7.782.145-.145.145-.291.073-.436-.291-.8-.364-1.673-.364-2.473 0-4.582 3.709-8.364 8.291-8.364s8.291 3.709 8.291 8.364c0 .8-.145 1.745-.364 2.473-.073.145 0 .291.073.436 2.036 2.109 3.127 4.873 3.127 7.782 0 6.255-5.018 11.2-11.127 11.2zm8.364-14.691c-.145-.145-.364-.291-.582-.145-.218.073-.291.364-.218.582.509 1.018.727 2.036.727 3.127 0 2.182-.945 4.218-2.545 5.6-.145.145-.218.436-.073.582.073.073.218.145.364.145.073 0 .218-.073.291-.073 1.818-1.6 2.836-3.855 2.836-6.255-.073-1.236-.291-2.4-.8-3.564zm-1.964-5.891c.145-.073.218-.145.291-.364.073-.364.073-.655.073-.945 0-3.709-2.982-6.764-6.691-6.764-3.709.073-6.691 3.055-6.691 6.764 0 .291.073.582.073.945 0 .145.145.291.291.364h.145s.145-.073.218-.073c1.818-1.164 3.855-1.745 5.964-1.745s4.218.582 5.964 1.745c.073.145.218.145.364.073zm-.582-1.091c-1.818-1.018-3.782-1.527-5.818-1.527s-4.073.509-5.818 1.527c0-.073 0-.145 0-.145 0-3.273 2.618-5.891 5.818-5.891s5.818 2.618 5.818 5.891z"/></svg>