<svg height="32" viewBox="0 0 32 32" width="32" xmlns="http://www.w3.org/2000/svg"><path d="m29.673 16.945c.218-.291.291-.582.291-.945v-.945c0-.945-.8-1.745-1.745-1.745h-6.691v-7.127c0-.945-.8-1.745-1.745-1.745h-.073c.145-.291.291-.582.291-.945v-1.745c-.073-.945-.873-1.745-1.818-1.745h-14.109c-.945 0-1.745.8-1.745 1.745v1.818c0 .364.073.655.291.945h-.145c-.945-.073-1.745.727-1.745 1.673v18.909c0 .945.8 1.745 1.745 1.745h11.709v3.418c0 .945.8 1.745 1.745 1.745h13.527c.945 0 1.745-.8 1.745-1.745v-11.564c.073-.873-.582-1.6-1.527-1.745zm-14.618 3.928h15.418v7.055h-15.418zm15.418-2.182v1.455h-15.418v-1.455c0-.509.436-.945.945-.945h1.164.145 10.909.145 1.164c.509 0 .945.436.945.945zm-1.309-3.636v.945c0 .509-.364.873-.873.945h-11.127c-.436-.073-.873-.436-.873-.945v-.945c0-.509.436-.945.945-.945h10.909c.582 0 1.018.436 1.018.945zm-11.855-1.746c-.945 0-1.745.8-1.745 1.745v.945c0 .364.073.655.291.945-.873.073-1.6.8-1.6 1.745v3.418h-12.727v-12.945h19.2v4.145h-3.418zm-14.182-9.745v-1.818c0-.509.436-.945.945-.945h14.109c.509 0 .945.436.945.945v1.818c0 .436-.364.873-.8.945h-14.4c-.436-.145-.8-.509-.8-.945zm-.654 1.672h1.455.145 14.109.145 1.455c.509 0 .945.436.945.945v2.182h-19.2v-2.182c0-.509.436-.945.945-.945zm0 20.8c-.509 0-.945-.436-.945-.945v-2.182h12.655v3.127h-11.709zm27.054 5.164h-13.527c-.509 0-.945-.436-.945-.945v-1.455h15.418v1.455c0 .509-.436.945-.945.945z"/></svg>