<svg height="32" viewBox="0 0 26 32" width="26" xmlns="http://www.w3.org/2000/svg"><path d="m25.95 12.85c0-7.1-5.8-12.85-12.95-12.85-7.2 0-13 5.75-13 12.85v8.1c0 1.2.95 2.15 2.15 2.15.3 0 .6-.05.85-.2.2 1.55 1.55 2.75 3.15 2.75 1.75 0 3.2-1.4 3.2-3.15v-7.5c0-1.75-1.45-3.15-3.2-3.15-1.6 0-2.95 1.2-3.15 2.75-.25-.1-.55-.2-.85-.2s-.55.05-.8.15v-1.7c0-6.35 5.2-11.5 11.65-11.5s11.65 5.15 11.65 11.5v1.7c-.25-.1-.5-.15-.8-.15s-.6.05-.85.2c-.2-1.55-1.55-2.75-3.15-2.75-1.75 0-3.2 1.4-3.2 3.15v7.5c0 1.75 1.45 3.15 3.2 3.15 1.6 0 2.95-1.2 3.15-2.75.1.05.25.1.4.1.55 1.4 1.3 4.45.05 6-.9 1.1-2.7 1.35-5.4.9-.1-1-1.1-1.8-2.35-1.8-1.3 0-2.35.9-2.35 1.95 0 1.1 1.05 1.95 2.35 1.95.8 0 1.5-.35 1.9-.8.95.2 1.85.3 2.65.3 1.9 0 3.3-.55 4.2-1.6 1.7-2.1.8-5.5.3-6.95.75-.35 1.25-1.1 1.25-1.95v-4.4-.05s0 0 0-.05zm-21.6 2.15c0-1 .85-1.85 1.85-1.85s1.85.8 1.85 1.85v7.5c0 1-.85 1.85-1.85 1.85s-1.85-.85-1.85-1.85zm-2.2.7c.45 0 .8.35.8.8v4.4c0 .45-.35.8-.8.8s-.8-.35-.8-.8v-4.4c0-.4.35-.8.8-.8zm13.55 14.95c-.6 0-1-.35-1-.6 0-.3.4-.6 1-.6s1 .35 1 .6c0 .3-.45.6-1 .6zm5.95-8.15c0 1-.85 1.85-1.85 1.85s-1.85-.8-1.85-1.85v-7.5c0-1 .85-1.85 1.85-1.85s1.85.8 1.85 1.85zm1.35-5.95c0-.45.35-.8.8-.8s.8.35.8.8v4.4c0 .45-.35.8-.8.8-.45 0-.8-.35-.8-.8z"/></svg>