<!-- Generated by IcoMoon.io -->
<svg version="1.1" xmlns="http://www.w3.org/2000/svg" width="32" height="32" viewBox="0 0 32 32">
<title>taste_2</title>
<path d="M14.187 15.751c0-0.213-0.178-0.391-0.391-0.391-0.711 0-1.138 0.391-1.316 0.604s-0.498 0.711-0.391 1.422l0.711 4.409c0.036 0.178 0.213 0.32 0.391 0.32 0.036 0 0.036 0 0.071 0 0.213-0.036 0.356-0.249 0.32-0.462l-0.711-4.409c-0.071-0.391 0.107-0.64 0.213-0.782s0.356-0.356 0.747-0.356c0.178 0.036 0.356-0.142 0.356-0.356zM13.333 22.72c-0.213 0.036-0.356 0.249-0.32 0.462l0.036 0.213c0.036 0.178 0.213 0.32 0.391 0.32 0.036 0 0.036 0 0.071 0 0.213-0.036 0.356-0.249 0.32-0.462l-0.036-0.213c-0.036-0.213-0.249-0.356-0.462-0.32zM20.729 21.191c-0.213-0.036-0.427 0.107-0.462 0.32l-0.498 3.2h-7.538l-0.498-3.2c-0.036-0.213-0.249-0.356-0.462-0.32s-0.356 0.249-0.32 0.462l0.569 3.52c0.036 0.178 0.178 0.32 0.391 0.32h8.178c0 0 0 0 0 0s0 0 0 0c0.036 0 0.107 0 0.142-0.036 0 0 0.036 0 0.036-0.036 0.036 0 0.036-0.036 0.071-0.036 0 0 0.036-0.036 0.036-0.036 0-0.036 0.036-0.036 0.036-0.071s0-0.036 0.036-0.071c0 0 0-0.036 0-0.036l0.569-3.52c0.071-0.213-0.107-0.427-0.284-0.462zM23.716 9.067h-3.911c-0.213 0-0.391 0.178-0.391 0.391s0.178 0.391 0.391 0.391h3.911c0.462 0 0.924 0.249 1.138 0.676 0.249 0.427 0.249 0.924 0 1.316-1.529 2.773-2.524 4.516-3.164 5.653 0.107-0.96-0.178-1.92-0.818-2.667-0.676-0.782-1.636-1.244-2.702-1.244h-0.462v-3.733h0.32c0.213 0 0.391-0.178 0.391-0.391v-2.596c0-0.213-0.178-0.391-0.391-0.391h-4.053c-0.213 0-0.391 0.178-0.391 0.391v2.596c0 0.213 0.178 0.391 0.391 0.391h0.32v3.733h-0.462c-1.031 0-2.027 0.462-2.702 1.244-0.64 0.747-0.924 1.707-0.818 2.667l-3.164-5.653c-0.249-0.427-0.213-0.924 0-1.316 0.249-0.427 0.676-0.676 1.138-0.676h3.911c0.213 0 0.391-0.178 0.391-0.391s-0.178-0.391-0.391-0.391h-3.911c-0.747 0-1.422 0.391-1.813 1.031s-0.391 1.422 0 2.098l4.196 7.538c0 0 0 0 0 0s0 0 0 0c0.036 0.036 0.036 0.071 0.071 0.071 0 0 0.036 0 0.036 0.036 0.036 0 0.036 0.036 0.071 0.036 0 0 0.036 0 0.036 0 0.036 0 0.071 0.036 0.107 0.036 0 0 0 0 0 0 0.036 0 0.036 0 0.071 0 0 0 0 0 0 0 0.036 0 0.071-0.036 0.107-0.036 0 0 0 0 0 0 0.036 0 0.036-0.036 0.071-0.071 0 0 0.036-0.036 0.036-0.036 0-0.036 0.036-0.036 0.036-0.071s0.036-0.036 0.036-0.071c0-0.036 0-0.036 0-0.071s0-0.071 0-0.107c0 0 0 0 0 0l-0.32-1.956c-0.142-0.782 0.107-1.6 0.64-2.204s1.28-0.96 2.098-0.96h0.853c0.213 0 0.391-0.178 0.391-0.391v-4.48c0-0.213-0.178-0.391-0.391-0.391h-0.32v-1.813h3.307v1.813h-0.32c-0.213 0-0.391 0.178-0.391 0.391v4.516c0 0.213 0.178 0.391 0.391 0.391h0.853c0.818 0 1.564 0.356 2.098 0.96s0.747 1.422 0.64 2.204l-0.32 1.956c0 0.036 0 0.071 0 0.107 0.036 0.178 0.178 0.32 0.356 0.32 0 0 0.036 0 0.036 0 0.142 0 0.284-0.071 0.356-0.213 0.142-0.249 4.231-7.502 4.231-7.502 0.356-0.676 0.356-1.458 0-2.098-0.391-0.64-1.067-1.031-1.813-1.031zM16 0c-8.853 0-16 7.182-16 16s7.147 16 16 16c8.818 0 16-7.182 16-16s-7.182-16-16-16zM16 31.040c-8.284 0-15.040-6.756-15.040-15.040s6.756-15.040 15.040-15.040c8.284 0 15.040 6.756 15.040 15.040s-6.756 15.040-15.040 15.040z"></path>
</svg>
