<svg height="32" viewBox="0 0 32 32" width="32" xmlns="http://www.w3.org/2000/svg"><path d="m29.12 6.773c-.64-.907-2.24 0-1.493.907 3.2 4.16 3.52 10.24 1.173 14.933-2.507 4.96-8.107 7.52-13.6 7.307-5.6-.213-10.613-3.627-12.48-8.907-1.867-5.227-.747-11.04 3.307-14.933 2.4-2.293 5.76-3.573 9.067-3.893 1.813-.16 3.52 0 5.28.48s3.36 1.387 5.12 1.867c.213.053.427-.16.267-.373-1.813-2.88-6.027-3.84-9.227-3.893-3.307-.053-6.88.907-9.653 2.773-5.333 3.52-7.733 9.867-6.613 16 1.173 6.187 5.92 11.2 12.16 12.373 5.973 1.173 12.747-.853 16.48-5.76 3.947-5.28 4.213-13.493.213-18.88zm-6.187 6.614c-.747-2.08-2.667-3.627-4.373-4.213-2.72-.96-5.973-.053-8 2.027-2.293 2.4-2.72 6.4-.8 9.12 1.813 2.56 5.333 3.573 8.373 2.613 3.413-1.067 5.867-4.48 5.227-8.053-.053-.213-.267-1.067-.427-1.493zm-6.72 8.96c-3.84.16-7.2-2.827-6.667-6.773.48-3.52 3.733-6.133 7.36-5.76 1.28.16 2.507.693 3.413 1.493.96.853 1.6 1.813 1.973 2.987.107.32.16.693.16.8.533 4-2.56 7.04-6.24 7.253zm10.88-3.467c.053 0 .16.053.213.053-.107-.053-.16-.053-.213-.053zm.214 0c2.507.107 3.573-3.36 1.973-5.067-.693-.693-1.493-.693-2.4-.693-.32 0-.8 0-1.227.053-.213-1.387-1.173-2.773-1.973-3.787-1.12-1.333-2.667-2.347-4.32-2.88-3.787-1.227-8.213.053-10.933 2.933-3.093 3.253-3.627 8.587-1.067 12.32 2.453 3.573 7.307 4.96 11.36 3.733 3.253-.96 5.92-3.52 6.987-6.613h1.6zm-8.214 4.747c-3.2 1.28-7.36.533-9.707-2.133-2.56-2.933-2.507-7.627.053-10.56 2.133-2.453 5.653-3.68 8.853-2.827 1.493.373 2.827 1.173 3.84 2.24.64.64 1.067 1.387 1.493 2.133.48.853.64 2.08.693 2.347.693 4.053-1.76 7.413-5.227 8.8zm7.04-6.667c.053-.587.053-1.173.053-1.707.427-.053.853-.053 1.12-.053.16 0 .373-.053.48.053.213.16.267.587.267.8 0 .587-.213.96-.8.907-.373.053-.747 0-1.12 0zm-6.72-4.48c-.48-.053-.907.267-.747.747.16.587.693 1.013.853 1.6.427 1.28-.267 2.56-1.067 3.467-.8.8.373 2.027 1.28 1.28 1.28-1.067 1.973-3.04 1.6-4.64-.267-.907-.907-2.24-1.92-2.453zm-2.666 6.56c-.533 0-1.013.427-1.013 1.013 0 .533.427 1.013 1.013 1.013.533 0 1.013-.427 1.013-1.013s-.48-1.013-1.013-1.013zm10.24-12.693c.373 0 .747-.32.747-.693s-.32-.693-.747-.693c-.373 0-.747.32-.747.693.053.373.373.693.747.693z"/></svg>