<!-- Generated by IcoMoon.io -->
<svg version="1.1" xmlns="http://www.w3.org/2000/svg" width="31" height="32" viewBox="0 0 31 32">
<title>tea_cup</title>
<path d="M28.3 29.25c0 0.75-0.3 1.45-0.8 1.95s-1.2 0.85-1.95 0.85h-22.75c-0.75 0-1.45-0.3-1.95-0.85l-0.050-0.050c-0.45-0.5-0.8-1.2-0.8-1.9 0-0.35 0.25-0.6 0.6-0.6h7.55c-0.7-0.4-1.35-0.9-1.9-1.5-1.65-1.65-2.7-3.95-2.7-6.45v-8.55c0-0.35 0.25-0.6 0.6-0.6h3.55c0.35 0 0.6 0.25 0.6 0.6s-0.25 0.6-0.6 0.6h-2.95v7.95c0 2.2 0.9 4.15 2.3 5.6 1.45 1.4 3.4 2.35 5.6 2.35h2.95c2.15 0 4.15-0.9 5.6-2.35s2.3-3.45 2.3-5.6v-5.75h-5.8c-0.35 0-0.6-0.25-0.6-0.6s0.25-0.6 0.6-0.6h5.8v-1h-11.9v1.55l2.7 1.65c0.2 0.1 0.3 0.3 0.3 0.5v7.050c0 0.35-0.25 0.6-0.6 0.6h-5.95c-0.35 0-0.6-0.25-0.6-0.6v-7.050c0-0.25 0.15-0.45 0.35-0.55l2.65-1.6v-2.15c0-0.35 0.25-0.6 0.6-0.6h13.15c0.35 0 0.6 0.25 0.6 0.6v0.85h0.1c0.3-0.050 0.6-0.050 0.85-0.050 0.3 0 0.6 0 0.9 0.050s0.6 0.15 0.9 0.25c0.3 0.1 0.45 0.45 0.4 0.75-0.1 0.35-0.45 0.45-0.8 0.35-0.2-0.050-0.45-0.15-0.7-0.15-0.25-0.050-0.45-0.050-0.7-0.050s-0.45 0-0.7 0.050v0.050c-0.1 0-0.15 0-0.25 0.050v1.15c0.050 0 0.1 0 0.15-0.050 0.25-0.1 0.55-0.1 0.85-0.1 0.8 0 1.6 0.35 2.15 0.9l0.050 0.050c0.5 0.55 0.85 1.3 0.85 2.1 0 0.85-0.3 1.6-0.9 2.15v0c-0.55 0.55-1.3 0.9-2.1 0.9-0.3 0-0.6-0.050-0.9-0.15h-0.050c0 0.35-0.050 0.75-0.1 1.1 0.1 0.050 0.2 0.050 0.3 0.050 0.25 0.050 0.55 0.1 0.8 0.1 1.15 0 2.15-0.45 2.9-1.2s1.2-1.8 1.2-2.9c0-0.45-0.050-0.9-0.2-1.35-0.15-0.4-0.35-0.85-0.65-1.2-0.2-0.25-0.15-0.65 0.1-0.85 0.3-0.2 0.65-0.15 0.85 0.1 0.35 0.45 0.6 1 0.8 1.55s0.3 1.15 0.3 1.7c0 1.45-0.6 2.8-1.55 3.75-0.95 1-2.3 1.55-3.75 1.55-0.35 0-0.7-0.050-1.050-0.1-0.1-0.050-0.25-0.050-0.35-0.1-0.45 1.45-1.25 2.7-2.25 3.75-0.6 0.55-1.2 1.050-1.95 1.5h7.55c0.15-0.1 0.45 0.2 0.45 0.55zM18 4.2v0c0.25-0.25 0.6-0.25 0.85 0s0.25 0.6 0 0.85c-0.050 0.050-0.15 0.15-0.2 0.2-0.1 0.050-0.2 0.15-0.25 0.2-0.3 0.2-0.5 0.45-0.65 0.75s-0.25 0.6-0.25 0.95c0 0.35-0.25 0.6-0.6 0.6-0.3 0-0.6-0.25-0.6-0.6 0-0.55 0.15-1.050 0.4-1.5s0.6-0.9 1.050-1.15v0c0.050-0.050 0.1-0.1 0.15-0.1 0-0.1 0.050-0.15 0.1-0.2zM19.75 2.6v0c0 0.35-0.25 0.6-0.6 0.6-0.3 0.050-0.6-0.25-0.6-0.6 0-0.3-0.1-0.6-0.25-0.9-0.15-0.25-0.35-0.5-0.65-0.7-0.25-0.2-0.35-0.55-0.15-0.85 0.2-0.25 0.55-0.35 0.8-0.15 0.45 0.25 0.75 0.65 1 1.050 0.3 0.55 0.45 1.050 0.45 1.55zM15.9 2.75v0c0 0.55-0.15 1.050-0.4 1.55-0.25 0.45-0.6 0.85-1.050 1.15-0.3 0.2-0.5 0.45-0.65 0.75s-0.25 0.6-0.25 0.95c0 0.35 0.1 0.7 0.25 0.95s0.4 0.55 0.65 0.7c0.3 0.2 0.35 0.55 0.2 0.85-0.2 0.25-0.55 0.35-0.85 0.2-0.45-0.3-0.8-0.7-1.050-1.15s-0.4-1-0.4-1.55c0-0.55 0.15-1.050 0.4-1.5s0.6-0.9 1.050-1.15c0.3-0.2 0.5-0.45 0.65-0.7 0.15-0.3 0.25-0.6 0.25-0.95s-0.050-0.75-0.2-1.050c-0.15-0.3-0.35-0.55-0.65-0.7-0.25-0.2-0.35-0.55-0.15-0.85 0.15-0.25 0.5-0.35 0.8-0.15 0.45 0.3 0.8 0.7 1.050 1.15s0.35 0.95 0.35 1.5zM10.85 2.75v0c0-0.35 0.25-0.6 0.6-0.6 0.3 0 0.6 0.25 0.6 0.6 0 0.55-0.15 1.050-0.4 1.55-0.25 0.45-0.6 0.85-1.050 1.15-0.3 0.2-0.5 0.45-0.65 0.75s-0.25 0.6-0.25 0.95c0 0.35 0.1 0.7 0.25 0.95s0.4 0.55 0.65 0.7c0.3 0.2 0.35 0.55 0.2 0.85-0.2 0.25-0.55 0.35-0.85 0.2-0.45-0.3-0.8-0.7-1.050-1.15s-0.4-1-0.4-1.55c0-0.55 0.15-1.050 0.4-1.5s0.6-0.9 1.050-1.15c0.3-0.2 0.5-0.45 0.65-0.7 0.2-0.35 0.25-0.7 0.25-1.050zM11.050 0.45v0c0.25 0.25 0.25 0.6 0 0.85-0.2 0.25-0.6 0.25-0.85 0.050-0.050-0.050-0.1-0.1-0.15-0.1-0.050-0.050-0.1-0.050-0.15-0.1-0.25-0.2-0.35-0.55-0.2-0.85 0.2-0.25 0.55-0.35 0.85-0.15 0.1 0.050 0.15 0.1 0.2 0.15 0.15 0 0.25 0.050 0.3 0.15zM12.35 18.8v0c-0.3 0-0.6-0.25-0.6-0.6s0.25-0.6 0.6-0.6v0c0.35 0 0.6 0.25 0.6 0.6 0 0.3-0.25 0.6-0.6 0.6v0zM8.65 17.55v0h2.1c0.35 0 0.6 0.25 0.6 0.6s-0.25 0.6-0.6 0.6h-2.1v4.15h4.75v-6.15l-2.4-1.45-2.35 1.45v0.8zM24.7 16.7v0 3.1c0.15 0.1 0.25 0.15 0.4 0.2 0.2 0.050 0.35 0.050 0.55 0.050 0.5 0 0.95-0.2 1.3-0.55 0.3-0.35 0.55-0.8 0.55-1.25 0-0.5-0.2-0.95-0.5-1.25v0c-0.3-0.35-0.8-0.55-1.3-0.55-0.2 0-0.35 0.050-0.5 0.1-0.15 0-0.35 0.050-0.5 0.15zM26.65 30.35v0c0.15-0.15 0.25-0.35 0.35-0.5h-25.65c0.050 0.15 0.15 0.3 0.3 0.45l0.050 0.050c0.25 0.25 0.65 0.45 1.1 0.45h22.7c0.45 0 0.85-0.2 1.15-0.45z"></path>
</svg>
