<!-- Generated by IcoMoon.io -->
<svg version="1.1" xmlns="http://www.w3.org/2000/svg" width="50" height="32" viewBox="0 0 50 32">
<title>tea</title>
<path d="M48.103 3.097c-5.987-0.619-12.903-1.032-19.406 1.961-3.2 1.548-5.781 4.542-6.916 8.052-1.135 3.613-0.723 7.432 1.135 10.735 0 0 0 0 0 0-1.755 3.51-2.477 6.4-2.684 7.019-0.103 0.516 0.206 0.929 0.619 1.032 0.103 0 0.103 0 0.206 0 0.413 0 0.723-0.31 0.826-0.619 0.206-0.929 1.755-6.813 6.090-12.49 0.103 0 0.206 0 0.206-0.103 3.716-1.548 7.948-0.516 7.948-0.516 0.516 0.103 0.929-0.206 1.032-0.619 0.103-0.516-0.206-0.929-0.619-1.032-0.206 0-3.303-0.723-6.71-0.103 2.374-2.581 5.368-5.058 9.187-6.813 0.413-0.206 0.619-0.723 0.413-1.135s-0.723-0.619-1.135-0.413c-2.374 1.135-4.542 2.477-6.4 4.026l0.619-2.271c0.103-0.413-0.103-0.929-0.619-1.032-0.413-0.103-0.929 0.103-1.032 0.619l-0.929 4.542c0 0.103 0 0.206 0 0.31-2.477 2.477-4.439 5.265-5.781 7.742-1.239-2.684-1.445-5.677-0.516-8.361 1.032-3.097 3.2-5.677 5.987-7.019 5.161-2.374 10.529-2.581 17.032-1.961-0.619 1.032-1.342 2.271-1.755 2.994-1.548 2.89-2.271 5.987-2.787 8.671-0.619 3.097-2.374 5.781-4.748 7.329-2.581 1.652-5.884 2.065-9.6 1.239-0.516-0.103-0.929 0.206-1.032 0.619-0.103 0.516 0.206 0.929 0.619 1.032 1.342 0.31 2.684 0.413 3.923 0.413 2.684 0 5.058-0.619 7.123-1.961 2.787-1.858 4.748-4.852 5.471-8.465 0.516-2.581 1.239-5.574 2.684-8.258 0.516-1.032 1.652-2.787 2.477-4.026l0.516-1.032-1.445-0.103zM20.645 18.168c-0.516-1.342-1.032-2.581-1.652-3.716 1.135-2.271 1.342-4.748 0.619-7.123-0.826-2.477-2.581-4.542-4.852-5.574-4.439-2.065-9.187-1.858-13.316-1.342h-1.445l0.723 1.135c0.516 0.826 1.342 2.065 1.652 2.787 0.929 1.755 1.445 3.716 1.755 5.471 0.723 3.819 4.542 7.432 9.6 7.432 0.516 0 1.032 0 1.652-0.103 0.516-0.103 0.826-0.516 0.723-1.032s-0.516-0.826-1.032-0.723c-4.645 0.723-8.568-2.477-9.187-5.884-0.31-1.858-0.826-4.026-1.961-5.987-0.206-0.413-0.619-1.032-0.929-1.652 4.129-0.31 7.639-0.206 10.942 1.342 1.755 0.826 3.303 2.581 3.923 4.542 0.413 1.135 0.619 2.89 0 4.748-1.755-2.787-3.923-5.058-6.606-7.019-0.413-0.206-0.929-0.103-1.239 0.31-0.31 0.31-0.206 0.929 0.206 1.135 4.026 2.89 6.916 6.916 8.774 11.768 0.103 0.31 0.413 0.516 0.826 0.516 0.103 0 0.206 0 0.31-0.103 0.413 0 0.619-0.516 0.516-0.929z"></path>
</svg>
