<!-- Generated by IcoMoon.io -->
<svg version="1.1" xmlns="http://www.w3.org/2000/svg" width="23" height="32" viewBox="0 0 23 32">
<title>touch</title>
<path d="M3.396 8.486c0.509-0.088 0.851-0.573 0.763-1.084-0.499-2.893 1.729-5.528 4.641-5.528 2.903 0 5.134 2.623 4.643 5.517-0.086 0.51 0.256 0.995 0.765 1.082s0.993-0.257 1.080-0.767c0.684-4.028-2.42-7.707-6.488-7.707-4.064 0-7.182 3.678-6.485 7.723 0.089 0.511 0.574 0.852 1.082 0.764zM18.756 15.040c-0.701-1.38-2.372-1.93-3.743-1.25-0.637-1.253-2.095-1.846-3.42-1.385v-5.741c0-1.53-1.228-2.809-2.737-2.851-1.581-0.045-2.892 1.224-2.892 2.812v14.443l-1.1-1.153c-1.055-1.107-2.821-1.185-3.939-0.173-1.179 1.068-1.237 2.884-0.152 4.027l6.317 6.751c0.881 0.941 2.125 1.481 3.413 1.481h7.62c2.58 0 4.679-2.103 4.679-4.687v-9.75c0.001-2.077-2.186-3.445-4.047-2.523zM20.932 27.313c0 1.551-1.26 2.812-2.807 2.812h-7.62c-0.773 0-1.519-0.324-2.048-0.889-0.022-0.024-6.304-6.736-6.326-6.76-0.362-0.38-0.345-0.986 0.050-1.344 0.372-0.337 0.969-0.302 1.331 0.077l2.712 2.845c0.581 0.611 1.612 0.196 1.612-0.647v-16.782c0-0.527 0.436-0.952 0.969-0.937 0.505 0.014 0.916 0.452 0.916 0.976 0 10.316-0.018 5.64-0.018 11.212 0 0.519 0.422 0.942 0.945 0.937 0.522 0.005 0.945-0.418 0.945-0.937v-2.991c0.084-0.432 0.463-0.759 0.918-0.759 0.516 0 0.936 0.42 0.936 0.938v2.812c0 0.518 0.419 0.938 0.936 0.938s0.936-0.42 0.936-0.938v-1.563c0-0.517 0.42-0.938 0.936-0.938s0.936 0.42 0.936 0.938v1.563c0 0.518 0.419 0.938 0.936 0.938s0.936-0.42 0.936-0.938v-0.313c0-0.517 0.42-0.938 0.936-0.938s0.936 0.42 0.936 0.938v9.749z"></path>
</svg>
