<svg height="32" viewBox="0 0 32 32" width="32" xmlns="http://www.w3.org/2000/svg"><path d="m16.067 0c-.2 0-.467.133-.533.333l-1.067 2.667-2.867.2c-.333 0-.533.267-.533.6 0 .133.067.267.2.4l2.2 1.8-.733 2.733c-.067.333.133.6.4.667.133.067.333 0 .467-.067l2.4-1.533 2.4 1.533c.267.2.6.067.8-.2.067-.133.133-.267.067-.467l-.667-2.8 2.2-1.8c.267-.2.267-.533.067-.8-.067.067-.2-.067-.333-.067l-2.867-.2-1.067-2.667c-.067-.2-.267-.333-.533-.333zm0 2.133.667 1.667c.067.2.267.333.467.333l1.8.133-1.4 1.133c-.2.133-.267.333-.2.6l.4 1.733-1.533-.933c-.2-.133-.4-.133-.6 0l-1.533.933.533-1.8c.067-.2 0-.467-.2-.6l-1.333-1.133 1.8-.133c.2 0 .4-.133.467-.333l.667-1.6zm-11.067 5.067c-.067 0-.067 0 0 0-.267 0-.467.133-.533.333l-1.067 2.667-2.867.2c-.333 0-.533.267-.533.6 0 .133.067.333.2.4l2.2 1.867-.733 2.733c-.067.333.133.6.4.667.133.067.333 0 .467-.067l2.4-1.533 2.4 1.6c.267.2.6.067.8-.2.067-.133.133-.267.067-.467l-.667-2.8 2.2-1.8c.267-.2.267-.533.067-.8-.067-.133-.267-.2-.4-.2l-2.867-.2-1.067-2.667c-.067-.2-.267-.333-.467-.333zm22 0c-.267 0-.467.133-.533.333l-1.067 2.667-2.867.2c-.333 0-.533.267-.533.6 0 .133.067.333.2.4l2.2 1.867-.733 2.733c-.067.333.133.6.4.667.133.067.333 0 .467-.067l2.4-1.533 2.4 1.533c.267.2.6.067.8-.2.067-.133.133-.267.067-.467l-.667-2.8 2.2-1.8c.267-.2.267-.533.067-.8-.067-.133-.267-.2-.4-.2l-2.867-.2-1.067-2.667c0-.133-.2-.267-.467-.267zm-22 2.133.667 1.667c.067.2.2.333.467.333l1.8.133-1.4 1.133c-.2.133-.267.333-.2.6l.4 1.733-1.467-.933c-.2-.133-.4-.133-.6 0l-1.533.933.467-1.733c.067-.2 0-.467-.2-.6l-1.333-1.133 1.733-.133c.2 0 .4-.133.467-.333l.733-1.667zm22 0 .667 1.667c.067.2.267.333.467.333l1.8.133-1.4 1.133c-.2.133-.267.333-.2.6l.4 1.733-1.467-.933c-.2-.133-.4-.133-.6 0l-1.533.933.467-1.733c.067-.2 0-.467-.2-.6l-1.333-1.133 1.8-.133c.2 0 .4-.133.467-.333l.667-1.667zm-10.867 4.2c-2.2 0-4 1.8-4 4s1.8 4 4 4 4-1.8 4-4-1.8-4-4-4zm0 1.134c1.6 0 2.867 1.267 2.867 2.867s-1.267 2.867-2.867 2.867-2.867-1.267-2.867-2.867 1.267-2.867 2.867-2.867zm0 8.866c-1.467 0-2.733.4-3.733 1-1 .667-1.667 1.6-1.667 2.733v4.133c0 .333.267.6.6.6h9.6c.333 0 .6-.267.6-.6v-4.133c0-1.133-.667-2.067-1.667-2.733s-2.333-1-3.733-1zm0 1.134c1.2 0 2.333.333 3.067.867s1.133 1.133 1.133 1.8v3.6h-8.467v-3.6c0-.667.4-1.267 1.133-1.8s1.867-.867 3.133-.867z"/></svg>