<svg height="32" viewBox="0 0 32 32" width="32" xmlns="http://www.w3.org/2000/svg"><path d="m24.697 5.087c-.492-.574-1.395-.164-1.395.656 0 .246.164.492.41.656 3.61 2.626 5.826 7.138 5.251 12.062-.656 6.072-5.497 10.913-11.487 11.651-7.877.903-14.523-5.333-14.523-13.128 0-4.431 2.215-8.287 5.415-10.667.246-.082.41-.328.41-.574 0-.738-.738-1.149-1.395-.656-4.103 2.954-6.564 8.041-6.072 13.456.656 6.974 6.154 12.554 12.964 13.374 8.862 1.067 16.492-6.072 16.492-14.769 0-4.923-2.462-9.354-6.072-12.062zm-8.615 7.467c.492 0 .903-.41 1.067-.903v-10.667c0-.656-.492-1.067-1.067-1.067-.656 0-1.067.492-1.067 1.067v10.503c.082.738.574 1.067 1.067 1.067z"/></svg>