<svg height="32" viewBox="0 0 32 32" width="32" xmlns="http://www.w3.org/2000/svg"><path d="m31.855 6.618-6.473-6.473c-.145-.145-.436-.145-.582 0l-2.036 2.036-1.236-1.236c-.145-.145-.436-.145-.582 0l-2.982 2.982c-.073.073-.145.145-.145.291 0 .073.073.218.145.291l3.127 3.127-5.091 5.091-5.018-5.018 3.127-3.127c.073-.073.145-.145.145-.291 0-.073-.073-.218-.145-.291l-2.982-2.982c-.145-.145-.436-.145-.582 0l-1.309 1.164-2.036-2.036c-.145-.145-.436-.145-.582 0l-6.473 6.473c-.145.145-.145.436 0 .582l2.036 2.036-1.236 1.236c-.145.145-.145.436 0 .582l2.982 2.982c.073.073.145.145.291.145s.218-.073.291-.145l3.127-3.127 5.018 5.018-5.018 5.018-3.055-3.055c-.145-.145-.436-.145-.582 0l-2.982 2.982c-.145.145-.145.436 0 .582l1.164 1.309-2.109 2.109c-.145.145-.145.436 0 .582l6.473 6.473c.145 0 .218.073.364.073.073 0 .218-.073.291-.145l2.109-2.109 1.236 1.236c.073.073.145.145.291.145.073 0 .218-.073.291-.145l2.982-2.982c.073-.073.145-.145.145-.291 0-.073-.073-.218-.145-.291l-3.055-3.055 5.018-5.018 5.018 5.018-3.127 3.127c-.073.073-.145.145-.145.291 0 .073.073.218.145.291l2.982 2.982c.073.073.145.145.291.145.073 0 .218-.073.291-.145l1.236-1.236 2.109 2.109c.073.073.145.145.291.145.073 0 .218-.073.291-.145l6.473-6.473c.145-.145.145-.436 0-.582l-2.109-2.109 1.236-1.236c.145-.145.145-.436 0-.582l-2.982-2.982c-.073-.073-.145-.145-.291-.145-.073 0-.218.073-.291.145l-3.127 3.055-5.091-5.018 5.018-5.018 3.127 3.127c.073.073.145.145.291.145.073 0 .218-.073.291-.145l2.982-2.982c.145-.145.145-.436 0-.582l-1.164-1.309 2.109-2.109c.145-.073.145-.364-.073-.509zm-30.91.291 5.964-5.964 1.818 1.818-5.964 5.964zm3.346 6.327-2.473-2.473 8.945-8.945 2.473 2.473zm2.618 17.819-5.964-5.964 1.818-1.818 5.964 5.964zm3.855-.873-8.945-8.945 2.473-2.473 8.945 8.945zm-.364-6.4-2.182-2.182 5.018-5.018 2.182 2.182zm20.655 1.309-5.964 5.964-1.818-1.818 5.964-5.964zm-3.346-6.327 2.473 2.473-8.945 8.945-2.473-2.473zm-6.109 5.018-13.382-13.382 2.182-2.182 13.382 13.382zm-2.836-8.364-2.182-2.182 5.018-5.018 2.182 2.182zm8.945-2.182-8.945-8.945 2.473-2.473 8.945 8.945zm1.527-4.509-5.964-5.964 1.818-1.818 5.964 5.964z"/></svg>