<svg height="32" viewBox="0 0 32 32" width="32" xmlns="http://www.w3.org/2000/svg"><path d="m16 10.667c2.4 0 4.333-1.933 4.333-4.333s-2-4.333-4.333-4.333c-2.4 0-4.333 1.933-4.333 4.333-.067 2.4 1.867 4.4 4.333 4.333zm-.067-7.534c1.8 0 3.333 1.467 3.333 3.267s-1.467 3.267-3.333 3.267c-1.8 0-3.333-1.467-3.333-3.267s1.533-3.267 3.333-3.267zm4.067 8.334-8.067.067c-.933 0-1.667.733-1.667 1.667l.067 8.267c0 .2.133.4.333.467l1.667.733.067 6.8c0 .333.267.533.533.533h6.4c.333 0 .533-.267.533-.533l-.067-6.8 1.667-.733c.2-.133.333-.267.333-.467l-.067-8.267c-.067-1.067-.8-1.733-1.733-1.733zm-1 10.266c-.2.133-.333.267-.333.467l.067 6.6h-5.4v-6.533c0-.2-.133-.4-.333-.467l-1.667-.733-.067-7.933c0-.333.267-.6.6-.6l8.133-.067c.333 0 .6.267.6.6l.067 7.933zm12.933-2c0 .2-.133.4-.333.467l-1.467.667v6.267c0 .333-.2.533-.533.533h-5.933c-.333 0-.533-.2-.533-.533v-6.267l-.467-.2v-1.133l1.2.6c.2.133.333.267.333.467v6.067h4.867v-6.067c0-.2.133-.4.333-.467l1.467-.667v-7.333c0-.267-.2-.467-.467-.467l-7.467.067c-.2 0-.4.133-.4.4-.133-.4-.4-.667-.667-.933.267-.267.667-.467 1.133-.467l7.467-.067c.867 0 1.533.667 1.533 1.533l-.067 7.533zm-5.266-9.666c2.267 0 4.067-1.8 4.067-4s-1.8-4-4.067-4-4.067 1.8-4.067 4 1.867 4 4.067 4zm-.067-7c1.667 0 3 1.333 3 2.933 0 1.667-1.333 2.933-3 2.933s-3-1.333-3-2.933c.067-1.6 1.4-2.933 3-2.933zm-21.4 7c2.267 0 4.067-1.8 4.067-4s-1.8-4-4.067-4-4.067 1.8-4.067 4c.067 2.2 1.867 4 4.067 4zm0-6.934c1.667 0 3 1.333 3 2.933 0 1.667-1.333 2.933-3 2.933s-3-1.333-3-2.933c.067-1.6 1.4-2.933 3-2.933zm3.733 7.6c.4 0 .8.133 1.133.467-.267.267-.467.6-.667.933-.067-.2-.2-.333-.467-.333l-7.467.067c-.267 0-.467.2-.467.467l.067 7.133 1.467.667c.2.133.333.267.333.467v6.067h4.867v-6c0-.2.133-.4.333-.467l1.2-.6v1.133l-.467.2v6.267c0 .333-.2.533-.533.533h-5.933c-.333 0-.533-.2-.533-.533v-6.267l-1.467-.667c-.2-.067-.333-.2-.333-.4v-7.6c0-.867.667-1.533 1.533-1.533h7.4z"/></svg>