<!-- Generated by IcoMoon.io -->
<svg version="1.1" xmlns="http://www.w3.org/2000/svg" width="29" height="32" viewBox="0 0 29 32">
<title>vitamins_3</title>
<path d="M27.334 13.301c-1.195-2.421-3.153-4.104-5.512-4.739-0.063-0.017-0.126-0.033-0.189-0.047 0.424-0.272 0.822-0.592 1.184-0.956 1.783-1.792 2.487-4.427 1.835-6.877-0.058-0.216-0.225-0.385-0.441-0.443-2.44-0.655-5.063 0.052-6.846 1.844-0.679 0.682-1.201 1.486-1.551 2.356-0.306-0.961-0.692-1.899-1.16-2.81-0.254-0.494-0.714-0.825-1.262-0.908-0.541-0.082-1.093 0.105-1.476 0.497l-1.297 1.332c-0.619 0.635-0.65 1.655-0.070 2.322 1.060 1.22 1.709 2.737 1.868 4.337-0.477-0.243-0.969-0.44-1.469-0.587-1.405-0.413-2.882-0.434-4.274-0.059-1.034 0.278-1.996 0.761-2.861 1.433-0.272 0.211-0.321 0.604-0.111 0.877 0.21 0.274 0.601 0.323 0.873 0.112 0.734-0.571 1.548-0.979 2.421-1.214 2.363-0.636 4.85 0.075 6.824 1.952 0.239 0.229 0.616 0.229 0.856 0 1.974-1.877 4.461-2.588 6.823-1.952 4.188 1.128 6.635 6.155 5.456 11.206-0.809 3.467-3.36 7.082-6.203 8.791-1.483 0.892-2.934 1.184-4.194 0.845-0.329-0.088-0.653-0.222-0.962-0.397-0.832-0.471-1.866-0.471-2.697 0-0.309 0.174-0.633 0.308-0.962 0.397-1.261 0.34-2.711 0.047-4.194-0.845-2.843-1.71-5.394-5.324-6.203-8.791-0.447-1.914-0.389-3.879 0.167-5.682 0.101-0.329-0.082-0.68-0.41-0.782s-0.677 0.082-0.779 0.412c-0.621 2.015-0.687 4.207-0.19 6.337 0.88 3.771 3.666 7.709 6.776 9.579 1.279 0.769 2.559 1.16 3.77 1.16 0.473 0 0.937-0.060 1.386-0.18 0.429-0.116 0.85-0.289 1.25-0.515 0.456-0.258 1.022-0.258 1.477 0 0.4 0.226 0.821 0.399 1.25 0.515 1.593 0.429 3.376 0.090 5.155-0.98 3.11-1.87 5.896-5.808 6.776-9.578 0.641-2.746 0.345-5.573-0.834-7.961zM14.249 10.43c-0.178-0.151-0.361-0.294-0.548-0.431 0-0.005 0.001-0.009 0.001-0.014 0-2.184-0.786-4.291-2.214-5.935-0.155-0.179-0.146-0.454 0.022-0.626l1.297-1.332c0.105-0.108 0.252-0.157 0.401-0.135 0.148 0.022 0.272 0.112 0.341 0.245 1.181 2.3 1.809 4.781 1.869 7.378-0.405 0.251-0.797 0.535-1.169 0.85zM17.428 8.381l2.054-2.063c0.243-0.244 0.243-0.64 0-0.884s-0.637-0.244-0.88 0l-2.054 2.063c-0.105-1.666 0.502-3.328 1.698-4.53 1.383-1.39 3.381-1.988 5.287-1.604 0.383 1.916-0.212 3.922-1.596 5.311-1.196 1.202-2.85 1.811-4.509 1.706zM2.303 13.187c0.163 0 0.324-0.066 0.44-0.183s0.183-0.278 0.183-0.442c0-0.165-0.067-0.325-0.183-0.441s-0.276-0.183-0.439-0.183-0.325 0.067-0.44 0.183c-0.115 0.116-0.183 0.277-0.183 0.441s0.067 0.326 0.183 0.442c0.115 0.117 0.276 0.183 0.44 0.183z"></path>
</svg>
