<svg height="32" viewBox="0 0 23 32" width="23" xmlns="http://www.w3.org/2000/svg"><path d="m7.3 13.45c-2.6 1.5-4.2 4.25-4.15 7.15 0 .15.05.3.15.4s.25.15.4.15c.3 0 .6-.25.6-.6 0-2.5 1.35-4.85 3.6-6.15.3-.15.35-.5.2-.8-.15-.25-.5-.35-.8-.15zm12.3-.9c-1.15-1.15-2.55-2-4.05-2.6.5-.25.95-.6 1.35-1 1.5-1.5 2.15-3.6 1.75-5.7-.05-.25-.2-.4-.45-.45-1.4-.3-2.8-.1-4.05.55-.45-1.3-1.3-2.45-2.5-3.25-.2-.15-.45-.15-.65 0-1.75 1.15-2.8 3.1-2.8 5.25 0 1.5.5 2.9 1.45 4-2.4.35-4.6 1.45-6.3 3.2-2.15 2.15-3.35 5-3.35 8.05s1.2 5.9 3.35 8.05c2.2 2.15 5.05 3.35 8.15 3.35 6.35 0 11.5-5.1 11.5-11.4 0-3.05-1.2-5.9-3.4-8.05zm-5.15-8.05c.95-.5 2.05-.75 3.15-.6.2 1.55-.35 3.15-1.45 4.25-.65.65-1.45 1.1-2.3 1.3.05 0-.45-.05-.75-.1.9-1.1 1.45-2.5 1.45-3.95-.05-.35-.1-.65-.1-.9zm-5.1.85c0-1.6.75-3.1 2-4.05 1.25.95 2 2.45 2 4.05 0 1.5-.65 2.9-1.8 3.85 0 0 0 0-.05 0-.1 0-.2 0-.35 0-1.1-.95-1.8-2.35-1.8-3.85zm2.15 25.5c-2.75 0-5.35-1.1-7.3-3-1.95-1.95-3.05-4.5-3.05-7.25s1.05-5.3 3-7.25 4.55-3 7.3-3 5.35 1.05 7.3 3 3.05 4.5 3.05 7.25c.05 5.65-4.6 10.25-10.3 10.25z"/></svg>