<!-- Generated by IcoMoon.io -->
<svg version="1.1" xmlns="http://www.w3.org/2000/svg" width="40" height="32" viewBox="0 0 40 32">
<title>voice_2</title>
<path d="M38.551 18.864h-1.131c-0.621 0-1.126-0.503-1.126-1.122v-2.47c0-2.318-1.892-4.203-4.219-4.203-2.325 0-4.219 1.885-4.219 4.203v12.526c0 1.039-0.848 1.884-1.891 1.884s-1.892-0.845-1.892-1.884v-23.594c0-2.318-1.892-4.203-4.217-4.203s-4.219 1.885-4.219 4.203v23.594c0 1.039-0.848 1.884-1.891 1.884s-1.891-0.845-1.891-1.884v-12.526c0-2.318-1.893-4.203-4.219-4.203s-4.219 1.885-4.219 4.203v2.47c0 0.619-0.505 1.122-1.126 1.122h-1.131c-0.643 0-1.164 0.52-1.164 1.159s0.521 1.159 1.164 1.159h1.131c1.026 0 1.949-0.449 2.581-1.159 0.542-0.608 0.872-1.407 0.872-2.281v-2.47c0-1.039 0.848-1.884 1.891-1.884s1.891 0.845 1.891 1.884v12.526c0 2.318 1.892 4.203 4.217 4.203s4.219-1.885 4.219-4.203v-23.594c0-1.039 0.848-1.884 1.891-1.884s1.891 0.845 1.891 1.884v23.594c0 2.318 1.893 4.203 4.219 4.203s4.217-1.886 4.217-4.203v-12.526c0-1.039 0.848-1.884 1.891-1.884s1.891 0.845 1.891 1.884v2.47c0 0.875 0.33 1.674 0.871 2.281 0.633 0.71 1.556 1.159 2.581 1.159h1.131c0.643 0 1.164-0.518 1.164-1.159 0.004-0.641-0.516-1.159-1.159-1.159v0z"></path>
</svg>
