<!-- Generated by IcoMoon.io -->
<svg version="1.1" xmlns="http://www.w3.org/2000/svg" width="26" height="32" viewBox="0 0 26 32">
<title>voice</title>
<path d="M19.204 20.759c-0.534 0-0.966 0.428-0.966 0.958 0 2.979-2.445 5.403-5.451 5.403s-5.451-2.424-5.451-5.403c0-0.529-0.433-0.958-0.966-0.958s-0.967 0.428-0.967 0.958c0 3.71 2.803 6.777 6.418 7.249v2.076c0 0.529 0.433 0.958 0.966 0.958s0.967-0.429 0.967-0.958v-2.076c3.615-0.472 6.418-3.539 6.418-7.249-0.002-0.53-0.435-0.958-0.968-0.958zM9.17 16.423v5.521c0 1.977 1.622 3.585 3.617 3.585s3.617-1.608 3.617-3.585v-5.521c0-1.977-1.622-3.585-3.617-3.585s-3.617 1.609-3.617 3.585zM14.47 16.423v5.522c0 0.92-0.756 1.668-1.684 1.668s-1.684-0.748-1.684-1.668v-5.522c0-0.92 0.756-1.668 1.684-1.668s1.684 0.748 1.684 1.668zM18.284 13.036c0.247 0 0.495-0.093 0.684-0.281 0.378-0.374 0.378-0.98 0-1.355-1.651-1.636-3.845-2.537-6.18-2.537s-4.53 0.901-6.18 2.537c-0.378 0.374-0.378 0.98 0 1.355s0.989 0.374 1.367 0c1.285-1.274 2.995-1.976 4.813-1.976s3.528 0.701 4.813 1.976c0.188 0.187 0.436 0.281 0.684 0.281zM3.35 8.173c-0.378 0.374-0.378 0.98 0 1.355s0.989 0.374 1.367 0c4.45-4.41 11.689-4.41 16.138 0 0.188 0.188 0.436 0.281 0.684 0.281s0.495-0.093 0.684-0.281c0.378-0.374 0.378-0.98 0-1.355-5.203-5.156-13.668-5.156-18.872 0zM25.29 5.133c-3.34-3.31-7.78-5.133-12.503-5.133s-9.164 1.823-12.503 5.133c-0.378 0.374-0.378 0.98 0 1.355s0.989 0.374 1.367 0c6.14-6.086 16.132-6.086 22.273 0 0.188 0.188 0.436 0.281 0.684 0.281s0.495-0.093 0.684-0.281c0.377-0.374 0.377-0.98-0.001-1.355z"></path>
</svg>
