<svg height="32" viewBox="0 0 32 32" width="32" xmlns="http://www.w3.org/2000/svg"><path d="m21.638 16.203c-.051 0-.051 0 0 0-1.676 0-2.997 1.321-2.997 2.997 0 1.625 1.371 2.946 2.997 2.946 1.676 0 2.997-1.321 2.997-2.946 0-1.676-1.371-2.997-2.997-2.997zm0 4.927c-1.117 0-1.981-.863-1.981-1.981 0-1.067.914-1.981 1.981-1.93 1.117 0 1.981.863 1.981 1.981 0 1.016-.914 1.93-1.981 1.93zm6.248-1.879c.508-.66.406-1.575-.254-2.083 0 0 0 0-.051-.051l-.406-.305c-.152-.102-.203-.254-.203-.457l.051-.508c.051-.406-.102-.813-.356-1.117s-.66-.457-1.067-.508l-.508-.051c-.152 0-.305-.102-.406-.254l-.254-.457c-.406-.711-1.321-1.016-2.032-.61h-.051l-.508.356c-.152.102-.356.102-.508 0l-.457-.254c-.711-.406-1.625-.152-2.032.559v.051l-.254.457c-.102.152-.254.254-.406.254h-.508c-.813.051-1.473.762-1.422 1.575v.051l.051.508c0 .152-.051.356-.203.457l-.406.305c-.66.457-.813 1.422-.356 2.083 0 0 0 0 .051.051l.305.406c.102.152.152.305.051.457l-.203.457c-.305.762.102 1.625.863 1.93h.051l.508.152c.152.051.305.203.305.356l.051.305-1.219 3.911c-.102.254.051.559.356.61.102.051.203.051.305 0l1.676-.508 1.016 1.371c.102.152.254.203.406.203h.102c.203-.051.356-.203.406-.356l.965-3.098c.203.051.406.051.61 0l1.016 3.098c.051.203.203.305.406.356h.102c.152 0 .305-.051.406-.203l1.016-1.371 1.676.508c.254.102.559-.051.66-.305.051-.102.051-.203 0-.305l-1.219-3.759.102-.457c.051-.152.152-.305.305-.356l.508-.152c.762-.254 1.219-1.117.914-1.879 0 0 0 0 0-.051l-.203-.457c-.051-.152-.051-.356.051-.457l.203-.457zm-8.229 8.178-.66-.863c-.152-.152-.356-.254-.559-.203l-1.067.356.66-2.133c.356.203.762.305 1.168.203l.508-.102c.152-.051.356 0 .457.152l.254.254-.762 2.337zm5.13-1.067c-.203-.051-.457 0-.559.203l-.66.863-.813-2.387.305-.305c.102-.102.305-.152.457-.152l.508.102c.356.102.762.051 1.117-.152l.711 2.133-1.067-.305zm2.286-7.772s0 .051 0 0l-.305.406c-.305.406-.406.965-.203 1.422l.203.457c.102.254 0 .508-.254.61l-.508.152c-.508.152-.863.61-.965 1.117l-.102.508c-.051.254-.305.457-.559.406l-.508-.102c-.508-.102-1.067.051-1.422.406l-.356.356c-.203.203-.508.203-.711 0l-.356-.356c-.305-.305-.66-.457-1.067-.457-.102 0-.254 0-.356.051l-.508.102c-.254.051-.508-.102-.61-.356l-.102-.508c-.102-.508-.508-.914-.965-1.117l-.508-.152c-.254-.102-.406-.356-.305-.61l.203-.457c.203-.508.102-1.016-.203-1.473l-.305-.406c-.152-.203-.102-.508.102-.66l.406-.305c.406-.305.66-.813.61-1.321l-.051-.508c-.051-.254.152-.508.457-.508h.051l.508-.051c.508-.051 1.016-.356 1.27-.813l.254-.457c.102-.254.406-.305.66-.203l.457.254c.457.254 1.016.254 1.473 0l.457-.254c.254-.152.559-.051.66.203l.254.457c.254.457.711.762 1.27.813l.508.051c.254 0 .457.254.457.508l-.051.508c-.051.508.203 1.016.61 1.321l.406.305c.102.152.152.457 0 .66zm-16.305-9.346c-.203-.203-.508-.203-.711 0l-1.473 1.473-.864-.813c-.203-.203-.508-.203-.711 0s-.203.508 0 .711l1.219 1.168c.203.203.508.203.711 0l1.829-1.829c.203-.203.203-.508 0-.711zm8.28 1.27c0-.254-.203-.508-.508-.508h-6.095c-.305 0-.508.203-.508.508 0 .254.203.508.508.508h6.095c.254 0 .508-.254.508-.508zm-3.81 4.978c0-.254-.203-.508-.508-.508h-2.286c-.305 0-.508.203-.508.508 0 .254.203.508.508.508h2.286c.254 0 .508-.203.508-.508zm-2.794 4.521c-.305 0-.508.203-.508.508 0 .254.203.508.508.508h1.524c.305 0 .508-.203.508-.508 0-.254-.203-.508-.508-.508zm-1.676-5.74c-.203-.203-.508-.203-.711 0l-1.473 1.473-.864-.813c-.203-.203-.508-.203-.711 0s-.203.508 0 .711l1.219 1.117c.203.203.508.203.711 0l1.829-1.829c.203-.203.203-.508 0-.66zm-.711 4.978-1.473 1.473-.864-.813c-.203-.203-.508-.203-.711 0s-.203.508 0 .711l1.219 1.168c.203.203.508.203.711 0l1.829-1.829c.152-.203.102-.559-.102-.711s-.457-.102-.61 0zm11.53 9.803c-.305 0-.508.203-.508.508 0 .813-.711 1.473-1.524 1.422h-13.206c-.813 0-1.524-.61-1.524-1.422v-27.124c0-.813.711-1.473 1.524-1.422h2.54v.559c0 .813.559 1.422 1.27 1.422h5.587c.711 0 1.27-.66 1.27-1.422v-.559h2.54c.813 0 1.524.61 1.524 1.422v9.295c0 .254.203.508.508.508s.508-.203.508-.508v-9.295c0-1.371-1.168-2.438-2.54-2.438h-13.206c-1.371 0-2.54 1.067-2.54 2.438v27.124c0 1.371 1.168 2.438 2.54 2.438h13.206c1.371 0 2.54-1.067 2.54-2.438 0-.254-.254-.508-.508-.508zm-11.682-28.038h6.095v.559c0 .254-.152.406-.254.406h-5.587c-.102 0-.254-.152-.254-.406z"/></svg>