<svg height="32" viewBox="0 0 32 32" width="32" xmlns="http://www.w3.org/2000/svg"><path d="m25.6 9.6 1.164-1.382c.218-.291.364-.655.291-1.018s-.218-.727-.509-.945l-.655-.509c-.291-.218-.655-.364-1.018-.364-.364.073-.655.218-.945.509l-1.091 1.382c-1.891-1.164-4.145-1.964-6.473-1.964v-1.236h1.309c.8 0 1.455-.655 1.455-1.455v-1.164c0-.8-.655-1.455-1.455-1.455h-3.418c-.8 0-1.455.655-1.455 1.455v1.091c0 .8.655 1.455 1.455 1.455h1.309v1.236c-2.4.073-4.582.8-6.473 1.964l-1.091-1.309c-.218-.291-.582-.509-.945-.509-.364-.073-.727.073-1.018.364l-.655.509c-.218.218-.436.582-.436.945-.073.364.073.727.291 1.018l1.164 1.382c-2.182 2.4-3.491 5.527-3.491 9.018 0 7.418 5.891 13.382 13.091 13.382s13.091-5.964 13.091-13.382c0-3.491-1.309-6.618-3.491-9.018zm-.945-3.2c.073-.145.218-.218.364-.218s.291.073.436.145l.655.509c.145.073.218.218.218.364s-.073.291-.145.436l-1.091 1.309c-.509-.436-.945-.873-1.527-1.309l1.091-1.236zm-10.328-3.2c-.364 0-.655-.291-.655-.655v-1.091c0-.364.291-.655.655-.655h3.418c.364 0 .655.291.655.655v1.091c0 .364-.291.655-.655.655zm-8.436 4.509c-.073-.145-.145-.218-.145-.436 0-.145.073-.291.218-.364l.655-.509c.145-.073.218-.145.436-.145.145 0 .291.073.364.218l1.091 1.309c-.509.364-1.018.8-1.527 1.309l-1.091-1.382zm10.109 23.491c-6.764 0-12.291-5.6-12.291-12.582 0-6.909 5.527-12.582 12.291-12.582s12.291 5.6 12.291 12.582-5.527 12.582-12.291 12.582zm0-23.709c-6.036 0-10.909 5.018-10.909 11.127 0 6.182 4.873 11.127 10.909 11.127s10.909-5.018 10.909-11.127-4.873-11.127-10.909-11.127zm0 21.527c-5.6 0-10.109-4.655-10.109-10.4 0-5.673 4.509-10.255 10.109-10.255s10.109 4.655 10.109 10.327c0 5.673-4.509 10.327-10.109 10.327zm.436-12.218v-6.618c0-.218-.145-.436-.436-.436-.218 0-.436.145-.436.436v6.618c-.873.218-1.455.945-1.455 1.891 0 1.018.8 1.891 1.891 1.891 1.018 0 1.891-.873 1.891-1.891 0-.945-.655-1.745-1.455-1.891zm-.436 2.909c-.582 0-1.018-.509-1.018-1.091s.509-1.091 1.018-1.091c.582 0 1.018.509 1.018 1.091s-.436 1.091-1.018 1.091z"/></svg>