<svg height="32" viewBox="0 0 27 32" width="27" xmlns="http://www.w3.org/2000/svg"><path d="m4.15 4.85c-.3 0-.5-.25-.5-.5v-2.4c0-1.1.85-1.95 1.9-1.95h3.1c1.05 0 1.9.85 1.9 1.95v2.4c0 .3-.25.5-.5.5zm.5-1h4.9v-1.9c0-.5-.4-.9-.9-.9h-3.1c-.5 0-.9.4-.9.9zm8.45 6.95c0-1.95-1.45-3.7-3.7-4.5-.15-.05-.3-.2-.35-.4-.05-.35-.05-.7-.05-1.05h-3.8c0 .35 0 .65-.05 1-.05.2-.15.35-.35.4-2.25.75-3.75 2.5-3.8 4.55 0 1 .25 1.7.9 2.45 0 0 .55.65.7.8.3.4.45.75.45 1.15 0 .55-.25.95-.7 1.35-.1.1-.4.35-.45.4-.65.55-.9 1-.9 1.8v9.95c0 1.25 1 2.25 2.2 2.25h7.75c1.2 0 2.2-1 2.2-2.25v-1.7l-.1-.05-.05-.05c-.05-.05-.05-.05-.1-.1s-.05-.05-.1-.1l-.1-.1-.25-.1-.3-.3-.15-.05-.25-.2-.05-.05c-.05-.05-.15-.15-.2-.25l-.05-.05c-.1-.1-.15-.15-.2-.25l-.05-.05c-.05-.1-.15-.2-.2-.3l-.05-.05c-.05-.1-.15-.2-.2-.3v-.05c-.05-.1-.15-.2-.2-.35v-.05c-.05-.15-.15-.25-.2-.35-.05-.1-.1-.2-.15-.35v-.05c-.05-.15-.1-.25-.15-.35v-.05c-.05-.15-.1-.25-.15-.4v-.05c-.05-.15-.1-.25-.1-.4v-.05c-.05-.15-.05-.3-.1-.4v-.05c-.05-.15-.05-.3-.05-.45v-.05c0-.15-.05-.3-.05-.45v-.05c0-.15-.05-.35-.05-.45v-.1c0-.15 0-.3 0-.5v-.9c.25-1.65 1.1-3.4 2.45-5.35l.05-.05v-.05l.3-.3.05-.1.05-.05v-.1l.05-.05v-.1l.05-.05v-.05l.05-.05.05-.1.1-.1v-.05l.05-.05.05-.1-.05-.05.2-.2c.05-.35.1-.65.1-1zm1 0c0 .5-.05.95-.2 1.4l-.1.2-.15.15v.05l-.15.15v.05l-.05.1-.1.1v.05l-.05.05v.15l-.05.05v.05l-.05.05v.05h-.2l-.15.15v-.05l-.05.05v.1l-.05.05v.05c-1.25 1.85-2.05 3.5-2.25 4.95v.85.45.05c0 .15 0 .3.05.4v.05c0 .15.05.3.05.4v.05c0 .15.05.25.05.4v.05c.05.15.05.25.1.35v.05c.05.1.05.25.1.35v.05c.05.1.1.25.1.3v.05c.05.1.1.25.15.35v.05c.05.1.1.2.15.35l.15.3c.05.1.1.2.2.3v.05c.05.1.1.2.2.25l.05.05c.05.1.1.15.2.25l.05.05c.05.05.1.15.15.2l.05.05c.1.1.15.15.2.2l.3.3.2.15.1.1.2.15.1.05c.05.05.05.05.1.05-.05.15-.05.15 0 .15l.3.15.15.1c.15.1.25.25.25.45v1.95c0 1.8-1.45 3.3-3.2 3.3h-7.8c-1.75.05-3.2-1.45-3.2-3.25v-9.95c0-1.1.4-1.85 1.2-2.55.1-.05.4-.35.45-.4.3-.25.4-.4.4-.6 0-.15-.05-.3-.25-.55-.1-.15-.65-.75-.65-.75-.75-.95-1.15-1.85-1.15-3.15.05-2.4 1.7-4.45 4.15-5.4 0-.3 0-.65-.05-.95s.2-.6.5-.6h4.95c.35 0 .55.3.5.65s-.05.65-.05.95c2.45.95 4.1 3.05 4.1 5.4zm1 0c-1.6 1.9-2.8 3.55-3.6 5.1-.7 1.4-1.1 2.65-1.1 3.8 0 10.2 15.1 10.2 15.1 0 0-1.1-.4-2.4-1.1-3.8-.8-1.55-2-3.2-3.6-5.1-.6-.7-2.15-2.45-2.85-3.25-.75.8-2.3 2.55-2.85 3.25zm11.4 8.9c0 11.55-17.1 11.55-17.1 0 0-1.3.4-2.75 1.2-4.25.85-1.65 2.05-3.35 3.75-5.3.75-.9 3.15-3.55 3.25-3.7.2-.25.55-.25.75 0 .1.15 2.45 2.8 3.25 3.7 1.65 1.95 2.9 3.65 3.75 5.3.7 1.5 1.15 2.9 1.15 4.25zm-8.25 3.9c.3 0 .5.2.5.5s-.2.55-.5.55c-3.15.15-5.35-1.9-5.2-5.3 0-.3.25-.5.55-.5s.5.25.5.55c-.15 2.7 1.55 4.3 4.15 4.2zm-11.35-.4h-6.4c-.65 0-.65-1.05 0-1.05h6.4c.7 0 .7 1.05 0 1.05zm0 3.9h-6.4c-.65 0-.65-1.05 0-1.05h6.4c.7.05.7 1.05 0 1.05zm0-4.95v1.05h-6.4v-1.05zm0-2.55h-6.4c-.65 0-.65-1.05 0-1.05h6.4c.7 0 .7 1.05 0 1.05z"/></svg>