<svg height="32" viewBox="0 0 32 32" width="32" xmlns="http://www.w3.org/2000/svg"><path d="m29.527 4h-5.018c-.291 0-.509.218-.509.509s.218.509.509.509h5.018c.8 0 1.527.655 1.527 1.527v22.982c0 .8-.655 1.527-1.527 1.527h-27.055c-.8 0-1.527-.655-1.527-1.527v-23.055c0-.8.655-1.527 1.527-1.527h6.473v2.473c0 .8.655 1.527 1.527 1.527h10.982c.8 0 1.527-.655 1.527-1.527v-5.891c0-.8-.655-1.527-1.527-1.527h-10.982c-.8 0-1.527.655-1.527 1.527v2.473h-6.473c-1.382 0-2.473 1.091-2.473 2.473v22.982c0 1.455 1.091 2.545 2.473 2.545h26.982c1.382 0 2.473-1.091 2.473-2.473v-23.055c.073-1.382-1.018-2.473-2.4-2.473zm-19.491-2.473c0-.291.218-.509.509-.509h10.982c.291 0 .509.218.509.509v5.964c0 .291-.218.509-.509.509h-11.055c-.291 0-.509-.218-.509-.509v-5.964zm2.473 5.455c.291 0 .509-.218.509-.509v-.8l1.164 1.164c.218.218.509.218.727 0s.218-.509 0-.727l-1.673-1.673 1.673-1.673c.218-.218.218-.509 0-.727s-.509-.218-.727 0l-1.164 1.164v-.727c0-.291-.218-.509-.509-.509s-.509.218-.509.509v4c0 .291.218.509.509.509zm5.964 0h1.018c.291 0 .509-.218.509-.509v-1.964c0-.291-.218-.509-.509-.509h-.509c-.291 0-.509.218-.509.509s.218.509.509.509v1.018h-.509c-.291 0-.509-.218-.509-.509v-2.036c0-.291.218-.509.509-.509h1.018c.291 0 .509-.218.509-.509s-.218-.509-.509-.509h-1.018c-.8 0-1.527.655-1.527 1.527v2.036c.073.8.727 1.455 1.527 1.455zm-12.437 5.018c0-.8-.655-1.527-1.527-1.527-.8 0-1.527.655-1.527 1.527 0 .8.655 1.527 1.527 1.527.8 0 1.527-.727 1.527-1.527zm-2.036 0c0-.291.218-.509.509-.509s.509.218.509.509-.218.509-.509.509-.509-.218-.509-.509zm6.473-1.018c0-.8-.655-1.527-1.527-1.527-.8 0-1.527.655-1.527 1.527 0 .8.655 1.527 1.527 1.527s1.527-.655 1.527-1.527zm-1.964 0c0-.291.218-.509.509-.509s.509.218.509.509-.218.509-.509.509-.509-.218-.509-.509zm5.018-.509c-.8 0-1.527.655-1.527 1.527 0 .8.655 1.527 1.527 1.527.8 0 1.527-.655 1.527-1.527-.073-.8-.727-1.527-1.527-1.527zm0 2.036c-.291 0-.509-.218-.509-.509s.218-.509.509-.509.509.218.509.509-.291.509-.509.509zm-10.545 12.873c0 2.4 1.818 4.436 4.218 4.655h.291c1.164 0 2.255-.436 3.055-1.236.873-.873 1.455-2.036 1.455-3.273v-2.327c0-.945.364-1.818 1.018-2.473l.655-.655c.873-.873 1.309-1.964 1.309-3.2v-.364c0-1.382-1.091-2.473-2.473-2.473h-6.982c-1.382 0-2.473 1.091-2.473 2.473v8.873zm1.018-8.873c0-.8.655-1.527 1.527-1.527h6.982c.8 0 1.527.655 1.527 1.527v.364c0 .945-.364 1.818-1.018 2.473l-.655.655c-.873.873-1.309 1.964-1.309 3.2v2.327c0 1.964-1.6 3.491-3.491 3.491-.073 0-.145 0-.218 0-1.891-.145-3.273-1.745-3.273-3.636v-8.873zm25.018-4.509c0-.8-.655-1.527-1.527-1.527-.8 0-1.527.655-1.527 1.527 0 .8.655 1.527 1.527 1.527s1.527-.727 1.527-1.527zm-2.036 0c0-.291.218-.509.509-.509s.509.218.509.509-.218.509-.509.509-.509-.218-.509-.509zm-4-2.473c-.8 0-1.527.655-1.527 1.527 0 .8.655 1.527 1.527 1.527.8 0 1.527-.655 1.527-1.527s-.655-1.527-1.527-1.527zm0 1.964c-.291 0-.509-.218-.509-.509s.218-.509.509-.509.509.218.509.509-.218.509-.509.509zm-2.982.509c0-.8-.655-1.527-1.527-1.527-.8 0-1.527.655-1.527 1.527 0 .8.655 1.527 1.527 1.527s1.527-.727 1.527-1.527zm-1.964 0c0-.291.218-.509.509-.509s.509.218.509.509-.218.509-.509.509-.509-.218-.509-.509zm-1.018 4.509v.364c0 1.164.436 2.327 1.309 3.2l.655.655c.655.655 1.018 1.527 1.018 2.473v2.327c0 1.236.509 2.4 1.455 3.273.8.8 1.964 1.236 3.055 1.236h.291c2.4-.218 4.218-2.255 4.218-4.655v-8.873c0-1.382-1.091-2.473-2.473-2.473h-6.982c-1.455 0-2.545 1.091-2.545 2.473zm10.982 0v8.873c0 1.891-1.382 3.491-3.273 3.636-1.964.145-3.564-1.309-3.709-3.273 0-.073 0-.145 0-.218v-2.327c0-1.164-.436-2.327-1.309-3.2l-.655-.655c-.655-.655-1.018-1.527-1.018-2.473v-.364c0-.8.655-1.527 1.527-1.527h6.982c.8 0 1.455.655 1.455 1.527z"/></svg>