<svg height="32" viewBox="0 0 32 32" width="32" xmlns="http://www.w3.org/2000/svg"><path d="m31.85 10.8c-4.2-4.25-9.85-6.55-15.85-6.55s-11.6 2.3-15.85 6.55c-.2.2-.2.55 0 .75l3.3 3.3c.2.2.55.2.75 0 6.5-6.5 17.15-6.5 23.65 0 .1.1.25.15.35.15.15 0 .25-.05.35-.15l3.3-3.3c.1-.1.15-.25.15-.35 0-.2-.05-.3-.15-.4zm-3.65 2.9c-6.85-6.4-17.55-6.4-24.4 0l-2.55-2.55c4-3.8 9.2-5.85 14.75-5.85s10.75 2.1 14.75 5.9zm-12.2-1.15c-3.85 0-7.45 1.5-10.15 4.2-.1.1-.15.25-.15.35 0 .15.05.25.15.35l3.3 3.3c.2.2.55.2.75 0 1.65-1.65 3.8-2.55 6.1-2.55s4.5.9 6.1 2.55c.1.1.25.15.35.15s.25-.05.35-.15l3.3-3.3c.2-.2.2-.55 0-.75-2.65-2.7-6.25-4.15-10.1-4.15zm6.45 7.1c-1.8-1.6-4.05-2.45-6.45-2.45s-4.7.85-6.45 2.45l-2.55-2.55c2.45-2.3 5.65-3.55 9.05-3.55s6.55 1.25 9.05 3.55zm-6.45.1c-2.2 0-4 1.8-4 4s1.8 4 4 4 4-1.8 4-4-1.8-4-4-4zm0 6.95c-1.65 0-2.95-1.35-2.95-2.95s1.35-2.95 2.95-2.95c1.65 0 2.95 1.35 2.95 2.95s-1.3 2.95-2.95 2.95z"/></svg>