<svg height="32" viewBox="0 0 32 32" width="32" xmlns="http://www.w3.org/2000/svg"><path d="m11.127 32h9.745c.945 0 1.673-.727 1.673-1.745v-19.855c0-.727-.436-1.382-1.164-1.6.073-.145.145-.364.145-.582v-1.382c0-.582-.436-1.091-1.018-1.236 0-1.309-1.091-2.4-2.327-2.4v-2.4h.218c.218 0 .364-.145.364-.364s-.145-.364-.364-.364h-4.727c-.291-.073-.436.073-.436.291s.145.364.364.364h.218v2.4c-1.309 0-2.327 1.091-2.327 2.4-.582.145-.945.655-.945 1.309v1.382c0 .218.073.364.145.582-.727.218-1.236.8-1.236 1.6v19.855c0 .945.727 1.745 1.673 1.745zm3.564-31.127h2.691v2.4h-2.691zm-.873 3.127h4.364c.873 0 1.527.655 1.6 1.527h-7.491c0-.8.727-1.527 1.527-1.527zm-2.545 2.836c0-.218.218-.436.436-.436h8.582c.218 0 .436.218.436.436v1.382c0 .218-.218.436-.436.436h-8.582c-.073 0-.145 0-.218-.073-.145-.073-.218-.218-.218-.364v-1.382zm-1.018 3.564c0-.509.364-.945.873-.945h9.745c.509 0 .873.364.873.945v1.964h-11.491zm0 2.764h11.491v17.091c0 .509-.364.945-.873.945h-9.745c-.509 0-.873-.364-.873-.945z"/></svg>